G04 (created by PCBNEW (2013-07-07 BZR 4022)-stable) date 1/31/2015 10:55:12 PM*
%MOIN*%
G04 Gerber Fmt 3.4, Leading zero omitted, Abs format*
%FSLAX34Y34*%
G01*
G70*
G90*
G04 APERTURE LIST*
%ADD10C,0.00590551*%
%ADD11C,0.011811*%
%ADD12C,0.0031*%
%ADD13C,0.005*%
%ADD14C,0.0039*%
%ADD15C,0.0047*%
%ADD16C,0.0043*%
G04 APERTURE END LIST*
G54D10*
G54D11*
X29769Y-22675D02*
X29769Y-22085D01*
X29628Y-22085D01*
X29544Y-22113D01*
X29488Y-22169D01*
X29460Y-22225D01*
X29432Y-22338D01*
X29432Y-22422D01*
X29460Y-22535D01*
X29488Y-22591D01*
X29544Y-22647D01*
X29628Y-22675D01*
X29769Y-22675D01*
X29207Y-22507D02*
X28925Y-22507D01*
X29263Y-22675D02*
X29066Y-22085D01*
X28869Y-22675D01*
X28757Y-22085D02*
X28419Y-22085D01*
X28588Y-22675D02*
X28588Y-22085D01*
X28251Y-22507D02*
X27969Y-22507D01*
X28307Y-22675D02*
X28110Y-22085D01*
X27913Y-22675D01*
X27744Y-22141D02*
X27716Y-22113D01*
X27660Y-22085D01*
X27519Y-22085D01*
X27463Y-22113D01*
X27435Y-22141D01*
X27407Y-22197D01*
X27407Y-22254D01*
X27435Y-22338D01*
X27772Y-22675D01*
X27407Y-22675D01*
X31147Y-24616D02*
X31063Y-24644D01*
X30922Y-24644D01*
X30866Y-24616D01*
X30838Y-24588D01*
X30810Y-24531D01*
X30810Y-24475D01*
X30838Y-24419D01*
X30866Y-24391D01*
X30922Y-24363D01*
X31035Y-24335D01*
X31091Y-24306D01*
X31119Y-24278D01*
X31147Y-24222D01*
X31147Y-24166D01*
X31119Y-24110D01*
X31091Y-24081D01*
X31035Y-24053D01*
X30894Y-24053D01*
X30810Y-24081D01*
X30641Y-24053D02*
X30303Y-24053D01*
X30472Y-24644D02*
X30472Y-24053D01*
X29769Y-24644D02*
X29966Y-24363D01*
X30107Y-24644D02*
X30107Y-24053D01*
X29882Y-24053D01*
X29825Y-24081D01*
X29797Y-24110D01*
X29769Y-24166D01*
X29769Y-24250D01*
X29797Y-24306D01*
X29825Y-24335D01*
X29882Y-24363D01*
X30107Y-24363D01*
X29404Y-24053D02*
X29291Y-24053D01*
X29235Y-24081D01*
X29179Y-24138D01*
X29150Y-24250D01*
X29150Y-24447D01*
X29179Y-24559D01*
X29235Y-24616D01*
X29291Y-24644D01*
X29404Y-24644D01*
X29460Y-24616D01*
X29516Y-24559D01*
X29544Y-24447D01*
X29544Y-24250D01*
X29516Y-24138D01*
X29460Y-24081D01*
X29404Y-24053D01*
X28700Y-24335D02*
X28616Y-24363D01*
X28588Y-24391D01*
X28560Y-24447D01*
X28560Y-24531D01*
X28588Y-24588D01*
X28616Y-24616D01*
X28672Y-24644D01*
X28897Y-24644D01*
X28897Y-24053D01*
X28700Y-24053D01*
X28644Y-24081D01*
X28616Y-24110D01*
X28588Y-24166D01*
X28588Y-24222D01*
X28616Y-24278D01*
X28644Y-24306D01*
X28700Y-24335D01*
X28897Y-24335D01*
X28307Y-24335D02*
X28110Y-24335D01*
X28026Y-24644D02*
X28307Y-24644D01*
X28307Y-24053D01*
X28026Y-24053D01*
X28954Y-23603D02*
X28982Y-23631D01*
X29066Y-23660D01*
X29122Y-23660D01*
X29207Y-23631D01*
X29263Y-23575D01*
X29291Y-23519D01*
X29319Y-23407D01*
X29319Y-23322D01*
X29291Y-23210D01*
X29263Y-23153D01*
X29207Y-23097D01*
X29122Y-23069D01*
X29066Y-23069D01*
X28982Y-23097D01*
X28954Y-23125D01*
X28419Y-23660D02*
X28700Y-23660D01*
X28700Y-23069D01*
X28222Y-23660D02*
X28222Y-23069D01*
X27885Y-23660D02*
X28138Y-23322D01*
X27885Y-23069D02*
X28222Y-23407D01*
X29769Y-21691D02*
X29769Y-21101D01*
X29628Y-21101D01*
X29544Y-21129D01*
X29488Y-21185D01*
X29460Y-21241D01*
X29432Y-21354D01*
X29432Y-21438D01*
X29460Y-21550D01*
X29488Y-21607D01*
X29544Y-21663D01*
X29628Y-21691D01*
X29769Y-21691D01*
X29207Y-21522D02*
X28925Y-21522D01*
X29263Y-21691D02*
X29066Y-21101D01*
X28869Y-21691D01*
X28757Y-21101D02*
X28419Y-21101D01*
X28588Y-21691D02*
X28588Y-21101D01*
X28251Y-21522D02*
X27969Y-21522D01*
X28307Y-21691D02*
X28110Y-21101D01*
X27913Y-21691D01*
X27407Y-21691D02*
X27744Y-21691D01*
X27576Y-21691D02*
X27576Y-21101D01*
X27632Y-21185D01*
X27688Y-21241D01*
X27744Y-21269D01*
X29389Y-20116D02*
X29193Y-20707D01*
X28996Y-20116D01*
X28461Y-20651D02*
X28490Y-20679D01*
X28574Y-20707D01*
X28630Y-20707D01*
X28715Y-20679D01*
X28771Y-20622D01*
X28799Y-20566D01*
X28827Y-20454D01*
X28827Y-20369D01*
X28799Y-20257D01*
X28771Y-20201D01*
X28715Y-20144D01*
X28630Y-20116D01*
X28574Y-20116D01*
X28490Y-20144D01*
X28461Y-20173D01*
X27871Y-20651D02*
X27899Y-20679D01*
X27983Y-20707D01*
X28040Y-20707D01*
X28124Y-20679D01*
X28180Y-20622D01*
X28208Y-20566D01*
X28236Y-20454D01*
X28236Y-20369D01*
X28208Y-20257D01*
X28180Y-20201D01*
X28124Y-20144D01*
X28040Y-20116D01*
X27983Y-20116D01*
X27899Y-20144D01*
X27871Y-20173D01*
X29052Y-19160D02*
X29108Y-19132D01*
X29193Y-19132D01*
X29277Y-19160D01*
X29333Y-19216D01*
X29361Y-19273D01*
X29389Y-19385D01*
X29389Y-19469D01*
X29361Y-19582D01*
X29333Y-19638D01*
X29277Y-19694D01*
X29193Y-19723D01*
X29136Y-19723D01*
X29052Y-19694D01*
X29024Y-19666D01*
X29024Y-19469D01*
X29136Y-19469D01*
X28771Y-19723D02*
X28771Y-19132D01*
X28433Y-19723D01*
X28433Y-19132D01*
X28152Y-19723D02*
X28152Y-19132D01*
X28012Y-19132D01*
X27927Y-19160D01*
X27871Y-19216D01*
X27843Y-19273D01*
X27815Y-19385D01*
X27815Y-19469D01*
X27843Y-19582D01*
X27871Y-19638D01*
X27927Y-19694D01*
X28012Y-19723D01*
X28152Y-19723D01*
G54D12*
X41049Y-31612D02*
G75*
G03X41049Y-31612I-62J0D01*
G74*
G01*
X41950Y-31950D02*
X41950Y-31550D01*
X40925Y-31950D02*
X40925Y-31550D01*
X41950Y-31550D02*
X40925Y-31550D01*
X40925Y-31950D02*
X41950Y-31950D01*
G54D13*
X28600Y-20800D02*
X27700Y-20800D01*
X27700Y-20800D02*
X27700Y-20150D01*
X28600Y-19450D02*
X28600Y-18800D01*
X28600Y-18800D02*
X27700Y-18800D01*
X27700Y-18800D02*
X27700Y-19450D01*
X28600Y-20150D02*
X28600Y-20800D01*
G54D14*
X32150Y-21450D02*
G75*
G03X32150Y-21450I-50J0D01*
G74*
G01*
X32100Y-21000D02*
X32100Y-21400D01*
X32100Y-21400D02*
X32700Y-21400D01*
X32700Y-21400D02*
X32700Y-21000D01*
X32700Y-20600D02*
X32700Y-20200D01*
X32700Y-20200D02*
X32100Y-20200D01*
X32100Y-20200D02*
X32100Y-20600D01*
X46600Y-38450D02*
G75*
G03X46600Y-38450I-50J0D01*
G74*
G01*
X46550Y-38900D02*
X46550Y-38500D01*
X46550Y-38500D02*
X45950Y-38500D01*
X45950Y-38500D02*
X45950Y-38900D01*
X45950Y-39300D02*
X45950Y-39700D01*
X45950Y-39700D02*
X46550Y-39700D01*
X46550Y-39700D02*
X46550Y-39300D01*
X45600Y-38450D02*
G75*
G03X45600Y-38450I-50J0D01*
G74*
G01*
X45550Y-38900D02*
X45550Y-38500D01*
X45550Y-38500D02*
X44950Y-38500D01*
X44950Y-38500D02*
X44950Y-38900D01*
X44950Y-39300D02*
X44950Y-39700D01*
X44950Y-39700D02*
X45550Y-39700D01*
X45550Y-39700D02*
X45550Y-39300D01*
X46000Y-36400D02*
G75*
G03X46000Y-36400I-50J0D01*
G74*
G01*
X45950Y-35950D02*
X45950Y-36350D01*
X45950Y-36350D02*
X46550Y-36350D01*
X46550Y-36350D02*
X46550Y-35950D01*
X46550Y-35550D02*
X46550Y-35150D01*
X46550Y-35150D02*
X45950Y-35150D01*
X45950Y-35150D02*
X45950Y-35550D01*
X45050Y-36400D02*
G75*
G03X45050Y-36400I-50J0D01*
G74*
G01*
X45000Y-35950D02*
X45000Y-36350D01*
X45000Y-36350D02*
X45600Y-36350D01*
X45600Y-36350D02*
X45600Y-35950D01*
X45600Y-35550D02*
X45600Y-35150D01*
X45600Y-35150D02*
X45000Y-35150D01*
X45000Y-35150D02*
X45000Y-35550D01*
X53850Y-36250D02*
G75*
G03X53850Y-36250I-50J0D01*
G74*
G01*
X53800Y-35800D02*
X53800Y-36200D01*
X53800Y-36200D02*
X54400Y-36200D01*
X54400Y-36200D02*
X54400Y-35800D01*
X54400Y-35400D02*
X54400Y-35000D01*
X54400Y-35000D02*
X53800Y-35000D01*
X53800Y-35000D02*
X53800Y-35400D01*
X54850Y-36250D02*
G75*
G03X54850Y-36250I-50J0D01*
G74*
G01*
X54800Y-35800D02*
X54800Y-36200D01*
X54800Y-36200D02*
X55400Y-36200D01*
X55400Y-36200D02*
X55400Y-35800D01*
X55400Y-35400D02*
X55400Y-35000D01*
X55400Y-35000D02*
X54800Y-35000D01*
X54800Y-35000D02*
X54800Y-35400D01*
X54450Y-38450D02*
G75*
G03X54450Y-38450I-50J0D01*
G74*
G01*
X54400Y-38900D02*
X54400Y-38500D01*
X54400Y-38500D02*
X53800Y-38500D01*
X53800Y-38500D02*
X53800Y-38900D01*
X53800Y-39300D02*
X53800Y-39700D01*
X53800Y-39700D02*
X54400Y-39700D01*
X54400Y-39700D02*
X54400Y-39300D01*
X48550Y-38450D02*
G75*
G03X48550Y-38450I-50J0D01*
G74*
G01*
X48500Y-38900D02*
X48500Y-38500D01*
X48500Y-38500D02*
X47900Y-38500D01*
X47900Y-38500D02*
X47900Y-38900D01*
X47900Y-39300D02*
X47900Y-39700D01*
X47900Y-39700D02*
X48500Y-39700D01*
X48500Y-39700D02*
X48500Y-39300D01*
X52450Y-38450D02*
G75*
G03X52450Y-38450I-50J0D01*
G74*
G01*
X52400Y-38900D02*
X52400Y-38500D01*
X52400Y-38500D02*
X51800Y-38500D01*
X51800Y-38500D02*
X51800Y-38900D01*
X51800Y-39300D02*
X51800Y-39700D01*
X51800Y-39700D02*
X52400Y-39700D01*
X52400Y-39700D02*
X52400Y-39300D01*
X51550Y-38450D02*
G75*
G03X51550Y-38450I-50J0D01*
G74*
G01*
X51500Y-38900D02*
X51500Y-38500D01*
X51500Y-38500D02*
X50900Y-38500D01*
X50900Y-38500D02*
X50900Y-38900D01*
X50900Y-39300D02*
X50900Y-39700D01*
X50900Y-39700D02*
X51500Y-39700D01*
X51500Y-39700D02*
X51500Y-39300D01*
X51950Y-36250D02*
G75*
G03X51950Y-36250I-50J0D01*
G74*
G01*
X51900Y-35800D02*
X51900Y-36200D01*
X51900Y-36200D02*
X52500Y-36200D01*
X52500Y-36200D02*
X52500Y-35800D01*
X52500Y-35400D02*
X52500Y-35000D01*
X52500Y-35000D02*
X51900Y-35000D01*
X51900Y-35000D02*
X51900Y-35400D01*
X50950Y-36250D02*
G75*
G03X50950Y-36250I-50J0D01*
G74*
G01*
X50900Y-35800D02*
X50900Y-36200D01*
X50900Y-36200D02*
X51500Y-36200D01*
X51500Y-36200D02*
X51500Y-35800D01*
X51500Y-35400D02*
X51500Y-35000D01*
X51500Y-35000D02*
X50900Y-35000D01*
X50900Y-35000D02*
X50900Y-35400D01*
X51850Y-21550D02*
G75*
G03X51850Y-21550I-50J0D01*
G74*
G01*
X51800Y-21100D02*
X51800Y-21500D01*
X51800Y-21500D02*
X52400Y-21500D01*
X52400Y-21500D02*
X52400Y-21100D01*
X52400Y-20700D02*
X52400Y-20300D01*
X52400Y-20300D02*
X51800Y-20300D01*
X51800Y-20300D02*
X51800Y-20700D01*
X52850Y-21550D02*
G75*
G03X52850Y-21550I-50J0D01*
G74*
G01*
X52800Y-21100D02*
X52800Y-21500D01*
X52800Y-21500D02*
X53400Y-21500D01*
X53400Y-21500D02*
X53400Y-21100D01*
X53400Y-20700D02*
X53400Y-20300D01*
X53400Y-20300D02*
X52800Y-20300D01*
X52800Y-20300D02*
X52800Y-20700D01*
X52450Y-23750D02*
G75*
G03X52450Y-23750I-50J0D01*
G74*
G01*
X52400Y-24200D02*
X52400Y-23800D01*
X52400Y-23800D02*
X51800Y-23800D01*
X51800Y-23800D02*
X51800Y-24200D01*
X51800Y-24600D02*
X51800Y-25000D01*
X51800Y-25000D02*
X52400Y-25000D01*
X52400Y-25000D02*
X52400Y-24600D01*
X50550Y-23750D02*
G75*
G03X50550Y-23750I-50J0D01*
G74*
G01*
X50500Y-24200D02*
X50500Y-23800D01*
X50500Y-23800D02*
X49900Y-23800D01*
X49900Y-23800D02*
X49900Y-24200D01*
X49900Y-24600D02*
X49900Y-25000D01*
X49900Y-25000D02*
X50500Y-25000D01*
X50500Y-25000D02*
X50500Y-24600D01*
X49550Y-23750D02*
G75*
G03X49550Y-23750I-50J0D01*
G74*
G01*
X49500Y-24200D02*
X49500Y-23800D01*
X49500Y-23800D02*
X48900Y-23800D01*
X48900Y-23800D02*
X48900Y-24200D01*
X48900Y-24600D02*
X48900Y-25000D01*
X48900Y-25000D02*
X49500Y-25000D01*
X49500Y-25000D02*
X49500Y-24600D01*
X49950Y-21550D02*
G75*
G03X49950Y-21550I-50J0D01*
G74*
G01*
X49900Y-21100D02*
X49900Y-21500D01*
X49900Y-21500D02*
X50500Y-21500D01*
X50500Y-21500D02*
X50500Y-21100D01*
X50500Y-20700D02*
X50500Y-20300D01*
X50500Y-20300D02*
X49900Y-20300D01*
X49900Y-20300D02*
X49900Y-20700D01*
X48950Y-21550D02*
G75*
G03X48950Y-21550I-50J0D01*
G74*
G01*
X48900Y-21100D02*
X48900Y-21500D01*
X48900Y-21500D02*
X49500Y-21500D01*
X49500Y-21500D02*
X49500Y-21100D01*
X49500Y-20700D02*
X49500Y-20300D01*
X49500Y-20300D02*
X48900Y-20300D01*
X48900Y-20300D02*
X48900Y-20700D01*
X35750Y-23750D02*
G75*
G03X35750Y-23750I-50J0D01*
G74*
G01*
X35700Y-24200D02*
X35700Y-23800D01*
X35700Y-23800D02*
X35100Y-23800D01*
X35100Y-23800D02*
X35100Y-24200D01*
X35100Y-24600D02*
X35100Y-25000D01*
X35100Y-25000D02*
X35700Y-25000D01*
X35700Y-25000D02*
X35700Y-24600D01*
X42050Y-30250D02*
G75*
G03X42050Y-30250I-50J0D01*
G74*
G01*
X42000Y-29800D02*
X42000Y-30200D01*
X42000Y-30200D02*
X42600Y-30200D01*
X42600Y-30200D02*
X42600Y-29800D01*
X42600Y-29400D02*
X42600Y-29000D01*
X42600Y-29000D02*
X42000Y-29000D01*
X42000Y-29000D02*
X42000Y-29400D01*
X43050Y-21450D02*
G75*
G03X43050Y-21450I-50J0D01*
G74*
G01*
X43000Y-21000D02*
X43000Y-21400D01*
X43000Y-21400D02*
X43600Y-21400D01*
X43600Y-21400D02*
X43600Y-21000D01*
X43600Y-20600D02*
X43600Y-20200D01*
X43600Y-20200D02*
X43000Y-20200D01*
X43000Y-20200D02*
X43000Y-20600D01*
X44050Y-21450D02*
G75*
G03X44050Y-21450I-50J0D01*
G74*
G01*
X44000Y-21000D02*
X44000Y-21400D01*
X44000Y-21400D02*
X44600Y-21400D01*
X44600Y-21400D02*
X44600Y-21000D01*
X44600Y-20600D02*
X44600Y-20200D01*
X44600Y-20200D02*
X44000Y-20200D01*
X44000Y-20200D02*
X44000Y-20600D01*
X43650Y-23750D02*
G75*
G03X43650Y-23750I-50J0D01*
G74*
G01*
X43600Y-24200D02*
X43600Y-23800D01*
X43600Y-23800D02*
X43000Y-23800D01*
X43000Y-23800D02*
X43000Y-24200D01*
X43000Y-24600D02*
X43000Y-25000D01*
X43000Y-25000D02*
X43600Y-25000D01*
X43600Y-25000D02*
X43600Y-24600D01*
X44550Y-23750D02*
G75*
G03X44550Y-23750I-50J0D01*
G74*
G01*
X44500Y-24200D02*
X44500Y-23800D01*
X44500Y-23800D02*
X43900Y-23800D01*
X43900Y-23800D02*
X43900Y-24200D01*
X43900Y-24600D02*
X43900Y-25000D01*
X43900Y-25000D02*
X44500Y-25000D01*
X44500Y-25000D02*
X44500Y-24600D01*
X46550Y-23750D02*
G75*
G03X46550Y-23750I-50J0D01*
G74*
G01*
X46500Y-24200D02*
X46500Y-23800D01*
X46500Y-23800D02*
X45900Y-23800D01*
X45900Y-23800D02*
X45900Y-24200D01*
X45900Y-24600D02*
X45900Y-25000D01*
X45900Y-25000D02*
X46500Y-25000D01*
X46500Y-25000D02*
X46500Y-24600D01*
X47050Y-21450D02*
G75*
G03X47050Y-21450I-50J0D01*
G74*
G01*
X47000Y-21000D02*
X47000Y-21400D01*
X47000Y-21400D02*
X47600Y-21400D01*
X47600Y-21400D02*
X47600Y-21000D01*
X47600Y-20600D02*
X47600Y-20200D01*
X47600Y-20200D02*
X47000Y-20200D01*
X47000Y-20200D02*
X47000Y-20600D01*
X46050Y-21450D02*
G75*
G03X46050Y-21450I-50J0D01*
G74*
G01*
X46000Y-21000D02*
X46000Y-21400D01*
X46000Y-21400D02*
X46600Y-21400D01*
X46600Y-21400D02*
X46600Y-21000D01*
X46600Y-20600D02*
X46600Y-20200D01*
X46600Y-20200D02*
X46000Y-20200D01*
X46000Y-20200D02*
X46000Y-20600D01*
X35150Y-21450D02*
G75*
G03X35150Y-21450I-50J0D01*
G74*
G01*
X35100Y-21000D02*
X35100Y-21400D01*
X35100Y-21400D02*
X35700Y-21400D01*
X35700Y-21400D02*
X35700Y-21000D01*
X35700Y-20600D02*
X35700Y-20200D01*
X35700Y-20200D02*
X35100Y-20200D01*
X35100Y-20200D02*
X35100Y-20600D01*
X36150Y-21450D02*
G75*
G03X36150Y-21450I-50J0D01*
G74*
G01*
X36100Y-21000D02*
X36100Y-21400D01*
X36100Y-21400D02*
X36700Y-21400D01*
X36700Y-21400D02*
X36700Y-21000D01*
X36700Y-20600D02*
X36700Y-20200D01*
X36700Y-20200D02*
X36100Y-20200D01*
X36100Y-20200D02*
X36100Y-20600D01*
X48900Y-36350D02*
G75*
G03X48900Y-36350I-50J0D01*
G74*
G01*
X48850Y-35900D02*
X48850Y-36300D01*
X48850Y-36300D02*
X49450Y-36300D01*
X49450Y-36300D02*
X49450Y-35900D01*
X49450Y-35500D02*
X49450Y-35100D01*
X49450Y-35100D02*
X48850Y-35100D01*
X48850Y-35100D02*
X48850Y-35500D01*
X36750Y-23750D02*
G75*
G03X36750Y-23750I-50J0D01*
G74*
G01*
X36700Y-24200D02*
X36700Y-23800D01*
X36700Y-23800D02*
X36100Y-23800D01*
X36100Y-23800D02*
X36100Y-24200D01*
X36100Y-24600D02*
X36100Y-25000D01*
X36100Y-25000D02*
X36700Y-25000D01*
X36700Y-25000D02*
X36700Y-24600D01*
X38650Y-23750D02*
G75*
G03X38650Y-23750I-50J0D01*
G74*
G01*
X38600Y-24200D02*
X38600Y-23800D01*
X38600Y-23800D02*
X38000Y-23800D01*
X38000Y-23800D02*
X38000Y-24200D01*
X38000Y-24600D02*
X38000Y-25000D01*
X38000Y-25000D02*
X38600Y-25000D01*
X38600Y-25000D02*
X38600Y-24600D01*
X39150Y-21450D02*
G75*
G03X39150Y-21450I-50J0D01*
G74*
G01*
X39100Y-21000D02*
X39100Y-21400D01*
X39100Y-21400D02*
X39700Y-21400D01*
X39700Y-21400D02*
X39700Y-21000D01*
X39700Y-20600D02*
X39700Y-20200D01*
X39700Y-20200D02*
X39100Y-20200D01*
X39100Y-20200D02*
X39100Y-20600D01*
X38150Y-21450D02*
G75*
G03X38150Y-21450I-50J0D01*
G74*
G01*
X38100Y-21000D02*
X38100Y-21400D01*
X38100Y-21400D02*
X38700Y-21400D01*
X38700Y-21400D02*
X38700Y-21000D01*
X38700Y-20600D02*
X38700Y-20200D01*
X38700Y-20200D02*
X38100Y-20200D01*
X38100Y-20200D02*
X38100Y-20600D01*
X29250Y-21450D02*
G75*
G03X29250Y-21450I-50J0D01*
G74*
G01*
X29200Y-21000D02*
X29200Y-21400D01*
X29200Y-21400D02*
X29800Y-21400D01*
X29800Y-21400D02*
X29800Y-21000D01*
X29800Y-20600D02*
X29800Y-20200D01*
X29800Y-20200D02*
X29200Y-20200D01*
X29200Y-20200D02*
X29200Y-20600D01*
X30250Y-21450D02*
G75*
G03X30250Y-21450I-50J0D01*
G74*
G01*
X30200Y-21000D02*
X30200Y-21400D01*
X30200Y-21400D02*
X30800Y-21400D01*
X30800Y-21400D02*
X30800Y-21000D01*
X30800Y-20600D02*
X30800Y-20200D01*
X30800Y-20200D02*
X30200Y-20200D01*
X30200Y-20200D02*
X30200Y-20600D01*
X29850Y-23750D02*
G75*
G03X29850Y-23750I-50J0D01*
G74*
G01*
X29800Y-24200D02*
X29800Y-23800D01*
X29800Y-23800D02*
X29200Y-23800D01*
X29200Y-23800D02*
X29200Y-24200D01*
X29200Y-24600D02*
X29200Y-25000D01*
X29200Y-25000D02*
X29800Y-25000D01*
X29800Y-25000D02*
X29800Y-24600D01*
X30850Y-23750D02*
G75*
G03X30850Y-23750I-50J0D01*
G74*
G01*
X30800Y-24200D02*
X30800Y-23800D01*
X30800Y-23800D02*
X30200Y-23800D01*
X30200Y-23800D02*
X30200Y-24200D01*
X30200Y-24600D02*
X30200Y-25000D01*
X30200Y-25000D02*
X30800Y-25000D01*
X30800Y-25000D02*
X30800Y-24600D01*
X32750Y-23750D02*
G75*
G03X32750Y-23750I-50J0D01*
G74*
G01*
X32700Y-24200D02*
X32700Y-23800D01*
X32700Y-23800D02*
X32100Y-23800D01*
X32100Y-23800D02*
X32100Y-24200D01*
X32100Y-24600D02*
X32100Y-25000D01*
X32100Y-25000D02*
X32700Y-25000D01*
X32700Y-25000D02*
X32700Y-24600D01*
X33150Y-21450D02*
G75*
G03X33150Y-21450I-50J0D01*
G74*
G01*
X33100Y-21000D02*
X33100Y-21400D01*
X33100Y-21400D02*
X33700Y-21400D01*
X33700Y-21400D02*
X33700Y-21000D01*
X33700Y-20600D02*
X33700Y-20200D01*
X33700Y-20200D02*
X33100Y-20200D01*
X33100Y-20200D02*
X33100Y-20600D01*
X43050Y-30250D02*
G75*
G03X43050Y-30250I-50J0D01*
G74*
G01*
X43000Y-29800D02*
X43000Y-30200D01*
X43000Y-30200D02*
X43600Y-30200D01*
X43600Y-30200D02*
X43600Y-29800D01*
X43600Y-29400D02*
X43600Y-29000D01*
X43600Y-29000D02*
X43000Y-29000D01*
X43000Y-29000D02*
X43000Y-29400D01*
X47950Y-36350D02*
G75*
G03X47950Y-36350I-50J0D01*
G74*
G01*
X47900Y-35900D02*
X47900Y-36300D01*
X47900Y-36300D02*
X48500Y-36300D01*
X48500Y-36300D02*
X48500Y-35900D01*
X48500Y-35500D02*
X48500Y-35100D01*
X48500Y-35100D02*
X47900Y-35100D01*
X47900Y-35100D02*
X47900Y-35500D01*
X33200Y-36250D02*
G75*
G03X33200Y-36250I-50J0D01*
G74*
G01*
X33150Y-35800D02*
X33150Y-36200D01*
X33150Y-36200D02*
X33750Y-36200D01*
X33750Y-36200D02*
X33750Y-35800D01*
X33750Y-35400D02*
X33750Y-35000D01*
X33750Y-35000D02*
X33150Y-35000D01*
X33150Y-35000D02*
X33150Y-35400D01*
X34200Y-36250D02*
G75*
G03X34200Y-36250I-50J0D01*
G74*
G01*
X34150Y-35800D02*
X34150Y-36200D01*
X34150Y-36200D02*
X34750Y-36200D01*
X34750Y-36200D02*
X34750Y-35800D01*
X34750Y-35400D02*
X34750Y-35000D01*
X34750Y-35000D02*
X34150Y-35000D01*
X34150Y-35000D02*
X34150Y-35400D01*
X33800Y-38500D02*
G75*
G03X33800Y-38500I-50J0D01*
G74*
G01*
X33750Y-38950D02*
X33750Y-38550D01*
X33750Y-38550D02*
X33150Y-38550D01*
X33150Y-38550D02*
X33150Y-38950D01*
X33150Y-39350D02*
X33150Y-39750D01*
X33150Y-39750D02*
X33750Y-39750D01*
X33750Y-39750D02*
X33750Y-39350D01*
X34800Y-38500D02*
G75*
G03X34800Y-38500I-50J0D01*
G74*
G01*
X34750Y-38950D02*
X34750Y-38550D01*
X34750Y-38550D02*
X34150Y-38550D01*
X34150Y-38550D02*
X34150Y-38950D01*
X34150Y-39350D02*
X34150Y-39750D01*
X34150Y-39750D02*
X34750Y-39750D01*
X34750Y-39750D02*
X34750Y-39350D01*
X36700Y-38500D02*
G75*
G03X36700Y-38500I-50J0D01*
G74*
G01*
X36650Y-38950D02*
X36650Y-38550D01*
X36650Y-38550D02*
X36050Y-38550D01*
X36050Y-38550D02*
X36050Y-38950D01*
X36050Y-39350D02*
X36050Y-39750D01*
X36050Y-39750D02*
X36650Y-39750D01*
X36650Y-39750D02*
X36650Y-39350D01*
X37100Y-36250D02*
G75*
G03X37100Y-36250I-50J0D01*
G74*
G01*
X37050Y-35800D02*
X37050Y-36200D01*
X37050Y-36200D02*
X37650Y-36200D01*
X37650Y-36200D02*
X37650Y-35800D01*
X37650Y-35400D02*
X37650Y-35000D01*
X37650Y-35000D02*
X37050Y-35000D01*
X37050Y-35000D02*
X37050Y-35400D01*
X36100Y-36250D02*
G75*
G03X36100Y-36250I-50J0D01*
G74*
G01*
X36050Y-35800D02*
X36050Y-36200D01*
X36050Y-36200D02*
X36650Y-36200D01*
X36650Y-36200D02*
X36650Y-35800D01*
X36650Y-35400D02*
X36650Y-35000D01*
X36650Y-35000D02*
X36050Y-35000D01*
X36050Y-35000D02*
X36050Y-35400D01*
X27250Y-36250D02*
G75*
G03X27250Y-36250I-50J0D01*
G74*
G01*
X27200Y-35800D02*
X27200Y-36200D01*
X27200Y-36200D02*
X27800Y-36200D01*
X27800Y-36200D02*
X27800Y-35800D01*
X27800Y-35400D02*
X27800Y-35000D01*
X27800Y-35000D02*
X27200Y-35000D01*
X27200Y-35000D02*
X27200Y-35400D01*
X28250Y-36250D02*
G75*
G03X28250Y-36250I-50J0D01*
G74*
G01*
X28200Y-35800D02*
X28200Y-36200D01*
X28200Y-36200D02*
X28800Y-36200D01*
X28800Y-36200D02*
X28800Y-35800D01*
X28800Y-35400D02*
X28800Y-35000D01*
X28800Y-35000D02*
X28200Y-35000D01*
X28200Y-35000D02*
X28200Y-35400D01*
X28850Y-38450D02*
G75*
G03X28850Y-38450I-50J0D01*
G74*
G01*
X28800Y-38900D02*
X28800Y-38500D01*
X28800Y-38500D02*
X28200Y-38500D01*
X28200Y-38500D02*
X28200Y-38900D01*
X28200Y-39300D02*
X28200Y-39700D01*
X28200Y-39700D02*
X28800Y-39700D01*
X28800Y-39700D02*
X28800Y-39300D01*
X30750Y-38500D02*
G75*
G03X30750Y-38500I-50J0D01*
G74*
G01*
X30700Y-38950D02*
X30700Y-38550D01*
X30700Y-38550D02*
X30100Y-38550D01*
X30100Y-38550D02*
X30100Y-38950D01*
X30100Y-39350D02*
X30100Y-39750D01*
X30100Y-39750D02*
X30700Y-39750D01*
X30700Y-39750D02*
X30700Y-39350D01*
X31200Y-36300D02*
G75*
G03X31200Y-36300I-50J0D01*
G74*
G01*
X31150Y-35850D02*
X31150Y-36250D01*
X31150Y-36250D02*
X31750Y-36250D01*
X31750Y-36250D02*
X31750Y-35850D01*
X31750Y-35450D02*
X31750Y-35050D01*
X31750Y-35050D02*
X31150Y-35050D01*
X31150Y-35050D02*
X31150Y-35450D01*
X30200Y-36300D02*
G75*
G03X30200Y-36300I-50J0D01*
G74*
G01*
X30150Y-35850D02*
X30150Y-36250D01*
X30150Y-36250D02*
X30750Y-36250D01*
X30750Y-36250D02*
X30750Y-35850D01*
X30750Y-35450D02*
X30750Y-35050D01*
X30750Y-35050D02*
X30150Y-35050D01*
X30150Y-35050D02*
X30150Y-35450D01*
X39050Y-30250D02*
G75*
G03X39050Y-30250I-50J0D01*
G74*
G01*
X39000Y-29800D02*
X39000Y-30200D01*
X39000Y-30200D02*
X39600Y-30200D01*
X39600Y-30200D02*
X39600Y-29800D01*
X39600Y-29400D02*
X39600Y-29000D01*
X39600Y-29000D02*
X39000Y-29000D01*
X39000Y-29000D02*
X39000Y-29400D01*
X27900Y-38450D02*
G75*
G03X27900Y-38450I-50J0D01*
G74*
G01*
X27850Y-38900D02*
X27850Y-38500D01*
X27850Y-38500D02*
X27250Y-38500D01*
X27250Y-38500D02*
X27250Y-38900D01*
X27250Y-39300D02*
X27250Y-39700D01*
X27250Y-39700D02*
X27850Y-39700D01*
X27850Y-39700D02*
X27850Y-39300D01*
X40050Y-30250D02*
G75*
G03X40050Y-30250I-50J0D01*
G74*
G01*
X40000Y-29800D02*
X40000Y-30200D01*
X40000Y-30200D02*
X40600Y-30200D01*
X40600Y-30200D02*
X40600Y-29800D01*
X40600Y-29400D02*
X40600Y-29000D01*
X40600Y-29000D02*
X40000Y-29000D01*
X40000Y-29000D02*
X40000Y-29400D01*
X39650Y-32650D02*
G75*
G03X39650Y-32650I-50J0D01*
G74*
G01*
X39600Y-33100D02*
X39600Y-32700D01*
X39600Y-32700D02*
X39000Y-32700D01*
X39000Y-32700D02*
X39000Y-33100D01*
X39000Y-33500D02*
X39000Y-33900D01*
X39000Y-33900D02*
X39600Y-33900D01*
X39600Y-33900D02*
X39600Y-33500D01*
X40650Y-32650D02*
G75*
G03X40650Y-32650I-50J0D01*
G74*
G01*
X40600Y-33100D02*
X40600Y-32700D01*
X40600Y-32700D02*
X40000Y-32700D01*
X40000Y-32700D02*
X40000Y-33100D01*
X40000Y-33500D02*
X40000Y-33900D01*
X40000Y-33900D02*
X40600Y-33900D01*
X40600Y-33900D02*
X40600Y-33500D01*
X42650Y-32650D02*
G75*
G03X42650Y-32650I-50J0D01*
G74*
G01*
X42600Y-33100D02*
X42600Y-32700D01*
X42600Y-32700D02*
X42000Y-32700D01*
X42000Y-32700D02*
X42000Y-33100D01*
X42000Y-33500D02*
X42000Y-33900D01*
X42000Y-33900D02*
X42600Y-33900D01*
X42600Y-33900D02*
X42600Y-33500D01*
G54D13*
X28475Y-27125D02*
X28475Y-27385D01*
X29225Y-27125D02*
X29225Y-27385D01*
X28850Y-26575D02*
X28850Y-26315D01*
X29440Y-26575D02*
X28260Y-26575D01*
X28260Y-26575D02*
X28260Y-27125D01*
X28260Y-27125D02*
X29440Y-27125D01*
X29440Y-27125D02*
X29440Y-26575D01*
G54D15*
X42387Y-31617D02*
X42372Y-31589D01*
X42344Y-31560D01*
X42301Y-31517D01*
X42287Y-31489D01*
X42287Y-31460D01*
X42358Y-31474D02*
X42344Y-31446D01*
X42315Y-31417D01*
X42258Y-31403D01*
X42158Y-31403D01*
X42101Y-31417D01*
X42072Y-31446D01*
X42058Y-31474D01*
X42058Y-31531D01*
X42072Y-31560D01*
X42101Y-31589D01*
X42158Y-31603D01*
X42258Y-31603D01*
X42315Y-31589D01*
X42344Y-31560D01*
X42358Y-31531D01*
X42358Y-31474D01*
X42358Y-31889D02*
X42358Y-31717D01*
X42358Y-31803D02*
X42058Y-31803D01*
X42101Y-31774D01*
X42129Y-31746D01*
X42144Y-31717D01*
X42058Y-32146D02*
X42058Y-32089D01*
X42072Y-32060D01*
X42087Y-32046D01*
X42129Y-32017D01*
X42187Y-32003D01*
X42301Y-32003D01*
X42329Y-32017D01*
X42344Y-32031D01*
X42358Y-32060D01*
X42358Y-32117D01*
X42344Y-32146D01*
X42329Y-32160D01*
X42301Y-32174D01*
X42229Y-32174D01*
X42201Y-32160D01*
X42187Y-32146D01*
X42172Y-32117D01*
X42172Y-32060D01*
X42187Y-32031D01*
X42201Y-32017D01*
X42229Y-32003D01*
G54D14*
X42202Y-31829D02*
X42202Y-31632D01*
X42136Y-31773D01*
X42070Y-31632D01*
X42070Y-31829D01*
X41976Y-31829D02*
X41976Y-31632D01*
X41911Y-31773D01*
X41845Y-31632D01*
X41845Y-31829D01*
X41686Y-31726D02*
X41657Y-31735D01*
X41648Y-31745D01*
X41639Y-31764D01*
X41639Y-31792D01*
X41648Y-31810D01*
X41657Y-31820D01*
X41676Y-31829D01*
X41751Y-31829D01*
X41751Y-31632D01*
X41686Y-31632D01*
X41667Y-31642D01*
X41657Y-31651D01*
X41648Y-31670D01*
X41648Y-31689D01*
X41657Y-31707D01*
X41667Y-31717D01*
X41686Y-31726D01*
X41751Y-31726D01*
X41582Y-31632D02*
X41470Y-31632D01*
X41526Y-31829D02*
X41526Y-31632D01*
X41320Y-31632D02*
X41357Y-31632D01*
X41376Y-31642D01*
X41385Y-31651D01*
X41404Y-31679D01*
X41414Y-31717D01*
X41414Y-31792D01*
X41404Y-31810D01*
X41395Y-31820D01*
X41376Y-31829D01*
X41338Y-31829D01*
X41320Y-31820D01*
X41310Y-31810D01*
X41301Y-31792D01*
X41301Y-31745D01*
X41310Y-31726D01*
X41320Y-31717D01*
X41338Y-31707D01*
X41376Y-31707D01*
X41395Y-31717D01*
X41404Y-31726D01*
X41414Y-31745D01*
X41132Y-31698D02*
X41132Y-31829D01*
X41179Y-31623D02*
X41226Y-31764D01*
X41104Y-31764D01*
X41038Y-31651D02*
X41029Y-31642D01*
X41010Y-31632D01*
X40963Y-31632D01*
X40944Y-31642D01*
X40935Y-31651D01*
X40926Y-31670D01*
X40926Y-31689D01*
X40935Y-31717D01*
X41048Y-31829D01*
X40926Y-31829D01*
X40860Y-31632D02*
X40729Y-31632D01*
X40813Y-31829D01*
G54D13*
X28242Y-19750D02*
X28257Y-19735D01*
X28271Y-19692D01*
X28271Y-19664D01*
X28257Y-19621D01*
X28228Y-19592D01*
X28200Y-19578D01*
X28142Y-19564D01*
X28100Y-19564D01*
X28042Y-19578D01*
X28014Y-19592D01*
X27985Y-19621D01*
X27971Y-19664D01*
X27971Y-19692D01*
X27985Y-19735D01*
X28000Y-19750D01*
X28271Y-20035D02*
X28271Y-19864D01*
X28271Y-19950D02*
X27971Y-19950D01*
X28014Y-19921D01*
X28042Y-19892D01*
X28057Y-19864D01*
G54D16*
X32604Y-20767D02*
X32510Y-20701D01*
X32604Y-20654D02*
X32407Y-20654D01*
X32407Y-20729D01*
X32417Y-20748D01*
X32426Y-20757D01*
X32445Y-20767D01*
X32473Y-20767D01*
X32492Y-20757D01*
X32501Y-20748D01*
X32510Y-20729D01*
X32510Y-20654D01*
X32492Y-20879D02*
X32482Y-20860D01*
X32473Y-20851D01*
X32454Y-20842D01*
X32445Y-20842D01*
X32426Y-20851D01*
X32417Y-20860D01*
X32407Y-20879D01*
X32407Y-20917D01*
X32417Y-20936D01*
X32426Y-20945D01*
X32445Y-20954D01*
X32454Y-20954D01*
X32473Y-20945D01*
X32482Y-20936D01*
X32492Y-20917D01*
X32492Y-20879D01*
X32501Y-20860D01*
X32510Y-20851D01*
X32529Y-20842D01*
X32567Y-20842D01*
X32585Y-20851D01*
X32595Y-20860D01*
X32604Y-20879D01*
X32604Y-20917D01*
X32595Y-20936D01*
X32585Y-20945D01*
X32567Y-20954D01*
X32529Y-20954D01*
X32510Y-20945D01*
X32501Y-20936D01*
X32492Y-20917D01*
X32329Y-20518D02*
X32235Y-20452D01*
X32329Y-20406D02*
X32132Y-20406D01*
X32132Y-20481D01*
X32142Y-20499D01*
X32151Y-20509D01*
X32170Y-20518D01*
X32198Y-20518D01*
X32217Y-20509D01*
X32226Y-20499D01*
X32235Y-20481D01*
X32235Y-20406D01*
X32348Y-20556D02*
X32348Y-20706D01*
X32329Y-20846D02*
X32329Y-20753D01*
X32132Y-20753D01*
X32226Y-20912D02*
X32226Y-20978D01*
X32329Y-21006D02*
X32329Y-20912D01*
X32132Y-20912D01*
X32132Y-21006D01*
X32329Y-21090D02*
X32132Y-21090D01*
X32132Y-21137D01*
X32142Y-21165D01*
X32160Y-21184D01*
X32179Y-21194D01*
X32217Y-21203D01*
X32245Y-21203D01*
X32282Y-21194D01*
X32301Y-21184D01*
X32320Y-21165D01*
X32329Y-21137D01*
X32329Y-21090D01*
X46204Y-38973D02*
X46110Y-38907D01*
X46204Y-38860D02*
X46007Y-38860D01*
X46007Y-38935D01*
X46017Y-38954D01*
X46026Y-38963D01*
X46045Y-38973D01*
X46073Y-38973D01*
X46092Y-38963D01*
X46101Y-38954D01*
X46110Y-38935D01*
X46110Y-38860D01*
X46007Y-39151D02*
X46007Y-39057D01*
X46101Y-39048D01*
X46092Y-39057D01*
X46082Y-39076D01*
X46082Y-39123D01*
X46092Y-39142D01*
X46101Y-39151D01*
X46120Y-39160D01*
X46167Y-39160D01*
X46185Y-39151D01*
X46195Y-39142D01*
X46204Y-39123D01*
X46204Y-39076D01*
X46195Y-39057D01*
X46185Y-39048D01*
X46073Y-39329D02*
X46204Y-39329D01*
X45998Y-39282D02*
X46139Y-39236D01*
X46139Y-39357D01*
X46479Y-38818D02*
X46385Y-38752D01*
X46479Y-38706D02*
X46282Y-38706D01*
X46282Y-38781D01*
X46292Y-38799D01*
X46301Y-38809D01*
X46320Y-38818D01*
X46348Y-38818D01*
X46367Y-38809D01*
X46376Y-38799D01*
X46385Y-38781D01*
X46385Y-38706D01*
X46498Y-38856D02*
X46498Y-39006D01*
X46479Y-39146D02*
X46479Y-39053D01*
X46282Y-39053D01*
X46376Y-39212D02*
X46376Y-39278D01*
X46479Y-39306D02*
X46479Y-39212D01*
X46282Y-39212D01*
X46282Y-39306D01*
X46479Y-39390D02*
X46282Y-39390D01*
X46282Y-39437D01*
X46292Y-39465D01*
X46310Y-39484D01*
X46329Y-39494D01*
X46367Y-39503D01*
X46395Y-39503D01*
X46432Y-39494D01*
X46451Y-39484D01*
X46470Y-39465D01*
X46479Y-39437D01*
X46479Y-39390D01*
X45204Y-38973D02*
X45110Y-38907D01*
X45204Y-38860D02*
X45007Y-38860D01*
X45007Y-38935D01*
X45017Y-38954D01*
X45026Y-38963D01*
X45045Y-38973D01*
X45073Y-38973D01*
X45092Y-38963D01*
X45101Y-38954D01*
X45110Y-38935D01*
X45110Y-38860D01*
X45007Y-39151D02*
X45007Y-39057D01*
X45101Y-39048D01*
X45092Y-39057D01*
X45082Y-39076D01*
X45082Y-39123D01*
X45092Y-39142D01*
X45101Y-39151D01*
X45120Y-39160D01*
X45167Y-39160D01*
X45185Y-39151D01*
X45195Y-39142D01*
X45204Y-39123D01*
X45204Y-39076D01*
X45195Y-39057D01*
X45185Y-39048D01*
X45007Y-39339D02*
X45007Y-39245D01*
X45101Y-39236D01*
X45092Y-39245D01*
X45082Y-39264D01*
X45082Y-39311D01*
X45092Y-39329D01*
X45101Y-39339D01*
X45120Y-39348D01*
X45167Y-39348D01*
X45185Y-39339D01*
X45195Y-39329D01*
X45204Y-39311D01*
X45204Y-39264D01*
X45195Y-39245D01*
X45185Y-39236D01*
X45479Y-38818D02*
X45385Y-38752D01*
X45479Y-38706D02*
X45282Y-38706D01*
X45282Y-38781D01*
X45292Y-38799D01*
X45301Y-38809D01*
X45320Y-38818D01*
X45348Y-38818D01*
X45367Y-38809D01*
X45376Y-38799D01*
X45385Y-38781D01*
X45385Y-38706D01*
X45498Y-38856D02*
X45498Y-39006D01*
X45479Y-39146D02*
X45479Y-39053D01*
X45282Y-39053D01*
X45376Y-39212D02*
X45376Y-39278D01*
X45479Y-39306D02*
X45479Y-39212D01*
X45282Y-39212D01*
X45282Y-39306D01*
X45479Y-39390D02*
X45282Y-39390D01*
X45282Y-39437D01*
X45292Y-39465D01*
X45310Y-39484D01*
X45329Y-39494D01*
X45367Y-39503D01*
X45395Y-39503D01*
X45432Y-39494D01*
X45451Y-39484D01*
X45470Y-39465D01*
X45479Y-39437D01*
X45479Y-39390D01*
X46454Y-35623D02*
X46360Y-35557D01*
X46454Y-35510D02*
X46257Y-35510D01*
X46257Y-35585D01*
X46267Y-35604D01*
X46276Y-35613D01*
X46295Y-35623D01*
X46323Y-35623D01*
X46342Y-35613D01*
X46351Y-35604D01*
X46360Y-35585D01*
X46360Y-35510D01*
X46257Y-35801D02*
X46257Y-35707D01*
X46351Y-35698D01*
X46342Y-35707D01*
X46332Y-35726D01*
X46332Y-35773D01*
X46342Y-35792D01*
X46351Y-35801D01*
X46370Y-35810D01*
X46417Y-35810D01*
X46435Y-35801D01*
X46445Y-35792D01*
X46454Y-35773D01*
X46454Y-35726D01*
X46445Y-35707D01*
X46435Y-35698D01*
X46257Y-35979D02*
X46257Y-35942D01*
X46267Y-35923D01*
X46276Y-35914D01*
X46304Y-35895D01*
X46342Y-35886D01*
X46417Y-35886D01*
X46435Y-35895D01*
X46445Y-35904D01*
X46454Y-35923D01*
X46454Y-35961D01*
X46445Y-35979D01*
X46435Y-35989D01*
X46417Y-35998D01*
X46370Y-35998D01*
X46351Y-35989D01*
X46342Y-35979D01*
X46332Y-35961D01*
X46332Y-35923D01*
X46342Y-35904D01*
X46351Y-35895D01*
X46370Y-35886D01*
X46179Y-35468D02*
X46085Y-35402D01*
X46179Y-35356D02*
X45982Y-35356D01*
X45982Y-35431D01*
X45992Y-35449D01*
X46001Y-35459D01*
X46020Y-35468D01*
X46048Y-35468D01*
X46067Y-35459D01*
X46076Y-35449D01*
X46085Y-35431D01*
X46085Y-35356D01*
X46198Y-35506D02*
X46198Y-35656D01*
X46179Y-35796D02*
X46179Y-35703D01*
X45982Y-35703D01*
X46076Y-35862D02*
X46076Y-35928D01*
X46179Y-35956D02*
X46179Y-35862D01*
X45982Y-35862D01*
X45982Y-35956D01*
X46179Y-36040D02*
X45982Y-36040D01*
X45982Y-36087D01*
X45992Y-36115D01*
X46010Y-36134D01*
X46029Y-36144D01*
X46067Y-36153D01*
X46095Y-36153D01*
X46132Y-36144D01*
X46151Y-36134D01*
X46170Y-36115D01*
X46179Y-36087D01*
X46179Y-36040D01*
X45504Y-35623D02*
X45410Y-35557D01*
X45504Y-35510D02*
X45307Y-35510D01*
X45307Y-35585D01*
X45317Y-35604D01*
X45326Y-35613D01*
X45345Y-35623D01*
X45373Y-35623D01*
X45392Y-35613D01*
X45401Y-35604D01*
X45410Y-35585D01*
X45410Y-35510D01*
X45307Y-35801D02*
X45307Y-35707D01*
X45401Y-35698D01*
X45392Y-35707D01*
X45382Y-35726D01*
X45382Y-35773D01*
X45392Y-35792D01*
X45401Y-35801D01*
X45420Y-35810D01*
X45467Y-35810D01*
X45485Y-35801D01*
X45495Y-35792D01*
X45504Y-35773D01*
X45504Y-35726D01*
X45495Y-35707D01*
X45485Y-35698D01*
X45307Y-35876D02*
X45307Y-36007D01*
X45504Y-35923D01*
X45229Y-35468D02*
X45135Y-35402D01*
X45229Y-35356D02*
X45032Y-35356D01*
X45032Y-35431D01*
X45042Y-35449D01*
X45051Y-35459D01*
X45070Y-35468D01*
X45098Y-35468D01*
X45117Y-35459D01*
X45126Y-35449D01*
X45135Y-35431D01*
X45135Y-35356D01*
X45248Y-35506D02*
X45248Y-35656D01*
X45229Y-35796D02*
X45229Y-35703D01*
X45032Y-35703D01*
X45126Y-35862D02*
X45126Y-35928D01*
X45229Y-35956D02*
X45229Y-35862D01*
X45032Y-35862D01*
X45032Y-35956D01*
X45229Y-36040D02*
X45032Y-36040D01*
X45032Y-36087D01*
X45042Y-36115D01*
X45060Y-36134D01*
X45079Y-36144D01*
X45117Y-36153D01*
X45145Y-36153D01*
X45182Y-36144D01*
X45201Y-36134D01*
X45220Y-36115D01*
X45229Y-36087D01*
X45229Y-36040D01*
X54304Y-35473D02*
X54210Y-35407D01*
X54304Y-35360D02*
X54107Y-35360D01*
X54107Y-35435D01*
X54117Y-35454D01*
X54126Y-35463D01*
X54145Y-35473D01*
X54173Y-35473D01*
X54192Y-35463D01*
X54201Y-35454D01*
X54210Y-35435D01*
X54210Y-35360D01*
X54107Y-35539D02*
X54107Y-35670D01*
X54304Y-35585D01*
X54107Y-35726D02*
X54107Y-35848D01*
X54182Y-35782D01*
X54182Y-35811D01*
X54192Y-35829D01*
X54201Y-35839D01*
X54220Y-35848D01*
X54267Y-35848D01*
X54285Y-35839D01*
X54295Y-35829D01*
X54304Y-35811D01*
X54304Y-35754D01*
X54295Y-35736D01*
X54285Y-35726D01*
X54029Y-35318D02*
X53935Y-35252D01*
X54029Y-35206D02*
X53832Y-35206D01*
X53832Y-35281D01*
X53842Y-35299D01*
X53851Y-35309D01*
X53870Y-35318D01*
X53898Y-35318D01*
X53917Y-35309D01*
X53926Y-35299D01*
X53935Y-35281D01*
X53935Y-35206D01*
X54048Y-35356D02*
X54048Y-35506D01*
X54029Y-35646D02*
X54029Y-35553D01*
X53832Y-35553D01*
X53926Y-35712D02*
X53926Y-35778D01*
X54029Y-35806D02*
X54029Y-35712D01*
X53832Y-35712D01*
X53832Y-35806D01*
X54029Y-35890D02*
X53832Y-35890D01*
X53832Y-35937D01*
X53842Y-35965D01*
X53860Y-35984D01*
X53879Y-35994D01*
X53917Y-36003D01*
X53945Y-36003D01*
X53982Y-35994D01*
X54001Y-35984D01*
X54020Y-35965D01*
X54029Y-35937D01*
X54029Y-35890D01*
X55304Y-35473D02*
X55210Y-35407D01*
X55304Y-35360D02*
X55107Y-35360D01*
X55107Y-35435D01*
X55117Y-35454D01*
X55126Y-35463D01*
X55145Y-35473D01*
X55173Y-35473D01*
X55192Y-35463D01*
X55201Y-35454D01*
X55210Y-35435D01*
X55210Y-35360D01*
X55107Y-35539D02*
X55107Y-35670D01*
X55304Y-35585D01*
X55173Y-35829D02*
X55304Y-35829D01*
X55098Y-35782D02*
X55239Y-35736D01*
X55239Y-35857D01*
X55029Y-35318D02*
X54935Y-35252D01*
X55029Y-35206D02*
X54832Y-35206D01*
X54832Y-35281D01*
X54842Y-35299D01*
X54851Y-35309D01*
X54870Y-35318D01*
X54898Y-35318D01*
X54917Y-35309D01*
X54926Y-35299D01*
X54935Y-35281D01*
X54935Y-35206D01*
X55048Y-35356D02*
X55048Y-35506D01*
X55029Y-35646D02*
X55029Y-35553D01*
X54832Y-35553D01*
X54926Y-35712D02*
X54926Y-35778D01*
X55029Y-35806D02*
X55029Y-35712D01*
X54832Y-35712D01*
X54832Y-35806D01*
X55029Y-35890D02*
X54832Y-35890D01*
X54832Y-35937D01*
X54842Y-35965D01*
X54860Y-35984D01*
X54879Y-35994D01*
X54917Y-36003D01*
X54945Y-36003D01*
X54982Y-35994D01*
X55001Y-35984D01*
X55020Y-35965D01*
X55029Y-35937D01*
X55029Y-35890D01*
X54054Y-38973D02*
X53960Y-38907D01*
X54054Y-38860D02*
X53857Y-38860D01*
X53857Y-38935D01*
X53867Y-38954D01*
X53876Y-38963D01*
X53895Y-38973D01*
X53923Y-38973D01*
X53942Y-38963D01*
X53951Y-38954D01*
X53960Y-38935D01*
X53960Y-38860D01*
X53857Y-39039D02*
X53857Y-39170D01*
X54054Y-39085D01*
X53857Y-39339D02*
X53857Y-39245D01*
X53951Y-39236D01*
X53942Y-39245D01*
X53932Y-39264D01*
X53932Y-39311D01*
X53942Y-39329D01*
X53951Y-39339D01*
X53970Y-39348D01*
X54017Y-39348D01*
X54035Y-39339D01*
X54045Y-39329D01*
X54054Y-39311D01*
X54054Y-39264D01*
X54045Y-39245D01*
X54035Y-39236D01*
X54329Y-38818D02*
X54235Y-38752D01*
X54329Y-38706D02*
X54132Y-38706D01*
X54132Y-38781D01*
X54142Y-38799D01*
X54151Y-38809D01*
X54170Y-38818D01*
X54198Y-38818D01*
X54217Y-38809D01*
X54226Y-38799D01*
X54235Y-38781D01*
X54235Y-38706D01*
X54348Y-38856D02*
X54348Y-39006D01*
X54329Y-39146D02*
X54329Y-39053D01*
X54132Y-39053D01*
X54226Y-39212D02*
X54226Y-39278D01*
X54329Y-39306D02*
X54329Y-39212D01*
X54132Y-39212D01*
X54132Y-39306D01*
X54329Y-39390D02*
X54132Y-39390D01*
X54132Y-39437D01*
X54142Y-39465D01*
X54160Y-39484D01*
X54179Y-39494D01*
X54217Y-39503D01*
X54245Y-39503D01*
X54282Y-39494D01*
X54301Y-39484D01*
X54320Y-39465D01*
X54329Y-39437D01*
X54329Y-39390D01*
X48154Y-38973D02*
X48060Y-38907D01*
X48154Y-38860D02*
X47957Y-38860D01*
X47957Y-38935D01*
X47967Y-38954D01*
X47976Y-38963D01*
X47995Y-38973D01*
X48023Y-38973D01*
X48042Y-38963D01*
X48051Y-38954D01*
X48060Y-38935D01*
X48060Y-38860D01*
X47957Y-39151D02*
X47957Y-39057D01*
X48051Y-39048D01*
X48042Y-39057D01*
X48032Y-39076D01*
X48032Y-39123D01*
X48042Y-39142D01*
X48051Y-39151D01*
X48070Y-39160D01*
X48117Y-39160D01*
X48135Y-39151D01*
X48145Y-39142D01*
X48154Y-39123D01*
X48154Y-39076D01*
X48145Y-39057D01*
X48135Y-39048D01*
X47957Y-39226D02*
X47957Y-39348D01*
X48032Y-39282D01*
X48032Y-39311D01*
X48042Y-39329D01*
X48051Y-39339D01*
X48070Y-39348D01*
X48117Y-39348D01*
X48135Y-39339D01*
X48145Y-39329D01*
X48154Y-39311D01*
X48154Y-39254D01*
X48145Y-39236D01*
X48135Y-39226D01*
X48429Y-38818D02*
X48335Y-38752D01*
X48429Y-38706D02*
X48232Y-38706D01*
X48232Y-38781D01*
X48242Y-38799D01*
X48251Y-38809D01*
X48270Y-38818D01*
X48298Y-38818D01*
X48317Y-38809D01*
X48326Y-38799D01*
X48335Y-38781D01*
X48335Y-38706D01*
X48448Y-38856D02*
X48448Y-39006D01*
X48429Y-39146D02*
X48429Y-39053D01*
X48232Y-39053D01*
X48326Y-39212D02*
X48326Y-39278D01*
X48429Y-39306D02*
X48429Y-39212D01*
X48232Y-39212D01*
X48232Y-39306D01*
X48429Y-39390D02*
X48232Y-39390D01*
X48232Y-39437D01*
X48242Y-39465D01*
X48260Y-39484D01*
X48279Y-39494D01*
X48317Y-39503D01*
X48345Y-39503D01*
X48382Y-39494D01*
X48401Y-39484D01*
X48420Y-39465D01*
X48429Y-39437D01*
X48429Y-39390D01*
X52054Y-38973D02*
X51960Y-38907D01*
X52054Y-38860D02*
X51857Y-38860D01*
X51857Y-38935D01*
X51867Y-38954D01*
X51876Y-38963D01*
X51895Y-38973D01*
X51923Y-38973D01*
X51942Y-38963D01*
X51951Y-38954D01*
X51960Y-38935D01*
X51960Y-38860D01*
X51857Y-39039D02*
X51857Y-39170D01*
X52054Y-39085D01*
X51857Y-39329D02*
X51857Y-39292D01*
X51867Y-39273D01*
X51876Y-39264D01*
X51904Y-39245D01*
X51942Y-39236D01*
X52017Y-39236D01*
X52035Y-39245D01*
X52045Y-39254D01*
X52054Y-39273D01*
X52054Y-39311D01*
X52045Y-39329D01*
X52035Y-39339D01*
X52017Y-39348D01*
X51970Y-39348D01*
X51951Y-39339D01*
X51942Y-39329D01*
X51932Y-39311D01*
X51932Y-39273D01*
X51942Y-39254D01*
X51951Y-39245D01*
X51970Y-39236D01*
X52329Y-38818D02*
X52235Y-38752D01*
X52329Y-38706D02*
X52132Y-38706D01*
X52132Y-38781D01*
X52142Y-38799D01*
X52151Y-38809D01*
X52170Y-38818D01*
X52198Y-38818D01*
X52217Y-38809D01*
X52226Y-38799D01*
X52235Y-38781D01*
X52235Y-38706D01*
X52348Y-38856D02*
X52348Y-39006D01*
X52329Y-39146D02*
X52329Y-39053D01*
X52132Y-39053D01*
X52226Y-39212D02*
X52226Y-39278D01*
X52329Y-39306D02*
X52329Y-39212D01*
X52132Y-39212D01*
X52132Y-39306D01*
X52329Y-39390D02*
X52132Y-39390D01*
X52132Y-39437D01*
X52142Y-39465D01*
X52160Y-39484D01*
X52179Y-39494D01*
X52217Y-39503D01*
X52245Y-39503D01*
X52282Y-39494D01*
X52301Y-39484D01*
X52320Y-39465D01*
X52329Y-39437D01*
X52329Y-39390D01*
X51154Y-38973D02*
X51060Y-38907D01*
X51154Y-38860D02*
X50957Y-38860D01*
X50957Y-38935D01*
X50967Y-38954D01*
X50976Y-38963D01*
X50995Y-38973D01*
X51023Y-38973D01*
X51042Y-38963D01*
X51051Y-38954D01*
X51060Y-38935D01*
X51060Y-38860D01*
X50957Y-39039D02*
X50957Y-39170D01*
X51154Y-39085D01*
X50957Y-39226D02*
X50957Y-39357D01*
X51154Y-39273D01*
X51429Y-38818D02*
X51335Y-38752D01*
X51429Y-38706D02*
X51232Y-38706D01*
X51232Y-38781D01*
X51242Y-38799D01*
X51251Y-38809D01*
X51270Y-38818D01*
X51298Y-38818D01*
X51317Y-38809D01*
X51326Y-38799D01*
X51335Y-38781D01*
X51335Y-38706D01*
X51448Y-38856D02*
X51448Y-39006D01*
X51429Y-39146D02*
X51429Y-39053D01*
X51232Y-39053D01*
X51326Y-39212D02*
X51326Y-39278D01*
X51429Y-39306D02*
X51429Y-39212D01*
X51232Y-39212D01*
X51232Y-39306D01*
X51429Y-39390D02*
X51232Y-39390D01*
X51232Y-39437D01*
X51242Y-39465D01*
X51260Y-39484D01*
X51279Y-39494D01*
X51317Y-39503D01*
X51345Y-39503D01*
X51382Y-39494D01*
X51401Y-39484D01*
X51420Y-39465D01*
X51429Y-39437D01*
X51429Y-39390D01*
X52404Y-35473D02*
X52310Y-35407D01*
X52404Y-35360D02*
X52207Y-35360D01*
X52207Y-35435D01*
X52217Y-35454D01*
X52226Y-35463D01*
X52245Y-35473D01*
X52273Y-35473D01*
X52292Y-35463D01*
X52301Y-35454D01*
X52310Y-35435D01*
X52310Y-35360D01*
X52207Y-35539D02*
X52207Y-35670D01*
X52404Y-35585D01*
X52292Y-35773D02*
X52282Y-35754D01*
X52273Y-35745D01*
X52254Y-35736D01*
X52245Y-35736D01*
X52226Y-35745D01*
X52217Y-35754D01*
X52207Y-35773D01*
X52207Y-35811D01*
X52217Y-35829D01*
X52226Y-35839D01*
X52245Y-35848D01*
X52254Y-35848D01*
X52273Y-35839D01*
X52282Y-35829D01*
X52292Y-35811D01*
X52292Y-35773D01*
X52301Y-35754D01*
X52310Y-35745D01*
X52329Y-35736D01*
X52367Y-35736D01*
X52385Y-35745D01*
X52395Y-35754D01*
X52404Y-35773D01*
X52404Y-35811D01*
X52395Y-35829D01*
X52385Y-35839D01*
X52367Y-35848D01*
X52329Y-35848D01*
X52310Y-35839D01*
X52301Y-35829D01*
X52292Y-35811D01*
X52129Y-35318D02*
X52035Y-35252D01*
X52129Y-35206D02*
X51932Y-35206D01*
X51932Y-35281D01*
X51942Y-35299D01*
X51951Y-35309D01*
X51970Y-35318D01*
X51998Y-35318D01*
X52017Y-35309D01*
X52026Y-35299D01*
X52035Y-35281D01*
X52035Y-35206D01*
X52148Y-35356D02*
X52148Y-35506D01*
X52129Y-35646D02*
X52129Y-35553D01*
X51932Y-35553D01*
X52026Y-35712D02*
X52026Y-35778D01*
X52129Y-35806D02*
X52129Y-35712D01*
X51932Y-35712D01*
X51932Y-35806D01*
X52129Y-35890D02*
X51932Y-35890D01*
X51932Y-35937D01*
X51942Y-35965D01*
X51960Y-35984D01*
X51979Y-35994D01*
X52017Y-36003D01*
X52045Y-36003D01*
X52082Y-35994D01*
X52101Y-35984D01*
X52120Y-35965D01*
X52129Y-35937D01*
X52129Y-35890D01*
X51404Y-35473D02*
X51310Y-35407D01*
X51404Y-35360D02*
X51207Y-35360D01*
X51207Y-35435D01*
X51217Y-35454D01*
X51226Y-35463D01*
X51245Y-35473D01*
X51273Y-35473D01*
X51292Y-35463D01*
X51301Y-35454D01*
X51310Y-35435D01*
X51310Y-35360D01*
X51207Y-35539D02*
X51207Y-35670D01*
X51404Y-35585D01*
X51404Y-35754D02*
X51404Y-35792D01*
X51395Y-35811D01*
X51385Y-35820D01*
X51357Y-35839D01*
X51320Y-35848D01*
X51245Y-35848D01*
X51226Y-35839D01*
X51217Y-35829D01*
X51207Y-35811D01*
X51207Y-35773D01*
X51217Y-35754D01*
X51226Y-35745D01*
X51245Y-35736D01*
X51292Y-35736D01*
X51310Y-35745D01*
X51320Y-35754D01*
X51329Y-35773D01*
X51329Y-35811D01*
X51320Y-35829D01*
X51310Y-35839D01*
X51292Y-35848D01*
X51129Y-35318D02*
X51035Y-35252D01*
X51129Y-35206D02*
X50932Y-35206D01*
X50932Y-35281D01*
X50942Y-35299D01*
X50951Y-35309D01*
X50970Y-35318D01*
X50998Y-35318D01*
X51017Y-35309D01*
X51026Y-35299D01*
X51035Y-35281D01*
X51035Y-35206D01*
X51148Y-35356D02*
X51148Y-35506D01*
X51129Y-35646D02*
X51129Y-35553D01*
X50932Y-35553D01*
X51026Y-35712D02*
X51026Y-35778D01*
X51129Y-35806D02*
X51129Y-35712D01*
X50932Y-35712D01*
X50932Y-35806D01*
X51129Y-35890D02*
X50932Y-35890D01*
X50932Y-35937D01*
X50942Y-35965D01*
X50960Y-35984D01*
X50979Y-35994D01*
X51017Y-36003D01*
X51045Y-36003D01*
X51082Y-35994D01*
X51101Y-35984D01*
X51120Y-35965D01*
X51129Y-35937D01*
X51129Y-35890D01*
X52304Y-20773D02*
X52210Y-20707D01*
X52304Y-20660D02*
X52107Y-20660D01*
X52107Y-20735D01*
X52117Y-20754D01*
X52126Y-20763D01*
X52145Y-20773D01*
X52173Y-20773D01*
X52192Y-20763D01*
X52201Y-20754D01*
X52210Y-20735D01*
X52210Y-20660D01*
X52107Y-20942D02*
X52107Y-20904D01*
X52117Y-20885D01*
X52126Y-20876D01*
X52154Y-20857D01*
X52192Y-20848D01*
X52267Y-20848D01*
X52285Y-20857D01*
X52295Y-20867D01*
X52304Y-20885D01*
X52304Y-20923D01*
X52295Y-20942D01*
X52285Y-20951D01*
X52267Y-20960D01*
X52220Y-20960D01*
X52201Y-20951D01*
X52192Y-20942D01*
X52182Y-20923D01*
X52182Y-20885D01*
X52192Y-20867D01*
X52201Y-20857D01*
X52220Y-20848D01*
X52107Y-21129D02*
X52107Y-21092D01*
X52117Y-21073D01*
X52126Y-21064D01*
X52154Y-21045D01*
X52192Y-21036D01*
X52267Y-21036D01*
X52285Y-21045D01*
X52295Y-21054D01*
X52304Y-21073D01*
X52304Y-21111D01*
X52295Y-21129D01*
X52285Y-21139D01*
X52267Y-21148D01*
X52220Y-21148D01*
X52201Y-21139D01*
X52192Y-21129D01*
X52182Y-21111D01*
X52182Y-21073D01*
X52192Y-21054D01*
X52201Y-21045D01*
X52220Y-21036D01*
X52029Y-20618D02*
X51935Y-20552D01*
X52029Y-20506D02*
X51832Y-20506D01*
X51832Y-20581D01*
X51842Y-20599D01*
X51851Y-20609D01*
X51870Y-20618D01*
X51898Y-20618D01*
X51917Y-20609D01*
X51926Y-20599D01*
X51935Y-20581D01*
X51935Y-20506D01*
X52048Y-20656D02*
X52048Y-20806D01*
X52029Y-20946D02*
X52029Y-20853D01*
X51832Y-20853D01*
X51926Y-21012D02*
X51926Y-21078D01*
X52029Y-21106D02*
X52029Y-21012D01*
X51832Y-21012D01*
X51832Y-21106D01*
X52029Y-21190D02*
X51832Y-21190D01*
X51832Y-21237D01*
X51842Y-21265D01*
X51860Y-21284D01*
X51879Y-21294D01*
X51917Y-21303D01*
X51945Y-21303D01*
X51982Y-21294D01*
X52001Y-21284D01*
X52020Y-21265D01*
X52029Y-21237D01*
X52029Y-21190D01*
X53304Y-20773D02*
X53210Y-20707D01*
X53304Y-20660D02*
X53107Y-20660D01*
X53107Y-20735D01*
X53117Y-20754D01*
X53126Y-20763D01*
X53145Y-20773D01*
X53173Y-20773D01*
X53192Y-20763D01*
X53201Y-20754D01*
X53210Y-20735D01*
X53210Y-20660D01*
X53107Y-20942D02*
X53107Y-20904D01*
X53117Y-20885D01*
X53126Y-20876D01*
X53154Y-20857D01*
X53192Y-20848D01*
X53267Y-20848D01*
X53285Y-20857D01*
X53295Y-20867D01*
X53304Y-20885D01*
X53304Y-20923D01*
X53295Y-20942D01*
X53285Y-20951D01*
X53267Y-20960D01*
X53220Y-20960D01*
X53201Y-20951D01*
X53192Y-20942D01*
X53182Y-20923D01*
X53182Y-20885D01*
X53192Y-20867D01*
X53201Y-20857D01*
X53220Y-20848D01*
X53107Y-21026D02*
X53107Y-21157D01*
X53304Y-21073D01*
X53029Y-20618D02*
X52935Y-20552D01*
X53029Y-20506D02*
X52832Y-20506D01*
X52832Y-20581D01*
X52842Y-20599D01*
X52851Y-20609D01*
X52870Y-20618D01*
X52898Y-20618D01*
X52917Y-20609D01*
X52926Y-20599D01*
X52935Y-20581D01*
X52935Y-20506D01*
X53048Y-20656D02*
X53048Y-20806D01*
X53029Y-20946D02*
X53029Y-20853D01*
X52832Y-20853D01*
X52926Y-21012D02*
X52926Y-21078D01*
X53029Y-21106D02*
X53029Y-21012D01*
X52832Y-21012D01*
X52832Y-21106D01*
X53029Y-21190D02*
X52832Y-21190D01*
X52832Y-21237D01*
X52842Y-21265D01*
X52860Y-21284D01*
X52879Y-21294D01*
X52917Y-21303D01*
X52945Y-21303D01*
X52982Y-21294D01*
X53001Y-21284D01*
X53020Y-21265D01*
X53029Y-21237D01*
X53029Y-21190D01*
X52054Y-24273D02*
X51960Y-24207D01*
X52054Y-24160D02*
X51857Y-24160D01*
X51857Y-24235D01*
X51867Y-24254D01*
X51876Y-24263D01*
X51895Y-24273D01*
X51923Y-24273D01*
X51942Y-24263D01*
X51951Y-24254D01*
X51960Y-24235D01*
X51960Y-24160D01*
X51857Y-24442D02*
X51857Y-24404D01*
X51867Y-24385D01*
X51876Y-24376D01*
X51904Y-24357D01*
X51942Y-24348D01*
X52017Y-24348D01*
X52035Y-24357D01*
X52045Y-24367D01*
X52054Y-24385D01*
X52054Y-24423D01*
X52045Y-24442D01*
X52035Y-24451D01*
X52017Y-24460D01*
X51970Y-24460D01*
X51951Y-24451D01*
X51942Y-24442D01*
X51932Y-24423D01*
X51932Y-24385D01*
X51942Y-24367D01*
X51951Y-24357D01*
X51970Y-24348D01*
X51942Y-24573D02*
X51932Y-24554D01*
X51923Y-24545D01*
X51904Y-24536D01*
X51895Y-24536D01*
X51876Y-24545D01*
X51867Y-24554D01*
X51857Y-24573D01*
X51857Y-24611D01*
X51867Y-24629D01*
X51876Y-24639D01*
X51895Y-24648D01*
X51904Y-24648D01*
X51923Y-24639D01*
X51932Y-24629D01*
X51942Y-24611D01*
X51942Y-24573D01*
X51951Y-24554D01*
X51960Y-24545D01*
X51979Y-24536D01*
X52017Y-24536D01*
X52035Y-24545D01*
X52045Y-24554D01*
X52054Y-24573D01*
X52054Y-24611D01*
X52045Y-24629D01*
X52035Y-24639D01*
X52017Y-24648D01*
X51979Y-24648D01*
X51960Y-24639D01*
X51951Y-24629D01*
X51942Y-24611D01*
X52329Y-24118D02*
X52235Y-24052D01*
X52329Y-24006D02*
X52132Y-24006D01*
X52132Y-24081D01*
X52142Y-24099D01*
X52151Y-24109D01*
X52170Y-24118D01*
X52198Y-24118D01*
X52217Y-24109D01*
X52226Y-24099D01*
X52235Y-24081D01*
X52235Y-24006D01*
X52348Y-24156D02*
X52348Y-24306D01*
X52329Y-24446D02*
X52329Y-24353D01*
X52132Y-24353D01*
X52226Y-24512D02*
X52226Y-24578D01*
X52329Y-24606D02*
X52329Y-24512D01*
X52132Y-24512D01*
X52132Y-24606D01*
X52329Y-24690D02*
X52132Y-24690D01*
X52132Y-24737D01*
X52142Y-24765D01*
X52160Y-24784D01*
X52179Y-24794D01*
X52217Y-24803D01*
X52245Y-24803D01*
X52282Y-24794D01*
X52301Y-24784D01*
X52320Y-24765D01*
X52329Y-24737D01*
X52329Y-24690D01*
X50154Y-24273D02*
X50060Y-24207D01*
X50154Y-24160D02*
X49957Y-24160D01*
X49957Y-24235D01*
X49967Y-24254D01*
X49976Y-24263D01*
X49995Y-24273D01*
X50023Y-24273D01*
X50042Y-24263D01*
X50051Y-24254D01*
X50060Y-24235D01*
X50060Y-24160D01*
X49957Y-24442D02*
X49957Y-24404D01*
X49967Y-24385D01*
X49976Y-24376D01*
X50004Y-24357D01*
X50042Y-24348D01*
X50117Y-24348D01*
X50135Y-24357D01*
X50145Y-24367D01*
X50154Y-24385D01*
X50154Y-24423D01*
X50145Y-24442D01*
X50135Y-24451D01*
X50117Y-24460D01*
X50070Y-24460D01*
X50051Y-24451D01*
X50042Y-24442D01*
X50032Y-24423D01*
X50032Y-24385D01*
X50042Y-24367D01*
X50051Y-24357D01*
X50070Y-24348D01*
X50154Y-24554D02*
X50154Y-24592D01*
X50145Y-24611D01*
X50135Y-24620D01*
X50107Y-24639D01*
X50070Y-24648D01*
X49995Y-24648D01*
X49976Y-24639D01*
X49967Y-24629D01*
X49957Y-24611D01*
X49957Y-24573D01*
X49967Y-24554D01*
X49976Y-24545D01*
X49995Y-24536D01*
X50042Y-24536D01*
X50060Y-24545D01*
X50070Y-24554D01*
X50079Y-24573D01*
X50079Y-24611D01*
X50070Y-24629D01*
X50060Y-24639D01*
X50042Y-24648D01*
X50429Y-24118D02*
X50335Y-24052D01*
X50429Y-24006D02*
X50232Y-24006D01*
X50232Y-24081D01*
X50242Y-24099D01*
X50251Y-24109D01*
X50270Y-24118D01*
X50298Y-24118D01*
X50317Y-24109D01*
X50326Y-24099D01*
X50335Y-24081D01*
X50335Y-24006D01*
X50448Y-24156D02*
X50448Y-24306D01*
X50429Y-24446D02*
X50429Y-24353D01*
X50232Y-24353D01*
X50326Y-24512D02*
X50326Y-24578D01*
X50429Y-24606D02*
X50429Y-24512D01*
X50232Y-24512D01*
X50232Y-24606D01*
X50429Y-24690D02*
X50232Y-24690D01*
X50232Y-24737D01*
X50242Y-24765D01*
X50260Y-24784D01*
X50279Y-24794D01*
X50317Y-24803D01*
X50345Y-24803D01*
X50382Y-24794D01*
X50401Y-24784D01*
X50420Y-24765D01*
X50429Y-24737D01*
X50429Y-24690D01*
X49154Y-24273D02*
X49060Y-24207D01*
X49154Y-24160D02*
X48957Y-24160D01*
X48957Y-24235D01*
X48967Y-24254D01*
X48976Y-24263D01*
X48995Y-24273D01*
X49023Y-24273D01*
X49042Y-24263D01*
X49051Y-24254D01*
X49060Y-24235D01*
X49060Y-24160D01*
X48957Y-24339D02*
X48957Y-24470D01*
X49154Y-24385D01*
X48957Y-24582D02*
X48957Y-24601D01*
X48967Y-24620D01*
X48976Y-24629D01*
X48995Y-24639D01*
X49032Y-24648D01*
X49079Y-24648D01*
X49117Y-24639D01*
X49135Y-24629D01*
X49145Y-24620D01*
X49154Y-24601D01*
X49154Y-24582D01*
X49145Y-24564D01*
X49135Y-24554D01*
X49117Y-24545D01*
X49079Y-24536D01*
X49032Y-24536D01*
X48995Y-24545D01*
X48976Y-24554D01*
X48967Y-24564D01*
X48957Y-24582D01*
X49429Y-24118D02*
X49335Y-24052D01*
X49429Y-24006D02*
X49232Y-24006D01*
X49232Y-24081D01*
X49242Y-24099D01*
X49251Y-24109D01*
X49270Y-24118D01*
X49298Y-24118D01*
X49317Y-24109D01*
X49326Y-24099D01*
X49335Y-24081D01*
X49335Y-24006D01*
X49448Y-24156D02*
X49448Y-24306D01*
X49429Y-24446D02*
X49429Y-24353D01*
X49232Y-24353D01*
X49326Y-24512D02*
X49326Y-24578D01*
X49429Y-24606D02*
X49429Y-24512D01*
X49232Y-24512D01*
X49232Y-24606D01*
X49429Y-24690D02*
X49232Y-24690D01*
X49232Y-24737D01*
X49242Y-24765D01*
X49260Y-24784D01*
X49279Y-24794D01*
X49317Y-24803D01*
X49345Y-24803D01*
X49382Y-24794D01*
X49401Y-24784D01*
X49420Y-24765D01*
X49429Y-24737D01*
X49429Y-24690D01*
X50404Y-20773D02*
X50310Y-20707D01*
X50404Y-20660D02*
X50207Y-20660D01*
X50207Y-20735D01*
X50217Y-20754D01*
X50226Y-20763D01*
X50245Y-20773D01*
X50273Y-20773D01*
X50292Y-20763D01*
X50301Y-20754D01*
X50310Y-20735D01*
X50310Y-20660D01*
X50207Y-20839D02*
X50207Y-20970D01*
X50404Y-20885D01*
X50404Y-21148D02*
X50404Y-21036D01*
X50404Y-21092D02*
X50207Y-21092D01*
X50235Y-21073D01*
X50254Y-21054D01*
X50264Y-21036D01*
X50129Y-20618D02*
X50035Y-20552D01*
X50129Y-20506D02*
X49932Y-20506D01*
X49932Y-20581D01*
X49942Y-20599D01*
X49951Y-20609D01*
X49970Y-20618D01*
X49998Y-20618D01*
X50017Y-20609D01*
X50026Y-20599D01*
X50035Y-20581D01*
X50035Y-20506D01*
X50148Y-20656D02*
X50148Y-20806D01*
X50129Y-20946D02*
X50129Y-20853D01*
X49932Y-20853D01*
X50026Y-21012D02*
X50026Y-21078D01*
X50129Y-21106D02*
X50129Y-21012D01*
X49932Y-21012D01*
X49932Y-21106D01*
X50129Y-21190D02*
X49932Y-21190D01*
X49932Y-21237D01*
X49942Y-21265D01*
X49960Y-21284D01*
X49979Y-21294D01*
X50017Y-21303D01*
X50045Y-21303D01*
X50082Y-21294D01*
X50101Y-21284D01*
X50120Y-21265D01*
X50129Y-21237D01*
X50129Y-21190D01*
X49404Y-20773D02*
X49310Y-20707D01*
X49404Y-20660D02*
X49207Y-20660D01*
X49207Y-20735D01*
X49217Y-20754D01*
X49226Y-20763D01*
X49245Y-20773D01*
X49273Y-20773D01*
X49292Y-20763D01*
X49301Y-20754D01*
X49310Y-20735D01*
X49310Y-20660D01*
X49207Y-20839D02*
X49207Y-20970D01*
X49404Y-20885D01*
X49226Y-21036D02*
X49217Y-21045D01*
X49207Y-21064D01*
X49207Y-21111D01*
X49217Y-21129D01*
X49226Y-21139D01*
X49245Y-21148D01*
X49264Y-21148D01*
X49292Y-21139D01*
X49404Y-21026D01*
X49404Y-21148D01*
X49129Y-20618D02*
X49035Y-20552D01*
X49129Y-20506D02*
X48932Y-20506D01*
X48932Y-20581D01*
X48942Y-20599D01*
X48951Y-20609D01*
X48970Y-20618D01*
X48998Y-20618D01*
X49017Y-20609D01*
X49026Y-20599D01*
X49035Y-20581D01*
X49035Y-20506D01*
X49148Y-20656D02*
X49148Y-20806D01*
X49129Y-20946D02*
X49129Y-20853D01*
X48932Y-20853D01*
X49026Y-21012D02*
X49026Y-21078D01*
X49129Y-21106D02*
X49129Y-21012D01*
X48932Y-21012D01*
X48932Y-21106D01*
X49129Y-21190D02*
X48932Y-21190D01*
X48932Y-21237D01*
X48942Y-21265D01*
X48960Y-21284D01*
X48979Y-21294D01*
X49017Y-21303D01*
X49045Y-21303D01*
X49082Y-21294D01*
X49101Y-21284D01*
X49120Y-21265D01*
X49129Y-21237D01*
X49129Y-21190D01*
X35354Y-24273D02*
X35260Y-24207D01*
X35354Y-24160D02*
X35157Y-24160D01*
X35157Y-24235D01*
X35167Y-24254D01*
X35176Y-24263D01*
X35195Y-24273D01*
X35223Y-24273D01*
X35242Y-24263D01*
X35251Y-24254D01*
X35260Y-24235D01*
X35260Y-24160D01*
X35157Y-24339D02*
X35157Y-24460D01*
X35232Y-24395D01*
X35232Y-24423D01*
X35242Y-24442D01*
X35251Y-24451D01*
X35270Y-24460D01*
X35317Y-24460D01*
X35335Y-24451D01*
X35345Y-24442D01*
X35354Y-24423D01*
X35354Y-24367D01*
X35345Y-24348D01*
X35335Y-24339D01*
X35223Y-24629D02*
X35354Y-24629D01*
X35148Y-24582D02*
X35289Y-24536D01*
X35289Y-24657D01*
X35629Y-24118D02*
X35535Y-24052D01*
X35629Y-24006D02*
X35432Y-24006D01*
X35432Y-24081D01*
X35442Y-24099D01*
X35451Y-24109D01*
X35470Y-24118D01*
X35498Y-24118D01*
X35517Y-24109D01*
X35526Y-24099D01*
X35535Y-24081D01*
X35535Y-24006D01*
X35648Y-24156D02*
X35648Y-24306D01*
X35629Y-24446D02*
X35629Y-24353D01*
X35432Y-24353D01*
X35526Y-24512D02*
X35526Y-24578D01*
X35629Y-24606D02*
X35629Y-24512D01*
X35432Y-24512D01*
X35432Y-24606D01*
X35629Y-24690D02*
X35432Y-24690D01*
X35432Y-24737D01*
X35442Y-24765D01*
X35460Y-24784D01*
X35479Y-24794D01*
X35517Y-24803D01*
X35545Y-24803D01*
X35582Y-24794D01*
X35601Y-24784D01*
X35620Y-24765D01*
X35629Y-24737D01*
X35629Y-24690D01*
X42504Y-29473D02*
X42410Y-29407D01*
X42504Y-29360D02*
X42307Y-29360D01*
X42307Y-29435D01*
X42317Y-29454D01*
X42326Y-29463D01*
X42345Y-29473D01*
X42373Y-29473D01*
X42392Y-29463D01*
X42401Y-29454D01*
X42410Y-29435D01*
X42410Y-29360D01*
X42307Y-29539D02*
X42307Y-29660D01*
X42382Y-29595D01*
X42382Y-29623D01*
X42392Y-29642D01*
X42401Y-29651D01*
X42420Y-29660D01*
X42467Y-29660D01*
X42485Y-29651D01*
X42495Y-29642D01*
X42504Y-29623D01*
X42504Y-29567D01*
X42495Y-29548D01*
X42485Y-29539D01*
X42307Y-29726D02*
X42307Y-29857D01*
X42504Y-29773D01*
X42229Y-29318D02*
X42135Y-29252D01*
X42229Y-29206D02*
X42032Y-29206D01*
X42032Y-29281D01*
X42042Y-29299D01*
X42051Y-29309D01*
X42070Y-29318D01*
X42098Y-29318D01*
X42117Y-29309D01*
X42126Y-29299D01*
X42135Y-29281D01*
X42135Y-29206D01*
X42248Y-29356D02*
X42248Y-29506D01*
X42229Y-29646D02*
X42229Y-29553D01*
X42032Y-29553D01*
X42126Y-29712D02*
X42126Y-29778D01*
X42229Y-29806D02*
X42229Y-29712D01*
X42032Y-29712D01*
X42032Y-29806D01*
X42229Y-29890D02*
X42032Y-29890D01*
X42032Y-29937D01*
X42042Y-29965D01*
X42060Y-29984D01*
X42079Y-29994D01*
X42117Y-30003D01*
X42145Y-30003D01*
X42182Y-29994D01*
X42201Y-29984D01*
X42220Y-29965D01*
X42229Y-29937D01*
X42229Y-29890D01*
X43504Y-20673D02*
X43410Y-20607D01*
X43504Y-20560D02*
X43307Y-20560D01*
X43307Y-20635D01*
X43317Y-20654D01*
X43326Y-20663D01*
X43345Y-20673D01*
X43373Y-20673D01*
X43392Y-20663D01*
X43401Y-20654D01*
X43410Y-20635D01*
X43410Y-20560D01*
X43307Y-20851D02*
X43307Y-20757D01*
X43401Y-20748D01*
X43392Y-20757D01*
X43382Y-20776D01*
X43382Y-20823D01*
X43392Y-20842D01*
X43401Y-20851D01*
X43420Y-20860D01*
X43467Y-20860D01*
X43485Y-20851D01*
X43495Y-20842D01*
X43504Y-20823D01*
X43504Y-20776D01*
X43495Y-20757D01*
X43485Y-20748D01*
X43307Y-20982D02*
X43307Y-21001D01*
X43317Y-21020D01*
X43326Y-21029D01*
X43345Y-21039D01*
X43382Y-21048D01*
X43429Y-21048D01*
X43467Y-21039D01*
X43485Y-21029D01*
X43495Y-21020D01*
X43504Y-21001D01*
X43504Y-20982D01*
X43495Y-20964D01*
X43485Y-20954D01*
X43467Y-20945D01*
X43429Y-20936D01*
X43382Y-20936D01*
X43345Y-20945D01*
X43326Y-20954D01*
X43317Y-20964D01*
X43307Y-20982D01*
X43229Y-20518D02*
X43135Y-20452D01*
X43229Y-20406D02*
X43032Y-20406D01*
X43032Y-20481D01*
X43042Y-20499D01*
X43051Y-20509D01*
X43070Y-20518D01*
X43098Y-20518D01*
X43117Y-20509D01*
X43126Y-20499D01*
X43135Y-20481D01*
X43135Y-20406D01*
X43248Y-20556D02*
X43248Y-20706D01*
X43229Y-20846D02*
X43229Y-20753D01*
X43032Y-20753D01*
X43126Y-20912D02*
X43126Y-20978D01*
X43229Y-21006D02*
X43229Y-20912D01*
X43032Y-20912D01*
X43032Y-21006D01*
X43229Y-21090D02*
X43032Y-21090D01*
X43032Y-21137D01*
X43042Y-21165D01*
X43060Y-21184D01*
X43079Y-21194D01*
X43117Y-21203D01*
X43145Y-21203D01*
X43182Y-21194D01*
X43201Y-21184D01*
X43220Y-21165D01*
X43229Y-21137D01*
X43229Y-21090D01*
X44504Y-20673D02*
X44410Y-20607D01*
X44504Y-20560D02*
X44307Y-20560D01*
X44307Y-20635D01*
X44317Y-20654D01*
X44326Y-20663D01*
X44345Y-20673D01*
X44373Y-20673D01*
X44392Y-20663D01*
X44401Y-20654D01*
X44410Y-20635D01*
X44410Y-20560D01*
X44373Y-20842D02*
X44504Y-20842D01*
X44298Y-20795D02*
X44439Y-20748D01*
X44439Y-20870D01*
X44504Y-20954D02*
X44504Y-20992D01*
X44495Y-21011D01*
X44485Y-21020D01*
X44457Y-21039D01*
X44420Y-21048D01*
X44345Y-21048D01*
X44326Y-21039D01*
X44317Y-21029D01*
X44307Y-21011D01*
X44307Y-20973D01*
X44317Y-20954D01*
X44326Y-20945D01*
X44345Y-20936D01*
X44392Y-20936D01*
X44410Y-20945D01*
X44420Y-20954D01*
X44429Y-20973D01*
X44429Y-21011D01*
X44420Y-21029D01*
X44410Y-21039D01*
X44392Y-21048D01*
X44229Y-20518D02*
X44135Y-20452D01*
X44229Y-20406D02*
X44032Y-20406D01*
X44032Y-20481D01*
X44042Y-20499D01*
X44051Y-20509D01*
X44070Y-20518D01*
X44098Y-20518D01*
X44117Y-20509D01*
X44126Y-20499D01*
X44135Y-20481D01*
X44135Y-20406D01*
X44248Y-20556D02*
X44248Y-20706D01*
X44229Y-20846D02*
X44229Y-20753D01*
X44032Y-20753D01*
X44126Y-20912D02*
X44126Y-20978D01*
X44229Y-21006D02*
X44229Y-20912D01*
X44032Y-20912D01*
X44032Y-21006D01*
X44229Y-21090D02*
X44032Y-21090D01*
X44032Y-21137D01*
X44042Y-21165D01*
X44060Y-21184D01*
X44079Y-21194D01*
X44117Y-21203D01*
X44145Y-21203D01*
X44182Y-21194D01*
X44201Y-21184D01*
X44220Y-21165D01*
X44229Y-21137D01*
X44229Y-21090D01*
X43254Y-24273D02*
X43160Y-24207D01*
X43254Y-24160D02*
X43057Y-24160D01*
X43057Y-24235D01*
X43067Y-24254D01*
X43076Y-24263D01*
X43095Y-24273D01*
X43123Y-24273D01*
X43142Y-24263D01*
X43151Y-24254D01*
X43160Y-24235D01*
X43160Y-24160D01*
X43123Y-24442D02*
X43254Y-24442D01*
X43048Y-24395D02*
X43189Y-24348D01*
X43189Y-24470D01*
X43142Y-24573D02*
X43132Y-24554D01*
X43123Y-24545D01*
X43104Y-24536D01*
X43095Y-24536D01*
X43076Y-24545D01*
X43067Y-24554D01*
X43057Y-24573D01*
X43057Y-24611D01*
X43067Y-24629D01*
X43076Y-24639D01*
X43095Y-24648D01*
X43104Y-24648D01*
X43123Y-24639D01*
X43132Y-24629D01*
X43142Y-24611D01*
X43142Y-24573D01*
X43151Y-24554D01*
X43160Y-24545D01*
X43179Y-24536D01*
X43217Y-24536D01*
X43235Y-24545D01*
X43245Y-24554D01*
X43254Y-24573D01*
X43254Y-24611D01*
X43245Y-24629D01*
X43235Y-24639D01*
X43217Y-24648D01*
X43179Y-24648D01*
X43160Y-24639D01*
X43151Y-24629D01*
X43142Y-24611D01*
X43529Y-24118D02*
X43435Y-24052D01*
X43529Y-24006D02*
X43332Y-24006D01*
X43332Y-24081D01*
X43342Y-24099D01*
X43351Y-24109D01*
X43370Y-24118D01*
X43398Y-24118D01*
X43417Y-24109D01*
X43426Y-24099D01*
X43435Y-24081D01*
X43435Y-24006D01*
X43548Y-24156D02*
X43548Y-24306D01*
X43529Y-24446D02*
X43529Y-24353D01*
X43332Y-24353D01*
X43426Y-24512D02*
X43426Y-24578D01*
X43529Y-24606D02*
X43529Y-24512D01*
X43332Y-24512D01*
X43332Y-24606D01*
X43529Y-24690D02*
X43332Y-24690D01*
X43332Y-24737D01*
X43342Y-24765D01*
X43360Y-24784D01*
X43379Y-24794D01*
X43417Y-24803D01*
X43445Y-24803D01*
X43482Y-24794D01*
X43501Y-24784D01*
X43520Y-24765D01*
X43529Y-24737D01*
X43529Y-24690D01*
X44154Y-24273D02*
X44060Y-24207D01*
X44154Y-24160D02*
X43957Y-24160D01*
X43957Y-24235D01*
X43967Y-24254D01*
X43976Y-24263D01*
X43995Y-24273D01*
X44023Y-24273D01*
X44042Y-24263D01*
X44051Y-24254D01*
X44060Y-24235D01*
X44060Y-24160D01*
X44023Y-24442D02*
X44154Y-24442D01*
X43948Y-24395D02*
X44089Y-24348D01*
X44089Y-24470D01*
X43957Y-24526D02*
X43957Y-24657D01*
X44154Y-24573D01*
X44429Y-24118D02*
X44335Y-24052D01*
X44429Y-24006D02*
X44232Y-24006D01*
X44232Y-24081D01*
X44242Y-24099D01*
X44251Y-24109D01*
X44270Y-24118D01*
X44298Y-24118D01*
X44317Y-24109D01*
X44326Y-24099D01*
X44335Y-24081D01*
X44335Y-24006D01*
X44448Y-24156D02*
X44448Y-24306D01*
X44429Y-24446D02*
X44429Y-24353D01*
X44232Y-24353D01*
X44326Y-24512D02*
X44326Y-24578D01*
X44429Y-24606D02*
X44429Y-24512D01*
X44232Y-24512D01*
X44232Y-24606D01*
X44429Y-24690D02*
X44232Y-24690D01*
X44232Y-24737D01*
X44242Y-24765D01*
X44260Y-24784D01*
X44279Y-24794D01*
X44317Y-24803D01*
X44345Y-24803D01*
X44382Y-24794D01*
X44401Y-24784D01*
X44420Y-24765D01*
X44429Y-24737D01*
X44429Y-24690D01*
X46154Y-24273D02*
X46060Y-24207D01*
X46154Y-24160D02*
X45957Y-24160D01*
X45957Y-24235D01*
X45967Y-24254D01*
X45976Y-24263D01*
X45995Y-24273D01*
X46023Y-24273D01*
X46042Y-24263D01*
X46051Y-24254D01*
X46060Y-24235D01*
X46060Y-24160D01*
X46023Y-24442D02*
X46154Y-24442D01*
X45948Y-24395D02*
X46089Y-24348D01*
X46089Y-24470D01*
X45957Y-24629D02*
X45957Y-24592D01*
X45967Y-24573D01*
X45976Y-24564D01*
X46004Y-24545D01*
X46042Y-24536D01*
X46117Y-24536D01*
X46135Y-24545D01*
X46145Y-24554D01*
X46154Y-24573D01*
X46154Y-24611D01*
X46145Y-24629D01*
X46135Y-24639D01*
X46117Y-24648D01*
X46070Y-24648D01*
X46051Y-24639D01*
X46042Y-24629D01*
X46032Y-24611D01*
X46032Y-24573D01*
X46042Y-24554D01*
X46051Y-24545D01*
X46070Y-24536D01*
X46429Y-24118D02*
X46335Y-24052D01*
X46429Y-24006D02*
X46232Y-24006D01*
X46232Y-24081D01*
X46242Y-24099D01*
X46251Y-24109D01*
X46270Y-24118D01*
X46298Y-24118D01*
X46317Y-24109D01*
X46326Y-24099D01*
X46335Y-24081D01*
X46335Y-24006D01*
X46448Y-24156D02*
X46448Y-24306D01*
X46429Y-24446D02*
X46429Y-24353D01*
X46232Y-24353D01*
X46326Y-24512D02*
X46326Y-24578D01*
X46429Y-24606D02*
X46429Y-24512D01*
X46232Y-24512D01*
X46232Y-24606D01*
X46429Y-24690D02*
X46232Y-24690D01*
X46232Y-24737D01*
X46242Y-24765D01*
X46260Y-24784D01*
X46279Y-24794D01*
X46317Y-24803D01*
X46345Y-24803D01*
X46382Y-24794D01*
X46401Y-24784D01*
X46420Y-24765D01*
X46429Y-24737D01*
X46429Y-24690D01*
X47504Y-20673D02*
X47410Y-20607D01*
X47504Y-20560D02*
X47307Y-20560D01*
X47307Y-20635D01*
X47317Y-20654D01*
X47326Y-20663D01*
X47345Y-20673D01*
X47373Y-20673D01*
X47392Y-20663D01*
X47401Y-20654D01*
X47410Y-20635D01*
X47410Y-20560D01*
X47373Y-20842D02*
X47504Y-20842D01*
X47298Y-20795D02*
X47439Y-20748D01*
X47439Y-20870D01*
X47307Y-21039D02*
X47307Y-20945D01*
X47401Y-20936D01*
X47392Y-20945D01*
X47382Y-20964D01*
X47382Y-21011D01*
X47392Y-21029D01*
X47401Y-21039D01*
X47420Y-21048D01*
X47467Y-21048D01*
X47485Y-21039D01*
X47495Y-21029D01*
X47504Y-21011D01*
X47504Y-20964D01*
X47495Y-20945D01*
X47485Y-20936D01*
X47229Y-20518D02*
X47135Y-20452D01*
X47229Y-20406D02*
X47032Y-20406D01*
X47032Y-20481D01*
X47042Y-20499D01*
X47051Y-20509D01*
X47070Y-20518D01*
X47098Y-20518D01*
X47117Y-20509D01*
X47126Y-20499D01*
X47135Y-20481D01*
X47135Y-20406D01*
X47248Y-20556D02*
X47248Y-20706D01*
X47229Y-20846D02*
X47229Y-20753D01*
X47032Y-20753D01*
X47126Y-20912D02*
X47126Y-20978D01*
X47229Y-21006D02*
X47229Y-20912D01*
X47032Y-20912D01*
X47032Y-21006D01*
X47229Y-21090D02*
X47032Y-21090D01*
X47032Y-21137D01*
X47042Y-21165D01*
X47060Y-21184D01*
X47079Y-21194D01*
X47117Y-21203D01*
X47145Y-21203D01*
X47182Y-21194D01*
X47201Y-21184D01*
X47220Y-21165D01*
X47229Y-21137D01*
X47229Y-21090D01*
X46504Y-20673D02*
X46410Y-20607D01*
X46504Y-20560D02*
X46307Y-20560D01*
X46307Y-20635D01*
X46317Y-20654D01*
X46326Y-20663D01*
X46345Y-20673D01*
X46373Y-20673D01*
X46392Y-20663D01*
X46401Y-20654D01*
X46410Y-20635D01*
X46410Y-20560D01*
X46373Y-20842D02*
X46504Y-20842D01*
X46298Y-20795D02*
X46439Y-20748D01*
X46439Y-20870D01*
X46373Y-21029D02*
X46504Y-21029D01*
X46298Y-20982D02*
X46439Y-20936D01*
X46439Y-21057D01*
X46229Y-20518D02*
X46135Y-20452D01*
X46229Y-20406D02*
X46032Y-20406D01*
X46032Y-20481D01*
X46042Y-20499D01*
X46051Y-20509D01*
X46070Y-20518D01*
X46098Y-20518D01*
X46117Y-20509D01*
X46126Y-20499D01*
X46135Y-20481D01*
X46135Y-20406D01*
X46248Y-20556D02*
X46248Y-20706D01*
X46229Y-20846D02*
X46229Y-20753D01*
X46032Y-20753D01*
X46126Y-20912D02*
X46126Y-20978D01*
X46229Y-21006D02*
X46229Y-20912D01*
X46032Y-20912D01*
X46032Y-21006D01*
X46229Y-21090D02*
X46032Y-21090D01*
X46032Y-21137D01*
X46042Y-21165D01*
X46060Y-21184D01*
X46079Y-21194D01*
X46117Y-21203D01*
X46145Y-21203D01*
X46182Y-21194D01*
X46201Y-21184D01*
X46220Y-21165D01*
X46229Y-21137D01*
X46229Y-21090D01*
X35604Y-20673D02*
X35510Y-20607D01*
X35604Y-20560D02*
X35407Y-20560D01*
X35407Y-20635D01*
X35417Y-20654D01*
X35426Y-20663D01*
X35445Y-20673D01*
X35473Y-20673D01*
X35492Y-20663D01*
X35501Y-20654D01*
X35510Y-20635D01*
X35510Y-20560D01*
X35407Y-20739D02*
X35407Y-20860D01*
X35482Y-20795D01*
X35482Y-20823D01*
X35492Y-20842D01*
X35501Y-20851D01*
X35520Y-20860D01*
X35567Y-20860D01*
X35585Y-20851D01*
X35595Y-20842D01*
X35604Y-20823D01*
X35604Y-20767D01*
X35595Y-20748D01*
X35585Y-20739D01*
X35407Y-21029D02*
X35407Y-20992D01*
X35417Y-20973D01*
X35426Y-20964D01*
X35454Y-20945D01*
X35492Y-20936D01*
X35567Y-20936D01*
X35585Y-20945D01*
X35595Y-20954D01*
X35604Y-20973D01*
X35604Y-21011D01*
X35595Y-21029D01*
X35585Y-21039D01*
X35567Y-21048D01*
X35520Y-21048D01*
X35501Y-21039D01*
X35492Y-21029D01*
X35482Y-21011D01*
X35482Y-20973D01*
X35492Y-20954D01*
X35501Y-20945D01*
X35520Y-20936D01*
X35329Y-20518D02*
X35235Y-20452D01*
X35329Y-20406D02*
X35132Y-20406D01*
X35132Y-20481D01*
X35142Y-20499D01*
X35151Y-20509D01*
X35170Y-20518D01*
X35198Y-20518D01*
X35217Y-20509D01*
X35226Y-20499D01*
X35235Y-20481D01*
X35235Y-20406D01*
X35348Y-20556D02*
X35348Y-20706D01*
X35329Y-20846D02*
X35329Y-20753D01*
X35132Y-20753D01*
X35226Y-20912D02*
X35226Y-20978D01*
X35329Y-21006D02*
X35329Y-20912D01*
X35132Y-20912D01*
X35132Y-21006D01*
X35329Y-21090D02*
X35132Y-21090D01*
X35132Y-21137D01*
X35142Y-21165D01*
X35160Y-21184D01*
X35179Y-21194D01*
X35217Y-21203D01*
X35245Y-21203D01*
X35282Y-21194D01*
X35301Y-21184D01*
X35320Y-21165D01*
X35329Y-21137D01*
X35329Y-21090D01*
X36604Y-20673D02*
X36510Y-20607D01*
X36604Y-20560D02*
X36407Y-20560D01*
X36407Y-20635D01*
X36417Y-20654D01*
X36426Y-20663D01*
X36445Y-20673D01*
X36473Y-20673D01*
X36492Y-20663D01*
X36501Y-20654D01*
X36510Y-20635D01*
X36510Y-20560D01*
X36407Y-20739D02*
X36407Y-20860D01*
X36482Y-20795D01*
X36482Y-20823D01*
X36492Y-20842D01*
X36501Y-20851D01*
X36520Y-20860D01*
X36567Y-20860D01*
X36585Y-20851D01*
X36595Y-20842D01*
X36604Y-20823D01*
X36604Y-20767D01*
X36595Y-20748D01*
X36585Y-20739D01*
X36407Y-21039D02*
X36407Y-20945D01*
X36501Y-20936D01*
X36492Y-20945D01*
X36482Y-20964D01*
X36482Y-21011D01*
X36492Y-21029D01*
X36501Y-21039D01*
X36520Y-21048D01*
X36567Y-21048D01*
X36585Y-21039D01*
X36595Y-21029D01*
X36604Y-21011D01*
X36604Y-20964D01*
X36595Y-20945D01*
X36585Y-20936D01*
X36329Y-20518D02*
X36235Y-20452D01*
X36329Y-20406D02*
X36132Y-20406D01*
X36132Y-20481D01*
X36142Y-20499D01*
X36151Y-20509D01*
X36170Y-20518D01*
X36198Y-20518D01*
X36217Y-20509D01*
X36226Y-20499D01*
X36235Y-20481D01*
X36235Y-20406D01*
X36348Y-20556D02*
X36348Y-20706D01*
X36329Y-20846D02*
X36329Y-20753D01*
X36132Y-20753D01*
X36226Y-20912D02*
X36226Y-20978D01*
X36329Y-21006D02*
X36329Y-20912D01*
X36132Y-20912D01*
X36132Y-21006D01*
X36329Y-21090D02*
X36132Y-21090D01*
X36132Y-21137D01*
X36142Y-21165D01*
X36160Y-21184D01*
X36179Y-21194D01*
X36217Y-21203D01*
X36245Y-21203D01*
X36282Y-21194D01*
X36301Y-21184D01*
X36320Y-21165D01*
X36329Y-21137D01*
X36329Y-21090D01*
X49354Y-35573D02*
X49260Y-35507D01*
X49354Y-35460D02*
X49157Y-35460D01*
X49157Y-35535D01*
X49167Y-35554D01*
X49176Y-35563D01*
X49195Y-35573D01*
X49223Y-35573D01*
X49242Y-35563D01*
X49251Y-35554D01*
X49260Y-35535D01*
X49260Y-35460D01*
X49157Y-35751D02*
X49157Y-35657D01*
X49251Y-35648D01*
X49242Y-35657D01*
X49232Y-35676D01*
X49232Y-35723D01*
X49242Y-35742D01*
X49251Y-35751D01*
X49270Y-35760D01*
X49317Y-35760D01*
X49335Y-35751D01*
X49345Y-35742D01*
X49354Y-35723D01*
X49354Y-35676D01*
X49345Y-35657D01*
X49335Y-35648D01*
X49176Y-35836D02*
X49167Y-35845D01*
X49157Y-35864D01*
X49157Y-35911D01*
X49167Y-35929D01*
X49176Y-35939D01*
X49195Y-35948D01*
X49214Y-35948D01*
X49242Y-35939D01*
X49354Y-35826D01*
X49354Y-35948D01*
X49079Y-35418D02*
X48985Y-35352D01*
X49079Y-35306D02*
X48882Y-35306D01*
X48882Y-35381D01*
X48892Y-35399D01*
X48901Y-35409D01*
X48920Y-35418D01*
X48948Y-35418D01*
X48967Y-35409D01*
X48976Y-35399D01*
X48985Y-35381D01*
X48985Y-35306D01*
X49098Y-35456D02*
X49098Y-35606D01*
X49079Y-35746D02*
X49079Y-35653D01*
X48882Y-35653D01*
X48976Y-35812D02*
X48976Y-35878D01*
X49079Y-35906D02*
X49079Y-35812D01*
X48882Y-35812D01*
X48882Y-35906D01*
X49079Y-35990D02*
X48882Y-35990D01*
X48882Y-36037D01*
X48892Y-36065D01*
X48910Y-36084D01*
X48929Y-36094D01*
X48967Y-36103D01*
X48995Y-36103D01*
X49032Y-36094D01*
X49051Y-36084D01*
X49070Y-36065D01*
X49079Y-36037D01*
X49079Y-35990D01*
X36354Y-24273D02*
X36260Y-24207D01*
X36354Y-24160D02*
X36157Y-24160D01*
X36157Y-24235D01*
X36167Y-24254D01*
X36176Y-24263D01*
X36195Y-24273D01*
X36223Y-24273D01*
X36242Y-24263D01*
X36251Y-24254D01*
X36260Y-24235D01*
X36260Y-24160D01*
X36157Y-24339D02*
X36157Y-24460D01*
X36232Y-24395D01*
X36232Y-24423D01*
X36242Y-24442D01*
X36251Y-24451D01*
X36270Y-24460D01*
X36317Y-24460D01*
X36335Y-24451D01*
X36345Y-24442D01*
X36354Y-24423D01*
X36354Y-24367D01*
X36345Y-24348D01*
X36335Y-24339D01*
X36157Y-24526D02*
X36157Y-24648D01*
X36232Y-24582D01*
X36232Y-24611D01*
X36242Y-24629D01*
X36251Y-24639D01*
X36270Y-24648D01*
X36317Y-24648D01*
X36335Y-24639D01*
X36345Y-24629D01*
X36354Y-24611D01*
X36354Y-24554D01*
X36345Y-24536D01*
X36335Y-24526D01*
X36629Y-24118D02*
X36535Y-24052D01*
X36629Y-24006D02*
X36432Y-24006D01*
X36432Y-24081D01*
X36442Y-24099D01*
X36451Y-24109D01*
X36470Y-24118D01*
X36498Y-24118D01*
X36517Y-24109D01*
X36526Y-24099D01*
X36535Y-24081D01*
X36535Y-24006D01*
X36648Y-24156D02*
X36648Y-24306D01*
X36629Y-24446D02*
X36629Y-24353D01*
X36432Y-24353D01*
X36526Y-24512D02*
X36526Y-24578D01*
X36629Y-24606D02*
X36629Y-24512D01*
X36432Y-24512D01*
X36432Y-24606D01*
X36629Y-24690D02*
X36432Y-24690D01*
X36432Y-24737D01*
X36442Y-24765D01*
X36460Y-24784D01*
X36479Y-24794D01*
X36517Y-24803D01*
X36545Y-24803D01*
X36582Y-24794D01*
X36601Y-24784D01*
X36620Y-24765D01*
X36629Y-24737D01*
X36629Y-24690D01*
X38254Y-24273D02*
X38160Y-24207D01*
X38254Y-24160D02*
X38057Y-24160D01*
X38057Y-24235D01*
X38067Y-24254D01*
X38076Y-24263D01*
X38095Y-24273D01*
X38123Y-24273D01*
X38142Y-24263D01*
X38151Y-24254D01*
X38160Y-24235D01*
X38160Y-24160D01*
X38057Y-24339D02*
X38057Y-24460D01*
X38132Y-24395D01*
X38132Y-24423D01*
X38142Y-24442D01*
X38151Y-24451D01*
X38170Y-24460D01*
X38217Y-24460D01*
X38235Y-24451D01*
X38245Y-24442D01*
X38254Y-24423D01*
X38254Y-24367D01*
X38245Y-24348D01*
X38235Y-24339D01*
X38076Y-24536D02*
X38067Y-24545D01*
X38057Y-24564D01*
X38057Y-24611D01*
X38067Y-24629D01*
X38076Y-24639D01*
X38095Y-24648D01*
X38114Y-24648D01*
X38142Y-24639D01*
X38254Y-24526D01*
X38254Y-24648D01*
X38529Y-24118D02*
X38435Y-24052D01*
X38529Y-24006D02*
X38332Y-24006D01*
X38332Y-24081D01*
X38342Y-24099D01*
X38351Y-24109D01*
X38370Y-24118D01*
X38398Y-24118D01*
X38417Y-24109D01*
X38426Y-24099D01*
X38435Y-24081D01*
X38435Y-24006D01*
X38548Y-24156D02*
X38548Y-24306D01*
X38529Y-24446D02*
X38529Y-24353D01*
X38332Y-24353D01*
X38426Y-24512D02*
X38426Y-24578D01*
X38529Y-24606D02*
X38529Y-24512D01*
X38332Y-24512D01*
X38332Y-24606D01*
X38529Y-24690D02*
X38332Y-24690D01*
X38332Y-24737D01*
X38342Y-24765D01*
X38360Y-24784D01*
X38379Y-24794D01*
X38417Y-24803D01*
X38445Y-24803D01*
X38482Y-24794D01*
X38501Y-24784D01*
X38520Y-24765D01*
X38529Y-24737D01*
X38529Y-24690D01*
X39604Y-20673D02*
X39510Y-20607D01*
X39604Y-20560D02*
X39407Y-20560D01*
X39407Y-20635D01*
X39417Y-20654D01*
X39426Y-20663D01*
X39445Y-20673D01*
X39473Y-20673D01*
X39492Y-20663D01*
X39501Y-20654D01*
X39510Y-20635D01*
X39510Y-20560D01*
X39407Y-20739D02*
X39407Y-20860D01*
X39482Y-20795D01*
X39482Y-20823D01*
X39492Y-20842D01*
X39501Y-20851D01*
X39520Y-20860D01*
X39567Y-20860D01*
X39585Y-20851D01*
X39595Y-20842D01*
X39604Y-20823D01*
X39604Y-20767D01*
X39595Y-20748D01*
X39585Y-20739D01*
X39604Y-21048D02*
X39604Y-20936D01*
X39604Y-20992D02*
X39407Y-20992D01*
X39435Y-20973D01*
X39454Y-20954D01*
X39464Y-20936D01*
X39329Y-20518D02*
X39235Y-20452D01*
X39329Y-20406D02*
X39132Y-20406D01*
X39132Y-20481D01*
X39142Y-20499D01*
X39151Y-20509D01*
X39170Y-20518D01*
X39198Y-20518D01*
X39217Y-20509D01*
X39226Y-20499D01*
X39235Y-20481D01*
X39235Y-20406D01*
X39348Y-20556D02*
X39348Y-20706D01*
X39329Y-20846D02*
X39329Y-20753D01*
X39132Y-20753D01*
X39226Y-20912D02*
X39226Y-20978D01*
X39329Y-21006D02*
X39329Y-20912D01*
X39132Y-20912D01*
X39132Y-21006D01*
X39329Y-21090D02*
X39132Y-21090D01*
X39132Y-21137D01*
X39142Y-21165D01*
X39160Y-21184D01*
X39179Y-21194D01*
X39217Y-21203D01*
X39245Y-21203D01*
X39282Y-21194D01*
X39301Y-21184D01*
X39320Y-21165D01*
X39329Y-21137D01*
X39329Y-21090D01*
X38604Y-20673D02*
X38510Y-20607D01*
X38604Y-20560D02*
X38407Y-20560D01*
X38407Y-20635D01*
X38417Y-20654D01*
X38426Y-20663D01*
X38445Y-20673D01*
X38473Y-20673D01*
X38492Y-20663D01*
X38501Y-20654D01*
X38510Y-20635D01*
X38510Y-20560D01*
X38407Y-20739D02*
X38407Y-20860D01*
X38482Y-20795D01*
X38482Y-20823D01*
X38492Y-20842D01*
X38501Y-20851D01*
X38520Y-20860D01*
X38567Y-20860D01*
X38585Y-20851D01*
X38595Y-20842D01*
X38604Y-20823D01*
X38604Y-20767D01*
X38595Y-20748D01*
X38585Y-20739D01*
X38407Y-20982D02*
X38407Y-21001D01*
X38417Y-21020D01*
X38426Y-21029D01*
X38445Y-21039D01*
X38482Y-21048D01*
X38529Y-21048D01*
X38567Y-21039D01*
X38585Y-21029D01*
X38595Y-21020D01*
X38604Y-21001D01*
X38604Y-20982D01*
X38595Y-20964D01*
X38585Y-20954D01*
X38567Y-20945D01*
X38529Y-20936D01*
X38482Y-20936D01*
X38445Y-20945D01*
X38426Y-20954D01*
X38417Y-20964D01*
X38407Y-20982D01*
X38329Y-20518D02*
X38235Y-20452D01*
X38329Y-20406D02*
X38132Y-20406D01*
X38132Y-20481D01*
X38142Y-20499D01*
X38151Y-20509D01*
X38170Y-20518D01*
X38198Y-20518D01*
X38217Y-20509D01*
X38226Y-20499D01*
X38235Y-20481D01*
X38235Y-20406D01*
X38348Y-20556D02*
X38348Y-20706D01*
X38329Y-20846D02*
X38329Y-20753D01*
X38132Y-20753D01*
X38226Y-20912D02*
X38226Y-20978D01*
X38329Y-21006D02*
X38329Y-20912D01*
X38132Y-20912D01*
X38132Y-21006D01*
X38329Y-21090D02*
X38132Y-21090D01*
X38132Y-21137D01*
X38142Y-21165D01*
X38160Y-21184D01*
X38179Y-21194D01*
X38217Y-21203D01*
X38245Y-21203D01*
X38282Y-21194D01*
X38301Y-21184D01*
X38320Y-21165D01*
X38329Y-21137D01*
X38329Y-21090D01*
X29704Y-20673D02*
X29610Y-20607D01*
X29704Y-20560D02*
X29507Y-20560D01*
X29507Y-20635D01*
X29517Y-20654D01*
X29526Y-20663D01*
X29545Y-20673D01*
X29573Y-20673D01*
X29592Y-20663D01*
X29601Y-20654D01*
X29610Y-20635D01*
X29610Y-20560D01*
X29704Y-20860D02*
X29704Y-20748D01*
X29704Y-20804D02*
X29507Y-20804D01*
X29535Y-20785D01*
X29554Y-20767D01*
X29564Y-20748D01*
X29573Y-21029D02*
X29704Y-21029D01*
X29498Y-20982D02*
X29639Y-20936D01*
X29639Y-21057D01*
X29429Y-20518D02*
X29335Y-20452D01*
X29429Y-20406D02*
X29232Y-20406D01*
X29232Y-20481D01*
X29242Y-20499D01*
X29251Y-20509D01*
X29270Y-20518D01*
X29298Y-20518D01*
X29317Y-20509D01*
X29326Y-20499D01*
X29335Y-20481D01*
X29335Y-20406D01*
X29448Y-20556D02*
X29448Y-20706D01*
X29429Y-20846D02*
X29429Y-20753D01*
X29232Y-20753D01*
X29326Y-20912D02*
X29326Y-20978D01*
X29429Y-21006D02*
X29429Y-20912D01*
X29232Y-20912D01*
X29232Y-21006D01*
X29429Y-21090D02*
X29232Y-21090D01*
X29232Y-21137D01*
X29242Y-21165D01*
X29260Y-21184D01*
X29279Y-21194D01*
X29317Y-21203D01*
X29345Y-21203D01*
X29382Y-21194D01*
X29401Y-21184D01*
X29420Y-21165D01*
X29429Y-21137D01*
X29429Y-21090D01*
X30704Y-20673D02*
X30610Y-20607D01*
X30704Y-20560D02*
X30507Y-20560D01*
X30507Y-20635D01*
X30517Y-20654D01*
X30526Y-20663D01*
X30545Y-20673D01*
X30573Y-20673D01*
X30592Y-20663D01*
X30601Y-20654D01*
X30610Y-20635D01*
X30610Y-20560D01*
X30704Y-20860D02*
X30704Y-20748D01*
X30704Y-20804D02*
X30507Y-20804D01*
X30535Y-20785D01*
X30554Y-20767D01*
X30564Y-20748D01*
X30507Y-20926D02*
X30507Y-21048D01*
X30582Y-20982D01*
X30582Y-21011D01*
X30592Y-21029D01*
X30601Y-21039D01*
X30620Y-21048D01*
X30667Y-21048D01*
X30685Y-21039D01*
X30695Y-21029D01*
X30704Y-21011D01*
X30704Y-20954D01*
X30695Y-20936D01*
X30685Y-20926D01*
X30429Y-20518D02*
X30335Y-20452D01*
X30429Y-20406D02*
X30232Y-20406D01*
X30232Y-20481D01*
X30242Y-20499D01*
X30251Y-20509D01*
X30270Y-20518D01*
X30298Y-20518D01*
X30317Y-20509D01*
X30326Y-20499D01*
X30335Y-20481D01*
X30335Y-20406D01*
X30448Y-20556D02*
X30448Y-20706D01*
X30429Y-20846D02*
X30429Y-20753D01*
X30232Y-20753D01*
X30326Y-20912D02*
X30326Y-20978D01*
X30429Y-21006D02*
X30429Y-20912D01*
X30232Y-20912D01*
X30232Y-21006D01*
X30429Y-21090D02*
X30232Y-21090D01*
X30232Y-21137D01*
X30242Y-21165D01*
X30260Y-21184D01*
X30279Y-21194D01*
X30317Y-21203D01*
X30345Y-21203D01*
X30382Y-21194D01*
X30401Y-21184D01*
X30420Y-21165D01*
X30429Y-21137D01*
X30429Y-21090D01*
X29454Y-24273D02*
X29360Y-24207D01*
X29454Y-24160D02*
X29257Y-24160D01*
X29257Y-24235D01*
X29267Y-24254D01*
X29276Y-24263D01*
X29295Y-24273D01*
X29323Y-24273D01*
X29342Y-24263D01*
X29351Y-24254D01*
X29360Y-24235D01*
X29360Y-24160D01*
X29454Y-24460D02*
X29454Y-24348D01*
X29454Y-24404D02*
X29257Y-24404D01*
X29285Y-24385D01*
X29304Y-24367D01*
X29314Y-24348D01*
X29276Y-24536D02*
X29267Y-24545D01*
X29257Y-24564D01*
X29257Y-24611D01*
X29267Y-24629D01*
X29276Y-24639D01*
X29295Y-24648D01*
X29314Y-24648D01*
X29342Y-24639D01*
X29454Y-24526D01*
X29454Y-24648D01*
X29729Y-24118D02*
X29635Y-24052D01*
X29729Y-24006D02*
X29532Y-24006D01*
X29532Y-24081D01*
X29542Y-24099D01*
X29551Y-24109D01*
X29570Y-24118D01*
X29598Y-24118D01*
X29617Y-24109D01*
X29626Y-24099D01*
X29635Y-24081D01*
X29635Y-24006D01*
X29748Y-24156D02*
X29748Y-24306D01*
X29729Y-24446D02*
X29729Y-24353D01*
X29532Y-24353D01*
X29626Y-24512D02*
X29626Y-24578D01*
X29729Y-24606D02*
X29729Y-24512D01*
X29532Y-24512D01*
X29532Y-24606D01*
X29729Y-24690D02*
X29532Y-24690D01*
X29532Y-24737D01*
X29542Y-24765D01*
X29560Y-24784D01*
X29579Y-24794D01*
X29617Y-24803D01*
X29645Y-24803D01*
X29682Y-24794D01*
X29701Y-24784D01*
X29720Y-24765D01*
X29729Y-24737D01*
X29729Y-24690D01*
X30454Y-24273D02*
X30360Y-24207D01*
X30454Y-24160D02*
X30257Y-24160D01*
X30257Y-24235D01*
X30267Y-24254D01*
X30276Y-24263D01*
X30295Y-24273D01*
X30323Y-24273D01*
X30342Y-24263D01*
X30351Y-24254D01*
X30360Y-24235D01*
X30360Y-24160D01*
X30454Y-24460D02*
X30454Y-24348D01*
X30454Y-24404D02*
X30257Y-24404D01*
X30285Y-24385D01*
X30304Y-24367D01*
X30314Y-24348D01*
X30454Y-24648D02*
X30454Y-24536D01*
X30454Y-24592D02*
X30257Y-24592D01*
X30285Y-24573D01*
X30304Y-24554D01*
X30314Y-24536D01*
X30729Y-24118D02*
X30635Y-24052D01*
X30729Y-24006D02*
X30532Y-24006D01*
X30532Y-24081D01*
X30542Y-24099D01*
X30551Y-24109D01*
X30570Y-24118D01*
X30598Y-24118D01*
X30617Y-24109D01*
X30626Y-24099D01*
X30635Y-24081D01*
X30635Y-24006D01*
X30748Y-24156D02*
X30748Y-24306D01*
X30729Y-24446D02*
X30729Y-24353D01*
X30532Y-24353D01*
X30626Y-24512D02*
X30626Y-24578D01*
X30729Y-24606D02*
X30729Y-24512D01*
X30532Y-24512D01*
X30532Y-24606D01*
X30729Y-24690D02*
X30532Y-24690D01*
X30532Y-24737D01*
X30542Y-24765D01*
X30560Y-24784D01*
X30579Y-24794D01*
X30617Y-24803D01*
X30645Y-24803D01*
X30682Y-24794D01*
X30701Y-24784D01*
X30720Y-24765D01*
X30729Y-24737D01*
X30729Y-24690D01*
X32354Y-24273D02*
X32260Y-24207D01*
X32354Y-24160D02*
X32157Y-24160D01*
X32157Y-24235D01*
X32167Y-24254D01*
X32176Y-24263D01*
X32195Y-24273D01*
X32223Y-24273D01*
X32242Y-24263D01*
X32251Y-24254D01*
X32260Y-24235D01*
X32260Y-24160D01*
X32354Y-24460D02*
X32354Y-24348D01*
X32354Y-24404D02*
X32157Y-24404D01*
X32185Y-24385D01*
X32204Y-24367D01*
X32214Y-24348D01*
X32157Y-24582D02*
X32157Y-24601D01*
X32167Y-24620D01*
X32176Y-24629D01*
X32195Y-24639D01*
X32232Y-24648D01*
X32279Y-24648D01*
X32317Y-24639D01*
X32335Y-24629D01*
X32345Y-24620D01*
X32354Y-24601D01*
X32354Y-24582D01*
X32345Y-24564D01*
X32335Y-24554D01*
X32317Y-24545D01*
X32279Y-24536D01*
X32232Y-24536D01*
X32195Y-24545D01*
X32176Y-24554D01*
X32167Y-24564D01*
X32157Y-24582D01*
X32629Y-24118D02*
X32535Y-24052D01*
X32629Y-24006D02*
X32432Y-24006D01*
X32432Y-24081D01*
X32442Y-24099D01*
X32451Y-24109D01*
X32470Y-24118D01*
X32498Y-24118D01*
X32517Y-24109D01*
X32526Y-24099D01*
X32535Y-24081D01*
X32535Y-24006D01*
X32648Y-24156D02*
X32648Y-24306D01*
X32629Y-24446D02*
X32629Y-24353D01*
X32432Y-24353D01*
X32526Y-24512D02*
X32526Y-24578D01*
X32629Y-24606D02*
X32629Y-24512D01*
X32432Y-24512D01*
X32432Y-24606D01*
X32629Y-24690D02*
X32432Y-24690D01*
X32432Y-24737D01*
X32442Y-24765D01*
X32460Y-24784D01*
X32479Y-24794D01*
X32517Y-24803D01*
X32545Y-24803D01*
X32582Y-24794D01*
X32601Y-24784D01*
X32620Y-24765D01*
X32629Y-24737D01*
X32629Y-24690D01*
X33604Y-20767D02*
X33510Y-20701D01*
X33604Y-20654D02*
X33407Y-20654D01*
X33407Y-20729D01*
X33417Y-20748D01*
X33426Y-20757D01*
X33445Y-20767D01*
X33473Y-20767D01*
X33492Y-20757D01*
X33501Y-20748D01*
X33510Y-20729D01*
X33510Y-20654D01*
X33604Y-20860D02*
X33604Y-20898D01*
X33595Y-20917D01*
X33585Y-20926D01*
X33557Y-20945D01*
X33520Y-20954D01*
X33445Y-20954D01*
X33426Y-20945D01*
X33417Y-20936D01*
X33407Y-20917D01*
X33407Y-20879D01*
X33417Y-20860D01*
X33426Y-20851D01*
X33445Y-20842D01*
X33492Y-20842D01*
X33510Y-20851D01*
X33520Y-20860D01*
X33529Y-20879D01*
X33529Y-20917D01*
X33520Y-20936D01*
X33510Y-20945D01*
X33492Y-20954D01*
X33329Y-20518D02*
X33235Y-20452D01*
X33329Y-20406D02*
X33132Y-20406D01*
X33132Y-20481D01*
X33142Y-20499D01*
X33151Y-20509D01*
X33170Y-20518D01*
X33198Y-20518D01*
X33217Y-20509D01*
X33226Y-20499D01*
X33235Y-20481D01*
X33235Y-20406D01*
X33348Y-20556D02*
X33348Y-20706D01*
X33329Y-20846D02*
X33329Y-20753D01*
X33132Y-20753D01*
X33226Y-20912D02*
X33226Y-20978D01*
X33329Y-21006D02*
X33329Y-20912D01*
X33132Y-20912D01*
X33132Y-21006D01*
X33329Y-21090D02*
X33132Y-21090D01*
X33132Y-21137D01*
X33142Y-21165D01*
X33160Y-21184D01*
X33179Y-21194D01*
X33217Y-21203D01*
X33245Y-21203D01*
X33282Y-21194D01*
X33301Y-21184D01*
X33320Y-21165D01*
X33329Y-21137D01*
X33329Y-21090D01*
X43504Y-29473D02*
X43410Y-29407D01*
X43504Y-29360D02*
X43307Y-29360D01*
X43307Y-29435D01*
X43317Y-29454D01*
X43326Y-29463D01*
X43345Y-29473D01*
X43373Y-29473D01*
X43392Y-29463D01*
X43401Y-29454D01*
X43410Y-29435D01*
X43410Y-29360D01*
X43307Y-29539D02*
X43307Y-29660D01*
X43382Y-29595D01*
X43382Y-29623D01*
X43392Y-29642D01*
X43401Y-29651D01*
X43420Y-29660D01*
X43467Y-29660D01*
X43485Y-29651D01*
X43495Y-29642D01*
X43504Y-29623D01*
X43504Y-29567D01*
X43495Y-29548D01*
X43485Y-29539D01*
X43392Y-29773D02*
X43382Y-29754D01*
X43373Y-29745D01*
X43354Y-29736D01*
X43345Y-29736D01*
X43326Y-29745D01*
X43317Y-29754D01*
X43307Y-29773D01*
X43307Y-29811D01*
X43317Y-29829D01*
X43326Y-29839D01*
X43345Y-29848D01*
X43354Y-29848D01*
X43373Y-29839D01*
X43382Y-29829D01*
X43392Y-29811D01*
X43392Y-29773D01*
X43401Y-29754D01*
X43410Y-29745D01*
X43429Y-29736D01*
X43467Y-29736D01*
X43485Y-29745D01*
X43495Y-29754D01*
X43504Y-29773D01*
X43504Y-29811D01*
X43495Y-29829D01*
X43485Y-29839D01*
X43467Y-29848D01*
X43429Y-29848D01*
X43410Y-29839D01*
X43401Y-29829D01*
X43392Y-29811D01*
X43229Y-29318D02*
X43135Y-29252D01*
X43229Y-29206D02*
X43032Y-29206D01*
X43032Y-29281D01*
X43042Y-29299D01*
X43051Y-29309D01*
X43070Y-29318D01*
X43098Y-29318D01*
X43117Y-29309D01*
X43126Y-29299D01*
X43135Y-29281D01*
X43135Y-29206D01*
X43248Y-29356D02*
X43248Y-29506D01*
X43229Y-29646D02*
X43229Y-29553D01*
X43032Y-29553D01*
X43126Y-29712D02*
X43126Y-29778D01*
X43229Y-29806D02*
X43229Y-29712D01*
X43032Y-29712D01*
X43032Y-29806D01*
X43229Y-29890D02*
X43032Y-29890D01*
X43032Y-29937D01*
X43042Y-29965D01*
X43060Y-29984D01*
X43079Y-29994D01*
X43117Y-30003D01*
X43145Y-30003D01*
X43182Y-29994D01*
X43201Y-29984D01*
X43220Y-29965D01*
X43229Y-29937D01*
X43229Y-29890D01*
X48404Y-35573D02*
X48310Y-35507D01*
X48404Y-35460D02*
X48207Y-35460D01*
X48207Y-35535D01*
X48217Y-35554D01*
X48226Y-35563D01*
X48245Y-35573D01*
X48273Y-35573D01*
X48292Y-35563D01*
X48301Y-35554D01*
X48310Y-35535D01*
X48310Y-35460D01*
X48207Y-35751D02*
X48207Y-35657D01*
X48301Y-35648D01*
X48292Y-35657D01*
X48282Y-35676D01*
X48282Y-35723D01*
X48292Y-35742D01*
X48301Y-35751D01*
X48320Y-35760D01*
X48367Y-35760D01*
X48385Y-35751D01*
X48395Y-35742D01*
X48404Y-35723D01*
X48404Y-35676D01*
X48395Y-35657D01*
X48385Y-35648D01*
X48404Y-35948D02*
X48404Y-35836D01*
X48404Y-35892D02*
X48207Y-35892D01*
X48235Y-35873D01*
X48254Y-35854D01*
X48264Y-35836D01*
X48129Y-35418D02*
X48035Y-35352D01*
X48129Y-35306D02*
X47932Y-35306D01*
X47932Y-35381D01*
X47942Y-35399D01*
X47951Y-35409D01*
X47970Y-35418D01*
X47998Y-35418D01*
X48017Y-35409D01*
X48026Y-35399D01*
X48035Y-35381D01*
X48035Y-35306D01*
X48148Y-35456D02*
X48148Y-35606D01*
X48129Y-35746D02*
X48129Y-35653D01*
X47932Y-35653D01*
X48026Y-35812D02*
X48026Y-35878D01*
X48129Y-35906D02*
X48129Y-35812D01*
X47932Y-35812D01*
X47932Y-35906D01*
X48129Y-35990D02*
X47932Y-35990D01*
X47932Y-36037D01*
X47942Y-36065D01*
X47960Y-36084D01*
X47979Y-36094D01*
X48017Y-36103D01*
X48045Y-36103D01*
X48082Y-36094D01*
X48101Y-36084D01*
X48120Y-36065D01*
X48129Y-36037D01*
X48129Y-35990D01*
X33654Y-35473D02*
X33560Y-35407D01*
X33654Y-35360D02*
X33457Y-35360D01*
X33457Y-35435D01*
X33467Y-35454D01*
X33476Y-35463D01*
X33495Y-35473D01*
X33523Y-35473D01*
X33542Y-35463D01*
X33551Y-35454D01*
X33560Y-35435D01*
X33560Y-35360D01*
X33476Y-35548D02*
X33467Y-35557D01*
X33457Y-35576D01*
X33457Y-35623D01*
X33467Y-35642D01*
X33476Y-35651D01*
X33495Y-35660D01*
X33514Y-35660D01*
X33542Y-35651D01*
X33654Y-35539D01*
X33654Y-35660D01*
X33654Y-35754D02*
X33654Y-35792D01*
X33645Y-35811D01*
X33635Y-35820D01*
X33607Y-35839D01*
X33570Y-35848D01*
X33495Y-35848D01*
X33476Y-35839D01*
X33467Y-35829D01*
X33457Y-35811D01*
X33457Y-35773D01*
X33467Y-35754D01*
X33476Y-35745D01*
X33495Y-35736D01*
X33542Y-35736D01*
X33560Y-35745D01*
X33570Y-35754D01*
X33579Y-35773D01*
X33579Y-35811D01*
X33570Y-35829D01*
X33560Y-35839D01*
X33542Y-35848D01*
X33379Y-35318D02*
X33285Y-35252D01*
X33379Y-35206D02*
X33182Y-35206D01*
X33182Y-35281D01*
X33192Y-35299D01*
X33201Y-35309D01*
X33220Y-35318D01*
X33248Y-35318D01*
X33267Y-35309D01*
X33276Y-35299D01*
X33285Y-35281D01*
X33285Y-35206D01*
X33398Y-35356D02*
X33398Y-35506D01*
X33379Y-35646D02*
X33379Y-35553D01*
X33182Y-35553D01*
X33276Y-35712D02*
X33276Y-35778D01*
X33379Y-35806D02*
X33379Y-35712D01*
X33182Y-35712D01*
X33182Y-35806D01*
X33379Y-35890D02*
X33182Y-35890D01*
X33182Y-35937D01*
X33192Y-35965D01*
X33210Y-35984D01*
X33229Y-35994D01*
X33267Y-36003D01*
X33295Y-36003D01*
X33332Y-35994D01*
X33351Y-35984D01*
X33370Y-35965D01*
X33379Y-35937D01*
X33379Y-35890D01*
X34654Y-35473D02*
X34560Y-35407D01*
X34654Y-35360D02*
X34457Y-35360D01*
X34457Y-35435D01*
X34467Y-35454D01*
X34476Y-35463D01*
X34495Y-35473D01*
X34523Y-35473D01*
X34542Y-35463D01*
X34551Y-35454D01*
X34560Y-35435D01*
X34560Y-35360D01*
X34476Y-35548D02*
X34467Y-35557D01*
X34457Y-35576D01*
X34457Y-35623D01*
X34467Y-35642D01*
X34476Y-35651D01*
X34495Y-35660D01*
X34514Y-35660D01*
X34542Y-35651D01*
X34654Y-35539D01*
X34654Y-35660D01*
X34542Y-35773D02*
X34532Y-35754D01*
X34523Y-35745D01*
X34504Y-35736D01*
X34495Y-35736D01*
X34476Y-35745D01*
X34467Y-35754D01*
X34457Y-35773D01*
X34457Y-35811D01*
X34467Y-35829D01*
X34476Y-35839D01*
X34495Y-35848D01*
X34504Y-35848D01*
X34523Y-35839D01*
X34532Y-35829D01*
X34542Y-35811D01*
X34542Y-35773D01*
X34551Y-35754D01*
X34560Y-35745D01*
X34579Y-35736D01*
X34617Y-35736D01*
X34635Y-35745D01*
X34645Y-35754D01*
X34654Y-35773D01*
X34654Y-35811D01*
X34645Y-35829D01*
X34635Y-35839D01*
X34617Y-35848D01*
X34579Y-35848D01*
X34560Y-35839D01*
X34551Y-35829D01*
X34542Y-35811D01*
X34379Y-35318D02*
X34285Y-35252D01*
X34379Y-35206D02*
X34182Y-35206D01*
X34182Y-35281D01*
X34192Y-35299D01*
X34201Y-35309D01*
X34220Y-35318D01*
X34248Y-35318D01*
X34267Y-35309D01*
X34276Y-35299D01*
X34285Y-35281D01*
X34285Y-35206D01*
X34398Y-35356D02*
X34398Y-35506D01*
X34379Y-35646D02*
X34379Y-35553D01*
X34182Y-35553D01*
X34276Y-35712D02*
X34276Y-35778D01*
X34379Y-35806D02*
X34379Y-35712D01*
X34182Y-35712D01*
X34182Y-35806D01*
X34379Y-35890D02*
X34182Y-35890D01*
X34182Y-35937D01*
X34192Y-35965D01*
X34210Y-35984D01*
X34229Y-35994D01*
X34267Y-36003D01*
X34295Y-36003D01*
X34332Y-35994D01*
X34351Y-35984D01*
X34370Y-35965D01*
X34379Y-35937D01*
X34379Y-35890D01*
X33404Y-39023D02*
X33310Y-38957D01*
X33404Y-38910D02*
X33207Y-38910D01*
X33207Y-38985D01*
X33217Y-39004D01*
X33226Y-39013D01*
X33245Y-39023D01*
X33273Y-39023D01*
X33292Y-39013D01*
X33301Y-39004D01*
X33310Y-38985D01*
X33310Y-38910D01*
X33226Y-39098D02*
X33217Y-39107D01*
X33207Y-39126D01*
X33207Y-39173D01*
X33217Y-39192D01*
X33226Y-39201D01*
X33245Y-39210D01*
X33264Y-39210D01*
X33292Y-39201D01*
X33404Y-39089D01*
X33404Y-39210D01*
X33207Y-39276D02*
X33207Y-39407D01*
X33404Y-39323D01*
X33679Y-38868D02*
X33585Y-38802D01*
X33679Y-38756D02*
X33482Y-38756D01*
X33482Y-38831D01*
X33492Y-38849D01*
X33501Y-38859D01*
X33520Y-38868D01*
X33548Y-38868D01*
X33567Y-38859D01*
X33576Y-38849D01*
X33585Y-38831D01*
X33585Y-38756D01*
X33698Y-38906D02*
X33698Y-39056D01*
X33679Y-39196D02*
X33679Y-39103D01*
X33482Y-39103D01*
X33576Y-39262D02*
X33576Y-39328D01*
X33679Y-39356D02*
X33679Y-39262D01*
X33482Y-39262D01*
X33482Y-39356D01*
X33679Y-39440D02*
X33482Y-39440D01*
X33482Y-39487D01*
X33492Y-39515D01*
X33510Y-39534D01*
X33529Y-39544D01*
X33567Y-39553D01*
X33595Y-39553D01*
X33632Y-39544D01*
X33651Y-39534D01*
X33670Y-39515D01*
X33679Y-39487D01*
X33679Y-39440D01*
X34404Y-39023D02*
X34310Y-38957D01*
X34404Y-38910D02*
X34207Y-38910D01*
X34207Y-38985D01*
X34217Y-39004D01*
X34226Y-39013D01*
X34245Y-39023D01*
X34273Y-39023D01*
X34292Y-39013D01*
X34301Y-39004D01*
X34310Y-38985D01*
X34310Y-38910D01*
X34226Y-39098D02*
X34217Y-39107D01*
X34207Y-39126D01*
X34207Y-39173D01*
X34217Y-39192D01*
X34226Y-39201D01*
X34245Y-39210D01*
X34264Y-39210D01*
X34292Y-39201D01*
X34404Y-39089D01*
X34404Y-39210D01*
X34207Y-39379D02*
X34207Y-39342D01*
X34217Y-39323D01*
X34226Y-39314D01*
X34254Y-39295D01*
X34292Y-39286D01*
X34367Y-39286D01*
X34385Y-39295D01*
X34395Y-39304D01*
X34404Y-39323D01*
X34404Y-39361D01*
X34395Y-39379D01*
X34385Y-39389D01*
X34367Y-39398D01*
X34320Y-39398D01*
X34301Y-39389D01*
X34292Y-39379D01*
X34282Y-39361D01*
X34282Y-39323D01*
X34292Y-39304D01*
X34301Y-39295D01*
X34320Y-39286D01*
X34679Y-38868D02*
X34585Y-38802D01*
X34679Y-38756D02*
X34482Y-38756D01*
X34482Y-38831D01*
X34492Y-38849D01*
X34501Y-38859D01*
X34520Y-38868D01*
X34548Y-38868D01*
X34567Y-38859D01*
X34576Y-38849D01*
X34585Y-38831D01*
X34585Y-38756D01*
X34698Y-38906D02*
X34698Y-39056D01*
X34679Y-39196D02*
X34679Y-39103D01*
X34482Y-39103D01*
X34576Y-39262D02*
X34576Y-39328D01*
X34679Y-39356D02*
X34679Y-39262D01*
X34482Y-39262D01*
X34482Y-39356D01*
X34679Y-39440D02*
X34482Y-39440D01*
X34482Y-39487D01*
X34492Y-39515D01*
X34510Y-39534D01*
X34529Y-39544D01*
X34567Y-39553D01*
X34595Y-39553D01*
X34632Y-39544D01*
X34651Y-39534D01*
X34670Y-39515D01*
X34679Y-39487D01*
X34679Y-39440D01*
X36304Y-39023D02*
X36210Y-38957D01*
X36304Y-38910D02*
X36107Y-38910D01*
X36107Y-38985D01*
X36117Y-39004D01*
X36126Y-39013D01*
X36145Y-39023D01*
X36173Y-39023D01*
X36192Y-39013D01*
X36201Y-39004D01*
X36210Y-38985D01*
X36210Y-38910D01*
X36126Y-39098D02*
X36117Y-39107D01*
X36107Y-39126D01*
X36107Y-39173D01*
X36117Y-39192D01*
X36126Y-39201D01*
X36145Y-39210D01*
X36164Y-39210D01*
X36192Y-39201D01*
X36304Y-39089D01*
X36304Y-39210D01*
X36107Y-39389D02*
X36107Y-39295D01*
X36201Y-39286D01*
X36192Y-39295D01*
X36182Y-39314D01*
X36182Y-39361D01*
X36192Y-39379D01*
X36201Y-39389D01*
X36220Y-39398D01*
X36267Y-39398D01*
X36285Y-39389D01*
X36295Y-39379D01*
X36304Y-39361D01*
X36304Y-39314D01*
X36295Y-39295D01*
X36285Y-39286D01*
X36579Y-38868D02*
X36485Y-38802D01*
X36579Y-38756D02*
X36382Y-38756D01*
X36382Y-38831D01*
X36392Y-38849D01*
X36401Y-38859D01*
X36420Y-38868D01*
X36448Y-38868D01*
X36467Y-38859D01*
X36476Y-38849D01*
X36485Y-38831D01*
X36485Y-38756D01*
X36598Y-38906D02*
X36598Y-39056D01*
X36579Y-39196D02*
X36579Y-39103D01*
X36382Y-39103D01*
X36476Y-39262D02*
X36476Y-39328D01*
X36579Y-39356D02*
X36579Y-39262D01*
X36382Y-39262D01*
X36382Y-39356D01*
X36579Y-39440D02*
X36382Y-39440D01*
X36382Y-39487D01*
X36392Y-39515D01*
X36410Y-39534D01*
X36429Y-39544D01*
X36467Y-39553D01*
X36495Y-39553D01*
X36532Y-39544D01*
X36551Y-39534D01*
X36570Y-39515D01*
X36579Y-39487D01*
X36579Y-39440D01*
X37554Y-35473D02*
X37460Y-35407D01*
X37554Y-35360D02*
X37357Y-35360D01*
X37357Y-35435D01*
X37367Y-35454D01*
X37376Y-35463D01*
X37395Y-35473D01*
X37423Y-35473D01*
X37442Y-35463D01*
X37451Y-35454D01*
X37460Y-35435D01*
X37460Y-35360D01*
X37376Y-35548D02*
X37367Y-35557D01*
X37357Y-35576D01*
X37357Y-35623D01*
X37367Y-35642D01*
X37376Y-35651D01*
X37395Y-35660D01*
X37414Y-35660D01*
X37442Y-35651D01*
X37554Y-35539D01*
X37554Y-35660D01*
X37423Y-35829D02*
X37554Y-35829D01*
X37348Y-35782D02*
X37489Y-35736D01*
X37489Y-35857D01*
X37279Y-35318D02*
X37185Y-35252D01*
X37279Y-35206D02*
X37082Y-35206D01*
X37082Y-35281D01*
X37092Y-35299D01*
X37101Y-35309D01*
X37120Y-35318D01*
X37148Y-35318D01*
X37167Y-35309D01*
X37176Y-35299D01*
X37185Y-35281D01*
X37185Y-35206D01*
X37298Y-35356D02*
X37298Y-35506D01*
X37279Y-35646D02*
X37279Y-35553D01*
X37082Y-35553D01*
X37176Y-35712D02*
X37176Y-35778D01*
X37279Y-35806D02*
X37279Y-35712D01*
X37082Y-35712D01*
X37082Y-35806D01*
X37279Y-35890D02*
X37082Y-35890D01*
X37082Y-35937D01*
X37092Y-35965D01*
X37110Y-35984D01*
X37129Y-35994D01*
X37167Y-36003D01*
X37195Y-36003D01*
X37232Y-35994D01*
X37251Y-35984D01*
X37270Y-35965D01*
X37279Y-35937D01*
X37279Y-35890D01*
X36554Y-35473D02*
X36460Y-35407D01*
X36554Y-35360D02*
X36357Y-35360D01*
X36357Y-35435D01*
X36367Y-35454D01*
X36376Y-35463D01*
X36395Y-35473D01*
X36423Y-35473D01*
X36442Y-35463D01*
X36451Y-35454D01*
X36460Y-35435D01*
X36460Y-35360D01*
X36376Y-35548D02*
X36367Y-35557D01*
X36357Y-35576D01*
X36357Y-35623D01*
X36367Y-35642D01*
X36376Y-35651D01*
X36395Y-35660D01*
X36414Y-35660D01*
X36442Y-35651D01*
X36554Y-35539D01*
X36554Y-35660D01*
X36357Y-35726D02*
X36357Y-35848D01*
X36432Y-35782D01*
X36432Y-35811D01*
X36442Y-35829D01*
X36451Y-35839D01*
X36470Y-35848D01*
X36517Y-35848D01*
X36535Y-35839D01*
X36545Y-35829D01*
X36554Y-35811D01*
X36554Y-35754D01*
X36545Y-35736D01*
X36535Y-35726D01*
X36279Y-35318D02*
X36185Y-35252D01*
X36279Y-35206D02*
X36082Y-35206D01*
X36082Y-35281D01*
X36092Y-35299D01*
X36101Y-35309D01*
X36120Y-35318D01*
X36148Y-35318D01*
X36167Y-35309D01*
X36176Y-35299D01*
X36185Y-35281D01*
X36185Y-35206D01*
X36298Y-35356D02*
X36298Y-35506D01*
X36279Y-35646D02*
X36279Y-35553D01*
X36082Y-35553D01*
X36176Y-35712D02*
X36176Y-35778D01*
X36279Y-35806D02*
X36279Y-35712D01*
X36082Y-35712D01*
X36082Y-35806D01*
X36279Y-35890D02*
X36082Y-35890D01*
X36082Y-35937D01*
X36092Y-35965D01*
X36110Y-35984D01*
X36129Y-35994D01*
X36167Y-36003D01*
X36195Y-36003D01*
X36232Y-35994D01*
X36251Y-35984D01*
X36270Y-35965D01*
X36279Y-35937D01*
X36279Y-35890D01*
X27704Y-35567D02*
X27610Y-35501D01*
X27704Y-35454D02*
X27507Y-35454D01*
X27507Y-35529D01*
X27517Y-35548D01*
X27526Y-35557D01*
X27545Y-35567D01*
X27573Y-35567D01*
X27592Y-35557D01*
X27601Y-35548D01*
X27610Y-35529D01*
X27610Y-35454D01*
X27507Y-35632D02*
X27507Y-35764D01*
X27704Y-35679D01*
X27429Y-35318D02*
X27335Y-35252D01*
X27429Y-35206D02*
X27232Y-35206D01*
X27232Y-35281D01*
X27242Y-35299D01*
X27251Y-35309D01*
X27270Y-35318D01*
X27298Y-35318D01*
X27317Y-35309D01*
X27326Y-35299D01*
X27335Y-35281D01*
X27335Y-35206D01*
X27448Y-35356D02*
X27448Y-35506D01*
X27429Y-35646D02*
X27429Y-35553D01*
X27232Y-35553D01*
X27326Y-35712D02*
X27326Y-35778D01*
X27429Y-35806D02*
X27429Y-35712D01*
X27232Y-35712D01*
X27232Y-35806D01*
X27429Y-35890D02*
X27232Y-35890D01*
X27232Y-35937D01*
X27242Y-35965D01*
X27260Y-35984D01*
X27279Y-35994D01*
X27317Y-36003D01*
X27345Y-36003D01*
X27382Y-35994D01*
X27401Y-35984D01*
X27420Y-35965D01*
X27429Y-35937D01*
X27429Y-35890D01*
X28704Y-35567D02*
X28610Y-35501D01*
X28704Y-35454D02*
X28507Y-35454D01*
X28507Y-35529D01*
X28517Y-35548D01*
X28526Y-35557D01*
X28545Y-35567D01*
X28573Y-35567D01*
X28592Y-35557D01*
X28601Y-35548D01*
X28610Y-35529D01*
X28610Y-35454D01*
X28507Y-35736D02*
X28507Y-35698D01*
X28517Y-35679D01*
X28526Y-35670D01*
X28554Y-35651D01*
X28592Y-35642D01*
X28667Y-35642D01*
X28685Y-35651D01*
X28695Y-35660D01*
X28704Y-35679D01*
X28704Y-35717D01*
X28695Y-35736D01*
X28685Y-35745D01*
X28667Y-35754D01*
X28620Y-35754D01*
X28601Y-35745D01*
X28592Y-35736D01*
X28582Y-35717D01*
X28582Y-35679D01*
X28592Y-35660D01*
X28601Y-35651D01*
X28620Y-35642D01*
X28429Y-35318D02*
X28335Y-35252D01*
X28429Y-35206D02*
X28232Y-35206D01*
X28232Y-35281D01*
X28242Y-35299D01*
X28251Y-35309D01*
X28270Y-35318D01*
X28298Y-35318D01*
X28317Y-35309D01*
X28326Y-35299D01*
X28335Y-35281D01*
X28335Y-35206D01*
X28448Y-35356D02*
X28448Y-35506D01*
X28429Y-35646D02*
X28429Y-35553D01*
X28232Y-35553D01*
X28326Y-35712D02*
X28326Y-35778D01*
X28429Y-35806D02*
X28429Y-35712D01*
X28232Y-35712D01*
X28232Y-35806D01*
X28429Y-35890D02*
X28232Y-35890D01*
X28232Y-35937D01*
X28242Y-35965D01*
X28260Y-35984D01*
X28279Y-35994D01*
X28317Y-36003D01*
X28345Y-36003D01*
X28382Y-35994D01*
X28401Y-35984D01*
X28420Y-35965D01*
X28429Y-35937D01*
X28429Y-35890D01*
X28454Y-39067D02*
X28360Y-39001D01*
X28454Y-38954D02*
X28257Y-38954D01*
X28257Y-39029D01*
X28267Y-39048D01*
X28276Y-39057D01*
X28295Y-39067D01*
X28323Y-39067D01*
X28342Y-39057D01*
X28351Y-39048D01*
X28360Y-39029D01*
X28360Y-38954D01*
X28323Y-39236D02*
X28454Y-39236D01*
X28248Y-39189D02*
X28389Y-39142D01*
X28389Y-39264D01*
X28729Y-38818D02*
X28635Y-38752D01*
X28729Y-38706D02*
X28532Y-38706D01*
X28532Y-38781D01*
X28542Y-38799D01*
X28551Y-38809D01*
X28570Y-38818D01*
X28598Y-38818D01*
X28617Y-38809D01*
X28626Y-38799D01*
X28635Y-38781D01*
X28635Y-38706D01*
X28748Y-38856D02*
X28748Y-39006D01*
X28729Y-39146D02*
X28729Y-39053D01*
X28532Y-39053D01*
X28626Y-39212D02*
X28626Y-39278D01*
X28729Y-39306D02*
X28729Y-39212D01*
X28532Y-39212D01*
X28532Y-39306D01*
X28729Y-39390D02*
X28532Y-39390D01*
X28532Y-39437D01*
X28542Y-39465D01*
X28560Y-39484D01*
X28579Y-39494D01*
X28617Y-39503D01*
X28645Y-39503D01*
X28682Y-39494D01*
X28701Y-39484D01*
X28720Y-39465D01*
X28729Y-39437D01*
X28729Y-39390D01*
X30354Y-39117D02*
X30260Y-39051D01*
X30354Y-39004D02*
X30157Y-39004D01*
X30157Y-39079D01*
X30167Y-39098D01*
X30176Y-39107D01*
X30195Y-39117D01*
X30223Y-39117D01*
X30242Y-39107D01*
X30251Y-39098D01*
X30260Y-39079D01*
X30260Y-39004D01*
X30157Y-39182D02*
X30157Y-39304D01*
X30232Y-39239D01*
X30232Y-39267D01*
X30242Y-39286D01*
X30251Y-39295D01*
X30270Y-39304D01*
X30317Y-39304D01*
X30335Y-39295D01*
X30345Y-39286D01*
X30354Y-39267D01*
X30354Y-39210D01*
X30345Y-39192D01*
X30335Y-39182D01*
X30629Y-38868D02*
X30535Y-38802D01*
X30629Y-38756D02*
X30432Y-38756D01*
X30432Y-38831D01*
X30442Y-38849D01*
X30451Y-38859D01*
X30470Y-38868D01*
X30498Y-38868D01*
X30517Y-38859D01*
X30526Y-38849D01*
X30535Y-38831D01*
X30535Y-38756D01*
X30648Y-38906D02*
X30648Y-39056D01*
X30629Y-39196D02*
X30629Y-39103D01*
X30432Y-39103D01*
X30526Y-39262D02*
X30526Y-39328D01*
X30629Y-39356D02*
X30629Y-39262D01*
X30432Y-39262D01*
X30432Y-39356D01*
X30629Y-39440D02*
X30432Y-39440D01*
X30432Y-39487D01*
X30442Y-39515D01*
X30460Y-39534D01*
X30479Y-39544D01*
X30517Y-39553D01*
X30545Y-39553D01*
X30582Y-39544D01*
X30601Y-39534D01*
X30620Y-39515D01*
X30629Y-39487D01*
X30629Y-39440D01*
X31654Y-35617D02*
X31560Y-35551D01*
X31654Y-35504D02*
X31457Y-35504D01*
X31457Y-35579D01*
X31467Y-35598D01*
X31476Y-35607D01*
X31495Y-35617D01*
X31523Y-35617D01*
X31542Y-35607D01*
X31551Y-35598D01*
X31560Y-35579D01*
X31560Y-35504D01*
X31476Y-35692D02*
X31467Y-35701D01*
X31457Y-35720D01*
X31457Y-35767D01*
X31467Y-35786D01*
X31476Y-35795D01*
X31495Y-35804D01*
X31514Y-35804D01*
X31542Y-35795D01*
X31654Y-35682D01*
X31654Y-35804D01*
X31379Y-35368D02*
X31285Y-35302D01*
X31379Y-35256D02*
X31182Y-35256D01*
X31182Y-35331D01*
X31192Y-35349D01*
X31201Y-35359D01*
X31220Y-35368D01*
X31248Y-35368D01*
X31267Y-35359D01*
X31276Y-35349D01*
X31285Y-35331D01*
X31285Y-35256D01*
X31398Y-35406D02*
X31398Y-35556D01*
X31379Y-35696D02*
X31379Y-35603D01*
X31182Y-35603D01*
X31276Y-35762D02*
X31276Y-35828D01*
X31379Y-35856D02*
X31379Y-35762D01*
X31182Y-35762D01*
X31182Y-35856D01*
X31379Y-35940D02*
X31182Y-35940D01*
X31182Y-35987D01*
X31192Y-36015D01*
X31210Y-36034D01*
X31229Y-36044D01*
X31267Y-36053D01*
X31295Y-36053D01*
X31332Y-36044D01*
X31351Y-36034D01*
X31370Y-36015D01*
X31379Y-35987D01*
X31379Y-35940D01*
X30654Y-35617D02*
X30560Y-35551D01*
X30654Y-35504D02*
X30457Y-35504D01*
X30457Y-35579D01*
X30467Y-35598D01*
X30476Y-35607D01*
X30495Y-35617D01*
X30523Y-35617D01*
X30542Y-35607D01*
X30551Y-35598D01*
X30560Y-35579D01*
X30560Y-35504D01*
X30654Y-35804D02*
X30654Y-35692D01*
X30654Y-35748D02*
X30457Y-35748D01*
X30485Y-35729D01*
X30504Y-35710D01*
X30514Y-35692D01*
X30379Y-35368D02*
X30285Y-35302D01*
X30379Y-35256D02*
X30182Y-35256D01*
X30182Y-35331D01*
X30192Y-35349D01*
X30201Y-35359D01*
X30220Y-35368D01*
X30248Y-35368D01*
X30267Y-35359D01*
X30276Y-35349D01*
X30285Y-35331D01*
X30285Y-35256D01*
X30398Y-35406D02*
X30398Y-35556D01*
X30379Y-35696D02*
X30379Y-35603D01*
X30182Y-35603D01*
X30276Y-35762D02*
X30276Y-35828D01*
X30379Y-35856D02*
X30379Y-35762D01*
X30182Y-35762D01*
X30182Y-35856D01*
X30379Y-35940D02*
X30182Y-35940D01*
X30182Y-35987D01*
X30192Y-36015D01*
X30210Y-36034D01*
X30229Y-36044D01*
X30267Y-36053D01*
X30295Y-36053D01*
X30332Y-36044D01*
X30351Y-36034D01*
X30370Y-36015D01*
X30379Y-35987D01*
X30379Y-35940D01*
X39504Y-29473D02*
X39410Y-29407D01*
X39504Y-29360D02*
X39307Y-29360D01*
X39307Y-29435D01*
X39317Y-29454D01*
X39326Y-29463D01*
X39345Y-29473D01*
X39373Y-29473D01*
X39392Y-29463D01*
X39401Y-29454D01*
X39410Y-29435D01*
X39410Y-29360D01*
X39373Y-29642D02*
X39504Y-29642D01*
X39298Y-29595D02*
X39439Y-29548D01*
X39439Y-29670D01*
X39307Y-29726D02*
X39307Y-29848D01*
X39382Y-29782D01*
X39382Y-29811D01*
X39392Y-29829D01*
X39401Y-29839D01*
X39420Y-29848D01*
X39467Y-29848D01*
X39485Y-29839D01*
X39495Y-29829D01*
X39504Y-29811D01*
X39504Y-29754D01*
X39495Y-29736D01*
X39485Y-29726D01*
X39229Y-29318D02*
X39135Y-29252D01*
X39229Y-29206D02*
X39032Y-29206D01*
X39032Y-29281D01*
X39042Y-29299D01*
X39051Y-29309D01*
X39070Y-29318D01*
X39098Y-29318D01*
X39117Y-29309D01*
X39126Y-29299D01*
X39135Y-29281D01*
X39135Y-29206D01*
X39248Y-29356D02*
X39248Y-29506D01*
X39229Y-29646D02*
X39229Y-29553D01*
X39032Y-29553D01*
X39126Y-29712D02*
X39126Y-29778D01*
X39229Y-29806D02*
X39229Y-29712D01*
X39032Y-29712D01*
X39032Y-29806D01*
X39229Y-29890D02*
X39032Y-29890D01*
X39032Y-29937D01*
X39042Y-29965D01*
X39060Y-29984D01*
X39079Y-29994D01*
X39117Y-30003D01*
X39145Y-30003D01*
X39182Y-29994D01*
X39201Y-29984D01*
X39220Y-29965D01*
X39229Y-29937D01*
X39229Y-29890D01*
X27504Y-39067D02*
X27410Y-39001D01*
X27504Y-38954D02*
X27307Y-38954D01*
X27307Y-39029D01*
X27317Y-39048D01*
X27326Y-39057D01*
X27345Y-39067D01*
X27373Y-39067D01*
X27392Y-39057D01*
X27401Y-39048D01*
X27410Y-39029D01*
X27410Y-38954D01*
X27307Y-39245D02*
X27307Y-39151D01*
X27401Y-39142D01*
X27392Y-39151D01*
X27382Y-39170D01*
X27382Y-39217D01*
X27392Y-39236D01*
X27401Y-39245D01*
X27420Y-39254D01*
X27467Y-39254D01*
X27485Y-39245D01*
X27495Y-39236D01*
X27504Y-39217D01*
X27504Y-39170D01*
X27495Y-39151D01*
X27485Y-39142D01*
X27779Y-38818D02*
X27685Y-38752D01*
X27779Y-38706D02*
X27582Y-38706D01*
X27582Y-38781D01*
X27592Y-38799D01*
X27601Y-38809D01*
X27620Y-38818D01*
X27648Y-38818D01*
X27667Y-38809D01*
X27676Y-38799D01*
X27685Y-38781D01*
X27685Y-38706D01*
X27798Y-38856D02*
X27798Y-39006D01*
X27779Y-39146D02*
X27779Y-39053D01*
X27582Y-39053D01*
X27676Y-39212D02*
X27676Y-39278D01*
X27779Y-39306D02*
X27779Y-39212D01*
X27582Y-39212D01*
X27582Y-39306D01*
X27779Y-39390D02*
X27582Y-39390D01*
X27582Y-39437D01*
X27592Y-39465D01*
X27610Y-39484D01*
X27629Y-39494D01*
X27667Y-39503D01*
X27695Y-39503D01*
X27732Y-39494D01*
X27751Y-39484D01*
X27770Y-39465D01*
X27779Y-39437D01*
X27779Y-39390D01*
X40504Y-29473D02*
X40410Y-29407D01*
X40504Y-29360D02*
X40307Y-29360D01*
X40307Y-29435D01*
X40317Y-29454D01*
X40326Y-29463D01*
X40345Y-29473D01*
X40373Y-29473D01*
X40392Y-29463D01*
X40401Y-29454D01*
X40410Y-29435D01*
X40410Y-29360D01*
X40373Y-29642D02*
X40504Y-29642D01*
X40298Y-29595D02*
X40439Y-29548D01*
X40439Y-29670D01*
X40326Y-29736D02*
X40317Y-29745D01*
X40307Y-29764D01*
X40307Y-29811D01*
X40317Y-29829D01*
X40326Y-29839D01*
X40345Y-29848D01*
X40364Y-29848D01*
X40392Y-29839D01*
X40504Y-29726D01*
X40504Y-29848D01*
X40229Y-29318D02*
X40135Y-29252D01*
X40229Y-29206D02*
X40032Y-29206D01*
X40032Y-29281D01*
X40042Y-29299D01*
X40051Y-29309D01*
X40070Y-29318D01*
X40098Y-29318D01*
X40117Y-29309D01*
X40126Y-29299D01*
X40135Y-29281D01*
X40135Y-29206D01*
X40248Y-29356D02*
X40248Y-29506D01*
X40229Y-29646D02*
X40229Y-29553D01*
X40032Y-29553D01*
X40126Y-29712D02*
X40126Y-29778D01*
X40229Y-29806D02*
X40229Y-29712D01*
X40032Y-29712D01*
X40032Y-29806D01*
X40229Y-29890D02*
X40032Y-29890D01*
X40032Y-29937D01*
X40042Y-29965D01*
X40060Y-29984D01*
X40079Y-29994D01*
X40117Y-30003D01*
X40145Y-30003D01*
X40182Y-29994D01*
X40201Y-29984D01*
X40220Y-29965D01*
X40229Y-29937D01*
X40229Y-29890D01*
X39254Y-33173D02*
X39160Y-33107D01*
X39254Y-33060D02*
X39057Y-33060D01*
X39057Y-33135D01*
X39067Y-33154D01*
X39076Y-33163D01*
X39095Y-33173D01*
X39123Y-33173D01*
X39142Y-33163D01*
X39151Y-33154D01*
X39160Y-33135D01*
X39160Y-33060D01*
X39123Y-33342D02*
X39254Y-33342D01*
X39048Y-33295D02*
X39189Y-33248D01*
X39189Y-33370D01*
X39254Y-33548D02*
X39254Y-33436D01*
X39254Y-33492D02*
X39057Y-33492D01*
X39085Y-33473D01*
X39104Y-33454D01*
X39114Y-33436D01*
X39529Y-33018D02*
X39435Y-32952D01*
X39529Y-32906D02*
X39332Y-32906D01*
X39332Y-32981D01*
X39342Y-32999D01*
X39351Y-33009D01*
X39370Y-33018D01*
X39398Y-33018D01*
X39417Y-33009D01*
X39426Y-32999D01*
X39435Y-32981D01*
X39435Y-32906D01*
X39548Y-33056D02*
X39548Y-33206D01*
X39529Y-33346D02*
X39529Y-33253D01*
X39332Y-33253D01*
X39426Y-33412D02*
X39426Y-33478D01*
X39529Y-33506D02*
X39529Y-33412D01*
X39332Y-33412D01*
X39332Y-33506D01*
X39529Y-33590D02*
X39332Y-33590D01*
X39332Y-33637D01*
X39342Y-33665D01*
X39360Y-33684D01*
X39379Y-33694D01*
X39417Y-33703D01*
X39445Y-33703D01*
X39482Y-33694D01*
X39501Y-33684D01*
X39520Y-33665D01*
X39529Y-33637D01*
X39529Y-33590D01*
X40254Y-33173D02*
X40160Y-33107D01*
X40254Y-33060D02*
X40057Y-33060D01*
X40057Y-33135D01*
X40067Y-33154D01*
X40076Y-33163D01*
X40095Y-33173D01*
X40123Y-33173D01*
X40142Y-33163D01*
X40151Y-33154D01*
X40160Y-33135D01*
X40160Y-33060D01*
X40123Y-33342D02*
X40254Y-33342D01*
X40048Y-33295D02*
X40189Y-33248D01*
X40189Y-33370D01*
X40057Y-33482D02*
X40057Y-33501D01*
X40067Y-33520D01*
X40076Y-33529D01*
X40095Y-33539D01*
X40132Y-33548D01*
X40179Y-33548D01*
X40217Y-33539D01*
X40235Y-33529D01*
X40245Y-33520D01*
X40254Y-33501D01*
X40254Y-33482D01*
X40245Y-33464D01*
X40235Y-33454D01*
X40217Y-33445D01*
X40179Y-33436D01*
X40132Y-33436D01*
X40095Y-33445D01*
X40076Y-33454D01*
X40067Y-33464D01*
X40057Y-33482D01*
X40529Y-33018D02*
X40435Y-32952D01*
X40529Y-32906D02*
X40332Y-32906D01*
X40332Y-32981D01*
X40342Y-32999D01*
X40351Y-33009D01*
X40370Y-33018D01*
X40398Y-33018D01*
X40417Y-33009D01*
X40426Y-32999D01*
X40435Y-32981D01*
X40435Y-32906D01*
X40548Y-33056D02*
X40548Y-33206D01*
X40529Y-33346D02*
X40529Y-33253D01*
X40332Y-33253D01*
X40426Y-33412D02*
X40426Y-33478D01*
X40529Y-33506D02*
X40529Y-33412D01*
X40332Y-33412D01*
X40332Y-33506D01*
X40529Y-33590D02*
X40332Y-33590D01*
X40332Y-33637D01*
X40342Y-33665D01*
X40360Y-33684D01*
X40379Y-33694D01*
X40417Y-33703D01*
X40445Y-33703D01*
X40482Y-33694D01*
X40501Y-33684D01*
X40520Y-33665D01*
X40529Y-33637D01*
X40529Y-33590D01*
X42254Y-33173D02*
X42160Y-33107D01*
X42254Y-33060D02*
X42057Y-33060D01*
X42057Y-33135D01*
X42067Y-33154D01*
X42076Y-33163D01*
X42095Y-33173D01*
X42123Y-33173D01*
X42142Y-33163D01*
X42151Y-33154D01*
X42160Y-33135D01*
X42160Y-33060D01*
X42057Y-33239D02*
X42057Y-33360D01*
X42132Y-33295D01*
X42132Y-33323D01*
X42142Y-33342D01*
X42151Y-33351D01*
X42170Y-33360D01*
X42217Y-33360D01*
X42235Y-33351D01*
X42245Y-33342D01*
X42254Y-33323D01*
X42254Y-33267D01*
X42245Y-33248D01*
X42235Y-33239D01*
X42254Y-33454D02*
X42254Y-33492D01*
X42245Y-33511D01*
X42235Y-33520D01*
X42207Y-33539D01*
X42170Y-33548D01*
X42095Y-33548D01*
X42076Y-33539D01*
X42067Y-33529D01*
X42057Y-33511D01*
X42057Y-33473D01*
X42067Y-33454D01*
X42076Y-33445D01*
X42095Y-33436D01*
X42142Y-33436D01*
X42160Y-33445D01*
X42170Y-33454D01*
X42179Y-33473D01*
X42179Y-33511D01*
X42170Y-33529D01*
X42160Y-33539D01*
X42142Y-33548D01*
X42529Y-33018D02*
X42435Y-32952D01*
X42529Y-32906D02*
X42332Y-32906D01*
X42332Y-32981D01*
X42342Y-32999D01*
X42351Y-33009D01*
X42370Y-33018D01*
X42398Y-33018D01*
X42417Y-33009D01*
X42426Y-32999D01*
X42435Y-32981D01*
X42435Y-32906D01*
X42548Y-33056D02*
X42548Y-33206D01*
X42529Y-33346D02*
X42529Y-33253D01*
X42332Y-33253D01*
X42426Y-33412D02*
X42426Y-33478D01*
X42529Y-33506D02*
X42529Y-33412D01*
X42332Y-33412D01*
X42332Y-33506D01*
X42529Y-33590D02*
X42332Y-33590D01*
X42332Y-33637D01*
X42342Y-33665D01*
X42360Y-33684D01*
X42379Y-33694D01*
X42417Y-33703D01*
X42445Y-33703D01*
X42482Y-33694D01*
X42501Y-33684D01*
X42520Y-33665D01*
X42529Y-33637D01*
X42529Y-33590D01*
G54D14*
X29000Y-26732D02*
X29000Y-26892D01*
X28990Y-26910D01*
X28981Y-26920D01*
X28962Y-26929D01*
X28925Y-26929D01*
X28906Y-26920D01*
X28896Y-26910D01*
X28887Y-26892D01*
X28887Y-26732D01*
X28803Y-26751D02*
X28793Y-26742D01*
X28774Y-26732D01*
X28728Y-26732D01*
X28709Y-26742D01*
X28699Y-26751D01*
X28690Y-26770D01*
X28690Y-26789D01*
X28699Y-26817D01*
X28812Y-26929D01*
X28690Y-26929D01*
M02*
