G04 (created by PCBNEW (2013-07-07 BZR 4022)-stable) date 1/31/2015 10:55:12 PM*
%MOIN*%
G04 Gerber Fmt 3.4, Leading zero omitted, Abs format*
%FSLAX34Y34*%
G01*
G70*
G90*
G04 APERTURE LIST*
%ADD10C,0.00590551*%
%ADD11C,0.01*%
%ADD12C,0.0031*%
%ADD13C,0.005*%
%ADD14C,0.012*%
%ADD15C,0.0075*%
%ADD16C,0.0047*%
%ADD17C,0.0039*%
%ADD18C,0.0045*%
%ADD19C,0.008*%
G04 APERTURE END LIST*
G54D10*
G54D11*
X47150Y-31400D02*
X47150Y-29300D01*
X47150Y-29300D02*
X48600Y-29300D01*
X48600Y-29300D02*
X48600Y-31400D01*
X48600Y-31400D02*
X47150Y-31400D01*
X48484Y-31167D02*
G75*
G03X48484Y-31167I-128J0D01*
G74*
G01*
X28800Y-31100D02*
X28800Y-29000D01*
X28800Y-29000D02*
X30250Y-29000D01*
X30250Y-29000D02*
X30250Y-31100D01*
X30250Y-31100D02*
X28800Y-31100D01*
X30134Y-30867D02*
G75*
G03X30134Y-30867I-128J0D01*
G74*
G01*
G54D12*
X35400Y-27763D02*
G75*
G03X35400Y-27763I-62J0D01*
G74*
G01*
X35000Y-26800D02*
X35400Y-26800D01*
X35000Y-27825D02*
X35400Y-27825D01*
X35400Y-26800D02*
X35400Y-27825D01*
X35000Y-27825D02*
X35000Y-26800D01*
X55700Y-21763D02*
G75*
G03X55700Y-21763I-62J0D01*
G74*
G01*
X55300Y-20800D02*
X55700Y-20800D01*
X55300Y-21825D02*
X55700Y-21825D01*
X55700Y-20800D02*
X55700Y-21825D01*
X55300Y-21825D02*
X55300Y-20800D01*
X55700Y-23163D02*
G75*
G03X55700Y-23163I-62J0D01*
G74*
G01*
X55300Y-22200D02*
X55700Y-22200D01*
X55300Y-23225D02*
X55700Y-23225D01*
X55700Y-22200D02*
X55700Y-23225D01*
X55300Y-23225D02*
X55300Y-22200D01*
X55700Y-24563D02*
G75*
G03X55700Y-24563I-62J0D01*
G74*
G01*
X55300Y-23600D02*
X55700Y-23600D01*
X55300Y-24625D02*
X55700Y-24625D01*
X55700Y-23600D02*
X55700Y-24625D01*
X55300Y-24625D02*
X55300Y-23600D01*
X54174Y-32287D02*
G75*
G03X54174Y-32287I-62J0D01*
G74*
G01*
X54450Y-33250D02*
X54050Y-33250D01*
X54450Y-32225D02*
X54050Y-32225D01*
X54050Y-33250D02*
X54050Y-32225D01*
X54450Y-32225D02*
X54450Y-33250D01*
X55700Y-28863D02*
G75*
G03X55700Y-28863I-62J0D01*
G74*
G01*
X55300Y-27900D02*
X55700Y-27900D01*
X55300Y-28925D02*
X55700Y-28925D01*
X55700Y-27900D02*
X55700Y-28925D01*
X55300Y-28925D02*
X55300Y-27900D01*
X55700Y-27463D02*
G75*
G03X55700Y-27463I-62J0D01*
G74*
G01*
X55300Y-26500D02*
X55700Y-26500D01*
X55300Y-27525D02*
X55700Y-27525D01*
X55700Y-26500D02*
X55700Y-27525D01*
X55300Y-27525D02*
X55300Y-26500D01*
X55700Y-26013D02*
G75*
G03X55700Y-26013I-62J0D01*
G74*
G01*
X55300Y-25050D02*
X55700Y-25050D01*
X55300Y-26075D02*
X55700Y-26075D01*
X55700Y-25050D02*
X55700Y-26075D01*
X55300Y-26075D02*
X55300Y-25050D01*
X31200Y-27763D02*
G75*
G03X31200Y-27763I-62J0D01*
G74*
G01*
X30800Y-26800D02*
X31200Y-26800D01*
X30800Y-27825D02*
X31200Y-27825D01*
X31200Y-26800D02*
X31200Y-27825D01*
X30800Y-27825D02*
X30800Y-26800D01*
X45550Y-27813D02*
G75*
G03X45550Y-27813I-62J0D01*
G74*
G01*
X45150Y-26850D02*
X45550Y-26850D01*
X45150Y-27875D02*
X45550Y-27875D01*
X45550Y-26850D02*
X45550Y-27875D01*
X45150Y-27875D02*
X45150Y-26850D01*
X50900Y-27763D02*
G75*
G03X50900Y-27763I-62J0D01*
G74*
G01*
X50500Y-26800D02*
X50900Y-26800D01*
X50500Y-27825D02*
X50900Y-27825D01*
X50900Y-26800D02*
X50900Y-27825D01*
X50500Y-27825D02*
X50500Y-26800D01*
X46274Y-32287D02*
G75*
G03X46274Y-32287I-62J0D01*
G74*
G01*
X46550Y-33250D02*
X46150Y-33250D01*
X46550Y-32225D02*
X46150Y-32225D01*
X46150Y-33250D02*
X46150Y-32225D01*
X46550Y-32225D02*
X46550Y-33250D01*
X35774Y-32237D02*
G75*
G03X35774Y-32237I-62J0D01*
G74*
G01*
X36050Y-33200D02*
X35650Y-33200D01*
X36050Y-32175D02*
X35650Y-32175D01*
X35650Y-33200D02*
X35650Y-32175D01*
X36050Y-32175D02*
X36050Y-33200D01*
X29874Y-32237D02*
G75*
G03X29874Y-32237I-62J0D01*
G74*
G01*
X30150Y-33200D02*
X29750Y-33200D01*
X30150Y-32175D02*
X29750Y-32175D01*
X29750Y-33200D02*
X29750Y-32175D01*
X30150Y-32175D02*
X30150Y-33200D01*
G54D10*
X32921Y-41094D02*
X32921Y-33614D01*
X32921Y-33614D02*
X37881Y-33614D01*
X37881Y-33614D02*
X37881Y-41094D01*
X37881Y-41094D02*
X32921Y-41094D01*
X44732Y-41094D02*
X44732Y-33614D01*
X44732Y-33614D02*
X49692Y-33614D01*
X49692Y-33614D02*
X49692Y-41094D01*
X49692Y-41094D02*
X44732Y-41094D01*
X27015Y-41094D02*
X27015Y-33614D01*
X27015Y-33614D02*
X31976Y-33614D01*
X31976Y-33614D02*
X31976Y-41094D01*
X31976Y-41094D02*
X27015Y-41094D01*
X50637Y-41094D02*
X50637Y-33614D01*
X50637Y-33614D02*
X55598Y-33614D01*
X55598Y-33614D02*
X55598Y-41094D01*
X55598Y-41094D02*
X50637Y-41094D01*
X48669Y-26330D02*
X48669Y-18850D01*
X48669Y-18850D02*
X53629Y-18850D01*
X53629Y-18850D02*
X53629Y-26330D01*
X53629Y-26330D02*
X48669Y-26330D01*
X38826Y-35188D02*
X38826Y-27708D01*
X38826Y-27708D02*
X43787Y-27708D01*
X43787Y-27708D02*
X43787Y-35188D01*
X43787Y-35188D02*
X38826Y-35188D01*
X42763Y-26330D02*
X42763Y-18850D01*
X42763Y-18850D02*
X47724Y-18850D01*
X47724Y-18850D02*
X47724Y-26330D01*
X47724Y-26330D02*
X42763Y-26330D01*
X28984Y-26330D02*
X28984Y-18850D01*
X28984Y-18850D02*
X33944Y-18850D01*
X33944Y-18850D02*
X33944Y-26330D01*
X33944Y-26330D02*
X28984Y-26330D01*
X34889Y-26330D02*
X34889Y-18850D01*
X34889Y-18850D02*
X39850Y-18850D01*
X39850Y-18850D02*
X39850Y-26330D01*
X39850Y-26330D02*
X34889Y-26330D01*
G54D13*
X46200Y-28100D02*
X46200Y-29000D01*
X46200Y-29000D02*
X46850Y-29000D01*
X47550Y-28100D02*
X48200Y-28100D01*
X48200Y-28100D02*
X48200Y-29000D01*
X48200Y-29000D02*
X47550Y-29000D01*
X46850Y-28100D02*
X46200Y-28100D01*
X28250Y-27800D02*
X28250Y-28700D01*
X28250Y-28700D02*
X28900Y-28700D01*
X29600Y-27800D02*
X30250Y-27800D01*
X30250Y-27800D02*
X30250Y-28700D01*
X30250Y-28700D02*
X29600Y-28700D01*
X28900Y-27800D02*
X28250Y-27800D01*
X31950Y-28400D02*
X31950Y-27500D01*
X31950Y-27500D02*
X32450Y-27500D01*
X32450Y-27500D02*
X32450Y-28400D01*
X32450Y-28400D02*
X31950Y-28400D01*
X44550Y-32100D02*
X45450Y-32100D01*
X45450Y-32100D02*
X45450Y-32600D01*
X45450Y-32600D02*
X44550Y-32600D01*
X44550Y-32600D02*
X44550Y-32100D01*
X36150Y-28450D02*
X36150Y-27550D01*
X36150Y-27550D02*
X36650Y-27550D01*
X36650Y-27550D02*
X36650Y-28450D01*
X36650Y-28450D02*
X36150Y-28450D01*
X47650Y-27550D02*
X46750Y-27550D01*
X46750Y-27550D02*
X46750Y-27050D01*
X46750Y-27050D02*
X47650Y-27050D01*
X47650Y-27050D02*
X47650Y-27550D01*
X48600Y-27400D02*
X49500Y-27400D01*
X49500Y-27400D02*
X49500Y-27900D01*
X49500Y-27900D02*
X48600Y-27900D01*
X48600Y-27900D02*
X48600Y-27400D01*
X36900Y-30550D02*
X37800Y-30550D01*
X37800Y-30550D02*
X37800Y-31050D01*
X37800Y-31050D02*
X36900Y-31050D01*
X36900Y-31050D02*
X36900Y-30550D01*
X28150Y-32150D02*
X29050Y-32150D01*
X29050Y-32150D02*
X29050Y-32650D01*
X29050Y-32650D02*
X28150Y-32650D01*
X28150Y-32650D02*
X28150Y-32150D01*
X34050Y-32000D02*
X34950Y-32000D01*
X34950Y-32000D02*
X34950Y-32500D01*
X34950Y-32500D02*
X34050Y-32500D01*
X34050Y-32500D02*
X34050Y-32000D01*
X52350Y-31900D02*
X53250Y-31900D01*
X53250Y-31900D02*
X53250Y-32400D01*
X53250Y-32400D02*
X52350Y-32400D01*
X52350Y-32400D02*
X52350Y-31900D01*
X51200Y-31350D02*
X52100Y-31350D01*
X52100Y-31350D02*
X52100Y-31850D01*
X52100Y-31850D02*
X51200Y-31850D01*
X51200Y-31850D02*
X51200Y-31350D01*
X52350Y-30950D02*
X53250Y-30950D01*
X53250Y-30950D02*
X53250Y-31450D01*
X53250Y-31450D02*
X52350Y-31450D01*
X52350Y-31450D02*
X52350Y-30950D01*
X51200Y-30450D02*
X52100Y-30450D01*
X52100Y-30450D02*
X52100Y-30950D01*
X52100Y-30950D02*
X51200Y-30950D01*
X51200Y-30950D02*
X51200Y-30450D01*
X52350Y-30000D02*
X53250Y-30000D01*
X53250Y-30000D02*
X53250Y-30500D01*
X53250Y-30500D02*
X52350Y-30500D01*
X52350Y-30500D02*
X52350Y-30000D01*
X51200Y-29500D02*
X52100Y-29500D01*
X52100Y-29500D02*
X52100Y-30000D01*
X52100Y-30000D02*
X51200Y-30000D01*
X51200Y-30000D02*
X51200Y-29500D01*
X52350Y-29000D02*
X53250Y-29000D01*
X53250Y-29000D02*
X53250Y-29500D01*
X53250Y-29500D02*
X52350Y-29500D01*
X52350Y-29500D02*
X52350Y-29000D01*
X51200Y-28500D02*
X52100Y-28500D01*
X52100Y-28500D02*
X52100Y-29000D01*
X52100Y-29000D02*
X51200Y-29000D01*
X51200Y-29000D02*
X51200Y-28500D01*
G54D14*
X26175Y-18800D02*
X27175Y-18800D01*
X27175Y-18800D02*
X27175Y-24800D01*
X27175Y-24800D02*
X26175Y-24800D01*
X26175Y-24800D02*
X26175Y-18800D01*
X26175Y-19800D02*
X27175Y-19800D01*
G54D12*
X55700Y-20363D02*
G75*
G03X55700Y-20363I-62J0D01*
G74*
G01*
X55300Y-19400D02*
X55700Y-19400D01*
X55300Y-20425D02*
X55700Y-20425D01*
X55700Y-19400D02*
X55700Y-20425D01*
X55300Y-20425D02*
X55300Y-19400D01*
G54D15*
X47366Y-30528D02*
X47690Y-30528D01*
X47728Y-30514D01*
X47747Y-30500D01*
X47766Y-30471D01*
X47766Y-30414D01*
X47747Y-30385D01*
X47728Y-30371D01*
X47690Y-30357D01*
X47366Y-30357D01*
X47766Y-30057D02*
X47766Y-30228D01*
X47766Y-30142D02*
X47366Y-30142D01*
X47424Y-30171D01*
X47462Y-30200D01*
X47481Y-30228D01*
X48016Y-31137D02*
X48016Y-30937D01*
X48316Y-31066D01*
X48116Y-30694D02*
X48316Y-30694D01*
X48002Y-30766D02*
X48216Y-30837D01*
X48216Y-30651D01*
X48316Y-30394D02*
X48316Y-30537D01*
X48016Y-30537D01*
X48302Y-30309D02*
X48316Y-30266D01*
X48316Y-30194D01*
X48302Y-30166D01*
X48287Y-30151D01*
X48259Y-30137D01*
X48230Y-30137D01*
X48202Y-30151D01*
X48187Y-30166D01*
X48173Y-30194D01*
X48159Y-30251D01*
X48145Y-30280D01*
X48130Y-30294D01*
X48102Y-30309D01*
X48073Y-30309D01*
X48045Y-30294D01*
X48030Y-30280D01*
X48016Y-30251D01*
X48016Y-30180D01*
X48030Y-30137D01*
X48016Y-29866D02*
X48016Y-30009D01*
X48159Y-30023D01*
X48145Y-30009D01*
X48130Y-29980D01*
X48130Y-29909D01*
X48145Y-29880D01*
X48159Y-29866D01*
X48187Y-29852D01*
X48259Y-29852D01*
X48287Y-29866D01*
X48302Y-29880D01*
X48316Y-29909D01*
X48316Y-29980D01*
X48302Y-30009D01*
X48287Y-30023D01*
X48316Y-29709D02*
X48316Y-29652D01*
X48302Y-29623D01*
X48287Y-29609D01*
X48245Y-29580D01*
X48187Y-29566D01*
X48073Y-29566D01*
X48045Y-29580D01*
X48030Y-29594D01*
X48016Y-29623D01*
X48016Y-29680D01*
X48030Y-29709D01*
X48045Y-29723D01*
X48073Y-29737D01*
X48145Y-29737D01*
X48173Y-29723D01*
X48187Y-29709D01*
X48202Y-29680D01*
X48202Y-29623D01*
X48187Y-29594D01*
X48173Y-29580D01*
X48145Y-29566D01*
X48016Y-29294D02*
X48016Y-29437D01*
X48159Y-29452D01*
X48145Y-29437D01*
X48130Y-29409D01*
X48130Y-29337D01*
X48145Y-29309D01*
X48159Y-29294D01*
X48187Y-29280D01*
X48259Y-29280D01*
X48287Y-29294D01*
X48302Y-29309D01*
X48316Y-29337D01*
X48316Y-29409D01*
X48302Y-29437D01*
X48287Y-29452D01*
X29016Y-30228D02*
X29340Y-30228D01*
X29378Y-30214D01*
X29397Y-30200D01*
X29416Y-30171D01*
X29416Y-30114D01*
X29397Y-30085D01*
X29378Y-30071D01*
X29340Y-30057D01*
X29016Y-30057D01*
X29016Y-29942D02*
X29016Y-29757D01*
X29169Y-29857D01*
X29169Y-29814D01*
X29188Y-29785D01*
X29207Y-29771D01*
X29245Y-29757D01*
X29340Y-29757D01*
X29378Y-29771D01*
X29397Y-29785D01*
X29416Y-29814D01*
X29416Y-29900D01*
X29397Y-29928D01*
X29378Y-29942D01*
X29666Y-30837D02*
X29666Y-30637D01*
X29966Y-30766D01*
X29766Y-30394D02*
X29966Y-30394D01*
X29652Y-30466D02*
X29866Y-30537D01*
X29866Y-30351D01*
X29966Y-30094D02*
X29966Y-30237D01*
X29666Y-30237D01*
X29952Y-30009D02*
X29966Y-29966D01*
X29966Y-29894D01*
X29952Y-29866D01*
X29937Y-29851D01*
X29909Y-29837D01*
X29880Y-29837D01*
X29852Y-29851D01*
X29837Y-29866D01*
X29823Y-29894D01*
X29809Y-29951D01*
X29795Y-29980D01*
X29780Y-29994D01*
X29752Y-30009D01*
X29723Y-30009D01*
X29695Y-29994D01*
X29680Y-29980D01*
X29666Y-29951D01*
X29666Y-29880D01*
X29680Y-29837D01*
X29666Y-29566D02*
X29666Y-29709D01*
X29809Y-29723D01*
X29795Y-29709D01*
X29780Y-29680D01*
X29780Y-29609D01*
X29795Y-29580D01*
X29809Y-29566D01*
X29837Y-29552D01*
X29909Y-29552D01*
X29937Y-29566D01*
X29952Y-29580D01*
X29966Y-29609D01*
X29966Y-29680D01*
X29952Y-29709D01*
X29937Y-29723D01*
X29966Y-29409D02*
X29966Y-29352D01*
X29952Y-29323D01*
X29937Y-29309D01*
X29895Y-29280D01*
X29837Y-29266D01*
X29723Y-29266D01*
X29695Y-29280D01*
X29680Y-29294D01*
X29666Y-29323D01*
X29666Y-29380D01*
X29680Y-29409D01*
X29695Y-29423D01*
X29723Y-29437D01*
X29795Y-29437D01*
X29823Y-29423D01*
X29837Y-29409D01*
X29852Y-29380D01*
X29852Y-29323D01*
X29837Y-29294D01*
X29823Y-29280D01*
X29795Y-29266D01*
X29666Y-28994D02*
X29666Y-29137D01*
X29809Y-29152D01*
X29795Y-29137D01*
X29780Y-29109D01*
X29780Y-29037D01*
X29795Y-29009D01*
X29809Y-28994D01*
X29837Y-28980D01*
X29909Y-28980D01*
X29937Y-28994D01*
X29952Y-29009D01*
X29966Y-29037D01*
X29966Y-29109D01*
X29952Y-29137D01*
X29937Y-29152D01*
G54D16*
X34989Y-26663D02*
X34961Y-26648D01*
X34932Y-26620D01*
X34889Y-26577D01*
X34861Y-26563D01*
X34832Y-26563D01*
X34846Y-26634D02*
X34818Y-26620D01*
X34789Y-26591D01*
X34775Y-26534D01*
X34775Y-26434D01*
X34789Y-26377D01*
X34818Y-26348D01*
X34846Y-26334D01*
X34903Y-26334D01*
X34932Y-26348D01*
X34961Y-26377D01*
X34975Y-26434D01*
X34975Y-26534D01*
X34961Y-26591D01*
X34932Y-26620D01*
X34903Y-26634D01*
X34846Y-26634D01*
X35261Y-26634D02*
X35089Y-26634D01*
X35175Y-26634D02*
X35175Y-26334D01*
X35146Y-26377D01*
X35118Y-26405D01*
X35089Y-26420D01*
X35546Y-26634D02*
X35375Y-26634D01*
X35461Y-26634D02*
X35461Y-26334D01*
X35432Y-26377D01*
X35403Y-26405D01*
X35375Y-26420D01*
G54D17*
X35279Y-28002D02*
X35082Y-28002D01*
X35223Y-27936D01*
X35082Y-27870D01*
X35279Y-27870D01*
X35279Y-27776D02*
X35082Y-27776D01*
X35223Y-27711D01*
X35082Y-27645D01*
X35279Y-27645D01*
X35176Y-27486D02*
X35185Y-27457D01*
X35195Y-27448D01*
X35214Y-27439D01*
X35242Y-27439D01*
X35260Y-27448D01*
X35270Y-27457D01*
X35279Y-27476D01*
X35279Y-27551D01*
X35082Y-27551D01*
X35082Y-27486D01*
X35092Y-27467D01*
X35101Y-27457D01*
X35120Y-27448D01*
X35139Y-27448D01*
X35157Y-27457D01*
X35167Y-27467D01*
X35176Y-27486D01*
X35176Y-27551D01*
X35082Y-27382D02*
X35082Y-27270D01*
X35279Y-27326D02*
X35082Y-27326D01*
X35082Y-27120D02*
X35082Y-27157D01*
X35092Y-27176D01*
X35101Y-27185D01*
X35129Y-27204D01*
X35167Y-27214D01*
X35242Y-27214D01*
X35260Y-27204D01*
X35270Y-27195D01*
X35279Y-27176D01*
X35279Y-27138D01*
X35270Y-27120D01*
X35260Y-27110D01*
X35242Y-27101D01*
X35195Y-27101D01*
X35176Y-27110D01*
X35167Y-27120D01*
X35157Y-27138D01*
X35157Y-27176D01*
X35167Y-27195D01*
X35176Y-27204D01*
X35195Y-27214D01*
X35148Y-26932D02*
X35279Y-26932D01*
X35073Y-26979D02*
X35214Y-27026D01*
X35214Y-26904D01*
X35101Y-26838D02*
X35092Y-26829D01*
X35082Y-26810D01*
X35082Y-26763D01*
X35092Y-26744D01*
X35101Y-26735D01*
X35120Y-26726D01*
X35139Y-26726D01*
X35167Y-26735D01*
X35279Y-26848D01*
X35279Y-26726D01*
X35082Y-26660D02*
X35082Y-26529D01*
X35279Y-26613D01*
G54D16*
X55432Y-20663D02*
X55403Y-20648D01*
X55375Y-20620D01*
X55332Y-20577D01*
X55303Y-20563D01*
X55275Y-20563D01*
X55289Y-20634D02*
X55261Y-20620D01*
X55232Y-20591D01*
X55218Y-20534D01*
X55218Y-20434D01*
X55232Y-20377D01*
X55261Y-20348D01*
X55289Y-20334D01*
X55346Y-20334D01*
X55375Y-20348D01*
X55403Y-20377D01*
X55418Y-20434D01*
X55418Y-20534D01*
X55403Y-20591D01*
X55375Y-20620D01*
X55346Y-20634D01*
X55289Y-20634D01*
X55518Y-20334D02*
X55703Y-20334D01*
X55603Y-20448D01*
X55646Y-20448D01*
X55675Y-20463D01*
X55689Y-20477D01*
X55703Y-20505D01*
X55703Y-20577D01*
X55689Y-20605D01*
X55675Y-20620D01*
X55646Y-20634D01*
X55561Y-20634D01*
X55532Y-20620D01*
X55518Y-20605D01*
G54D17*
X55579Y-22002D02*
X55382Y-22002D01*
X55523Y-21936D01*
X55382Y-21870D01*
X55579Y-21870D01*
X55579Y-21776D02*
X55382Y-21776D01*
X55523Y-21711D01*
X55382Y-21645D01*
X55579Y-21645D01*
X55476Y-21486D02*
X55485Y-21457D01*
X55495Y-21448D01*
X55514Y-21439D01*
X55542Y-21439D01*
X55560Y-21448D01*
X55570Y-21457D01*
X55579Y-21476D01*
X55579Y-21551D01*
X55382Y-21551D01*
X55382Y-21486D01*
X55392Y-21467D01*
X55401Y-21457D01*
X55420Y-21448D01*
X55439Y-21448D01*
X55457Y-21457D01*
X55467Y-21467D01*
X55476Y-21486D01*
X55476Y-21551D01*
X55382Y-21382D02*
X55382Y-21270D01*
X55579Y-21326D02*
X55382Y-21326D01*
X55382Y-21120D02*
X55382Y-21157D01*
X55392Y-21176D01*
X55401Y-21185D01*
X55429Y-21204D01*
X55467Y-21214D01*
X55542Y-21214D01*
X55560Y-21204D01*
X55570Y-21195D01*
X55579Y-21176D01*
X55579Y-21138D01*
X55570Y-21120D01*
X55560Y-21110D01*
X55542Y-21101D01*
X55495Y-21101D01*
X55476Y-21110D01*
X55467Y-21120D01*
X55457Y-21138D01*
X55457Y-21176D01*
X55467Y-21195D01*
X55476Y-21204D01*
X55495Y-21214D01*
X55448Y-20932D02*
X55579Y-20932D01*
X55373Y-20979D02*
X55514Y-21026D01*
X55514Y-20904D01*
X55401Y-20838D02*
X55392Y-20829D01*
X55382Y-20810D01*
X55382Y-20763D01*
X55392Y-20744D01*
X55401Y-20735D01*
X55420Y-20726D01*
X55439Y-20726D01*
X55467Y-20735D01*
X55579Y-20848D01*
X55579Y-20726D01*
X55382Y-20660D02*
X55382Y-20529D01*
X55579Y-20613D01*
G54D16*
X55432Y-22063D02*
X55403Y-22048D01*
X55375Y-22020D01*
X55332Y-21977D01*
X55303Y-21963D01*
X55275Y-21963D01*
X55289Y-22034D02*
X55261Y-22020D01*
X55232Y-21991D01*
X55218Y-21934D01*
X55218Y-21834D01*
X55232Y-21777D01*
X55261Y-21748D01*
X55289Y-21734D01*
X55346Y-21734D01*
X55375Y-21748D01*
X55403Y-21777D01*
X55418Y-21834D01*
X55418Y-21934D01*
X55403Y-21991D01*
X55375Y-22020D01*
X55346Y-22034D01*
X55289Y-22034D01*
X55689Y-21734D02*
X55546Y-21734D01*
X55532Y-21877D01*
X55546Y-21863D01*
X55575Y-21848D01*
X55646Y-21848D01*
X55675Y-21863D01*
X55689Y-21877D01*
X55703Y-21905D01*
X55703Y-21977D01*
X55689Y-22005D01*
X55675Y-22020D01*
X55646Y-22034D01*
X55575Y-22034D01*
X55546Y-22020D01*
X55532Y-22005D01*
G54D17*
X55579Y-23402D02*
X55382Y-23402D01*
X55523Y-23336D01*
X55382Y-23270D01*
X55579Y-23270D01*
X55579Y-23176D02*
X55382Y-23176D01*
X55523Y-23111D01*
X55382Y-23045D01*
X55579Y-23045D01*
X55476Y-22886D02*
X55485Y-22857D01*
X55495Y-22848D01*
X55514Y-22839D01*
X55542Y-22839D01*
X55560Y-22848D01*
X55570Y-22857D01*
X55579Y-22876D01*
X55579Y-22951D01*
X55382Y-22951D01*
X55382Y-22886D01*
X55392Y-22867D01*
X55401Y-22857D01*
X55420Y-22848D01*
X55439Y-22848D01*
X55457Y-22857D01*
X55467Y-22867D01*
X55476Y-22886D01*
X55476Y-22951D01*
X55382Y-22782D02*
X55382Y-22670D01*
X55579Y-22726D02*
X55382Y-22726D01*
X55382Y-22520D02*
X55382Y-22557D01*
X55392Y-22576D01*
X55401Y-22585D01*
X55429Y-22604D01*
X55467Y-22614D01*
X55542Y-22614D01*
X55560Y-22604D01*
X55570Y-22595D01*
X55579Y-22576D01*
X55579Y-22538D01*
X55570Y-22520D01*
X55560Y-22510D01*
X55542Y-22501D01*
X55495Y-22501D01*
X55476Y-22510D01*
X55467Y-22520D01*
X55457Y-22538D01*
X55457Y-22576D01*
X55467Y-22595D01*
X55476Y-22604D01*
X55495Y-22614D01*
X55448Y-22332D02*
X55579Y-22332D01*
X55373Y-22379D02*
X55514Y-22426D01*
X55514Y-22304D01*
X55401Y-22238D02*
X55392Y-22229D01*
X55382Y-22210D01*
X55382Y-22163D01*
X55392Y-22144D01*
X55401Y-22135D01*
X55420Y-22126D01*
X55439Y-22126D01*
X55467Y-22135D01*
X55579Y-22248D01*
X55579Y-22126D01*
X55382Y-22060D02*
X55382Y-21929D01*
X55579Y-22013D01*
G54D16*
X55432Y-23463D02*
X55403Y-23448D01*
X55375Y-23420D01*
X55332Y-23377D01*
X55303Y-23363D01*
X55275Y-23363D01*
X55289Y-23434D02*
X55261Y-23420D01*
X55232Y-23391D01*
X55218Y-23334D01*
X55218Y-23234D01*
X55232Y-23177D01*
X55261Y-23148D01*
X55289Y-23134D01*
X55346Y-23134D01*
X55375Y-23148D01*
X55403Y-23177D01*
X55418Y-23234D01*
X55418Y-23334D01*
X55403Y-23391D01*
X55375Y-23420D01*
X55346Y-23434D01*
X55289Y-23434D01*
X55518Y-23134D02*
X55718Y-23134D01*
X55589Y-23434D01*
G54D17*
X55579Y-24802D02*
X55382Y-24802D01*
X55523Y-24736D01*
X55382Y-24670D01*
X55579Y-24670D01*
X55579Y-24576D02*
X55382Y-24576D01*
X55523Y-24511D01*
X55382Y-24445D01*
X55579Y-24445D01*
X55476Y-24286D02*
X55485Y-24257D01*
X55495Y-24248D01*
X55514Y-24239D01*
X55542Y-24239D01*
X55560Y-24248D01*
X55570Y-24257D01*
X55579Y-24276D01*
X55579Y-24351D01*
X55382Y-24351D01*
X55382Y-24286D01*
X55392Y-24267D01*
X55401Y-24257D01*
X55420Y-24248D01*
X55439Y-24248D01*
X55457Y-24257D01*
X55467Y-24267D01*
X55476Y-24286D01*
X55476Y-24351D01*
X55382Y-24182D02*
X55382Y-24070D01*
X55579Y-24126D02*
X55382Y-24126D01*
X55382Y-23920D02*
X55382Y-23957D01*
X55392Y-23976D01*
X55401Y-23985D01*
X55429Y-24004D01*
X55467Y-24014D01*
X55542Y-24014D01*
X55560Y-24004D01*
X55570Y-23995D01*
X55579Y-23976D01*
X55579Y-23938D01*
X55570Y-23920D01*
X55560Y-23910D01*
X55542Y-23901D01*
X55495Y-23901D01*
X55476Y-23910D01*
X55467Y-23920D01*
X55457Y-23938D01*
X55457Y-23976D01*
X55467Y-23995D01*
X55476Y-24004D01*
X55495Y-24014D01*
X55448Y-23732D02*
X55579Y-23732D01*
X55373Y-23779D02*
X55514Y-23826D01*
X55514Y-23704D01*
X55401Y-23638D02*
X55392Y-23629D01*
X55382Y-23610D01*
X55382Y-23563D01*
X55392Y-23544D01*
X55401Y-23535D01*
X55420Y-23526D01*
X55439Y-23526D01*
X55467Y-23535D01*
X55579Y-23648D01*
X55579Y-23526D01*
X55382Y-23460D02*
X55382Y-23329D01*
X55579Y-23413D01*
G54D16*
X54260Y-33687D02*
X54231Y-33672D01*
X54203Y-33644D01*
X54160Y-33601D01*
X54131Y-33587D01*
X54103Y-33587D01*
X54117Y-33658D02*
X54089Y-33644D01*
X54060Y-33615D01*
X54046Y-33558D01*
X54046Y-33458D01*
X54060Y-33401D01*
X54089Y-33372D01*
X54117Y-33358D01*
X54174Y-33358D01*
X54203Y-33372D01*
X54231Y-33401D01*
X54246Y-33458D01*
X54246Y-33558D01*
X54231Y-33615D01*
X54203Y-33644D01*
X54174Y-33658D01*
X54117Y-33658D01*
X54360Y-33387D02*
X54374Y-33372D01*
X54403Y-33358D01*
X54474Y-33358D01*
X54503Y-33372D01*
X54517Y-33387D01*
X54531Y-33415D01*
X54531Y-33444D01*
X54517Y-33487D01*
X54346Y-33658D01*
X54531Y-33658D01*
G54D17*
X54329Y-33502D02*
X54132Y-33502D01*
X54273Y-33436D01*
X54132Y-33370D01*
X54329Y-33370D01*
X54329Y-33276D02*
X54132Y-33276D01*
X54273Y-33211D01*
X54132Y-33145D01*
X54329Y-33145D01*
X54226Y-32986D02*
X54235Y-32957D01*
X54245Y-32948D01*
X54264Y-32939D01*
X54292Y-32939D01*
X54310Y-32948D01*
X54320Y-32957D01*
X54329Y-32976D01*
X54329Y-33051D01*
X54132Y-33051D01*
X54132Y-32986D01*
X54142Y-32967D01*
X54151Y-32957D01*
X54170Y-32948D01*
X54189Y-32948D01*
X54207Y-32957D01*
X54217Y-32967D01*
X54226Y-32986D01*
X54226Y-33051D01*
X54132Y-32882D02*
X54132Y-32770D01*
X54329Y-32826D02*
X54132Y-32826D01*
X54132Y-32620D02*
X54132Y-32657D01*
X54142Y-32676D01*
X54151Y-32685D01*
X54179Y-32704D01*
X54217Y-32714D01*
X54292Y-32714D01*
X54310Y-32704D01*
X54320Y-32695D01*
X54329Y-32676D01*
X54329Y-32638D01*
X54320Y-32620D01*
X54310Y-32610D01*
X54292Y-32601D01*
X54245Y-32601D01*
X54226Y-32610D01*
X54217Y-32620D01*
X54207Y-32638D01*
X54207Y-32676D01*
X54217Y-32695D01*
X54226Y-32704D01*
X54245Y-32714D01*
X54198Y-32432D02*
X54329Y-32432D01*
X54123Y-32479D02*
X54264Y-32526D01*
X54264Y-32404D01*
X54151Y-32338D02*
X54142Y-32329D01*
X54132Y-32310D01*
X54132Y-32263D01*
X54142Y-32244D01*
X54151Y-32235D01*
X54170Y-32226D01*
X54189Y-32226D01*
X54217Y-32235D01*
X54329Y-32348D01*
X54329Y-32226D01*
X54132Y-32160D02*
X54132Y-32029D01*
X54329Y-32113D01*
G54D16*
X55432Y-27763D02*
X55403Y-27748D01*
X55375Y-27720D01*
X55332Y-27677D01*
X55303Y-27663D01*
X55275Y-27663D01*
X55289Y-27734D02*
X55261Y-27720D01*
X55232Y-27691D01*
X55218Y-27634D01*
X55218Y-27534D01*
X55232Y-27477D01*
X55261Y-27448D01*
X55289Y-27434D01*
X55346Y-27434D01*
X55375Y-27448D01*
X55403Y-27477D01*
X55418Y-27534D01*
X55418Y-27634D01*
X55403Y-27691D01*
X55375Y-27720D01*
X55346Y-27734D01*
X55289Y-27734D01*
X55675Y-27534D02*
X55675Y-27734D01*
X55603Y-27420D02*
X55532Y-27634D01*
X55718Y-27634D01*
G54D17*
X54772Y-28454D02*
X54772Y-28257D01*
X54838Y-28398D01*
X54904Y-28257D01*
X54904Y-28454D01*
X54998Y-28454D02*
X54998Y-28257D01*
X55063Y-28398D01*
X55129Y-28257D01*
X55129Y-28454D01*
X55288Y-28351D02*
X55317Y-28360D01*
X55326Y-28370D01*
X55335Y-28389D01*
X55335Y-28417D01*
X55326Y-28435D01*
X55317Y-28445D01*
X55298Y-28454D01*
X55223Y-28454D01*
X55223Y-28257D01*
X55288Y-28257D01*
X55307Y-28267D01*
X55317Y-28276D01*
X55326Y-28295D01*
X55326Y-28314D01*
X55317Y-28332D01*
X55307Y-28342D01*
X55288Y-28351D01*
X55223Y-28351D01*
X55392Y-28257D02*
X55504Y-28257D01*
X55448Y-28454D02*
X55448Y-28257D01*
X55654Y-28257D02*
X55617Y-28257D01*
X55598Y-28267D01*
X55589Y-28276D01*
X55570Y-28304D01*
X55560Y-28342D01*
X55560Y-28417D01*
X55570Y-28435D01*
X55579Y-28445D01*
X55598Y-28454D01*
X55636Y-28454D01*
X55654Y-28445D01*
X55664Y-28435D01*
X55673Y-28417D01*
X55673Y-28370D01*
X55664Y-28351D01*
X55654Y-28342D01*
X55636Y-28332D01*
X55598Y-28332D01*
X55579Y-28342D01*
X55570Y-28351D01*
X55560Y-28370D01*
X55842Y-28323D02*
X55842Y-28454D01*
X55795Y-28248D02*
X55748Y-28389D01*
X55870Y-28389D01*
X55936Y-28276D02*
X55945Y-28267D01*
X55964Y-28257D01*
X56011Y-28257D01*
X56030Y-28267D01*
X56039Y-28276D01*
X56048Y-28295D01*
X56048Y-28314D01*
X56039Y-28342D01*
X55926Y-28454D01*
X56048Y-28454D01*
X56114Y-28257D02*
X56245Y-28257D01*
X56161Y-28454D01*
G54D16*
X55432Y-26363D02*
X55403Y-26348D01*
X55375Y-26320D01*
X55332Y-26277D01*
X55303Y-26263D01*
X55275Y-26263D01*
X55289Y-26334D02*
X55261Y-26320D01*
X55232Y-26291D01*
X55218Y-26234D01*
X55218Y-26134D01*
X55232Y-26077D01*
X55261Y-26048D01*
X55289Y-26034D01*
X55346Y-26034D01*
X55375Y-26048D01*
X55403Y-26077D01*
X55418Y-26134D01*
X55418Y-26234D01*
X55403Y-26291D01*
X55375Y-26320D01*
X55346Y-26334D01*
X55289Y-26334D01*
X55675Y-26034D02*
X55618Y-26034D01*
X55589Y-26048D01*
X55575Y-26063D01*
X55546Y-26105D01*
X55532Y-26163D01*
X55532Y-26277D01*
X55546Y-26305D01*
X55561Y-26320D01*
X55589Y-26334D01*
X55646Y-26334D01*
X55675Y-26320D01*
X55689Y-26305D01*
X55703Y-26277D01*
X55703Y-26205D01*
X55689Y-26177D01*
X55675Y-26163D01*
X55646Y-26148D01*
X55589Y-26148D01*
X55561Y-26163D01*
X55546Y-26177D01*
X55532Y-26205D01*
G54D17*
X55579Y-27702D02*
X55382Y-27702D01*
X55523Y-27636D01*
X55382Y-27570D01*
X55579Y-27570D01*
X55579Y-27476D02*
X55382Y-27476D01*
X55523Y-27411D01*
X55382Y-27345D01*
X55579Y-27345D01*
X55476Y-27186D02*
X55485Y-27157D01*
X55495Y-27148D01*
X55514Y-27139D01*
X55542Y-27139D01*
X55560Y-27148D01*
X55570Y-27157D01*
X55579Y-27176D01*
X55579Y-27251D01*
X55382Y-27251D01*
X55382Y-27186D01*
X55392Y-27167D01*
X55401Y-27157D01*
X55420Y-27148D01*
X55439Y-27148D01*
X55457Y-27157D01*
X55467Y-27167D01*
X55476Y-27186D01*
X55476Y-27251D01*
X55382Y-27082D02*
X55382Y-26970D01*
X55579Y-27026D02*
X55382Y-27026D01*
X55382Y-26820D02*
X55382Y-26857D01*
X55392Y-26876D01*
X55401Y-26885D01*
X55429Y-26904D01*
X55467Y-26914D01*
X55542Y-26914D01*
X55560Y-26904D01*
X55570Y-26895D01*
X55579Y-26876D01*
X55579Y-26838D01*
X55570Y-26820D01*
X55560Y-26810D01*
X55542Y-26801D01*
X55495Y-26801D01*
X55476Y-26810D01*
X55467Y-26820D01*
X55457Y-26838D01*
X55457Y-26876D01*
X55467Y-26895D01*
X55476Y-26904D01*
X55495Y-26914D01*
X55448Y-26632D02*
X55579Y-26632D01*
X55373Y-26679D02*
X55514Y-26726D01*
X55514Y-26604D01*
X55401Y-26538D02*
X55392Y-26529D01*
X55382Y-26510D01*
X55382Y-26463D01*
X55392Y-26444D01*
X55401Y-26435D01*
X55420Y-26426D01*
X55439Y-26426D01*
X55467Y-26435D01*
X55579Y-26548D01*
X55579Y-26426D01*
X55382Y-26360D02*
X55382Y-26229D01*
X55579Y-26313D01*
G54D16*
X55432Y-24913D02*
X55403Y-24898D01*
X55375Y-24870D01*
X55332Y-24827D01*
X55303Y-24813D01*
X55275Y-24813D01*
X55289Y-24884D02*
X55261Y-24870D01*
X55232Y-24841D01*
X55218Y-24784D01*
X55218Y-24684D01*
X55232Y-24627D01*
X55261Y-24598D01*
X55289Y-24584D01*
X55346Y-24584D01*
X55375Y-24598D01*
X55403Y-24627D01*
X55418Y-24684D01*
X55418Y-24784D01*
X55403Y-24841D01*
X55375Y-24870D01*
X55346Y-24884D01*
X55289Y-24884D01*
X55589Y-24713D02*
X55561Y-24698D01*
X55546Y-24684D01*
X55532Y-24655D01*
X55532Y-24641D01*
X55546Y-24613D01*
X55561Y-24598D01*
X55589Y-24584D01*
X55646Y-24584D01*
X55675Y-24598D01*
X55689Y-24613D01*
X55703Y-24641D01*
X55703Y-24655D01*
X55689Y-24684D01*
X55675Y-24698D01*
X55646Y-24713D01*
X55589Y-24713D01*
X55561Y-24727D01*
X55546Y-24741D01*
X55532Y-24770D01*
X55532Y-24827D01*
X55546Y-24855D01*
X55561Y-24870D01*
X55589Y-24884D01*
X55646Y-24884D01*
X55675Y-24870D01*
X55689Y-24855D01*
X55703Y-24827D01*
X55703Y-24770D01*
X55689Y-24741D01*
X55675Y-24727D01*
X55646Y-24713D01*
G54D17*
X55579Y-26252D02*
X55382Y-26252D01*
X55523Y-26186D01*
X55382Y-26120D01*
X55579Y-26120D01*
X55579Y-26026D02*
X55382Y-26026D01*
X55523Y-25961D01*
X55382Y-25895D01*
X55579Y-25895D01*
X55476Y-25736D02*
X55485Y-25707D01*
X55495Y-25698D01*
X55514Y-25689D01*
X55542Y-25689D01*
X55560Y-25698D01*
X55570Y-25707D01*
X55579Y-25726D01*
X55579Y-25801D01*
X55382Y-25801D01*
X55382Y-25736D01*
X55392Y-25717D01*
X55401Y-25707D01*
X55420Y-25698D01*
X55439Y-25698D01*
X55457Y-25707D01*
X55467Y-25717D01*
X55476Y-25736D01*
X55476Y-25801D01*
X55382Y-25632D02*
X55382Y-25520D01*
X55579Y-25576D02*
X55382Y-25576D01*
X55382Y-25370D02*
X55382Y-25407D01*
X55392Y-25426D01*
X55401Y-25435D01*
X55429Y-25454D01*
X55467Y-25464D01*
X55542Y-25464D01*
X55560Y-25454D01*
X55570Y-25445D01*
X55579Y-25426D01*
X55579Y-25388D01*
X55570Y-25370D01*
X55560Y-25360D01*
X55542Y-25351D01*
X55495Y-25351D01*
X55476Y-25360D01*
X55467Y-25370D01*
X55457Y-25388D01*
X55457Y-25426D01*
X55467Y-25445D01*
X55476Y-25454D01*
X55495Y-25464D01*
X55448Y-25182D02*
X55579Y-25182D01*
X55373Y-25229D02*
X55514Y-25276D01*
X55514Y-25154D01*
X55401Y-25088D02*
X55392Y-25079D01*
X55382Y-25060D01*
X55382Y-25013D01*
X55392Y-24994D01*
X55401Y-24985D01*
X55420Y-24976D01*
X55439Y-24976D01*
X55467Y-24985D01*
X55579Y-25098D01*
X55579Y-24976D01*
X55382Y-24910D02*
X55382Y-24779D01*
X55579Y-24863D01*
G54D16*
X30932Y-26663D02*
X30903Y-26648D01*
X30875Y-26620D01*
X30832Y-26577D01*
X30803Y-26563D01*
X30775Y-26563D01*
X30789Y-26634D02*
X30761Y-26620D01*
X30732Y-26591D01*
X30718Y-26534D01*
X30718Y-26434D01*
X30732Y-26377D01*
X30761Y-26348D01*
X30789Y-26334D01*
X30846Y-26334D01*
X30875Y-26348D01*
X30903Y-26377D01*
X30918Y-26434D01*
X30918Y-26534D01*
X30903Y-26591D01*
X30875Y-26620D01*
X30846Y-26634D01*
X30789Y-26634D01*
X31061Y-26634D02*
X31118Y-26634D01*
X31146Y-26620D01*
X31161Y-26605D01*
X31189Y-26563D01*
X31203Y-26505D01*
X31203Y-26391D01*
X31189Y-26363D01*
X31175Y-26348D01*
X31146Y-26334D01*
X31089Y-26334D01*
X31061Y-26348D01*
X31046Y-26363D01*
X31032Y-26391D01*
X31032Y-26463D01*
X31046Y-26491D01*
X31061Y-26505D01*
X31089Y-26520D01*
X31146Y-26520D01*
X31175Y-26505D01*
X31189Y-26491D01*
X31203Y-26463D01*
G54D17*
X31079Y-28002D02*
X30882Y-28002D01*
X31023Y-27936D01*
X30882Y-27870D01*
X31079Y-27870D01*
X31079Y-27776D02*
X30882Y-27776D01*
X31023Y-27711D01*
X30882Y-27645D01*
X31079Y-27645D01*
X30976Y-27486D02*
X30985Y-27457D01*
X30995Y-27448D01*
X31014Y-27439D01*
X31042Y-27439D01*
X31060Y-27448D01*
X31070Y-27457D01*
X31079Y-27476D01*
X31079Y-27551D01*
X30882Y-27551D01*
X30882Y-27486D01*
X30892Y-27467D01*
X30901Y-27457D01*
X30920Y-27448D01*
X30939Y-27448D01*
X30957Y-27457D01*
X30967Y-27467D01*
X30976Y-27486D01*
X30976Y-27551D01*
X30882Y-27382D02*
X30882Y-27270D01*
X31079Y-27326D02*
X30882Y-27326D01*
X30882Y-27120D02*
X30882Y-27157D01*
X30892Y-27176D01*
X30901Y-27185D01*
X30929Y-27204D01*
X30967Y-27214D01*
X31042Y-27214D01*
X31060Y-27204D01*
X31070Y-27195D01*
X31079Y-27176D01*
X31079Y-27138D01*
X31070Y-27120D01*
X31060Y-27110D01*
X31042Y-27101D01*
X30995Y-27101D01*
X30976Y-27110D01*
X30967Y-27120D01*
X30957Y-27138D01*
X30957Y-27176D01*
X30967Y-27195D01*
X30976Y-27204D01*
X30995Y-27214D01*
X30948Y-26932D02*
X31079Y-26932D01*
X30873Y-26979D02*
X31014Y-27026D01*
X31014Y-26904D01*
X30901Y-26838D02*
X30892Y-26829D01*
X30882Y-26810D01*
X30882Y-26763D01*
X30892Y-26744D01*
X30901Y-26735D01*
X30920Y-26726D01*
X30939Y-26726D01*
X30967Y-26735D01*
X31079Y-26848D01*
X31079Y-26726D01*
X30882Y-26660D02*
X30882Y-26529D01*
X31079Y-26613D01*
G54D16*
X45139Y-26713D02*
X45111Y-26698D01*
X45082Y-26670D01*
X45039Y-26627D01*
X45011Y-26613D01*
X44982Y-26613D01*
X44996Y-26684D02*
X44968Y-26670D01*
X44939Y-26641D01*
X44925Y-26584D01*
X44925Y-26484D01*
X44939Y-26427D01*
X44968Y-26398D01*
X44996Y-26384D01*
X45053Y-26384D01*
X45082Y-26398D01*
X45111Y-26427D01*
X45125Y-26484D01*
X45125Y-26584D01*
X45111Y-26641D01*
X45082Y-26670D01*
X45053Y-26684D01*
X44996Y-26684D01*
X45411Y-26684D02*
X45239Y-26684D01*
X45325Y-26684D02*
X45325Y-26384D01*
X45296Y-26427D01*
X45268Y-26455D01*
X45239Y-26470D01*
X45511Y-26384D02*
X45696Y-26384D01*
X45596Y-26498D01*
X45639Y-26498D01*
X45668Y-26513D01*
X45682Y-26527D01*
X45696Y-26555D01*
X45696Y-26627D01*
X45682Y-26655D01*
X45668Y-26670D01*
X45639Y-26684D01*
X45553Y-26684D01*
X45525Y-26670D01*
X45511Y-26655D01*
G54D17*
X45429Y-28052D02*
X45232Y-28052D01*
X45373Y-27986D01*
X45232Y-27920D01*
X45429Y-27920D01*
X45429Y-27826D02*
X45232Y-27826D01*
X45373Y-27761D01*
X45232Y-27695D01*
X45429Y-27695D01*
X45326Y-27536D02*
X45335Y-27507D01*
X45345Y-27498D01*
X45364Y-27489D01*
X45392Y-27489D01*
X45410Y-27498D01*
X45420Y-27507D01*
X45429Y-27526D01*
X45429Y-27601D01*
X45232Y-27601D01*
X45232Y-27536D01*
X45242Y-27517D01*
X45251Y-27507D01*
X45270Y-27498D01*
X45289Y-27498D01*
X45307Y-27507D01*
X45317Y-27517D01*
X45326Y-27536D01*
X45326Y-27601D01*
X45232Y-27432D02*
X45232Y-27320D01*
X45429Y-27376D02*
X45232Y-27376D01*
X45232Y-27170D02*
X45232Y-27207D01*
X45242Y-27226D01*
X45251Y-27235D01*
X45279Y-27254D01*
X45317Y-27264D01*
X45392Y-27264D01*
X45410Y-27254D01*
X45420Y-27245D01*
X45429Y-27226D01*
X45429Y-27188D01*
X45420Y-27170D01*
X45410Y-27160D01*
X45392Y-27151D01*
X45345Y-27151D01*
X45326Y-27160D01*
X45317Y-27170D01*
X45307Y-27188D01*
X45307Y-27226D01*
X45317Y-27245D01*
X45326Y-27254D01*
X45345Y-27264D01*
X45298Y-26982D02*
X45429Y-26982D01*
X45223Y-27029D02*
X45364Y-27076D01*
X45364Y-26954D01*
X45251Y-26888D02*
X45242Y-26879D01*
X45232Y-26860D01*
X45232Y-26813D01*
X45242Y-26794D01*
X45251Y-26785D01*
X45270Y-26776D01*
X45289Y-26776D01*
X45317Y-26785D01*
X45429Y-26898D01*
X45429Y-26776D01*
X45232Y-26710D02*
X45232Y-26579D01*
X45429Y-26663D01*
G54D16*
X50489Y-26663D02*
X50461Y-26648D01*
X50432Y-26620D01*
X50389Y-26577D01*
X50361Y-26563D01*
X50332Y-26563D01*
X50346Y-26634D02*
X50318Y-26620D01*
X50289Y-26591D01*
X50275Y-26534D01*
X50275Y-26434D01*
X50289Y-26377D01*
X50318Y-26348D01*
X50346Y-26334D01*
X50403Y-26334D01*
X50432Y-26348D01*
X50461Y-26377D01*
X50475Y-26434D01*
X50475Y-26534D01*
X50461Y-26591D01*
X50432Y-26620D01*
X50403Y-26634D01*
X50346Y-26634D01*
X50761Y-26634D02*
X50589Y-26634D01*
X50675Y-26634D02*
X50675Y-26334D01*
X50646Y-26377D01*
X50618Y-26405D01*
X50589Y-26420D01*
X51032Y-26334D02*
X50889Y-26334D01*
X50875Y-26477D01*
X50889Y-26463D01*
X50918Y-26448D01*
X50989Y-26448D01*
X51018Y-26463D01*
X51032Y-26477D01*
X51046Y-26505D01*
X51046Y-26577D01*
X51032Y-26605D01*
X51018Y-26620D01*
X50989Y-26634D01*
X50918Y-26634D01*
X50889Y-26620D01*
X50875Y-26605D01*
G54D17*
X50779Y-28002D02*
X50582Y-28002D01*
X50723Y-27936D01*
X50582Y-27870D01*
X50779Y-27870D01*
X50779Y-27776D02*
X50582Y-27776D01*
X50723Y-27711D01*
X50582Y-27645D01*
X50779Y-27645D01*
X50676Y-27486D02*
X50685Y-27457D01*
X50695Y-27448D01*
X50714Y-27439D01*
X50742Y-27439D01*
X50760Y-27448D01*
X50770Y-27457D01*
X50779Y-27476D01*
X50779Y-27551D01*
X50582Y-27551D01*
X50582Y-27486D01*
X50592Y-27467D01*
X50601Y-27457D01*
X50620Y-27448D01*
X50639Y-27448D01*
X50657Y-27457D01*
X50667Y-27467D01*
X50676Y-27486D01*
X50676Y-27551D01*
X50582Y-27382D02*
X50582Y-27270D01*
X50779Y-27326D02*
X50582Y-27326D01*
X50582Y-27120D02*
X50582Y-27157D01*
X50592Y-27176D01*
X50601Y-27185D01*
X50629Y-27204D01*
X50667Y-27214D01*
X50742Y-27214D01*
X50760Y-27204D01*
X50770Y-27195D01*
X50779Y-27176D01*
X50779Y-27138D01*
X50770Y-27120D01*
X50760Y-27110D01*
X50742Y-27101D01*
X50695Y-27101D01*
X50676Y-27110D01*
X50667Y-27120D01*
X50657Y-27138D01*
X50657Y-27176D01*
X50667Y-27195D01*
X50676Y-27204D01*
X50695Y-27214D01*
X50648Y-26932D02*
X50779Y-26932D01*
X50573Y-26979D02*
X50714Y-27026D01*
X50714Y-26904D01*
X50601Y-26838D02*
X50592Y-26829D01*
X50582Y-26810D01*
X50582Y-26763D01*
X50592Y-26744D01*
X50601Y-26735D01*
X50620Y-26726D01*
X50639Y-26726D01*
X50667Y-26735D01*
X50779Y-26848D01*
X50779Y-26726D01*
X50582Y-26660D02*
X50582Y-26529D01*
X50779Y-26613D01*
G54D16*
X46217Y-33687D02*
X46189Y-33672D01*
X46160Y-33644D01*
X46117Y-33601D01*
X46089Y-33587D01*
X46060Y-33587D01*
X46074Y-33658D02*
X46046Y-33644D01*
X46017Y-33615D01*
X46003Y-33558D01*
X46003Y-33458D01*
X46017Y-33401D01*
X46046Y-33372D01*
X46074Y-33358D01*
X46131Y-33358D01*
X46160Y-33372D01*
X46189Y-33401D01*
X46203Y-33458D01*
X46203Y-33558D01*
X46189Y-33615D01*
X46160Y-33644D01*
X46131Y-33658D01*
X46074Y-33658D01*
X46489Y-33658D02*
X46317Y-33658D01*
X46403Y-33658D02*
X46403Y-33358D01*
X46374Y-33401D01*
X46346Y-33429D01*
X46317Y-33444D01*
X46674Y-33358D02*
X46703Y-33358D01*
X46731Y-33372D01*
X46746Y-33387D01*
X46760Y-33415D01*
X46774Y-33472D01*
X46774Y-33544D01*
X46760Y-33601D01*
X46746Y-33629D01*
X46731Y-33644D01*
X46703Y-33658D01*
X46674Y-33658D01*
X46646Y-33644D01*
X46631Y-33629D01*
X46617Y-33601D01*
X46603Y-33544D01*
X46603Y-33472D01*
X46617Y-33415D01*
X46631Y-33387D01*
X46646Y-33372D01*
X46674Y-33358D01*
G54D17*
X46429Y-33502D02*
X46232Y-33502D01*
X46373Y-33436D01*
X46232Y-33370D01*
X46429Y-33370D01*
X46429Y-33276D02*
X46232Y-33276D01*
X46373Y-33211D01*
X46232Y-33145D01*
X46429Y-33145D01*
X46326Y-32986D02*
X46335Y-32957D01*
X46345Y-32948D01*
X46364Y-32939D01*
X46392Y-32939D01*
X46410Y-32948D01*
X46420Y-32957D01*
X46429Y-32976D01*
X46429Y-33051D01*
X46232Y-33051D01*
X46232Y-32986D01*
X46242Y-32967D01*
X46251Y-32957D01*
X46270Y-32948D01*
X46289Y-32948D01*
X46307Y-32957D01*
X46317Y-32967D01*
X46326Y-32986D01*
X46326Y-33051D01*
X46232Y-32882D02*
X46232Y-32770D01*
X46429Y-32826D02*
X46232Y-32826D01*
X46232Y-32620D02*
X46232Y-32657D01*
X46242Y-32676D01*
X46251Y-32685D01*
X46279Y-32704D01*
X46317Y-32714D01*
X46392Y-32714D01*
X46410Y-32704D01*
X46420Y-32695D01*
X46429Y-32676D01*
X46429Y-32638D01*
X46420Y-32620D01*
X46410Y-32610D01*
X46392Y-32601D01*
X46345Y-32601D01*
X46326Y-32610D01*
X46317Y-32620D01*
X46307Y-32638D01*
X46307Y-32676D01*
X46317Y-32695D01*
X46326Y-32704D01*
X46345Y-32714D01*
X46298Y-32432D02*
X46429Y-32432D01*
X46223Y-32479D02*
X46364Y-32526D01*
X46364Y-32404D01*
X46251Y-32338D02*
X46242Y-32329D01*
X46232Y-32310D01*
X46232Y-32263D01*
X46242Y-32244D01*
X46251Y-32235D01*
X46270Y-32226D01*
X46289Y-32226D01*
X46317Y-32235D01*
X46429Y-32348D01*
X46429Y-32226D01*
X46232Y-32160D02*
X46232Y-32029D01*
X46429Y-32113D01*
G54D16*
X35717Y-33637D02*
X35689Y-33622D01*
X35660Y-33594D01*
X35617Y-33551D01*
X35589Y-33537D01*
X35560Y-33537D01*
X35574Y-33608D02*
X35546Y-33594D01*
X35517Y-33565D01*
X35503Y-33508D01*
X35503Y-33408D01*
X35517Y-33351D01*
X35546Y-33322D01*
X35574Y-33308D01*
X35631Y-33308D01*
X35660Y-33322D01*
X35689Y-33351D01*
X35703Y-33408D01*
X35703Y-33508D01*
X35689Y-33565D01*
X35660Y-33594D01*
X35631Y-33608D01*
X35574Y-33608D01*
X35989Y-33608D02*
X35817Y-33608D01*
X35903Y-33608D02*
X35903Y-33308D01*
X35874Y-33351D01*
X35846Y-33379D01*
X35817Y-33394D01*
X36103Y-33337D02*
X36117Y-33322D01*
X36146Y-33308D01*
X36217Y-33308D01*
X36246Y-33322D01*
X36260Y-33337D01*
X36274Y-33365D01*
X36274Y-33394D01*
X36260Y-33437D01*
X36089Y-33608D01*
X36274Y-33608D01*
G54D17*
X35929Y-33452D02*
X35732Y-33452D01*
X35873Y-33386D01*
X35732Y-33320D01*
X35929Y-33320D01*
X35929Y-33226D02*
X35732Y-33226D01*
X35873Y-33161D01*
X35732Y-33095D01*
X35929Y-33095D01*
X35826Y-32936D02*
X35835Y-32907D01*
X35845Y-32898D01*
X35864Y-32889D01*
X35892Y-32889D01*
X35910Y-32898D01*
X35920Y-32907D01*
X35929Y-32926D01*
X35929Y-33001D01*
X35732Y-33001D01*
X35732Y-32936D01*
X35742Y-32917D01*
X35751Y-32907D01*
X35770Y-32898D01*
X35789Y-32898D01*
X35807Y-32907D01*
X35817Y-32917D01*
X35826Y-32936D01*
X35826Y-33001D01*
X35732Y-32832D02*
X35732Y-32720D01*
X35929Y-32776D02*
X35732Y-32776D01*
X35732Y-32570D02*
X35732Y-32607D01*
X35742Y-32626D01*
X35751Y-32635D01*
X35779Y-32654D01*
X35817Y-32664D01*
X35892Y-32664D01*
X35910Y-32654D01*
X35920Y-32645D01*
X35929Y-32626D01*
X35929Y-32588D01*
X35920Y-32570D01*
X35910Y-32560D01*
X35892Y-32551D01*
X35845Y-32551D01*
X35826Y-32560D01*
X35817Y-32570D01*
X35807Y-32588D01*
X35807Y-32626D01*
X35817Y-32645D01*
X35826Y-32654D01*
X35845Y-32664D01*
X35798Y-32382D02*
X35929Y-32382D01*
X35723Y-32429D02*
X35864Y-32476D01*
X35864Y-32354D01*
X35751Y-32288D02*
X35742Y-32279D01*
X35732Y-32260D01*
X35732Y-32213D01*
X35742Y-32194D01*
X35751Y-32185D01*
X35770Y-32176D01*
X35789Y-32176D01*
X35817Y-32185D01*
X35929Y-32298D01*
X35929Y-32176D01*
X35732Y-32110D02*
X35732Y-31979D01*
X35929Y-32063D01*
G54D16*
X29817Y-33637D02*
X29789Y-33622D01*
X29760Y-33594D01*
X29717Y-33551D01*
X29689Y-33537D01*
X29660Y-33537D01*
X29674Y-33608D02*
X29646Y-33594D01*
X29617Y-33565D01*
X29603Y-33508D01*
X29603Y-33408D01*
X29617Y-33351D01*
X29646Y-33322D01*
X29674Y-33308D01*
X29731Y-33308D01*
X29760Y-33322D01*
X29789Y-33351D01*
X29803Y-33408D01*
X29803Y-33508D01*
X29789Y-33565D01*
X29760Y-33594D01*
X29731Y-33608D01*
X29674Y-33608D01*
X30089Y-33608D02*
X29917Y-33608D01*
X30003Y-33608D02*
X30003Y-33308D01*
X29974Y-33351D01*
X29946Y-33379D01*
X29917Y-33394D01*
X30346Y-33408D02*
X30346Y-33608D01*
X30274Y-33294D02*
X30203Y-33508D01*
X30389Y-33508D01*
G54D17*
X30029Y-33452D02*
X29832Y-33452D01*
X29973Y-33386D01*
X29832Y-33320D01*
X30029Y-33320D01*
X30029Y-33226D02*
X29832Y-33226D01*
X29973Y-33161D01*
X29832Y-33095D01*
X30029Y-33095D01*
X29926Y-32936D02*
X29935Y-32907D01*
X29945Y-32898D01*
X29964Y-32889D01*
X29992Y-32889D01*
X30010Y-32898D01*
X30020Y-32907D01*
X30029Y-32926D01*
X30029Y-33001D01*
X29832Y-33001D01*
X29832Y-32936D01*
X29842Y-32917D01*
X29851Y-32907D01*
X29870Y-32898D01*
X29889Y-32898D01*
X29907Y-32907D01*
X29917Y-32917D01*
X29926Y-32936D01*
X29926Y-33001D01*
X29832Y-32832D02*
X29832Y-32720D01*
X30029Y-32776D02*
X29832Y-32776D01*
X29832Y-32570D02*
X29832Y-32607D01*
X29842Y-32626D01*
X29851Y-32635D01*
X29879Y-32654D01*
X29917Y-32664D01*
X29992Y-32664D01*
X30010Y-32654D01*
X30020Y-32645D01*
X30029Y-32626D01*
X30029Y-32588D01*
X30020Y-32570D01*
X30010Y-32560D01*
X29992Y-32551D01*
X29945Y-32551D01*
X29926Y-32560D01*
X29917Y-32570D01*
X29907Y-32588D01*
X29907Y-32626D01*
X29917Y-32645D01*
X29926Y-32654D01*
X29945Y-32664D01*
X29898Y-32382D02*
X30029Y-32382D01*
X29823Y-32429D02*
X29964Y-32476D01*
X29964Y-32354D01*
X29851Y-32288D02*
X29842Y-32279D01*
X29832Y-32260D01*
X29832Y-32213D01*
X29842Y-32194D01*
X29851Y-32185D01*
X29870Y-32176D01*
X29889Y-32176D01*
X29917Y-32185D01*
X30029Y-32298D01*
X30029Y-32176D01*
X29832Y-32110D02*
X29832Y-31979D01*
X30029Y-32063D01*
G54D10*
X32530Y-41149D02*
X32718Y-41149D01*
X32493Y-41261D02*
X32624Y-40868D01*
X32755Y-41261D01*
X33018Y-41055D02*
X32887Y-41055D01*
X32887Y-41261D02*
X32887Y-40868D01*
X33074Y-40868D01*
X33355Y-41055D02*
X33224Y-41055D01*
X33224Y-41261D02*
X33224Y-40868D01*
X33412Y-40868D01*
X33524Y-40868D02*
X33768Y-40868D01*
X33637Y-41017D01*
X33693Y-41017D01*
X33730Y-41036D01*
X33749Y-41055D01*
X33768Y-41092D01*
X33768Y-41186D01*
X33749Y-41224D01*
X33730Y-41242D01*
X33693Y-41261D01*
X33580Y-41261D01*
X33543Y-41242D01*
X33524Y-41224D01*
X33674Y-40868D02*
X33937Y-40868D01*
X33768Y-41261D01*
X34068Y-41242D02*
X34124Y-41261D01*
X34218Y-41261D01*
X34255Y-41242D01*
X34274Y-41224D01*
X34293Y-41186D01*
X34293Y-41149D01*
X34274Y-41111D01*
X34255Y-41092D01*
X34218Y-41074D01*
X34143Y-41055D01*
X34105Y-41036D01*
X34086Y-41017D01*
X34068Y-40980D01*
X34068Y-40943D01*
X34086Y-40905D01*
X34105Y-40886D01*
X34143Y-40868D01*
X34236Y-40868D01*
X34293Y-40886D01*
X34461Y-41055D02*
X34593Y-41055D01*
X34649Y-41261D02*
X34461Y-41261D01*
X34461Y-40868D01*
X34649Y-40868D01*
X35024Y-40886D02*
X34986Y-40868D01*
X34930Y-40868D01*
X34874Y-40886D01*
X34836Y-40924D01*
X34818Y-40961D01*
X34799Y-41036D01*
X34799Y-41092D01*
X34818Y-41167D01*
X34836Y-41205D01*
X34874Y-41242D01*
X34930Y-41261D01*
X34968Y-41261D01*
X35024Y-41242D01*
X35043Y-41224D01*
X35043Y-41092D01*
X34968Y-41092D01*
X35211Y-41261D02*
X35211Y-40868D01*
X35343Y-41149D01*
X35474Y-40868D01*
X35474Y-41261D01*
X35661Y-41055D02*
X35793Y-41055D01*
X35849Y-41261D02*
X35661Y-41261D01*
X35661Y-40868D01*
X35849Y-40868D01*
X36017Y-41261D02*
X36017Y-40868D01*
X36242Y-41261D01*
X36242Y-40868D01*
X36374Y-40868D02*
X36599Y-40868D01*
X36486Y-41261D02*
X36486Y-40868D01*
X36711Y-41242D02*
X36767Y-41261D01*
X36861Y-41261D01*
X36899Y-41242D01*
X36917Y-41224D01*
X36936Y-41186D01*
X36936Y-41149D01*
X36917Y-41111D01*
X36899Y-41092D01*
X36861Y-41074D01*
X36786Y-41055D01*
X36749Y-41036D01*
X36730Y-41017D01*
X36711Y-40980D01*
X36711Y-40943D01*
X36730Y-40905D01*
X36749Y-40886D01*
X36786Y-40868D01*
X36880Y-40868D01*
X36936Y-40886D01*
X34987Y-37196D02*
X34612Y-36971D01*
X34424Y-36746D01*
X34237Y-36296D01*
X34237Y-36071D01*
X34424Y-35622D01*
X34612Y-35397D01*
X34987Y-35172D01*
X35737Y-35172D01*
X36112Y-35397D01*
X36299Y-35622D01*
X36487Y-36071D01*
X36487Y-36296D01*
X36299Y-36746D01*
X36112Y-36971D01*
X35737Y-37196D01*
X34987Y-37196D01*
X34612Y-37421D01*
X34424Y-37646D01*
X34237Y-38096D01*
X34237Y-38996D01*
X34424Y-39446D01*
X34612Y-39671D01*
X34987Y-39896D01*
X35737Y-39896D01*
X36112Y-39671D01*
X36299Y-39446D01*
X36487Y-38996D01*
X36487Y-38096D01*
X36299Y-37646D01*
X36112Y-37421D01*
X35737Y-37196D01*
X44341Y-41149D02*
X44529Y-41149D01*
X44304Y-41261D02*
X44435Y-40868D01*
X44566Y-41261D01*
X44829Y-41055D02*
X44698Y-41055D01*
X44698Y-41261D02*
X44698Y-40868D01*
X44885Y-40868D01*
X45166Y-41055D02*
X45035Y-41055D01*
X45035Y-41261D02*
X45035Y-40868D01*
X45223Y-40868D01*
X45335Y-40868D02*
X45598Y-40868D01*
X45429Y-41261D01*
X45485Y-40868D02*
X45748Y-40868D01*
X45579Y-41261D01*
X45879Y-41242D02*
X45935Y-41261D01*
X46029Y-41261D01*
X46066Y-41242D01*
X46085Y-41224D01*
X46104Y-41186D01*
X46104Y-41149D01*
X46085Y-41111D01*
X46066Y-41092D01*
X46029Y-41074D01*
X45954Y-41055D01*
X45916Y-41036D01*
X45898Y-41017D01*
X45879Y-40980D01*
X45879Y-40943D01*
X45898Y-40905D01*
X45916Y-40886D01*
X45954Y-40868D01*
X46047Y-40868D01*
X46104Y-40886D01*
X46272Y-41055D02*
X46404Y-41055D01*
X46460Y-41261D02*
X46272Y-41261D01*
X46272Y-40868D01*
X46460Y-40868D01*
X46835Y-40886D02*
X46797Y-40868D01*
X46741Y-40868D01*
X46685Y-40886D01*
X46647Y-40924D01*
X46629Y-40961D01*
X46610Y-41036D01*
X46610Y-41092D01*
X46629Y-41167D01*
X46647Y-41205D01*
X46685Y-41242D01*
X46741Y-41261D01*
X46779Y-41261D01*
X46835Y-41242D01*
X46854Y-41224D01*
X46854Y-41092D01*
X46779Y-41092D01*
X47022Y-41261D02*
X47022Y-40868D01*
X47154Y-41149D01*
X47285Y-40868D01*
X47285Y-41261D01*
X47472Y-41055D02*
X47604Y-41055D01*
X47660Y-41261D02*
X47472Y-41261D01*
X47472Y-40868D01*
X47660Y-40868D01*
X47829Y-41261D02*
X47829Y-40868D01*
X48053Y-41261D01*
X48053Y-40868D01*
X48185Y-40868D02*
X48410Y-40868D01*
X48297Y-41261D02*
X48297Y-40868D01*
X48522Y-41242D02*
X48578Y-41261D01*
X48672Y-41261D01*
X48710Y-41242D01*
X48728Y-41224D01*
X48747Y-41186D01*
X48747Y-41149D01*
X48728Y-41111D01*
X48710Y-41092D01*
X48672Y-41074D01*
X48597Y-41055D01*
X48560Y-41036D01*
X48541Y-41017D01*
X48522Y-40980D01*
X48522Y-40943D01*
X48541Y-40905D01*
X48560Y-40886D01*
X48597Y-40868D01*
X48691Y-40868D01*
X48747Y-40886D01*
X46798Y-37196D02*
X46423Y-36971D01*
X46235Y-36746D01*
X46048Y-36296D01*
X46048Y-36071D01*
X46235Y-35622D01*
X46423Y-35397D01*
X46798Y-35172D01*
X47548Y-35172D01*
X47923Y-35397D01*
X48110Y-35622D01*
X48298Y-36071D01*
X48298Y-36296D01*
X48110Y-36746D01*
X47923Y-36971D01*
X47548Y-37196D01*
X46798Y-37196D01*
X46423Y-37421D01*
X46235Y-37646D01*
X46048Y-38096D01*
X46048Y-38996D01*
X46235Y-39446D01*
X46423Y-39671D01*
X46798Y-39896D01*
X47548Y-39896D01*
X47923Y-39671D01*
X48110Y-39446D01*
X48298Y-38996D01*
X48298Y-38096D01*
X48110Y-37646D01*
X47923Y-37421D01*
X47548Y-37196D01*
X26625Y-41149D02*
X26812Y-41149D01*
X26587Y-41261D02*
X26719Y-40868D01*
X26850Y-41261D01*
X27112Y-41055D02*
X26981Y-41055D01*
X26981Y-41261D02*
X26981Y-40868D01*
X27169Y-40868D01*
X27450Y-41055D02*
X27319Y-41055D01*
X27319Y-41261D02*
X27319Y-40868D01*
X27506Y-40868D01*
X27862Y-41261D02*
X27637Y-41261D01*
X27750Y-41261D02*
X27750Y-40868D01*
X27712Y-40924D01*
X27675Y-40961D01*
X27637Y-40980D01*
X27769Y-40868D02*
X28031Y-40868D01*
X27862Y-41261D01*
X28162Y-41242D02*
X28218Y-41261D01*
X28312Y-41261D01*
X28350Y-41242D01*
X28368Y-41224D01*
X28387Y-41186D01*
X28387Y-41149D01*
X28368Y-41111D01*
X28350Y-41092D01*
X28312Y-41074D01*
X28237Y-41055D01*
X28200Y-41036D01*
X28181Y-41017D01*
X28162Y-40980D01*
X28162Y-40943D01*
X28181Y-40905D01*
X28200Y-40886D01*
X28237Y-40868D01*
X28331Y-40868D01*
X28387Y-40886D01*
X28556Y-41055D02*
X28687Y-41055D01*
X28743Y-41261D02*
X28556Y-41261D01*
X28556Y-40868D01*
X28743Y-40868D01*
X29118Y-40886D02*
X29081Y-40868D01*
X29025Y-40868D01*
X28968Y-40886D01*
X28931Y-40924D01*
X28912Y-40961D01*
X28893Y-41036D01*
X28893Y-41092D01*
X28912Y-41167D01*
X28931Y-41205D01*
X28968Y-41242D01*
X29025Y-41261D01*
X29062Y-41261D01*
X29118Y-41242D01*
X29137Y-41224D01*
X29137Y-41092D01*
X29062Y-41092D01*
X29306Y-41261D02*
X29306Y-40868D01*
X29437Y-41149D01*
X29568Y-40868D01*
X29568Y-41261D01*
X29756Y-41055D02*
X29887Y-41055D01*
X29943Y-41261D02*
X29756Y-41261D01*
X29756Y-40868D01*
X29943Y-40868D01*
X30112Y-41261D02*
X30112Y-40868D01*
X30337Y-41261D01*
X30337Y-40868D01*
X30468Y-40868D02*
X30693Y-40868D01*
X30581Y-41261D02*
X30581Y-40868D01*
X30806Y-41242D02*
X30862Y-41261D01*
X30956Y-41261D01*
X30993Y-41242D01*
X31012Y-41224D01*
X31031Y-41186D01*
X31031Y-41149D01*
X31012Y-41111D01*
X30993Y-41092D01*
X30956Y-41074D01*
X30881Y-41055D01*
X30843Y-41036D01*
X30824Y-41017D01*
X30806Y-40980D01*
X30806Y-40943D01*
X30824Y-40905D01*
X30843Y-40886D01*
X30881Y-40868D01*
X30974Y-40868D01*
X31031Y-40886D01*
X29081Y-37196D02*
X28706Y-36971D01*
X28519Y-36746D01*
X28331Y-36296D01*
X28331Y-36071D01*
X28519Y-35622D01*
X28706Y-35397D01*
X29081Y-35172D01*
X29831Y-35172D01*
X30206Y-35397D01*
X30394Y-35622D01*
X30581Y-36071D01*
X30581Y-36296D01*
X30394Y-36746D01*
X30206Y-36971D01*
X29831Y-37196D01*
X29081Y-37196D01*
X28706Y-37421D01*
X28519Y-37646D01*
X28331Y-38096D01*
X28331Y-38996D01*
X28519Y-39446D01*
X28706Y-39671D01*
X29081Y-39896D01*
X29831Y-39896D01*
X30206Y-39671D01*
X30394Y-39446D01*
X30581Y-38996D01*
X30581Y-38096D01*
X30394Y-37646D01*
X30206Y-37421D01*
X29831Y-37196D01*
X50247Y-41149D02*
X50434Y-41149D01*
X50209Y-41261D02*
X50341Y-40868D01*
X50472Y-41261D01*
X50734Y-41055D02*
X50603Y-41055D01*
X50603Y-41261D02*
X50603Y-40868D01*
X50791Y-40868D01*
X51072Y-41055D02*
X50941Y-41055D01*
X50941Y-41261D02*
X50941Y-40868D01*
X51128Y-40868D01*
X51297Y-41261D02*
X51372Y-41261D01*
X51409Y-41242D01*
X51428Y-41224D01*
X51466Y-41167D01*
X51484Y-41092D01*
X51484Y-40943D01*
X51466Y-40905D01*
X51447Y-40886D01*
X51409Y-40868D01*
X51334Y-40868D01*
X51297Y-40886D01*
X51278Y-40905D01*
X51259Y-40943D01*
X51259Y-41036D01*
X51278Y-41074D01*
X51297Y-41092D01*
X51334Y-41111D01*
X51409Y-41111D01*
X51447Y-41092D01*
X51466Y-41074D01*
X51484Y-41036D01*
X51391Y-40868D02*
X51653Y-40868D01*
X51484Y-41261D01*
X51784Y-41242D02*
X51841Y-41261D01*
X51934Y-41261D01*
X51972Y-41242D01*
X51991Y-41224D01*
X52009Y-41186D01*
X52009Y-41149D01*
X51991Y-41111D01*
X51972Y-41092D01*
X51934Y-41074D01*
X51859Y-41055D01*
X51822Y-41036D01*
X51803Y-41017D01*
X51784Y-40980D01*
X51784Y-40943D01*
X51803Y-40905D01*
X51822Y-40886D01*
X51859Y-40868D01*
X51953Y-40868D01*
X52009Y-40886D01*
X52178Y-41055D02*
X52309Y-41055D01*
X52365Y-41261D02*
X52178Y-41261D01*
X52178Y-40868D01*
X52365Y-40868D01*
X52740Y-40886D02*
X52703Y-40868D01*
X52647Y-40868D01*
X52590Y-40886D01*
X52553Y-40924D01*
X52534Y-40961D01*
X52515Y-41036D01*
X52515Y-41092D01*
X52534Y-41167D01*
X52553Y-41205D01*
X52590Y-41242D01*
X52647Y-41261D01*
X52684Y-41261D01*
X52740Y-41242D01*
X52759Y-41224D01*
X52759Y-41092D01*
X52684Y-41092D01*
X52928Y-41261D02*
X52928Y-40868D01*
X53059Y-41149D01*
X53190Y-40868D01*
X53190Y-41261D01*
X53378Y-41055D02*
X53509Y-41055D01*
X53565Y-41261D02*
X53378Y-41261D01*
X53378Y-40868D01*
X53565Y-40868D01*
X53734Y-41261D02*
X53734Y-40868D01*
X53959Y-41261D01*
X53959Y-40868D01*
X54090Y-40868D02*
X54315Y-40868D01*
X54203Y-41261D02*
X54203Y-40868D01*
X54428Y-41242D02*
X54484Y-41261D01*
X54578Y-41261D01*
X54615Y-41242D01*
X54634Y-41224D01*
X54653Y-41186D01*
X54653Y-41149D01*
X54634Y-41111D01*
X54615Y-41092D01*
X54578Y-41074D01*
X54503Y-41055D01*
X54465Y-41036D01*
X54446Y-41017D01*
X54428Y-40980D01*
X54428Y-40943D01*
X54446Y-40905D01*
X54465Y-40886D01*
X54503Y-40868D01*
X54596Y-40868D01*
X54653Y-40886D01*
X52703Y-37196D02*
X52328Y-36971D01*
X52141Y-36746D01*
X51953Y-36296D01*
X51953Y-36071D01*
X52141Y-35622D01*
X52328Y-35397D01*
X52703Y-35172D01*
X53453Y-35172D01*
X53828Y-35397D01*
X54016Y-35622D01*
X54203Y-36071D01*
X54203Y-36296D01*
X54016Y-36746D01*
X53828Y-36971D01*
X53453Y-37196D01*
X52703Y-37196D01*
X52328Y-37421D01*
X52141Y-37646D01*
X51953Y-38096D01*
X51953Y-38996D01*
X52141Y-39446D01*
X52328Y-39671D01*
X52703Y-39896D01*
X53453Y-39896D01*
X53828Y-39671D01*
X54016Y-39446D01*
X54203Y-38996D01*
X54203Y-38096D01*
X54016Y-37646D01*
X53828Y-37421D01*
X53453Y-37196D01*
X48278Y-26385D02*
X48466Y-26385D01*
X48241Y-26497D02*
X48372Y-26104D01*
X48503Y-26497D01*
X48766Y-26291D02*
X48635Y-26291D01*
X48635Y-26497D02*
X48635Y-26104D01*
X48822Y-26104D01*
X49103Y-26291D02*
X48972Y-26291D01*
X48972Y-26497D02*
X48972Y-26104D01*
X49160Y-26104D01*
X49366Y-26272D02*
X49328Y-26254D01*
X49310Y-26235D01*
X49291Y-26197D01*
X49291Y-26179D01*
X49310Y-26141D01*
X49328Y-26122D01*
X49366Y-26104D01*
X49441Y-26104D01*
X49478Y-26122D01*
X49497Y-26141D01*
X49516Y-26179D01*
X49516Y-26197D01*
X49497Y-26235D01*
X49478Y-26254D01*
X49441Y-26272D01*
X49366Y-26272D01*
X49328Y-26291D01*
X49310Y-26310D01*
X49291Y-26347D01*
X49291Y-26422D01*
X49310Y-26460D01*
X49328Y-26479D01*
X49366Y-26497D01*
X49441Y-26497D01*
X49478Y-26479D01*
X49497Y-26460D01*
X49516Y-26422D01*
X49516Y-26347D01*
X49497Y-26310D01*
X49478Y-26291D01*
X49441Y-26272D01*
X49422Y-26104D02*
X49685Y-26104D01*
X49516Y-26497D01*
X49816Y-26479D02*
X49872Y-26497D01*
X49966Y-26497D01*
X50003Y-26479D01*
X50022Y-26460D01*
X50041Y-26422D01*
X50041Y-26385D01*
X50022Y-26347D01*
X50003Y-26329D01*
X49966Y-26310D01*
X49891Y-26291D01*
X49853Y-26272D01*
X49835Y-26254D01*
X49816Y-26216D01*
X49816Y-26179D01*
X49835Y-26141D01*
X49853Y-26122D01*
X49891Y-26104D01*
X49985Y-26104D01*
X50041Y-26122D01*
X50209Y-26291D02*
X50341Y-26291D01*
X50397Y-26497D02*
X50209Y-26497D01*
X50209Y-26104D01*
X50397Y-26104D01*
X50772Y-26122D02*
X50734Y-26104D01*
X50678Y-26104D01*
X50622Y-26122D01*
X50584Y-26160D01*
X50566Y-26197D01*
X50547Y-26272D01*
X50547Y-26329D01*
X50566Y-26404D01*
X50584Y-26441D01*
X50622Y-26479D01*
X50678Y-26497D01*
X50716Y-26497D01*
X50772Y-26479D01*
X50791Y-26460D01*
X50791Y-26329D01*
X50716Y-26329D01*
X50959Y-26497D02*
X50959Y-26104D01*
X51091Y-26385D01*
X51222Y-26104D01*
X51222Y-26497D01*
X51409Y-26291D02*
X51541Y-26291D01*
X51597Y-26497D02*
X51409Y-26497D01*
X51409Y-26104D01*
X51597Y-26104D01*
X51766Y-26497D02*
X51766Y-26104D01*
X51991Y-26497D01*
X51991Y-26104D01*
X52122Y-26104D02*
X52347Y-26104D01*
X52234Y-26497D02*
X52234Y-26104D01*
X52459Y-26479D02*
X52515Y-26497D01*
X52609Y-26497D01*
X52647Y-26479D01*
X52665Y-26460D01*
X52684Y-26422D01*
X52684Y-26385D01*
X52665Y-26347D01*
X52647Y-26329D01*
X52609Y-26310D01*
X52534Y-26291D01*
X52497Y-26272D01*
X52478Y-26254D01*
X52459Y-26216D01*
X52459Y-26179D01*
X52478Y-26141D01*
X52497Y-26122D01*
X52534Y-26104D01*
X52628Y-26104D01*
X52684Y-26122D01*
X50735Y-22433D02*
X50360Y-22208D01*
X50172Y-21983D01*
X49985Y-21533D01*
X49985Y-21308D01*
X50172Y-20858D01*
X50360Y-20633D01*
X50735Y-20408D01*
X51485Y-20408D01*
X51860Y-20633D01*
X52047Y-20858D01*
X52235Y-21308D01*
X52235Y-21533D01*
X52047Y-21983D01*
X51860Y-22208D01*
X51485Y-22433D01*
X50735Y-22433D01*
X50360Y-22658D01*
X50172Y-22883D01*
X49985Y-23332D01*
X49985Y-24232D01*
X50172Y-24682D01*
X50360Y-24907D01*
X50735Y-25132D01*
X51485Y-25132D01*
X51860Y-24907D01*
X52047Y-24682D01*
X52235Y-24232D01*
X52235Y-23332D01*
X52047Y-22883D01*
X51860Y-22658D01*
X51485Y-22433D01*
X38436Y-35243D02*
X38623Y-35243D01*
X38398Y-35356D02*
X38530Y-34962D01*
X38661Y-35356D01*
X38923Y-35149D02*
X38792Y-35149D01*
X38792Y-35356D02*
X38792Y-34962D01*
X38980Y-34962D01*
X39261Y-35149D02*
X39130Y-35149D01*
X39130Y-35356D02*
X39130Y-34962D01*
X39317Y-34962D01*
X39655Y-34962D02*
X39467Y-34962D01*
X39448Y-35149D01*
X39467Y-35131D01*
X39505Y-35112D01*
X39598Y-35112D01*
X39636Y-35131D01*
X39655Y-35149D01*
X39673Y-35187D01*
X39673Y-35281D01*
X39655Y-35318D01*
X39636Y-35337D01*
X39598Y-35356D01*
X39505Y-35356D01*
X39467Y-35337D01*
X39448Y-35318D01*
X39580Y-34962D02*
X39842Y-34962D01*
X39673Y-35356D01*
X39973Y-35337D02*
X40029Y-35356D01*
X40123Y-35356D01*
X40161Y-35337D01*
X40179Y-35318D01*
X40198Y-35281D01*
X40198Y-35243D01*
X40179Y-35206D01*
X40161Y-35187D01*
X40123Y-35168D01*
X40048Y-35149D01*
X40011Y-35131D01*
X39992Y-35112D01*
X39973Y-35074D01*
X39973Y-35037D01*
X39992Y-35000D01*
X40011Y-34981D01*
X40048Y-34962D01*
X40142Y-34962D01*
X40198Y-34981D01*
X40367Y-35149D02*
X40498Y-35149D01*
X40554Y-35356D02*
X40367Y-35356D01*
X40367Y-34962D01*
X40554Y-34962D01*
X40929Y-34981D02*
X40892Y-34962D01*
X40836Y-34962D01*
X40779Y-34981D01*
X40742Y-35018D01*
X40723Y-35056D01*
X40704Y-35131D01*
X40704Y-35187D01*
X40723Y-35262D01*
X40742Y-35299D01*
X40779Y-35337D01*
X40836Y-35356D01*
X40873Y-35356D01*
X40929Y-35337D01*
X40948Y-35318D01*
X40948Y-35187D01*
X40873Y-35187D01*
X41117Y-35356D02*
X41117Y-34962D01*
X41248Y-35243D01*
X41379Y-34962D01*
X41379Y-35356D01*
X41567Y-35149D02*
X41698Y-35149D01*
X41754Y-35356D02*
X41567Y-35356D01*
X41567Y-34962D01*
X41754Y-34962D01*
X41923Y-35356D02*
X41923Y-34962D01*
X42148Y-35356D01*
X42148Y-34962D01*
X42279Y-34962D02*
X42504Y-34962D01*
X42392Y-35356D02*
X42392Y-34962D01*
X42617Y-35337D02*
X42673Y-35356D01*
X42767Y-35356D01*
X42804Y-35337D01*
X42823Y-35318D01*
X42842Y-35281D01*
X42842Y-35243D01*
X42823Y-35206D01*
X42804Y-35187D01*
X42767Y-35168D01*
X42692Y-35149D01*
X42654Y-35131D01*
X42635Y-35112D01*
X42617Y-35074D01*
X42617Y-35037D01*
X42635Y-35000D01*
X42654Y-34981D01*
X42692Y-34962D01*
X42785Y-34962D01*
X42842Y-34981D01*
X40892Y-31291D02*
X40517Y-31066D01*
X40330Y-30841D01*
X40142Y-30391D01*
X40142Y-30166D01*
X40330Y-29716D01*
X40517Y-29491D01*
X40892Y-29266D01*
X41642Y-29266D01*
X42017Y-29491D01*
X42205Y-29716D01*
X42392Y-30166D01*
X42392Y-30391D01*
X42205Y-30841D01*
X42017Y-31066D01*
X41642Y-31291D01*
X40892Y-31291D01*
X40517Y-31516D01*
X40330Y-31741D01*
X40142Y-32191D01*
X40142Y-33091D01*
X40330Y-33541D01*
X40517Y-33766D01*
X40892Y-33991D01*
X41642Y-33991D01*
X42017Y-33766D01*
X42205Y-33541D01*
X42392Y-33091D01*
X42392Y-32191D01*
X42205Y-31741D01*
X42017Y-31516D01*
X41642Y-31291D01*
X42373Y-26385D02*
X42560Y-26385D01*
X42335Y-26497D02*
X42467Y-26104D01*
X42598Y-26497D01*
X42860Y-26291D02*
X42729Y-26291D01*
X42729Y-26497D02*
X42729Y-26104D01*
X42917Y-26104D01*
X43198Y-26291D02*
X43067Y-26291D01*
X43067Y-26497D02*
X43067Y-26104D01*
X43254Y-26104D01*
X43573Y-26104D02*
X43498Y-26104D01*
X43460Y-26122D01*
X43442Y-26141D01*
X43404Y-26197D01*
X43385Y-26272D01*
X43385Y-26422D01*
X43404Y-26460D01*
X43423Y-26479D01*
X43460Y-26497D01*
X43535Y-26497D01*
X43573Y-26479D01*
X43592Y-26460D01*
X43610Y-26422D01*
X43610Y-26329D01*
X43592Y-26291D01*
X43573Y-26272D01*
X43535Y-26254D01*
X43460Y-26254D01*
X43423Y-26272D01*
X43404Y-26291D01*
X43385Y-26329D01*
X43517Y-26104D02*
X43779Y-26104D01*
X43610Y-26497D01*
X43910Y-26479D02*
X43967Y-26497D01*
X44060Y-26497D01*
X44098Y-26479D01*
X44116Y-26460D01*
X44135Y-26422D01*
X44135Y-26385D01*
X44116Y-26347D01*
X44098Y-26329D01*
X44060Y-26310D01*
X43985Y-26291D01*
X43948Y-26272D01*
X43929Y-26254D01*
X43910Y-26216D01*
X43910Y-26179D01*
X43929Y-26141D01*
X43948Y-26122D01*
X43985Y-26104D01*
X44079Y-26104D01*
X44135Y-26122D01*
X44304Y-26291D02*
X44435Y-26291D01*
X44491Y-26497D02*
X44304Y-26497D01*
X44304Y-26104D01*
X44491Y-26104D01*
X44866Y-26122D02*
X44829Y-26104D01*
X44773Y-26104D01*
X44716Y-26122D01*
X44679Y-26160D01*
X44660Y-26197D01*
X44641Y-26272D01*
X44641Y-26329D01*
X44660Y-26404D01*
X44679Y-26441D01*
X44716Y-26479D01*
X44773Y-26497D01*
X44810Y-26497D01*
X44866Y-26479D01*
X44885Y-26460D01*
X44885Y-26329D01*
X44810Y-26329D01*
X45054Y-26497D02*
X45054Y-26104D01*
X45185Y-26385D01*
X45316Y-26104D01*
X45316Y-26497D01*
X45504Y-26291D02*
X45635Y-26291D01*
X45691Y-26497D02*
X45504Y-26497D01*
X45504Y-26104D01*
X45691Y-26104D01*
X45860Y-26497D02*
X45860Y-26104D01*
X46085Y-26497D01*
X46085Y-26104D01*
X46216Y-26104D02*
X46441Y-26104D01*
X46329Y-26497D02*
X46329Y-26104D01*
X46554Y-26479D02*
X46610Y-26497D01*
X46704Y-26497D01*
X46741Y-26479D01*
X46760Y-26460D01*
X46779Y-26422D01*
X46779Y-26385D01*
X46760Y-26347D01*
X46741Y-26329D01*
X46704Y-26310D01*
X46629Y-26291D01*
X46591Y-26272D01*
X46572Y-26254D01*
X46554Y-26216D01*
X46554Y-26179D01*
X46572Y-26141D01*
X46591Y-26122D01*
X46629Y-26104D01*
X46722Y-26104D01*
X46779Y-26122D01*
X44829Y-22433D02*
X44454Y-22208D01*
X44267Y-21983D01*
X44079Y-21533D01*
X44079Y-21308D01*
X44267Y-20858D01*
X44454Y-20633D01*
X44829Y-20408D01*
X45579Y-20408D01*
X45954Y-20633D01*
X46142Y-20858D01*
X46329Y-21308D01*
X46329Y-21533D01*
X46142Y-21983D01*
X45954Y-22208D01*
X45579Y-22433D01*
X44829Y-22433D01*
X44454Y-22658D01*
X44267Y-22883D01*
X44079Y-23332D01*
X44079Y-24232D01*
X44267Y-24682D01*
X44454Y-24907D01*
X44829Y-25132D01*
X45579Y-25132D01*
X45954Y-24907D01*
X46142Y-24682D01*
X46329Y-24232D01*
X46329Y-23332D01*
X46142Y-22883D01*
X45954Y-22658D01*
X45579Y-22433D01*
X28593Y-26385D02*
X28781Y-26385D01*
X28556Y-26497D02*
X28687Y-26104D01*
X28818Y-26497D01*
X29081Y-26291D02*
X28950Y-26291D01*
X28950Y-26497D02*
X28950Y-26104D01*
X29137Y-26104D01*
X29418Y-26291D02*
X29287Y-26291D01*
X29287Y-26497D02*
X29287Y-26104D01*
X29475Y-26104D01*
X29606Y-26141D02*
X29625Y-26122D01*
X29662Y-26104D01*
X29756Y-26104D01*
X29793Y-26122D01*
X29812Y-26141D01*
X29831Y-26179D01*
X29831Y-26216D01*
X29812Y-26272D01*
X29587Y-26497D01*
X29831Y-26497D01*
X29737Y-26104D02*
X30000Y-26104D01*
X29831Y-26497D01*
X30131Y-26479D02*
X30187Y-26497D01*
X30281Y-26497D01*
X30318Y-26479D01*
X30337Y-26460D01*
X30356Y-26422D01*
X30356Y-26385D01*
X30337Y-26347D01*
X30318Y-26329D01*
X30281Y-26310D01*
X30206Y-26291D01*
X30168Y-26272D01*
X30149Y-26254D01*
X30131Y-26216D01*
X30131Y-26179D01*
X30149Y-26141D01*
X30168Y-26122D01*
X30206Y-26104D01*
X30299Y-26104D01*
X30356Y-26122D01*
X30524Y-26291D02*
X30656Y-26291D01*
X30712Y-26497D02*
X30524Y-26497D01*
X30524Y-26104D01*
X30712Y-26104D01*
X31087Y-26122D02*
X31049Y-26104D01*
X30993Y-26104D01*
X30937Y-26122D01*
X30899Y-26160D01*
X30881Y-26197D01*
X30862Y-26272D01*
X30862Y-26329D01*
X30881Y-26404D01*
X30899Y-26441D01*
X30937Y-26479D01*
X30993Y-26497D01*
X31031Y-26497D01*
X31087Y-26479D01*
X31106Y-26460D01*
X31106Y-26329D01*
X31031Y-26329D01*
X31274Y-26497D02*
X31274Y-26104D01*
X31406Y-26385D01*
X31537Y-26104D01*
X31537Y-26497D01*
X31724Y-26291D02*
X31856Y-26291D01*
X31912Y-26497D02*
X31724Y-26497D01*
X31724Y-26104D01*
X31912Y-26104D01*
X32080Y-26497D02*
X32080Y-26104D01*
X32305Y-26497D01*
X32305Y-26104D01*
X32437Y-26104D02*
X32662Y-26104D01*
X32549Y-26497D02*
X32549Y-26104D01*
X32774Y-26479D02*
X32830Y-26497D01*
X32924Y-26497D01*
X32962Y-26479D01*
X32980Y-26460D01*
X32999Y-26422D01*
X32999Y-26385D01*
X32980Y-26347D01*
X32962Y-26329D01*
X32924Y-26310D01*
X32849Y-26291D01*
X32812Y-26272D01*
X32793Y-26254D01*
X32774Y-26216D01*
X32774Y-26179D01*
X32793Y-26141D01*
X32812Y-26122D01*
X32849Y-26104D01*
X32943Y-26104D01*
X32999Y-26122D01*
X31050Y-22433D02*
X30675Y-22208D01*
X30487Y-21983D01*
X30300Y-21533D01*
X30300Y-21308D01*
X30487Y-20858D01*
X30675Y-20633D01*
X31050Y-20408D01*
X31800Y-20408D01*
X32175Y-20633D01*
X32362Y-20858D01*
X32550Y-21308D01*
X32550Y-21533D01*
X32362Y-21983D01*
X32175Y-22208D01*
X31800Y-22433D01*
X31050Y-22433D01*
X30675Y-22658D01*
X30487Y-22883D01*
X30300Y-23332D01*
X30300Y-24232D01*
X30487Y-24682D01*
X30675Y-24907D01*
X31050Y-25132D01*
X31800Y-25132D01*
X32175Y-24907D01*
X32362Y-24682D01*
X32550Y-24232D01*
X32550Y-23332D01*
X32362Y-22883D01*
X32175Y-22658D01*
X31800Y-22433D01*
X34499Y-26385D02*
X34686Y-26385D01*
X34461Y-26497D02*
X34593Y-26104D01*
X34724Y-26497D01*
X34986Y-26291D02*
X34855Y-26291D01*
X34855Y-26497D02*
X34855Y-26104D01*
X35043Y-26104D01*
X35324Y-26291D02*
X35193Y-26291D01*
X35193Y-26497D02*
X35193Y-26104D01*
X35380Y-26104D01*
X35699Y-26235D02*
X35699Y-26497D01*
X35605Y-26085D02*
X35511Y-26366D01*
X35755Y-26366D01*
X35643Y-26104D02*
X35905Y-26104D01*
X35736Y-26497D01*
X36036Y-26479D02*
X36092Y-26497D01*
X36186Y-26497D01*
X36224Y-26479D01*
X36242Y-26460D01*
X36261Y-26422D01*
X36261Y-26385D01*
X36242Y-26347D01*
X36224Y-26329D01*
X36186Y-26310D01*
X36111Y-26291D01*
X36074Y-26272D01*
X36055Y-26254D01*
X36036Y-26216D01*
X36036Y-26179D01*
X36055Y-26141D01*
X36074Y-26122D01*
X36111Y-26104D01*
X36205Y-26104D01*
X36261Y-26122D01*
X36430Y-26291D02*
X36561Y-26291D01*
X36617Y-26497D02*
X36430Y-26497D01*
X36430Y-26104D01*
X36617Y-26104D01*
X36992Y-26122D02*
X36955Y-26104D01*
X36899Y-26104D01*
X36842Y-26122D01*
X36805Y-26160D01*
X36786Y-26197D01*
X36767Y-26272D01*
X36767Y-26329D01*
X36786Y-26404D01*
X36805Y-26441D01*
X36842Y-26479D01*
X36899Y-26497D01*
X36936Y-26497D01*
X36992Y-26479D01*
X37011Y-26460D01*
X37011Y-26329D01*
X36936Y-26329D01*
X37180Y-26497D02*
X37180Y-26104D01*
X37311Y-26385D01*
X37442Y-26104D01*
X37442Y-26497D01*
X37630Y-26291D02*
X37761Y-26291D01*
X37817Y-26497D02*
X37630Y-26497D01*
X37630Y-26104D01*
X37817Y-26104D01*
X37986Y-26497D02*
X37986Y-26104D01*
X38211Y-26497D01*
X38211Y-26104D01*
X38342Y-26104D02*
X38567Y-26104D01*
X38455Y-26497D02*
X38455Y-26104D01*
X38680Y-26479D02*
X38736Y-26497D01*
X38830Y-26497D01*
X38867Y-26479D01*
X38886Y-26460D01*
X38905Y-26422D01*
X38905Y-26385D01*
X38886Y-26347D01*
X38867Y-26329D01*
X38830Y-26310D01*
X38755Y-26291D01*
X38717Y-26272D01*
X38698Y-26254D01*
X38680Y-26216D01*
X38680Y-26179D01*
X38698Y-26141D01*
X38717Y-26122D01*
X38755Y-26104D01*
X38848Y-26104D01*
X38905Y-26122D01*
X36955Y-22433D02*
X36580Y-22208D01*
X36393Y-21983D01*
X36205Y-21533D01*
X36205Y-21308D01*
X36393Y-20858D01*
X36580Y-20633D01*
X36955Y-20408D01*
X37705Y-20408D01*
X38080Y-20633D01*
X38268Y-20858D01*
X38455Y-21308D01*
X38455Y-21533D01*
X38268Y-21983D01*
X38080Y-22208D01*
X37705Y-22433D01*
X36955Y-22433D01*
X36580Y-22658D01*
X36393Y-22883D01*
X36205Y-23332D01*
X36205Y-24232D01*
X36393Y-24682D01*
X36580Y-24907D01*
X36955Y-25132D01*
X37705Y-25132D01*
X38080Y-24907D01*
X38268Y-24682D01*
X38455Y-24232D01*
X38455Y-23332D01*
X38268Y-22883D01*
X38080Y-22658D01*
X37705Y-22433D01*
G54D13*
X47150Y-28642D02*
X47135Y-28657D01*
X47092Y-28671D01*
X47064Y-28671D01*
X47021Y-28657D01*
X46992Y-28628D01*
X46978Y-28600D01*
X46964Y-28542D01*
X46964Y-28500D01*
X46978Y-28442D01*
X46992Y-28414D01*
X47021Y-28385D01*
X47064Y-28371D01*
X47092Y-28371D01*
X47135Y-28385D01*
X47150Y-28400D01*
X47264Y-28400D02*
X47278Y-28385D01*
X47307Y-28371D01*
X47378Y-28371D01*
X47407Y-28385D01*
X47421Y-28400D01*
X47435Y-28428D01*
X47435Y-28457D01*
X47421Y-28500D01*
X47250Y-28671D01*
X47435Y-28671D01*
X29200Y-28342D02*
X29185Y-28357D01*
X29142Y-28371D01*
X29114Y-28371D01*
X29071Y-28357D01*
X29042Y-28328D01*
X29028Y-28300D01*
X29014Y-28242D01*
X29014Y-28200D01*
X29028Y-28142D01*
X29042Y-28114D01*
X29071Y-28085D01*
X29114Y-28071D01*
X29142Y-28071D01*
X29185Y-28085D01*
X29200Y-28100D01*
X29300Y-28071D02*
X29485Y-28071D01*
X29385Y-28185D01*
X29428Y-28185D01*
X29457Y-28200D01*
X29471Y-28214D01*
X29485Y-28242D01*
X29485Y-28314D01*
X29471Y-28342D01*
X29457Y-28357D01*
X29428Y-28371D01*
X29342Y-28371D01*
X29314Y-28357D01*
X29300Y-28342D01*
G54D18*
X32280Y-28065D02*
X32185Y-28125D01*
X32280Y-28168D02*
X32080Y-28168D01*
X32080Y-28100D01*
X32090Y-28082D01*
X32100Y-28074D01*
X32119Y-28065D01*
X32147Y-28065D01*
X32166Y-28074D01*
X32176Y-28082D01*
X32185Y-28100D01*
X32185Y-28168D01*
X32080Y-27902D02*
X32080Y-27988D01*
X32176Y-27997D01*
X32166Y-27988D01*
X32157Y-27971D01*
X32157Y-27928D01*
X32166Y-27911D01*
X32176Y-27902D01*
X32195Y-27894D01*
X32242Y-27894D01*
X32261Y-27902D01*
X32271Y-27911D01*
X32280Y-27928D01*
X32280Y-27971D01*
X32271Y-27988D01*
X32261Y-27997D01*
X32166Y-27791D02*
X32157Y-27808D01*
X32147Y-27817D01*
X32128Y-27825D01*
X32119Y-27825D01*
X32100Y-27817D01*
X32090Y-27808D01*
X32080Y-27791D01*
X32080Y-27757D01*
X32090Y-27740D01*
X32100Y-27731D01*
X32119Y-27722D01*
X32128Y-27722D01*
X32147Y-27731D01*
X32157Y-27740D01*
X32166Y-27757D01*
X32166Y-27791D01*
X32176Y-27808D01*
X32185Y-27817D01*
X32204Y-27825D01*
X32242Y-27825D01*
X32261Y-27817D01*
X32271Y-27808D01*
X32280Y-27791D01*
X32280Y-27757D01*
X32271Y-27740D01*
X32261Y-27731D01*
X32242Y-27722D01*
X32204Y-27722D01*
X32185Y-27731D01*
X32176Y-27740D01*
X32166Y-27757D01*
X44884Y-32430D02*
X44824Y-32335D01*
X44781Y-32430D02*
X44781Y-32230D01*
X44850Y-32230D01*
X44867Y-32240D01*
X44875Y-32250D01*
X44884Y-32269D01*
X44884Y-32297D01*
X44875Y-32316D01*
X44867Y-32326D01*
X44850Y-32335D01*
X44781Y-32335D01*
X45038Y-32230D02*
X45004Y-32230D01*
X44987Y-32240D01*
X44978Y-32250D01*
X44961Y-32278D01*
X44952Y-32316D01*
X44952Y-32392D01*
X44961Y-32411D01*
X44970Y-32421D01*
X44987Y-32430D01*
X45021Y-32430D01*
X45038Y-32421D01*
X45047Y-32411D01*
X45055Y-32392D01*
X45055Y-32345D01*
X45047Y-32326D01*
X45038Y-32316D01*
X45021Y-32307D01*
X44987Y-32307D01*
X44970Y-32316D01*
X44961Y-32326D01*
X44952Y-32345D01*
X45218Y-32230D02*
X45132Y-32230D01*
X45124Y-32326D01*
X45132Y-32316D01*
X45150Y-32307D01*
X45192Y-32307D01*
X45210Y-32316D01*
X45218Y-32326D01*
X45227Y-32345D01*
X45227Y-32392D01*
X45218Y-32411D01*
X45210Y-32421D01*
X45192Y-32430D01*
X45150Y-32430D01*
X45132Y-32421D01*
X45124Y-32411D01*
X36480Y-28115D02*
X36385Y-28175D01*
X36480Y-28218D02*
X36280Y-28218D01*
X36280Y-28150D01*
X36290Y-28132D01*
X36300Y-28124D01*
X36319Y-28115D01*
X36347Y-28115D01*
X36366Y-28124D01*
X36376Y-28132D01*
X36385Y-28150D01*
X36385Y-28218D01*
X36280Y-27952D02*
X36280Y-28038D01*
X36376Y-28047D01*
X36366Y-28038D01*
X36357Y-28021D01*
X36357Y-27978D01*
X36366Y-27961D01*
X36376Y-27952D01*
X36395Y-27944D01*
X36442Y-27944D01*
X36461Y-27952D01*
X36471Y-27961D01*
X36480Y-27978D01*
X36480Y-28021D01*
X36471Y-28038D01*
X36461Y-28047D01*
X36480Y-27858D02*
X36480Y-27824D01*
X36471Y-27807D01*
X36461Y-27798D01*
X36433Y-27781D01*
X36395Y-27772D01*
X36319Y-27772D01*
X36300Y-27781D01*
X36290Y-27790D01*
X36280Y-27807D01*
X36280Y-27841D01*
X36290Y-27858D01*
X36300Y-27867D01*
X36319Y-27875D01*
X36366Y-27875D01*
X36385Y-27867D01*
X36395Y-27858D01*
X36404Y-27841D01*
X36404Y-27807D01*
X36395Y-27790D01*
X36385Y-27781D01*
X36366Y-27772D01*
X47084Y-27380D02*
X47024Y-27285D01*
X46981Y-27380D02*
X46981Y-27180D01*
X47050Y-27180D01*
X47067Y-27190D01*
X47075Y-27200D01*
X47084Y-27219D01*
X47084Y-27247D01*
X47075Y-27266D01*
X47067Y-27276D01*
X47050Y-27285D01*
X46981Y-27285D01*
X47238Y-27180D02*
X47204Y-27180D01*
X47187Y-27190D01*
X47178Y-27200D01*
X47161Y-27228D01*
X47152Y-27266D01*
X47152Y-27342D01*
X47161Y-27361D01*
X47170Y-27371D01*
X47187Y-27380D01*
X47221Y-27380D01*
X47238Y-27371D01*
X47247Y-27361D01*
X47255Y-27342D01*
X47255Y-27295D01*
X47247Y-27276D01*
X47238Y-27266D01*
X47221Y-27257D01*
X47187Y-27257D01*
X47170Y-27266D01*
X47161Y-27276D01*
X47152Y-27295D01*
X47367Y-27180D02*
X47384Y-27180D01*
X47401Y-27190D01*
X47410Y-27200D01*
X47418Y-27219D01*
X47427Y-27257D01*
X47427Y-27304D01*
X47418Y-27342D01*
X47410Y-27361D01*
X47401Y-27371D01*
X47384Y-27380D01*
X47367Y-27380D01*
X47350Y-27371D01*
X47341Y-27361D01*
X47332Y-27342D01*
X47324Y-27304D01*
X47324Y-27257D01*
X47332Y-27219D01*
X47341Y-27200D01*
X47350Y-27190D01*
X47367Y-27180D01*
X48934Y-27730D02*
X48874Y-27635D01*
X48831Y-27730D02*
X48831Y-27530D01*
X48900Y-27530D01*
X48917Y-27540D01*
X48925Y-27550D01*
X48934Y-27569D01*
X48934Y-27597D01*
X48925Y-27616D01*
X48917Y-27626D01*
X48900Y-27635D01*
X48831Y-27635D01*
X49088Y-27530D02*
X49054Y-27530D01*
X49037Y-27540D01*
X49028Y-27550D01*
X49011Y-27578D01*
X49002Y-27616D01*
X49002Y-27692D01*
X49011Y-27711D01*
X49020Y-27721D01*
X49037Y-27730D01*
X49071Y-27730D01*
X49088Y-27721D01*
X49097Y-27711D01*
X49105Y-27692D01*
X49105Y-27645D01*
X49097Y-27626D01*
X49088Y-27616D01*
X49071Y-27607D01*
X49037Y-27607D01*
X49020Y-27616D01*
X49011Y-27626D01*
X49002Y-27645D01*
X49277Y-27730D02*
X49174Y-27730D01*
X49225Y-27730D02*
X49225Y-27530D01*
X49208Y-27559D01*
X49191Y-27578D01*
X49174Y-27588D01*
X37234Y-30880D02*
X37174Y-30785D01*
X37131Y-30880D02*
X37131Y-30680D01*
X37200Y-30680D01*
X37217Y-30690D01*
X37225Y-30700D01*
X37234Y-30719D01*
X37234Y-30747D01*
X37225Y-30766D01*
X37217Y-30776D01*
X37200Y-30785D01*
X37131Y-30785D01*
X37388Y-30680D02*
X37354Y-30680D01*
X37337Y-30690D01*
X37328Y-30700D01*
X37311Y-30728D01*
X37302Y-30766D01*
X37302Y-30842D01*
X37311Y-30861D01*
X37320Y-30871D01*
X37337Y-30880D01*
X37371Y-30880D01*
X37388Y-30871D01*
X37397Y-30861D01*
X37405Y-30842D01*
X37405Y-30795D01*
X37397Y-30776D01*
X37388Y-30766D01*
X37371Y-30757D01*
X37337Y-30757D01*
X37320Y-30766D01*
X37311Y-30776D01*
X37302Y-30795D01*
X37474Y-30700D02*
X37482Y-30690D01*
X37500Y-30680D01*
X37542Y-30680D01*
X37560Y-30690D01*
X37568Y-30700D01*
X37577Y-30719D01*
X37577Y-30738D01*
X37568Y-30766D01*
X37465Y-30880D01*
X37577Y-30880D01*
X28484Y-32480D02*
X28424Y-32385D01*
X28381Y-32480D02*
X28381Y-32280D01*
X28450Y-32280D01*
X28467Y-32290D01*
X28475Y-32300D01*
X28484Y-32319D01*
X28484Y-32347D01*
X28475Y-32366D01*
X28467Y-32376D01*
X28450Y-32385D01*
X28381Y-32385D01*
X28638Y-32280D02*
X28604Y-32280D01*
X28587Y-32290D01*
X28578Y-32300D01*
X28561Y-32328D01*
X28552Y-32366D01*
X28552Y-32442D01*
X28561Y-32461D01*
X28570Y-32471D01*
X28587Y-32480D01*
X28621Y-32480D01*
X28638Y-32471D01*
X28647Y-32461D01*
X28655Y-32442D01*
X28655Y-32395D01*
X28647Y-32376D01*
X28638Y-32366D01*
X28621Y-32357D01*
X28587Y-32357D01*
X28570Y-32366D01*
X28561Y-32376D01*
X28552Y-32395D01*
X28715Y-32280D02*
X28827Y-32280D01*
X28767Y-32357D01*
X28792Y-32357D01*
X28810Y-32366D01*
X28818Y-32376D01*
X28827Y-32395D01*
X28827Y-32442D01*
X28818Y-32461D01*
X28810Y-32471D01*
X28792Y-32480D01*
X28741Y-32480D01*
X28724Y-32471D01*
X28715Y-32461D01*
X34384Y-32330D02*
X34324Y-32235D01*
X34281Y-32330D02*
X34281Y-32130D01*
X34350Y-32130D01*
X34367Y-32140D01*
X34375Y-32150D01*
X34384Y-32169D01*
X34384Y-32197D01*
X34375Y-32216D01*
X34367Y-32226D01*
X34350Y-32235D01*
X34281Y-32235D01*
X34538Y-32130D02*
X34504Y-32130D01*
X34487Y-32140D01*
X34478Y-32150D01*
X34461Y-32178D01*
X34452Y-32216D01*
X34452Y-32292D01*
X34461Y-32311D01*
X34470Y-32321D01*
X34487Y-32330D01*
X34521Y-32330D01*
X34538Y-32321D01*
X34547Y-32311D01*
X34555Y-32292D01*
X34555Y-32245D01*
X34547Y-32226D01*
X34538Y-32216D01*
X34521Y-32207D01*
X34487Y-32207D01*
X34470Y-32216D01*
X34461Y-32226D01*
X34452Y-32245D01*
X34710Y-32197D02*
X34710Y-32330D01*
X34667Y-32121D02*
X34624Y-32264D01*
X34735Y-32264D01*
X52684Y-32230D02*
X52624Y-32135D01*
X52581Y-32230D02*
X52581Y-32030D01*
X52650Y-32030D01*
X52667Y-32040D01*
X52675Y-32050D01*
X52684Y-32069D01*
X52684Y-32097D01*
X52675Y-32116D01*
X52667Y-32126D01*
X52650Y-32135D01*
X52581Y-32135D01*
X52752Y-32050D02*
X52761Y-32040D01*
X52778Y-32030D01*
X52821Y-32030D01*
X52838Y-32040D01*
X52847Y-32050D01*
X52855Y-32069D01*
X52855Y-32088D01*
X52847Y-32116D01*
X52744Y-32230D01*
X52855Y-32230D01*
X52924Y-32050D02*
X52932Y-32040D01*
X52950Y-32030D01*
X52992Y-32030D01*
X53010Y-32040D01*
X53018Y-32050D01*
X53027Y-32069D01*
X53027Y-32088D01*
X53018Y-32116D01*
X52915Y-32230D01*
X53027Y-32230D01*
X51534Y-31680D02*
X51474Y-31585D01*
X51431Y-31680D02*
X51431Y-31480D01*
X51500Y-31480D01*
X51517Y-31490D01*
X51525Y-31500D01*
X51534Y-31519D01*
X51534Y-31547D01*
X51525Y-31566D01*
X51517Y-31576D01*
X51500Y-31585D01*
X51431Y-31585D01*
X51602Y-31500D02*
X51611Y-31490D01*
X51628Y-31480D01*
X51671Y-31480D01*
X51688Y-31490D01*
X51697Y-31500D01*
X51705Y-31519D01*
X51705Y-31538D01*
X51697Y-31566D01*
X51594Y-31680D01*
X51705Y-31680D01*
X51877Y-31680D02*
X51774Y-31680D01*
X51825Y-31680D02*
X51825Y-31480D01*
X51808Y-31509D01*
X51791Y-31528D01*
X51774Y-31538D01*
X52684Y-31280D02*
X52624Y-31185D01*
X52581Y-31280D02*
X52581Y-31080D01*
X52650Y-31080D01*
X52667Y-31090D01*
X52675Y-31100D01*
X52684Y-31119D01*
X52684Y-31147D01*
X52675Y-31166D01*
X52667Y-31176D01*
X52650Y-31185D01*
X52581Y-31185D01*
X52752Y-31100D02*
X52761Y-31090D01*
X52778Y-31080D01*
X52821Y-31080D01*
X52838Y-31090D01*
X52847Y-31100D01*
X52855Y-31119D01*
X52855Y-31138D01*
X52847Y-31166D01*
X52744Y-31280D01*
X52855Y-31280D01*
X52967Y-31080D02*
X52984Y-31080D01*
X53001Y-31090D01*
X53010Y-31100D01*
X53018Y-31119D01*
X53027Y-31157D01*
X53027Y-31204D01*
X53018Y-31242D01*
X53010Y-31261D01*
X53001Y-31271D01*
X52984Y-31280D01*
X52967Y-31280D01*
X52950Y-31271D01*
X52941Y-31261D01*
X52932Y-31242D01*
X52924Y-31204D01*
X52924Y-31157D01*
X52932Y-31119D01*
X52941Y-31100D01*
X52950Y-31090D01*
X52967Y-31080D01*
X51534Y-30780D02*
X51474Y-30685D01*
X51431Y-30780D02*
X51431Y-30580D01*
X51500Y-30580D01*
X51517Y-30590D01*
X51525Y-30600D01*
X51534Y-30619D01*
X51534Y-30647D01*
X51525Y-30666D01*
X51517Y-30676D01*
X51500Y-30685D01*
X51431Y-30685D01*
X51705Y-30780D02*
X51602Y-30780D01*
X51654Y-30780D02*
X51654Y-30580D01*
X51637Y-30609D01*
X51620Y-30628D01*
X51602Y-30638D01*
X51791Y-30780D02*
X51825Y-30780D01*
X51842Y-30771D01*
X51851Y-30761D01*
X51868Y-30733D01*
X51877Y-30695D01*
X51877Y-30619D01*
X51868Y-30600D01*
X51860Y-30590D01*
X51842Y-30580D01*
X51808Y-30580D01*
X51791Y-30590D01*
X51782Y-30600D01*
X51774Y-30619D01*
X51774Y-30666D01*
X51782Y-30685D01*
X51791Y-30695D01*
X51808Y-30704D01*
X51842Y-30704D01*
X51860Y-30695D01*
X51868Y-30685D01*
X51877Y-30666D01*
X52684Y-30330D02*
X52624Y-30235D01*
X52581Y-30330D02*
X52581Y-30130D01*
X52650Y-30130D01*
X52667Y-30140D01*
X52675Y-30150D01*
X52684Y-30169D01*
X52684Y-30197D01*
X52675Y-30216D01*
X52667Y-30226D01*
X52650Y-30235D01*
X52581Y-30235D01*
X52855Y-30330D02*
X52752Y-30330D01*
X52804Y-30330D02*
X52804Y-30130D01*
X52787Y-30159D01*
X52770Y-30178D01*
X52752Y-30188D01*
X52958Y-30216D02*
X52941Y-30207D01*
X52932Y-30197D01*
X52924Y-30178D01*
X52924Y-30169D01*
X52932Y-30150D01*
X52941Y-30140D01*
X52958Y-30130D01*
X52992Y-30130D01*
X53010Y-30140D01*
X53018Y-30150D01*
X53027Y-30169D01*
X53027Y-30178D01*
X53018Y-30197D01*
X53010Y-30207D01*
X52992Y-30216D01*
X52958Y-30216D01*
X52941Y-30226D01*
X52932Y-30235D01*
X52924Y-30254D01*
X52924Y-30292D01*
X52932Y-30311D01*
X52941Y-30321D01*
X52958Y-30330D01*
X52992Y-30330D01*
X53010Y-30321D01*
X53018Y-30311D01*
X53027Y-30292D01*
X53027Y-30254D01*
X53018Y-30235D01*
X53010Y-30226D01*
X52992Y-30216D01*
X51534Y-29830D02*
X51474Y-29735D01*
X51431Y-29830D02*
X51431Y-29630D01*
X51500Y-29630D01*
X51517Y-29640D01*
X51525Y-29650D01*
X51534Y-29669D01*
X51534Y-29697D01*
X51525Y-29716D01*
X51517Y-29726D01*
X51500Y-29735D01*
X51431Y-29735D01*
X51705Y-29830D02*
X51602Y-29830D01*
X51654Y-29830D02*
X51654Y-29630D01*
X51637Y-29659D01*
X51620Y-29678D01*
X51602Y-29688D01*
X51765Y-29630D02*
X51885Y-29630D01*
X51808Y-29830D01*
X52684Y-29330D02*
X52624Y-29235D01*
X52581Y-29330D02*
X52581Y-29130D01*
X52650Y-29130D01*
X52667Y-29140D01*
X52675Y-29150D01*
X52684Y-29169D01*
X52684Y-29197D01*
X52675Y-29216D01*
X52667Y-29226D01*
X52650Y-29235D01*
X52581Y-29235D01*
X52855Y-29330D02*
X52752Y-29330D01*
X52804Y-29330D02*
X52804Y-29130D01*
X52787Y-29159D01*
X52770Y-29178D01*
X52752Y-29188D01*
X53010Y-29130D02*
X52975Y-29130D01*
X52958Y-29140D01*
X52950Y-29150D01*
X52932Y-29178D01*
X52924Y-29216D01*
X52924Y-29292D01*
X52932Y-29311D01*
X52941Y-29321D01*
X52958Y-29330D01*
X52992Y-29330D01*
X53010Y-29321D01*
X53018Y-29311D01*
X53027Y-29292D01*
X53027Y-29245D01*
X53018Y-29226D01*
X53010Y-29216D01*
X52992Y-29207D01*
X52958Y-29207D01*
X52941Y-29216D01*
X52932Y-29226D01*
X52924Y-29245D01*
X51534Y-28830D02*
X51474Y-28735D01*
X51431Y-28830D02*
X51431Y-28630D01*
X51500Y-28630D01*
X51517Y-28640D01*
X51525Y-28650D01*
X51534Y-28669D01*
X51534Y-28697D01*
X51525Y-28716D01*
X51517Y-28726D01*
X51500Y-28735D01*
X51431Y-28735D01*
X51705Y-28830D02*
X51602Y-28830D01*
X51654Y-28830D02*
X51654Y-28630D01*
X51637Y-28659D01*
X51620Y-28678D01*
X51602Y-28688D01*
X51868Y-28630D02*
X51782Y-28630D01*
X51774Y-28726D01*
X51782Y-28716D01*
X51800Y-28707D01*
X51842Y-28707D01*
X51860Y-28716D01*
X51868Y-28726D01*
X51877Y-28745D01*
X51877Y-28792D01*
X51868Y-28811D01*
X51860Y-28821D01*
X51842Y-28830D01*
X51800Y-28830D01*
X51782Y-28821D01*
X51774Y-28811D01*
G54D19*
X27686Y-22095D02*
X27286Y-22095D01*
X27286Y-21942D01*
X27305Y-21904D01*
X27325Y-21885D01*
X27363Y-21866D01*
X27420Y-21866D01*
X27458Y-21885D01*
X27477Y-21904D01*
X27496Y-21942D01*
X27496Y-22095D01*
X27686Y-21485D02*
X27686Y-21714D01*
X27686Y-21599D02*
X27286Y-21599D01*
X27344Y-21638D01*
X27382Y-21676D01*
X27401Y-21714D01*
G54D16*
X55432Y-19263D02*
X55403Y-19248D01*
X55375Y-19220D01*
X55332Y-19177D01*
X55303Y-19163D01*
X55275Y-19163D01*
X55289Y-19234D02*
X55261Y-19220D01*
X55232Y-19191D01*
X55218Y-19134D01*
X55218Y-19034D01*
X55232Y-18977D01*
X55261Y-18948D01*
X55289Y-18934D01*
X55346Y-18934D01*
X55375Y-18948D01*
X55403Y-18977D01*
X55418Y-19034D01*
X55418Y-19134D01*
X55403Y-19191D01*
X55375Y-19220D01*
X55346Y-19234D01*
X55289Y-19234D01*
X55703Y-19234D02*
X55532Y-19234D01*
X55618Y-19234D02*
X55618Y-18934D01*
X55589Y-18977D01*
X55561Y-19005D01*
X55532Y-19020D01*
G54D17*
X55579Y-20602D02*
X55382Y-20602D01*
X55523Y-20536D01*
X55382Y-20470D01*
X55579Y-20470D01*
X55579Y-20376D02*
X55382Y-20376D01*
X55523Y-20311D01*
X55382Y-20245D01*
X55579Y-20245D01*
X55476Y-20086D02*
X55485Y-20057D01*
X55495Y-20048D01*
X55514Y-20039D01*
X55542Y-20039D01*
X55560Y-20048D01*
X55570Y-20057D01*
X55579Y-20076D01*
X55579Y-20151D01*
X55382Y-20151D01*
X55382Y-20086D01*
X55392Y-20067D01*
X55401Y-20057D01*
X55420Y-20048D01*
X55439Y-20048D01*
X55457Y-20057D01*
X55467Y-20067D01*
X55476Y-20086D01*
X55476Y-20151D01*
X55382Y-19982D02*
X55382Y-19870D01*
X55579Y-19926D02*
X55382Y-19926D01*
X55382Y-19720D02*
X55382Y-19757D01*
X55392Y-19776D01*
X55401Y-19785D01*
X55429Y-19804D01*
X55467Y-19814D01*
X55542Y-19814D01*
X55560Y-19804D01*
X55570Y-19795D01*
X55579Y-19776D01*
X55579Y-19738D01*
X55570Y-19720D01*
X55560Y-19710D01*
X55542Y-19701D01*
X55495Y-19701D01*
X55476Y-19710D01*
X55467Y-19720D01*
X55457Y-19738D01*
X55457Y-19776D01*
X55467Y-19795D01*
X55476Y-19804D01*
X55495Y-19814D01*
X55448Y-19532D02*
X55579Y-19532D01*
X55373Y-19579D02*
X55514Y-19626D01*
X55514Y-19504D01*
X55401Y-19438D02*
X55392Y-19429D01*
X55382Y-19410D01*
X55382Y-19363D01*
X55392Y-19344D01*
X55401Y-19335D01*
X55420Y-19326D01*
X55439Y-19326D01*
X55467Y-19335D01*
X55579Y-19448D01*
X55579Y-19326D01*
X55382Y-19260D02*
X55382Y-19129D01*
X55579Y-19213D01*
M02*
