M48
;DRILL file {Pcbnew (2013-07-07 BZR 4022)-stable} date 1/31/2015 10:55:22 PM
;FORMAT={-:-/ absolute / inch / decimal}
FMAT,2
INCH,TZ
T1C0.025
T2C0.030
T3C0.039
T4C0.040
%
G90
G05
M72
T1
X2.655Y-3.26
X2.66Y-2.875
X2.665Y-4.09
X2.705Y-3.175
X2.755Y-2.985
X2.76Y-3.045
X2.775Y-2.85
X2.78Y-2.93
X2.905Y-3.085
X2.925Y-2.825
X3.075Y-2.855
X3.17Y-2.87
X3.1975Y-3.88
X3.225Y-3.325
X3.235Y-3.5425
X3.245Y-3.59
X3.285Y-2.79
X3.31Y-2.985
X3.345Y-2.95
X3.365Y-3.02
X3.385Y-2.4125
X3.42Y-2.06
X3.445Y-2.1075
X3.455Y-2.905
X3.4725Y-2.2775
X3.555Y-3.105
X3.56Y-3.88
X3.5625Y-3.5425
X3.57Y-3.5975
X3.66Y-2.695
X3.695Y-3.15
X3.71Y-2.73
X3.7375Y-2.06
X3.7525Y-2.1125
X3.7525Y-2.41
X3.785Y-2.67
X3.8125Y-3.835
X3.815Y-2.7775
X3.815Y-3.5575
X3.85Y-3.755
X3.905Y-3.705
X3.93Y-3.07
X3.9675Y-2.3475
X3.97Y-2.4475
X3.995Y-3.54
X4.Y-3.8
X4.015Y-2.2525
X4.015Y-2.51
X4.0325Y-3.0675
X4.0525Y-2.2
X4.055Y-2.4575
X4.0925Y-2.1475
X4.0975Y-2.515
X4.1Y-1.915
X4.11Y-3.07
X4.145Y-2.4575
X4.195Y-2.0925
X4.2025Y-2.43
X4.23Y-3.0625
X4.245Y-2.045
X4.2875Y-3.555
X4.2875Y-3.8775
X4.3Y-3.225
X4.3375Y-3.665
X4.3775Y-3.23
X4.395Y-3.8825
X4.4225Y-3.5725
X4.425Y-2.65
X4.4375Y-3.16
X4.475Y-3.325
X4.51Y-3.17
X4.535Y-2.43
X4.5375Y-2.0475
X4.5525Y-2.1125
X4.585Y-2.895
X4.585Y-3.17
X4.59Y-2.645
X4.67Y-2.265
X4.69Y-2.49
X4.715Y-2.79
X4.73Y-2.45
X4.735Y-3.565
X4.7425Y-3.615
X4.745Y-3.095
X4.745Y-3.88
X4.8025Y-2.435
X4.8125Y-2.0625
X4.82Y-2.125
X4.925Y-2.27
X4.93Y-3.17
X4.96Y-2.33
X4.96Y-2.91
X4.9675Y-3.8775
X4.995Y-2.985
X5.0125Y-3.545
X5.015Y-3.6025
X5.03Y-3.07
X5.065Y-2.985
X5.1275Y-2.06
X5.1325Y-2.42
X5.1375Y-2.1275
X5.285Y-2.48
X5.2925Y-3.875
X5.315Y-3.605
X5.3275Y-3.55
X5.388Y-2.131
X5.4Y-3.07
X5.41Y-1.89
X5.425Y-3.165
X5.445Y-2.275
X5.447Y-2.043
X5.45Y-2.41
X5.45Y-3.115
X5.455Y-2.84
X5.49Y-2.65
X5.495Y-2.605
X5.5Y-2.5
X5.535Y-2.98
X5.585Y-2.935
X5.635Y-2.55
X5.635Y-3.57
X5.635Y-3.645
X5.635Y-4.09
X5.65Y-2.4
T2
X3.04Y-2.675
X3.335Y-3.3
X3.435Y-2.67
X3.625Y-3.04
X3.735Y-3.3
X3.84Y-3.19
X4.135Y-3.3
X4.29Y-3.14
X4.49Y-2.825
X4.5Y-3.1
X4.74Y-3.285
X4.985Y-2.71
X5.55Y-3.28
T3
X2.7559Y-3.4354
X2.7559Y-4.0354
X2.8528Y-3.4354
X2.8528Y-4.0354
X2.9496Y-3.4354
X2.9496Y-4.0354
X2.9528Y-1.9591
X2.9528Y-2.5591
X3.0465Y-3.4354
X3.0465Y-4.0354
X3.0496Y-1.9591
X3.0496Y-2.5591
X3.1433Y-3.4354
X3.1433Y-4.0354
X3.1465Y-1.9591
X3.1465Y-2.5591
X3.2433Y-1.9591
X3.2433Y-2.5591
X3.3402Y-1.9591
X3.3402Y-2.5591
X3.3465Y-3.4354
X3.3465Y-4.0354
X3.4433Y-3.4354
X3.4433Y-4.0354
X3.5402Y-3.4354
X3.5402Y-4.0354
X3.5433Y-1.9591
X3.5433Y-2.5591
X3.637Y-3.4354
X3.637Y-4.0354
X3.6402Y-1.9591
X3.6402Y-2.5591
X3.7339Y-3.4354
X3.7339Y-4.0354
X3.737Y-1.9591
X3.737Y-2.5591
X3.8339Y-1.9591
X3.8339Y-2.5591
X3.9307Y-1.9591
X3.9307Y-2.5591
X3.937Y-2.8449
X3.937Y-3.4449
X4.0339Y-2.8449
X4.0339Y-3.4449
X4.1307Y-2.8449
X4.1307Y-3.4449
X4.2276Y-2.8449
X4.2276Y-3.4449
X4.3244Y-2.8449
X4.3244Y-3.4449
X4.3307Y-1.9591
X4.3307Y-2.5591
X4.4276Y-1.9591
X4.4276Y-2.5591
X4.5244Y-1.9591
X4.5244Y-2.5591
X4.5276Y-3.4354
X4.5276Y-4.0354
X4.6213Y-1.9591
X4.6213Y-2.5591
X4.6244Y-3.4354
X4.6244Y-4.0354
X4.7181Y-1.9591
X4.7181Y-2.5591
X4.7213Y-3.4354
X4.7213Y-4.0354
X4.8181Y-3.4354
X4.8181Y-4.0354
X4.915Y-3.4354
X4.915Y-4.0354
X4.9213Y-1.9591
X4.9213Y-2.5591
X5.0181Y-1.9591
X5.0181Y-2.5591
X5.115Y-1.9591
X5.115Y-2.5591
X5.1181Y-3.4354
X5.1181Y-4.0354
X5.2118Y-1.9591
X5.2118Y-2.5591
X5.215Y-3.4354
X5.215Y-4.0354
X5.3087Y-1.9591
X5.3087Y-2.5591
X5.3118Y-3.4354
X5.3118Y-4.0354
X5.4087Y-3.4354
X5.4087Y-4.0354
X5.5055Y-3.4354
X5.5055Y-4.0354
T4
X2.6675Y-1.93
X2.6675Y-2.03
X2.6675Y-2.13
X2.6675Y-2.23
X2.6675Y-2.33
X2.6675Y-2.43
T0
M30
