G04 (created by PCBNEW (2013-07-07 BZR 4022)-stable) date 1/31/2015 10:55:12 PM*
%MOIN*%
G04 Gerber Fmt 3.4, Leading zero omitted, Abs format*
%FSLAX34Y34*%
G01*
G70*
G90*
G04 APERTURE LIST*
%ADD10C,0.00590551*%
%ADD11R,0.05X0.015*%
%ADD12R,0.0394X0.0315*%
%ADD13R,0.0708661X0.0708661*%
%ADD14C,0.0708661*%
%ADD15R,0.06X0.08*%
%ADD16R,0.045X0.025*%
%ADD17R,0.025X0.045*%
%ADD18R,0.06X0.06*%
%ADD19C,0.06*%
%ADD20C,0.035*%
%ADD21C,0.04*%
%ADD22C,0.01*%
%ADD23C,0.02*%
G04 APERTURE END LIST*
G54D10*
G54D11*
X49002Y-31196D03*
X49002Y-30940D03*
X49002Y-30684D03*
X49002Y-30428D03*
X49002Y-30172D03*
X49002Y-29916D03*
X49002Y-29660D03*
X49002Y-29404D03*
X46798Y-29404D03*
X46798Y-29660D03*
X46798Y-29916D03*
X46798Y-30172D03*
X46798Y-30428D03*
X46798Y-30684D03*
X46798Y-30940D03*
X46798Y-31196D03*
X30652Y-30896D03*
X30652Y-30640D03*
X30652Y-30384D03*
X30652Y-30128D03*
X30652Y-29872D03*
X30652Y-29616D03*
X30652Y-29360D03*
X30652Y-29104D03*
X28448Y-29104D03*
X28448Y-29360D03*
X28448Y-29616D03*
X28448Y-29872D03*
X28448Y-30128D03*
X28448Y-30384D03*
X28448Y-30640D03*
X28448Y-30896D03*
G54D12*
X34767Y-27300D03*
X35633Y-26925D03*
X35633Y-27675D03*
X55067Y-21300D03*
X55933Y-20925D03*
X55933Y-21675D03*
X55067Y-22700D03*
X55933Y-22325D03*
X55933Y-23075D03*
X55067Y-24100D03*
X55933Y-23725D03*
X55933Y-24475D03*
X54683Y-32750D03*
X53817Y-33125D03*
X53817Y-32375D03*
X55067Y-28400D03*
X55933Y-28025D03*
X55933Y-28775D03*
X55067Y-27000D03*
X55933Y-26625D03*
X55933Y-27375D03*
X55067Y-25550D03*
X55933Y-25175D03*
X55933Y-25925D03*
X30567Y-27300D03*
X31433Y-26925D03*
X31433Y-27675D03*
X44917Y-27350D03*
X45783Y-26975D03*
X45783Y-27725D03*
X50267Y-27300D03*
X51133Y-26925D03*
X51133Y-27675D03*
X46783Y-32750D03*
X45917Y-33125D03*
X45917Y-32375D03*
X36283Y-32700D03*
X35417Y-33075D03*
X35417Y-32325D03*
X30383Y-32700D03*
X29517Y-33075D03*
X29517Y-32325D03*
G54D13*
X33464Y-40354D03*
G54D14*
X34433Y-40354D03*
X35401Y-40354D03*
X36370Y-40354D03*
X37338Y-40354D03*
X37338Y-34354D03*
X36370Y-34354D03*
X35401Y-34354D03*
X34433Y-34354D03*
X33464Y-34354D03*
G54D13*
X45275Y-40354D03*
G54D14*
X46244Y-40354D03*
X47212Y-40354D03*
X48181Y-40354D03*
X49149Y-40354D03*
X49149Y-34354D03*
X48181Y-34354D03*
X47212Y-34354D03*
X46244Y-34354D03*
X45275Y-34354D03*
G54D13*
X27559Y-40354D03*
G54D14*
X28527Y-40354D03*
X29496Y-40354D03*
X30464Y-40354D03*
X31433Y-40354D03*
X31433Y-34354D03*
X30464Y-34354D03*
X29496Y-34354D03*
X28527Y-34354D03*
X27559Y-34354D03*
G54D13*
X51181Y-40354D03*
G54D14*
X52149Y-40354D03*
X53118Y-40354D03*
X54086Y-40354D03*
X55055Y-40354D03*
X55055Y-34354D03*
X54086Y-34354D03*
X53118Y-34354D03*
X52149Y-34354D03*
X51181Y-34354D03*
G54D13*
X49212Y-25590D03*
G54D14*
X50181Y-25590D03*
X51149Y-25590D03*
X52118Y-25590D03*
X53086Y-25590D03*
X53086Y-19590D03*
X52118Y-19590D03*
X51149Y-19590D03*
X50181Y-19590D03*
X49212Y-19590D03*
G54D13*
X39370Y-34448D03*
G54D14*
X40338Y-34448D03*
X41307Y-34448D03*
X42275Y-34448D03*
X43244Y-34448D03*
X43244Y-28448D03*
X42275Y-28448D03*
X41307Y-28448D03*
X40338Y-28448D03*
X39370Y-28448D03*
G54D13*
X43307Y-25590D03*
G54D14*
X44275Y-25590D03*
X45244Y-25590D03*
X46212Y-25590D03*
X47181Y-25590D03*
X47181Y-19590D03*
X46212Y-19590D03*
X45244Y-19590D03*
X44275Y-19590D03*
X43307Y-19590D03*
G54D13*
X29527Y-25590D03*
G54D14*
X30496Y-25590D03*
X31464Y-25590D03*
X32433Y-25590D03*
X33401Y-25590D03*
X33401Y-19590D03*
X32433Y-19590D03*
X31464Y-19590D03*
X30496Y-19590D03*
X29527Y-19590D03*
G54D13*
X35433Y-25590D03*
G54D14*
X36401Y-25590D03*
X37370Y-25590D03*
X38338Y-25590D03*
X39307Y-25590D03*
X39307Y-19590D03*
X38338Y-19590D03*
X37370Y-19590D03*
X36401Y-19590D03*
X35433Y-19590D03*
G54D15*
X46550Y-28550D03*
X47850Y-28550D03*
X28600Y-28250D03*
X29900Y-28250D03*
G54D16*
X32200Y-28250D03*
X32200Y-27650D03*
G54D17*
X44700Y-32350D03*
X45300Y-32350D03*
G54D16*
X36400Y-28300D03*
X36400Y-27700D03*
G54D17*
X47500Y-27300D03*
X46900Y-27300D03*
X48750Y-27650D03*
X49350Y-27650D03*
X37050Y-30800D03*
X37650Y-30800D03*
X28300Y-32400D03*
X28900Y-32400D03*
X34200Y-32250D03*
X34800Y-32250D03*
X52500Y-32150D03*
X53100Y-32150D03*
X51350Y-31600D03*
X51950Y-31600D03*
X52500Y-31200D03*
X53100Y-31200D03*
X51350Y-30700D03*
X51950Y-30700D03*
X52500Y-30250D03*
X53100Y-30250D03*
X51350Y-29750D03*
X51950Y-29750D03*
X52500Y-29250D03*
X53100Y-29250D03*
X51350Y-28750D03*
X51950Y-28750D03*
G54D18*
X26675Y-19300D03*
G54D19*
X26675Y-20300D03*
X26675Y-21300D03*
X26675Y-22300D03*
X26675Y-23300D03*
X26675Y-24300D03*
G54D12*
X55067Y-19900D03*
X55933Y-19525D03*
X55933Y-20275D03*
G54D20*
X36600Y-26950D03*
X54470Y-20430D03*
X42300Y-30625D03*
X40925Y-21475D03*
X40975Y-25150D03*
X51375Y-21275D03*
X48200Y-21250D03*
X41950Y-20925D03*
X45525Y-21125D03*
X37525Y-21125D03*
X34450Y-21075D03*
X53150Y-36050D03*
X50150Y-36025D03*
X47425Y-36150D03*
X43375Y-36650D03*
X35700Y-35975D03*
X32450Y-35900D03*
X53880Y-21310D03*
X41450Y-24575D03*
X51275Y-20600D03*
X48125Y-20625D03*
X42450Y-20450D03*
X45375Y-20475D03*
X37375Y-20600D03*
X34200Y-20600D03*
X53275Y-35500D03*
X50125Y-35450D03*
X47350Y-35650D03*
X44225Y-35725D03*
X35625Y-35425D03*
X32350Y-35425D03*
X54450Y-22750D03*
X44375Y-31600D03*
X43775Y-32300D03*
X51325Y-24200D03*
X48025Y-24350D03*
X42025Y-24300D03*
X45350Y-24300D03*
X37525Y-24100D03*
X33850Y-24125D03*
X42875Y-38775D03*
X42875Y-35550D03*
X52925Y-38750D03*
X49675Y-38775D03*
X47450Y-38800D03*
X43950Y-38825D03*
X35600Y-38800D03*
X31975Y-38800D03*
X27800Y-29300D03*
X33450Y-29500D03*
X54500Y-24100D03*
X39700Y-24475D03*
X39675Y-23475D03*
X38125Y-38350D03*
X38150Y-35575D03*
X33650Y-30200D03*
X27750Y-28500D03*
X26600Y-28750D03*
X27600Y-30450D03*
X49600Y-23300D03*
X52850Y-24800D03*
X55000Y-25000D03*
X34725Y-22775D03*
X38150Y-27775D03*
X40000Y-38000D03*
X39950Y-35400D03*
X40325Y-30675D03*
X49250Y-22700D03*
X47300Y-24500D03*
X54900Y-26500D03*
X40550Y-24575D03*
X40525Y-22000D03*
X39050Y-37050D03*
X39300Y-30700D03*
X38500Y-37550D03*
X46700Y-22650D03*
X46900Y-24900D03*
X54550Y-28400D03*
X40150Y-25100D03*
X40150Y-22525D03*
X27550Y-29850D03*
X33100Y-29850D03*
X43000Y-32250D03*
X47150Y-27900D03*
X45100Y-31700D03*
X44750Y-33250D03*
X41000Y-19150D03*
X32250Y-33250D03*
X27050Y-31750D03*
X26550Y-32600D03*
X26650Y-40900D03*
X56350Y-40900D03*
X56350Y-36450D03*
X56350Y-35700D03*
X56500Y-24000D03*
X56350Y-25500D03*
X54100Y-18900D03*
X30750Y-28550D03*
X41100Y-30700D03*
X45900Y-26450D03*
X44250Y-26500D03*
X37850Y-26700D03*
X37100Y-27300D03*
X36950Y-31500D03*
X35550Y-31050D03*
X29050Y-30850D03*
X31700Y-28700D03*
X54950Y-26050D03*
X54000Y-30700D03*
X54500Y-31150D03*
X55350Y-29800D03*
X54250Y-31650D03*
X55850Y-29350D03*
X49600Y-29100D03*
X47450Y-30950D03*
X49950Y-29850D03*
X49300Y-31700D03*
X50650Y-29850D03*
X50300Y-30700D03*
X29250Y-28250D03*
X45850Y-31700D03*
X45850Y-28950D03*
X34550Y-29050D03*
X32850Y-27900D03*
G54D21*
X38400Y-31900D03*
X41350Y-33000D03*
X42900Y-31400D03*
X45000Y-31000D03*
X44900Y-28250D03*
X33350Y-33000D03*
X37350Y-33000D03*
X34350Y-26700D03*
X36250Y-30400D03*
X49850Y-27100D03*
X55500Y-32800D03*
X47400Y-32850D03*
X30400Y-26750D03*
G54D22*
X31433Y-26925D02*
X31433Y-25622D01*
X31433Y-25622D02*
X31464Y-25590D01*
X35633Y-26925D02*
X36575Y-26925D01*
X36575Y-26925D02*
X36600Y-26950D01*
X45783Y-26975D02*
X45775Y-26975D01*
X45244Y-26444D02*
X45244Y-25590D01*
X45775Y-26975D02*
X45244Y-26444D01*
X51133Y-26925D02*
X51133Y-25607D01*
X51133Y-25607D02*
X51149Y-25590D01*
X29517Y-33075D02*
X29517Y-34333D01*
X29517Y-34333D02*
X29496Y-34354D01*
X35417Y-33075D02*
X35417Y-34338D01*
X35417Y-34338D02*
X35401Y-34354D01*
X45917Y-33125D02*
X45983Y-33125D01*
X45983Y-33125D02*
X47212Y-34354D01*
X53817Y-33125D02*
X53475Y-33125D01*
X53118Y-33481D02*
X53118Y-34354D01*
X53475Y-33125D02*
X53118Y-33481D01*
X44000Y-33700D02*
X43000Y-33700D01*
X44000Y-34950D02*
X43375Y-35575D01*
X44000Y-33700D02*
X44000Y-34950D01*
X43375Y-36650D02*
X43375Y-35575D01*
X42350Y-33050D02*
X42350Y-31575D01*
X43000Y-33700D02*
X42350Y-33050D01*
X55000Y-19900D02*
X55067Y-19900D01*
X54470Y-20430D02*
X55000Y-19900D01*
X42300Y-30625D02*
X42300Y-31525D01*
X42300Y-31525D02*
X42350Y-31575D01*
X40925Y-25100D02*
X40925Y-21475D01*
X40975Y-25150D02*
X40925Y-25100D01*
X48225Y-21275D02*
X51375Y-21275D01*
X48200Y-21250D02*
X48225Y-21275D01*
X41950Y-20925D02*
X42150Y-21125D01*
X42150Y-21125D02*
X45525Y-21125D01*
X34500Y-21125D02*
X37525Y-21125D01*
X34450Y-21075D02*
X34500Y-21125D01*
X42350Y-31575D02*
X42350Y-31575D01*
X50175Y-36050D02*
X53150Y-36050D01*
X50150Y-36025D02*
X50175Y-36050D01*
X43875Y-36150D02*
X47425Y-36150D01*
X43375Y-36650D02*
X43875Y-36150D01*
X32525Y-35975D02*
X35700Y-35975D01*
X32450Y-35900D02*
X32525Y-35975D01*
X55067Y-21300D02*
X53890Y-21300D01*
X53890Y-21300D02*
X53880Y-21310D01*
X41750Y-20450D02*
X42450Y-20450D01*
X41550Y-20650D02*
X41750Y-20450D01*
X41550Y-24475D02*
X41550Y-20650D01*
X41450Y-24575D02*
X41550Y-24475D01*
X48150Y-20600D02*
X51275Y-20600D01*
X48125Y-20625D02*
X48150Y-20600D01*
X42450Y-20450D02*
X42475Y-20475D01*
X42475Y-20475D02*
X45375Y-20475D01*
X34200Y-20600D02*
X37375Y-20600D01*
X50175Y-35500D02*
X53275Y-35500D01*
X50125Y-35450D02*
X50175Y-35500D01*
X44300Y-35650D02*
X47350Y-35650D01*
X44225Y-35725D02*
X44300Y-35650D01*
X32350Y-35425D02*
X35625Y-35425D01*
X54500Y-22700D02*
X55067Y-22700D01*
X54450Y-22750D02*
X54500Y-22700D01*
X44375Y-31700D02*
X44375Y-31600D01*
X43775Y-32300D02*
X44375Y-31700D01*
X48175Y-24200D02*
X51325Y-24200D01*
X48025Y-24350D02*
X48175Y-24200D01*
X42025Y-24300D02*
X45350Y-24300D01*
X33875Y-24100D02*
X37525Y-24100D01*
X33850Y-24125D02*
X33875Y-24100D01*
X42875Y-35550D02*
X42875Y-38775D01*
X49700Y-38750D02*
X52925Y-38750D01*
X49675Y-38775D02*
X49700Y-38750D01*
X43975Y-38800D02*
X47450Y-38800D01*
X43950Y-38825D02*
X43975Y-38800D01*
X31975Y-38800D02*
X35600Y-38800D01*
X46798Y-29916D02*
X45466Y-29916D01*
X27866Y-29616D02*
X28448Y-29616D01*
X27800Y-29550D02*
X27866Y-29616D01*
X27800Y-29300D02*
X27800Y-29550D01*
X34650Y-29500D02*
X33450Y-29500D01*
X34850Y-29300D02*
X34650Y-29500D01*
X44850Y-29300D02*
X34850Y-29300D01*
X45466Y-29916D02*
X44850Y-29300D01*
X55067Y-24100D02*
X54500Y-24100D01*
X39700Y-24475D02*
X39675Y-24450D01*
X39675Y-24450D02*
X39675Y-23475D01*
X38125Y-35600D02*
X38125Y-38350D01*
X38150Y-35575D02*
X38125Y-35600D01*
X46798Y-30684D02*
X45484Y-30684D01*
X34650Y-30200D02*
X33650Y-30200D01*
X35050Y-29800D02*
X34650Y-30200D01*
X44600Y-29800D02*
X35050Y-29800D01*
X45484Y-30684D02*
X44600Y-29800D01*
X28448Y-30384D02*
X27666Y-30384D01*
X26850Y-28500D02*
X27750Y-28500D01*
X26600Y-28750D02*
X26850Y-28500D01*
X27666Y-30384D02*
X27600Y-30450D01*
X55067Y-25550D02*
X55067Y-25067D01*
X52400Y-23300D02*
X49600Y-23300D01*
X52750Y-23650D02*
X52400Y-23300D01*
X52750Y-24700D02*
X52750Y-23650D01*
X52850Y-24800D02*
X52750Y-24700D01*
X55067Y-25067D02*
X55000Y-25000D01*
X34350Y-23150D02*
X34725Y-22775D01*
X34025Y-23150D02*
X34350Y-23150D01*
X33300Y-23875D02*
X34025Y-23150D01*
X33300Y-24300D02*
X33300Y-23875D01*
X33450Y-24450D02*
X33300Y-24300D01*
X33700Y-24450D02*
X33450Y-24450D01*
X34325Y-25075D02*
X33700Y-24450D01*
X34325Y-25575D02*
X34325Y-25075D01*
X35075Y-26325D02*
X34325Y-25575D01*
X36700Y-26325D02*
X35075Y-26325D01*
X38150Y-27775D02*
X36700Y-26325D01*
X40000Y-35450D02*
X40000Y-38000D01*
X39950Y-35400D02*
X40000Y-35450D01*
X38750Y-36625D02*
X38750Y-36600D01*
X39900Y-31100D02*
X40325Y-30675D01*
X38550Y-31100D02*
X39900Y-31100D01*
X38000Y-31650D02*
X38550Y-31100D01*
X38000Y-32350D02*
X38000Y-31650D01*
X38050Y-32400D02*
X38000Y-32350D01*
X38050Y-33600D02*
X38050Y-32400D01*
X38200Y-33750D02*
X38050Y-33600D01*
X38200Y-34600D02*
X38200Y-33750D01*
X38950Y-35350D02*
X38200Y-34600D01*
X38950Y-36400D02*
X38950Y-35350D01*
X38750Y-36600D02*
X38950Y-36400D01*
X55067Y-27000D02*
X55067Y-26667D01*
X47400Y-22700D02*
X49250Y-22700D01*
X47000Y-23100D02*
X47400Y-22700D01*
X47000Y-24200D02*
X47000Y-23100D01*
X47300Y-24500D02*
X47000Y-24200D01*
X55067Y-26667D02*
X54900Y-26500D01*
X40525Y-22000D02*
X40525Y-24550D01*
X40525Y-24550D02*
X40550Y-24575D01*
X38750Y-36625D02*
X38750Y-36750D01*
X38750Y-36750D02*
X39050Y-37050D01*
X38750Y-36625D02*
X38750Y-36650D01*
X39300Y-30700D02*
X38650Y-30700D01*
X38500Y-36500D02*
X38500Y-37550D01*
X38550Y-36450D02*
X38500Y-36500D01*
X38550Y-35450D02*
X38550Y-36450D01*
X38300Y-35200D02*
X38550Y-35450D01*
X38000Y-35200D02*
X38300Y-35200D01*
X37950Y-35150D02*
X38000Y-35200D01*
X37950Y-34050D02*
X37950Y-35150D01*
X37800Y-33900D02*
X37950Y-34050D01*
X37800Y-32550D02*
X37800Y-33900D01*
X37700Y-32450D02*
X37800Y-32550D01*
X37700Y-31650D02*
X37700Y-32450D01*
X38650Y-30700D02*
X37700Y-31650D01*
X55067Y-28400D02*
X54550Y-28400D01*
X46700Y-24700D02*
X46700Y-22650D01*
X46900Y-24900D02*
X46700Y-24700D01*
X40150Y-25100D02*
X40150Y-22525D01*
X46798Y-30172D02*
X45322Y-30172D01*
X27572Y-29872D02*
X28448Y-29872D01*
X27550Y-29850D02*
X27572Y-29872D01*
X34650Y-29850D02*
X33100Y-29850D01*
X34950Y-29550D02*
X34650Y-29850D01*
X44700Y-29550D02*
X34950Y-29550D01*
X45322Y-30172D02*
X44700Y-29550D01*
X44750Y-33250D02*
X44000Y-33250D01*
X44000Y-33250D02*
X43000Y-32250D01*
X47800Y-28550D02*
X47150Y-27900D01*
X47850Y-28550D02*
X47800Y-28550D01*
X44750Y-33250D02*
X44700Y-33250D01*
X41000Y-19150D02*
X41050Y-19200D01*
X32250Y-33250D02*
X32300Y-33250D01*
X27050Y-32100D02*
X27050Y-31750D01*
X26550Y-32600D02*
X27050Y-32100D01*
X26850Y-41100D02*
X26650Y-40900D01*
X56150Y-41100D02*
X26850Y-41100D01*
X56350Y-40900D02*
X56150Y-41100D01*
X56350Y-35700D02*
X56350Y-36450D01*
X55933Y-28025D02*
X56275Y-28025D01*
X56350Y-27950D02*
X56350Y-26208D01*
X56275Y-28025D02*
X56350Y-27950D01*
X56350Y-25500D02*
X56350Y-26208D01*
X56350Y-26208D02*
X55933Y-26625D01*
X55933Y-25175D02*
X56025Y-25175D01*
X56450Y-23950D02*
X56450Y-23600D01*
X56500Y-24000D02*
X56450Y-23950D01*
X56025Y-25175D02*
X56350Y-25500D01*
X55933Y-23725D02*
X56325Y-23725D01*
X56450Y-23600D02*
X56450Y-22250D01*
X56325Y-23725D02*
X56450Y-23600D01*
X55933Y-22325D02*
X56375Y-22325D01*
X56450Y-22250D02*
X56450Y-20650D01*
X56375Y-22325D02*
X56450Y-22250D01*
X55933Y-20925D02*
X56175Y-20925D01*
X56450Y-20650D02*
X56450Y-19450D01*
X56175Y-20925D02*
X56450Y-20650D01*
X56375Y-19525D02*
X55933Y-19525D01*
X56450Y-19450D02*
X56375Y-19525D01*
X56450Y-18900D02*
X56450Y-19450D01*
X54100Y-18900D02*
X56450Y-18900D01*
X46798Y-30428D02*
X47172Y-30428D01*
X47850Y-29350D02*
X47850Y-28550D01*
X47550Y-29650D02*
X47850Y-29350D01*
X47550Y-30050D02*
X47550Y-29650D01*
X47172Y-30428D02*
X47550Y-30050D01*
X49002Y-29404D02*
X49002Y-29252D01*
X48300Y-28550D02*
X47850Y-28550D01*
X49002Y-29252D02*
X48300Y-28550D01*
X28448Y-30128D02*
X28922Y-30128D01*
X29900Y-28850D02*
X29900Y-28250D01*
X29200Y-29550D02*
X29900Y-28850D01*
X29200Y-29850D02*
X29200Y-29550D01*
X28922Y-30128D02*
X29200Y-29850D01*
X30652Y-28648D02*
X30652Y-29104D01*
X30750Y-28550D02*
X30652Y-28648D01*
X29900Y-28250D02*
X29900Y-28352D01*
X29900Y-28352D02*
X30652Y-29104D01*
X46900Y-27300D02*
X46600Y-27300D01*
X46175Y-27725D02*
X45783Y-27725D01*
X46600Y-27300D02*
X46175Y-27725D01*
X49350Y-27650D02*
X51108Y-27650D01*
X51108Y-27650D02*
X51133Y-27675D01*
X38150Y-30800D02*
X38750Y-30200D01*
X38750Y-30200D02*
X40600Y-30200D01*
X40600Y-30200D02*
X41100Y-30700D01*
X37650Y-30800D02*
X38150Y-30800D01*
X28900Y-32400D02*
X29442Y-32400D01*
X29442Y-32400D02*
X29517Y-32325D01*
X35417Y-32325D02*
X34875Y-32325D01*
X34875Y-32325D02*
X34800Y-32250D01*
X45300Y-32350D02*
X45892Y-32350D01*
X45892Y-32350D02*
X45917Y-32375D01*
X36400Y-27700D02*
X35658Y-27700D01*
X35658Y-27700D02*
X35633Y-27675D01*
X31433Y-27675D02*
X32175Y-27675D01*
X32175Y-27675D02*
X32200Y-27650D01*
X30652Y-30896D02*
X31504Y-30896D01*
X34100Y-28300D02*
X36400Y-28300D01*
X31504Y-30896D02*
X34100Y-28300D01*
X47500Y-27300D02*
X47500Y-26900D01*
X42000Y-27800D02*
X42900Y-26900D01*
X42900Y-26900D02*
X45200Y-26900D01*
X45200Y-26900D02*
X45400Y-27100D01*
X45400Y-27100D02*
X45400Y-27300D01*
X45400Y-27300D02*
X45450Y-27350D01*
X45450Y-27350D02*
X46150Y-27350D01*
X46150Y-27350D02*
X46650Y-26850D01*
X46650Y-26850D02*
X47050Y-26850D01*
X47050Y-26850D02*
X47100Y-26900D01*
X47100Y-26900D02*
X47500Y-26900D01*
X38600Y-27800D02*
X38600Y-27050D01*
X31477Y-30640D02*
X34017Y-28099D01*
X34017Y-28099D02*
X35950Y-28099D01*
X35950Y-28099D02*
X36050Y-28000D01*
X36050Y-28000D02*
X37850Y-28000D01*
X37850Y-28000D02*
X38000Y-28150D01*
X38000Y-28150D02*
X38250Y-28150D01*
X38250Y-28150D02*
X38600Y-27800D01*
X31477Y-30640D02*
X30652Y-30640D01*
X40100Y-27600D02*
X40300Y-27800D01*
X40100Y-26850D02*
X40100Y-27600D01*
X39900Y-26650D02*
X40100Y-26850D01*
X39000Y-26650D02*
X39900Y-26650D01*
X38600Y-27050D02*
X39000Y-26650D01*
X40300Y-27800D02*
X42000Y-27800D01*
X30652Y-30384D02*
X31416Y-30384D01*
X47600Y-26500D02*
X48750Y-27650D01*
X45950Y-26500D02*
X47600Y-26500D01*
X45900Y-26450D02*
X45950Y-26500D01*
X42700Y-26500D02*
X44250Y-26500D01*
X41900Y-25700D02*
X42700Y-26500D01*
X40850Y-25700D02*
X41900Y-25700D01*
X40200Y-26350D02*
X40850Y-25700D01*
X38200Y-26350D02*
X40200Y-26350D01*
X37850Y-26700D02*
X38200Y-26350D01*
X35350Y-27300D02*
X37100Y-27300D01*
X35250Y-27400D02*
X35350Y-27300D01*
X35250Y-27600D02*
X35250Y-27400D01*
X35000Y-27850D02*
X35250Y-27600D01*
X33950Y-27850D02*
X35000Y-27850D01*
X31416Y-30384D02*
X33950Y-27850D01*
X30652Y-30128D02*
X30222Y-30128D01*
X37050Y-31400D02*
X37050Y-30800D01*
X36950Y-31500D02*
X37050Y-31400D01*
X34850Y-31050D02*
X35550Y-31050D01*
X34500Y-31400D02*
X34850Y-31050D01*
X30350Y-31400D02*
X34500Y-31400D01*
X30150Y-31200D02*
X30350Y-31400D01*
X30150Y-30200D02*
X30150Y-31200D01*
X30222Y-30128D02*
X30150Y-30200D01*
X29900Y-30550D02*
X29900Y-31500D01*
X30028Y-29872D02*
X29900Y-30000D01*
X29900Y-30000D02*
X29900Y-30550D01*
X30652Y-29872D02*
X30028Y-29872D01*
X28450Y-31950D02*
X28300Y-32100D01*
X29450Y-31950D02*
X28450Y-31950D01*
X29900Y-31500D02*
X29450Y-31950D01*
X28300Y-32150D02*
X28300Y-32400D01*
X29650Y-30450D02*
X29650Y-31400D01*
X29984Y-29616D02*
X29650Y-29950D01*
X29650Y-29950D02*
X29650Y-30450D01*
X27900Y-32200D02*
X27900Y-32600D01*
X27900Y-32600D02*
X28150Y-32850D01*
X28150Y-32850D02*
X29100Y-32850D01*
X29100Y-32850D02*
X29250Y-32700D01*
X29250Y-32700D02*
X29800Y-32700D01*
X29800Y-32700D02*
X30000Y-32500D01*
X30000Y-32500D02*
X30000Y-32200D01*
X30000Y-32200D02*
X30200Y-32000D01*
X30200Y-32000D02*
X33950Y-32000D01*
X34200Y-32250D02*
X33950Y-32000D01*
X29984Y-29616D02*
X30652Y-29616D01*
X27900Y-32050D02*
X27900Y-32200D01*
X28250Y-31700D02*
X27900Y-32050D01*
X29350Y-31700D02*
X28250Y-31700D01*
X29650Y-31400D02*
X29350Y-31700D01*
X30652Y-29360D02*
X29940Y-29360D01*
X44700Y-32700D02*
X44700Y-32350D01*
X44750Y-32750D02*
X44700Y-32700D01*
X46200Y-32750D02*
X44750Y-32750D01*
X46350Y-32900D02*
X46200Y-32750D01*
X46350Y-33050D02*
X46350Y-32900D01*
X46750Y-33450D02*
X46350Y-33050D01*
X49400Y-33450D02*
X46750Y-33450D01*
X50000Y-34050D02*
X49400Y-33450D01*
X50000Y-34950D02*
X50000Y-34050D01*
X48150Y-36800D02*
X50000Y-34950D01*
X44950Y-36800D02*
X48150Y-36800D01*
X43550Y-38200D02*
X44950Y-36800D01*
X43550Y-38750D02*
X43550Y-38200D01*
X43100Y-39200D02*
X43550Y-38750D01*
X38350Y-39200D02*
X43100Y-39200D01*
X37750Y-38600D02*
X38350Y-39200D01*
X37750Y-36350D02*
X37750Y-38600D01*
X36350Y-34950D02*
X37750Y-36350D01*
X27250Y-34950D02*
X36350Y-34950D01*
X26950Y-34650D02*
X27250Y-34950D01*
X26950Y-34000D02*
X26950Y-34650D01*
X27650Y-33300D02*
X26950Y-34000D01*
X27650Y-32000D02*
X27650Y-33300D01*
X28150Y-31499D02*
X27650Y-32000D01*
X29250Y-31499D02*
X28150Y-31499D01*
X29408Y-31341D02*
X29250Y-31499D01*
X29408Y-29891D02*
X29408Y-31341D01*
X29940Y-29360D02*
X29408Y-29891D01*
X28840Y-30640D02*
X29050Y-30850D01*
X28448Y-30640D02*
X28840Y-30640D01*
X32150Y-28250D02*
X32200Y-28250D01*
X31700Y-28700D02*
X32150Y-28250D01*
X51950Y-28750D02*
X51950Y-28650D01*
X55375Y-20275D02*
X55933Y-20275D01*
X54850Y-20800D02*
X55375Y-20275D01*
X53450Y-20800D02*
X54850Y-20800D01*
X53250Y-21000D02*
X53450Y-20800D01*
X53250Y-23350D02*
X53250Y-21000D01*
X53850Y-23950D02*
X53250Y-23350D01*
X53850Y-26750D02*
X53850Y-23950D01*
X51950Y-28650D02*
X53850Y-26750D01*
X53100Y-29250D02*
X53100Y-27900D01*
X55808Y-21800D02*
X55933Y-21675D01*
X54100Y-21800D02*
X55808Y-21800D01*
X53700Y-22200D02*
X54100Y-21800D01*
X53700Y-23400D02*
X53700Y-22200D01*
X54100Y-23800D02*
X53700Y-23400D01*
X54100Y-24350D02*
X54100Y-23800D01*
X54200Y-24450D02*
X54100Y-24350D01*
X54200Y-26800D02*
X54200Y-24450D01*
X53100Y-27900D02*
X54200Y-26800D01*
X51950Y-29750D02*
X53400Y-29750D01*
X55500Y-23508D02*
X55933Y-23075D01*
X55500Y-24300D02*
X55500Y-23508D01*
X55350Y-24450D02*
X55500Y-24300D01*
X54650Y-24450D02*
X55350Y-24450D01*
X54450Y-24650D02*
X54650Y-24450D01*
X54450Y-26950D02*
X54450Y-24650D01*
X53550Y-27850D02*
X54450Y-26950D01*
X53550Y-29600D02*
X53550Y-27850D01*
X53400Y-29750D02*
X53550Y-29600D01*
X49002Y-30428D02*
X48622Y-30428D01*
X50900Y-30700D02*
X51350Y-30700D01*
X49450Y-32150D02*
X50900Y-30700D01*
X49100Y-32150D02*
X49450Y-32150D01*
X48600Y-31650D02*
X49100Y-32150D01*
X48600Y-30450D02*
X48600Y-31650D01*
X48622Y-30428D02*
X48600Y-30450D01*
X51950Y-30700D02*
X54000Y-30700D01*
X55075Y-25925D02*
X55933Y-25925D01*
X54950Y-26050D02*
X55075Y-25925D01*
X49002Y-30172D02*
X48528Y-30172D01*
X50950Y-31200D02*
X52500Y-31200D01*
X49550Y-32600D02*
X50950Y-31200D01*
X49050Y-32600D02*
X49550Y-32600D01*
X48350Y-31900D02*
X49050Y-32600D01*
X48350Y-30350D02*
X48350Y-31900D01*
X48528Y-30172D02*
X48350Y-30350D01*
X55933Y-27375D02*
X55875Y-27375D01*
X54450Y-31200D02*
X53100Y-31200D01*
X54500Y-31150D02*
X54450Y-31200D01*
X55500Y-29650D02*
X55350Y-29800D01*
X55500Y-27750D02*
X55500Y-29650D01*
X55875Y-27375D02*
X55500Y-27750D01*
X49002Y-29916D02*
X48384Y-29916D01*
X50100Y-32850D02*
X51350Y-31600D01*
X48850Y-32850D02*
X50100Y-32850D01*
X48100Y-32100D02*
X48850Y-32850D01*
X48100Y-30200D02*
X48100Y-32100D01*
X48384Y-29916D02*
X48100Y-30200D01*
X55933Y-28775D02*
X55933Y-29267D01*
X52050Y-31700D02*
X51950Y-31600D01*
X54200Y-31700D02*
X52050Y-31700D01*
X54250Y-31650D02*
X54200Y-31700D01*
X55933Y-29267D02*
X55850Y-29350D01*
X49002Y-29660D02*
X48090Y-29660D01*
X51500Y-33150D02*
X52500Y-32150D01*
X48700Y-33150D02*
X51500Y-33150D01*
X47800Y-32250D02*
X48700Y-33150D01*
X47800Y-29950D02*
X47800Y-32250D01*
X48090Y-29660D02*
X47800Y-29950D01*
X53100Y-32150D02*
X53592Y-32150D01*
X53592Y-32150D02*
X53817Y-32375D01*
X46798Y-30940D02*
X47440Y-30940D01*
X49950Y-28750D02*
X51350Y-28750D01*
X49600Y-29100D02*
X49950Y-28750D01*
X47440Y-30940D02*
X47450Y-30950D01*
X51400Y-29250D02*
X52500Y-29250D01*
X49002Y-31196D02*
X49002Y-31402D01*
X50550Y-29250D02*
X51400Y-29250D01*
X51400Y-29250D02*
X51450Y-29250D01*
X49950Y-29850D02*
X50550Y-29250D01*
X49002Y-31402D02*
X49300Y-31700D01*
X49002Y-30940D02*
X50060Y-30940D01*
X50750Y-29750D02*
X51350Y-29750D01*
X50650Y-29850D02*
X50750Y-29750D01*
X50060Y-30940D02*
X50300Y-30700D01*
X49002Y-30684D02*
X49616Y-30684D01*
X50050Y-30250D02*
X52500Y-30250D01*
X49616Y-30684D02*
X50050Y-30250D01*
X55933Y-24475D02*
X56325Y-24475D01*
X55450Y-30250D02*
X53100Y-30250D01*
X56700Y-29000D02*
X55450Y-30250D01*
X56700Y-24850D02*
X56700Y-29000D01*
X56325Y-24475D02*
X56700Y-24850D01*
X28600Y-28250D02*
X28550Y-28250D01*
X28194Y-31150D02*
X28448Y-30896D01*
X27450Y-31150D02*
X28194Y-31150D01*
X27000Y-30700D02*
X27450Y-31150D01*
X27000Y-29550D02*
X27000Y-30700D01*
X27650Y-28900D02*
X27000Y-29550D01*
X27900Y-28900D02*
X27650Y-28900D01*
X28550Y-28250D02*
X27900Y-28900D01*
X29250Y-28250D02*
X28600Y-28250D01*
X46550Y-28550D02*
X46250Y-28550D01*
X46344Y-31650D02*
X46798Y-31196D01*
X45900Y-31650D02*
X46344Y-31650D01*
X45850Y-31700D02*
X45900Y-31650D01*
X46250Y-28550D02*
X45850Y-28950D01*
X46550Y-28550D02*
X46567Y-28550D01*
X47290Y-29660D02*
X46798Y-29660D01*
X47300Y-29650D02*
X47290Y-29660D01*
X47300Y-29282D02*
X47300Y-29650D01*
X46567Y-28550D02*
X47300Y-29282D01*
X28600Y-28250D02*
X29400Y-27450D01*
X45400Y-28550D02*
X46550Y-28550D01*
X44900Y-29050D02*
X45400Y-28550D01*
X34550Y-29050D02*
X44900Y-29050D01*
X32800Y-27950D02*
X32850Y-27900D01*
X31850Y-27950D02*
X32800Y-27950D01*
X31600Y-28200D02*
X31850Y-27950D01*
X30900Y-28200D02*
X31600Y-28200D01*
X30350Y-27650D02*
X30900Y-28200D01*
X30100Y-27650D02*
X30350Y-27650D01*
X29900Y-27450D02*
X30100Y-27650D01*
X29400Y-27450D02*
X29900Y-27450D01*
X28600Y-28250D02*
X28600Y-28400D01*
X28890Y-29360D02*
X28448Y-29360D01*
X29050Y-29200D02*
X28890Y-29360D01*
X29050Y-28850D02*
X29050Y-29200D01*
X28600Y-28400D02*
X29050Y-28850D01*
G54D23*
X40250Y-31900D02*
X38400Y-31900D01*
X41350Y-33000D02*
X40250Y-31900D01*
X43250Y-31050D02*
X42900Y-31400D01*
X44950Y-31050D02*
X43250Y-31050D01*
X45000Y-31000D02*
X44950Y-31050D01*
X44917Y-27350D02*
X44917Y-28233D01*
X44917Y-28233D02*
X44900Y-28250D01*
X30383Y-32700D02*
X33050Y-32700D01*
X33050Y-32700D02*
X33350Y-33000D01*
X37050Y-32700D02*
X36283Y-32700D01*
X37350Y-33000D02*
X37050Y-32700D01*
X36283Y-32700D02*
X36283Y-30433D01*
X34767Y-27117D02*
X34767Y-27300D01*
X34350Y-26700D02*
X34767Y-27117D01*
X36283Y-30433D02*
X36250Y-30400D01*
X50267Y-27300D02*
X50050Y-27300D01*
X50050Y-27300D02*
X49850Y-27100D01*
X46783Y-32750D02*
X47300Y-32750D01*
X55450Y-32750D02*
X54683Y-32750D01*
X55500Y-32800D02*
X55450Y-32750D01*
X47300Y-32750D02*
X47400Y-32850D01*
X30567Y-27300D02*
X34767Y-27300D01*
X30567Y-26917D02*
X30567Y-27300D01*
X30400Y-26750D02*
X30567Y-26917D01*
G54D10*
G36*
X34959Y-27607D02*
X34917Y-27650D01*
X33950Y-27650D01*
X33873Y-27665D01*
X33851Y-27679D01*
X33808Y-27708D01*
X31333Y-30184D01*
X31052Y-30184D01*
X31052Y-30173D01*
X31052Y-30023D01*
X31042Y-30000D01*
X31051Y-29976D01*
X31052Y-29917D01*
X31052Y-29767D01*
X31042Y-29744D01*
X31051Y-29720D01*
X31052Y-29661D01*
X31052Y-29511D01*
X31042Y-29488D01*
X31051Y-29464D01*
X31052Y-29405D01*
X31052Y-29382D01*
X31114Y-29320D01*
X31152Y-29228D01*
X31152Y-28979D01*
X31114Y-28887D01*
X31043Y-28817D01*
X30951Y-28779D01*
X30852Y-28778D01*
X30739Y-28779D01*
X30677Y-28841D01*
X30677Y-29079D01*
X31089Y-29079D01*
X31152Y-29016D01*
X31152Y-28979D01*
X31152Y-29228D01*
X31152Y-29191D01*
X31089Y-29129D01*
X30677Y-29129D01*
X30677Y-29134D01*
X30627Y-29134D01*
X30627Y-29129D01*
X30627Y-29079D01*
X30627Y-28841D01*
X30564Y-28779D01*
X30451Y-28778D01*
X30417Y-28778D01*
X30449Y-28699D01*
X30450Y-28600D01*
X30450Y-28337D01*
X30387Y-28275D01*
X29925Y-28275D01*
X29925Y-28837D01*
X29987Y-28900D01*
X30184Y-28900D01*
X30151Y-28979D01*
X30152Y-29016D01*
X30214Y-29079D01*
X30627Y-29079D01*
X30627Y-29129D01*
X30214Y-29129D01*
X30183Y-29160D01*
X29940Y-29160D01*
X29876Y-29172D01*
X29863Y-29175D01*
X29798Y-29218D01*
X29267Y-29750D01*
X29223Y-29814D01*
X29208Y-29891D01*
X29208Y-30563D01*
X29114Y-30525D01*
X29007Y-30524D01*
X28981Y-30498D01*
X28916Y-30455D01*
X28848Y-30441D01*
X28848Y-30429D01*
X28848Y-30406D01*
X28910Y-30344D01*
X28948Y-30252D01*
X28948Y-30215D01*
X28885Y-30153D01*
X28473Y-30153D01*
X28473Y-30158D01*
X28423Y-30158D01*
X28423Y-30153D01*
X28010Y-30153D01*
X27979Y-30184D01*
X27793Y-30184D01*
X27784Y-30174D01*
X27700Y-30139D01*
X27733Y-30125D01*
X27787Y-30072D01*
X27979Y-30072D01*
X28010Y-30103D01*
X28423Y-30103D01*
X28423Y-30097D01*
X28473Y-30097D01*
X28473Y-30103D01*
X28885Y-30103D01*
X28948Y-30040D01*
X28948Y-30003D01*
X28910Y-29911D01*
X28848Y-29849D01*
X28848Y-29767D01*
X28838Y-29744D01*
X28847Y-29720D01*
X28848Y-29661D01*
X28848Y-29560D01*
X28890Y-29560D01*
X28966Y-29544D01*
X29031Y-29501D01*
X29191Y-29341D01*
X29191Y-29341D01*
X29234Y-29276D01*
X29234Y-29276D01*
X29237Y-29263D01*
X29249Y-29200D01*
X29250Y-29200D01*
X29250Y-28850D01*
X29234Y-28773D01*
X29234Y-28773D01*
X29191Y-28708D01*
X29050Y-28567D01*
X29050Y-28509D01*
X29065Y-28525D01*
X29185Y-28574D01*
X29314Y-28575D01*
X29349Y-28560D01*
X29349Y-28600D01*
X29350Y-28699D01*
X29388Y-28791D01*
X29458Y-28862D01*
X29550Y-28900D01*
X29812Y-28900D01*
X29875Y-28837D01*
X29875Y-28275D01*
X29867Y-28275D01*
X29867Y-28225D01*
X29875Y-28225D01*
X29875Y-28217D01*
X29925Y-28217D01*
X29925Y-28225D01*
X30387Y-28225D01*
X30450Y-28162D01*
X30450Y-28032D01*
X30758Y-28341D01*
X30823Y-28384D01*
X30823Y-28384D01*
X30836Y-28387D01*
X30900Y-28400D01*
X31574Y-28400D01*
X31516Y-28424D01*
X31424Y-28515D01*
X31375Y-28635D01*
X31374Y-28764D01*
X31424Y-28883D01*
X31515Y-28975D01*
X31635Y-29024D01*
X31764Y-29025D01*
X31883Y-28975D01*
X31975Y-28884D01*
X32024Y-28764D01*
X32025Y-28657D01*
X32157Y-28525D01*
X32454Y-28525D01*
X32509Y-28502D01*
X32552Y-28460D01*
X32574Y-28404D01*
X32575Y-28345D01*
X32575Y-28150D01*
X32640Y-28150D01*
X32665Y-28175D01*
X32785Y-28224D01*
X32914Y-28225D01*
X33033Y-28175D01*
X33125Y-28084D01*
X33174Y-27964D01*
X33175Y-27835D01*
X33125Y-27716D01*
X33034Y-27624D01*
X32914Y-27575D01*
X32785Y-27574D01*
X32666Y-27624D01*
X32575Y-27715D01*
X32575Y-27550D01*
X34450Y-27550D01*
X34484Y-27584D01*
X34540Y-27607D01*
X34599Y-27607D01*
X34959Y-27607D01*
X34959Y-27607D01*
G37*
G54D22*
X34959Y-27607D02*
X34917Y-27650D01*
X33950Y-27650D01*
X33873Y-27665D01*
X33851Y-27679D01*
X33808Y-27708D01*
X31333Y-30184D01*
X31052Y-30184D01*
X31052Y-30173D01*
X31052Y-30023D01*
X31042Y-30000D01*
X31051Y-29976D01*
X31052Y-29917D01*
X31052Y-29767D01*
X31042Y-29744D01*
X31051Y-29720D01*
X31052Y-29661D01*
X31052Y-29511D01*
X31042Y-29488D01*
X31051Y-29464D01*
X31052Y-29405D01*
X31052Y-29382D01*
X31114Y-29320D01*
X31152Y-29228D01*
X31152Y-28979D01*
X31114Y-28887D01*
X31043Y-28817D01*
X30951Y-28779D01*
X30852Y-28778D01*
X30739Y-28779D01*
X30677Y-28841D01*
X30677Y-29079D01*
X31089Y-29079D01*
X31152Y-29016D01*
X31152Y-28979D01*
X31152Y-29228D01*
X31152Y-29191D01*
X31089Y-29129D01*
X30677Y-29129D01*
X30677Y-29134D01*
X30627Y-29134D01*
X30627Y-29129D01*
X30627Y-29079D01*
X30627Y-28841D01*
X30564Y-28779D01*
X30451Y-28778D01*
X30417Y-28778D01*
X30449Y-28699D01*
X30450Y-28600D01*
X30450Y-28337D01*
X30387Y-28275D01*
X29925Y-28275D01*
X29925Y-28837D01*
X29987Y-28900D01*
X30184Y-28900D01*
X30151Y-28979D01*
X30152Y-29016D01*
X30214Y-29079D01*
X30627Y-29079D01*
X30627Y-29129D01*
X30214Y-29129D01*
X30183Y-29160D01*
X29940Y-29160D01*
X29876Y-29172D01*
X29863Y-29175D01*
X29798Y-29218D01*
X29267Y-29750D01*
X29223Y-29814D01*
X29208Y-29891D01*
X29208Y-30563D01*
X29114Y-30525D01*
X29007Y-30524D01*
X28981Y-30498D01*
X28916Y-30455D01*
X28848Y-30441D01*
X28848Y-30429D01*
X28848Y-30406D01*
X28910Y-30344D01*
X28948Y-30252D01*
X28948Y-30215D01*
X28885Y-30153D01*
X28473Y-30153D01*
X28473Y-30158D01*
X28423Y-30158D01*
X28423Y-30153D01*
X28010Y-30153D01*
X27979Y-30184D01*
X27793Y-30184D01*
X27784Y-30174D01*
X27700Y-30139D01*
X27733Y-30125D01*
X27787Y-30072D01*
X27979Y-30072D01*
X28010Y-30103D01*
X28423Y-30103D01*
X28423Y-30097D01*
X28473Y-30097D01*
X28473Y-30103D01*
X28885Y-30103D01*
X28948Y-30040D01*
X28948Y-30003D01*
X28910Y-29911D01*
X28848Y-29849D01*
X28848Y-29767D01*
X28838Y-29744D01*
X28847Y-29720D01*
X28848Y-29661D01*
X28848Y-29560D01*
X28890Y-29560D01*
X28966Y-29544D01*
X29031Y-29501D01*
X29191Y-29341D01*
X29191Y-29341D01*
X29234Y-29276D01*
X29234Y-29276D01*
X29237Y-29263D01*
X29249Y-29200D01*
X29250Y-29200D01*
X29250Y-28850D01*
X29234Y-28773D01*
X29234Y-28773D01*
X29191Y-28708D01*
X29050Y-28567D01*
X29050Y-28509D01*
X29065Y-28525D01*
X29185Y-28574D01*
X29314Y-28575D01*
X29349Y-28560D01*
X29349Y-28600D01*
X29350Y-28699D01*
X29388Y-28791D01*
X29458Y-28862D01*
X29550Y-28900D01*
X29812Y-28900D01*
X29875Y-28837D01*
X29875Y-28275D01*
X29867Y-28275D01*
X29867Y-28225D01*
X29875Y-28225D01*
X29875Y-28217D01*
X29925Y-28217D01*
X29925Y-28225D01*
X30387Y-28225D01*
X30450Y-28162D01*
X30450Y-28032D01*
X30758Y-28341D01*
X30823Y-28384D01*
X30823Y-28384D01*
X30836Y-28387D01*
X30900Y-28400D01*
X31574Y-28400D01*
X31516Y-28424D01*
X31424Y-28515D01*
X31375Y-28635D01*
X31374Y-28764D01*
X31424Y-28883D01*
X31515Y-28975D01*
X31635Y-29024D01*
X31764Y-29025D01*
X31883Y-28975D01*
X31975Y-28884D01*
X32024Y-28764D01*
X32025Y-28657D01*
X32157Y-28525D01*
X32454Y-28525D01*
X32509Y-28502D01*
X32552Y-28460D01*
X32574Y-28404D01*
X32575Y-28345D01*
X32575Y-28150D01*
X32640Y-28150D01*
X32665Y-28175D01*
X32785Y-28224D01*
X32914Y-28225D01*
X33033Y-28175D01*
X33125Y-28084D01*
X33174Y-27964D01*
X33175Y-27835D01*
X33125Y-27716D01*
X33034Y-27624D01*
X32914Y-27575D01*
X32785Y-27574D01*
X32666Y-27624D01*
X32575Y-27715D01*
X32575Y-27550D01*
X34450Y-27550D01*
X34484Y-27584D01*
X34540Y-27607D01*
X34599Y-27607D01*
X34959Y-27607D01*
G54D10*
G36*
X38750Y-30000D02*
X38673Y-30015D01*
X38651Y-30029D01*
X38608Y-30058D01*
X38067Y-30600D01*
X37925Y-30600D01*
X37925Y-30545D01*
X37902Y-30490D01*
X37860Y-30447D01*
X37804Y-30425D01*
X37745Y-30424D01*
X37495Y-30424D01*
X37440Y-30447D01*
X37397Y-30489D01*
X37375Y-30545D01*
X37374Y-30604D01*
X37374Y-31054D01*
X37397Y-31109D01*
X37439Y-31152D01*
X37495Y-31174D01*
X37554Y-31175D01*
X37804Y-31175D01*
X37859Y-31152D01*
X37902Y-31110D01*
X37924Y-31054D01*
X37925Y-31000D01*
X38067Y-31000D01*
X37558Y-31508D01*
X37515Y-31573D01*
X37500Y-31650D01*
X37500Y-32450D01*
X37515Y-32526D01*
X37558Y-32591D01*
X37600Y-32632D01*
X37600Y-32755D01*
X37548Y-32703D01*
X37419Y-32650D01*
X37353Y-32650D01*
X37325Y-32621D01*
X37325Y-30995D01*
X37325Y-30545D01*
X37302Y-30490D01*
X37260Y-30447D01*
X37204Y-30425D01*
X37145Y-30424D01*
X36895Y-30424D01*
X36840Y-30447D01*
X36797Y-30489D01*
X36775Y-30545D01*
X36774Y-30604D01*
X36774Y-31054D01*
X36797Y-31109D01*
X36839Y-31152D01*
X36850Y-31156D01*
X36850Y-31189D01*
X36766Y-31224D01*
X36674Y-31315D01*
X36625Y-31435D01*
X36624Y-31564D01*
X36674Y-31683D01*
X36765Y-31775D01*
X36885Y-31824D01*
X37014Y-31825D01*
X37133Y-31775D01*
X37225Y-31684D01*
X37274Y-31564D01*
X37275Y-31435D01*
X37250Y-31374D01*
X37250Y-31156D01*
X37259Y-31152D01*
X37302Y-31110D01*
X37324Y-31054D01*
X37325Y-30995D01*
X37325Y-32621D01*
X37226Y-32523D01*
X37145Y-32469D01*
X37050Y-32450D01*
X36599Y-32450D01*
X36565Y-32415D01*
X36533Y-32402D01*
X36533Y-30612D01*
X36546Y-30598D01*
X36599Y-30469D01*
X36600Y-30330D01*
X36546Y-30202D01*
X36448Y-30103D01*
X36319Y-30050D01*
X36180Y-30049D01*
X36052Y-30103D01*
X35953Y-30201D01*
X35900Y-30330D01*
X35899Y-30469D01*
X35953Y-30598D01*
X36033Y-30678D01*
X36033Y-32402D01*
X36001Y-32415D01*
X35958Y-32457D01*
X35936Y-32512D01*
X35935Y-32572D01*
X35935Y-32887D01*
X35958Y-32942D01*
X36000Y-32984D01*
X36056Y-33007D01*
X36115Y-33007D01*
X36509Y-33007D01*
X36564Y-32984D01*
X36599Y-32950D01*
X36946Y-32950D01*
X36999Y-33003D01*
X36999Y-33069D01*
X37053Y-33198D01*
X37151Y-33296D01*
X37280Y-33349D01*
X37419Y-33350D01*
X37548Y-33296D01*
X37600Y-33244D01*
X37600Y-33900D01*
X37603Y-33918D01*
X37439Y-33850D01*
X37238Y-33849D01*
X37053Y-33926D01*
X36911Y-34068D01*
X36854Y-34205D01*
X36797Y-34069D01*
X36656Y-33927D01*
X36470Y-33850D01*
X36270Y-33849D01*
X36084Y-33926D01*
X35942Y-34068D01*
X35885Y-34205D01*
X35829Y-34069D01*
X35687Y-33927D01*
X35617Y-33897D01*
X35617Y-33382D01*
X35643Y-33382D01*
X35698Y-33359D01*
X35741Y-33317D01*
X35763Y-33262D01*
X35764Y-33202D01*
X35764Y-32887D01*
X35764Y-32452D01*
X35764Y-32137D01*
X35741Y-32082D01*
X35699Y-32040D01*
X35643Y-32017D01*
X35584Y-32017D01*
X35190Y-32017D01*
X35135Y-32040D01*
X35092Y-32082D01*
X35075Y-32125D01*
X35075Y-32125D01*
X35075Y-31995D01*
X35052Y-31940D01*
X35010Y-31897D01*
X34954Y-31875D01*
X34895Y-31874D01*
X34645Y-31874D01*
X34590Y-31897D01*
X34547Y-31939D01*
X34525Y-31995D01*
X34524Y-32054D01*
X34524Y-32504D01*
X34547Y-32559D01*
X34589Y-32602D01*
X34645Y-32624D01*
X34704Y-32625D01*
X34954Y-32625D01*
X35009Y-32602D01*
X35052Y-32560D01*
X35066Y-32525D01*
X35075Y-32525D01*
X35092Y-32567D01*
X35134Y-32609D01*
X35190Y-32632D01*
X35249Y-32632D01*
X35643Y-32632D01*
X35698Y-32609D01*
X35741Y-32567D01*
X35763Y-32512D01*
X35764Y-32452D01*
X35764Y-32887D01*
X35741Y-32832D01*
X35699Y-32790D01*
X35643Y-32767D01*
X35584Y-32767D01*
X35190Y-32767D01*
X35135Y-32790D01*
X35092Y-32832D01*
X35070Y-32887D01*
X35069Y-32947D01*
X35069Y-33262D01*
X35092Y-33317D01*
X35134Y-33359D01*
X35190Y-33382D01*
X35217Y-33382D01*
X35217Y-33884D01*
X35116Y-33926D01*
X34974Y-34068D01*
X34917Y-34205D01*
X34860Y-34069D01*
X34719Y-33927D01*
X34533Y-33850D01*
X34333Y-33849D01*
X34147Y-33926D01*
X34005Y-34068D01*
X33948Y-34205D01*
X33892Y-34069D01*
X33750Y-33927D01*
X33565Y-33850D01*
X33364Y-33849D01*
X33179Y-33926D01*
X33037Y-34068D01*
X32960Y-34253D01*
X32960Y-34454D01*
X33036Y-34639D01*
X33146Y-34750D01*
X31750Y-34750D01*
X31860Y-34640D01*
X31937Y-34455D01*
X31937Y-34254D01*
X31860Y-34069D01*
X31719Y-33927D01*
X31533Y-33850D01*
X31333Y-33849D01*
X31147Y-33926D01*
X31005Y-34068D01*
X30948Y-34205D01*
X30892Y-34069D01*
X30750Y-33927D01*
X30565Y-33850D01*
X30364Y-33849D01*
X30179Y-33926D01*
X30037Y-34068D01*
X29980Y-34205D01*
X29923Y-34069D01*
X29782Y-33927D01*
X29717Y-33899D01*
X29717Y-33382D01*
X29743Y-33382D01*
X29798Y-33359D01*
X29841Y-33317D01*
X29863Y-33262D01*
X29864Y-33202D01*
X29864Y-32887D01*
X29863Y-32887D01*
X29876Y-32884D01*
X29941Y-32841D01*
X30035Y-32746D01*
X30035Y-32887D01*
X30058Y-32942D01*
X30100Y-32984D01*
X30156Y-33007D01*
X30215Y-33007D01*
X30609Y-33007D01*
X30664Y-32984D01*
X30699Y-32950D01*
X32946Y-32950D01*
X32999Y-33003D01*
X32999Y-33069D01*
X33053Y-33198D01*
X33151Y-33296D01*
X33280Y-33349D01*
X33419Y-33350D01*
X33548Y-33296D01*
X33646Y-33198D01*
X33699Y-33069D01*
X33700Y-32930D01*
X33646Y-32802D01*
X33548Y-32703D01*
X33419Y-32650D01*
X33353Y-32650D01*
X33226Y-32523D01*
X33145Y-32469D01*
X33050Y-32450D01*
X30699Y-32450D01*
X30665Y-32415D01*
X30609Y-32392D01*
X30550Y-32392D01*
X30200Y-32392D01*
X30200Y-32282D01*
X30282Y-32200D01*
X33867Y-32200D01*
X33924Y-32257D01*
X33924Y-32504D01*
X33947Y-32559D01*
X33989Y-32602D01*
X34045Y-32624D01*
X34104Y-32625D01*
X34354Y-32625D01*
X34409Y-32602D01*
X34452Y-32560D01*
X34474Y-32504D01*
X34475Y-32445D01*
X34475Y-31995D01*
X34452Y-31940D01*
X34410Y-31897D01*
X34354Y-31875D01*
X34295Y-31874D01*
X34107Y-31874D01*
X34091Y-31858D01*
X34026Y-31815D01*
X33950Y-31800D01*
X30200Y-31800D01*
X30123Y-31815D01*
X30101Y-31829D01*
X30058Y-31858D01*
X29858Y-32058D01*
X29841Y-32083D01*
X29841Y-32082D01*
X29799Y-32040D01*
X29743Y-32017D01*
X29684Y-32017D01*
X29665Y-32017D01*
X30041Y-31641D01*
X30084Y-31576D01*
X30084Y-31576D01*
X30100Y-31500D01*
X30100Y-31432D01*
X30208Y-31541D01*
X30208Y-31541D01*
X30251Y-31570D01*
X30273Y-31584D01*
X30273Y-31584D01*
X30350Y-31600D01*
X34500Y-31600D01*
X34576Y-31584D01*
X34641Y-31541D01*
X34932Y-31250D01*
X35290Y-31250D01*
X35365Y-31325D01*
X35485Y-31374D01*
X35614Y-31375D01*
X35733Y-31325D01*
X35825Y-31234D01*
X35874Y-31114D01*
X35875Y-30985D01*
X35825Y-30866D01*
X35734Y-30774D01*
X35614Y-30725D01*
X35485Y-30724D01*
X35366Y-30774D01*
X35290Y-30850D01*
X34850Y-30850D01*
X34773Y-30865D01*
X34751Y-30879D01*
X34708Y-30908D01*
X34417Y-31200D01*
X30432Y-31200D01*
X30350Y-31117D01*
X30350Y-31111D01*
X30372Y-31120D01*
X30431Y-31121D01*
X30931Y-31121D01*
X30986Y-31098D01*
X30989Y-31096D01*
X31504Y-31096D01*
X31580Y-31080D01*
X31645Y-31037D01*
X32774Y-29907D01*
X32774Y-29914D01*
X32824Y-30033D01*
X32915Y-30125D01*
X33035Y-30174D01*
X33164Y-30175D01*
X33283Y-30125D01*
X33359Y-30050D01*
X33360Y-30050D01*
X33325Y-30135D01*
X33324Y-30264D01*
X33374Y-30383D01*
X33465Y-30475D01*
X33585Y-30524D01*
X33714Y-30525D01*
X33833Y-30475D01*
X33909Y-30400D01*
X34650Y-30400D01*
X34726Y-30384D01*
X34791Y-30341D01*
X35132Y-30000D01*
X38750Y-30000D01*
X38750Y-30000D01*
G37*
G54D22*
X38750Y-30000D02*
X38673Y-30015D01*
X38651Y-30029D01*
X38608Y-30058D01*
X38067Y-30600D01*
X37925Y-30600D01*
X37925Y-30545D01*
X37902Y-30490D01*
X37860Y-30447D01*
X37804Y-30425D01*
X37745Y-30424D01*
X37495Y-30424D01*
X37440Y-30447D01*
X37397Y-30489D01*
X37375Y-30545D01*
X37374Y-30604D01*
X37374Y-31054D01*
X37397Y-31109D01*
X37439Y-31152D01*
X37495Y-31174D01*
X37554Y-31175D01*
X37804Y-31175D01*
X37859Y-31152D01*
X37902Y-31110D01*
X37924Y-31054D01*
X37925Y-31000D01*
X38067Y-31000D01*
X37558Y-31508D01*
X37515Y-31573D01*
X37500Y-31650D01*
X37500Y-32450D01*
X37515Y-32526D01*
X37558Y-32591D01*
X37600Y-32632D01*
X37600Y-32755D01*
X37548Y-32703D01*
X37419Y-32650D01*
X37353Y-32650D01*
X37325Y-32621D01*
X37325Y-30995D01*
X37325Y-30545D01*
X37302Y-30490D01*
X37260Y-30447D01*
X37204Y-30425D01*
X37145Y-30424D01*
X36895Y-30424D01*
X36840Y-30447D01*
X36797Y-30489D01*
X36775Y-30545D01*
X36774Y-30604D01*
X36774Y-31054D01*
X36797Y-31109D01*
X36839Y-31152D01*
X36850Y-31156D01*
X36850Y-31189D01*
X36766Y-31224D01*
X36674Y-31315D01*
X36625Y-31435D01*
X36624Y-31564D01*
X36674Y-31683D01*
X36765Y-31775D01*
X36885Y-31824D01*
X37014Y-31825D01*
X37133Y-31775D01*
X37225Y-31684D01*
X37274Y-31564D01*
X37275Y-31435D01*
X37250Y-31374D01*
X37250Y-31156D01*
X37259Y-31152D01*
X37302Y-31110D01*
X37324Y-31054D01*
X37325Y-30995D01*
X37325Y-32621D01*
X37226Y-32523D01*
X37145Y-32469D01*
X37050Y-32450D01*
X36599Y-32450D01*
X36565Y-32415D01*
X36533Y-32402D01*
X36533Y-30612D01*
X36546Y-30598D01*
X36599Y-30469D01*
X36600Y-30330D01*
X36546Y-30202D01*
X36448Y-30103D01*
X36319Y-30050D01*
X36180Y-30049D01*
X36052Y-30103D01*
X35953Y-30201D01*
X35900Y-30330D01*
X35899Y-30469D01*
X35953Y-30598D01*
X36033Y-30678D01*
X36033Y-32402D01*
X36001Y-32415D01*
X35958Y-32457D01*
X35936Y-32512D01*
X35935Y-32572D01*
X35935Y-32887D01*
X35958Y-32942D01*
X36000Y-32984D01*
X36056Y-33007D01*
X36115Y-33007D01*
X36509Y-33007D01*
X36564Y-32984D01*
X36599Y-32950D01*
X36946Y-32950D01*
X36999Y-33003D01*
X36999Y-33069D01*
X37053Y-33198D01*
X37151Y-33296D01*
X37280Y-33349D01*
X37419Y-33350D01*
X37548Y-33296D01*
X37600Y-33244D01*
X37600Y-33900D01*
X37603Y-33918D01*
X37439Y-33850D01*
X37238Y-33849D01*
X37053Y-33926D01*
X36911Y-34068D01*
X36854Y-34205D01*
X36797Y-34069D01*
X36656Y-33927D01*
X36470Y-33850D01*
X36270Y-33849D01*
X36084Y-33926D01*
X35942Y-34068D01*
X35885Y-34205D01*
X35829Y-34069D01*
X35687Y-33927D01*
X35617Y-33897D01*
X35617Y-33382D01*
X35643Y-33382D01*
X35698Y-33359D01*
X35741Y-33317D01*
X35763Y-33262D01*
X35764Y-33202D01*
X35764Y-32887D01*
X35764Y-32452D01*
X35764Y-32137D01*
X35741Y-32082D01*
X35699Y-32040D01*
X35643Y-32017D01*
X35584Y-32017D01*
X35190Y-32017D01*
X35135Y-32040D01*
X35092Y-32082D01*
X35075Y-32125D01*
X35075Y-32125D01*
X35075Y-31995D01*
X35052Y-31940D01*
X35010Y-31897D01*
X34954Y-31875D01*
X34895Y-31874D01*
X34645Y-31874D01*
X34590Y-31897D01*
X34547Y-31939D01*
X34525Y-31995D01*
X34524Y-32054D01*
X34524Y-32504D01*
X34547Y-32559D01*
X34589Y-32602D01*
X34645Y-32624D01*
X34704Y-32625D01*
X34954Y-32625D01*
X35009Y-32602D01*
X35052Y-32560D01*
X35066Y-32525D01*
X35075Y-32525D01*
X35092Y-32567D01*
X35134Y-32609D01*
X35190Y-32632D01*
X35249Y-32632D01*
X35643Y-32632D01*
X35698Y-32609D01*
X35741Y-32567D01*
X35763Y-32512D01*
X35764Y-32452D01*
X35764Y-32887D01*
X35741Y-32832D01*
X35699Y-32790D01*
X35643Y-32767D01*
X35584Y-32767D01*
X35190Y-32767D01*
X35135Y-32790D01*
X35092Y-32832D01*
X35070Y-32887D01*
X35069Y-32947D01*
X35069Y-33262D01*
X35092Y-33317D01*
X35134Y-33359D01*
X35190Y-33382D01*
X35217Y-33382D01*
X35217Y-33884D01*
X35116Y-33926D01*
X34974Y-34068D01*
X34917Y-34205D01*
X34860Y-34069D01*
X34719Y-33927D01*
X34533Y-33850D01*
X34333Y-33849D01*
X34147Y-33926D01*
X34005Y-34068D01*
X33948Y-34205D01*
X33892Y-34069D01*
X33750Y-33927D01*
X33565Y-33850D01*
X33364Y-33849D01*
X33179Y-33926D01*
X33037Y-34068D01*
X32960Y-34253D01*
X32960Y-34454D01*
X33036Y-34639D01*
X33146Y-34750D01*
X31750Y-34750D01*
X31860Y-34640D01*
X31937Y-34455D01*
X31937Y-34254D01*
X31860Y-34069D01*
X31719Y-33927D01*
X31533Y-33850D01*
X31333Y-33849D01*
X31147Y-33926D01*
X31005Y-34068D01*
X30948Y-34205D01*
X30892Y-34069D01*
X30750Y-33927D01*
X30565Y-33850D01*
X30364Y-33849D01*
X30179Y-33926D01*
X30037Y-34068D01*
X29980Y-34205D01*
X29923Y-34069D01*
X29782Y-33927D01*
X29717Y-33899D01*
X29717Y-33382D01*
X29743Y-33382D01*
X29798Y-33359D01*
X29841Y-33317D01*
X29863Y-33262D01*
X29864Y-33202D01*
X29864Y-32887D01*
X29863Y-32887D01*
X29876Y-32884D01*
X29941Y-32841D01*
X30035Y-32746D01*
X30035Y-32887D01*
X30058Y-32942D01*
X30100Y-32984D01*
X30156Y-33007D01*
X30215Y-33007D01*
X30609Y-33007D01*
X30664Y-32984D01*
X30699Y-32950D01*
X32946Y-32950D01*
X32999Y-33003D01*
X32999Y-33069D01*
X33053Y-33198D01*
X33151Y-33296D01*
X33280Y-33349D01*
X33419Y-33350D01*
X33548Y-33296D01*
X33646Y-33198D01*
X33699Y-33069D01*
X33700Y-32930D01*
X33646Y-32802D01*
X33548Y-32703D01*
X33419Y-32650D01*
X33353Y-32650D01*
X33226Y-32523D01*
X33145Y-32469D01*
X33050Y-32450D01*
X30699Y-32450D01*
X30665Y-32415D01*
X30609Y-32392D01*
X30550Y-32392D01*
X30200Y-32392D01*
X30200Y-32282D01*
X30282Y-32200D01*
X33867Y-32200D01*
X33924Y-32257D01*
X33924Y-32504D01*
X33947Y-32559D01*
X33989Y-32602D01*
X34045Y-32624D01*
X34104Y-32625D01*
X34354Y-32625D01*
X34409Y-32602D01*
X34452Y-32560D01*
X34474Y-32504D01*
X34475Y-32445D01*
X34475Y-31995D01*
X34452Y-31940D01*
X34410Y-31897D01*
X34354Y-31875D01*
X34295Y-31874D01*
X34107Y-31874D01*
X34091Y-31858D01*
X34026Y-31815D01*
X33950Y-31800D01*
X30200Y-31800D01*
X30123Y-31815D01*
X30101Y-31829D01*
X30058Y-31858D01*
X29858Y-32058D01*
X29841Y-32083D01*
X29841Y-32082D01*
X29799Y-32040D01*
X29743Y-32017D01*
X29684Y-32017D01*
X29665Y-32017D01*
X30041Y-31641D01*
X30084Y-31576D01*
X30084Y-31576D01*
X30100Y-31500D01*
X30100Y-31432D01*
X30208Y-31541D01*
X30208Y-31541D01*
X30251Y-31570D01*
X30273Y-31584D01*
X30273Y-31584D01*
X30350Y-31600D01*
X34500Y-31600D01*
X34576Y-31584D01*
X34641Y-31541D01*
X34932Y-31250D01*
X35290Y-31250D01*
X35365Y-31325D01*
X35485Y-31374D01*
X35614Y-31375D01*
X35733Y-31325D01*
X35825Y-31234D01*
X35874Y-31114D01*
X35875Y-30985D01*
X35825Y-30866D01*
X35734Y-30774D01*
X35614Y-30725D01*
X35485Y-30724D01*
X35366Y-30774D01*
X35290Y-30850D01*
X34850Y-30850D01*
X34773Y-30865D01*
X34751Y-30879D01*
X34708Y-30908D01*
X34417Y-31200D01*
X30432Y-31200D01*
X30350Y-31117D01*
X30350Y-31111D01*
X30372Y-31120D01*
X30431Y-31121D01*
X30931Y-31121D01*
X30986Y-31098D01*
X30989Y-31096D01*
X31504Y-31096D01*
X31580Y-31080D01*
X31645Y-31037D01*
X32774Y-29907D01*
X32774Y-29914D01*
X32824Y-30033D01*
X32915Y-30125D01*
X33035Y-30174D01*
X33164Y-30175D01*
X33283Y-30125D01*
X33359Y-30050D01*
X33360Y-30050D01*
X33325Y-30135D01*
X33324Y-30264D01*
X33374Y-30383D01*
X33465Y-30475D01*
X33585Y-30524D01*
X33714Y-30525D01*
X33833Y-30475D01*
X33909Y-30400D01*
X34650Y-30400D01*
X34726Y-30384D01*
X34791Y-30341D01*
X35132Y-30000D01*
X38750Y-30000D01*
G54D10*
G36*
X49800Y-34867D02*
X48067Y-36600D01*
X44950Y-36600D01*
X44886Y-36612D01*
X44873Y-36615D01*
X44808Y-36658D01*
X43408Y-38058D01*
X43365Y-38123D01*
X43350Y-38200D01*
X43350Y-38667D01*
X43199Y-38817D01*
X43200Y-38710D01*
X43150Y-38591D01*
X43075Y-38515D01*
X43075Y-36775D01*
X43099Y-36833D01*
X43190Y-36925D01*
X43310Y-36974D01*
X43439Y-36975D01*
X43558Y-36925D01*
X43650Y-36834D01*
X43699Y-36714D01*
X43700Y-36607D01*
X43957Y-36350D01*
X47165Y-36350D01*
X47240Y-36425D01*
X47360Y-36474D01*
X47489Y-36475D01*
X47608Y-36425D01*
X47700Y-36334D01*
X47749Y-36214D01*
X47750Y-36085D01*
X47700Y-35966D01*
X47609Y-35874D01*
X47592Y-35867D01*
X47625Y-35834D01*
X47674Y-35714D01*
X47675Y-35585D01*
X47625Y-35466D01*
X47534Y-35374D01*
X47414Y-35325D01*
X47285Y-35324D01*
X47166Y-35374D01*
X47090Y-35450D01*
X44409Y-35450D01*
X44409Y-35449D01*
X44289Y-35400D01*
X44160Y-35399D01*
X44041Y-35449D01*
X43949Y-35540D01*
X43900Y-35660D01*
X43899Y-35789D01*
X43949Y-35908D01*
X43990Y-35950D01*
X43875Y-35950D01*
X43811Y-35962D01*
X43798Y-35965D01*
X43733Y-36008D01*
X43575Y-36167D01*
X43575Y-35657D01*
X44141Y-35091D01*
X44184Y-35026D01*
X44200Y-34950D01*
X44200Y-33700D01*
X44184Y-33623D01*
X44141Y-33558D01*
X44076Y-33515D01*
X44000Y-33500D01*
X43082Y-33500D01*
X42550Y-32967D01*
X42550Y-31575D01*
X42534Y-31498D01*
X42534Y-31498D01*
X42500Y-31446D01*
X42500Y-30884D01*
X42575Y-30809D01*
X42624Y-30689D01*
X42625Y-30560D01*
X42575Y-30441D01*
X42484Y-30349D01*
X42364Y-30300D01*
X42235Y-30299D01*
X42116Y-30349D01*
X42024Y-30440D01*
X41975Y-30560D01*
X41974Y-30689D01*
X42024Y-30808D01*
X42100Y-30884D01*
X42100Y-31525D01*
X42115Y-31601D01*
X42150Y-31653D01*
X42150Y-33050D01*
X42165Y-33126D01*
X42208Y-33191D01*
X42858Y-33841D01*
X42858Y-33841D01*
X42901Y-33870D01*
X42923Y-33884D01*
X42923Y-33884D01*
X43000Y-33900D01*
X43800Y-33900D01*
X43800Y-34867D01*
X43748Y-34918D01*
X43748Y-34348D01*
X43671Y-34163D01*
X43530Y-34021D01*
X43344Y-33944D01*
X43144Y-33944D01*
X42958Y-34021D01*
X42816Y-34162D01*
X42759Y-34300D01*
X42703Y-34163D01*
X42561Y-34021D01*
X42376Y-33944D01*
X42175Y-33944D01*
X41990Y-34021D01*
X41848Y-34162D01*
X41791Y-34300D01*
X41734Y-34163D01*
X41593Y-34021D01*
X41407Y-33944D01*
X41207Y-33944D01*
X41021Y-34021D01*
X40879Y-34162D01*
X40822Y-34300D01*
X40766Y-34163D01*
X40624Y-34021D01*
X40439Y-33944D01*
X40238Y-33944D01*
X40053Y-34021D01*
X39911Y-34162D01*
X39874Y-34251D01*
X39874Y-34064D01*
X39851Y-34009D01*
X39809Y-33967D01*
X39754Y-33944D01*
X39694Y-33944D01*
X38986Y-33944D01*
X38930Y-33967D01*
X38888Y-34009D01*
X38865Y-34064D01*
X38865Y-34124D01*
X38865Y-34832D01*
X38888Y-34888D01*
X38930Y-34930D01*
X38985Y-34953D01*
X39045Y-34953D01*
X39754Y-34953D01*
X39809Y-34930D01*
X39851Y-34888D01*
X39874Y-34833D01*
X39874Y-34773D01*
X39874Y-34646D01*
X39910Y-34734D01*
X40052Y-34876D01*
X40237Y-34953D01*
X40438Y-34953D01*
X40623Y-34876D01*
X40765Y-34734D01*
X40822Y-34597D01*
X40879Y-34734D01*
X41021Y-34876D01*
X41206Y-34953D01*
X41406Y-34953D01*
X41592Y-34876D01*
X41734Y-34734D01*
X41791Y-34597D01*
X41847Y-34734D01*
X41989Y-34876D01*
X42174Y-34953D01*
X42375Y-34953D01*
X42560Y-34876D01*
X42702Y-34734D01*
X42759Y-34597D01*
X42816Y-34734D01*
X42958Y-34876D01*
X43143Y-34953D01*
X43343Y-34953D01*
X43529Y-34876D01*
X43671Y-34734D01*
X43748Y-34549D01*
X43748Y-34348D01*
X43748Y-34918D01*
X43233Y-35433D01*
X43199Y-35484D01*
X43150Y-35366D01*
X43059Y-35274D01*
X42939Y-35225D01*
X42810Y-35224D01*
X42691Y-35274D01*
X42599Y-35365D01*
X42550Y-35485D01*
X42549Y-35614D01*
X42599Y-35733D01*
X42675Y-35809D01*
X42675Y-38515D01*
X42599Y-38590D01*
X42550Y-38710D01*
X42549Y-38839D01*
X42599Y-38958D01*
X42640Y-39000D01*
X40325Y-39000D01*
X40325Y-37935D01*
X40275Y-37816D01*
X40200Y-37740D01*
X40200Y-35609D01*
X40225Y-35584D01*
X40274Y-35464D01*
X40275Y-35335D01*
X40225Y-35216D01*
X40134Y-35124D01*
X40014Y-35075D01*
X39885Y-35074D01*
X39766Y-35124D01*
X39674Y-35215D01*
X39625Y-35335D01*
X39624Y-35464D01*
X39674Y-35583D01*
X39765Y-35675D01*
X39800Y-35689D01*
X39800Y-37740D01*
X39724Y-37815D01*
X39675Y-37935D01*
X39674Y-38064D01*
X39724Y-38183D01*
X39815Y-38275D01*
X39935Y-38324D01*
X40064Y-38325D01*
X40183Y-38275D01*
X40275Y-38184D01*
X40324Y-38064D01*
X40325Y-37935D01*
X40325Y-39000D01*
X38432Y-39000D01*
X38107Y-38674D01*
X38189Y-38675D01*
X38308Y-38625D01*
X38400Y-38534D01*
X38449Y-38414D01*
X38450Y-38285D01*
X38400Y-38166D01*
X38325Y-38090D01*
X38325Y-37829D01*
X38435Y-37874D01*
X38564Y-37875D01*
X38683Y-37825D01*
X38775Y-37734D01*
X38824Y-37614D01*
X38825Y-37485D01*
X38775Y-37366D01*
X38700Y-37290D01*
X38700Y-36982D01*
X38725Y-37007D01*
X38724Y-37114D01*
X38774Y-37233D01*
X38865Y-37325D01*
X38985Y-37374D01*
X39114Y-37375D01*
X39233Y-37325D01*
X39325Y-37234D01*
X39374Y-37114D01*
X39375Y-36985D01*
X39325Y-36866D01*
X39234Y-36774D01*
X39114Y-36725D01*
X39007Y-36724D01*
X38957Y-36675D01*
X39091Y-36541D01*
X39091Y-36541D01*
X39120Y-36498D01*
X39134Y-36476D01*
X39134Y-36476D01*
X39149Y-36400D01*
X39150Y-36400D01*
X39150Y-35350D01*
X39149Y-35349D01*
X39134Y-35273D01*
X39134Y-35273D01*
X39120Y-35251D01*
X39091Y-35208D01*
X39091Y-35208D01*
X38400Y-34517D01*
X38400Y-33750D01*
X38387Y-33686D01*
X38384Y-33673D01*
X38384Y-33673D01*
X38341Y-33608D01*
X38341Y-33608D01*
X38250Y-33517D01*
X38250Y-32400D01*
X38234Y-32323D01*
X38234Y-32323D01*
X38200Y-32271D01*
X38200Y-32195D01*
X38201Y-32196D01*
X38330Y-32249D01*
X38469Y-32250D01*
X38598Y-32196D01*
X38644Y-32150D01*
X40146Y-32150D01*
X40999Y-33003D01*
X40999Y-33069D01*
X41053Y-33198D01*
X41151Y-33296D01*
X41280Y-33349D01*
X41419Y-33350D01*
X41548Y-33296D01*
X41646Y-33198D01*
X41699Y-33069D01*
X41700Y-32930D01*
X41646Y-32802D01*
X41548Y-32703D01*
X41419Y-32650D01*
X41353Y-32650D01*
X40426Y-31723D01*
X40345Y-31669D01*
X40250Y-31650D01*
X38644Y-31650D01*
X38598Y-31603D01*
X38469Y-31550D01*
X38382Y-31549D01*
X38632Y-31300D01*
X39900Y-31300D01*
X39976Y-31284D01*
X40041Y-31241D01*
X40282Y-30999D01*
X40389Y-31000D01*
X40508Y-30950D01*
X40600Y-30859D01*
X40649Y-30739D01*
X40650Y-30610D01*
X40600Y-30491D01*
X40509Y-30400D01*
X40517Y-30400D01*
X40775Y-30657D01*
X40774Y-30764D01*
X40824Y-30883D01*
X40915Y-30975D01*
X41035Y-31024D01*
X41164Y-31025D01*
X41283Y-30975D01*
X41375Y-30884D01*
X41424Y-30764D01*
X41425Y-30635D01*
X41375Y-30516D01*
X41284Y-30424D01*
X41164Y-30375D01*
X41057Y-30374D01*
X40741Y-30058D01*
X40676Y-30015D01*
X40600Y-30000D01*
X44517Y-30000D01*
X45342Y-30825D01*
X45342Y-30825D01*
X45385Y-30854D01*
X45407Y-30868D01*
X45407Y-30868D01*
X45484Y-30884D01*
X46397Y-30884D01*
X46397Y-30894D01*
X46397Y-31044D01*
X46407Y-31067D01*
X46398Y-31091D01*
X46397Y-31150D01*
X46397Y-31300D01*
X46401Y-31309D01*
X46261Y-31450D01*
X46059Y-31450D01*
X46034Y-31424D01*
X45914Y-31375D01*
X45785Y-31374D01*
X45666Y-31424D01*
X45574Y-31515D01*
X45525Y-31635D01*
X45524Y-31764D01*
X45574Y-31883D01*
X45665Y-31975D01*
X45785Y-32024D01*
X45914Y-32025D01*
X46033Y-31975D01*
X46125Y-31884D01*
X46139Y-31850D01*
X46344Y-31850D01*
X46420Y-31834D01*
X46485Y-31791D01*
X46855Y-31421D01*
X47077Y-31421D01*
X47132Y-31398D01*
X47175Y-31356D01*
X47197Y-31300D01*
X47198Y-31241D01*
X47198Y-31157D01*
X47265Y-31225D01*
X47385Y-31274D01*
X47514Y-31275D01*
X47600Y-31239D01*
X47600Y-32250D01*
X47615Y-32326D01*
X47658Y-32391D01*
X48517Y-33250D01*
X46832Y-33250D01*
X46640Y-33057D01*
X47009Y-33057D01*
X47064Y-33034D01*
X47088Y-33011D01*
X47103Y-33048D01*
X47201Y-33146D01*
X47330Y-33199D01*
X47469Y-33200D01*
X47598Y-33146D01*
X47696Y-33048D01*
X47749Y-32919D01*
X47750Y-32780D01*
X47696Y-32652D01*
X47598Y-32553D01*
X47469Y-32500D01*
X47330Y-32499D01*
X47320Y-32504D01*
X47300Y-32500D01*
X47099Y-32500D01*
X47065Y-32465D01*
X47009Y-32442D01*
X46950Y-32442D01*
X46556Y-32442D01*
X46501Y-32465D01*
X46458Y-32507D01*
X46436Y-32562D01*
X46435Y-32622D01*
X46435Y-32703D01*
X46341Y-32608D01*
X46276Y-32565D01*
X46263Y-32562D01*
X46263Y-32562D01*
X46264Y-32502D01*
X46264Y-32187D01*
X46241Y-32132D01*
X46199Y-32090D01*
X46143Y-32067D01*
X46084Y-32067D01*
X45690Y-32067D01*
X45635Y-32090D01*
X45592Y-32132D01*
X45585Y-32150D01*
X45575Y-32150D01*
X45575Y-32095D01*
X45552Y-32040D01*
X45510Y-31997D01*
X45454Y-31975D01*
X45395Y-31974D01*
X45350Y-31974D01*
X45350Y-30930D01*
X45296Y-30802D01*
X45198Y-30703D01*
X45069Y-30650D01*
X44930Y-30649D01*
X44802Y-30703D01*
X44704Y-30800D01*
X43250Y-30800D01*
X43249Y-30800D01*
X43230Y-30803D01*
X43154Y-30819D01*
X43073Y-30873D01*
X43073Y-30873D01*
X42896Y-31049D01*
X42830Y-31049D01*
X42702Y-31103D01*
X42603Y-31201D01*
X42550Y-31330D01*
X42549Y-31469D01*
X42603Y-31598D01*
X42701Y-31696D01*
X42830Y-31749D01*
X42969Y-31750D01*
X43098Y-31696D01*
X43196Y-31598D01*
X43249Y-31469D01*
X43249Y-31403D01*
X43353Y-31300D01*
X44249Y-31300D01*
X44191Y-31324D01*
X44099Y-31415D01*
X44050Y-31535D01*
X44049Y-31664D01*
X44072Y-31719D01*
X43817Y-31975D01*
X43710Y-31974D01*
X43591Y-32024D01*
X43499Y-32115D01*
X43450Y-32235D01*
X43449Y-32364D01*
X43499Y-32483D01*
X43590Y-32575D01*
X43710Y-32624D01*
X43839Y-32625D01*
X43958Y-32575D01*
X44050Y-32484D01*
X44099Y-32364D01*
X44100Y-32257D01*
X44432Y-31925D01*
X44439Y-31925D01*
X44558Y-31875D01*
X44650Y-31784D01*
X44699Y-31664D01*
X44700Y-31535D01*
X44650Y-31416D01*
X44559Y-31324D01*
X44500Y-31300D01*
X44809Y-31300D01*
X44930Y-31349D01*
X45069Y-31350D01*
X45198Y-31296D01*
X45296Y-31198D01*
X45349Y-31069D01*
X45350Y-30930D01*
X45350Y-31974D01*
X45145Y-31974D01*
X45090Y-31997D01*
X45047Y-32039D01*
X45025Y-32095D01*
X45024Y-32154D01*
X45024Y-32550D01*
X44975Y-32550D01*
X44975Y-32545D01*
X44975Y-32095D01*
X44952Y-32040D01*
X44910Y-31997D01*
X44854Y-31975D01*
X44795Y-31974D01*
X44545Y-31974D01*
X44490Y-31997D01*
X44447Y-32039D01*
X44425Y-32095D01*
X44424Y-32154D01*
X44424Y-32604D01*
X44447Y-32659D01*
X44489Y-32702D01*
X44501Y-32706D01*
X44515Y-32776D01*
X44558Y-32841D01*
X44608Y-32891D01*
X44673Y-32934D01*
X44673Y-32934D01*
X44750Y-32950D01*
X45570Y-32950D01*
X45569Y-32997D01*
X45569Y-33312D01*
X45592Y-33367D01*
X45634Y-33409D01*
X45690Y-33432D01*
X45749Y-33432D01*
X46007Y-33432D01*
X46482Y-33907D01*
X46344Y-33850D01*
X46144Y-33849D01*
X45958Y-33926D01*
X45816Y-34068D01*
X45759Y-34205D01*
X45703Y-34069D01*
X45561Y-33927D01*
X45376Y-33850D01*
X45175Y-33849D01*
X44990Y-33926D01*
X44848Y-34068D01*
X44771Y-34253D01*
X44771Y-34454D01*
X44847Y-34639D01*
X44989Y-34781D01*
X45174Y-34858D01*
X45375Y-34858D01*
X45560Y-34782D01*
X45702Y-34640D01*
X45759Y-34503D01*
X45816Y-34639D01*
X45958Y-34781D01*
X46143Y-34858D01*
X46343Y-34858D01*
X46529Y-34782D01*
X46671Y-34640D01*
X46728Y-34503D01*
X46784Y-34639D01*
X46926Y-34781D01*
X47111Y-34858D01*
X47312Y-34858D01*
X47497Y-34782D01*
X47639Y-34640D01*
X47696Y-34503D01*
X47753Y-34639D01*
X47895Y-34781D01*
X48080Y-34858D01*
X48280Y-34858D01*
X48466Y-34782D01*
X48608Y-34640D01*
X48665Y-34503D01*
X48721Y-34639D01*
X48863Y-34781D01*
X49048Y-34858D01*
X49249Y-34858D01*
X49434Y-34782D01*
X49576Y-34640D01*
X49653Y-34455D01*
X49654Y-34254D01*
X49577Y-34069D01*
X49435Y-33927D01*
X49250Y-33850D01*
X49049Y-33849D01*
X48864Y-33926D01*
X48722Y-34068D01*
X48665Y-34205D01*
X48608Y-34069D01*
X48467Y-33927D01*
X48281Y-33850D01*
X48081Y-33849D01*
X47895Y-33926D01*
X47753Y-34068D01*
X47696Y-34205D01*
X47640Y-34069D01*
X47498Y-33927D01*
X47313Y-33850D01*
X47112Y-33849D01*
X47026Y-33885D01*
X46791Y-33650D01*
X49317Y-33650D01*
X49800Y-34132D01*
X49800Y-34867D01*
X49800Y-34867D01*
G37*
G54D22*
X49800Y-34867D02*
X48067Y-36600D01*
X44950Y-36600D01*
X44886Y-36612D01*
X44873Y-36615D01*
X44808Y-36658D01*
X43408Y-38058D01*
X43365Y-38123D01*
X43350Y-38200D01*
X43350Y-38667D01*
X43199Y-38817D01*
X43200Y-38710D01*
X43150Y-38591D01*
X43075Y-38515D01*
X43075Y-36775D01*
X43099Y-36833D01*
X43190Y-36925D01*
X43310Y-36974D01*
X43439Y-36975D01*
X43558Y-36925D01*
X43650Y-36834D01*
X43699Y-36714D01*
X43700Y-36607D01*
X43957Y-36350D01*
X47165Y-36350D01*
X47240Y-36425D01*
X47360Y-36474D01*
X47489Y-36475D01*
X47608Y-36425D01*
X47700Y-36334D01*
X47749Y-36214D01*
X47750Y-36085D01*
X47700Y-35966D01*
X47609Y-35874D01*
X47592Y-35867D01*
X47625Y-35834D01*
X47674Y-35714D01*
X47675Y-35585D01*
X47625Y-35466D01*
X47534Y-35374D01*
X47414Y-35325D01*
X47285Y-35324D01*
X47166Y-35374D01*
X47090Y-35450D01*
X44409Y-35450D01*
X44409Y-35449D01*
X44289Y-35400D01*
X44160Y-35399D01*
X44041Y-35449D01*
X43949Y-35540D01*
X43900Y-35660D01*
X43899Y-35789D01*
X43949Y-35908D01*
X43990Y-35950D01*
X43875Y-35950D01*
X43811Y-35962D01*
X43798Y-35965D01*
X43733Y-36008D01*
X43575Y-36167D01*
X43575Y-35657D01*
X44141Y-35091D01*
X44184Y-35026D01*
X44200Y-34950D01*
X44200Y-33700D01*
X44184Y-33623D01*
X44141Y-33558D01*
X44076Y-33515D01*
X44000Y-33500D01*
X43082Y-33500D01*
X42550Y-32967D01*
X42550Y-31575D01*
X42534Y-31498D01*
X42534Y-31498D01*
X42500Y-31446D01*
X42500Y-30884D01*
X42575Y-30809D01*
X42624Y-30689D01*
X42625Y-30560D01*
X42575Y-30441D01*
X42484Y-30349D01*
X42364Y-30300D01*
X42235Y-30299D01*
X42116Y-30349D01*
X42024Y-30440D01*
X41975Y-30560D01*
X41974Y-30689D01*
X42024Y-30808D01*
X42100Y-30884D01*
X42100Y-31525D01*
X42115Y-31601D01*
X42150Y-31653D01*
X42150Y-33050D01*
X42165Y-33126D01*
X42208Y-33191D01*
X42858Y-33841D01*
X42858Y-33841D01*
X42901Y-33870D01*
X42923Y-33884D01*
X42923Y-33884D01*
X43000Y-33900D01*
X43800Y-33900D01*
X43800Y-34867D01*
X43748Y-34918D01*
X43748Y-34348D01*
X43671Y-34163D01*
X43530Y-34021D01*
X43344Y-33944D01*
X43144Y-33944D01*
X42958Y-34021D01*
X42816Y-34162D01*
X42759Y-34300D01*
X42703Y-34163D01*
X42561Y-34021D01*
X42376Y-33944D01*
X42175Y-33944D01*
X41990Y-34021D01*
X41848Y-34162D01*
X41791Y-34300D01*
X41734Y-34163D01*
X41593Y-34021D01*
X41407Y-33944D01*
X41207Y-33944D01*
X41021Y-34021D01*
X40879Y-34162D01*
X40822Y-34300D01*
X40766Y-34163D01*
X40624Y-34021D01*
X40439Y-33944D01*
X40238Y-33944D01*
X40053Y-34021D01*
X39911Y-34162D01*
X39874Y-34251D01*
X39874Y-34064D01*
X39851Y-34009D01*
X39809Y-33967D01*
X39754Y-33944D01*
X39694Y-33944D01*
X38986Y-33944D01*
X38930Y-33967D01*
X38888Y-34009D01*
X38865Y-34064D01*
X38865Y-34124D01*
X38865Y-34832D01*
X38888Y-34888D01*
X38930Y-34930D01*
X38985Y-34953D01*
X39045Y-34953D01*
X39754Y-34953D01*
X39809Y-34930D01*
X39851Y-34888D01*
X39874Y-34833D01*
X39874Y-34773D01*
X39874Y-34646D01*
X39910Y-34734D01*
X40052Y-34876D01*
X40237Y-34953D01*
X40438Y-34953D01*
X40623Y-34876D01*
X40765Y-34734D01*
X40822Y-34597D01*
X40879Y-34734D01*
X41021Y-34876D01*
X41206Y-34953D01*
X41406Y-34953D01*
X41592Y-34876D01*
X41734Y-34734D01*
X41791Y-34597D01*
X41847Y-34734D01*
X41989Y-34876D01*
X42174Y-34953D01*
X42375Y-34953D01*
X42560Y-34876D01*
X42702Y-34734D01*
X42759Y-34597D01*
X42816Y-34734D01*
X42958Y-34876D01*
X43143Y-34953D01*
X43343Y-34953D01*
X43529Y-34876D01*
X43671Y-34734D01*
X43748Y-34549D01*
X43748Y-34348D01*
X43748Y-34918D01*
X43233Y-35433D01*
X43199Y-35484D01*
X43150Y-35366D01*
X43059Y-35274D01*
X42939Y-35225D01*
X42810Y-35224D01*
X42691Y-35274D01*
X42599Y-35365D01*
X42550Y-35485D01*
X42549Y-35614D01*
X42599Y-35733D01*
X42675Y-35809D01*
X42675Y-38515D01*
X42599Y-38590D01*
X42550Y-38710D01*
X42549Y-38839D01*
X42599Y-38958D01*
X42640Y-39000D01*
X40325Y-39000D01*
X40325Y-37935D01*
X40275Y-37816D01*
X40200Y-37740D01*
X40200Y-35609D01*
X40225Y-35584D01*
X40274Y-35464D01*
X40275Y-35335D01*
X40225Y-35216D01*
X40134Y-35124D01*
X40014Y-35075D01*
X39885Y-35074D01*
X39766Y-35124D01*
X39674Y-35215D01*
X39625Y-35335D01*
X39624Y-35464D01*
X39674Y-35583D01*
X39765Y-35675D01*
X39800Y-35689D01*
X39800Y-37740D01*
X39724Y-37815D01*
X39675Y-37935D01*
X39674Y-38064D01*
X39724Y-38183D01*
X39815Y-38275D01*
X39935Y-38324D01*
X40064Y-38325D01*
X40183Y-38275D01*
X40275Y-38184D01*
X40324Y-38064D01*
X40325Y-37935D01*
X40325Y-39000D01*
X38432Y-39000D01*
X38107Y-38674D01*
X38189Y-38675D01*
X38308Y-38625D01*
X38400Y-38534D01*
X38449Y-38414D01*
X38450Y-38285D01*
X38400Y-38166D01*
X38325Y-38090D01*
X38325Y-37829D01*
X38435Y-37874D01*
X38564Y-37875D01*
X38683Y-37825D01*
X38775Y-37734D01*
X38824Y-37614D01*
X38825Y-37485D01*
X38775Y-37366D01*
X38700Y-37290D01*
X38700Y-36982D01*
X38725Y-37007D01*
X38724Y-37114D01*
X38774Y-37233D01*
X38865Y-37325D01*
X38985Y-37374D01*
X39114Y-37375D01*
X39233Y-37325D01*
X39325Y-37234D01*
X39374Y-37114D01*
X39375Y-36985D01*
X39325Y-36866D01*
X39234Y-36774D01*
X39114Y-36725D01*
X39007Y-36724D01*
X38957Y-36675D01*
X39091Y-36541D01*
X39091Y-36541D01*
X39120Y-36498D01*
X39134Y-36476D01*
X39134Y-36476D01*
X39149Y-36400D01*
X39150Y-36400D01*
X39150Y-35350D01*
X39149Y-35349D01*
X39134Y-35273D01*
X39134Y-35273D01*
X39120Y-35251D01*
X39091Y-35208D01*
X39091Y-35208D01*
X38400Y-34517D01*
X38400Y-33750D01*
X38387Y-33686D01*
X38384Y-33673D01*
X38384Y-33673D01*
X38341Y-33608D01*
X38341Y-33608D01*
X38250Y-33517D01*
X38250Y-32400D01*
X38234Y-32323D01*
X38234Y-32323D01*
X38200Y-32271D01*
X38200Y-32195D01*
X38201Y-32196D01*
X38330Y-32249D01*
X38469Y-32250D01*
X38598Y-32196D01*
X38644Y-32150D01*
X40146Y-32150D01*
X40999Y-33003D01*
X40999Y-33069D01*
X41053Y-33198D01*
X41151Y-33296D01*
X41280Y-33349D01*
X41419Y-33350D01*
X41548Y-33296D01*
X41646Y-33198D01*
X41699Y-33069D01*
X41700Y-32930D01*
X41646Y-32802D01*
X41548Y-32703D01*
X41419Y-32650D01*
X41353Y-32650D01*
X40426Y-31723D01*
X40345Y-31669D01*
X40250Y-31650D01*
X38644Y-31650D01*
X38598Y-31603D01*
X38469Y-31550D01*
X38382Y-31549D01*
X38632Y-31300D01*
X39900Y-31300D01*
X39976Y-31284D01*
X40041Y-31241D01*
X40282Y-30999D01*
X40389Y-31000D01*
X40508Y-30950D01*
X40600Y-30859D01*
X40649Y-30739D01*
X40650Y-30610D01*
X40600Y-30491D01*
X40509Y-30400D01*
X40517Y-30400D01*
X40775Y-30657D01*
X40774Y-30764D01*
X40824Y-30883D01*
X40915Y-30975D01*
X41035Y-31024D01*
X41164Y-31025D01*
X41283Y-30975D01*
X41375Y-30884D01*
X41424Y-30764D01*
X41425Y-30635D01*
X41375Y-30516D01*
X41284Y-30424D01*
X41164Y-30375D01*
X41057Y-30374D01*
X40741Y-30058D01*
X40676Y-30015D01*
X40600Y-30000D01*
X44517Y-30000D01*
X45342Y-30825D01*
X45342Y-30825D01*
X45385Y-30854D01*
X45407Y-30868D01*
X45407Y-30868D01*
X45484Y-30884D01*
X46397Y-30884D01*
X46397Y-30894D01*
X46397Y-31044D01*
X46407Y-31067D01*
X46398Y-31091D01*
X46397Y-31150D01*
X46397Y-31300D01*
X46401Y-31309D01*
X46261Y-31450D01*
X46059Y-31450D01*
X46034Y-31424D01*
X45914Y-31375D01*
X45785Y-31374D01*
X45666Y-31424D01*
X45574Y-31515D01*
X45525Y-31635D01*
X45524Y-31764D01*
X45574Y-31883D01*
X45665Y-31975D01*
X45785Y-32024D01*
X45914Y-32025D01*
X46033Y-31975D01*
X46125Y-31884D01*
X46139Y-31850D01*
X46344Y-31850D01*
X46420Y-31834D01*
X46485Y-31791D01*
X46855Y-31421D01*
X47077Y-31421D01*
X47132Y-31398D01*
X47175Y-31356D01*
X47197Y-31300D01*
X47198Y-31241D01*
X47198Y-31157D01*
X47265Y-31225D01*
X47385Y-31274D01*
X47514Y-31275D01*
X47600Y-31239D01*
X47600Y-32250D01*
X47615Y-32326D01*
X47658Y-32391D01*
X48517Y-33250D01*
X46832Y-33250D01*
X46640Y-33057D01*
X47009Y-33057D01*
X47064Y-33034D01*
X47088Y-33011D01*
X47103Y-33048D01*
X47201Y-33146D01*
X47330Y-33199D01*
X47469Y-33200D01*
X47598Y-33146D01*
X47696Y-33048D01*
X47749Y-32919D01*
X47750Y-32780D01*
X47696Y-32652D01*
X47598Y-32553D01*
X47469Y-32500D01*
X47330Y-32499D01*
X47320Y-32504D01*
X47300Y-32500D01*
X47099Y-32500D01*
X47065Y-32465D01*
X47009Y-32442D01*
X46950Y-32442D01*
X46556Y-32442D01*
X46501Y-32465D01*
X46458Y-32507D01*
X46436Y-32562D01*
X46435Y-32622D01*
X46435Y-32703D01*
X46341Y-32608D01*
X46276Y-32565D01*
X46263Y-32562D01*
X46263Y-32562D01*
X46264Y-32502D01*
X46264Y-32187D01*
X46241Y-32132D01*
X46199Y-32090D01*
X46143Y-32067D01*
X46084Y-32067D01*
X45690Y-32067D01*
X45635Y-32090D01*
X45592Y-32132D01*
X45585Y-32150D01*
X45575Y-32150D01*
X45575Y-32095D01*
X45552Y-32040D01*
X45510Y-31997D01*
X45454Y-31975D01*
X45395Y-31974D01*
X45350Y-31974D01*
X45350Y-30930D01*
X45296Y-30802D01*
X45198Y-30703D01*
X45069Y-30650D01*
X44930Y-30649D01*
X44802Y-30703D01*
X44704Y-30800D01*
X43250Y-30800D01*
X43249Y-30800D01*
X43230Y-30803D01*
X43154Y-30819D01*
X43073Y-30873D01*
X43073Y-30873D01*
X42896Y-31049D01*
X42830Y-31049D01*
X42702Y-31103D01*
X42603Y-31201D01*
X42550Y-31330D01*
X42549Y-31469D01*
X42603Y-31598D01*
X42701Y-31696D01*
X42830Y-31749D01*
X42969Y-31750D01*
X43098Y-31696D01*
X43196Y-31598D01*
X43249Y-31469D01*
X43249Y-31403D01*
X43353Y-31300D01*
X44249Y-31300D01*
X44191Y-31324D01*
X44099Y-31415D01*
X44050Y-31535D01*
X44049Y-31664D01*
X44072Y-31719D01*
X43817Y-31975D01*
X43710Y-31974D01*
X43591Y-32024D01*
X43499Y-32115D01*
X43450Y-32235D01*
X43449Y-32364D01*
X43499Y-32483D01*
X43590Y-32575D01*
X43710Y-32624D01*
X43839Y-32625D01*
X43958Y-32575D01*
X44050Y-32484D01*
X44099Y-32364D01*
X44100Y-32257D01*
X44432Y-31925D01*
X44439Y-31925D01*
X44558Y-31875D01*
X44650Y-31784D01*
X44699Y-31664D01*
X44700Y-31535D01*
X44650Y-31416D01*
X44559Y-31324D01*
X44500Y-31300D01*
X44809Y-31300D01*
X44930Y-31349D01*
X45069Y-31350D01*
X45198Y-31296D01*
X45296Y-31198D01*
X45349Y-31069D01*
X45350Y-30930D01*
X45350Y-31974D01*
X45145Y-31974D01*
X45090Y-31997D01*
X45047Y-32039D01*
X45025Y-32095D01*
X45024Y-32154D01*
X45024Y-32550D01*
X44975Y-32550D01*
X44975Y-32545D01*
X44975Y-32095D01*
X44952Y-32040D01*
X44910Y-31997D01*
X44854Y-31975D01*
X44795Y-31974D01*
X44545Y-31974D01*
X44490Y-31997D01*
X44447Y-32039D01*
X44425Y-32095D01*
X44424Y-32154D01*
X44424Y-32604D01*
X44447Y-32659D01*
X44489Y-32702D01*
X44501Y-32706D01*
X44515Y-32776D01*
X44558Y-32841D01*
X44608Y-32891D01*
X44673Y-32934D01*
X44673Y-32934D01*
X44750Y-32950D01*
X45570Y-32950D01*
X45569Y-32997D01*
X45569Y-33312D01*
X45592Y-33367D01*
X45634Y-33409D01*
X45690Y-33432D01*
X45749Y-33432D01*
X46007Y-33432D01*
X46482Y-33907D01*
X46344Y-33850D01*
X46144Y-33849D01*
X45958Y-33926D01*
X45816Y-34068D01*
X45759Y-34205D01*
X45703Y-34069D01*
X45561Y-33927D01*
X45376Y-33850D01*
X45175Y-33849D01*
X44990Y-33926D01*
X44848Y-34068D01*
X44771Y-34253D01*
X44771Y-34454D01*
X44847Y-34639D01*
X44989Y-34781D01*
X45174Y-34858D01*
X45375Y-34858D01*
X45560Y-34782D01*
X45702Y-34640D01*
X45759Y-34503D01*
X45816Y-34639D01*
X45958Y-34781D01*
X46143Y-34858D01*
X46343Y-34858D01*
X46529Y-34782D01*
X46671Y-34640D01*
X46728Y-34503D01*
X46784Y-34639D01*
X46926Y-34781D01*
X47111Y-34858D01*
X47312Y-34858D01*
X47497Y-34782D01*
X47639Y-34640D01*
X47696Y-34503D01*
X47753Y-34639D01*
X47895Y-34781D01*
X48080Y-34858D01*
X48280Y-34858D01*
X48466Y-34782D01*
X48608Y-34640D01*
X48665Y-34503D01*
X48721Y-34639D01*
X48863Y-34781D01*
X49048Y-34858D01*
X49249Y-34858D01*
X49434Y-34782D01*
X49576Y-34640D01*
X49653Y-34455D01*
X49654Y-34254D01*
X49577Y-34069D01*
X49435Y-33927D01*
X49250Y-33850D01*
X49049Y-33849D01*
X48864Y-33926D01*
X48722Y-34068D01*
X48665Y-34205D01*
X48608Y-34069D01*
X48467Y-33927D01*
X48281Y-33850D01*
X48081Y-33849D01*
X47895Y-33926D01*
X47753Y-34068D01*
X47696Y-34205D01*
X47640Y-34069D01*
X47498Y-33927D01*
X47313Y-33850D01*
X47112Y-33849D01*
X47026Y-33885D01*
X46791Y-33650D01*
X49317Y-33650D01*
X49800Y-34132D01*
X49800Y-34867D01*
G54D10*
G36*
X56500Y-28917D02*
X56380Y-29037D01*
X56380Y-28232D01*
X56380Y-28112D01*
X56317Y-28050D01*
X55958Y-28050D01*
X55958Y-28370D01*
X56020Y-28432D01*
X56080Y-28432D01*
X56179Y-28432D01*
X56271Y-28394D01*
X56342Y-28323D01*
X56380Y-28232D01*
X56380Y-29037D01*
X56162Y-29254D01*
X56133Y-29183D01*
X56133Y-29082D01*
X56159Y-29082D01*
X56214Y-29059D01*
X56257Y-29017D01*
X56279Y-28962D01*
X56280Y-28902D01*
X56280Y-28587D01*
X56257Y-28532D01*
X56215Y-28490D01*
X56159Y-28467D01*
X56100Y-28467D01*
X55706Y-28467D01*
X55700Y-28470D01*
X55700Y-28432D01*
X55785Y-28432D01*
X55845Y-28432D01*
X55908Y-28370D01*
X55908Y-28050D01*
X55900Y-28050D01*
X55900Y-28000D01*
X55908Y-28000D01*
X55908Y-27992D01*
X55958Y-27992D01*
X55958Y-28000D01*
X56317Y-28000D01*
X56380Y-27937D01*
X56380Y-27817D01*
X56380Y-26832D01*
X56380Y-26712D01*
X56317Y-26650D01*
X55958Y-26650D01*
X55958Y-26970D01*
X56020Y-27032D01*
X56080Y-27032D01*
X56179Y-27032D01*
X56271Y-26994D01*
X56342Y-26923D01*
X56380Y-26832D01*
X56380Y-27817D01*
X56342Y-27726D01*
X56271Y-27655D01*
X56234Y-27640D01*
X56257Y-27617D01*
X56279Y-27562D01*
X56280Y-27502D01*
X56280Y-27187D01*
X56257Y-27132D01*
X56215Y-27090D01*
X56159Y-27067D01*
X56100Y-27067D01*
X55908Y-27067D01*
X55908Y-26970D01*
X55908Y-26650D01*
X55548Y-26650D01*
X55486Y-26712D01*
X55485Y-26832D01*
X55523Y-26923D01*
X55594Y-26994D01*
X55686Y-27032D01*
X55785Y-27032D01*
X55845Y-27032D01*
X55908Y-26970D01*
X55908Y-27067D01*
X55706Y-27067D01*
X55651Y-27090D01*
X55608Y-27132D01*
X55586Y-27187D01*
X55585Y-27247D01*
X55585Y-27381D01*
X55358Y-27608D01*
X55315Y-27673D01*
X55300Y-27750D01*
X55300Y-28095D01*
X55293Y-28092D01*
X55234Y-28092D01*
X54840Y-28092D01*
X54785Y-28115D01*
X54755Y-28145D01*
X54734Y-28124D01*
X54614Y-28075D01*
X54485Y-28074D01*
X54366Y-28124D01*
X54274Y-28215D01*
X54225Y-28335D01*
X54224Y-28464D01*
X54274Y-28583D01*
X54365Y-28675D01*
X54485Y-28724D01*
X54614Y-28725D01*
X54733Y-28675D01*
X54754Y-28654D01*
X54784Y-28684D01*
X54840Y-28707D01*
X54899Y-28707D01*
X55293Y-28707D01*
X55300Y-28704D01*
X55300Y-29474D01*
X55285Y-29474D01*
X55166Y-29524D01*
X55074Y-29615D01*
X55025Y-29735D01*
X55024Y-29864D01*
X55074Y-29983D01*
X55140Y-30050D01*
X53375Y-30050D01*
X53375Y-29995D01*
X53356Y-29950D01*
X53400Y-29950D01*
X53476Y-29934D01*
X53541Y-29891D01*
X53691Y-29741D01*
X53691Y-29741D01*
X53734Y-29676D01*
X53734Y-29676D01*
X53737Y-29663D01*
X53749Y-29600D01*
X53750Y-29600D01*
X53750Y-27932D01*
X54591Y-27091D01*
X54634Y-27026D01*
X54634Y-27026D01*
X54650Y-26950D01*
X54650Y-26709D01*
X54715Y-26775D01*
X54732Y-26782D01*
X54720Y-26812D01*
X54719Y-26872D01*
X54719Y-27187D01*
X54742Y-27242D01*
X54784Y-27284D01*
X54840Y-27307D01*
X54899Y-27307D01*
X55293Y-27307D01*
X55348Y-27284D01*
X55391Y-27242D01*
X55413Y-27187D01*
X55414Y-27127D01*
X55414Y-26812D01*
X55391Y-26757D01*
X55349Y-26715D01*
X55293Y-26692D01*
X55267Y-26692D01*
X55267Y-26667D01*
X55251Y-26590D01*
X55251Y-26590D01*
X55224Y-26550D01*
X55224Y-26550D01*
X55225Y-26435D01*
X55175Y-26316D01*
X55159Y-26300D01*
X55225Y-26234D01*
X55270Y-26125D01*
X55591Y-26125D01*
X55608Y-26167D01*
X55650Y-26209D01*
X55678Y-26220D01*
X55594Y-26255D01*
X55523Y-26326D01*
X55485Y-26417D01*
X55486Y-26537D01*
X55548Y-26600D01*
X55908Y-26600D01*
X55908Y-26592D01*
X55958Y-26592D01*
X55958Y-26600D01*
X56317Y-26600D01*
X56380Y-26537D01*
X56380Y-26417D01*
X56380Y-25382D01*
X56380Y-25262D01*
X56317Y-25200D01*
X55958Y-25200D01*
X55958Y-25520D01*
X56020Y-25582D01*
X56080Y-25582D01*
X56179Y-25582D01*
X56271Y-25544D01*
X56342Y-25473D01*
X56380Y-25382D01*
X56380Y-26417D01*
X56342Y-26326D01*
X56271Y-26255D01*
X56187Y-26220D01*
X56214Y-26209D01*
X56257Y-26167D01*
X56279Y-26112D01*
X56280Y-26052D01*
X56280Y-25737D01*
X56257Y-25682D01*
X56215Y-25640D01*
X56159Y-25617D01*
X56100Y-25617D01*
X55908Y-25617D01*
X55908Y-25520D01*
X55908Y-25200D01*
X55548Y-25200D01*
X55486Y-25262D01*
X55485Y-25382D01*
X55523Y-25473D01*
X55594Y-25544D01*
X55686Y-25582D01*
X55785Y-25582D01*
X55845Y-25582D01*
X55908Y-25520D01*
X55908Y-25617D01*
X55706Y-25617D01*
X55651Y-25640D01*
X55608Y-25682D01*
X55591Y-25725D01*
X55413Y-25725D01*
X55414Y-25677D01*
X55414Y-25362D01*
X55391Y-25307D01*
X55349Y-25265D01*
X55293Y-25242D01*
X55267Y-25242D01*
X55267Y-25192D01*
X55275Y-25184D01*
X55324Y-25064D01*
X55325Y-24935D01*
X55275Y-24816D01*
X55184Y-24724D01*
X55064Y-24675D01*
X54935Y-24674D01*
X54816Y-24724D01*
X54724Y-24815D01*
X54675Y-24935D01*
X54674Y-25064D01*
X54724Y-25183D01*
X54799Y-25259D01*
X54785Y-25265D01*
X54742Y-25307D01*
X54720Y-25362D01*
X54719Y-25422D01*
X54719Y-25737D01*
X54742Y-25792D01*
X54745Y-25795D01*
X54674Y-25865D01*
X54650Y-25924D01*
X54650Y-24732D01*
X54732Y-24650D01*
X55350Y-24650D01*
X55426Y-24634D01*
X55491Y-24591D01*
X55585Y-24496D01*
X55585Y-24662D01*
X55608Y-24717D01*
X55650Y-24759D01*
X55678Y-24770D01*
X55594Y-24805D01*
X55523Y-24876D01*
X55485Y-24967D01*
X55486Y-25087D01*
X55548Y-25150D01*
X55908Y-25150D01*
X55908Y-25142D01*
X55958Y-25142D01*
X55958Y-25150D01*
X56317Y-25150D01*
X56380Y-25087D01*
X56380Y-24967D01*
X56342Y-24876D01*
X56271Y-24805D01*
X56187Y-24770D01*
X56214Y-24759D01*
X56257Y-24717D01*
X56265Y-24698D01*
X56500Y-24932D01*
X56500Y-28917D01*
X56500Y-28917D01*
G37*
G54D22*
X56500Y-28917D02*
X56380Y-29037D01*
X56380Y-28232D01*
X56380Y-28112D01*
X56317Y-28050D01*
X55958Y-28050D01*
X55958Y-28370D01*
X56020Y-28432D01*
X56080Y-28432D01*
X56179Y-28432D01*
X56271Y-28394D01*
X56342Y-28323D01*
X56380Y-28232D01*
X56380Y-29037D01*
X56162Y-29254D01*
X56133Y-29183D01*
X56133Y-29082D01*
X56159Y-29082D01*
X56214Y-29059D01*
X56257Y-29017D01*
X56279Y-28962D01*
X56280Y-28902D01*
X56280Y-28587D01*
X56257Y-28532D01*
X56215Y-28490D01*
X56159Y-28467D01*
X56100Y-28467D01*
X55706Y-28467D01*
X55700Y-28470D01*
X55700Y-28432D01*
X55785Y-28432D01*
X55845Y-28432D01*
X55908Y-28370D01*
X55908Y-28050D01*
X55900Y-28050D01*
X55900Y-28000D01*
X55908Y-28000D01*
X55908Y-27992D01*
X55958Y-27992D01*
X55958Y-28000D01*
X56317Y-28000D01*
X56380Y-27937D01*
X56380Y-27817D01*
X56380Y-26832D01*
X56380Y-26712D01*
X56317Y-26650D01*
X55958Y-26650D01*
X55958Y-26970D01*
X56020Y-27032D01*
X56080Y-27032D01*
X56179Y-27032D01*
X56271Y-26994D01*
X56342Y-26923D01*
X56380Y-26832D01*
X56380Y-27817D01*
X56342Y-27726D01*
X56271Y-27655D01*
X56234Y-27640D01*
X56257Y-27617D01*
X56279Y-27562D01*
X56280Y-27502D01*
X56280Y-27187D01*
X56257Y-27132D01*
X56215Y-27090D01*
X56159Y-27067D01*
X56100Y-27067D01*
X55908Y-27067D01*
X55908Y-26970D01*
X55908Y-26650D01*
X55548Y-26650D01*
X55486Y-26712D01*
X55485Y-26832D01*
X55523Y-26923D01*
X55594Y-26994D01*
X55686Y-27032D01*
X55785Y-27032D01*
X55845Y-27032D01*
X55908Y-26970D01*
X55908Y-27067D01*
X55706Y-27067D01*
X55651Y-27090D01*
X55608Y-27132D01*
X55586Y-27187D01*
X55585Y-27247D01*
X55585Y-27381D01*
X55358Y-27608D01*
X55315Y-27673D01*
X55300Y-27750D01*
X55300Y-28095D01*
X55293Y-28092D01*
X55234Y-28092D01*
X54840Y-28092D01*
X54785Y-28115D01*
X54755Y-28145D01*
X54734Y-28124D01*
X54614Y-28075D01*
X54485Y-28074D01*
X54366Y-28124D01*
X54274Y-28215D01*
X54225Y-28335D01*
X54224Y-28464D01*
X54274Y-28583D01*
X54365Y-28675D01*
X54485Y-28724D01*
X54614Y-28725D01*
X54733Y-28675D01*
X54754Y-28654D01*
X54784Y-28684D01*
X54840Y-28707D01*
X54899Y-28707D01*
X55293Y-28707D01*
X55300Y-28704D01*
X55300Y-29474D01*
X55285Y-29474D01*
X55166Y-29524D01*
X55074Y-29615D01*
X55025Y-29735D01*
X55024Y-29864D01*
X55074Y-29983D01*
X55140Y-30050D01*
X53375Y-30050D01*
X53375Y-29995D01*
X53356Y-29950D01*
X53400Y-29950D01*
X53476Y-29934D01*
X53541Y-29891D01*
X53691Y-29741D01*
X53691Y-29741D01*
X53734Y-29676D01*
X53734Y-29676D01*
X53737Y-29663D01*
X53749Y-29600D01*
X53750Y-29600D01*
X53750Y-27932D01*
X54591Y-27091D01*
X54634Y-27026D01*
X54634Y-27026D01*
X54650Y-26950D01*
X54650Y-26709D01*
X54715Y-26775D01*
X54732Y-26782D01*
X54720Y-26812D01*
X54719Y-26872D01*
X54719Y-27187D01*
X54742Y-27242D01*
X54784Y-27284D01*
X54840Y-27307D01*
X54899Y-27307D01*
X55293Y-27307D01*
X55348Y-27284D01*
X55391Y-27242D01*
X55413Y-27187D01*
X55414Y-27127D01*
X55414Y-26812D01*
X55391Y-26757D01*
X55349Y-26715D01*
X55293Y-26692D01*
X55267Y-26692D01*
X55267Y-26667D01*
X55251Y-26590D01*
X55251Y-26590D01*
X55224Y-26550D01*
X55224Y-26550D01*
X55225Y-26435D01*
X55175Y-26316D01*
X55159Y-26300D01*
X55225Y-26234D01*
X55270Y-26125D01*
X55591Y-26125D01*
X55608Y-26167D01*
X55650Y-26209D01*
X55678Y-26220D01*
X55594Y-26255D01*
X55523Y-26326D01*
X55485Y-26417D01*
X55486Y-26537D01*
X55548Y-26600D01*
X55908Y-26600D01*
X55908Y-26592D01*
X55958Y-26592D01*
X55958Y-26600D01*
X56317Y-26600D01*
X56380Y-26537D01*
X56380Y-26417D01*
X56380Y-25382D01*
X56380Y-25262D01*
X56317Y-25200D01*
X55958Y-25200D01*
X55958Y-25520D01*
X56020Y-25582D01*
X56080Y-25582D01*
X56179Y-25582D01*
X56271Y-25544D01*
X56342Y-25473D01*
X56380Y-25382D01*
X56380Y-26417D01*
X56342Y-26326D01*
X56271Y-26255D01*
X56187Y-26220D01*
X56214Y-26209D01*
X56257Y-26167D01*
X56279Y-26112D01*
X56280Y-26052D01*
X56280Y-25737D01*
X56257Y-25682D01*
X56215Y-25640D01*
X56159Y-25617D01*
X56100Y-25617D01*
X55908Y-25617D01*
X55908Y-25520D01*
X55908Y-25200D01*
X55548Y-25200D01*
X55486Y-25262D01*
X55485Y-25382D01*
X55523Y-25473D01*
X55594Y-25544D01*
X55686Y-25582D01*
X55785Y-25582D01*
X55845Y-25582D01*
X55908Y-25520D01*
X55908Y-25617D01*
X55706Y-25617D01*
X55651Y-25640D01*
X55608Y-25682D01*
X55591Y-25725D01*
X55413Y-25725D01*
X55414Y-25677D01*
X55414Y-25362D01*
X55391Y-25307D01*
X55349Y-25265D01*
X55293Y-25242D01*
X55267Y-25242D01*
X55267Y-25192D01*
X55275Y-25184D01*
X55324Y-25064D01*
X55325Y-24935D01*
X55275Y-24816D01*
X55184Y-24724D01*
X55064Y-24675D01*
X54935Y-24674D01*
X54816Y-24724D01*
X54724Y-24815D01*
X54675Y-24935D01*
X54674Y-25064D01*
X54724Y-25183D01*
X54799Y-25259D01*
X54785Y-25265D01*
X54742Y-25307D01*
X54720Y-25362D01*
X54719Y-25422D01*
X54719Y-25737D01*
X54742Y-25792D01*
X54745Y-25795D01*
X54674Y-25865D01*
X54650Y-25924D01*
X54650Y-24732D01*
X54732Y-24650D01*
X55350Y-24650D01*
X55426Y-24634D01*
X55491Y-24591D01*
X55585Y-24496D01*
X55585Y-24662D01*
X55608Y-24717D01*
X55650Y-24759D01*
X55678Y-24770D01*
X55594Y-24805D01*
X55523Y-24876D01*
X55485Y-24967D01*
X55486Y-25087D01*
X55548Y-25150D01*
X55908Y-25150D01*
X55908Y-25142D01*
X55958Y-25142D01*
X55958Y-25150D01*
X56317Y-25150D01*
X56380Y-25087D01*
X56380Y-24967D01*
X56342Y-24876D01*
X56271Y-24805D01*
X56187Y-24770D01*
X56214Y-24759D01*
X56257Y-24717D01*
X56265Y-24698D01*
X56500Y-24932D01*
X56500Y-28917D01*
G54D10*
G36*
X56880Y-41430D02*
X55850Y-41430D01*
X55850Y-32730D01*
X55796Y-32602D01*
X55698Y-32503D01*
X55569Y-32450D01*
X55430Y-32449D01*
X55309Y-32500D01*
X54999Y-32500D01*
X54965Y-32465D01*
X54909Y-32442D01*
X54850Y-32442D01*
X54456Y-32442D01*
X54401Y-32465D01*
X54358Y-32507D01*
X54336Y-32562D01*
X54335Y-32622D01*
X54335Y-32937D01*
X54358Y-32992D01*
X54400Y-33034D01*
X54456Y-33057D01*
X54515Y-33057D01*
X54909Y-33057D01*
X54964Y-33034D01*
X54999Y-33000D01*
X55205Y-33000D01*
X55301Y-33096D01*
X55430Y-33149D01*
X55569Y-33150D01*
X55698Y-33096D01*
X55796Y-32998D01*
X55849Y-32869D01*
X55850Y-32730D01*
X55850Y-41430D01*
X55559Y-41430D01*
X55559Y-40254D01*
X55559Y-34254D01*
X55482Y-34069D01*
X55341Y-33927D01*
X55155Y-33850D01*
X54955Y-33849D01*
X54769Y-33926D01*
X54627Y-34068D01*
X54570Y-34205D01*
X54514Y-34069D01*
X54372Y-33927D01*
X54187Y-33850D01*
X53986Y-33849D01*
X53801Y-33926D01*
X53659Y-34068D01*
X53602Y-34205D01*
X53545Y-34069D01*
X53404Y-33927D01*
X53318Y-33891D01*
X53318Y-33564D01*
X53504Y-33378D01*
X53534Y-33409D01*
X53590Y-33432D01*
X53649Y-33432D01*
X54043Y-33432D01*
X54098Y-33409D01*
X54141Y-33367D01*
X54163Y-33312D01*
X54164Y-33252D01*
X54164Y-32937D01*
X54141Y-32882D01*
X54099Y-32840D01*
X54043Y-32817D01*
X53984Y-32817D01*
X53590Y-32817D01*
X53535Y-32840D01*
X53492Y-32882D01*
X53475Y-32925D01*
X53475Y-32925D01*
X53398Y-32940D01*
X53376Y-32954D01*
X53333Y-32983D01*
X52976Y-33340D01*
X52933Y-33405D01*
X52918Y-33481D01*
X52918Y-33891D01*
X52832Y-33926D01*
X52690Y-34068D01*
X52633Y-34205D01*
X52577Y-34069D01*
X52435Y-33927D01*
X52250Y-33850D01*
X52049Y-33849D01*
X51864Y-33926D01*
X51722Y-34068D01*
X51665Y-34205D01*
X51608Y-34069D01*
X51467Y-33927D01*
X51281Y-33850D01*
X51081Y-33849D01*
X50895Y-33926D01*
X50753Y-34068D01*
X50676Y-34253D01*
X50676Y-34454D01*
X50753Y-34639D01*
X50895Y-34781D01*
X51080Y-34858D01*
X51280Y-34858D01*
X51466Y-34782D01*
X51608Y-34640D01*
X51665Y-34503D01*
X51721Y-34639D01*
X51863Y-34781D01*
X52048Y-34858D01*
X52249Y-34858D01*
X52434Y-34782D01*
X52576Y-34640D01*
X52633Y-34503D01*
X52690Y-34639D01*
X52832Y-34781D01*
X53017Y-34858D01*
X53217Y-34858D01*
X53403Y-34782D01*
X53545Y-34640D01*
X53602Y-34503D01*
X53658Y-34639D01*
X53800Y-34781D01*
X53985Y-34858D01*
X54186Y-34858D01*
X54371Y-34782D01*
X54513Y-34640D01*
X54570Y-34503D01*
X54627Y-34639D01*
X54769Y-34781D01*
X54954Y-34858D01*
X55154Y-34858D01*
X55340Y-34782D01*
X55482Y-34640D01*
X55559Y-34455D01*
X55559Y-34254D01*
X55559Y-40254D01*
X55482Y-40069D01*
X55341Y-39927D01*
X55155Y-39850D01*
X54955Y-39849D01*
X54769Y-39926D01*
X54627Y-40068D01*
X54570Y-40205D01*
X54514Y-40069D01*
X54372Y-39927D01*
X54187Y-39850D01*
X53986Y-39849D01*
X53801Y-39926D01*
X53659Y-40068D01*
X53602Y-40205D01*
X53545Y-40069D01*
X53404Y-39927D01*
X53250Y-39863D01*
X53250Y-38685D01*
X53200Y-38566D01*
X53109Y-38474D01*
X52989Y-38425D01*
X52860Y-38424D01*
X52741Y-38474D01*
X52665Y-38550D01*
X49909Y-38550D01*
X49859Y-38499D01*
X49739Y-38450D01*
X49610Y-38449D01*
X49491Y-38499D01*
X49399Y-38590D01*
X49350Y-38710D01*
X49349Y-38839D01*
X49399Y-38958D01*
X49490Y-39050D01*
X49610Y-39099D01*
X49739Y-39100D01*
X49858Y-39050D01*
X49950Y-38959D01*
X49954Y-38950D01*
X52665Y-38950D01*
X52740Y-39025D01*
X52860Y-39074D01*
X52989Y-39075D01*
X53108Y-39025D01*
X53200Y-38934D01*
X53249Y-38814D01*
X53250Y-38685D01*
X53250Y-39863D01*
X53218Y-39850D01*
X53018Y-39849D01*
X52832Y-39926D01*
X52690Y-40068D01*
X52633Y-40205D01*
X52577Y-40069D01*
X52435Y-39927D01*
X52250Y-39850D01*
X52049Y-39849D01*
X51864Y-39926D01*
X51722Y-40068D01*
X51685Y-40157D01*
X51685Y-39970D01*
X51662Y-39915D01*
X51620Y-39872D01*
X51565Y-39850D01*
X51505Y-39849D01*
X50797Y-39849D01*
X50741Y-39872D01*
X50699Y-39914D01*
X50676Y-39970D01*
X50676Y-40029D01*
X50676Y-40738D01*
X50699Y-40793D01*
X50741Y-40835D01*
X50796Y-40858D01*
X50856Y-40858D01*
X51565Y-40858D01*
X51620Y-40835D01*
X51662Y-40793D01*
X51685Y-40738D01*
X51685Y-40678D01*
X51685Y-40551D01*
X51721Y-40639D01*
X51863Y-40781D01*
X52048Y-40858D01*
X52249Y-40858D01*
X52434Y-40782D01*
X52576Y-40640D01*
X52633Y-40503D01*
X52690Y-40639D01*
X52832Y-40781D01*
X53017Y-40858D01*
X53217Y-40858D01*
X53403Y-40782D01*
X53545Y-40640D01*
X53602Y-40503D01*
X53658Y-40639D01*
X53800Y-40781D01*
X53985Y-40858D01*
X54186Y-40858D01*
X54371Y-40782D01*
X54513Y-40640D01*
X54570Y-40503D01*
X54627Y-40639D01*
X54769Y-40781D01*
X54954Y-40858D01*
X55154Y-40858D01*
X55340Y-40782D01*
X55482Y-40640D01*
X55559Y-40455D01*
X55559Y-40254D01*
X55559Y-41430D01*
X49654Y-41430D01*
X49654Y-40254D01*
X49577Y-40069D01*
X49435Y-39927D01*
X49250Y-39850D01*
X49049Y-39849D01*
X48864Y-39926D01*
X48722Y-40068D01*
X48665Y-40205D01*
X48608Y-40069D01*
X48467Y-39927D01*
X48281Y-39850D01*
X48081Y-39849D01*
X47895Y-39926D01*
X47753Y-40068D01*
X47696Y-40205D01*
X47640Y-40069D01*
X47498Y-39927D01*
X47313Y-39850D01*
X47112Y-39849D01*
X46927Y-39926D01*
X46785Y-40068D01*
X46728Y-40205D01*
X46671Y-40069D01*
X46530Y-39927D01*
X46344Y-39850D01*
X46144Y-39849D01*
X45958Y-39926D01*
X45816Y-40068D01*
X45779Y-40157D01*
X45779Y-39970D01*
X45757Y-39915D01*
X45715Y-39872D01*
X45659Y-39850D01*
X45600Y-39849D01*
X44891Y-39849D01*
X44836Y-39872D01*
X44794Y-39914D01*
X44771Y-39970D01*
X44771Y-40029D01*
X44771Y-40738D01*
X44794Y-40793D01*
X44836Y-40835D01*
X44891Y-40858D01*
X44950Y-40858D01*
X45659Y-40858D01*
X45714Y-40835D01*
X45757Y-40793D01*
X45779Y-40738D01*
X45779Y-40678D01*
X45779Y-40551D01*
X45816Y-40639D01*
X45958Y-40781D01*
X46143Y-40858D01*
X46343Y-40858D01*
X46529Y-40782D01*
X46671Y-40640D01*
X46728Y-40503D01*
X46784Y-40639D01*
X46926Y-40781D01*
X47111Y-40858D01*
X47312Y-40858D01*
X47497Y-40782D01*
X47639Y-40640D01*
X47696Y-40503D01*
X47753Y-40639D01*
X47895Y-40781D01*
X48080Y-40858D01*
X48280Y-40858D01*
X48466Y-40782D01*
X48608Y-40640D01*
X48665Y-40503D01*
X48721Y-40639D01*
X48863Y-40781D01*
X49048Y-40858D01*
X49249Y-40858D01*
X49434Y-40782D01*
X49576Y-40640D01*
X49653Y-40455D01*
X49654Y-40254D01*
X49654Y-41430D01*
X37843Y-41430D01*
X37843Y-40254D01*
X37766Y-40069D01*
X37624Y-39927D01*
X37439Y-39850D01*
X37238Y-39849D01*
X37053Y-39926D01*
X36911Y-40068D01*
X36854Y-40205D01*
X36797Y-40069D01*
X36656Y-39927D01*
X36470Y-39850D01*
X36270Y-39849D01*
X36084Y-39926D01*
X35942Y-40068D01*
X35925Y-40110D01*
X35925Y-38735D01*
X35875Y-38616D01*
X35784Y-38524D01*
X35664Y-38475D01*
X35535Y-38474D01*
X35416Y-38524D01*
X35340Y-38600D01*
X32234Y-38600D01*
X32159Y-38524D01*
X32039Y-38475D01*
X31910Y-38474D01*
X31791Y-38524D01*
X31699Y-38615D01*
X31650Y-38735D01*
X31649Y-38864D01*
X31699Y-38983D01*
X31790Y-39075D01*
X31910Y-39124D01*
X32039Y-39125D01*
X32158Y-39075D01*
X32234Y-39000D01*
X35340Y-39000D01*
X35415Y-39075D01*
X35535Y-39124D01*
X35664Y-39125D01*
X35783Y-39075D01*
X35875Y-38984D01*
X35924Y-38864D01*
X35925Y-38735D01*
X35925Y-40110D01*
X35885Y-40205D01*
X35829Y-40069D01*
X35687Y-39927D01*
X35502Y-39850D01*
X35301Y-39849D01*
X35116Y-39926D01*
X34974Y-40068D01*
X34917Y-40205D01*
X34860Y-40069D01*
X34719Y-39927D01*
X34533Y-39850D01*
X34333Y-39849D01*
X34147Y-39926D01*
X34005Y-40068D01*
X33968Y-40157D01*
X33968Y-39970D01*
X33946Y-39915D01*
X33903Y-39872D01*
X33848Y-39850D01*
X33789Y-39849D01*
X33080Y-39849D01*
X33025Y-39872D01*
X32983Y-39914D01*
X32960Y-39970D01*
X32960Y-40029D01*
X32960Y-40738D01*
X32982Y-40793D01*
X33025Y-40835D01*
X33080Y-40858D01*
X33139Y-40858D01*
X33848Y-40858D01*
X33903Y-40835D01*
X33945Y-40793D01*
X33968Y-40738D01*
X33968Y-40678D01*
X33968Y-40551D01*
X34005Y-40639D01*
X34147Y-40781D01*
X34332Y-40858D01*
X34532Y-40858D01*
X34718Y-40782D01*
X34860Y-40640D01*
X34917Y-40503D01*
X34973Y-40639D01*
X35115Y-40781D01*
X35300Y-40858D01*
X35501Y-40858D01*
X35686Y-40782D01*
X35828Y-40640D01*
X35885Y-40503D01*
X35942Y-40639D01*
X36084Y-40781D01*
X36269Y-40858D01*
X36469Y-40858D01*
X36655Y-40782D01*
X36797Y-40640D01*
X36854Y-40503D01*
X36910Y-40639D01*
X37052Y-40781D01*
X37237Y-40858D01*
X37438Y-40858D01*
X37623Y-40782D01*
X37765Y-40640D01*
X37842Y-40455D01*
X37843Y-40254D01*
X37843Y-41430D01*
X31937Y-41430D01*
X31937Y-40254D01*
X31860Y-40069D01*
X31719Y-39927D01*
X31533Y-39850D01*
X31333Y-39849D01*
X31147Y-39926D01*
X31005Y-40068D01*
X30948Y-40205D01*
X30892Y-40069D01*
X30750Y-39927D01*
X30565Y-39850D01*
X30364Y-39849D01*
X30179Y-39926D01*
X30037Y-40068D01*
X29980Y-40205D01*
X29923Y-40069D01*
X29782Y-39927D01*
X29596Y-39850D01*
X29396Y-39849D01*
X29210Y-39926D01*
X29068Y-40068D01*
X29011Y-40205D01*
X28955Y-40069D01*
X28813Y-39927D01*
X28628Y-39850D01*
X28427Y-39849D01*
X28242Y-39926D01*
X28100Y-40068D01*
X28063Y-40157D01*
X28063Y-39970D01*
X28040Y-39915D01*
X27998Y-39872D01*
X27943Y-39850D01*
X27883Y-39849D01*
X27175Y-39849D01*
X27119Y-39872D01*
X27077Y-39914D01*
X27054Y-39970D01*
X27054Y-40029D01*
X27054Y-40738D01*
X27077Y-40793D01*
X27119Y-40835D01*
X27174Y-40858D01*
X27234Y-40858D01*
X27943Y-40858D01*
X27998Y-40835D01*
X28040Y-40793D01*
X28063Y-40738D01*
X28063Y-40678D01*
X28063Y-40551D01*
X28099Y-40639D01*
X28241Y-40781D01*
X28426Y-40858D01*
X28627Y-40858D01*
X28812Y-40782D01*
X28954Y-40640D01*
X29011Y-40503D01*
X29068Y-40639D01*
X29210Y-40781D01*
X29395Y-40858D01*
X29595Y-40858D01*
X29781Y-40782D01*
X29923Y-40640D01*
X29980Y-40503D01*
X30036Y-40639D01*
X30178Y-40781D01*
X30363Y-40858D01*
X30564Y-40858D01*
X30749Y-40782D01*
X30891Y-40640D01*
X30948Y-40503D01*
X31005Y-40639D01*
X31147Y-40781D01*
X31332Y-40858D01*
X31532Y-40858D01*
X31718Y-40782D01*
X31860Y-40640D01*
X31937Y-40455D01*
X31937Y-40254D01*
X31937Y-41430D01*
X26119Y-41430D01*
X26119Y-18669D01*
X56550Y-18669D01*
X56880Y-18669D01*
X56880Y-24766D01*
X56841Y-24708D01*
X56841Y-24708D01*
X56466Y-24333D01*
X56401Y-24290D01*
X56380Y-24285D01*
X56380Y-23932D01*
X56380Y-23812D01*
X56317Y-23750D01*
X55958Y-23750D01*
X55958Y-24070D01*
X56020Y-24132D01*
X56080Y-24132D01*
X56179Y-24132D01*
X56271Y-24094D01*
X56342Y-24023D01*
X56380Y-23932D01*
X56380Y-24285D01*
X56325Y-24275D01*
X56274Y-24275D01*
X56257Y-24232D01*
X56215Y-24190D01*
X56159Y-24167D01*
X56100Y-24167D01*
X55706Y-24167D01*
X55700Y-24170D01*
X55700Y-24132D01*
X55785Y-24132D01*
X55845Y-24132D01*
X55908Y-24070D01*
X55908Y-23750D01*
X55900Y-23750D01*
X55900Y-23700D01*
X55908Y-23700D01*
X55908Y-23692D01*
X55958Y-23692D01*
X55958Y-23700D01*
X56317Y-23700D01*
X56380Y-23637D01*
X56380Y-23517D01*
X56380Y-22532D01*
X56380Y-22412D01*
X56317Y-22350D01*
X55958Y-22350D01*
X55958Y-22670D01*
X56020Y-22732D01*
X56080Y-22732D01*
X56179Y-22732D01*
X56271Y-22694D01*
X56342Y-22623D01*
X56380Y-22532D01*
X56380Y-23517D01*
X56342Y-23426D01*
X56271Y-23355D01*
X56234Y-23340D01*
X56257Y-23317D01*
X56279Y-23262D01*
X56280Y-23202D01*
X56280Y-22887D01*
X56257Y-22832D01*
X56215Y-22790D01*
X56159Y-22767D01*
X56100Y-22767D01*
X55908Y-22767D01*
X55908Y-22670D01*
X55908Y-22350D01*
X55548Y-22350D01*
X55486Y-22412D01*
X55485Y-22532D01*
X55523Y-22623D01*
X55594Y-22694D01*
X55686Y-22732D01*
X55785Y-22732D01*
X55845Y-22732D01*
X55908Y-22670D01*
X55908Y-22767D01*
X55706Y-22767D01*
X55651Y-22790D01*
X55608Y-22832D01*
X55586Y-22887D01*
X55585Y-22947D01*
X55585Y-23139D01*
X55414Y-23311D01*
X55414Y-22827D01*
X55414Y-22512D01*
X55391Y-22457D01*
X55349Y-22415D01*
X55293Y-22392D01*
X55234Y-22392D01*
X54840Y-22392D01*
X54785Y-22415D01*
X54742Y-22457D01*
X54725Y-22500D01*
X54659Y-22500D01*
X54634Y-22474D01*
X54514Y-22425D01*
X54385Y-22424D01*
X54266Y-22474D01*
X54174Y-22565D01*
X54125Y-22685D01*
X54124Y-22814D01*
X54174Y-22933D01*
X54265Y-23025D01*
X54385Y-23074D01*
X54514Y-23075D01*
X54633Y-23025D01*
X54725Y-22934D01*
X54732Y-22917D01*
X54742Y-22942D01*
X54784Y-22984D01*
X54840Y-23007D01*
X54899Y-23007D01*
X55293Y-23007D01*
X55348Y-22984D01*
X55391Y-22942D01*
X55413Y-22887D01*
X55414Y-22827D01*
X55414Y-23311D01*
X55358Y-23366D01*
X55315Y-23431D01*
X55300Y-23508D01*
X55300Y-23795D01*
X55293Y-23792D01*
X55234Y-23792D01*
X54840Y-23792D01*
X54785Y-23815D01*
X54742Y-23857D01*
X54735Y-23875D01*
X54684Y-23824D01*
X54564Y-23775D01*
X54435Y-23774D01*
X54316Y-23824D01*
X54300Y-23840D01*
X54300Y-23800D01*
X54299Y-23799D01*
X54284Y-23723D01*
X54284Y-23723D01*
X54270Y-23701D01*
X54241Y-23658D01*
X54241Y-23658D01*
X53900Y-23317D01*
X53900Y-22282D01*
X54182Y-22000D01*
X55549Y-22000D01*
X55523Y-22026D01*
X55485Y-22117D01*
X55486Y-22237D01*
X55548Y-22300D01*
X55908Y-22300D01*
X55908Y-22292D01*
X55958Y-22292D01*
X55958Y-22300D01*
X56317Y-22300D01*
X56380Y-22237D01*
X56380Y-22117D01*
X56380Y-21132D01*
X56380Y-21012D01*
X56317Y-20950D01*
X55958Y-20950D01*
X55958Y-21270D01*
X56020Y-21332D01*
X56080Y-21332D01*
X56179Y-21332D01*
X56271Y-21294D01*
X56342Y-21223D01*
X56380Y-21132D01*
X56380Y-22117D01*
X56342Y-22026D01*
X56271Y-21955D01*
X56234Y-21940D01*
X56257Y-21917D01*
X56279Y-21862D01*
X56280Y-21802D01*
X56280Y-21487D01*
X56257Y-21432D01*
X56215Y-21390D01*
X56159Y-21367D01*
X56100Y-21367D01*
X55908Y-21367D01*
X55908Y-21270D01*
X55908Y-20950D01*
X55548Y-20950D01*
X55486Y-21012D01*
X55485Y-21132D01*
X55523Y-21223D01*
X55594Y-21294D01*
X55686Y-21332D01*
X55785Y-21332D01*
X55845Y-21332D01*
X55908Y-21270D01*
X55908Y-21367D01*
X55706Y-21367D01*
X55651Y-21390D01*
X55608Y-21432D01*
X55586Y-21487D01*
X55585Y-21547D01*
X55585Y-21600D01*
X55311Y-21600D01*
X55348Y-21584D01*
X55391Y-21542D01*
X55413Y-21487D01*
X55414Y-21427D01*
X55414Y-21112D01*
X55391Y-21057D01*
X55349Y-21015D01*
X55293Y-20992D01*
X55234Y-20992D01*
X54887Y-20992D01*
X54926Y-20984D01*
X54991Y-20941D01*
X55457Y-20475D01*
X55591Y-20475D01*
X55608Y-20517D01*
X55631Y-20540D01*
X55594Y-20555D01*
X55523Y-20626D01*
X55485Y-20717D01*
X55486Y-20837D01*
X55548Y-20900D01*
X55908Y-20900D01*
X55908Y-20892D01*
X55958Y-20892D01*
X55958Y-20900D01*
X56317Y-20900D01*
X56380Y-20837D01*
X56380Y-20717D01*
X56380Y-19732D01*
X56380Y-19317D01*
X56342Y-19226D01*
X56271Y-19155D01*
X56179Y-19117D01*
X56080Y-19117D01*
X56020Y-19117D01*
X55958Y-19180D01*
X55958Y-19500D01*
X56317Y-19500D01*
X56380Y-19437D01*
X56380Y-19317D01*
X56380Y-19732D01*
X56380Y-19612D01*
X56317Y-19550D01*
X55958Y-19550D01*
X55958Y-19870D01*
X56020Y-19932D01*
X56080Y-19932D01*
X56179Y-19932D01*
X56271Y-19894D01*
X56342Y-19823D01*
X56380Y-19732D01*
X56380Y-20717D01*
X56342Y-20626D01*
X56271Y-20555D01*
X56234Y-20540D01*
X56257Y-20517D01*
X56279Y-20462D01*
X56280Y-20402D01*
X56280Y-20087D01*
X56257Y-20032D01*
X56215Y-19990D01*
X56159Y-19967D01*
X56100Y-19967D01*
X55908Y-19967D01*
X55908Y-19870D01*
X55908Y-19550D01*
X55908Y-19500D01*
X55908Y-19180D01*
X55845Y-19117D01*
X55785Y-19117D01*
X55686Y-19117D01*
X55594Y-19155D01*
X55523Y-19226D01*
X55485Y-19317D01*
X55486Y-19437D01*
X55548Y-19500D01*
X55908Y-19500D01*
X55908Y-19550D01*
X55548Y-19550D01*
X55486Y-19612D01*
X55485Y-19732D01*
X55523Y-19823D01*
X55594Y-19894D01*
X55686Y-19932D01*
X55785Y-19932D01*
X55845Y-19932D01*
X55908Y-19870D01*
X55908Y-19967D01*
X55706Y-19967D01*
X55651Y-19990D01*
X55608Y-20032D01*
X55591Y-20075D01*
X55413Y-20075D01*
X55414Y-20027D01*
X55414Y-19712D01*
X55391Y-19657D01*
X55349Y-19615D01*
X55293Y-19592D01*
X55234Y-19592D01*
X54840Y-19592D01*
X54785Y-19615D01*
X54742Y-19657D01*
X54720Y-19712D01*
X54719Y-19772D01*
X54719Y-19897D01*
X54512Y-20105D01*
X54405Y-20104D01*
X54286Y-20154D01*
X54194Y-20245D01*
X54145Y-20365D01*
X54144Y-20494D01*
X54188Y-20600D01*
X53591Y-20600D01*
X53591Y-19490D01*
X53514Y-19305D01*
X53372Y-19163D01*
X53187Y-19086D01*
X52986Y-19086D01*
X52801Y-19162D01*
X52659Y-19304D01*
X52602Y-19441D01*
X52545Y-19305D01*
X52404Y-19163D01*
X52218Y-19086D01*
X52018Y-19086D01*
X51832Y-19162D01*
X51690Y-19304D01*
X51633Y-19441D01*
X51577Y-19305D01*
X51435Y-19163D01*
X51250Y-19086D01*
X51049Y-19086D01*
X50864Y-19162D01*
X50722Y-19304D01*
X50665Y-19441D01*
X50608Y-19305D01*
X50467Y-19163D01*
X50281Y-19086D01*
X50081Y-19086D01*
X49895Y-19162D01*
X49753Y-19304D01*
X49696Y-19441D01*
X49640Y-19305D01*
X49498Y-19163D01*
X49313Y-19086D01*
X49112Y-19086D01*
X48927Y-19162D01*
X48785Y-19304D01*
X48708Y-19489D01*
X48708Y-19690D01*
X48784Y-19875D01*
X48926Y-20017D01*
X49111Y-20094D01*
X49312Y-20094D01*
X49497Y-20018D01*
X49639Y-19876D01*
X49696Y-19739D01*
X49753Y-19875D01*
X49895Y-20017D01*
X50080Y-20094D01*
X50280Y-20094D01*
X50466Y-20018D01*
X50608Y-19876D01*
X50665Y-19739D01*
X50721Y-19875D01*
X50863Y-20017D01*
X51048Y-20094D01*
X51249Y-20094D01*
X51434Y-20018D01*
X51576Y-19876D01*
X51633Y-19739D01*
X51690Y-19875D01*
X51832Y-20017D01*
X52017Y-20094D01*
X52217Y-20094D01*
X52403Y-20018D01*
X52545Y-19876D01*
X52602Y-19739D01*
X52658Y-19875D01*
X52800Y-20017D01*
X52985Y-20094D01*
X53186Y-20094D01*
X53371Y-20018D01*
X53513Y-19876D01*
X53590Y-19691D01*
X53591Y-19490D01*
X53591Y-20600D01*
X53450Y-20600D01*
X53373Y-20615D01*
X53351Y-20629D01*
X53308Y-20658D01*
X53108Y-20858D01*
X53065Y-20923D01*
X53050Y-21000D01*
X53050Y-23350D01*
X53065Y-23426D01*
X53108Y-23491D01*
X53650Y-24032D01*
X53650Y-26667D01*
X53591Y-26726D01*
X53591Y-25490D01*
X53514Y-25305D01*
X53372Y-25163D01*
X53187Y-25086D01*
X53008Y-25086D01*
X53033Y-25075D01*
X53125Y-24984D01*
X53174Y-24864D01*
X53175Y-24735D01*
X53125Y-24616D01*
X53034Y-24524D01*
X52950Y-24489D01*
X52950Y-23650D01*
X52949Y-23649D01*
X52934Y-23573D01*
X52934Y-23573D01*
X52920Y-23551D01*
X52891Y-23508D01*
X52891Y-23508D01*
X52541Y-23158D01*
X52476Y-23115D01*
X52400Y-23100D01*
X51700Y-23100D01*
X51700Y-21210D01*
X51650Y-21091D01*
X51559Y-20999D01*
X51439Y-20950D01*
X51310Y-20949D01*
X51191Y-20999D01*
X51115Y-21075D01*
X48479Y-21075D01*
X48475Y-21066D01*
X48384Y-20974D01*
X48264Y-20925D01*
X48249Y-20925D01*
X48308Y-20900D01*
X48400Y-20809D01*
X48404Y-20800D01*
X51015Y-20800D01*
X51090Y-20875D01*
X51210Y-20924D01*
X51339Y-20925D01*
X51458Y-20875D01*
X51550Y-20784D01*
X51599Y-20664D01*
X51600Y-20535D01*
X51550Y-20416D01*
X51459Y-20324D01*
X51339Y-20275D01*
X51210Y-20274D01*
X51091Y-20324D01*
X51015Y-20400D01*
X48359Y-20400D01*
X48309Y-20349D01*
X48189Y-20300D01*
X48060Y-20299D01*
X47941Y-20349D01*
X47849Y-20440D01*
X47800Y-20560D01*
X47799Y-20689D01*
X47849Y-20808D01*
X47940Y-20900D01*
X48060Y-20949D01*
X48075Y-20949D01*
X48016Y-20974D01*
X47924Y-21065D01*
X47875Y-21185D01*
X47874Y-21314D01*
X47924Y-21433D01*
X48015Y-21525D01*
X48135Y-21574D01*
X48264Y-21575D01*
X48383Y-21525D01*
X48434Y-21475D01*
X51115Y-21475D01*
X51190Y-21550D01*
X51310Y-21599D01*
X51439Y-21600D01*
X51558Y-21550D01*
X51650Y-21459D01*
X51699Y-21339D01*
X51700Y-21210D01*
X51700Y-23100D01*
X49859Y-23100D01*
X49784Y-23024D01*
X49664Y-22975D01*
X49535Y-22974D01*
X49416Y-23024D01*
X49324Y-23115D01*
X49275Y-23235D01*
X49274Y-23364D01*
X49324Y-23483D01*
X49415Y-23575D01*
X49535Y-23624D01*
X49664Y-23625D01*
X49783Y-23575D01*
X49859Y-23500D01*
X52317Y-23500D01*
X52550Y-23732D01*
X52550Y-24674D01*
X52525Y-24735D01*
X52524Y-24864D01*
X52574Y-24983D01*
X52665Y-25075D01*
X52785Y-25124D01*
X52892Y-25125D01*
X52801Y-25162D01*
X52659Y-25304D01*
X52602Y-25441D01*
X52545Y-25305D01*
X52404Y-25163D01*
X52218Y-25086D01*
X52018Y-25086D01*
X51832Y-25162D01*
X51690Y-25304D01*
X51650Y-25402D01*
X51650Y-24135D01*
X51600Y-24016D01*
X51509Y-23924D01*
X51389Y-23875D01*
X51260Y-23874D01*
X51141Y-23924D01*
X51065Y-24000D01*
X48175Y-24000D01*
X48111Y-24012D01*
X48098Y-24015D01*
X48083Y-24025D01*
X47960Y-24024D01*
X47841Y-24074D01*
X47749Y-24165D01*
X47700Y-24285D01*
X47699Y-24414D01*
X47749Y-24533D01*
X47840Y-24625D01*
X47960Y-24674D01*
X48089Y-24675D01*
X48208Y-24625D01*
X48300Y-24534D01*
X48349Y-24414D01*
X48349Y-24400D01*
X51065Y-24400D01*
X51140Y-24475D01*
X51260Y-24524D01*
X51389Y-24525D01*
X51508Y-24475D01*
X51600Y-24384D01*
X51649Y-24264D01*
X51650Y-24135D01*
X51650Y-25402D01*
X51633Y-25441D01*
X51577Y-25305D01*
X51435Y-25163D01*
X51250Y-25086D01*
X51049Y-25086D01*
X50864Y-25162D01*
X50722Y-25304D01*
X50665Y-25441D01*
X50608Y-25305D01*
X50467Y-25163D01*
X50281Y-25086D01*
X50081Y-25086D01*
X49895Y-25162D01*
X49753Y-25304D01*
X49716Y-25393D01*
X49716Y-25206D01*
X49694Y-25151D01*
X49652Y-25109D01*
X49596Y-25086D01*
X49537Y-25086D01*
X48828Y-25086D01*
X48773Y-25108D01*
X48731Y-25151D01*
X48708Y-25206D01*
X48708Y-25265D01*
X48708Y-25974D01*
X48731Y-26029D01*
X48773Y-26071D01*
X48828Y-26094D01*
X48887Y-26094D01*
X49596Y-26094D01*
X49651Y-26072D01*
X49694Y-26029D01*
X49716Y-25974D01*
X49716Y-25915D01*
X49716Y-25787D01*
X49753Y-25875D01*
X49895Y-26017D01*
X50080Y-26094D01*
X50280Y-26094D01*
X50466Y-26018D01*
X50608Y-25876D01*
X50665Y-25739D01*
X50721Y-25875D01*
X50863Y-26017D01*
X50933Y-26046D01*
X50933Y-26617D01*
X50906Y-26617D01*
X50851Y-26640D01*
X50808Y-26682D01*
X50786Y-26737D01*
X50785Y-26797D01*
X50785Y-27112D01*
X50808Y-27167D01*
X50850Y-27209D01*
X50906Y-27232D01*
X50965Y-27232D01*
X51359Y-27232D01*
X51414Y-27209D01*
X51457Y-27167D01*
X51479Y-27112D01*
X51480Y-27052D01*
X51480Y-26737D01*
X51457Y-26682D01*
X51415Y-26640D01*
X51359Y-26617D01*
X51333Y-26617D01*
X51333Y-26060D01*
X51434Y-26018D01*
X51576Y-25876D01*
X51633Y-25739D01*
X51690Y-25875D01*
X51832Y-26017D01*
X52017Y-26094D01*
X52217Y-26094D01*
X52403Y-26018D01*
X52545Y-25876D01*
X52602Y-25739D01*
X52658Y-25875D01*
X52800Y-26017D01*
X52985Y-26094D01*
X53186Y-26094D01*
X53371Y-26018D01*
X53513Y-25876D01*
X53590Y-25691D01*
X53591Y-25490D01*
X53591Y-26726D01*
X51942Y-28374D01*
X51795Y-28374D01*
X51740Y-28397D01*
X51697Y-28439D01*
X51675Y-28495D01*
X51674Y-28554D01*
X51674Y-29004D01*
X51693Y-29050D01*
X51606Y-29050D01*
X51624Y-29004D01*
X51625Y-28945D01*
X51625Y-28495D01*
X51602Y-28440D01*
X51560Y-28397D01*
X51504Y-28375D01*
X51480Y-28375D01*
X51480Y-27802D01*
X51480Y-27487D01*
X51457Y-27432D01*
X51415Y-27390D01*
X51359Y-27367D01*
X51300Y-27367D01*
X50906Y-27367D01*
X50851Y-27390D01*
X50808Y-27432D01*
X50801Y-27450D01*
X50614Y-27450D01*
X50614Y-27427D01*
X50614Y-27112D01*
X50591Y-27057D01*
X50549Y-27015D01*
X50493Y-26992D01*
X50434Y-26992D01*
X50184Y-26992D01*
X50146Y-26902D01*
X50048Y-26803D01*
X49919Y-26750D01*
X49780Y-26749D01*
X49652Y-26803D01*
X49553Y-26901D01*
X49500Y-27030D01*
X49499Y-27169D01*
X49551Y-27294D01*
X49504Y-27275D01*
X49445Y-27274D01*
X49195Y-27274D01*
X49140Y-27297D01*
X49097Y-27339D01*
X49075Y-27395D01*
X49074Y-27454D01*
X49074Y-27904D01*
X49097Y-27959D01*
X49139Y-28002D01*
X49195Y-28024D01*
X49254Y-28025D01*
X49504Y-28025D01*
X49559Y-28002D01*
X49602Y-27960D01*
X49624Y-27904D01*
X49625Y-27850D01*
X50785Y-27850D01*
X50785Y-27862D01*
X50808Y-27917D01*
X50850Y-27959D01*
X50906Y-27982D01*
X50965Y-27982D01*
X51359Y-27982D01*
X51414Y-27959D01*
X51457Y-27917D01*
X51479Y-27862D01*
X51480Y-27802D01*
X51480Y-28375D01*
X51445Y-28374D01*
X51195Y-28374D01*
X51140Y-28397D01*
X51097Y-28439D01*
X51075Y-28495D01*
X51074Y-28550D01*
X49950Y-28550D01*
X49873Y-28565D01*
X49851Y-28579D01*
X49808Y-28608D01*
X49642Y-28775D01*
X49535Y-28774D01*
X49416Y-28824D01*
X49324Y-28915D01*
X49275Y-29035D01*
X49275Y-29079D01*
X49202Y-29078D01*
X49089Y-29079D01*
X49027Y-29141D01*
X49027Y-29379D01*
X49034Y-29379D01*
X49034Y-29429D01*
X49027Y-29429D01*
X49027Y-29434D01*
X48977Y-29434D01*
X48977Y-29429D01*
X48977Y-29379D01*
X48977Y-29141D01*
X48914Y-29079D01*
X48801Y-29078D01*
X48702Y-29079D01*
X48610Y-29117D01*
X48539Y-29187D01*
X48501Y-29279D01*
X48502Y-29316D01*
X48564Y-29379D01*
X48977Y-29379D01*
X48977Y-29429D01*
X48564Y-29429D01*
X48533Y-29460D01*
X48400Y-29460D01*
X48400Y-28900D01*
X48400Y-28199D01*
X48399Y-28100D01*
X48361Y-28008D01*
X48291Y-27937D01*
X48199Y-27899D01*
X47937Y-27900D01*
X47875Y-27962D01*
X47875Y-28525D01*
X48337Y-28525D01*
X48400Y-28462D01*
X48400Y-28199D01*
X48400Y-28900D01*
X48400Y-28637D01*
X48337Y-28575D01*
X47875Y-28575D01*
X47875Y-29137D01*
X47937Y-29200D01*
X48199Y-29200D01*
X48291Y-29162D01*
X48361Y-29091D01*
X48399Y-28999D01*
X48400Y-28900D01*
X48400Y-29460D01*
X48090Y-29460D01*
X48013Y-29475D01*
X47991Y-29489D01*
X47948Y-29518D01*
X47658Y-29808D01*
X47615Y-29873D01*
X47600Y-29950D01*
X47600Y-30660D01*
X47514Y-30625D01*
X47385Y-30624D01*
X47266Y-30674D01*
X47200Y-30740D01*
X47198Y-30740D01*
X47198Y-30729D01*
X47198Y-30706D01*
X47260Y-30644D01*
X47298Y-30552D01*
X47298Y-30515D01*
X47235Y-30453D01*
X46823Y-30453D01*
X46823Y-30458D01*
X46773Y-30458D01*
X46773Y-30453D01*
X46360Y-30453D01*
X46329Y-30484D01*
X45566Y-30484D01*
X45454Y-30372D01*
X46329Y-30372D01*
X46360Y-30403D01*
X46773Y-30403D01*
X46773Y-30397D01*
X46823Y-30397D01*
X46823Y-30403D01*
X47235Y-30403D01*
X47298Y-30340D01*
X47298Y-30303D01*
X47260Y-30211D01*
X47198Y-30149D01*
X47198Y-30067D01*
X47188Y-30044D01*
X47197Y-30020D01*
X47198Y-29961D01*
X47198Y-29860D01*
X47290Y-29860D01*
X47366Y-29844D01*
X47431Y-29801D01*
X47441Y-29791D01*
X47484Y-29726D01*
X47500Y-29650D01*
X47500Y-29282D01*
X47484Y-29206D01*
X47473Y-29188D01*
X47500Y-29200D01*
X47762Y-29200D01*
X47825Y-29137D01*
X47825Y-28575D01*
X47825Y-28525D01*
X47825Y-27962D01*
X47762Y-27900D01*
X47500Y-27899D01*
X47408Y-27937D01*
X47338Y-28008D01*
X47300Y-28100D01*
X47299Y-28199D01*
X47300Y-28462D01*
X47362Y-28525D01*
X47825Y-28525D01*
X47825Y-28575D01*
X47362Y-28575D01*
X47300Y-28637D01*
X47299Y-28900D01*
X47300Y-28999D01*
X47300Y-29000D01*
X47000Y-28700D01*
X47000Y-28120D01*
X46977Y-28065D01*
X46935Y-28022D01*
X46879Y-28000D01*
X46820Y-27999D01*
X46220Y-27999D01*
X46165Y-28022D01*
X46122Y-28064D01*
X46100Y-28120D01*
X46099Y-28179D01*
X46099Y-28350D01*
X45400Y-28350D01*
X45336Y-28362D01*
X45323Y-28365D01*
X45258Y-28408D01*
X44817Y-28850D01*
X43556Y-28850D01*
X43671Y-28734D01*
X43748Y-28549D01*
X43748Y-28348D01*
X43671Y-28163D01*
X43530Y-28021D01*
X43344Y-27944D01*
X43144Y-27944D01*
X42958Y-28021D01*
X42816Y-28162D01*
X42759Y-28300D01*
X42703Y-28163D01*
X42561Y-28021D01*
X42376Y-27944D01*
X42175Y-27944D01*
X41990Y-28021D01*
X41848Y-28162D01*
X41791Y-28300D01*
X41734Y-28163D01*
X41593Y-28021D01*
X41541Y-28000D01*
X42000Y-28000D01*
X42076Y-27984D01*
X42141Y-27941D01*
X42982Y-27100D01*
X44600Y-27100D01*
X44592Y-27107D01*
X44570Y-27162D01*
X44569Y-27222D01*
X44569Y-27537D01*
X44592Y-27592D01*
X44634Y-27634D01*
X44667Y-27647D01*
X44667Y-27988D01*
X44603Y-28051D01*
X44550Y-28180D01*
X44549Y-28319D01*
X44603Y-28448D01*
X44701Y-28546D01*
X44830Y-28599D01*
X44969Y-28600D01*
X45098Y-28546D01*
X45196Y-28448D01*
X45249Y-28319D01*
X45250Y-28180D01*
X45196Y-28052D01*
X45167Y-28022D01*
X45167Y-27647D01*
X45198Y-27634D01*
X45241Y-27592D01*
X45263Y-27537D01*
X45264Y-27477D01*
X45264Y-27446D01*
X45308Y-27491D01*
X45373Y-27534D01*
X45373Y-27534D01*
X45436Y-27547D01*
X45435Y-27597D01*
X45435Y-27912D01*
X45458Y-27967D01*
X45500Y-28009D01*
X45556Y-28032D01*
X45615Y-28032D01*
X46009Y-28032D01*
X46064Y-28009D01*
X46107Y-27967D01*
X46124Y-27925D01*
X46175Y-27925D01*
X46251Y-27909D01*
X46316Y-27866D01*
X46625Y-27556D01*
X46647Y-27609D01*
X46689Y-27652D01*
X46745Y-27674D01*
X46804Y-27675D01*
X47054Y-27675D01*
X47109Y-27652D01*
X47152Y-27610D01*
X47174Y-27554D01*
X47175Y-27495D01*
X47175Y-27100D01*
X47224Y-27100D01*
X47224Y-27104D01*
X47224Y-27554D01*
X47247Y-27609D01*
X47289Y-27652D01*
X47345Y-27674D01*
X47404Y-27675D01*
X47654Y-27675D01*
X47709Y-27652D01*
X47752Y-27610D01*
X47774Y-27554D01*
X47775Y-27495D01*
X47775Y-27045D01*
X47752Y-26990D01*
X47710Y-26947D01*
X47700Y-26943D01*
X47700Y-26900D01*
X47695Y-26878D01*
X48474Y-27657D01*
X48474Y-27904D01*
X48497Y-27959D01*
X48539Y-28002D01*
X48595Y-28024D01*
X48654Y-28025D01*
X48904Y-28025D01*
X48959Y-28002D01*
X49002Y-27960D01*
X49024Y-27904D01*
X49025Y-27845D01*
X49025Y-27395D01*
X49002Y-27340D01*
X48960Y-27297D01*
X48904Y-27275D01*
X48845Y-27274D01*
X48657Y-27274D01*
X47741Y-26358D01*
X47676Y-26315D01*
X47600Y-26300D01*
X46189Y-26300D01*
X46175Y-26266D01*
X46084Y-26174D01*
X45964Y-26125D01*
X45835Y-26124D01*
X45716Y-26174D01*
X45624Y-26265D01*
X45575Y-26385D01*
X45574Y-26492D01*
X45444Y-26361D01*
X45444Y-26053D01*
X45529Y-26018D01*
X45671Y-25876D01*
X45728Y-25739D01*
X45784Y-25875D01*
X45926Y-26017D01*
X46111Y-26094D01*
X46312Y-26094D01*
X46497Y-26018D01*
X46639Y-25876D01*
X46696Y-25739D01*
X46753Y-25875D01*
X46895Y-26017D01*
X47080Y-26094D01*
X47280Y-26094D01*
X47466Y-26018D01*
X47608Y-25876D01*
X47685Y-25691D01*
X47685Y-25490D01*
X47608Y-25305D01*
X47467Y-25163D01*
X47281Y-25086D01*
X47173Y-25086D01*
X47175Y-25084D01*
X47224Y-24964D01*
X47225Y-24835D01*
X47217Y-24817D01*
X47235Y-24824D01*
X47364Y-24825D01*
X47483Y-24775D01*
X47575Y-24684D01*
X47624Y-24564D01*
X47625Y-24435D01*
X47575Y-24316D01*
X47484Y-24224D01*
X47364Y-24175D01*
X47257Y-24174D01*
X47200Y-24117D01*
X47200Y-23182D01*
X47482Y-22900D01*
X48990Y-22900D01*
X49065Y-22975D01*
X49185Y-23024D01*
X49314Y-23025D01*
X49433Y-22975D01*
X49525Y-22884D01*
X49574Y-22764D01*
X49575Y-22635D01*
X49525Y-22516D01*
X49434Y-22424D01*
X49314Y-22375D01*
X49185Y-22374D01*
X49066Y-22424D01*
X48990Y-22500D01*
X47685Y-22500D01*
X47685Y-19490D01*
X47608Y-19305D01*
X47467Y-19163D01*
X47281Y-19086D01*
X47081Y-19086D01*
X46895Y-19162D01*
X46753Y-19304D01*
X46696Y-19441D01*
X46640Y-19305D01*
X46498Y-19163D01*
X46313Y-19086D01*
X46112Y-19086D01*
X45927Y-19162D01*
X45785Y-19304D01*
X45728Y-19441D01*
X45671Y-19305D01*
X45530Y-19163D01*
X45344Y-19086D01*
X45144Y-19086D01*
X44958Y-19162D01*
X44816Y-19304D01*
X44759Y-19441D01*
X44703Y-19305D01*
X44561Y-19163D01*
X44376Y-19086D01*
X44175Y-19086D01*
X43990Y-19162D01*
X43848Y-19304D01*
X43791Y-19441D01*
X43734Y-19305D01*
X43593Y-19163D01*
X43407Y-19086D01*
X43207Y-19086D01*
X43021Y-19162D01*
X42879Y-19304D01*
X42802Y-19489D01*
X42802Y-19690D01*
X42879Y-19875D01*
X43021Y-20017D01*
X43206Y-20094D01*
X43406Y-20094D01*
X43592Y-20018D01*
X43734Y-19876D01*
X43791Y-19739D01*
X43847Y-19875D01*
X43989Y-20017D01*
X44174Y-20094D01*
X44375Y-20094D01*
X44560Y-20018D01*
X44702Y-19876D01*
X44759Y-19739D01*
X44816Y-19875D01*
X44958Y-20017D01*
X45143Y-20094D01*
X45343Y-20094D01*
X45529Y-20018D01*
X45671Y-19876D01*
X45728Y-19739D01*
X45784Y-19875D01*
X45926Y-20017D01*
X46111Y-20094D01*
X46312Y-20094D01*
X46497Y-20018D01*
X46639Y-19876D01*
X46696Y-19739D01*
X46753Y-19875D01*
X46895Y-20017D01*
X47080Y-20094D01*
X47280Y-20094D01*
X47466Y-20018D01*
X47608Y-19876D01*
X47685Y-19691D01*
X47685Y-19490D01*
X47685Y-22500D01*
X47400Y-22500D01*
X47323Y-22515D01*
X47301Y-22529D01*
X47258Y-22558D01*
X46900Y-22917D01*
X46900Y-22909D01*
X46975Y-22834D01*
X47024Y-22714D01*
X47025Y-22585D01*
X46975Y-22466D01*
X46884Y-22374D01*
X46764Y-22325D01*
X46635Y-22324D01*
X46516Y-22374D01*
X46424Y-22465D01*
X46375Y-22585D01*
X46374Y-22714D01*
X46424Y-22833D01*
X46500Y-22909D01*
X46500Y-24700D01*
X46515Y-24776D01*
X46558Y-24841D01*
X46575Y-24857D01*
X46574Y-24964D01*
X46624Y-25083D01*
X46715Y-25175D01*
X46833Y-25224D01*
X46753Y-25304D01*
X46696Y-25441D01*
X46640Y-25305D01*
X46498Y-25163D01*
X46313Y-25086D01*
X46112Y-25086D01*
X45927Y-25162D01*
X45850Y-25239D01*
X45850Y-21060D01*
X45800Y-20941D01*
X45709Y-20849D01*
X45589Y-20800D01*
X45460Y-20799D01*
X45341Y-20849D01*
X45265Y-20925D01*
X42275Y-20925D01*
X42275Y-20860D01*
X42225Y-20741D01*
X42134Y-20650D01*
X42190Y-20650D01*
X42265Y-20725D01*
X42385Y-20774D01*
X42514Y-20775D01*
X42633Y-20725D01*
X42684Y-20675D01*
X45115Y-20675D01*
X45190Y-20750D01*
X45310Y-20799D01*
X45439Y-20800D01*
X45558Y-20750D01*
X45650Y-20659D01*
X45699Y-20539D01*
X45700Y-20410D01*
X45650Y-20291D01*
X45559Y-20199D01*
X45439Y-20150D01*
X45310Y-20149D01*
X45191Y-20199D01*
X45115Y-20275D01*
X42729Y-20275D01*
X42725Y-20266D01*
X42634Y-20174D01*
X42514Y-20125D01*
X42385Y-20124D01*
X42266Y-20174D01*
X42190Y-20250D01*
X41750Y-20250D01*
X41673Y-20265D01*
X41651Y-20279D01*
X41608Y-20308D01*
X41408Y-20508D01*
X41365Y-20573D01*
X41350Y-20650D01*
X41350Y-24264D01*
X41266Y-24299D01*
X41174Y-24390D01*
X41125Y-24510D01*
X41125Y-24574D01*
X41125Y-21734D01*
X41200Y-21659D01*
X41249Y-21539D01*
X41250Y-21410D01*
X41200Y-21291D01*
X41109Y-21199D01*
X40989Y-21150D01*
X40860Y-21149D01*
X40741Y-21199D01*
X40649Y-21290D01*
X40600Y-21410D01*
X40599Y-21539D01*
X40649Y-21658D01*
X40725Y-21734D01*
X40725Y-21740D01*
X40709Y-21724D01*
X40589Y-21675D01*
X40460Y-21674D01*
X40341Y-21724D01*
X40249Y-21815D01*
X40200Y-21935D01*
X40199Y-22064D01*
X40249Y-22183D01*
X40301Y-22235D01*
X40214Y-22200D01*
X40085Y-22199D01*
X39966Y-22249D01*
X39874Y-22340D01*
X39825Y-22460D01*
X39824Y-22589D01*
X39874Y-22708D01*
X39950Y-22784D01*
X39950Y-23290D01*
X39859Y-23199D01*
X39811Y-23179D01*
X39811Y-19490D01*
X39734Y-19305D01*
X39593Y-19163D01*
X39407Y-19086D01*
X39207Y-19086D01*
X39021Y-19162D01*
X38879Y-19304D01*
X38822Y-19441D01*
X38766Y-19305D01*
X38624Y-19163D01*
X38439Y-19086D01*
X38238Y-19086D01*
X38053Y-19162D01*
X37911Y-19304D01*
X37854Y-19441D01*
X37797Y-19305D01*
X37656Y-19163D01*
X37470Y-19086D01*
X37270Y-19086D01*
X37084Y-19162D01*
X36942Y-19304D01*
X36885Y-19441D01*
X36829Y-19305D01*
X36687Y-19163D01*
X36502Y-19086D01*
X36301Y-19086D01*
X36116Y-19162D01*
X35974Y-19304D01*
X35917Y-19441D01*
X35860Y-19305D01*
X35719Y-19163D01*
X35533Y-19086D01*
X35333Y-19086D01*
X35147Y-19162D01*
X35005Y-19304D01*
X34928Y-19489D01*
X34928Y-19690D01*
X35005Y-19875D01*
X35147Y-20017D01*
X35332Y-20094D01*
X35532Y-20094D01*
X35718Y-20018D01*
X35860Y-19876D01*
X35917Y-19739D01*
X35973Y-19875D01*
X36115Y-20017D01*
X36300Y-20094D01*
X36501Y-20094D01*
X36686Y-20018D01*
X36828Y-19876D01*
X36885Y-19739D01*
X36942Y-19875D01*
X37084Y-20017D01*
X37269Y-20094D01*
X37469Y-20094D01*
X37655Y-20018D01*
X37797Y-19876D01*
X37854Y-19739D01*
X37910Y-19875D01*
X38052Y-20017D01*
X38237Y-20094D01*
X38438Y-20094D01*
X38623Y-20018D01*
X38765Y-19876D01*
X38822Y-19739D01*
X38879Y-19875D01*
X39021Y-20017D01*
X39206Y-20094D01*
X39406Y-20094D01*
X39592Y-20018D01*
X39734Y-19876D01*
X39811Y-19691D01*
X39811Y-19490D01*
X39811Y-23179D01*
X39739Y-23150D01*
X39610Y-23149D01*
X39491Y-23199D01*
X39399Y-23290D01*
X39350Y-23410D01*
X39349Y-23539D01*
X39399Y-23658D01*
X39475Y-23734D01*
X39475Y-24240D01*
X39424Y-24290D01*
X39375Y-24410D01*
X39374Y-24539D01*
X39424Y-24658D01*
X39515Y-24750D01*
X39635Y-24799D01*
X39764Y-24800D01*
X39883Y-24750D01*
X39950Y-24684D01*
X39950Y-24840D01*
X39874Y-24915D01*
X39825Y-25035D01*
X39824Y-25164D01*
X39874Y-25283D01*
X39965Y-25375D01*
X40085Y-25424D01*
X40214Y-25425D01*
X40333Y-25375D01*
X40425Y-25284D01*
X40474Y-25164D01*
X40475Y-25035D01*
X40425Y-24916D01*
X40350Y-24840D01*
X40350Y-24834D01*
X40365Y-24850D01*
X40485Y-24899D01*
X40614Y-24900D01*
X40725Y-24854D01*
X40725Y-24940D01*
X40699Y-24965D01*
X40650Y-25085D01*
X40649Y-25214D01*
X40699Y-25333D01*
X40790Y-25425D01*
X40910Y-25474D01*
X41039Y-25475D01*
X41158Y-25425D01*
X41250Y-25334D01*
X41299Y-25214D01*
X41300Y-25085D01*
X41250Y-24966D01*
X41159Y-24874D01*
X41125Y-24860D01*
X41125Y-24639D01*
X41174Y-24758D01*
X41265Y-24850D01*
X41385Y-24899D01*
X41514Y-24900D01*
X41633Y-24850D01*
X41725Y-24759D01*
X41774Y-24639D01*
X41775Y-24510D01*
X41774Y-24508D01*
X41840Y-24575D01*
X41960Y-24624D01*
X42089Y-24625D01*
X42208Y-24575D01*
X42284Y-24500D01*
X45090Y-24500D01*
X45165Y-24575D01*
X45285Y-24624D01*
X45414Y-24625D01*
X45533Y-24575D01*
X45625Y-24484D01*
X45674Y-24364D01*
X45675Y-24235D01*
X45625Y-24116D01*
X45534Y-24024D01*
X45414Y-23975D01*
X45285Y-23974D01*
X45166Y-24024D01*
X45090Y-24100D01*
X42284Y-24100D01*
X42209Y-24024D01*
X42089Y-23975D01*
X41960Y-23974D01*
X41841Y-24024D01*
X41750Y-24115D01*
X41750Y-21184D01*
X41765Y-21200D01*
X41885Y-21249D01*
X41992Y-21250D01*
X42008Y-21266D01*
X42008Y-21266D01*
X42051Y-21295D01*
X42073Y-21309D01*
X42073Y-21309D01*
X42150Y-21325D01*
X45265Y-21325D01*
X45340Y-21400D01*
X45460Y-21449D01*
X45589Y-21450D01*
X45708Y-21400D01*
X45800Y-21309D01*
X45849Y-21189D01*
X45850Y-21060D01*
X45850Y-25239D01*
X45785Y-25304D01*
X45728Y-25441D01*
X45671Y-25305D01*
X45530Y-25163D01*
X45344Y-25086D01*
X45144Y-25086D01*
X44958Y-25162D01*
X44816Y-25304D01*
X44759Y-25441D01*
X44703Y-25305D01*
X44561Y-25163D01*
X44376Y-25086D01*
X44175Y-25086D01*
X43990Y-25162D01*
X43848Y-25304D01*
X43811Y-25393D01*
X43811Y-25206D01*
X43788Y-25151D01*
X43746Y-25109D01*
X43691Y-25086D01*
X43631Y-25086D01*
X42923Y-25086D01*
X42867Y-25108D01*
X42825Y-25151D01*
X42802Y-25206D01*
X42802Y-25265D01*
X42802Y-25974D01*
X42825Y-26029D01*
X42867Y-26071D01*
X42922Y-26094D01*
X42982Y-26094D01*
X43691Y-26094D01*
X43746Y-26072D01*
X43788Y-26029D01*
X43811Y-25974D01*
X43811Y-25915D01*
X43811Y-25787D01*
X43847Y-25875D01*
X43989Y-26017D01*
X44174Y-26094D01*
X44375Y-26094D01*
X44560Y-26018D01*
X44702Y-25876D01*
X44759Y-25739D01*
X44816Y-25875D01*
X44958Y-26017D01*
X45044Y-26053D01*
X45044Y-26444D01*
X45059Y-26520D01*
X45102Y-26585D01*
X45221Y-26704D01*
X45200Y-26700D01*
X44509Y-26700D01*
X44525Y-26684D01*
X44574Y-26564D01*
X44575Y-26435D01*
X44525Y-26316D01*
X44434Y-26224D01*
X44314Y-26175D01*
X44185Y-26174D01*
X44066Y-26224D01*
X43990Y-26300D01*
X42782Y-26300D01*
X42041Y-25558D01*
X41976Y-25515D01*
X41900Y-25500D01*
X40850Y-25500D01*
X40773Y-25515D01*
X40751Y-25529D01*
X40708Y-25558D01*
X40117Y-26150D01*
X38200Y-26150D01*
X38123Y-26165D01*
X38101Y-26179D01*
X38058Y-26208D01*
X37892Y-26375D01*
X37785Y-26374D01*
X37666Y-26424D01*
X37574Y-26515D01*
X37525Y-26635D01*
X37524Y-26764D01*
X37574Y-26883D01*
X37665Y-26975D01*
X37785Y-27024D01*
X37914Y-27025D01*
X38033Y-26975D01*
X38125Y-26884D01*
X38174Y-26764D01*
X38175Y-26657D01*
X38282Y-26550D01*
X38817Y-26550D01*
X38458Y-26908D01*
X38415Y-26973D01*
X38400Y-27050D01*
X38400Y-27565D01*
X38334Y-27499D01*
X38214Y-27450D01*
X38107Y-27449D01*
X36841Y-26183D01*
X36776Y-26140D01*
X36700Y-26125D01*
X35157Y-26125D01*
X35127Y-26094D01*
X35817Y-26094D01*
X35872Y-26072D01*
X35914Y-26029D01*
X35937Y-25974D01*
X35937Y-25915D01*
X35937Y-25787D01*
X35973Y-25875D01*
X36115Y-26017D01*
X36300Y-26094D01*
X36501Y-26094D01*
X36686Y-26018D01*
X36828Y-25876D01*
X36885Y-25739D01*
X36942Y-25875D01*
X37084Y-26017D01*
X37269Y-26094D01*
X37469Y-26094D01*
X37655Y-26018D01*
X37797Y-25876D01*
X37854Y-25739D01*
X37910Y-25875D01*
X38052Y-26017D01*
X38237Y-26094D01*
X38438Y-26094D01*
X38623Y-26018D01*
X38765Y-25876D01*
X38822Y-25739D01*
X38879Y-25875D01*
X39021Y-26017D01*
X39206Y-26094D01*
X39406Y-26094D01*
X39592Y-26018D01*
X39734Y-25876D01*
X39811Y-25691D01*
X39811Y-25490D01*
X39734Y-25305D01*
X39593Y-25163D01*
X39407Y-25086D01*
X39207Y-25086D01*
X39021Y-25162D01*
X38879Y-25304D01*
X38822Y-25441D01*
X38766Y-25305D01*
X38624Y-25163D01*
X38439Y-25086D01*
X38238Y-25086D01*
X38053Y-25162D01*
X37911Y-25304D01*
X37854Y-25441D01*
X37797Y-25305D01*
X37656Y-25163D01*
X37470Y-25086D01*
X37270Y-25086D01*
X37084Y-25162D01*
X36942Y-25304D01*
X36885Y-25441D01*
X36829Y-25305D01*
X36687Y-25163D01*
X36502Y-25086D01*
X36301Y-25086D01*
X36116Y-25162D01*
X35974Y-25304D01*
X35937Y-25393D01*
X35937Y-25206D01*
X35914Y-25151D01*
X35872Y-25109D01*
X35817Y-25086D01*
X35757Y-25086D01*
X35049Y-25086D01*
X34993Y-25108D01*
X34951Y-25151D01*
X34928Y-25206D01*
X34928Y-25265D01*
X34928Y-25895D01*
X34525Y-25492D01*
X34525Y-25075D01*
X34509Y-24998D01*
X34466Y-24933D01*
X33962Y-24430D01*
X34033Y-24400D01*
X34125Y-24309D01*
X34129Y-24300D01*
X37265Y-24300D01*
X37340Y-24375D01*
X37460Y-24424D01*
X37589Y-24425D01*
X37708Y-24375D01*
X37800Y-24284D01*
X37849Y-24164D01*
X37850Y-24035D01*
X37850Y-21060D01*
X37800Y-20941D01*
X37709Y-20849D01*
X37621Y-20813D01*
X37650Y-20784D01*
X37699Y-20664D01*
X37700Y-20535D01*
X37650Y-20416D01*
X37559Y-20324D01*
X37439Y-20275D01*
X37310Y-20274D01*
X37191Y-20324D01*
X37115Y-20400D01*
X34459Y-20400D01*
X34384Y-20324D01*
X34264Y-20275D01*
X34135Y-20274D01*
X34016Y-20324D01*
X33924Y-20415D01*
X33905Y-20460D01*
X33905Y-19490D01*
X33829Y-19305D01*
X33687Y-19163D01*
X33502Y-19086D01*
X33301Y-19086D01*
X33116Y-19162D01*
X32974Y-19304D01*
X32917Y-19441D01*
X32860Y-19305D01*
X32719Y-19163D01*
X32533Y-19086D01*
X32333Y-19086D01*
X32147Y-19162D01*
X32005Y-19304D01*
X31948Y-19441D01*
X31892Y-19305D01*
X31750Y-19163D01*
X31565Y-19086D01*
X31364Y-19086D01*
X31179Y-19162D01*
X31037Y-19304D01*
X30980Y-19441D01*
X30923Y-19305D01*
X30782Y-19163D01*
X30596Y-19086D01*
X30396Y-19086D01*
X30210Y-19162D01*
X30068Y-19304D01*
X30011Y-19441D01*
X29955Y-19305D01*
X29813Y-19163D01*
X29628Y-19086D01*
X29427Y-19086D01*
X29242Y-19162D01*
X29100Y-19304D01*
X29023Y-19489D01*
X29023Y-19690D01*
X29099Y-19875D01*
X29241Y-20017D01*
X29426Y-20094D01*
X29627Y-20094D01*
X29812Y-20018D01*
X29954Y-19876D01*
X30011Y-19739D01*
X30068Y-19875D01*
X30210Y-20017D01*
X30395Y-20094D01*
X30595Y-20094D01*
X30781Y-20018D01*
X30923Y-19876D01*
X30980Y-19739D01*
X31036Y-19875D01*
X31178Y-20017D01*
X31363Y-20094D01*
X31564Y-20094D01*
X31749Y-20018D01*
X31891Y-19876D01*
X31948Y-19739D01*
X32005Y-19875D01*
X32147Y-20017D01*
X32332Y-20094D01*
X32532Y-20094D01*
X32718Y-20018D01*
X32860Y-19876D01*
X32917Y-19739D01*
X32973Y-19875D01*
X33115Y-20017D01*
X33300Y-20094D01*
X33501Y-20094D01*
X33686Y-20018D01*
X33828Y-19876D01*
X33905Y-19691D01*
X33905Y-19490D01*
X33905Y-20460D01*
X33875Y-20535D01*
X33874Y-20664D01*
X33924Y-20783D01*
X34015Y-20875D01*
X34135Y-20924D01*
X34160Y-20924D01*
X34125Y-21010D01*
X34124Y-21139D01*
X34174Y-21258D01*
X34265Y-21350D01*
X34385Y-21399D01*
X34514Y-21400D01*
X34633Y-21350D01*
X34659Y-21325D01*
X37265Y-21325D01*
X37340Y-21400D01*
X37460Y-21449D01*
X37589Y-21450D01*
X37708Y-21400D01*
X37800Y-21309D01*
X37849Y-21189D01*
X37850Y-21060D01*
X37850Y-24035D01*
X37800Y-23916D01*
X37709Y-23824D01*
X37589Y-23775D01*
X37460Y-23774D01*
X37341Y-23824D01*
X37265Y-23900D01*
X34084Y-23900D01*
X34034Y-23849D01*
X33914Y-23800D01*
X33785Y-23799D01*
X33666Y-23849D01*
X33574Y-23940D01*
X33525Y-24060D01*
X33524Y-24189D01*
X33549Y-24250D01*
X33532Y-24250D01*
X33500Y-24217D01*
X33500Y-23957D01*
X34107Y-23350D01*
X34350Y-23350D01*
X34426Y-23334D01*
X34491Y-23291D01*
X34682Y-23099D01*
X34789Y-23100D01*
X34908Y-23050D01*
X35000Y-22959D01*
X35049Y-22839D01*
X35050Y-22710D01*
X35000Y-22591D01*
X34909Y-22499D01*
X34789Y-22450D01*
X34660Y-22449D01*
X34541Y-22499D01*
X34449Y-22590D01*
X34400Y-22710D01*
X34399Y-22817D01*
X34267Y-22950D01*
X34025Y-22950D01*
X33961Y-22962D01*
X33948Y-22965D01*
X33883Y-23008D01*
X33158Y-23733D01*
X33115Y-23798D01*
X33100Y-23875D01*
X33100Y-24300D01*
X33115Y-24376D01*
X33158Y-24441D01*
X33308Y-24591D01*
X33308Y-24591D01*
X33373Y-24634D01*
X33373Y-24634D01*
X33386Y-24637D01*
X33450Y-24650D01*
X33617Y-24650D01*
X34125Y-25157D01*
X34125Y-25575D01*
X34140Y-25651D01*
X34183Y-25716D01*
X34933Y-26466D01*
X34933Y-26466D01*
X34976Y-26495D01*
X34998Y-26509D01*
X34998Y-26509D01*
X35074Y-26524D01*
X35075Y-26525D01*
X36617Y-26525D01*
X36754Y-26662D01*
X36664Y-26625D01*
X36535Y-26624D01*
X36416Y-26674D01*
X36365Y-26725D01*
X35974Y-26725D01*
X35957Y-26682D01*
X35915Y-26640D01*
X35859Y-26617D01*
X35800Y-26617D01*
X35406Y-26617D01*
X35351Y-26640D01*
X35308Y-26682D01*
X35286Y-26737D01*
X35285Y-26797D01*
X35285Y-27112D01*
X35286Y-27112D01*
X35286Y-27112D01*
X35273Y-27115D01*
X35208Y-27158D01*
X35114Y-27253D01*
X35114Y-27112D01*
X35091Y-27057D01*
X35049Y-27015D01*
X34993Y-26992D01*
X34978Y-26992D01*
X34943Y-26940D01*
X34943Y-26940D01*
X34700Y-26696D01*
X34700Y-26630D01*
X34646Y-26502D01*
X34548Y-26403D01*
X34419Y-26350D01*
X34280Y-26349D01*
X34152Y-26403D01*
X34053Y-26501D01*
X34000Y-26630D01*
X33999Y-26769D01*
X34053Y-26898D01*
X34151Y-26996D01*
X34280Y-27049D01*
X34346Y-27049D01*
X34346Y-27050D01*
X31780Y-27050D01*
X31780Y-26737D01*
X31757Y-26682D01*
X31715Y-26640D01*
X31659Y-26617D01*
X31633Y-26617D01*
X31633Y-26066D01*
X31749Y-26018D01*
X31891Y-25876D01*
X31948Y-25739D01*
X32005Y-25875D01*
X32147Y-26017D01*
X32332Y-26094D01*
X32532Y-26094D01*
X32718Y-26018D01*
X32860Y-25876D01*
X32917Y-25739D01*
X32973Y-25875D01*
X33115Y-26017D01*
X33300Y-26094D01*
X33501Y-26094D01*
X33686Y-26018D01*
X33828Y-25876D01*
X33905Y-25691D01*
X33905Y-25490D01*
X33829Y-25305D01*
X33687Y-25163D01*
X33502Y-25086D01*
X33301Y-25086D01*
X33116Y-25162D01*
X32974Y-25304D01*
X32917Y-25441D01*
X32860Y-25305D01*
X32719Y-25163D01*
X32533Y-25086D01*
X32333Y-25086D01*
X32147Y-25162D01*
X32005Y-25304D01*
X31948Y-25441D01*
X31892Y-25305D01*
X31750Y-25163D01*
X31565Y-25086D01*
X31364Y-25086D01*
X31179Y-25162D01*
X31037Y-25304D01*
X30980Y-25441D01*
X30923Y-25305D01*
X30782Y-25163D01*
X30596Y-25086D01*
X30396Y-25086D01*
X30210Y-25162D01*
X30068Y-25304D01*
X30031Y-25393D01*
X30031Y-25206D01*
X30009Y-25151D01*
X29966Y-25109D01*
X29911Y-25086D01*
X29852Y-25086D01*
X29143Y-25086D01*
X29088Y-25108D01*
X29046Y-25151D01*
X29023Y-25206D01*
X29023Y-25265D01*
X29023Y-25974D01*
X29045Y-26029D01*
X29088Y-26071D01*
X29143Y-26094D01*
X29202Y-26094D01*
X29911Y-26094D01*
X29966Y-26072D01*
X30008Y-26029D01*
X30031Y-25974D01*
X30031Y-25915D01*
X30031Y-25787D01*
X30068Y-25875D01*
X30210Y-26017D01*
X30395Y-26094D01*
X30595Y-26094D01*
X30781Y-26018D01*
X30923Y-25876D01*
X30980Y-25739D01*
X31036Y-25875D01*
X31178Y-26017D01*
X31233Y-26040D01*
X31233Y-26617D01*
X31206Y-26617D01*
X31151Y-26640D01*
X31108Y-26682D01*
X31086Y-26737D01*
X31085Y-26797D01*
X31085Y-27050D01*
X30883Y-27050D01*
X30849Y-27015D01*
X30817Y-27002D01*
X30817Y-26917D01*
X30797Y-26821D01*
X30750Y-26749D01*
X30750Y-26680D01*
X30696Y-26552D01*
X30598Y-26453D01*
X30469Y-26400D01*
X30330Y-26399D01*
X30202Y-26453D01*
X30103Y-26551D01*
X30050Y-26680D01*
X30049Y-26819D01*
X30103Y-26948D01*
X30201Y-27046D01*
X30240Y-27062D01*
X30220Y-27112D01*
X30219Y-27172D01*
X30219Y-27450D01*
X30182Y-27450D01*
X30041Y-27308D01*
X29976Y-27265D01*
X29900Y-27250D01*
X29400Y-27250D01*
X29323Y-27265D01*
X29301Y-27279D01*
X29258Y-27308D01*
X28867Y-27699D01*
X28270Y-27699D01*
X28215Y-27722D01*
X28172Y-27764D01*
X28150Y-27820D01*
X28149Y-27879D01*
X28149Y-28367D01*
X28075Y-28442D01*
X28075Y-28435D01*
X28025Y-28316D01*
X27934Y-28224D01*
X27814Y-28175D01*
X27685Y-28174D01*
X27566Y-28224D01*
X27490Y-28300D01*
X27225Y-28300D01*
X27225Y-19649D01*
X27225Y-18950D01*
X27187Y-18858D01*
X27116Y-18788D01*
X27024Y-18750D01*
X26925Y-18749D01*
X26762Y-18750D01*
X26700Y-18812D01*
X26700Y-19275D01*
X27162Y-19275D01*
X27225Y-19212D01*
X27225Y-18950D01*
X27225Y-19649D01*
X27225Y-19387D01*
X27162Y-19325D01*
X26700Y-19325D01*
X26700Y-19787D01*
X26762Y-19850D01*
X26925Y-19850D01*
X27024Y-19849D01*
X27116Y-19811D01*
X27187Y-19741D01*
X27225Y-19649D01*
X27225Y-28300D01*
X27125Y-28300D01*
X27125Y-24210D01*
X27125Y-23210D01*
X27125Y-22210D01*
X27125Y-21210D01*
X27125Y-20210D01*
X27056Y-20045D01*
X26930Y-19918D01*
X26764Y-19850D01*
X26587Y-19849D01*
X26650Y-19787D01*
X26650Y-19325D01*
X26650Y-19275D01*
X26650Y-18812D01*
X26587Y-18750D01*
X26424Y-18749D01*
X26325Y-18750D01*
X26233Y-18788D01*
X26162Y-18858D01*
X26124Y-18950D01*
X26125Y-19212D01*
X26187Y-19275D01*
X26650Y-19275D01*
X26650Y-19325D01*
X26187Y-19325D01*
X26125Y-19387D01*
X26124Y-19649D01*
X26162Y-19741D01*
X26233Y-19811D01*
X26325Y-19849D01*
X26424Y-19850D01*
X26585Y-19850D01*
X26420Y-19918D01*
X26293Y-20044D01*
X26225Y-20210D01*
X26224Y-20389D01*
X26293Y-20554D01*
X26419Y-20681D01*
X26585Y-20749D01*
X26764Y-20750D01*
X26929Y-20681D01*
X27056Y-20555D01*
X27124Y-20389D01*
X27125Y-20210D01*
X27125Y-21210D01*
X27056Y-21045D01*
X26930Y-20918D01*
X26764Y-20850D01*
X26585Y-20849D01*
X26420Y-20918D01*
X26293Y-21044D01*
X26225Y-21210D01*
X26224Y-21389D01*
X26293Y-21554D01*
X26419Y-21681D01*
X26585Y-21749D01*
X26764Y-21750D01*
X26929Y-21681D01*
X27056Y-21555D01*
X27124Y-21389D01*
X27125Y-21210D01*
X27125Y-22210D01*
X27056Y-22045D01*
X26930Y-21918D01*
X26764Y-21850D01*
X26585Y-21849D01*
X26420Y-21918D01*
X26293Y-22044D01*
X26225Y-22210D01*
X26224Y-22389D01*
X26293Y-22554D01*
X26419Y-22681D01*
X26585Y-22749D01*
X26764Y-22750D01*
X26929Y-22681D01*
X27056Y-22555D01*
X27124Y-22389D01*
X27125Y-22210D01*
X27125Y-23210D01*
X27056Y-23045D01*
X26930Y-22918D01*
X26764Y-22850D01*
X26585Y-22849D01*
X26420Y-22918D01*
X26293Y-23044D01*
X26225Y-23210D01*
X26224Y-23389D01*
X26293Y-23554D01*
X26419Y-23681D01*
X26585Y-23749D01*
X26764Y-23750D01*
X26929Y-23681D01*
X27056Y-23555D01*
X27124Y-23389D01*
X27125Y-23210D01*
X27125Y-24210D01*
X27056Y-24045D01*
X26930Y-23918D01*
X26764Y-23850D01*
X26585Y-23849D01*
X26420Y-23918D01*
X26293Y-24044D01*
X26225Y-24210D01*
X26224Y-24389D01*
X26293Y-24554D01*
X26419Y-24681D01*
X26585Y-24749D01*
X26764Y-24750D01*
X26929Y-24681D01*
X27056Y-24555D01*
X27124Y-24389D01*
X27125Y-24210D01*
X27125Y-28300D01*
X26850Y-28300D01*
X26773Y-28315D01*
X26751Y-28329D01*
X26708Y-28358D01*
X26642Y-28425D01*
X26535Y-28424D01*
X26416Y-28474D01*
X26324Y-28565D01*
X26275Y-28685D01*
X26274Y-28814D01*
X26324Y-28933D01*
X26415Y-29025D01*
X26535Y-29074D01*
X26664Y-29075D01*
X26783Y-29025D01*
X26875Y-28934D01*
X26924Y-28814D01*
X26925Y-28707D01*
X26932Y-28700D01*
X27490Y-28700D01*
X27532Y-28742D01*
X27508Y-28758D01*
X26858Y-29408D01*
X26815Y-29473D01*
X26800Y-29550D01*
X26800Y-30700D01*
X26815Y-30776D01*
X26858Y-30841D01*
X27308Y-31291D01*
X27373Y-31334D01*
X27373Y-31334D01*
X27450Y-31350D01*
X28021Y-31350D01*
X28008Y-31358D01*
X27508Y-31858D01*
X27465Y-31923D01*
X27450Y-32000D01*
X27450Y-33217D01*
X26808Y-33858D01*
X26765Y-33923D01*
X26750Y-34000D01*
X26750Y-34650D01*
X26765Y-34726D01*
X26808Y-34791D01*
X27108Y-35091D01*
X27108Y-35091D01*
X27151Y-35120D01*
X27173Y-35134D01*
X27173Y-35134D01*
X27249Y-35149D01*
X27250Y-35150D01*
X32165Y-35150D01*
X32074Y-35240D01*
X32025Y-35360D01*
X32024Y-35489D01*
X32074Y-35608D01*
X32165Y-35700D01*
X32182Y-35707D01*
X32174Y-35715D01*
X32125Y-35835D01*
X32124Y-35964D01*
X32174Y-36083D01*
X32265Y-36175D01*
X32385Y-36224D01*
X32514Y-36225D01*
X32633Y-36175D01*
X32634Y-36175D01*
X35440Y-36175D01*
X35515Y-36250D01*
X35635Y-36299D01*
X35764Y-36300D01*
X35883Y-36250D01*
X35975Y-36159D01*
X36024Y-36039D01*
X36025Y-35910D01*
X35975Y-35791D01*
X35884Y-35699D01*
X35831Y-35677D01*
X35900Y-35609D01*
X35949Y-35489D01*
X35950Y-35360D01*
X35900Y-35241D01*
X35809Y-35150D01*
X36267Y-35150D01*
X37550Y-36432D01*
X37550Y-38600D01*
X37565Y-38676D01*
X37608Y-38741D01*
X38208Y-39341D01*
X38208Y-39341D01*
X38251Y-39370D01*
X38273Y-39384D01*
X38273Y-39384D01*
X38350Y-39400D01*
X43100Y-39400D01*
X43176Y-39384D01*
X43241Y-39341D01*
X43644Y-38937D01*
X43674Y-39008D01*
X43765Y-39100D01*
X43885Y-39149D01*
X44014Y-39150D01*
X44133Y-39100D01*
X44225Y-39009D01*
X44229Y-39000D01*
X47190Y-39000D01*
X47265Y-39075D01*
X47385Y-39124D01*
X47514Y-39125D01*
X47633Y-39075D01*
X47725Y-38984D01*
X47774Y-38864D01*
X47775Y-38735D01*
X47725Y-38616D01*
X47634Y-38524D01*
X47514Y-38475D01*
X47385Y-38474D01*
X47266Y-38524D01*
X47190Y-38600D01*
X44184Y-38600D01*
X44134Y-38549D01*
X44014Y-38500D01*
X43885Y-38499D01*
X43766Y-38549D01*
X43750Y-38565D01*
X43750Y-38282D01*
X45032Y-37000D01*
X48150Y-37000D01*
X48226Y-36984D01*
X48291Y-36941D01*
X49800Y-35432D01*
X49799Y-35514D01*
X49849Y-35633D01*
X49940Y-35725D01*
X49982Y-35742D01*
X49966Y-35749D01*
X49874Y-35840D01*
X49825Y-35960D01*
X49824Y-36089D01*
X49874Y-36208D01*
X49965Y-36300D01*
X50085Y-36349D01*
X50214Y-36350D01*
X50333Y-36300D01*
X50384Y-36250D01*
X52890Y-36250D01*
X52965Y-36325D01*
X53085Y-36374D01*
X53214Y-36375D01*
X53333Y-36325D01*
X53425Y-36234D01*
X53474Y-36114D01*
X53475Y-35985D01*
X53425Y-35866D01*
X53371Y-35811D01*
X53458Y-35775D01*
X53550Y-35684D01*
X53599Y-35564D01*
X53600Y-35435D01*
X53550Y-35316D01*
X53459Y-35224D01*
X53339Y-35175D01*
X53210Y-35174D01*
X53091Y-35224D01*
X53015Y-35300D01*
X50414Y-35300D01*
X50400Y-35266D01*
X50309Y-35174D01*
X50189Y-35125D01*
X50107Y-35124D01*
X50141Y-35091D01*
X50141Y-35091D01*
X50170Y-35048D01*
X50184Y-35026D01*
X50184Y-35026D01*
X50199Y-34950D01*
X50200Y-34950D01*
X50200Y-34050D01*
X50184Y-33973D01*
X50184Y-33973D01*
X50170Y-33951D01*
X50141Y-33908D01*
X50141Y-33908D01*
X49582Y-33350D01*
X51500Y-33350D01*
X51576Y-33334D01*
X51641Y-33291D01*
X52407Y-32525D01*
X52654Y-32525D01*
X52709Y-32502D01*
X52752Y-32460D01*
X52774Y-32404D01*
X52775Y-32345D01*
X52775Y-31900D01*
X52825Y-31900D01*
X52824Y-31954D01*
X52824Y-32404D01*
X52847Y-32459D01*
X52889Y-32502D01*
X52945Y-32524D01*
X53004Y-32525D01*
X53254Y-32525D01*
X53309Y-32502D01*
X53352Y-32460D01*
X53374Y-32404D01*
X53375Y-32350D01*
X53469Y-32350D01*
X53469Y-32562D01*
X53492Y-32617D01*
X53534Y-32659D01*
X53590Y-32682D01*
X53649Y-32682D01*
X54043Y-32682D01*
X54098Y-32659D01*
X54141Y-32617D01*
X54163Y-32562D01*
X54164Y-32502D01*
X54164Y-32187D01*
X54141Y-32132D01*
X54099Y-32090D01*
X54043Y-32067D01*
X53984Y-32067D01*
X53792Y-32067D01*
X53733Y-32008D01*
X53668Y-31965D01*
X53592Y-31950D01*
X53375Y-31950D01*
X53375Y-31900D01*
X54040Y-31900D01*
X54065Y-31925D01*
X54185Y-31974D01*
X54314Y-31975D01*
X54433Y-31925D01*
X54525Y-31834D01*
X54574Y-31714D01*
X54575Y-31585D01*
X54529Y-31475D01*
X54564Y-31475D01*
X54683Y-31425D01*
X54775Y-31334D01*
X54824Y-31214D01*
X54825Y-31085D01*
X54775Y-30966D01*
X54684Y-30874D01*
X54564Y-30825D01*
X54435Y-30824D01*
X54316Y-30874D01*
X54224Y-30965D01*
X54210Y-31000D01*
X54125Y-31000D01*
X54183Y-30975D01*
X54275Y-30884D01*
X54324Y-30764D01*
X54325Y-30635D01*
X54275Y-30516D01*
X54209Y-30450D01*
X55450Y-30450D01*
X55526Y-30434D01*
X55591Y-30391D01*
X56841Y-29141D01*
X56880Y-29083D01*
X56880Y-41430D01*
X56880Y-41430D01*
G37*
G54D22*
X56880Y-41430D02*
X55850Y-41430D01*
X55850Y-32730D01*
X55796Y-32602D01*
X55698Y-32503D01*
X55569Y-32450D01*
X55430Y-32449D01*
X55309Y-32500D01*
X54999Y-32500D01*
X54965Y-32465D01*
X54909Y-32442D01*
X54850Y-32442D01*
X54456Y-32442D01*
X54401Y-32465D01*
X54358Y-32507D01*
X54336Y-32562D01*
X54335Y-32622D01*
X54335Y-32937D01*
X54358Y-32992D01*
X54400Y-33034D01*
X54456Y-33057D01*
X54515Y-33057D01*
X54909Y-33057D01*
X54964Y-33034D01*
X54999Y-33000D01*
X55205Y-33000D01*
X55301Y-33096D01*
X55430Y-33149D01*
X55569Y-33150D01*
X55698Y-33096D01*
X55796Y-32998D01*
X55849Y-32869D01*
X55850Y-32730D01*
X55850Y-41430D01*
X55559Y-41430D01*
X55559Y-40254D01*
X55559Y-34254D01*
X55482Y-34069D01*
X55341Y-33927D01*
X55155Y-33850D01*
X54955Y-33849D01*
X54769Y-33926D01*
X54627Y-34068D01*
X54570Y-34205D01*
X54514Y-34069D01*
X54372Y-33927D01*
X54187Y-33850D01*
X53986Y-33849D01*
X53801Y-33926D01*
X53659Y-34068D01*
X53602Y-34205D01*
X53545Y-34069D01*
X53404Y-33927D01*
X53318Y-33891D01*
X53318Y-33564D01*
X53504Y-33378D01*
X53534Y-33409D01*
X53590Y-33432D01*
X53649Y-33432D01*
X54043Y-33432D01*
X54098Y-33409D01*
X54141Y-33367D01*
X54163Y-33312D01*
X54164Y-33252D01*
X54164Y-32937D01*
X54141Y-32882D01*
X54099Y-32840D01*
X54043Y-32817D01*
X53984Y-32817D01*
X53590Y-32817D01*
X53535Y-32840D01*
X53492Y-32882D01*
X53475Y-32925D01*
X53475Y-32925D01*
X53398Y-32940D01*
X53376Y-32954D01*
X53333Y-32983D01*
X52976Y-33340D01*
X52933Y-33405D01*
X52918Y-33481D01*
X52918Y-33891D01*
X52832Y-33926D01*
X52690Y-34068D01*
X52633Y-34205D01*
X52577Y-34069D01*
X52435Y-33927D01*
X52250Y-33850D01*
X52049Y-33849D01*
X51864Y-33926D01*
X51722Y-34068D01*
X51665Y-34205D01*
X51608Y-34069D01*
X51467Y-33927D01*
X51281Y-33850D01*
X51081Y-33849D01*
X50895Y-33926D01*
X50753Y-34068D01*
X50676Y-34253D01*
X50676Y-34454D01*
X50753Y-34639D01*
X50895Y-34781D01*
X51080Y-34858D01*
X51280Y-34858D01*
X51466Y-34782D01*
X51608Y-34640D01*
X51665Y-34503D01*
X51721Y-34639D01*
X51863Y-34781D01*
X52048Y-34858D01*
X52249Y-34858D01*
X52434Y-34782D01*
X52576Y-34640D01*
X52633Y-34503D01*
X52690Y-34639D01*
X52832Y-34781D01*
X53017Y-34858D01*
X53217Y-34858D01*
X53403Y-34782D01*
X53545Y-34640D01*
X53602Y-34503D01*
X53658Y-34639D01*
X53800Y-34781D01*
X53985Y-34858D01*
X54186Y-34858D01*
X54371Y-34782D01*
X54513Y-34640D01*
X54570Y-34503D01*
X54627Y-34639D01*
X54769Y-34781D01*
X54954Y-34858D01*
X55154Y-34858D01*
X55340Y-34782D01*
X55482Y-34640D01*
X55559Y-34455D01*
X55559Y-34254D01*
X55559Y-40254D01*
X55482Y-40069D01*
X55341Y-39927D01*
X55155Y-39850D01*
X54955Y-39849D01*
X54769Y-39926D01*
X54627Y-40068D01*
X54570Y-40205D01*
X54514Y-40069D01*
X54372Y-39927D01*
X54187Y-39850D01*
X53986Y-39849D01*
X53801Y-39926D01*
X53659Y-40068D01*
X53602Y-40205D01*
X53545Y-40069D01*
X53404Y-39927D01*
X53250Y-39863D01*
X53250Y-38685D01*
X53200Y-38566D01*
X53109Y-38474D01*
X52989Y-38425D01*
X52860Y-38424D01*
X52741Y-38474D01*
X52665Y-38550D01*
X49909Y-38550D01*
X49859Y-38499D01*
X49739Y-38450D01*
X49610Y-38449D01*
X49491Y-38499D01*
X49399Y-38590D01*
X49350Y-38710D01*
X49349Y-38839D01*
X49399Y-38958D01*
X49490Y-39050D01*
X49610Y-39099D01*
X49739Y-39100D01*
X49858Y-39050D01*
X49950Y-38959D01*
X49954Y-38950D01*
X52665Y-38950D01*
X52740Y-39025D01*
X52860Y-39074D01*
X52989Y-39075D01*
X53108Y-39025D01*
X53200Y-38934D01*
X53249Y-38814D01*
X53250Y-38685D01*
X53250Y-39863D01*
X53218Y-39850D01*
X53018Y-39849D01*
X52832Y-39926D01*
X52690Y-40068D01*
X52633Y-40205D01*
X52577Y-40069D01*
X52435Y-39927D01*
X52250Y-39850D01*
X52049Y-39849D01*
X51864Y-39926D01*
X51722Y-40068D01*
X51685Y-40157D01*
X51685Y-39970D01*
X51662Y-39915D01*
X51620Y-39872D01*
X51565Y-39850D01*
X51505Y-39849D01*
X50797Y-39849D01*
X50741Y-39872D01*
X50699Y-39914D01*
X50676Y-39970D01*
X50676Y-40029D01*
X50676Y-40738D01*
X50699Y-40793D01*
X50741Y-40835D01*
X50796Y-40858D01*
X50856Y-40858D01*
X51565Y-40858D01*
X51620Y-40835D01*
X51662Y-40793D01*
X51685Y-40738D01*
X51685Y-40678D01*
X51685Y-40551D01*
X51721Y-40639D01*
X51863Y-40781D01*
X52048Y-40858D01*
X52249Y-40858D01*
X52434Y-40782D01*
X52576Y-40640D01*
X52633Y-40503D01*
X52690Y-40639D01*
X52832Y-40781D01*
X53017Y-40858D01*
X53217Y-40858D01*
X53403Y-40782D01*
X53545Y-40640D01*
X53602Y-40503D01*
X53658Y-40639D01*
X53800Y-40781D01*
X53985Y-40858D01*
X54186Y-40858D01*
X54371Y-40782D01*
X54513Y-40640D01*
X54570Y-40503D01*
X54627Y-40639D01*
X54769Y-40781D01*
X54954Y-40858D01*
X55154Y-40858D01*
X55340Y-40782D01*
X55482Y-40640D01*
X55559Y-40455D01*
X55559Y-40254D01*
X55559Y-41430D01*
X49654Y-41430D01*
X49654Y-40254D01*
X49577Y-40069D01*
X49435Y-39927D01*
X49250Y-39850D01*
X49049Y-39849D01*
X48864Y-39926D01*
X48722Y-40068D01*
X48665Y-40205D01*
X48608Y-40069D01*
X48467Y-39927D01*
X48281Y-39850D01*
X48081Y-39849D01*
X47895Y-39926D01*
X47753Y-40068D01*
X47696Y-40205D01*
X47640Y-40069D01*
X47498Y-39927D01*
X47313Y-39850D01*
X47112Y-39849D01*
X46927Y-39926D01*
X46785Y-40068D01*
X46728Y-40205D01*
X46671Y-40069D01*
X46530Y-39927D01*
X46344Y-39850D01*
X46144Y-39849D01*
X45958Y-39926D01*
X45816Y-40068D01*
X45779Y-40157D01*
X45779Y-39970D01*
X45757Y-39915D01*
X45715Y-39872D01*
X45659Y-39850D01*
X45600Y-39849D01*
X44891Y-39849D01*
X44836Y-39872D01*
X44794Y-39914D01*
X44771Y-39970D01*
X44771Y-40029D01*
X44771Y-40738D01*
X44794Y-40793D01*
X44836Y-40835D01*
X44891Y-40858D01*
X44950Y-40858D01*
X45659Y-40858D01*
X45714Y-40835D01*
X45757Y-40793D01*
X45779Y-40738D01*
X45779Y-40678D01*
X45779Y-40551D01*
X45816Y-40639D01*
X45958Y-40781D01*
X46143Y-40858D01*
X46343Y-40858D01*
X46529Y-40782D01*
X46671Y-40640D01*
X46728Y-40503D01*
X46784Y-40639D01*
X46926Y-40781D01*
X47111Y-40858D01*
X47312Y-40858D01*
X47497Y-40782D01*
X47639Y-40640D01*
X47696Y-40503D01*
X47753Y-40639D01*
X47895Y-40781D01*
X48080Y-40858D01*
X48280Y-40858D01*
X48466Y-40782D01*
X48608Y-40640D01*
X48665Y-40503D01*
X48721Y-40639D01*
X48863Y-40781D01*
X49048Y-40858D01*
X49249Y-40858D01*
X49434Y-40782D01*
X49576Y-40640D01*
X49653Y-40455D01*
X49654Y-40254D01*
X49654Y-41430D01*
X37843Y-41430D01*
X37843Y-40254D01*
X37766Y-40069D01*
X37624Y-39927D01*
X37439Y-39850D01*
X37238Y-39849D01*
X37053Y-39926D01*
X36911Y-40068D01*
X36854Y-40205D01*
X36797Y-40069D01*
X36656Y-39927D01*
X36470Y-39850D01*
X36270Y-39849D01*
X36084Y-39926D01*
X35942Y-40068D01*
X35925Y-40110D01*
X35925Y-38735D01*
X35875Y-38616D01*
X35784Y-38524D01*
X35664Y-38475D01*
X35535Y-38474D01*
X35416Y-38524D01*
X35340Y-38600D01*
X32234Y-38600D01*
X32159Y-38524D01*
X32039Y-38475D01*
X31910Y-38474D01*
X31791Y-38524D01*
X31699Y-38615D01*
X31650Y-38735D01*
X31649Y-38864D01*
X31699Y-38983D01*
X31790Y-39075D01*
X31910Y-39124D01*
X32039Y-39125D01*
X32158Y-39075D01*
X32234Y-39000D01*
X35340Y-39000D01*
X35415Y-39075D01*
X35535Y-39124D01*
X35664Y-39125D01*
X35783Y-39075D01*
X35875Y-38984D01*
X35924Y-38864D01*
X35925Y-38735D01*
X35925Y-40110D01*
X35885Y-40205D01*
X35829Y-40069D01*
X35687Y-39927D01*
X35502Y-39850D01*
X35301Y-39849D01*
X35116Y-39926D01*
X34974Y-40068D01*
X34917Y-40205D01*
X34860Y-40069D01*
X34719Y-39927D01*
X34533Y-39850D01*
X34333Y-39849D01*
X34147Y-39926D01*
X34005Y-40068D01*
X33968Y-40157D01*
X33968Y-39970D01*
X33946Y-39915D01*
X33903Y-39872D01*
X33848Y-39850D01*
X33789Y-39849D01*
X33080Y-39849D01*
X33025Y-39872D01*
X32983Y-39914D01*
X32960Y-39970D01*
X32960Y-40029D01*
X32960Y-40738D01*
X32982Y-40793D01*
X33025Y-40835D01*
X33080Y-40858D01*
X33139Y-40858D01*
X33848Y-40858D01*
X33903Y-40835D01*
X33945Y-40793D01*
X33968Y-40738D01*
X33968Y-40678D01*
X33968Y-40551D01*
X34005Y-40639D01*
X34147Y-40781D01*
X34332Y-40858D01*
X34532Y-40858D01*
X34718Y-40782D01*
X34860Y-40640D01*
X34917Y-40503D01*
X34973Y-40639D01*
X35115Y-40781D01*
X35300Y-40858D01*
X35501Y-40858D01*
X35686Y-40782D01*
X35828Y-40640D01*
X35885Y-40503D01*
X35942Y-40639D01*
X36084Y-40781D01*
X36269Y-40858D01*
X36469Y-40858D01*
X36655Y-40782D01*
X36797Y-40640D01*
X36854Y-40503D01*
X36910Y-40639D01*
X37052Y-40781D01*
X37237Y-40858D01*
X37438Y-40858D01*
X37623Y-40782D01*
X37765Y-40640D01*
X37842Y-40455D01*
X37843Y-40254D01*
X37843Y-41430D01*
X31937Y-41430D01*
X31937Y-40254D01*
X31860Y-40069D01*
X31719Y-39927D01*
X31533Y-39850D01*
X31333Y-39849D01*
X31147Y-39926D01*
X31005Y-40068D01*
X30948Y-40205D01*
X30892Y-40069D01*
X30750Y-39927D01*
X30565Y-39850D01*
X30364Y-39849D01*
X30179Y-39926D01*
X30037Y-40068D01*
X29980Y-40205D01*
X29923Y-40069D01*
X29782Y-39927D01*
X29596Y-39850D01*
X29396Y-39849D01*
X29210Y-39926D01*
X29068Y-40068D01*
X29011Y-40205D01*
X28955Y-40069D01*
X28813Y-39927D01*
X28628Y-39850D01*
X28427Y-39849D01*
X28242Y-39926D01*
X28100Y-40068D01*
X28063Y-40157D01*
X28063Y-39970D01*
X28040Y-39915D01*
X27998Y-39872D01*
X27943Y-39850D01*
X27883Y-39849D01*
X27175Y-39849D01*
X27119Y-39872D01*
X27077Y-39914D01*
X27054Y-39970D01*
X27054Y-40029D01*
X27054Y-40738D01*
X27077Y-40793D01*
X27119Y-40835D01*
X27174Y-40858D01*
X27234Y-40858D01*
X27943Y-40858D01*
X27998Y-40835D01*
X28040Y-40793D01*
X28063Y-40738D01*
X28063Y-40678D01*
X28063Y-40551D01*
X28099Y-40639D01*
X28241Y-40781D01*
X28426Y-40858D01*
X28627Y-40858D01*
X28812Y-40782D01*
X28954Y-40640D01*
X29011Y-40503D01*
X29068Y-40639D01*
X29210Y-40781D01*
X29395Y-40858D01*
X29595Y-40858D01*
X29781Y-40782D01*
X29923Y-40640D01*
X29980Y-40503D01*
X30036Y-40639D01*
X30178Y-40781D01*
X30363Y-40858D01*
X30564Y-40858D01*
X30749Y-40782D01*
X30891Y-40640D01*
X30948Y-40503D01*
X31005Y-40639D01*
X31147Y-40781D01*
X31332Y-40858D01*
X31532Y-40858D01*
X31718Y-40782D01*
X31860Y-40640D01*
X31937Y-40455D01*
X31937Y-40254D01*
X31937Y-41430D01*
X26119Y-41430D01*
X26119Y-18669D01*
X56550Y-18669D01*
X56880Y-18669D01*
X56880Y-24766D01*
X56841Y-24708D01*
X56841Y-24708D01*
X56466Y-24333D01*
X56401Y-24290D01*
X56380Y-24285D01*
X56380Y-23932D01*
X56380Y-23812D01*
X56317Y-23750D01*
X55958Y-23750D01*
X55958Y-24070D01*
X56020Y-24132D01*
X56080Y-24132D01*
X56179Y-24132D01*
X56271Y-24094D01*
X56342Y-24023D01*
X56380Y-23932D01*
X56380Y-24285D01*
X56325Y-24275D01*
X56274Y-24275D01*
X56257Y-24232D01*
X56215Y-24190D01*
X56159Y-24167D01*
X56100Y-24167D01*
X55706Y-24167D01*
X55700Y-24170D01*
X55700Y-24132D01*
X55785Y-24132D01*
X55845Y-24132D01*
X55908Y-24070D01*
X55908Y-23750D01*
X55900Y-23750D01*
X55900Y-23700D01*
X55908Y-23700D01*
X55908Y-23692D01*
X55958Y-23692D01*
X55958Y-23700D01*
X56317Y-23700D01*
X56380Y-23637D01*
X56380Y-23517D01*
X56380Y-22532D01*
X56380Y-22412D01*
X56317Y-22350D01*
X55958Y-22350D01*
X55958Y-22670D01*
X56020Y-22732D01*
X56080Y-22732D01*
X56179Y-22732D01*
X56271Y-22694D01*
X56342Y-22623D01*
X56380Y-22532D01*
X56380Y-23517D01*
X56342Y-23426D01*
X56271Y-23355D01*
X56234Y-23340D01*
X56257Y-23317D01*
X56279Y-23262D01*
X56280Y-23202D01*
X56280Y-22887D01*
X56257Y-22832D01*
X56215Y-22790D01*
X56159Y-22767D01*
X56100Y-22767D01*
X55908Y-22767D01*
X55908Y-22670D01*
X55908Y-22350D01*
X55548Y-22350D01*
X55486Y-22412D01*
X55485Y-22532D01*
X55523Y-22623D01*
X55594Y-22694D01*
X55686Y-22732D01*
X55785Y-22732D01*
X55845Y-22732D01*
X55908Y-22670D01*
X55908Y-22767D01*
X55706Y-22767D01*
X55651Y-22790D01*
X55608Y-22832D01*
X55586Y-22887D01*
X55585Y-22947D01*
X55585Y-23139D01*
X55414Y-23311D01*
X55414Y-22827D01*
X55414Y-22512D01*
X55391Y-22457D01*
X55349Y-22415D01*
X55293Y-22392D01*
X55234Y-22392D01*
X54840Y-22392D01*
X54785Y-22415D01*
X54742Y-22457D01*
X54725Y-22500D01*
X54659Y-22500D01*
X54634Y-22474D01*
X54514Y-22425D01*
X54385Y-22424D01*
X54266Y-22474D01*
X54174Y-22565D01*
X54125Y-22685D01*
X54124Y-22814D01*
X54174Y-22933D01*
X54265Y-23025D01*
X54385Y-23074D01*
X54514Y-23075D01*
X54633Y-23025D01*
X54725Y-22934D01*
X54732Y-22917D01*
X54742Y-22942D01*
X54784Y-22984D01*
X54840Y-23007D01*
X54899Y-23007D01*
X55293Y-23007D01*
X55348Y-22984D01*
X55391Y-22942D01*
X55413Y-22887D01*
X55414Y-22827D01*
X55414Y-23311D01*
X55358Y-23366D01*
X55315Y-23431D01*
X55300Y-23508D01*
X55300Y-23795D01*
X55293Y-23792D01*
X55234Y-23792D01*
X54840Y-23792D01*
X54785Y-23815D01*
X54742Y-23857D01*
X54735Y-23875D01*
X54684Y-23824D01*
X54564Y-23775D01*
X54435Y-23774D01*
X54316Y-23824D01*
X54300Y-23840D01*
X54300Y-23800D01*
X54299Y-23799D01*
X54284Y-23723D01*
X54284Y-23723D01*
X54270Y-23701D01*
X54241Y-23658D01*
X54241Y-23658D01*
X53900Y-23317D01*
X53900Y-22282D01*
X54182Y-22000D01*
X55549Y-22000D01*
X55523Y-22026D01*
X55485Y-22117D01*
X55486Y-22237D01*
X55548Y-22300D01*
X55908Y-22300D01*
X55908Y-22292D01*
X55958Y-22292D01*
X55958Y-22300D01*
X56317Y-22300D01*
X56380Y-22237D01*
X56380Y-22117D01*
X56380Y-21132D01*
X56380Y-21012D01*
X56317Y-20950D01*
X55958Y-20950D01*
X55958Y-21270D01*
X56020Y-21332D01*
X56080Y-21332D01*
X56179Y-21332D01*
X56271Y-21294D01*
X56342Y-21223D01*
X56380Y-21132D01*
X56380Y-22117D01*
X56342Y-22026D01*
X56271Y-21955D01*
X56234Y-21940D01*
X56257Y-21917D01*
X56279Y-21862D01*
X56280Y-21802D01*
X56280Y-21487D01*
X56257Y-21432D01*
X56215Y-21390D01*
X56159Y-21367D01*
X56100Y-21367D01*
X55908Y-21367D01*
X55908Y-21270D01*
X55908Y-20950D01*
X55548Y-20950D01*
X55486Y-21012D01*
X55485Y-21132D01*
X55523Y-21223D01*
X55594Y-21294D01*
X55686Y-21332D01*
X55785Y-21332D01*
X55845Y-21332D01*
X55908Y-21270D01*
X55908Y-21367D01*
X55706Y-21367D01*
X55651Y-21390D01*
X55608Y-21432D01*
X55586Y-21487D01*
X55585Y-21547D01*
X55585Y-21600D01*
X55311Y-21600D01*
X55348Y-21584D01*
X55391Y-21542D01*
X55413Y-21487D01*
X55414Y-21427D01*
X55414Y-21112D01*
X55391Y-21057D01*
X55349Y-21015D01*
X55293Y-20992D01*
X55234Y-20992D01*
X54887Y-20992D01*
X54926Y-20984D01*
X54991Y-20941D01*
X55457Y-20475D01*
X55591Y-20475D01*
X55608Y-20517D01*
X55631Y-20540D01*
X55594Y-20555D01*
X55523Y-20626D01*
X55485Y-20717D01*
X55486Y-20837D01*
X55548Y-20900D01*
X55908Y-20900D01*
X55908Y-20892D01*
X55958Y-20892D01*
X55958Y-20900D01*
X56317Y-20900D01*
X56380Y-20837D01*
X56380Y-20717D01*
X56380Y-19732D01*
X56380Y-19317D01*
X56342Y-19226D01*
X56271Y-19155D01*
X56179Y-19117D01*
X56080Y-19117D01*
X56020Y-19117D01*
X55958Y-19180D01*
X55958Y-19500D01*
X56317Y-19500D01*
X56380Y-19437D01*
X56380Y-19317D01*
X56380Y-19732D01*
X56380Y-19612D01*
X56317Y-19550D01*
X55958Y-19550D01*
X55958Y-19870D01*
X56020Y-19932D01*
X56080Y-19932D01*
X56179Y-19932D01*
X56271Y-19894D01*
X56342Y-19823D01*
X56380Y-19732D01*
X56380Y-20717D01*
X56342Y-20626D01*
X56271Y-20555D01*
X56234Y-20540D01*
X56257Y-20517D01*
X56279Y-20462D01*
X56280Y-20402D01*
X56280Y-20087D01*
X56257Y-20032D01*
X56215Y-19990D01*
X56159Y-19967D01*
X56100Y-19967D01*
X55908Y-19967D01*
X55908Y-19870D01*
X55908Y-19550D01*
X55908Y-19500D01*
X55908Y-19180D01*
X55845Y-19117D01*
X55785Y-19117D01*
X55686Y-19117D01*
X55594Y-19155D01*
X55523Y-19226D01*
X55485Y-19317D01*
X55486Y-19437D01*
X55548Y-19500D01*
X55908Y-19500D01*
X55908Y-19550D01*
X55548Y-19550D01*
X55486Y-19612D01*
X55485Y-19732D01*
X55523Y-19823D01*
X55594Y-19894D01*
X55686Y-19932D01*
X55785Y-19932D01*
X55845Y-19932D01*
X55908Y-19870D01*
X55908Y-19967D01*
X55706Y-19967D01*
X55651Y-19990D01*
X55608Y-20032D01*
X55591Y-20075D01*
X55413Y-20075D01*
X55414Y-20027D01*
X55414Y-19712D01*
X55391Y-19657D01*
X55349Y-19615D01*
X55293Y-19592D01*
X55234Y-19592D01*
X54840Y-19592D01*
X54785Y-19615D01*
X54742Y-19657D01*
X54720Y-19712D01*
X54719Y-19772D01*
X54719Y-19897D01*
X54512Y-20105D01*
X54405Y-20104D01*
X54286Y-20154D01*
X54194Y-20245D01*
X54145Y-20365D01*
X54144Y-20494D01*
X54188Y-20600D01*
X53591Y-20600D01*
X53591Y-19490D01*
X53514Y-19305D01*
X53372Y-19163D01*
X53187Y-19086D01*
X52986Y-19086D01*
X52801Y-19162D01*
X52659Y-19304D01*
X52602Y-19441D01*
X52545Y-19305D01*
X52404Y-19163D01*
X52218Y-19086D01*
X52018Y-19086D01*
X51832Y-19162D01*
X51690Y-19304D01*
X51633Y-19441D01*
X51577Y-19305D01*
X51435Y-19163D01*
X51250Y-19086D01*
X51049Y-19086D01*
X50864Y-19162D01*
X50722Y-19304D01*
X50665Y-19441D01*
X50608Y-19305D01*
X50467Y-19163D01*
X50281Y-19086D01*
X50081Y-19086D01*
X49895Y-19162D01*
X49753Y-19304D01*
X49696Y-19441D01*
X49640Y-19305D01*
X49498Y-19163D01*
X49313Y-19086D01*
X49112Y-19086D01*
X48927Y-19162D01*
X48785Y-19304D01*
X48708Y-19489D01*
X48708Y-19690D01*
X48784Y-19875D01*
X48926Y-20017D01*
X49111Y-20094D01*
X49312Y-20094D01*
X49497Y-20018D01*
X49639Y-19876D01*
X49696Y-19739D01*
X49753Y-19875D01*
X49895Y-20017D01*
X50080Y-20094D01*
X50280Y-20094D01*
X50466Y-20018D01*
X50608Y-19876D01*
X50665Y-19739D01*
X50721Y-19875D01*
X50863Y-20017D01*
X51048Y-20094D01*
X51249Y-20094D01*
X51434Y-20018D01*
X51576Y-19876D01*
X51633Y-19739D01*
X51690Y-19875D01*
X51832Y-20017D01*
X52017Y-20094D01*
X52217Y-20094D01*
X52403Y-20018D01*
X52545Y-19876D01*
X52602Y-19739D01*
X52658Y-19875D01*
X52800Y-20017D01*
X52985Y-20094D01*
X53186Y-20094D01*
X53371Y-20018D01*
X53513Y-19876D01*
X53590Y-19691D01*
X53591Y-19490D01*
X53591Y-20600D01*
X53450Y-20600D01*
X53373Y-20615D01*
X53351Y-20629D01*
X53308Y-20658D01*
X53108Y-20858D01*
X53065Y-20923D01*
X53050Y-21000D01*
X53050Y-23350D01*
X53065Y-23426D01*
X53108Y-23491D01*
X53650Y-24032D01*
X53650Y-26667D01*
X53591Y-26726D01*
X53591Y-25490D01*
X53514Y-25305D01*
X53372Y-25163D01*
X53187Y-25086D01*
X53008Y-25086D01*
X53033Y-25075D01*
X53125Y-24984D01*
X53174Y-24864D01*
X53175Y-24735D01*
X53125Y-24616D01*
X53034Y-24524D01*
X52950Y-24489D01*
X52950Y-23650D01*
X52949Y-23649D01*
X52934Y-23573D01*
X52934Y-23573D01*
X52920Y-23551D01*
X52891Y-23508D01*
X52891Y-23508D01*
X52541Y-23158D01*
X52476Y-23115D01*
X52400Y-23100D01*
X51700Y-23100D01*
X51700Y-21210D01*
X51650Y-21091D01*
X51559Y-20999D01*
X51439Y-20950D01*
X51310Y-20949D01*
X51191Y-20999D01*
X51115Y-21075D01*
X48479Y-21075D01*
X48475Y-21066D01*
X48384Y-20974D01*
X48264Y-20925D01*
X48249Y-20925D01*
X48308Y-20900D01*
X48400Y-20809D01*
X48404Y-20800D01*
X51015Y-20800D01*
X51090Y-20875D01*
X51210Y-20924D01*
X51339Y-20925D01*
X51458Y-20875D01*
X51550Y-20784D01*
X51599Y-20664D01*
X51600Y-20535D01*
X51550Y-20416D01*
X51459Y-20324D01*
X51339Y-20275D01*
X51210Y-20274D01*
X51091Y-20324D01*
X51015Y-20400D01*
X48359Y-20400D01*
X48309Y-20349D01*
X48189Y-20300D01*
X48060Y-20299D01*
X47941Y-20349D01*
X47849Y-20440D01*
X47800Y-20560D01*
X47799Y-20689D01*
X47849Y-20808D01*
X47940Y-20900D01*
X48060Y-20949D01*
X48075Y-20949D01*
X48016Y-20974D01*
X47924Y-21065D01*
X47875Y-21185D01*
X47874Y-21314D01*
X47924Y-21433D01*
X48015Y-21525D01*
X48135Y-21574D01*
X48264Y-21575D01*
X48383Y-21525D01*
X48434Y-21475D01*
X51115Y-21475D01*
X51190Y-21550D01*
X51310Y-21599D01*
X51439Y-21600D01*
X51558Y-21550D01*
X51650Y-21459D01*
X51699Y-21339D01*
X51700Y-21210D01*
X51700Y-23100D01*
X49859Y-23100D01*
X49784Y-23024D01*
X49664Y-22975D01*
X49535Y-22974D01*
X49416Y-23024D01*
X49324Y-23115D01*
X49275Y-23235D01*
X49274Y-23364D01*
X49324Y-23483D01*
X49415Y-23575D01*
X49535Y-23624D01*
X49664Y-23625D01*
X49783Y-23575D01*
X49859Y-23500D01*
X52317Y-23500D01*
X52550Y-23732D01*
X52550Y-24674D01*
X52525Y-24735D01*
X52524Y-24864D01*
X52574Y-24983D01*
X52665Y-25075D01*
X52785Y-25124D01*
X52892Y-25125D01*
X52801Y-25162D01*
X52659Y-25304D01*
X52602Y-25441D01*
X52545Y-25305D01*
X52404Y-25163D01*
X52218Y-25086D01*
X52018Y-25086D01*
X51832Y-25162D01*
X51690Y-25304D01*
X51650Y-25402D01*
X51650Y-24135D01*
X51600Y-24016D01*
X51509Y-23924D01*
X51389Y-23875D01*
X51260Y-23874D01*
X51141Y-23924D01*
X51065Y-24000D01*
X48175Y-24000D01*
X48111Y-24012D01*
X48098Y-24015D01*
X48083Y-24025D01*
X47960Y-24024D01*
X47841Y-24074D01*
X47749Y-24165D01*
X47700Y-24285D01*
X47699Y-24414D01*
X47749Y-24533D01*
X47840Y-24625D01*
X47960Y-24674D01*
X48089Y-24675D01*
X48208Y-24625D01*
X48300Y-24534D01*
X48349Y-24414D01*
X48349Y-24400D01*
X51065Y-24400D01*
X51140Y-24475D01*
X51260Y-24524D01*
X51389Y-24525D01*
X51508Y-24475D01*
X51600Y-24384D01*
X51649Y-24264D01*
X51650Y-24135D01*
X51650Y-25402D01*
X51633Y-25441D01*
X51577Y-25305D01*
X51435Y-25163D01*
X51250Y-25086D01*
X51049Y-25086D01*
X50864Y-25162D01*
X50722Y-25304D01*
X50665Y-25441D01*
X50608Y-25305D01*
X50467Y-25163D01*
X50281Y-25086D01*
X50081Y-25086D01*
X49895Y-25162D01*
X49753Y-25304D01*
X49716Y-25393D01*
X49716Y-25206D01*
X49694Y-25151D01*
X49652Y-25109D01*
X49596Y-25086D01*
X49537Y-25086D01*
X48828Y-25086D01*
X48773Y-25108D01*
X48731Y-25151D01*
X48708Y-25206D01*
X48708Y-25265D01*
X48708Y-25974D01*
X48731Y-26029D01*
X48773Y-26071D01*
X48828Y-26094D01*
X48887Y-26094D01*
X49596Y-26094D01*
X49651Y-26072D01*
X49694Y-26029D01*
X49716Y-25974D01*
X49716Y-25915D01*
X49716Y-25787D01*
X49753Y-25875D01*
X49895Y-26017D01*
X50080Y-26094D01*
X50280Y-26094D01*
X50466Y-26018D01*
X50608Y-25876D01*
X50665Y-25739D01*
X50721Y-25875D01*
X50863Y-26017D01*
X50933Y-26046D01*
X50933Y-26617D01*
X50906Y-26617D01*
X50851Y-26640D01*
X50808Y-26682D01*
X50786Y-26737D01*
X50785Y-26797D01*
X50785Y-27112D01*
X50808Y-27167D01*
X50850Y-27209D01*
X50906Y-27232D01*
X50965Y-27232D01*
X51359Y-27232D01*
X51414Y-27209D01*
X51457Y-27167D01*
X51479Y-27112D01*
X51480Y-27052D01*
X51480Y-26737D01*
X51457Y-26682D01*
X51415Y-26640D01*
X51359Y-26617D01*
X51333Y-26617D01*
X51333Y-26060D01*
X51434Y-26018D01*
X51576Y-25876D01*
X51633Y-25739D01*
X51690Y-25875D01*
X51832Y-26017D01*
X52017Y-26094D01*
X52217Y-26094D01*
X52403Y-26018D01*
X52545Y-25876D01*
X52602Y-25739D01*
X52658Y-25875D01*
X52800Y-26017D01*
X52985Y-26094D01*
X53186Y-26094D01*
X53371Y-26018D01*
X53513Y-25876D01*
X53590Y-25691D01*
X53591Y-25490D01*
X53591Y-26726D01*
X51942Y-28374D01*
X51795Y-28374D01*
X51740Y-28397D01*
X51697Y-28439D01*
X51675Y-28495D01*
X51674Y-28554D01*
X51674Y-29004D01*
X51693Y-29050D01*
X51606Y-29050D01*
X51624Y-29004D01*
X51625Y-28945D01*
X51625Y-28495D01*
X51602Y-28440D01*
X51560Y-28397D01*
X51504Y-28375D01*
X51480Y-28375D01*
X51480Y-27802D01*
X51480Y-27487D01*
X51457Y-27432D01*
X51415Y-27390D01*
X51359Y-27367D01*
X51300Y-27367D01*
X50906Y-27367D01*
X50851Y-27390D01*
X50808Y-27432D01*
X50801Y-27450D01*
X50614Y-27450D01*
X50614Y-27427D01*
X50614Y-27112D01*
X50591Y-27057D01*
X50549Y-27015D01*
X50493Y-26992D01*
X50434Y-26992D01*
X50184Y-26992D01*
X50146Y-26902D01*
X50048Y-26803D01*
X49919Y-26750D01*
X49780Y-26749D01*
X49652Y-26803D01*
X49553Y-26901D01*
X49500Y-27030D01*
X49499Y-27169D01*
X49551Y-27294D01*
X49504Y-27275D01*
X49445Y-27274D01*
X49195Y-27274D01*
X49140Y-27297D01*
X49097Y-27339D01*
X49075Y-27395D01*
X49074Y-27454D01*
X49074Y-27904D01*
X49097Y-27959D01*
X49139Y-28002D01*
X49195Y-28024D01*
X49254Y-28025D01*
X49504Y-28025D01*
X49559Y-28002D01*
X49602Y-27960D01*
X49624Y-27904D01*
X49625Y-27850D01*
X50785Y-27850D01*
X50785Y-27862D01*
X50808Y-27917D01*
X50850Y-27959D01*
X50906Y-27982D01*
X50965Y-27982D01*
X51359Y-27982D01*
X51414Y-27959D01*
X51457Y-27917D01*
X51479Y-27862D01*
X51480Y-27802D01*
X51480Y-28375D01*
X51445Y-28374D01*
X51195Y-28374D01*
X51140Y-28397D01*
X51097Y-28439D01*
X51075Y-28495D01*
X51074Y-28550D01*
X49950Y-28550D01*
X49873Y-28565D01*
X49851Y-28579D01*
X49808Y-28608D01*
X49642Y-28775D01*
X49535Y-28774D01*
X49416Y-28824D01*
X49324Y-28915D01*
X49275Y-29035D01*
X49275Y-29079D01*
X49202Y-29078D01*
X49089Y-29079D01*
X49027Y-29141D01*
X49027Y-29379D01*
X49034Y-29379D01*
X49034Y-29429D01*
X49027Y-29429D01*
X49027Y-29434D01*
X48977Y-29434D01*
X48977Y-29429D01*
X48977Y-29379D01*
X48977Y-29141D01*
X48914Y-29079D01*
X48801Y-29078D01*
X48702Y-29079D01*
X48610Y-29117D01*
X48539Y-29187D01*
X48501Y-29279D01*
X48502Y-29316D01*
X48564Y-29379D01*
X48977Y-29379D01*
X48977Y-29429D01*
X48564Y-29429D01*
X48533Y-29460D01*
X48400Y-29460D01*
X48400Y-28900D01*
X48400Y-28199D01*
X48399Y-28100D01*
X48361Y-28008D01*
X48291Y-27937D01*
X48199Y-27899D01*
X47937Y-27900D01*
X47875Y-27962D01*
X47875Y-28525D01*
X48337Y-28525D01*
X48400Y-28462D01*
X48400Y-28199D01*
X48400Y-28900D01*
X48400Y-28637D01*
X48337Y-28575D01*
X47875Y-28575D01*
X47875Y-29137D01*
X47937Y-29200D01*
X48199Y-29200D01*
X48291Y-29162D01*
X48361Y-29091D01*
X48399Y-28999D01*
X48400Y-28900D01*
X48400Y-29460D01*
X48090Y-29460D01*
X48013Y-29475D01*
X47991Y-29489D01*
X47948Y-29518D01*
X47658Y-29808D01*
X47615Y-29873D01*
X47600Y-29950D01*
X47600Y-30660D01*
X47514Y-30625D01*
X47385Y-30624D01*
X47266Y-30674D01*
X47200Y-30740D01*
X47198Y-30740D01*
X47198Y-30729D01*
X47198Y-30706D01*
X47260Y-30644D01*
X47298Y-30552D01*
X47298Y-30515D01*
X47235Y-30453D01*
X46823Y-30453D01*
X46823Y-30458D01*
X46773Y-30458D01*
X46773Y-30453D01*
X46360Y-30453D01*
X46329Y-30484D01*
X45566Y-30484D01*
X45454Y-30372D01*
X46329Y-30372D01*
X46360Y-30403D01*
X46773Y-30403D01*
X46773Y-30397D01*
X46823Y-30397D01*
X46823Y-30403D01*
X47235Y-30403D01*
X47298Y-30340D01*
X47298Y-30303D01*
X47260Y-30211D01*
X47198Y-30149D01*
X47198Y-30067D01*
X47188Y-30044D01*
X47197Y-30020D01*
X47198Y-29961D01*
X47198Y-29860D01*
X47290Y-29860D01*
X47366Y-29844D01*
X47431Y-29801D01*
X47441Y-29791D01*
X47484Y-29726D01*
X47500Y-29650D01*
X47500Y-29282D01*
X47484Y-29206D01*
X47473Y-29188D01*
X47500Y-29200D01*
X47762Y-29200D01*
X47825Y-29137D01*
X47825Y-28575D01*
X47825Y-28525D01*
X47825Y-27962D01*
X47762Y-27900D01*
X47500Y-27899D01*
X47408Y-27937D01*
X47338Y-28008D01*
X47300Y-28100D01*
X47299Y-28199D01*
X47300Y-28462D01*
X47362Y-28525D01*
X47825Y-28525D01*
X47825Y-28575D01*
X47362Y-28575D01*
X47300Y-28637D01*
X47299Y-28900D01*
X47300Y-28999D01*
X47300Y-29000D01*
X47000Y-28700D01*
X47000Y-28120D01*
X46977Y-28065D01*
X46935Y-28022D01*
X46879Y-28000D01*
X46820Y-27999D01*
X46220Y-27999D01*
X46165Y-28022D01*
X46122Y-28064D01*
X46100Y-28120D01*
X46099Y-28179D01*
X46099Y-28350D01*
X45400Y-28350D01*
X45336Y-28362D01*
X45323Y-28365D01*
X45258Y-28408D01*
X44817Y-28850D01*
X43556Y-28850D01*
X43671Y-28734D01*
X43748Y-28549D01*
X43748Y-28348D01*
X43671Y-28163D01*
X43530Y-28021D01*
X43344Y-27944D01*
X43144Y-27944D01*
X42958Y-28021D01*
X42816Y-28162D01*
X42759Y-28300D01*
X42703Y-28163D01*
X42561Y-28021D01*
X42376Y-27944D01*
X42175Y-27944D01*
X41990Y-28021D01*
X41848Y-28162D01*
X41791Y-28300D01*
X41734Y-28163D01*
X41593Y-28021D01*
X41541Y-28000D01*
X42000Y-28000D01*
X42076Y-27984D01*
X42141Y-27941D01*
X42982Y-27100D01*
X44600Y-27100D01*
X44592Y-27107D01*
X44570Y-27162D01*
X44569Y-27222D01*
X44569Y-27537D01*
X44592Y-27592D01*
X44634Y-27634D01*
X44667Y-27647D01*
X44667Y-27988D01*
X44603Y-28051D01*
X44550Y-28180D01*
X44549Y-28319D01*
X44603Y-28448D01*
X44701Y-28546D01*
X44830Y-28599D01*
X44969Y-28600D01*
X45098Y-28546D01*
X45196Y-28448D01*
X45249Y-28319D01*
X45250Y-28180D01*
X45196Y-28052D01*
X45167Y-28022D01*
X45167Y-27647D01*
X45198Y-27634D01*
X45241Y-27592D01*
X45263Y-27537D01*
X45264Y-27477D01*
X45264Y-27446D01*
X45308Y-27491D01*
X45373Y-27534D01*
X45373Y-27534D01*
X45436Y-27547D01*
X45435Y-27597D01*
X45435Y-27912D01*
X45458Y-27967D01*
X45500Y-28009D01*
X45556Y-28032D01*
X45615Y-28032D01*
X46009Y-28032D01*
X46064Y-28009D01*
X46107Y-27967D01*
X46124Y-27925D01*
X46175Y-27925D01*
X46251Y-27909D01*
X46316Y-27866D01*
X46625Y-27556D01*
X46647Y-27609D01*
X46689Y-27652D01*
X46745Y-27674D01*
X46804Y-27675D01*
X47054Y-27675D01*
X47109Y-27652D01*
X47152Y-27610D01*
X47174Y-27554D01*
X47175Y-27495D01*
X47175Y-27100D01*
X47224Y-27100D01*
X47224Y-27104D01*
X47224Y-27554D01*
X47247Y-27609D01*
X47289Y-27652D01*
X47345Y-27674D01*
X47404Y-27675D01*
X47654Y-27675D01*
X47709Y-27652D01*
X47752Y-27610D01*
X47774Y-27554D01*
X47775Y-27495D01*
X47775Y-27045D01*
X47752Y-26990D01*
X47710Y-26947D01*
X47700Y-26943D01*
X47700Y-26900D01*
X47695Y-26878D01*
X48474Y-27657D01*
X48474Y-27904D01*
X48497Y-27959D01*
X48539Y-28002D01*
X48595Y-28024D01*
X48654Y-28025D01*
X48904Y-28025D01*
X48959Y-28002D01*
X49002Y-27960D01*
X49024Y-27904D01*
X49025Y-27845D01*
X49025Y-27395D01*
X49002Y-27340D01*
X48960Y-27297D01*
X48904Y-27275D01*
X48845Y-27274D01*
X48657Y-27274D01*
X47741Y-26358D01*
X47676Y-26315D01*
X47600Y-26300D01*
X46189Y-26300D01*
X46175Y-26266D01*
X46084Y-26174D01*
X45964Y-26125D01*
X45835Y-26124D01*
X45716Y-26174D01*
X45624Y-26265D01*
X45575Y-26385D01*
X45574Y-26492D01*
X45444Y-26361D01*
X45444Y-26053D01*
X45529Y-26018D01*
X45671Y-25876D01*
X45728Y-25739D01*
X45784Y-25875D01*
X45926Y-26017D01*
X46111Y-26094D01*
X46312Y-26094D01*
X46497Y-26018D01*
X46639Y-25876D01*
X46696Y-25739D01*
X46753Y-25875D01*
X46895Y-26017D01*
X47080Y-26094D01*
X47280Y-26094D01*
X47466Y-26018D01*
X47608Y-25876D01*
X47685Y-25691D01*
X47685Y-25490D01*
X47608Y-25305D01*
X47467Y-25163D01*
X47281Y-25086D01*
X47173Y-25086D01*
X47175Y-25084D01*
X47224Y-24964D01*
X47225Y-24835D01*
X47217Y-24817D01*
X47235Y-24824D01*
X47364Y-24825D01*
X47483Y-24775D01*
X47575Y-24684D01*
X47624Y-24564D01*
X47625Y-24435D01*
X47575Y-24316D01*
X47484Y-24224D01*
X47364Y-24175D01*
X47257Y-24174D01*
X47200Y-24117D01*
X47200Y-23182D01*
X47482Y-22900D01*
X48990Y-22900D01*
X49065Y-22975D01*
X49185Y-23024D01*
X49314Y-23025D01*
X49433Y-22975D01*
X49525Y-22884D01*
X49574Y-22764D01*
X49575Y-22635D01*
X49525Y-22516D01*
X49434Y-22424D01*
X49314Y-22375D01*
X49185Y-22374D01*
X49066Y-22424D01*
X48990Y-22500D01*
X47685Y-22500D01*
X47685Y-19490D01*
X47608Y-19305D01*
X47467Y-19163D01*
X47281Y-19086D01*
X47081Y-19086D01*
X46895Y-19162D01*
X46753Y-19304D01*
X46696Y-19441D01*
X46640Y-19305D01*
X46498Y-19163D01*
X46313Y-19086D01*
X46112Y-19086D01*
X45927Y-19162D01*
X45785Y-19304D01*
X45728Y-19441D01*
X45671Y-19305D01*
X45530Y-19163D01*
X45344Y-19086D01*
X45144Y-19086D01*
X44958Y-19162D01*
X44816Y-19304D01*
X44759Y-19441D01*
X44703Y-19305D01*
X44561Y-19163D01*
X44376Y-19086D01*
X44175Y-19086D01*
X43990Y-19162D01*
X43848Y-19304D01*
X43791Y-19441D01*
X43734Y-19305D01*
X43593Y-19163D01*
X43407Y-19086D01*
X43207Y-19086D01*
X43021Y-19162D01*
X42879Y-19304D01*
X42802Y-19489D01*
X42802Y-19690D01*
X42879Y-19875D01*
X43021Y-20017D01*
X43206Y-20094D01*
X43406Y-20094D01*
X43592Y-20018D01*
X43734Y-19876D01*
X43791Y-19739D01*
X43847Y-19875D01*
X43989Y-20017D01*
X44174Y-20094D01*
X44375Y-20094D01*
X44560Y-20018D01*
X44702Y-19876D01*
X44759Y-19739D01*
X44816Y-19875D01*
X44958Y-20017D01*
X45143Y-20094D01*
X45343Y-20094D01*
X45529Y-20018D01*
X45671Y-19876D01*
X45728Y-19739D01*
X45784Y-19875D01*
X45926Y-20017D01*
X46111Y-20094D01*
X46312Y-20094D01*
X46497Y-20018D01*
X46639Y-19876D01*
X46696Y-19739D01*
X46753Y-19875D01*
X46895Y-20017D01*
X47080Y-20094D01*
X47280Y-20094D01*
X47466Y-20018D01*
X47608Y-19876D01*
X47685Y-19691D01*
X47685Y-19490D01*
X47685Y-22500D01*
X47400Y-22500D01*
X47323Y-22515D01*
X47301Y-22529D01*
X47258Y-22558D01*
X46900Y-22917D01*
X46900Y-22909D01*
X46975Y-22834D01*
X47024Y-22714D01*
X47025Y-22585D01*
X46975Y-22466D01*
X46884Y-22374D01*
X46764Y-22325D01*
X46635Y-22324D01*
X46516Y-22374D01*
X46424Y-22465D01*
X46375Y-22585D01*
X46374Y-22714D01*
X46424Y-22833D01*
X46500Y-22909D01*
X46500Y-24700D01*
X46515Y-24776D01*
X46558Y-24841D01*
X46575Y-24857D01*
X46574Y-24964D01*
X46624Y-25083D01*
X46715Y-25175D01*
X46833Y-25224D01*
X46753Y-25304D01*
X46696Y-25441D01*
X46640Y-25305D01*
X46498Y-25163D01*
X46313Y-25086D01*
X46112Y-25086D01*
X45927Y-25162D01*
X45850Y-25239D01*
X45850Y-21060D01*
X45800Y-20941D01*
X45709Y-20849D01*
X45589Y-20800D01*
X45460Y-20799D01*
X45341Y-20849D01*
X45265Y-20925D01*
X42275Y-20925D01*
X42275Y-20860D01*
X42225Y-20741D01*
X42134Y-20650D01*
X42190Y-20650D01*
X42265Y-20725D01*
X42385Y-20774D01*
X42514Y-20775D01*
X42633Y-20725D01*
X42684Y-20675D01*
X45115Y-20675D01*
X45190Y-20750D01*
X45310Y-20799D01*
X45439Y-20800D01*
X45558Y-20750D01*
X45650Y-20659D01*
X45699Y-20539D01*
X45700Y-20410D01*
X45650Y-20291D01*
X45559Y-20199D01*
X45439Y-20150D01*
X45310Y-20149D01*
X45191Y-20199D01*
X45115Y-20275D01*
X42729Y-20275D01*
X42725Y-20266D01*
X42634Y-20174D01*
X42514Y-20125D01*
X42385Y-20124D01*
X42266Y-20174D01*
X42190Y-20250D01*
X41750Y-20250D01*
X41673Y-20265D01*
X41651Y-20279D01*
X41608Y-20308D01*
X41408Y-20508D01*
X41365Y-20573D01*
X41350Y-20650D01*
X41350Y-24264D01*
X41266Y-24299D01*
X41174Y-24390D01*
X41125Y-24510D01*
X41125Y-24574D01*
X41125Y-21734D01*
X41200Y-21659D01*
X41249Y-21539D01*
X41250Y-21410D01*
X41200Y-21291D01*
X41109Y-21199D01*
X40989Y-21150D01*
X40860Y-21149D01*
X40741Y-21199D01*
X40649Y-21290D01*
X40600Y-21410D01*
X40599Y-21539D01*
X40649Y-21658D01*
X40725Y-21734D01*
X40725Y-21740D01*
X40709Y-21724D01*
X40589Y-21675D01*
X40460Y-21674D01*
X40341Y-21724D01*
X40249Y-21815D01*
X40200Y-21935D01*
X40199Y-22064D01*
X40249Y-22183D01*
X40301Y-22235D01*
X40214Y-22200D01*
X40085Y-22199D01*
X39966Y-22249D01*
X39874Y-22340D01*
X39825Y-22460D01*
X39824Y-22589D01*
X39874Y-22708D01*
X39950Y-22784D01*
X39950Y-23290D01*
X39859Y-23199D01*
X39811Y-23179D01*
X39811Y-19490D01*
X39734Y-19305D01*
X39593Y-19163D01*
X39407Y-19086D01*
X39207Y-19086D01*
X39021Y-19162D01*
X38879Y-19304D01*
X38822Y-19441D01*
X38766Y-19305D01*
X38624Y-19163D01*
X38439Y-19086D01*
X38238Y-19086D01*
X38053Y-19162D01*
X37911Y-19304D01*
X37854Y-19441D01*
X37797Y-19305D01*
X37656Y-19163D01*
X37470Y-19086D01*
X37270Y-19086D01*
X37084Y-19162D01*
X36942Y-19304D01*
X36885Y-19441D01*
X36829Y-19305D01*
X36687Y-19163D01*
X36502Y-19086D01*
X36301Y-19086D01*
X36116Y-19162D01*
X35974Y-19304D01*
X35917Y-19441D01*
X35860Y-19305D01*
X35719Y-19163D01*
X35533Y-19086D01*
X35333Y-19086D01*
X35147Y-19162D01*
X35005Y-19304D01*
X34928Y-19489D01*
X34928Y-19690D01*
X35005Y-19875D01*
X35147Y-20017D01*
X35332Y-20094D01*
X35532Y-20094D01*
X35718Y-20018D01*
X35860Y-19876D01*
X35917Y-19739D01*
X35973Y-19875D01*
X36115Y-20017D01*
X36300Y-20094D01*
X36501Y-20094D01*
X36686Y-20018D01*
X36828Y-19876D01*
X36885Y-19739D01*
X36942Y-19875D01*
X37084Y-20017D01*
X37269Y-20094D01*
X37469Y-20094D01*
X37655Y-20018D01*
X37797Y-19876D01*
X37854Y-19739D01*
X37910Y-19875D01*
X38052Y-20017D01*
X38237Y-20094D01*
X38438Y-20094D01*
X38623Y-20018D01*
X38765Y-19876D01*
X38822Y-19739D01*
X38879Y-19875D01*
X39021Y-20017D01*
X39206Y-20094D01*
X39406Y-20094D01*
X39592Y-20018D01*
X39734Y-19876D01*
X39811Y-19691D01*
X39811Y-19490D01*
X39811Y-23179D01*
X39739Y-23150D01*
X39610Y-23149D01*
X39491Y-23199D01*
X39399Y-23290D01*
X39350Y-23410D01*
X39349Y-23539D01*
X39399Y-23658D01*
X39475Y-23734D01*
X39475Y-24240D01*
X39424Y-24290D01*
X39375Y-24410D01*
X39374Y-24539D01*
X39424Y-24658D01*
X39515Y-24750D01*
X39635Y-24799D01*
X39764Y-24800D01*
X39883Y-24750D01*
X39950Y-24684D01*
X39950Y-24840D01*
X39874Y-24915D01*
X39825Y-25035D01*
X39824Y-25164D01*
X39874Y-25283D01*
X39965Y-25375D01*
X40085Y-25424D01*
X40214Y-25425D01*
X40333Y-25375D01*
X40425Y-25284D01*
X40474Y-25164D01*
X40475Y-25035D01*
X40425Y-24916D01*
X40350Y-24840D01*
X40350Y-24834D01*
X40365Y-24850D01*
X40485Y-24899D01*
X40614Y-24900D01*
X40725Y-24854D01*
X40725Y-24940D01*
X40699Y-24965D01*
X40650Y-25085D01*
X40649Y-25214D01*
X40699Y-25333D01*
X40790Y-25425D01*
X40910Y-25474D01*
X41039Y-25475D01*
X41158Y-25425D01*
X41250Y-25334D01*
X41299Y-25214D01*
X41300Y-25085D01*
X41250Y-24966D01*
X41159Y-24874D01*
X41125Y-24860D01*
X41125Y-24639D01*
X41174Y-24758D01*
X41265Y-24850D01*
X41385Y-24899D01*
X41514Y-24900D01*
X41633Y-24850D01*
X41725Y-24759D01*
X41774Y-24639D01*
X41775Y-24510D01*
X41774Y-24508D01*
X41840Y-24575D01*
X41960Y-24624D01*
X42089Y-24625D01*
X42208Y-24575D01*
X42284Y-24500D01*
X45090Y-24500D01*
X45165Y-24575D01*
X45285Y-24624D01*
X45414Y-24625D01*
X45533Y-24575D01*
X45625Y-24484D01*
X45674Y-24364D01*
X45675Y-24235D01*
X45625Y-24116D01*
X45534Y-24024D01*
X45414Y-23975D01*
X45285Y-23974D01*
X45166Y-24024D01*
X45090Y-24100D01*
X42284Y-24100D01*
X42209Y-24024D01*
X42089Y-23975D01*
X41960Y-23974D01*
X41841Y-24024D01*
X41750Y-24115D01*
X41750Y-21184D01*
X41765Y-21200D01*
X41885Y-21249D01*
X41992Y-21250D01*
X42008Y-21266D01*
X42008Y-21266D01*
X42051Y-21295D01*
X42073Y-21309D01*
X42073Y-21309D01*
X42150Y-21325D01*
X45265Y-21325D01*
X45340Y-21400D01*
X45460Y-21449D01*
X45589Y-21450D01*
X45708Y-21400D01*
X45800Y-21309D01*
X45849Y-21189D01*
X45850Y-21060D01*
X45850Y-25239D01*
X45785Y-25304D01*
X45728Y-25441D01*
X45671Y-25305D01*
X45530Y-25163D01*
X45344Y-25086D01*
X45144Y-25086D01*
X44958Y-25162D01*
X44816Y-25304D01*
X44759Y-25441D01*
X44703Y-25305D01*
X44561Y-25163D01*
X44376Y-25086D01*
X44175Y-25086D01*
X43990Y-25162D01*
X43848Y-25304D01*
X43811Y-25393D01*
X43811Y-25206D01*
X43788Y-25151D01*
X43746Y-25109D01*
X43691Y-25086D01*
X43631Y-25086D01*
X42923Y-25086D01*
X42867Y-25108D01*
X42825Y-25151D01*
X42802Y-25206D01*
X42802Y-25265D01*
X42802Y-25974D01*
X42825Y-26029D01*
X42867Y-26071D01*
X42922Y-26094D01*
X42982Y-26094D01*
X43691Y-26094D01*
X43746Y-26072D01*
X43788Y-26029D01*
X43811Y-25974D01*
X43811Y-25915D01*
X43811Y-25787D01*
X43847Y-25875D01*
X43989Y-26017D01*
X44174Y-26094D01*
X44375Y-26094D01*
X44560Y-26018D01*
X44702Y-25876D01*
X44759Y-25739D01*
X44816Y-25875D01*
X44958Y-26017D01*
X45044Y-26053D01*
X45044Y-26444D01*
X45059Y-26520D01*
X45102Y-26585D01*
X45221Y-26704D01*
X45200Y-26700D01*
X44509Y-26700D01*
X44525Y-26684D01*
X44574Y-26564D01*
X44575Y-26435D01*
X44525Y-26316D01*
X44434Y-26224D01*
X44314Y-26175D01*
X44185Y-26174D01*
X44066Y-26224D01*
X43990Y-26300D01*
X42782Y-26300D01*
X42041Y-25558D01*
X41976Y-25515D01*
X41900Y-25500D01*
X40850Y-25500D01*
X40773Y-25515D01*
X40751Y-25529D01*
X40708Y-25558D01*
X40117Y-26150D01*
X38200Y-26150D01*
X38123Y-26165D01*
X38101Y-26179D01*
X38058Y-26208D01*
X37892Y-26375D01*
X37785Y-26374D01*
X37666Y-26424D01*
X37574Y-26515D01*
X37525Y-26635D01*
X37524Y-26764D01*
X37574Y-26883D01*
X37665Y-26975D01*
X37785Y-27024D01*
X37914Y-27025D01*
X38033Y-26975D01*
X38125Y-26884D01*
X38174Y-26764D01*
X38175Y-26657D01*
X38282Y-26550D01*
X38817Y-26550D01*
X38458Y-26908D01*
X38415Y-26973D01*
X38400Y-27050D01*
X38400Y-27565D01*
X38334Y-27499D01*
X38214Y-27450D01*
X38107Y-27449D01*
X36841Y-26183D01*
X36776Y-26140D01*
X36700Y-26125D01*
X35157Y-26125D01*
X35127Y-26094D01*
X35817Y-26094D01*
X35872Y-26072D01*
X35914Y-26029D01*
X35937Y-25974D01*
X35937Y-25915D01*
X35937Y-25787D01*
X35973Y-25875D01*
X36115Y-26017D01*
X36300Y-26094D01*
X36501Y-26094D01*
X36686Y-26018D01*
X36828Y-25876D01*
X36885Y-25739D01*
X36942Y-25875D01*
X37084Y-26017D01*
X37269Y-26094D01*
X37469Y-26094D01*
X37655Y-26018D01*
X37797Y-25876D01*
X37854Y-25739D01*
X37910Y-25875D01*
X38052Y-26017D01*
X38237Y-26094D01*
X38438Y-26094D01*
X38623Y-26018D01*
X38765Y-25876D01*
X38822Y-25739D01*
X38879Y-25875D01*
X39021Y-26017D01*
X39206Y-26094D01*
X39406Y-26094D01*
X39592Y-26018D01*
X39734Y-25876D01*
X39811Y-25691D01*
X39811Y-25490D01*
X39734Y-25305D01*
X39593Y-25163D01*
X39407Y-25086D01*
X39207Y-25086D01*
X39021Y-25162D01*
X38879Y-25304D01*
X38822Y-25441D01*
X38766Y-25305D01*
X38624Y-25163D01*
X38439Y-25086D01*
X38238Y-25086D01*
X38053Y-25162D01*
X37911Y-25304D01*
X37854Y-25441D01*
X37797Y-25305D01*
X37656Y-25163D01*
X37470Y-25086D01*
X37270Y-25086D01*
X37084Y-25162D01*
X36942Y-25304D01*
X36885Y-25441D01*
X36829Y-25305D01*
X36687Y-25163D01*
X36502Y-25086D01*
X36301Y-25086D01*
X36116Y-25162D01*
X35974Y-25304D01*
X35937Y-25393D01*
X35937Y-25206D01*
X35914Y-25151D01*
X35872Y-25109D01*
X35817Y-25086D01*
X35757Y-25086D01*
X35049Y-25086D01*
X34993Y-25108D01*
X34951Y-25151D01*
X34928Y-25206D01*
X34928Y-25265D01*
X34928Y-25895D01*
X34525Y-25492D01*
X34525Y-25075D01*
X34509Y-24998D01*
X34466Y-24933D01*
X33962Y-24430D01*
X34033Y-24400D01*
X34125Y-24309D01*
X34129Y-24300D01*
X37265Y-24300D01*
X37340Y-24375D01*
X37460Y-24424D01*
X37589Y-24425D01*
X37708Y-24375D01*
X37800Y-24284D01*
X37849Y-24164D01*
X37850Y-24035D01*
X37850Y-21060D01*
X37800Y-20941D01*
X37709Y-20849D01*
X37621Y-20813D01*
X37650Y-20784D01*
X37699Y-20664D01*
X37700Y-20535D01*
X37650Y-20416D01*
X37559Y-20324D01*
X37439Y-20275D01*
X37310Y-20274D01*
X37191Y-20324D01*
X37115Y-20400D01*
X34459Y-20400D01*
X34384Y-20324D01*
X34264Y-20275D01*
X34135Y-20274D01*
X34016Y-20324D01*
X33924Y-20415D01*
X33905Y-20460D01*
X33905Y-19490D01*
X33829Y-19305D01*
X33687Y-19163D01*
X33502Y-19086D01*
X33301Y-19086D01*
X33116Y-19162D01*
X32974Y-19304D01*
X32917Y-19441D01*
X32860Y-19305D01*
X32719Y-19163D01*
X32533Y-19086D01*
X32333Y-19086D01*
X32147Y-19162D01*
X32005Y-19304D01*
X31948Y-19441D01*
X31892Y-19305D01*
X31750Y-19163D01*
X31565Y-19086D01*
X31364Y-19086D01*
X31179Y-19162D01*
X31037Y-19304D01*
X30980Y-19441D01*
X30923Y-19305D01*
X30782Y-19163D01*
X30596Y-19086D01*
X30396Y-19086D01*
X30210Y-19162D01*
X30068Y-19304D01*
X30011Y-19441D01*
X29955Y-19305D01*
X29813Y-19163D01*
X29628Y-19086D01*
X29427Y-19086D01*
X29242Y-19162D01*
X29100Y-19304D01*
X29023Y-19489D01*
X29023Y-19690D01*
X29099Y-19875D01*
X29241Y-20017D01*
X29426Y-20094D01*
X29627Y-20094D01*
X29812Y-20018D01*
X29954Y-19876D01*
X30011Y-19739D01*
X30068Y-19875D01*
X30210Y-20017D01*
X30395Y-20094D01*
X30595Y-20094D01*
X30781Y-20018D01*
X30923Y-19876D01*
X30980Y-19739D01*
X31036Y-19875D01*
X31178Y-20017D01*
X31363Y-20094D01*
X31564Y-20094D01*
X31749Y-20018D01*
X31891Y-19876D01*
X31948Y-19739D01*
X32005Y-19875D01*
X32147Y-20017D01*
X32332Y-20094D01*
X32532Y-20094D01*
X32718Y-20018D01*
X32860Y-19876D01*
X32917Y-19739D01*
X32973Y-19875D01*
X33115Y-20017D01*
X33300Y-20094D01*
X33501Y-20094D01*
X33686Y-20018D01*
X33828Y-19876D01*
X33905Y-19691D01*
X33905Y-19490D01*
X33905Y-20460D01*
X33875Y-20535D01*
X33874Y-20664D01*
X33924Y-20783D01*
X34015Y-20875D01*
X34135Y-20924D01*
X34160Y-20924D01*
X34125Y-21010D01*
X34124Y-21139D01*
X34174Y-21258D01*
X34265Y-21350D01*
X34385Y-21399D01*
X34514Y-21400D01*
X34633Y-21350D01*
X34659Y-21325D01*
X37265Y-21325D01*
X37340Y-21400D01*
X37460Y-21449D01*
X37589Y-21450D01*
X37708Y-21400D01*
X37800Y-21309D01*
X37849Y-21189D01*
X37850Y-21060D01*
X37850Y-24035D01*
X37800Y-23916D01*
X37709Y-23824D01*
X37589Y-23775D01*
X37460Y-23774D01*
X37341Y-23824D01*
X37265Y-23900D01*
X34084Y-23900D01*
X34034Y-23849D01*
X33914Y-23800D01*
X33785Y-23799D01*
X33666Y-23849D01*
X33574Y-23940D01*
X33525Y-24060D01*
X33524Y-24189D01*
X33549Y-24250D01*
X33532Y-24250D01*
X33500Y-24217D01*
X33500Y-23957D01*
X34107Y-23350D01*
X34350Y-23350D01*
X34426Y-23334D01*
X34491Y-23291D01*
X34682Y-23099D01*
X34789Y-23100D01*
X34908Y-23050D01*
X35000Y-22959D01*
X35049Y-22839D01*
X35050Y-22710D01*
X35000Y-22591D01*
X34909Y-22499D01*
X34789Y-22450D01*
X34660Y-22449D01*
X34541Y-22499D01*
X34449Y-22590D01*
X34400Y-22710D01*
X34399Y-22817D01*
X34267Y-22950D01*
X34025Y-22950D01*
X33961Y-22962D01*
X33948Y-22965D01*
X33883Y-23008D01*
X33158Y-23733D01*
X33115Y-23798D01*
X33100Y-23875D01*
X33100Y-24300D01*
X33115Y-24376D01*
X33158Y-24441D01*
X33308Y-24591D01*
X33308Y-24591D01*
X33373Y-24634D01*
X33373Y-24634D01*
X33386Y-24637D01*
X33450Y-24650D01*
X33617Y-24650D01*
X34125Y-25157D01*
X34125Y-25575D01*
X34140Y-25651D01*
X34183Y-25716D01*
X34933Y-26466D01*
X34933Y-26466D01*
X34976Y-26495D01*
X34998Y-26509D01*
X34998Y-26509D01*
X35074Y-26524D01*
X35075Y-26525D01*
X36617Y-26525D01*
X36754Y-26662D01*
X36664Y-26625D01*
X36535Y-26624D01*
X36416Y-26674D01*
X36365Y-26725D01*
X35974Y-26725D01*
X35957Y-26682D01*
X35915Y-26640D01*
X35859Y-26617D01*
X35800Y-26617D01*
X35406Y-26617D01*
X35351Y-26640D01*
X35308Y-26682D01*
X35286Y-26737D01*
X35285Y-26797D01*
X35285Y-27112D01*
X35286Y-27112D01*
X35286Y-27112D01*
X35273Y-27115D01*
X35208Y-27158D01*
X35114Y-27253D01*
X35114Y-27112D01*
X35091Y-27057D01*
X35049Y-27015D01*
X34993Y-26992D01*
X34978Y-26992D01*
X34943Y-26940D01*
X34943Y-26940D01*
X34700Y-26696D01*
X34700Y-26630D01*
X34646Y-26502D01*
X34548Y-26403D01*
X34419Y-26350D01*
X34280Y-26349D01*
X34152Y-26403D01*
X34053Y-26501D01*
X34000Y-26630D01*
X33999Y-26769D01*
X34053Y-26898D01*
X34151Y-26996D01*
X34280Y-27049D01*
X34346Y-27049D01*
X34346Y-27050D01*
X31780Y-27050D01*
X31780Y-26737D01*
X31757Y-26682D01*
X31715Y-26640D01*
X31659Y-26617D01*
X31633Y-26617D01*
X31633Y-26066D01*
X31749Y-26018D01*
X31891Y-25876D01*
X31948Y-25739D01*
X32005Y-25875D01*
X32147Y-26017D01*
X32332Y-26094D01*
X32532Y-26094D01*
X32718Y-26018D01*
X32860Y-25876D01*
X32917Y-25739D01*
X32973Y-25875D01*
X33115Y-26017D01*
X33300Y-26094D01*
X33501Y-26094D01*
X33686Y-26018D01*
X33828Y-25876D01*
X33905Y-25691D01*
X33905Y-25490D01*
X33829Y-25305D01*
X33687Y-25163D01*
X33502Y-25086D01*
X33301Y-25086D01*
X33116Y-25162D01*
X32974Y-25304D01*
X32917Y-25441D01*
X32860Y-25305D01*
X32719Y-25163D01*
X32533Y-25086D01*
X32333Y-25086D01*
X32147Y-25162D01*
X32005Y-25304D01*
X31948Y-25441D01*
X31892Y-25305D01*
X31750Y-25163D01*
X31565Y-25086D01*
X31364Y-25086D01*
X31179Y-25162D01*
X31037Y-25304D01*
X30980Y-25441D01*
X30923Y-25305D01*
X30782Y-25163D01*
X30596Y-25086D01*
X30396Y-25086D01*
X30210Y-25162D01*
X30068Y-25304D01*
X30031Y-25393D01*
X30031Y-25206D01*
X30009Y-25151D01*
X29966Y-25109D01*
X29911Y-25086D01*
X29852Y-25086D01*
X29143Y-25086D01*
X29088Y-25108D01*
X29046Y-25151D01*
X29023Y-25206D01*
X29023Y-25265D01*
X29023Y-25974D01*
X29045Y-26029D01*
X29088Y-26071D01*
X29143Y-26094D01*
X29202Y-26094D01*
X29911Y-26094D01*
X29966Y-26072D01*
X30008Y-26029D01*
X30031Y-25974D01*
X30031Y-25915D01*
X30031Y-25787D01*
X30068Y-25875D01*
X30210Y-26017D01*
X30395Y-26094D01*
X30595Y-26094D01*
X30781Y-26018D01*
X30923Y-25876D01*
X30980Y-25739D01*
X31036Y-25875D01*
X31178Y-26017D01*
X31233Y-26040D01*
X31233Y-26617D01*
X31206Y-26617D01*
X31151Y-26640D01*
X31108Y-26682D01*
X31086Y-26737D01*
X31085Y-26797D01*
X31085Y-27050D01*
X30883Y-27050D01*
X30849Y-27015D01*
X30817Y-27002D01*
X30817Y-26917D01*
X30797Y-26821D01*
X30750Y-26749D01*
X30750Y-26680D01*
X30696Y-26552D01*
X30598Y-26453D01*
X30469Y-26400D01*
X30330Y-26399D01*
X30202Y-26453D01*
X30103Y-26551D01*
X30050Y-26680D01*
X30049Y-26819D01*
X30103Y-26948D01*
X30201Y-27046D01*
X30240Y-27062D01*
X30220Y-27112D01*
X30219Y-27172D01*
X30219Y-27450D01*
X30182Y-27450D01*
X30041Y-27308D01*
X29976Y-27265D01*
X29900Y-27250D01*
X29400Y-27250D01*
X29323Y-27265D01*
X29301Y-27279D01*
X29258Y-27308D01*
X28867Y-27699D01*
X28270Y-27699D01*
X28215Y-27722D01*
X28172Y-27764D01*
X28150Y-27820D01*
X28149Y-27879D01*
X28149Y-28367D01*
X28075Y-28442D01*
X28075Y-28435D01*
X28025Y-28316D01*
X27934Y-28224D01*
X27814Y-28175D01*
X27685Y-28174D01*
X27566Y-28224D01*
X27490Y-28300D01*
X27225Y-28300D01*
X27225Y-19649D01*
X27225Y-18950D01*
X27187Y-18858D01*
X27116Y-18788D01*
X27024Y-18750D01*
X26925Y-18749D01*
X26762Y-18750D01*
X26700Y-18812D01*
X26700Y-19275D01*
X27162Y-19275D01*
X27225Y-19212D01*
X27225Y-18950D01*
X27225Y-19649D01*
X27225Y-19387D01*
X27162Y-19325D01*
X26700Y-19325D01*
X26700Y-19787D01*
X26762Y-19850D01*
X26925Y-19850D01*
X27024Y-19849D01*
X27116Y-19811D01*
X27187Y-19741D01*
X27225Y-19649D01*
X27225Y-28300D01*
X27125Y-28300D01*
X27125Y-24210D01*
X27125Y-23210D01*
X27125Y-22210D01*
X27125Y-21210D01*
X27125Y-20210D01*
X27056Y-20045D01*
X26930Y-19918D01*
X26764Y-19850D01*
X26587Y-19849D01*
X26650Y-19787D01*
X26650Y-19325D01*
X26650Y-19275D01*
X26650Y-18812D01*
X26587Y-18750D01*
X26424Y-18749D01*
X26325Y-18750D01*
X26233Y-18788D01*
X26162Y-18858D01*
X26124Y-18950D01*
X26125Y-19212D01*
X26187Y-19275D01*
X26650Y-19275D01*
X26650Y-19325D01*
X26187Y-19325D01*
X26125Y-19387D01*
X26124Y-19649D01*
X26162Y-19741D01*
X26233Y-19811D01*
X26325Y-19849D01*
X26424Y-19850D01*
X26585Y-19850D01*
X26420Y-19918D01*
X26293Y-20044D01*
X26225Y-20210D01*
X26224Y-20389D01*
X26293Y-20554D01*
X26419Y-20681D01*
X26585Y-20749D01*
X26764Y-20750D01*
X26929Y-20681D01*
X27056Y-20555D01*
X27124Y-20389D01*
X27125Y-20210D01*
X27125Y-21210D01*
X27056Y-21045D01*
X26930Y-20918D01*
X26764Y-20850D01*
X26585Y-20849D01*
X26420Y-20918D01*
X26293Y-21044D01*
X26225Y-21210D01*
X26224Y-21389D01*
X26293Y-21554D01*
X26419Y-21681D01*
X26585Y-21749D01*
X26764Y-21750D01*
X26929Y-21681D01*
X27056Y-21555D01*
X27124Y-21389D01*
X27125Y-21210D01*
X27125Y-22210D01*
X27056Y-22045D01*
X26930Y-21918D01*
X26764Y-21850D01*
X26585Y-21849D01*
X26420Y-21918D01*
X26293Y-22044D01*
X26225Y-22210D01*
X26224Y-22389D01*
X26293Y-22554D01*
X26419Y-22681D01*
X26585Y-22749D01*
X26764Y-22750D01*
X26929Y-22681D01*
X27056Y-22555D01*
X27124Y-22389D01*
X27125Y-22210D01*
X27125Y-23210D01*
X27056Y-23045D01*
X26930Y-22918D01*
X26764Y-22850D01*
X26585Y-22849D01*
X26420Y-22918D01*
X26293Y-23044D01*
X26225Y-23210D01*
X26224Y-23389D01*
X26293Y-23554D01*
X26419Y-23681D01*
X26585Y-23749D01*
X26764Y-23750D01*
X26929Y-23681D01*
X27056Y-23555D01*
X27124Y-23389D01*
X27125Y-23210D01*
X27125Y-24210D01*
X27056Y-24045D01*
X26930Y-23918D01*
X26764Y-23850D01*
X26585Y-23849D01*
X26420Y-23918D01*
X26293Y-24044D01*
X26225Y-24210D01*
X26224Y-24389D01*
X26293Y-24554D01*
X26419Y-24681D01*
X26585Y-24749D01*
X26764Y-24750D01*
X26929Y-24681D01*
X27056Y-24555D01*
X27124Y-24389D01*
X27125Y-24210D01*
X27125Y-28300D01*
X26850Y-28300D01*
X26773Y-28315D01*
X26751Y-28329D01*
X26708Y-28358D01*
X26642Y-28425D01*
X26535Y-28424D01*
X26416Y-28474D01*
X26324Y-28565D01*
X26275Y-28685D01*
X26274Y-28814D01*
X26324Y-28933D01*
X26415Y-29025D01*
X26535Y-29074D01*
X26664Y-29075D01*
X26783Y-29025D01*
X26875Y-28934D01*
X26924Y-28814D01*
X26925Y-28707D01*
X26932Y-28700D01*
X27490Y-28700D01*
X27532Y-28742D01*
X27508Y-28758D01*
X26858Y-29408D01*
X26815Y-29473D01*
X26800Y-29550D01*
X26800Y-30700D01*
X26815Y-30776D01*
X26858Y-30841D01*
X27308Y-31291D01*
X27373Y-31334D01*
X27373Y-31334D01*
X27450Y-31350D01*
X28021Y-31350D01*
X28008Y-31358D01*
X27508Y-31858D01*
X27465Y-31923D01*
X27450Y-32000D01*
X27450Y-33217D01*
X26808Y-33858D01*
X26765Y-33923D01*
X26750Y-34000D01*
X26750Y-34650D01*
X26765Y-34726D01*
X26808Y-34791D01*
X27108Y-35091D01*
X27108Y-35091D01*
X27151Y-35120D01*
X27173Y-35134D01*
X27173Y-35134D01*
X27249Y-35149D01*
X27250Y-35150D01*
X32165Y-35150D01*
X32074Y-35240D01*
X32025Y-35360D01*
X32024Y-35489D01*
X32074Y-35608D01*
X32165Y-35700D01*
X32182Y-35707D01*
X32174Y-35715D01*
X32125Y-35835D01*
X32124Y-35964D01*
X32174Y-36083D01*
X32265Y-36175D01*
X32385Y-36224D01*
X32514Y-36225D01*
X32633Y-36175D01*
X32634Y-36175D01*
X35440Y-36175D01*
X35515Y-36250D01*
X35635Y-36299D01*
X35764Y-36300D01*
X35883Y-36250D01*
X35975Y-36159D01*
X36024Y-36039D01*
X36025Y-35910D01*
X35975Y-35791D01*
X35884Y-35699D01*
X35831Y-35677D01*
X35900Y-35609D01*
X35949Y-35489D01*
X35950Y-35360D01*
X35900Y-35241D01*
X35809Y-35150D01*
X36267Y-35150D01*
X37550Y-36432D01*
X37550Y-38600D01*
X37565Y-38676D01*
X37608Y-38741D01*
X38208Y-39341D01*
X38208Y-39341D01*
X38251Y-39370D01*
X38273Y-39384D01*
X38273Y-39384D01*
X38350Y-39400D01*
X43100Y-39400D01*
X43176Y-39384D01*
X43241Y-39341D01*
X43644Y-38937D01*
X43674Y-39008D01*
X43765Y-39100D01*
X43885Y-39149D01*
X44014Y-39150D01*
X44133Y-39100D01*
X44225Y-39009D01*
X44229Y-39000D01*
X47190Y-39000D01*
X47265Y-39075D01*
X47385Y-39124D01*
X47514Y-39125D01*
X47633Y-39075D01*
X47725Y-38984D01*
X47774Y-38864D01*
X47775Y-38735D01*
X47725Y-38616D01*
X47634Y-38524D01*
X47514Y-38475D01*
X47385Y-38474D01*
X47266Y-38524D01*
X47190Y-38600D01*
X44184Y-38600D01*
X44134Y-38549D01*
X44014Y-38500D01*
X43885Y-38499D01*
X43766Y-38549D01*
X43750Y-38565D01*
X43750Y-38282D01*
X45032Y-37000D01*
X48150Y-37000D01*
X48226Y-36984D01*
X48291Y-36941D01*
X49800Y-35432D01*
X49799Y-35514D01*
X49849Y-35633D01*
X49940Y-35725D01*
X49982Y-35742D01*
X49966Y-35749D01*
X49874Y-35840D01*
X49825Y-35960D01*
X49824Y-36089D01*
X49874Y-36208D01*
X49965Y-36300D01*
X50085Y-36349D01*
X50214Y-36350D01*
X50333Y-36300D01*
X50384Y-36250D01*
X52890Y-36250D01*
X52965Y-36325D01*
X53085Y-36374D01*
X53214Y-36375D01*
X53333Y-36325D01*
X53425Y-36234D01*
X53474Y-36114D01*
X53475Y-35985D01*
X53425Y-35866D01*
X53371Y-35811D01*
X53458Y-35775D01*
X53550Y-35684D01*
X53599Y-35564D01*
X53600Y-35435D01*
X53550Y-35316D01*
X53459Y-35224D01*
X53339Y-35175D01*
X53210Y-35174D01*
X53091Y-35224D01*
X53015Y-35300D01*
X50414Y-35300D01*
X50400Y-35266D01*
X50309Y-35174D01*
X50189Y-35125D01*
X50107Y-35124D01*
X50141Y-35091D01*
X50141Y-35091D01*
X50170Y-35048D01*
X50184Y-35026D01*
X50184Y-35026D01*
X50199Y-34950D01*
X50200Y-34950D01*
X50200Y-34050D01*
X50184Y-33973D01*
X50184Y-33973D01*
X50170Y-33951D01*
X50141Y-33908D01*
X50141Y-33908D01*
X49582Y-33350D01*
X51500Y-33350D01*
X51576Y-33334D01*
X51641Y-33291D01*
X52407Y-32525D01*
X52654Y-32525D01*
X52709Y-32502D01*
X52752Y-32460D01*
X52774Y-32404D01*
X52775Y-32345D01*
X52775Y-31900D01*
X52825Y-31900D01*
X52824Y-31954D01*
X52824Y-32404D01*
X52847Y-32459D01*
X52889Y-32502D01*
X52945Y-32524D01*
X53004Y-32525D01*
X53254Y-32525D01*
X53309Y-32502D01*
X53352Y-32460D01*
X53374Y-32404D01*
X53375Y-32350D01*
X53469Y-32350D01*
X53469Y-32562D01*
X53492Y-32617D01*
X53534Y-32659D01*
X53590Y-32682D01*
X53649Y-32682D01*
X54043Y-32682D01*
X54098Y-32659D01*
X54141Y-32617D01*
X54163Y-32562D01*
X54164Y-32502D01*
X54164Y-32187D01*
X54141Y-32132D01*
X54099Y-32090D01*
X54043Y-32067D01*
X53984Y-32067D01*
X53792Y-32067D01*
X53733Y-32008D01*
X53668Y-31965D01*
X53592Y-31950D01*
X53375Y-31950D01*
X53375Y-31900D01*
X54040Y-31900D01*
X54065Y-31925D01*
X54185Y-31974D01*
X54314Y-31975D01*
X54433Y-31925D01*
X54525Y-31834D01*
X54574Y-31714D01*
X54575Y-31585D01*
X54529Y-31475D01*
X54564Y-31475D01*
X54683Y-31425D01*
X54775Y-31334D01*
X54824Y-31214D01*
X54825Y-31085D01*
X54775Y-30966D01*
X54684Y-30874D01*
X54564Y-30825D01*
X54435Y-30824D01*
X54316Y-30874D01*
X54224Y-30965D01*
X54210Y-31000D01*
X54125Y-31000D01*
X54183Y-30975D01*
X54275Y-30884D01*
X54324Y-30764D01*
X54325Y-30635D01*
X54275Y-30516D01*
X54209Y-30450D01*
X55450Y-30450D01*
X55526Y-30434D01*
X55591Y-30391D01*
X56841Y-29141D01*
X56880Y-29083D01*
X56880Y-41430D01*
M02*
