G04 (created by PCBNEW (2013-07-07 BZR 4022)-stable) date 1/31/2015 10:55:12 PM*
%MOIN*%
G04 Gerber Fmt 3.4, Leading zero omitted, Abs format*
%FSLAX34Y34*%
G01*
G70*
G90*
G04 APERTURE LIST*
%ADD10C,0.00590551*%
%ADD11R,0.0315X0.0394*%
%ADD12R,0.0708661X0.0708661*%
%ADD13C,0.0708661*%
%ADD14R,0.08X0.06*%
%ADD15R,0.055X0.035*%
%ADD16R,0.06X0.06*%
%ADD17C,0.06*%
%ADD18R,0.0236X0.0394*%
G04 APERTURE END LIST*
G54D10*
G54D11*
X41450Y-32183D03*
X41825Y-31317D03*
X41075Y-31317D03*
G54D12*
X33464Y-40354D03*
G54D13*
X34433Y-40354D03*
X35401Y-40354D03*
X36370Y-40354D03*
X37338Y-40354D03*
X37338Y-34354D03*
X36370Y-34354D03*
X35401Y-34354D03*
X34433Y-34354D03*
X33464Y-34354D03*
G54D12*
X45275Y-40354D03*
G54D13*
X46244Y-40354D03*
X47212Y-40354D03*
X48181Y-40354D03*
X49149Y-40354D03*
X49149Y-34354D03*
X48181Y-34354D03*
X47212Y-34354D03*
X46244Y-34354D03*
X45275Y-34354D03*
G54D12*
X27559Y-40354D03*
G54D13*
X28527Y-40354D03*
X29496Y-40354D03*
X30464Y-40354D03*
X31433Y-40354D03*
X31433Y-34354D03*
X30464Y-34354D03*
X29496Y-34354D03*
X28527Y-34354D03*
X27559Y-34354D03*
G54D12*
X51181Y-40354D03*
G54D13*
X52149Y-40354D03*
X53118Y-40354D03*
X54086Y-40354D03*
X55055Y-40354D03*
X55055Y-34354D03*
X54086Y-34354D03*
X53118Y-34354D03*
X52149Y-34354D03*
X51181Y-34354D03*
G54D12*
X49212Y-25590D03*
G54D13*
X50181Y-25590D03*
X51149Y-25590D03*
X52118Y-25590D03*
X53086Y-25590D03*
X53086Y-19590D03*
X52118Y-19590D03*
X51149Y-19590D03*
X50181Y-19590D03*
X49212Y-19590D03*
G54D12*
X39370Y-34448D03*
G54D13*
X40338Y-34448D03*
X41307Y-34448D03*
X42275Y-34448D03*
X43244Y-34448D03*
X43244Y-28448D03*
X42275Y-28448D03*
X41307Y-28448D03*
X40338Y-28448D03*
X39370Y-28448D03*
G54D12*
X43307Y-25590D03*
G54D13*
X44275Y-25590D03*
X45244Y-25590D03*
X46212Y-25590D03*
X47181Y-25590D03*
X47181Y-19590D03*
X46212Y-19590D03*
X45244Y-19590D03*
X44275Y-19590D03*
X43307Y-19590D03*
G54D12*
X29527Y-25590D03*
G54D13*
X30496Y-25590D03*
X31464Y-25590D03*
X32433Y-25590D03*
X33401Y-25590D03*
X33401Y-19590D03*
X32433Y-19590D03*
X31464Y-19590D03*
X30496Y-19590D03*
X29527Y-19590D03*
G54D12*
X35433Y-25590D03*
G54D13*
X36401Y-25590D03*
X37370Y-25590D03*
X38338Y-25590D03*
X39307Y-25590D03*
X39307Y-19590D03*
X38338Y-19590D03*
X37370Y-19590D03*
X36401Y-19590D03*
X35433Y-19590D03*
G54D14*
X28150Y-20450D03*
X28150Y-19150D03*
G54D15*
X32400Y-21175D03*
X32400Y-20425D03*
X46250Y-38725D03*
X46250Y-39475D03*
X45250Y-38725D03*
X45250Y-39475D03*
X46250Y-36125D03*
X46250Y-35375D03*
X45300Y-36125D03*
X45300Y-35375D03*
X54100Y-35975D03*
X54100Y-35225D03*
X55100Y-35975D03*
X55100Y-35225D03*
X54100Y-38725D03*
X54100Y-39475D03*
X48200Y-38725D03*
X48200Y-39475D03*
X52100Y-38725D03*
X52100Y-39475D03*
X51200Y-38725D03*
X51200Y-39475D03*
X52200Y-35975D03*
X52200Y-35225D03*
X51200Y-35975D03*
X51200Y-35225D03*
X52100Y-21275D03*
X52100Y-20525D03*
X53100Y-21275D03*
X53100Y-20525D03*
X52100Y-24025D03*
X52100Y-24775D03*
X50200Y-24025D03*
X50200Y-24775D03*
X49200Y-24025D03*
X49200Y-24775D03*
X50200Y-21275D03*
X50200Y-20525D03*
X49200Y-21275D03*
X49200Y-20525D03*
X35400Y-24025D03*
X35400Y-24775D03*
X42300Y-29975D03*
X42300Y-29225D03*
X43300Y-21175D03*
X43300Y-20425D03*
X44300Y-21175D03*
X44300Y-20425D03*
X43300Y-24025D03*
X43300Y-24775D03*
X44200Y-24025D03*
X44200Y-24775D03*
X46200Y-24025D03*
X46200Y-24775D03*
X47300Y-21175D03*
X47300Y-20425D03*
X46300Y-21175D03*
X46300Y-20425D03*
X35400Y-21175D03*
X35400Y-20425D03*
X36400Y-21175D03*
X36400Y-20425D03*
X49150Y-36075D03*
X49150Y-35325D03*
X36400Y-24025D03*
X36400Y-24775D03*
X38300Y-24025D03*
X38300Y-24775D03*
X39400Y-21175D03*
X39400Y-20425D03*
X38400Y-21175D03*
X38400Y-20425D03*
X29500Y-21175D03*
X29500Y-20425D03*
X30500Y-21175D03*
X30500Y-20425D03*
X29500Y-24025D03*
X29500Y-24775D03*
X30500Y-24025D03*
X30500Y-24775D03*
X32400Y-24025D03*
X32400Y-24775D03*
X33400Y-21175D03*
X33400Y-20425D03*
X43300Y-29975D03*
X43300Y-29225D03*
X48200Y-36075D03*
X48200Y-35325D03*
X33450Y-35975D03*
X33450Y-35225D03*
X34450Y-35975D03*
X34450Y-35225D03*
X33450Y-38775D03*
X33450Y-39525D03*
X34450Y-38775D03*
X34450Y-39525D03*
X36350Y-38775D03*
X36350Y-39525D03*
X37350Y-35975D03*
X37350Y-35225D03*
X36350Y-35975D03*
X36350Y-35225D03*
X27500Y-35975D03*
X27500Y-35225D03*
X28500Y-35975D03*
X28500Y-35225D03*
X28500Y-38725D03*
X28500Y-39475D03*
X30400Y-38775D03*
X30400Y-39525D03*
X31450Y-36025D03*
X31450Y-35275D03*
X30450Y-36025D03*
X30450Y-35275D03*
X39300Y-29975D03*
X39300Y-29225D03*
X27550Y-38725D03*
X27550Y-39475D03*
X40300Y-29975D03*
X40300Y-29225D03*
X39300Y-32925D03*
X39300Y-33675D03*
X40300Y-32925D03*
X40300Y-33675D03*
X42300Y-32925D03*
X42300Y-33675D03*
G54D16*
X26675Y-19300D03*
G54D17*
X26675Y-20300D03*
X26675Y-21300D03*
X26675Y-22300D03*
X26675Y-23300D03*
X26675Y-24300D03*
G54D18*
X29225Y-27266D03*
X28850Y-26434D03*
X28475Y-27266D03*
M02*
