G04 (created by PCBNEW (2013-07-07 BZR 4022)-stable) date 10/2/2014 12:43:44 AM*
%MOIN*%
G04 Gerber Fmt 3.4, Leading zero omitted, Abs format*
%FSLAX34Y34*%
G01*
G70*
G90*
G04 APERTURE LIST*
%ADD10C,0.00590551*%
%ADD11C,0.011811*%
%ADD12C,0.005*%
%ADD13C,0.0047*%
%ADD14C,0.0059*%
G04 APERTURE END LIST*
G54D10*
G54D11*
X78539Y-25268D02*
X77948Y-25268D01*
X78539Y-25606D02*
X78201Y-25353D01*
X77948Y-25606D02*
X78285Y-25268D01*
X78539Y-26196D02*
X78257Y-25999D01*
X78539Y-25859D02*
X77948Y-25859D01*
X77948Y-26084D01*
X77976Y-26140D01*
X78004Y-26168D01*
X78060Y-26196D01*
X78145Y-26196D01*
X78201Y-26168D01*
X78229Y-26140D01*
X78257Y-26084D01*
X78257Y-25859D01*
X78370Y-26421D02*
X78370Y-26702D01*
X78539Y-26365D02*
X77948Y-26562D01*
X78539Y-26759D01*
X77948Y-26871D02*
X77948Y-27209D01*
X78539Y-27040D02*
X77948Y-27040D01*
X77948Y-27349D02*
X77948Y-27743D01*
X78539Y-27349D01*
X78539Y-27743D01*
X78539Y-28418D02*
X77948Y-28418D01*
X78539Y-28699D02*
X77948Y-28699D01*
X78539Y-29036D01*
X77948Y-29036D01*
X78539Y-29318D02*
X77948Y-29318D01*
X77948Y-29458D01*
X77976Y-29543D01*
X78032Y-29599D01*
X78089Y-29627D01*
X78201Y-29655D01*
X78285Y-29655D01*
X78398Y-29627D01*
X78454Y-29599D01*
X78510Y-29543D01*
X78539Y-29458D01*
X78539Y-29318D01*
X77948Y-29908D02*
X78426Y-29908D01*
X78482Y-29936D01*
X78510Y-29964D01*
X78539Y-30021D01*
X78539Y-30133D01*
X78510Y-30189D01*
X78482Y-30218D01*
X78426Y-30246D01*
X77948Y-30246D01*
X78510Y-30499D02*
X78539Y-30583D01*
X78539Y-30724D01*
X78510Y-30780D01*
X78482Y-30808D01*
X78426Y-30836D01*
X78370Y-30836D01*
X78314Y-30808D01*
X78285Y-30780D01*
X78257Y-30724D01*
X78229Y-30611D01*
X78201Y-30555D01*
X78173Y-30527D01*
X78117Y-30499D01*
X78060Y-30499D01*
X78004Y-30527D01*
X77976Y-30555D01*
X77948Y-30611D01*
X77948Y-30752D01*
X77976Y-30836D01*
X77948Y-31005D02*
X77948Y-31342D01*
X78539Y-31174D02*
X77948Y-31174D01*
X78539Y-31877D02*
X78257Y-31680D01*
X78539Y-31539D02*
X77948Y-31539D01*
X77948Y-31764D01*
X77976Y-31820D01*
X78004Y-31849D01*
X78060Y-31877D01*
X78145Y-31877D01*
X78201Y-31849D01*
X78229Y-31820D01*
X78257Y-31764D01*
X78257Y-31539D01*
X78539Y-32130D02*
X77948Y-32130D01*
X78229Y-32411D02*
X78229Y-32608D01*
X78539Y-32692D02*
X78539Y-32411D01*
X77948Y-32411D01*
X77948Y-32692D01*
X78510Y-32917D02*
X78539Y-33002D01*
X78539Y-33142D01*
X78510Y-33198D01*
X78482Y-33227D01*
X78426Y-33255D01*
X78370Y-33255D01*
X78314Y-33227D01*
X78285Y-33198D01*
X78257Y-33142D01*
X78229Y-33030D01*
X78201Y-32973D01*
X78173Y-32945D01*
X78117Y-32917D01*
X78060Y-32917D01*
X78004Y-32945D01*
X77976Y-32973D01*
X77948Y-33030D01*
X77948Y-33170D01*
X77976Y-33255D01*
X78314Y-33958D02*
X78314Y-34408D01*
X78539Y-35139D02*
X77948Y-35139D01*
X78510Y-35392D02*
X78539Y-35476D01*
X78539Y-35617D01*
X78510Y-35673D01*
X78482Y-35701D01*
X78426Y-35729D01*
X78370Y-35729D01*
X78314Y-35701D01*
X78285Y-35673D01*
X78257Y-35617D01*
X78229Y-35504D01*
X78201Y-35448D01*
X78173Y-35420D01*
X78117Y-35392D01*
X78060Y-35392D01*
X78004Y-35420D01*
X77976Y-35448D01*
X77948Y-35504D01*
X77948Y-35645D01*
X77976Y-35729D01*
X77948Y-36095D02*
X77948Y-36207D01*
X77976Y-36264D01*
X78032Y-36320D01*
X78145Y-36348D01*
X78342Y-36348D01*
X78454Y-36320D01*
X78510Y-36264D01*
X78539Y-36207D01*
X78539Y-36095D01*
X78510Y-36039D01*
X78454Y-35982D01*
X78342Y-35954D01*
X78145Y-35954D01*
X78032Y-35982D01*
X77976Y-36039D01*
X77948Y-36095D01*
X78539Y-36882D02*
X78539Y-36601D01*
X77948Y-36601D01*
X78370Y-37051D02*
X78370Y-37332D01*
X78539Y-36995D02*
X77948Y-37192D01*
X78539Y-37389D01*
X77948Y-37501D02*
X77948Y-37838D01*
X78539Y-37670D02*
X77948Y-37670D01*
X78229Y-38035D02*
X78229Y-38232D01*
X78539Y-38317D02*
X78539Y-38035D01*
X77948Y-38035D01*
X77948Y-38317D01*
X78539Y-38570D02*
X77948Y-38570D01*
X77948Y-38710D01*
X77976Y-38795D01*
X78032Y-38851D01*
X78089Y-38879D01*
X78201Y-38907D01*
X78285Y-38907D01*
X78398Y-38879D01*
X78454Y-38851D01*
X78510Y-38795D01*
X78539Y-38710D01*
X78539Y-38570D01*
X78539Y-39610D02*
X77948Y-39610D01*
X77948Y-39835D01*
X77976Y-39891D01*
X78004Y-39919D01*
X78060Y-39948D01*
X78145Y-39948D01*
X78201Y-39919D01*
X78229Y-39891D01*
X78257Y-39835D01*
X78257Y-39610D01*
X77948Y-40313D02*
X77948Y-40426D01*
X77976Y-40482D01*
X78032Y-40538D01*
X78145Y-40566D01*
X78342Y-40566D01*
X78454Y-40538D01*
X78510Y-40482D01*
X78539Y-40426D01*
X78539Y-40313D01*
X78510Y-40257D01*
X78454Y-40201D01*
X78342Y-40173D01*
X78145Y-40173D01*
X78032Y-40201D01*
X77976Y-40257D01*
X77948Y-40313D01*
X77948Y-40763D02*
X78539Y-40904D01*
X78117Y-41016D01*
X78539Y-41129D01*
X77948Y-41269D01*
X78229Y-41494D02*
X78229Y-41691D01*
X78539Y-41775D02*
X78539Y-41494D01*
X77948Y-41494D01*
X77948Y-41775D01*
X78539Y-42366D02*
X78257Y-42169D01*
X78539Y-42029D02*
X77948Y-42029D01*
X77948Y-42254D01*
X77976Y-42310D01*
X78004Y-42338D01*
X78060Y-42366D01*
X78145Y-42366D01*
X78201Y-42338D01*
X78229Y-42310D01*
X78257Y-42254D01*
X78257Y-42029D01*
X78539Y-43069D02*
X77948Y-43069D01*
X77948Y-43210D01*
X77976Y-43294D01*
X78032Y-43350D01*
X78089Y-43378D01*
X78201Y-43407D01*
X78285Y-43407D01*
X78398Y-43378D01*
X78454Y-43350D01*
X78510Y-43294D01*
X78539Y-43210D01*
X78539Y-43069D01*
X78539Y-43997D02*
X78257Y-43800D01*
X78539Y-43660D02*
X77948Y-43660D01*
X77948Y-43885D01*
X77976Y-43941D01*
X78004Y-43969D01*
X78060Y-43997D01*
X78145Y-43997D01*
X78201Y-43969D01*
X78229Y-43941D01*
X78257Y-43885D01*
X78257Y-43660D01*
X78539Y-44250D02*
X77948Y-44250D01*
X77948Y-44447D02*
X78539Y-44644D01*
X77948Y-44841D01*
X78229Y-45038D02*
X78229Y-45234D01*
X78539Y-45319D02*
X78539Y-45038D01*
X77948Y-45038D01*
X77948Y-45319D01*
X78539Y-45909D02*
X78257Y-45712D01*
X78539Y-45572D02*
X77948Y-45572D01*
X77948Y-45797D01*
X77976Y-45853D01*
X78004Y-45881D01*
X78060Y-45909D01*
X78145Y-45909D01*
X78201Y-45881D01*
X78229Y-45853D01*
X78257Y-45797D01*
X78257Y-45572D01*
X78370Y-46584D02*
X78370Y-46865D01*
X78539Y-46528D02*
X77948Y-46725D01*
X78539Y-46922D01*
X78539Y-47456D02*
X78257Y-47259D01*
X78539Y-47119D02*
X77948Y-47119D01*
X77948Y-47344D01*
X77976Y-47400D01*
X78004Y-47428D01*
X78060Y-47456D01*
X78145Y-47456D01*
X78201Y-47428D01*
X78229Y-47400D01*
X78257Y-47344D01*
X78257Y-47119D01*
X78539Y-48047D02*
X78257Y-47850D01*
X78539Y-47709D02*
X77948Y-47709D01*
X77948Y-47934D01*
X77976Y-47990D01*
X78004Y-48018D01*
X78060Y-48047D01*
X78145Y-48047D01*
X78201Y-48018D01*
X78229Y-47990D01*
X78257Y-47934D01*
X78257Y-47709D01*
X78370Y-48272D02*
X78370Y-48553D01*
X78539Y-48215D02*
X77948Y-48412D01*
X78539Y-48609D01*
X78257Y-48918D02*
X78539Y-48918D01*
X77948Y-48721D02*
X78257Y-48918D01*
X77948Y-49115D01*
G54D12*
X76311Y-60350D02*
G75*
G03X76311Y-60350I-111J0D01*
G74*
G01*
X74700Y-62100D02*
X74700Y-60100D01*
X74700Y-60100D02*
X76500Y-60100D01*
X76500Y-60100D02*
X76500Y-62100D01*
X76500Y-62100D02*
X74700Y-62100D01*
X76411Y-79450D02*
G75*
G03X76411Y-79450I-111J0D01*
G74*
G01*
X74800Y-81200D02*
X74800Y-79200D01*
X74800Y-79200D02*
X76600Y-79200D01*
X76600Y-79200D02*
X76600Y-81200D01*
X76600Y-81200D02*
X74800Y-81200D01*
X76311Y-21850D02*
G75*
G03X76311Y-21850I-111J0D01*
G74*
G01*
X74700Y-23600D02*
X74700Y-21600D01*
X74700Y-21600D02*
X76500Y-21600D01*
X76500Y-21600D02*
X76500Y-23600D01*
X76500Y-23600D02*
X74700Y-23600D01*
X76311Y-41075D02*
G75*
G03X76311Y-41075I-111J0D01*
G74*
G01*
X74700Y-42825D02*
X74700Y-40825D01*
X74700Y-40825D02*
X76500Y-40825D01*
X76500Y-40825D02*
X76500Y-42825D01*
X76500Y-42825D02*
X74700Y-42825D01*
G54D13*
X75671Y-60807D02*
X75895Y-60807D01*
X75921Y-60819D01*
X75934Y-60830D01*
X75947Y-60852D01*
X75947Y-60897D01*
X75934Y-60920D01*
X75921Y-60931D01*
X75895Y-60942D01*
X75671Y-60942D01*
X75947Y-61178D02*
X75947Y-61043D01*
X75947Y-61111D02*
X75671Y-61111D01*
X75711Y-61088D01*
X75737Y-61066D01*
X75750Y-61043D01*
X75671Y-61392D02*
X75671Y-61279D01*
X75803Y-61268D01*
X75790Y-61279D01*
X75776Y-61302D01*
X75776Y-61358D01*
X75790Y-61380D01*
X75803Y-61392D01*
X75829Y-61403D01*
X75895Y-61403D01*
X75921Y-61392D01*
X75934Y-61380D01*
X75947Y-61358D01*
X75947Y-61302D01*
X75934Y-61279D01*
X75921Y-61268D01*
G54D14*
X74971Y-59871D02*
X74971Y-60133D01*
X75365Y-59964D01*
X75102Y-60452D02*
X75365Y-60452D01*
X74952Y-60358D02*
X75234Y-60265D01*
X75234Y-60509D01*
X75365Y-60846D02*
X75365Y-60659D01*
X74971Y-60659D01*
X75346Y-60959D02*
X75365Y-61015D01*
X75365Y-61109D01*
X75346Y-61146D01*
X75327Y-61165D01*
X75290Y-61184D01*
X75252Y-61184D01*
X75215Y-61165D01*
X75196Y-61146D01*
X75177Y-61109D01*
X75159Y-61034D01*
X75140Y-60996D01*
X75121Y-60978D01*
X75084Y-60959D01*
X75046Y-60959D01*
X75009Y-60978D01*
X74990Y-60996D01*
X74971Y-61034D01*
X74971Y-61128D01*
X74990Y-61184D01*
X74971Y-61540D02*
X74971Y-61353D01*
X75159Y-61334D01*
X75140Y-61353D01*
X75121Y-61390D01*
X75121Y-61484D01*
X75140Y-61522D01*
X75159Y-61540D01*
X75196Y-61559D01*
X75290Y-61559D01*
X75327Y-61540D01*
X75346Y-61522D01*
X75365Y-61484D01*
X75365Y-61390D01*
X75346Y-61353D01*
X75327Y-61334D01*
X75365Y-61747D02*
X75365Y-61822D01*
X75346Y-61859D01*
X75327Y-61878D01*
X75271Y-61916D01*
X75196Y-61934D01*
X75046Y-61934D01*
X75009Y-61916D01*
X74990Y-61897D01*
X74971Y-61859D01*
X74971Y-61784D01*
X74990Y-61747D01*
X75009Y-61728D01*
X75046Y-61709D01*
X75140Y-61709D01*
X75177Y-61728D01*
X75196Y-61747D01*
X75215Y-61784D01*
X75215Y-61859D01*
X75196Y-61897D01*
X75177Y-61916D01*
X75140Y-61934D01*
X74971Y-62291D02*
X74971Y-62103D01*
X75159Y-62085D01*
X75140Y-62103D01*
X75121Y-62141D01*
X75121Y-62235D01*
X75140Y-62272D01*
X75159Y-62291D01*
X75196Y-62310D01*
X75290Y-62310D01*
X75327Y-62291D01*
X75346Y-62272D01*
X75365Y-62235D01*
X75365Y-62141D01*
X75346Y-62103D01*
X75327Y-62085D01*
G54D13*
X75771Y-79907D02*
X75995Y-79907D01*
X76021Y-79919D01*
X76034Y-79930D01*
X76047Y-79952D01*
X76047Y-79997D01*
X76034Y-80020D01*
X76021Y-80031D01*
X75995Y-80042D01*
X75771Y-80042D01*
X76047Y-80278D02*
X76047Y-80143D01*
X76047Y-80211D02*
X75771Y-80211D01*
X75811Y-80188D01*
X75837Y-80166D01*
X75850Y-80143D01*
X75771Y-80480D02*
X75771Y-80436D01*
X75784Y-80413D01*
X75798Y-80402D01*
X75837Y-80379D01*
X75890Y-80368D01*
X75995Y-80368D01*
X76021Y-80379D01*
X76034Y-80391D01*
X76047Y-80413D01*
X76047Y-80458D01*
X76034Y-80480D01*
X76021Y-80492D01*
X75995Y-80503D01*
X75929Y-80503D01*
X75903Y-80492D01*
X75890Y-80480D01*
X75876Y-80458D01*
X75876Y-80413D01*
X75890Y-80391D01*
X75903Y-80379D01*
X75929Y-80368D01*
G54D14*
X75071Y-78971D02*
X75071Y-79233D01*
X75465Y-79064D01*
X75202Y-79552D02*
X75465Y-79552D01*
X75052Y-79458D02*
X75334Y-79365D01*
X75334Y-79609D01*
X75465Y-79946D02*
X75465Y-79759D01*
X75071Y-79759D01*
X75446Y-80059D02*
X75465Y-80115D01*
X75465Y-80209D01*
X75446Y-80246D01*
X75427Y-80265D01*
X75390Y-80284D01*
X75352Y-80284D01*
X75315Y-80265D01*
X75296Y-80246D01*
X75277Y-80209D01*
X75259Y-80134D01*
X75240Y-80096D01*
X75221Y-80078D01*
X75184Y-80059D01*
X75146Y-80059D01*
X75109Y-80078D01*
X75090Y-80096D01*
X75071Y-80134D01*
X75071Y-80228D01*
X75090Y-80284D01*
X75071Y-80640D02*
X75071Y-80453D01*
X75259Y-80434D01*
X75240Y-80453D01*
X75221Y-80490D01*
X75221Y-80584D01*
X75240Y-80622D01*
X75259Y-80640D01*
X75296Y-80659D01*
X75390Y-80659D01*
X75427Y-80640D01*
X75446Y-80622D01*
X75465Y-80584D01*
X75465Y-80490D01*
X75446Y-80453D01*
X75427Y-80434D01*
X75465Y-80847D02*
X75465Y-80922D01*
X75446Y-80959D01*
X75427Y-80978D01*
X75371Y-81016D01*
X75296Y-81034D01*
X75146Y-81034D01*
X75109Y-81016D01*
X75090Y-80997D01*
X75071Y-80959D01*
X75071Y-80884D01*
X75090Y-80847D01*
X75109Y-80828D01*
X75146Y-80809D01*
X75240Y-80809D01*
X75277Y-80828D01*
X75296Y-80847D01*
X75315Y-80884D01*
X75315Y-80959D01*
X75296Y-80997D01*
X75277Y-81016D01*
X75240Y-81034D01*
X75071Y-81391D02*
X75071Y-81203D01*
X75259Y-81185D01*
X75240Y-81203D01*
X75221Y-81241D01*
X75221Y-81335D01*
X75240Y-81372D01*
X75259Y-81391D01*
X75296Y-81410D01*
X75390Y-81410D01*
X75427Y-81391D01*
X75446Y-81372D01*
X75465Y-81335D01*
X75465Y-81241D01*
X75446Y-81203D01*
X75427Y-81185D01*
G54D13*
X75671Y-22420D02*
X75895Y-22420D01*
X75921Y-22431D01*
X75934Y-22442D01*
X75947Y-22465D01*
X75947Y-22510D01*
X75934Y-22532D01*
X75921Y-22543D01*
X75895Y-22555D01*
X75671Y-22555D01*
X75947Y-22678D02*
X75947Y-22723D01*
X75934Y-22746D01*
X75921Y-22757D01*
X75882Y-22779D01*
X75829Y-22791D01*
X75724Y-22791D01*
X75698Y-22779D01*
X75684Y-22768D01*
X75671Y-22746D01*
X75671Y-22701D01*
X75684Y-22678D01*
X75698Y-22667D01*
X75724Y-22656D01*
X75790Y-22656D01*
X75816Y-22667D01*
X75829Y-22678D01*
X75842Y-22701D01*
X75842Y-22746D01*
X75829Y-22768D01*
X75816Y-22779D01*
X75790Y-22791D01*
G54D14*
X74971Y-21371D02*
X74971Y-21633D01*
X75365Y-21464D01*
X75102Y-21952D02*
X75365Y-21952D01*
X74952Y-21858D02*
X75234Y-21765D01*
X75234Y-22009D01*
X75365Y-22346D02*
X75365Y-22159D01*
X74971Y-22159D01*
X75346Y-22459D02*
X75365Y-22515D01*
X75365Y-22609D01*
X75346Y-22646D01*
X75327Y-22665D01*
X75290Y-22684D01*
X75252Y-22684D01*
X75215Y-22665D01*
X75196Y-22646D01*
X75177Y-22609D01*
X75159Y-22534D01*
X75140Y-22496D01*
X75121Y-22478D01*
X75084Y-22459D01*
X75046Y-22459D01*
X75009Y-22478D01*
X74990Y-22496D01*
X74971Y-22534D01*
X74971Y-22628D01*
X74990Y-22684D01*
X74971Y-23040D02*
X74971Y-22853D01*
X75159Y-22834D01*
X75140Y-22853D01*
X75121Y-22890D01*
X75121Y-22984D01*
X75140Y-23022D01*
X75159Y-23040D01*
X75196Y-23059D01*
X75290Y-23059D01*
X75327Y-23040D01*
X75346Y-23022D01*
X75365Y-22984D01*
X75365Y-22890D01*
X75346Y-22853D01*
X75327Y-22834D01*
X75365Y-23247D02*
X75365Y-23322D01*
X75346Y-23359D01*
X75327Y-23378D01*
X75271Y-23416D01*
X75196Y-23434D01*
X75046Y-23434D01*
X75009Y-23416D01*
X74990Y-23397D01*
X74971Y-23359D01*
X74971Y-23284D01*
X74990Y-23247D01*
X75009Y-23228D01*
X75046Y-23209D01*
X75140Y-23209D01*
X75177Y-23228D01*
X75196Y-23247D01*
X75215Y-23284D01*
X75215Y-23359D01*
X75196Y-23397D01*
X75177Y-23416D01*
X75140Y-23434D01*
X74971Y-23791D02*
X74971Y-23603D01*
X75159Y-23585D01*
X75140Y-23603D01*
X75121Y-23641D01*
X75121Y-23735D01*
X75140Y-23772D01*
X75159Y-23791D01*
X75196Y-23810D01*
X75290Y-23810D01*
X75327Y-23791D01*
X75346Y-23772D01*
X75365Y-23735D01*
X75365Y-23641D01*
X75346Y-23603D01*
X75327Y-23585D01*
G54D13*
X75671Y-41532D02*
X75895Y-41532D01*
X75921Y-41544D01*
X75934Y-41555D01*
X75947Y-41577D01*
X75947Y-41622D01*
X75934Y-41645D01*
X75921Y-41656D01*
X75895Y-41667D01*
X75671Y-41667D01*
X75947Y-41903D02*
X75947Y-41768D01*
X75947Y-41836D02*
X75671Y-41836D01*
X75711Y-41813D01*
X75737Y-41791D01*
X75750Y-41768D01*
X75671Y-42049D02*
X75671Y-42072D01*
X75684Y-42094D01*
X75698Y-42105D01*
X75724Y-42117D01*
X75776Y-42128D01*
X75842Y-42128D01*
X75895Y-42117D01*
X75921Y-42105D01*
X75934Y-42094D01*
X75947Y-42072D01*
X75947Y-42049D01*
X75934Y-42027D01*
X75921Y-42016D01*
X75895Y-42004D01*
X75842Y-41993D01*
X75776Y-41993D01*
X75724Y-42004D01*
X75698Y-42016D01*
X75684Y-42027D01*
X75671Y-42049D01*
G54D14*
X74971Y-40596D02*
X74971Y-40858D01*
X75365Y-40689D01*
X75102Y-41177D02*
X75365Y-41177D01*
X74952Y-41083D02*
X75234Y-40990D01*
X75234Y-41234D01*
X75365Y-41571D02*
X75365Y-41384D01*
X74971Y-41384D01*
X75346Y-41684D02*
X75365Y-41740D01*
X75365Y-41834D01*
X75346Y-41871D01*
X75327Y-41890D01*
X75290Y-41909D01*
X75252Y-41909D01*
X75215Y-41890D01*
X75196Y-41871D01*
X75177Y-41834D01*
X75159Y-41759D01*
X75140Y-41721D01*
X75121Y-41703D01*
X75084Y-41684D01*
X75046Y-41684D01*
X75009Y-41703D01*
X74990Y-41721D01*
X74971Y-41759D01*
X74971Y-41853D01*
X74990Y-41909D01*
X74971Y-42265D02*
X74971Y-42078D01*
X75159Y-42059D01*
X75140Y-42078D01*
X75121Y-42115D01*
X75121Y-42209D01*
X75140Y-42247D01*
X75159Y-42265D01*
X75196Y-42284D01*
X75290Y-42284D01*
X75327Y-42265D01*
X75346Y-42247D01*
X75365Y-42209D01*
X75365Y-42115D01*
X75346Y-42078D01*
X75327Y-42059D01*
X75365Y-42472D02*
X75365Y-42547D01*
X75346Y-42584D01*
X75327Y-42603D01*
X75271Y-42641D01*
X75196Y-42659D01*
X75046Y-42659D01*
X75009Y-42641D01*
X74990Y-42622D01*
X74971Y-42584D01*
X74971Y-42509D01*
X74990Y-42472D01*
X75009Y-42453D01*
X75046Y-42434D01*
X75140Y-42434D01*
X75177Y-42453D01*
X75196Y-42472D01*
X75215Y-42509D01*
X75215Y-42584D01*
X75196Y-42622D01*
X75177Y-42641D01*
X75140Y-42659D01*
X74971Y-43016D02*
X74971Y-42828D01*
X75159Y-42810D01*
X75140Y-42828D01*
X75121Y-42866D01*
X75121Y-42960D01*
X75140Y-42997D01*
X75159Y-43016D01*
X75196Y-43035D01*
X75290Y-43035D01*
X75327Y-43016D01*
X75346Y-42997D01*
X75365Y-42960D01*
X75365Y-42866D01*
X75346Y-42828D01*
X75327Y-42810D01*
M02*
