G04 (created by PCBNEW (2013-07-07 BZR 4022)-stable) date 10/2/2014 12:43:44 AM*
%MOIN*%
G04 Gerber Fmt 3.4, Leading zero omitted, Abs format*
%FSLAX34Y34*%
G01*
G70*
G90*
G04 APERTURE LIST*
%ADD10C,0.00590551*%
%ADD11R,0.0579X0.0165*%
%ADD12R,0.0708661X0.0708661*%
%ADD13R,0.1X0.1*%
%ADD14C,0.1*%
G04 APERTURE END LIST*
G54D10*
G54D11*
X76702Y-60972D03*
X76702Y-61228D03*
X76702Y-61484D03*
X76702Y-61740D03*
X74500Y-60208D03*
X76702Y-60204D03*
X76702Y-60460D03*
X76702Y-60716D03*
X74498Y-61996D03*
X74498Y-61740D03*
X74498Y-61484D03*
X74498Y-61228D03*
X74498Y-60972D03*
X74498Y-60716D03*
X76702Y-61996D03*
X74500Y-60460D03*
X76802Y-80072D03*
X76802Y-80328D03*
X76802Y-80584D03*
X76802Y-80840D03*
X74600Y-79308D03*
X76802Y-79304D03*
X76802Y-79560D03*
X76802Y-79816D03*
X74598Y-81096D03*
X74598Y-80840D03*
X74598Y-80584D03*
X74598Y-80328D03*
X74598Y-80072D03*
X74598Y-79816D03*
X76802Y-81096D03*
X74600Y-79560D03*
X76702Y-22472D03*
X76702Y-22728D03*
X76702Y-22984D03*
X76702Y-23240D03*
X74500Y-21708D03*
X76702Y-21704D03*
X76702Y-21960D03*
X76702Y-22216D03*
X74498Y-23496D03*
X74498Y-23240D03*
X74498Y-22984D03*
X74498Y-22728D03*
X74498Y-22472D03*
X74498Y-22216D03*
X76702Y-23496D03*
X74500Y-21960D03*
X76702Y-41697D03*
X76702Y-41953D03*
X76702Y-42209D03*
X76702Y-42465D03*
X74500Y-40933D03*
X76702Y-40929D03*
X76702Y-41185D03*
X76702Y-41441D03*
X74498Y-42721D03*
X74498Y-42465D03*
X74498Y-42209D03*
X74498Y-41953D03*
X74498Y-41697D03*
X74498Y-41441D03*
X76702Y-42721D03*
X74500Y-41185D03*
G54D12*
X85300Y-20500D03*
X85300Y-19500D03*
X85300Y-21500D03*
X85300Y-22500D03*
X85300Y-18500D03*
X85300Y-17500D03*
X85300Y-15500D03*
X85300Y-16500D03*
X85300Y-79000D03*
X85300Y-78000D03*
X85300Y-80000D03*
X85300Y-81000D03*
X85300Y-77000D03*
X85300Y-76000D03*
X85300Y-74000D03*
X85300Y-75000D03*
X85300Y-59300D03*
X85300Y-58300D03*
X85300Y-60300D03*
X85300Y-61300D03*
X85300Y-57300D03*
X85300Y-56300D03*
X85300Y-54300D03*
X85300Y-55300D03*
X85300Y-39300D03*
X85300Y-38300D03*
X85300Y-40300D03*
X85300Y-41300D03*
X85300Y-37300D03*
X85300Y-36300D03*
X85300Y-34300D03*
X85300Y-35300D03*
X74550Y-11400D03*
X75550Y-11400D03*
X77550Y-11400D03*
X76550Y-11400D03*
G54D13*
X82750Y-11500D03*
X84224Y-11500D03*
G54D12*
X74050Y-89600D03*
X75050Y-89600D03*
X74550Y-12900D03*
X75550Y-12900D03*
G54D14*
X85000Y-89200D03*
X85200Y-13200D03*
X74200Y-14400D03*
X74150Y-87950D03*
X81250Y-51350D03*
M02*
