G04 (created by PCBNEW (2013-07-07 BZR 4022)-stable) date 10/2/2014 12:43:44 AM*
%MOIN*%
G04 Gerber Fmt 3.4, Leading zero omitted, Abs format*
%FSLAX34Y34*%
G01*
G70*
G90*
G04 APERTURE LIST*
%ADD10C,0.00590551*%
%ADD11R,0.0579X0.0165*%
%ADD12R,0.0708661X0.0708661*%
%ADD13R,0.1X0.1*%
%ADD14C,0.035*%
%ADD15C,0.055*%
%ADD16C,0.03*%
%ADD17C,0.015*%
%ADD18C,0.09*%
%ADD19C,0.01*%
%ADD20C,0.008*%
G04 APERTURE END LIST*
G54D10*
G54D11*
X76702Y-60972D03*
X76702Y-61228D03*
X76702Y-61484D03*
X76702Y-61740D03*
X74500Y-60208D03*
X76702Y-60204D03*
X76702Y-60460D03*
X76702Y-60716D03*
X74498Y-61996D03*
X74498Y-61740D03*
X74498Y-61484D03*
X74498Y-61228D03*
X74498Y-60972D03*
X74498Y-60716D03*
X76702Y-61996D03*
X74500Y-60460D03*
X76802Y-80072D03*
X76802Y-80328D03*
X76802Y-80584D03*
X76802Y-80840D03*
X74600Y-79308D03*
X76802Y-79304D03*
X76802Y-79560D03*
X76802Y-79816D03*
X74598Y-81096D03*
X74598Y-80840D03*
X74598Y-80584D03*
X74598Y-80328D03*
X74598Y-80072D03*
X74598Y-79816D03*
X76802Y-81096D03*
X74600Y-79560D03*
X76702Y-22472D03*
X76702Y-22728D03*
X76702Y-22984D03*
X76702Y-23240D03*
X74500Y-21708D03*
X76702Y-21704D03*
X76702Y-21960D03*
X76702Y-22216D03*
X74498Y-23496D03*
X74498Y-23240D03*
X74498Y-22984D03*
X74498Y-22728D03*
X74498Y-22472D03*
X74498Y-22216D03*
X76702Y-23496D03*
X74500Y-21960D03*
X76702Y-41697D03*
X76702Y-41953D03*
X76702Y-42209D03*
X76702Y-42465D03*
X74500Y-40933D03*
X76702Y-40929D03*
X76702Y-41185D03*
X76702Y-41441D03*
X74498Y-42721D03*
X74498Y-42465D03*
X74498Y-42209D03*
X74498Y-41953D03*
X74498Y-41697D03*
X74498Y-41441D03*
X76702Y-42721D03*
X74500Y-41185D03*
G54D12*
X85300Y-20500D03*
X85300Y-19500D03*
X85300Y-21500D03*
X85300Y-22500D03*
X85300Y-18500D03*
X85300Y-17500D03*
X85300Y-15500D03*
X85300Y-16500D03*
X85300Y-79000D03*
X85300Y-78000D03*
X85300Y-80000D03*
X85300Y-81000D03*
X85300Y-77000D03*
X85300Y-76000D03*
X85300Y-74000D03*
X85300Y-75000D03*
X85300Y-59300D03*
X85300Y-58300D03*
X85300Y-60300D03*
X85300Y-61300D03*
X85300Y-57300D03*
X85300Y-56300D03*
X85300Y-54300D03*
X85300Y-55300D03*
X85300Y-39300D03*
X85300Y-38300D03*
X85300Y-40300D03*
X85300Y-41300D03*
X85300Y-37300D03*
X85300Y-36300D03*
X85300Y-34300D03*
X85300Y-35300D03*
X74550Y-11400D03*
X75550Y-11400D03*
X77550Y-11400D03*
X76550Y-11400D03*
G54D13*
X82750Y-11500D03*
X84224Y-11500D03*
G54D12*
X74050Y-89600D03*
X75050Y-89600D03*
X74550Y-12900D03*
X75550Y-12900D03*
G54D14*
X81750Y-13450D03*
G54D15*
X83100Y-87800D03*
X83000Y-85900D03*
X83050Y-83800D03*
X83000Y-81600D03*
X83000Y-78050D03*
X83100Y-76050D03*
X83100Y-74050D03*
X83100Y-71800D03*
X83100Y-68500D03*
X83050Y-66500D03*
X83000Y-64550D03*
X82950Y-62300D03*
X83050Y-58850D03*
X83050Y-56900D03*
X83100Y-54950D03*
X83100Y-52700D03*
G54D14*
X82550Y-49000D03*
X82550Y-47000D03*
X82550Y-45000D03*
X82500Y-43000D03*
X82450Y-39300D03*
X82450Y-37300D03*
X82400Y-35300D03*
X82400Y-33300D03*
X82450Y-30000D03*
X82450Y-28000D03*
X82450Y-26000D03*
X82300Y-24000D03*
X82400Y-20400D03*
X82500Y-18400D03*
X82750Y-16400D03*
X75000Y-40400D03*
X75800Y-41550D03*
X76600Y-12575D03*
X74000Y-88900D03*
X75700Y-69750D03*
X74850Y-71100D03*
X75350Y-82950D03*
X73750Y-80750D03*
X75700Y-86700D03*
X73950Y-86900D03*
X75700Y-55300D03*
X74750Y-55300D03*
X75800Y-53200D03*
X75500Y-57350D03*
X73900Y-20150D03*
X73890Y-16310D03*
X73830Y-12980D03*
X74800Y-30800D03*
X75600Y-30800D03*
X75650Y-29200D03*
X75450Y-27350D03*
X75400Y-13650D03*
X75550Y-50750D03*
X75550Y-50050D03*
X76300Y-89350D03*
X75550Y-84950D03*
X75450Y-80000D03*
X75700Y-76450D03*
X74750Y-76650D03*
X75750Y-74450D03*
X75750Y-72400D03*
X75500Y-67650D03*
X75350Y-65650D03*
X75350Y-63550D03*
X75300Y-61000D03*
X74700Y-38350D03*
X75200Y-41800D03*
G54D15*
X80900Y-59900D03*
X80850Y-57900D03*
X80850Y-55800D03*
X80950Y-53800D03*
X80850Y-88750D03*
X80800Y-86800D03*
X80800Y-84700D03*
X80800Y-82750D03*
X80900Y-79050D03*
X80750Y-76950D03*
X80900Y-75000D03*
X80850Y-72950D03*
X80850Y-69500D03*
X80800Y-67450D03*
X80900Y-65450D03*
X80950Y-63450D03*
X80900Y-50150D03*
X80800Y-48150D03*
X80850Y-46100D03*
X80900Y-44200D03*
X80800Y-40500D03*
X80800Y-38400D03*
X80750Y-36450D03*
X80850Y-34400D03*
X80850Y-31250D03*
X80750Y-29100D03*
X80850Y-27150D03*
X80850Y-25150D03*
X80850Y-21700D03*
X80800Y-19550D03*
X80900Y-17550D03*
X80950Y-15600D03*
X81450Y-12650D03*
X85400Y-11500D03*
G54D14*
X77000Y-13700D03*
X74450Y-58000D03*
X75925Y-13775D03*
X75250Y-51800D03*
X75800Y-73050D03*
X75550Y-67000D03*
X75800Y-69000D03*
X74800Y-72650D03*
X75750Y-75150D03*
X75700Y-77100D03*
X75300Y-63050D03*
X75400Y-64950D03*
X75550Y-87200D03*
X75400Y-82300D03*
X75550Y-84300D03*
X75350Y-86300D03*
X74500Y-74750D03*
X74450Y-62650D03*
X74800Y-53400D03*
X75800Y-53800D03*
X75700Y-56000D03*
X75400Y-58000D03*
X75000Y-15600D03*
X75725Y-19700D03*
X75650Y-17150D03*
X75675Y-17625D03*
X74875Y-24625D03*
X75200Y-25100D03*
X74900Y-27150D03*
X74900Y-29050D03*
X75400Y-34225D03*
X75800Y-34625D03*
X75800Y-36425D03*
X75800Y-46350D03*
X75775Y-38600D03*
X75350Y-43725D03*
X75575Y-44375D03*
X75800Y-48400D03*
X75750Y-39925D03*
X74475Y-26850D03*
X74200Y-21150D03*
X74450Y-78850D03*
X74500Y-63400D03*
X74400Y-82200D03*
X74500Y-59700D03*
X74800Y-43900D03*
X74500Y-40100D03*
X74700Y-25075D03*
G54D16*
X81800Y-13400D02*
X82750Y-13400D01*
X81750Y-13450D02*
X81800Y-13400D01*
X83100Y-87800D02*
X83200Y-87700D01*
X83200Y-87700D02*
X84350Y-87700D01*
X84350Y-87700D02*
X84350Y-85900D01*
X83000Y-85900D02*
X84350Y-85900D01*
X83050Y-83800D02*
X84350Y-83800D01*
X83000Y-81600D02*
X84350Y-81600D01*
X83000Y-78050D02*
X84350Y-78050D01*
X83100Y-76050D02*
X84350Y-76050D01*
X83100Y-74050D02*
X84350Y-74050D01*
X83100Y-71800D02*
X84350Y-71800D01*
X83100Y-68500D02*
X84350Y-68500D01*
X83050Y-66500D02*
X84350Y-66500D01*
X83000Y-64550D02*
X84350Y-64550D01*
X83000Y-62350D02*
X84350Y-62350D01*
X82950Y-62300D02*
X83000Y-62350D01*
X83050Y-58850D02*
X84350Y-58850D01*
X83050Y-56900D02*
X84350Y-56900D01*
X83100Y-54950D02*
X84350Y-54950D01*
X83100Y-52700D02*
X84350Y-52700D01*
X82550Y-49000D02*
X84350Y-49000D01*
X82550Y-47000D02*
X84350Y-47000D01*
X82550Y-45000D02*
X84350Y-45000D01*
X82500Y-43000D02*
X84350Y-43000D01*
X82450Y-39300D02*
X84350Y-39300D01*
X82450Y-37300D02*
X84350Y-37300D01*
X82400Y-35300D02*
X84350Y-35300D01*
X82400Y-33300D02*
X84350Y-33300D01*
X82450Y-30000D02*
X84350Y-30000D01*
X82450Y-28000D02*
X84350Y-28000D01*
X82450Y-26000D02*
X84350Y-26000D01*
X82300Y-24000D02*
X84350Y-24000D01*
X82400Y-20400D02*
X84350Y-20400D01*
G54D17*
X84350Y-20400D02*
X84400Y-20400D01*
X84400Y-20400D02*
X84350Y-20400D01*
G54D16*
X82500Y-18400D02*
X84350Y-18400D01*
X84350Y-18400D02*
X84350Y-18350D01*
X82750Y-16400D02*
X83150Y-16000D01*
X83150Y-16000D02*
X84350Y-16000D01*
G54D18*
X82750Y-11500D02*
X82750Y-13400D01*
X82750Y-13400D02*
X82750Y-13500D01*
X82750Y-13500D02*
X84350Y-15100D01*
X84350Y-15100D02*
X84350Y-16000D01*
X84350Y-16000D02*
X84350Y-18350D01*
X84350Y-18350D02*
X84350Y-20400D01*
X84350Y-20400D02*
X84350Y-24000D01*
X84350Y-24000D02*
X84350Y-26000D01*
X84350Y-26000D02*
X84350Y-28000D01*
X84350Y-28000D02*
X84350Y-30000D01*
X84350Y-30000D02*
X84350Y-33300D01*
X84350Y-33300D02*
X84350Y-35300D01*
X84350Y-35300D02*
X84350Y-37300D01*
X84350Y-37300D02*
X84350Y-39300D01*
X84350Y-39300D02*
X84350Y-43000D01*
X84350Y-43000D02*
X84350Y-45000D01*
X84350Y-45000D02*
X84350Y-47000D01*
X84350Y-47000D02*
X84350Y-49000D01*
X84350Y-49000D02*
X84350Y-52700D01*
X84350Y-52700D02*
X84350Y-54950D01*
X84350Y-54950D02*
X84350Y-56900D01*
X84350Y-56900D02*
X84350Y-58850D01*
X84350Y-58850D02*
X84350Y-62350D01*
X84350Y-62350D02*
X84350Y-64550D01*
X84350Y-64550D02*
X84350Y-66500D01*
X84350Y-66500D02*
X84350Y-68500D01*
X84350Y-68500D02*
X84350Y-71800D01*
X84350Y-71800D02*
X84350Y-74050D01*
X84350Y-74050D02*
X84350Y-76050D01*
X84350Y-76050D02*
X84350Y-78050D01*
X84350Y-78050D02*
X84350Y-81600D01*
X84350Y-81600D02*
X84350Y-83800D01*
X84350Y-83800D02*
X84350Y-85900D01*
G54D19*
X75100Y-42200D02*
X75342Y-42200D01*
X75800Y-41742D02*
X75800Y-41550D01*
X75342Y-42200D02*
X75800Y-41742D01*
X75366Y-80584D02*
X75533Y-80584D01*
X76100Y-79800D02*
X75800Y-79500D01*
X76100Y-80017D02*
X76100Y-79800D01*
X75533Y-80584D02*
X76100Y-80017D01*
X75450Y-60350D02*
X75950Y-60850D01*
X75383Y-61484D02*
X75116Y-61484D01*
X75950Y-60917D02*
X75383Y-61484D01*
X75950Y-60850D02*
X75950Y-60917D01*
X74050Y-70200D02*
X74550Y-70200D01*
X74166Y-61484D02*
X74050Y-61600D01*
X74050Y-61600D02*
X74050Y-70200D01*
X75800Y-77800D02*
X75800Y-79500D01*
X75250Y-77250D02*
X75800Y-77800D01*
X74498Y-61484D02*
X74166Y-61484D01*
X74550Y-70200D02*
X75250Y-70900D01*
X75250Y-70900D02*
X75250Y-77250D01*
X74050Y-50850D02*
X74050Y-51150D01*
X74850Y-57600D02*
X74850Y-58000D01*
X75150Y-57300D02*
X74850Y-57600D01*
X75150Y-52250D02*
X75150Y-57300D01*
X74050Y-51150D02*
X75150Y-52250D01*
X75000Y-40400D02*
X75000Y-40149D01*
X74116Y-22984D02*
X74050Y-23100D01*
X74050Y-23100D02*
X74050Y-37000D01*
X74050Y-37000D02*
X75000Y-38000D01*
X74116Y-22984D02*
X74498Y-22984D01*
X75199Y-38199D02*
X75000Y-38000D01*
X75199Y-39950D02*
X75199Y-38199D01*
X75000Y-40149D02*
X75199Y-39950D01*
X75100Y-42200D02*
X75091Y-42209D01*
X74498Y-42209D02*
X75091Y-42209D01*
X75366Y-80584D02*
X74598Y-80584D01*
X74050Y-42300D02*
X74050Y-50850D01*
X74141Y-42209D02*
X74050Y-42300D01*
X74498Y-42209D02*
X74141Y-42209D01*
X75116Y-61484D02*
X74498Y-61484D01*
X75450Y-58600D02*
X75450Y-60350D01*
X74850Y-58000D02*
X75450Y-58600D01*
X75066Y-22984D02*
X75625Y-22425D01*
X75625Y-22425D02*
X75625Y-21075D01*
X75625Y-21075D02*
X75225Y-20675D01*
X75225Y-20675D02*
X75225Y-16825D01*
X75225Y-16825D02*
X76578Y-15528D01*
X74498Y-22984D02*
X75066Y-22984D01*
X76600Y-12575D02*
X76578Y-12596D01*
X76578Y-12596D02*
X76578Y-15528D01*
X76300Y-53700D02*
X75800Y-53200D01*
X76400Y-53700D02*
X76300Y-53700D01*
X75000Y-30800D02*
X74800Y-30800D01*
X75600Y-30800D02*
X75000Y-30800D01*
X75550Y-50050D02*
X75550Y-50750D01*
X74598Y-80072D02*
X75378Y-80072D01*
X75378Y-80072D02*
X75450Y-80000D01*
X75750Y-72400D02*
X75750Y-72350D01*
X75750Y-72350D02*
X75750Y-72400D01*
X74498Y-60972D02*
X75272Y-60972D01*
X75272Y-60972D02*
X75300Y-61000D01*
X74498Y-41697D02*
X75097Y-41697D01*
X75097Y-41697D02*
X75200Y-41800D01*
X75550Y-13000D02*
X75550Y-12900D01*
X80800Y-76900D02*
X81000Y-76900D01*
X80750Y-76950D02*
X80800Y-76900D01*
X80850Y-72950D02*
X80850Y-73000D01*
X85350Y-11450D02*
X85400Y-11450D01*
X85400Y-11500D02*
X85350Y-11450D01*
X75100Y-60550D02*
X75100Y-58650D01*
X76550Y-11850D02*
X77000Y-12300D01*
X77000Y-12300D02*
X77000Y-13700D01*
X75100Y-60550D02*
X74934Y-60716D01*
X74498Y-60716D02*
X74934Y-60716D01*
X76550Y-11850D02*
X76550Y-11400D01*
X75100Y-58650D02*
X74450Y-58000D01*
X73850Y-85550D02*
X73850Y-85750D01*
X75050Y-86950D02*
X75050Y-89600D01*
X73850Y-85750D02*
X75050Y-86950D01*
X74598Y-81096D02*
X74254Y-81096D01*
X73850Y-81500D02*
X73850Y-85550D01*
X74254Y-81096D02*
X73850Y-81500D01*
X75900Y-14550D02*
X75900Y-14675D01*
X76050Y-15400D02*
X74750Y-16700D01*
X76050Y-14825D02*
X76050Y-15400D01*
X75900Y-14675D02*
X76050Y-14825D01*
X75900Y-13800D02*
X75900Y-14450D01*
X75925Y-13775D02*
X75900Y-13800D01*
X75175Y-21393D02*
X75147Y-21352D01*
X75034Y-22216D02*
X74498Y-22216D01*
X74750Y-20850D02*
X74750Y-16700D01*
X75147Y-21352D02*
X74750Y-20850D01*
X75034Y-22216D02*
X75175Y-22109D01*
X75175Y-22109D02*
X75175Y-21393D01*
X75900Y-14450D02*
X75900Y-14550D01*
X74498Y-42721D02*
X74498Y-43002D01*
X74400Y-50950D02*
X75250Y-51800D01*
X74400Y-43100D02*
X74400Y-50950D01*
X74498Y-43002D02*
X74400Y-43100D01*
X76802Y-79304D02*
X76802Y-79252D01*
X76500Y-73750D02*
X75800Y-73050D01*
X76500Y-78950D02*
X76500Y-73750D01*
X76802Y-79252D02*
X76500Y-78950D01*
X76702Y-61484D02*
X76316Y-61484D01*
X75600Y-67000D02*
X75550Y-67000D01*
X75950Y-66650D02*
X75600Y-67000D01*
X75950Y-61850D02*
X75950Y-66650D01*
X76316Y-61484D02*
X75950Y-61850D01*
X76702Y-61740D02*
X76360Y-61740D01*
X76200Y-68600D02*
X75800Y-69000D01*
X76200Y-61900D02*
X76200Y-68600D01*
X76360Y-61740D02*
X76200Y-61900D01*
X74600Y-79560D02*
X74260Y-79560D01*
X74100Y-73350D02*
X74800Y-72650D01*
X74100Y-79400D02*
X74100Y-73350D01*
X74260Y-79560D02*
X74100Y-79400D01*
X76802Y-79560D02*
X76460Y-79560D01*
X76299Y-75699D02*
X75750Y-75150D01*
X76299Y-79399D02*
X76299Y-75699D01*
X76460Y-79560D02*
X76299Y-79399D01*
X76802Y-79816D02*
X76416Y-79816D01*
X76050Y-77450D02*
X75700Y-77100D01*
X76050Y-79450D02*
X76050Y-77450D01*
X76416Y-79816D02*
X76050Y-79450D01*
X76702Y-60972D02*
X76178Y-60972D01*
X75500Y-62650D02*
X75300Y-63050D01*
X75500Y-61650D02*
X75500Y-62650D01*
X76178Y-60972D02*
X75500Y-61650D01*
X76702Y-61228D02*
X76272Y-61228D01*
X75749Y-64600D02*
X75400Y-64950D01*
X75749Y-61750D02*
X75749Y-64600D01*
X76272Y-61228D02*
X75749Y-61750D01*
X76460Y-80840D02*
X76802Y-80840D01*
X76350Y-80950D02*
X76350Y-86750D01*
X76460Y-80840D02*
X76350Y-80950D01*
X76000Y-87100D02*
X76350Y-86750D01*
X75650Y-87100D02*
X76000Y-87100D01*
X75550Y-87200D02*
X75650Y-87100D01*
X76802Y-80072D02*
X76328Y-80072D01*
X75699Y-82000D02*
X75400Y-82300D01*
X75699Y-80700D02*
X75699Y-82000D01*
X76328Y-80072D02*
X75699Y-80700D01*
X76802Y-80328D02*
X76372Y-80328D01*
X75899Y-83950D02*
X75550Y-84300D01*
X75899Y-80800D02*
X75899Y-83950D01*
X76372Y-80328D02*
X75899Y-80800D01*
X76802Y-80584D02*
X76416Y-80584D01*
X75700Y-86300D02*
X75350Y-86300D01*
X76100Y-85900D02*
X75700Y-86300D01*
X76100Y-80900D02*
X76100Y-85900D01*
X76416Y-80584D02*
X76100Y-80900D01*
X74525Y-78275D02*
X74525Y-78274D01*
X74525Y-78274D02*
X74300Y-78050D01*
X74300Y-78050D02*
X74300Y-77900D01*
X74300Y-74949D02*
X74500Y-74750D01*
X74300Y-77900D02*
X74300Y-74949D01*
X75034Y-79816D02*
X75200Y-79650D01*
X75200Y-79650D02*
X75200Y-78950D01*
X75200Y-78950D02*
X74525Y-78275D01*
X74598Y-79816D02*
X75034Y-79816D01*
X74498Y-62602D02*
X74498Y-61996D01*
X74450Y-62650D02*
X74498Y-62602D01*
X74500Y-60460D02*
X74160Y-60460D01*
X74000Y-54199D02*
X74800Y-53400D01*
X74000Y-60300D02*
X74000Y-54199D01*
X74160Y-60460D02*
X74000Y-60300D01*
X76702Y-60204D02*
X76304Y-60204D01*
X76200Y-54200D02*
X75800Y-53800D01*
X76200Y-60100D02*
X76200Y-54200D01*
X76304Y-60204D02*
X76200Y-60100D01*
X76702Y-60460D02*
X76260Y-60460D01*
X75900Y-56200D02*
X75700Y-56000D01*
X75900Y-60100D02*
X75900Y-56200D01*
X76260Y-60460D02*
X75900Y-60100D01*
X76702Y-60716D02*
X76216Y-60716D01*
X75699Y-58299D02*
X75400Y-58000D01*
X75699Y-60199D02*
X75699Y-58299D01*
X76216Y-60716D02*
X75699Y-60199D01*
X74950Y-21960D02*
X74950Y-21530D01*
X74500Y-20950D02*
X74500Y-16050D01*
X74500Y-21960D02*
X74950Y-21960D01*
X74937Y-21518D02*
X74500Y-20950D01*
X74500Y-16050D02*
X75000Y-15600D01*
X74950Y-21530D02*
X74937Y-21518D01*
X76702Y-22216D02*
X76266Y-22216D01*
X75849Y-20399D02*
X75725Y-19700D01*
X75849Y-20399D02*
X75849Y-20399D01*
X75849Y-21799D02*
X75849Y-20399D01*
X76266Y-22216D02*
X75849Y-21799D01*
X75650Y-17150D02*
X76450Y-17150D01*
X76702Y-19052D02*
X76702Y-21704D01*
X76702Y-17402D02*
X76702Y-19052D01*
X76450Y-17150D02*
X76702Y-17402D01*
X76702Y-21960D02*
X76335Y-21960D01*
X75900Y-17625D02*
X75675Y-17625D01*
X76075Y-17800D02*
X75900Y-17625D01*
X76075Y-21700D02*
X76075Y-17800D01*
X76335Y-21960D02*
X76075Y-21700D01*
X76702Y-22472D02*
X75978Y-22472D01*
X75175Y-24325D02*
X74875Y-24625D01*
X75175Y-23275D02*
X75175Y-24325D01*
X75978Y-22472D02*
X75175Y-23275D01*
X76050Y-22728D02*
X76022Y-22728D01*
X76022Y-22728D02*
X75399Y-23350D01*
X75399Y-23350D02*
X75399Y-24900D01*
X75399Y-24900D02*
X75200Y-25100D01*
X76702Y-22728D02*
X76050Y-22728D01*
X76050Y-22728D02*
X76022Y-22728D01*
X76702Y-22984D02*
X76066Y-22984D01*
X75600Y-26450D02*
X74900Y-27150D01*
X75600Y-23450D02*
X75600Y-26450D01*
X76066Y-22984D02*
X75600Y-23450D01*
X76702Y-23240D02*
X76210Y-23240D01*
X75900Y-28050D02*
X74900Y-29050D01*
X75900Y-23550D02*
X75900Y-28050D01*
X76210Y-23240D02*
X75900Y-23550D01*
X74500Y-41185D02*
X74865Y-41185D01*
X75400Y-40650D02*
X75400Y-34225D01*
X74865Y-41185D02*
X75400Y-40650D01*
X76702Y-40929D02*
X76702Y-35527D01*
X76702Y-35527D02*
X75800Y-34625D01*
X76702Y-41185D02*
X76235Y-41185D01*
X76375Y-37000D02*
X75800Y-36425D01*
X76375Y-40400D02*
X76375Y-37000D01*
X76150Y-40625D02*
X76375Y-40400D01*
X76150Y-41100D02*
X76150Y-40625D01*
X76235Y-41185D02*
X76150Y-41100D01*
X76702Y-42209D02*
X76216Y-42209D01*
X75925Y-46225D02*
X75800Y-46350D01*
X75925Y-42500D02*
X75925Y-46225D01*
X76216Y-42209D02*
X75925Y-42500D01*
X76702Y-41441D02*
X76191Y-41441D01*
X76125Y-38950D02*
X75775Y-38600D01*
X76125Y-40275D02*
X76125Y-38950D01*
X75925Y-40475D02*
X76125Y-40275D01*
X75925Y-41175D02*
X75925Y-40475D01*
X76191Y-41441D02*
X75925Y-41175D01*
X76702Y-41697D02*
X76128Y-41697D01*
X75475Y-43600D02*
X75350Y-43725D01*
X75475Y-42350D02*
X75475Y-43600D01*
X76128Y-41697D02*
X75475Y-42350D01*
X76702Y-41953D02*
X76172Y-41953D01*
X75700Y-44250D02*
X75575Y-44375D01*
X75700Y-42425D02*
X75700Y-44250D01*
X76172Y-41953D02*
X75700Y-42425D01*
X76702Y-42465D02*
X76260Y-42465D01*
X76150Y-48050D02*
X75800Y-48400D01*
X76150Y-42575D02*
X76150Y-48050D01*
X76260Y-42465D02*
X76150Y-42575D01*
X74908Y-41441D02*
X75625Y-40724D01*
X75625Y-40724D02*
X75625Y-40050D01*
X75625Y-40050D02*
X75750Y-39925D01*
X74475Y-26850D02*
X74300Y-26150D01*
X74300Y-26150D02*
X74300Y-23694D01*
X74498Y-23496D02*
X74300Y-23694D01*
X74908Y-41441D02*
X74498Y-41441D01*
X74975Y-16800D02*
X74975Y-16775D01*
X76275Y-15475D02*
X76275Y-15200D01*
X74975Y-16775D02*
X76275Y-15475D01*
X74498Y-61228D02*
X73978Y-61228D01*
X73978Y-61228D02*
X73800Y-61050D01*
X73997Y-41953D02*
X73953Y-41953D01*
X73800Y-41600D02*
X73800Y-23000D01*
X73800Y-23000D02*
X73972Y-22728D01*
X73972Y-22728D02*
X74498Y-22728D01*
X73800Y-41800D02*
X73800Y-41600D01*
X73953Y-41953D02*
X73800Y-41800D01*
X74053Y-41953D02*
X73997Y-41953D01*
X74078Y-80328D02*
X74598Y-80328D01*
X73800Y-80050D02*
X74078Y-80328D01*
X73800Y-42150D02*
X73800Y-61050D01*
X73800Y-61050D02*
X73800Y-80050D01*
X73997Y-41953D02*
X73800Y-42150D01*
X74498Y-41953D02*
X74053Y-41953D01*
X75550Y-11400D02*
X75550Y-12200D01*
X76275Y-13175D02*
X76275Y-15200D01*
X76275Y-12650D02*
X76275Y-13175D01*
X76000Y-12375D02*
X76275Y-12650D01*
X75725Y-12375D02*
X76000Y-12375D01*
X75550Y-12200D02*
X75725Y-12375D01*
X74972Y-22728D02*
X74498Y-22728D01*
X74975Y-20775D02*
X74975Y-16800D01*
X75400Y-21200D02*
X74975Y-20775D01*
X75400Y-22175D02*
X75400Y-21200D01*
X74975Y-22600D02*
X75400Y-22175D01*
X74975Y-22725D02*
X74975Y-22600D01*
X74972Y-22728D02*
X74975Y-22725D01*
X75550Y-11400D02*
X75550Y-11750D01*
X74500Y-21450D02*
X74500Y-21708D01*
X74200Y-21150D02*
X74500Y-21450D01*
X74450Y-78850D02*
X74450Y-79158D01*
X74450Y-79158D02*
X74600Y-79308D01*
X74500Y-63400D02*
X75100Y-62250D01*
X75100Y-62250D02*
X75100Y-61850D01*
X75100Y-61850D02*
X74990Y-61740D01*
X74498Y-61740D02*
X74990Y-61740D01*
X74990Y-80840D02*
X74598Y-80840D01*
X75100Y-80950D02*
X74990Y-80840D01*
X75100Y-81500D02*
X75100Y-80950D01*
X74400Y-82200D02*
X75100Y-81500D01*
X74500Y-59700D02*
X74500Y-60208D01*
X74498Y-42465D02*
X74915Y-42465D01*
X74950Y-43750D02*
X74800Y-43900D01*
X74950Y-42500D02*
X74950Y-43750D01*
X74915Y-42465D02*
X74950Y-42500D01*
X74500Y-40300D02*
X74500Y-40933D01*
X74500Y-40100D02*
X74500Y-40300D01*
X74865Y-23240D02*
X74498Y-23240D01*
X74950Y-23325D02*
X74865Y-23240D01*
X74950Y-24075D02*
X74950Y-23325D01*
X74525Y-24500D02*
X74950Y-24075D01*
X74525Y-24900D02*
X74525Y-24500D01*
X74700Y-25075D02*
X74525Y-24900D01*
G54D10*
G36*
X85910Y-90060D02*
X85840Y-90060D01*
X85840Y-13073D01*
X85742Y-12837D01*
X85563Y-12657D01*
X85327Y-12560D01*
X85073Y-12559D01*
X84864Y-12646D01*
X84864Y-12027D01*
X84864Y-10972D01*
X84842Y-10920D01*
X84803Y-10881D01*
X84751Y-10860D01*
X84696Y-10859D01*
X84419Y-10860D01*
X84384Y-10895D01*
X84384Y-11340D01*
X84829Y-11340D01*
X84864Y-11305D01*
X84864Y-10972D01*
X84864Y-12027D01*
X84864Y-11695D01*
X84829Y-11660D01*
X84384Y-11660D01*
X84384Y-12105D01*
X84419Y-12140D01*
X84696Y-12140D01*
X84751Y-12139D01*
X84803Y-12118D01*
X84842Y-12079D01*
X84864Y-12027D01*
X84864Y-12646D01*
X84837Y-12657D01*
X84657Y-12836D01*
X84560Y-13072D01*
X84559Y-13326D01*
X84657Y-13562D01*
X84836Y-13742D01*
X85072Y-13839D01*
X85326Y-13840D01*
X85562Y-13742D01*
X85742Y-13563D01*
X85839Y-13327D01*
X85840Y-13073D01*
X85840Y-90060D01*
X85794Y-90060D01*
X85794Y-81326D01*
X85794Y-80617D01*
X85773Y-80566D01*
X85733Y-80527D01*
X85682Y-80505D01*
X85626Y-80505D01*
X84940Y-80505D01*
X84940Y-80494D01*
X84973Y-80494D01*
X85682Y-80494D01*
X85733Y-80473D01*
X85772Y-80433D01*
X85794Y-80382D01*
X85794Y-80326D01*
X85794Y-79617D01*
X85773Y-79566D01*
X85733Y-79527D01*
X85682Y-79505D01*
X85626Y-79505D01*
X84940Y-79505D01*
X84940Y-79494D01*
X84973Y-79494D01*
X85682Y-79494D01*
X85733Y-79473D01*
X85772Y-79433D01*
X85794Y-79382D01*
X85794Y-79326D01*
X85794Y-78617D01*
X85773Y-78566D01*
X85733Y-78527D01*
X85682Y-78505D01*
X85626Y-78505D01*
X84940Y-78505D01*
X84940Y-78494D01*
X84973Y-78494D01*
X85682Y-78494D01*
X85733Y-78473D01*
X85772Y-78433D01*
X85794Y-78382D01*
X85794Y-78326D01*
X85794Y-77617D01*
X85773Y-77566D01*
X85733Y-77527D01*
X85682Y-77505D01*
X85626Y-77505D01*
X84940Y-77505D01*
X84940Y-77494D01*
X84973Y-77494D01*
X85682Y-77494D01*
X85733Y-77473D01*
X85772Y-77433D01*
X85794Y-77382D01*
X85794Y-77326D01*
X85794Y-76617D01*
X85773Y-76566D01*
X85733Y-76527D01*
X85682Y-76505D01*
X85626Y-76505D01*
X84940Y-76505D01*
X84940Y-76494D01*
X84973Y-76494D01*
X85682Y-76494D01*
X85733Y-76473D01*
X85772Y-76433D01*
X85794Y-76382D01*
X85794Y-76326D01*
X85794Y-75617D01*
X85773Y-75566D01*
X85733Y-75527D01*
X85682Y-75505D01*
X85626Y-75505D01*
X84940Y-75505D01*
X84940Y-75494D01*
X84973Y-75494D01*
X85682Y-75494D01*
X85733Y-75473D01*
X85772Y-75433D01*
X85794Y-75382D01*
X85794Y-75326D01*
X85794Y-74617D01*
X85773Y-74566D01*
X85733Y-74527D01*
X85682Y-74505D01*
X85626Y-74505D01*
X84940Y-74505D01*
X84940Y-74494D01*
X84973Y-74494D01*
X85682Y-74494D01*
X85733Y-74473D01*
X85772Y-74433D01*
X85794Y-74382D01*
X85794Y-74326D01*
X85794Y-73617D01*
X85773Y-73566D01*
X85733Y-73527D01*
X85682Y-73505D01*
X85626Y-73505D01*
X84940Y-73505D01*
X84940Y-71800D01*
X84940Y-68500D01*
X84940Y-66500D01*
X84940Y-64550D01*
X84940Y-62350D01*
X84940Y-61794D01*
X84973Y-61794D01*
X85682Y-61794D01*
X85733Y-61773D01*
X85772Y-61733D01*
X85794Y-61682D01*
X85794Y-61626D01*
X85794Y-60917D01*
X85773Y-60866D01*
X85733Y-60827D01*
X85682Y-60805D01*
X85626Y-60805D01*
X84940Y-60805D01*
X84940Y-60794D01*
X84973Y-60794D01*
X85682Y-60794D01*
X85733Y-60773D01*
X85772Y-60733D01*
X85794Y-60682D01*
X85794Y-60626D01*
X85794Y-59917D01*
X85773Y-59866D01*
X85733Y-59827D01*
X85682Y-59805D01*
X85626Y-59805D01*
X84940Y-59805D01*
X84940Y-59794D01*
X84973Y-59794D01*
X85682Y-59794D01*
X85733Y-59773D01*
X85772Y-59733D01*
X85794Y-59682D01*
X85794Y-59626D01*
X85794Y-58917D01*
X85773Y-58866D01*
X85733Y-58827D01*
X85682Y-58805D01*
X85626Y-58805D01*
X84940Y-58805D01*
X84940Y-58794D01*
X84973Y-58794D01*
X85682Y-58794D01*
X85733Y-58773D01*
X85772Y-58733D01*
X85794Y-58682D01*
X85794Y-58626D01*
X85794Y-57917D01*
X85773Y-57866D01*
X85733Y-57827D01*
X85682Y-57805D01*
X85626Y-57805D01*
X84940Y-57805D01*
X84940Y-57794D01*
X84973Y-57794D01*
X85682Y-57794D01*
X85733Y-57773D01*
X85772Y-57733D01*
X85794Y-57682D01*
X85794Y-57626D01*
X85794Y-56917D01*
X85773Y-56866D01*
X85733Y-56827D01*
X85682Y-56805D01*
X85626Y-56805D01*
X84940Y-56805D01*
X84940Y-56794D01*
X84973Y-56794D01*
X85682Y-56794D01*
X85733Y-56773D01*
X85772Y-56733D01*
X85794Y-56682D01*
X85794Y-56626D01*
X85794Y-55917D01*
X85773Y-55866D01*
X85733Y-55827D01*
X85682Y-55805D01*
X85626Y-55805D01*
X84940Y-55805D01*
X84940Y-55794D01*
X84973Y-55794D01*
X85682Y-55794D01*
X85733Y-55773D01*
X85772Y-55733D01*
X85794Y-55682D01*
X85794Y-55626D01*
X85794Y-54917D01*
X85773Y-54866D01*
X85733Y-54827D01*
X85682Y-54805D01*
X85626Y-54805D01*
X84940Y-54805D01*
X84940Y-54794D01*
X84973Y-54794D01*
X85682Y-54794D01*
X85733Y-54773D01*
X85772Y-54733D01*
X85794Y-54682D01*
X85794Y-54626D01*
X85794Y-53917D01*
X85773Y-53866D01*
X85733Y-53827D01*
X85682Y-53805D01*
X85626Y-53805D01*
X84940Y-53805D01*
X84940Y-52700D01*
X84940Y-49000D01*
X84940Y-47000D01*
X84940Y-45000D01*
X84940Y-43000D01*
X84940Y-41794D01*
X84973Y-41794D01*
X85682Y-41794D01*
X85733Y-41773D01*
X85772Y-41733D01*
X85794Y-41682D01*
X85794Y-41626D01*
X85794Y-40917D01*
X85773Y-40866D01*
X85733Y-40827D01*
X85682Y-40805D01*
X85626Y-40805D01*
X84940Y-40805D01*
X84940Y-40794D01*
X84973Y-40794D01*
X85682Y-40794D01*
X85733Y-40773D01*
X85772Y-40733D01*
X85794Y-40682D01*
X85794Y-40626D01*
X85794Y-39917D01*
X85773Y-39866D01*
X85733Y-39827D01*
X85682Y-39805D01*
X85626Y-39805D01*
X84940Y-39805D01*
X84940Y-39794D01*
X84973Y-39794D01*
X85682Y-39794D01*
X85733Y-39773D01*
X85772Y-39733D01*
X85794Y-39682D01*
X85794Y-39626D01*
X85794Y-38917D01*
X85773Y-38866D01*
X85733Y-38827D01*
X85682Y-38805D01*
X85626Y-38805D01*
X84940Y-38805D01*
X84940Y-38794D01*
X84973Y-38794D01*
X85682Y-38794D01*
X85733Y-38773D01*
X85772Y-38733D01*
X85794Y-38682D01*
X85794Y-38626D01*
X85794Y-37917D01*
X85773Y-37866D01*
X85733Y-37827D01*
X85682Y-37805D01*
X85626Y-37805D01*
X84940Y-37805D01*
X84940Y-37794D01*
X84973Y-37794D01*
X85682Y-37794D01*
X85733Y-37773D01*
X85772Y-37733D01*
X85794Y-37682D01*
X85794Y-37626D01*
X85794Y-36917D01*
X85773Y-36866D01*
X85733Y-36827D01*
X85682Y-36805D01*
X85626Y-36805D01*
X84940Y-36805D01*
X84940Y-36794D01*
X84973Y-36794D01*
X85682Y-36794D01*
X85733Y-36773D01*
X85772Y-36733D01*
X85794Y-36682D01*
X85794Y-36626D01*
X85794Y-35917D01*
X85773Y-35866D01*
X85733Y-35827D01*
X85682Y-35805D01*
X85626Y-35805D01*
X84940Y-35805D01*
X84940Y-35794D01*
X84973Y-35794D01*
X85682Y-35794D01*
X85733Y-35773D01*
X85772Y-35733D01*
X85794Y-35682D01*
X85794Y-35626D01*
X85794Y-34917D01*
X85773Y-34866D01*
X85733Y-34827D01*
X85682Y-34805D01*
X85626Y-34805D01*
X84940Y-34805D01*
X84940Y-34794D01*
X84973Y-34794D01*
X85682Y-34794D01*
X85733Y-34773D01*
X85772Y-34733D01*
X85794Y-34682D01*
X85794Y-34626D01*
X85794Y-33917D01*
X85773Y-33866D01*
X85733Y-33827D01*
X85682Y-33805D01*
X85626Y-33805D01*
X84940Y-33805D01*
X84940Y-33300D01*
X84940Y-30000D01*
X84940Y-28000D01*
X84940Y-26000D01*
X84940Y-24000D01*
X84940Y-22994D01*
X84973Y-22994D01*
X85682Y-22994D01*
X85733Y-22973D01*
X85772Y-22933D01*
X85794Y-22882D01*
X85794Y-22826D01*
X85794Y-22117D01*
X85773Y-22066D01*
X85733Y-22027D01*
X85682Y-22005D01*
X85626Y-22005D01*
X84940Y-22005D01*
X84940Y-21994D01*
X84973Y-21994D01*
X85682Y-21994D01*
X85733Y-21973D01*
X85772Y-21933D01*
X85794Y-21882D01*
X85794Y-21826D01*
X85794Y-21117D01*
X85773Y-21066D01*
X85733Y-21027D01*
X85682Y-21005D01*
X85626Y-21005D01*
X84940Y-21005D01*
X84940Y-20994D01*
X84973Y-20994D01*
X85682Y-20994D01*
X85733Y-20973D01*
X85772Y-20933D01*
X85794Y-20882D01*
X85794Y-20826D01*
X85794Y-20117D01*
X85773Y-20066D01*
X85733Y-20027D01*
X85682Y-20005D01*
X85626Y-20005D01*
X84940Y-20005D01*
X84940Y-19994D01*
X84973Y-19994D01*
X85682Y-19994D01*
X85733Y-19973D01*
X85772Y-19933D01*
X85794Y-19882D01*
X85794Y-19826D01*
X85794Y-19117D01*
X85773Y-19066D01*
X85733Y-19027D01*
X85682Y-19005D01*
X85626Y-19005D01*
X84940Y-19005D01*
X84940Y-18994D01*
X84973Y-18994D01*
X85682Y-18994D01*
X85733Y-18973D01*
X85772Y-18933D01*
X85794Y-18882D01*
X85794Y-18826D01*
X85794Y-18117D01*
X85773Y-18066D01*
X85733Y-18027D01*
X85682Y-18005D01*
X85626Y-18005D01*
X84940Y-18005D01*
X84940Y-17994D01*
X84973Y-17994D01*
X85682Y-17994D01*
X85733Y-17973D01*
X85772Y-17933D01*
X85794Y-17882D01*
X85794Y-17826D01*
X85794Y-17117D01*
X85773Y-17066D01*
X85733Y-17027D01*
X85682Y-17005D01*
X85626Y-17005D01*
X84940Y-17005D01*
X84940Y-16994D01*
X84973Y-16994D01*
X85682Y-16994D01*
X85733Y-16973D01*
X85772Y-16933D01*
X85794Y-16882D01*
X85794Y-16826D01*
X85794Y-16117D01*
X85773Y-16066D01*
X85733Y-16027D01*
X85682Y-16005D01*
X85626Y-16005D01*
X84940Y-16005D01*
X84940Y-16000D01*
X84940Y-15994D01*
X84973Y-15994D01*
X85682Y-15994D01*
X85733Y-15973D01*
X85772Y-15933D01*
X85794Y-15882D01*
X85794Y-15826D01*
X85794Y-15117D01*
X85773Y-15066D01*
X85733Y-15027D01*
X85682Y-15005D01*
X85626Y-15005D01*
X84921Y-15005D01*
X84895Y-14874D01*
X84895Y-14874D01*
X84852Y-14810D01*
X84767Y-14682D01*
X84767Y-14682D01*
X84064Y-13979D01*
X84064Y-12105D01*
X84064Y-11660D01*
X84064Y-11340D01*
X84064Y-10895D01*
X84029Y-10860D01*
X83751Y-10859D01*
X83696Y-10860D01*
X83644Y-10881D01*
X83605Y-10920D01*
X83583Y-10972D01*
X83584Y-11305D01*
X83619Y-11340D01*
X84064Y-11340D01*
X84064Y-11660D01*
X83619Y-11660D01*
X83584Y-11695D01*
X83583Y-12027D01*
X83605Y-12079D01*
X83644Y-12118D01*
X83696Y-12139D01*
X83751Y-12140D01*
X84029Y-12140D01*
X84064Y-12105D01*
X84064Y-13979D01*
X83340Y-13255D01*
X83340Y-12107D01*
X83368Y-12079D01*
X83389Y-12027D01*
X83390Y-11972D01*
X83390Y-10972D01*
X83368Y-10920D01*
X83329Y-10881D01*
X83277Y-10860D01*
X83222Y-10859D01*
X82222Y-10859D01*
X82170Y-10881D01*
X82131Y-10920D01*
X82110Y-10972D01*
X82109Y-11027D01*
X82109Y-12027D01*
X82131Y-12079D01*
X82160Y-12108D01*
X82160Y-13110D01*
X81800Y-13110D01*
X81689Y-13132D01*
X81680Y-13138D01*
X81571Y-13182D01*
X81483Y-13271D01*
X81435Y-13387D01*
X81434Y-13512D01*
X81482Y-13628D01*
X81571Y-13716D01*
X81687Y-13764D01*
X81812Y-13765D01*
X81928Y-13717D01*
X81955Y-13690D01*
X82197Y-13690D01*
X82197Y-13690D01*
X82204Y-13725D01*
X82332Y-13917D01*
X83760Y-15344D01*
X83760Y-15710D01*
X83150Y-15710D01*
X83149Y-15710D01*
X83131Y-15713D01*
X83039Y-15732D01*
X82944Y-15794D01*
X82944Y-15794D01*
X82944Y-15794D01*
X82631Y-16107D01*
X82571Y-16132D01*
X82483Y-16221D01*
X82435Y-16337D01*
X82434Y-16462D01*
X82482Y-16578D01*
X82571Y-16666D01*
X82687Y-16714D01*
X82812Y-16715D01*
X82928Y-16667D01*
X83016Y-16578D01*
X83042Y-16518D01*
X83270Y-16290D01*
X83760Y-16290D01*
X83760Y-18110D01*
X82623Y-18110D01*
X82562Y-18085D01*
X82437Y-18084D01*
X82321Y-18132D01*
X82233Y-18221D01*
X82185Y-18337D01*
X82184Y-18462D01*
X82232Y-18578D01*
X82321Y-18666D01*
X82437Y-18714D01*
X82562Y-18715D01*
X82623Y-18690D01*
X83760Y-18690D01*
X83760Y-20110D01*
X82523Y-20110D01*
X82462Y-20085D01*
X82337Y-20084D01*
X82221Y-20132D01*
X82133Y-20221D01*
X82085Y-20337D01*
X82084Y-20462D01*
X82132Y-20578D01*
X82221Y-20666D01*
X82337Y-20714D01*
X82462Y-20715D01*
X82523Y-20690D01*
X83760Y-20690D01*
X83760Y-23710D01*
X82423Y-23710D01*
X82362Y-23685D01*
X82237Y-23684D01*
X82121Y-23732D01*
X82033Y-23821D01*
X81985Y-23937D01*
X81984Y-24062D01*
X82032Y-24178D01*
X82121Y-24266D01*
X82237Y-24314D01*
X82362Y-24315D01*
X82423Y-24290D01*
X83760Y-24290D01*
X83760Y-25710D01*
X82573Y-25710D01*
X82512Y-25685D01*
X82387Y-25684D01*
X82271Y-25732D01*
X82183Y-25821D01*
X82135Y-25937D01*
X82134Y-26062D01*
X82182Y-26178D01*
X82271Y-26266D01*
X82387Y-26314D01*
X82512Y-26315D01*
X82573Y-26290D01*
X83760Y-26290D01*
X83760Y-27710D01*
X82573Y-27710D01*
X82512Y-27685D01*
X82387Y-27684D01*
X82271Y-27732D01*
X82183Y-27821D01*
X82135Y-27937D01*
X82134Y-28062D01*
X82182Y-28178D01*
X82271Y-28266D01*
X82387Y-28314D01*
X82512Y-28315D01*
X82573Y-28290D01*
X83760Y-28290D01*
X83760Y-29710D01*
X82573Y-29710D01*
X82512Y-29685D01*
X82387Y-29684D01*
X82271Y-29732D01*
X82183Y-29821D01*
X82135Y-29937D01*
X82134Y-30062D01*
X82182Y-30178D01*
X82271Y-30266D01*
X82387Y-30314D01*
X82512Y-30315D01*
X82573Y-30290D01*
X83760Y-30290D01*
X83760Y-33010D01*
X82523Y-33010D01*
X82462Y-32985D01*
X82337Y-32984D01*
X82221Y-33032D01*
X82133Y-33121D01*
X82085Y-33237D01*
X82084Y-33362D01*
X82132Y-33478D01*
X82221Y-33566D01*
X82337Y-33614D01*
X82462Y-33615D01*
X82523Y-33590D01*
X83760Y-33590D01*
X83760Y-35010D01*
X82523Y-35010D01*
X82462Y-34985D01*
X82337Y-34984D01*
X82221Y-35032D01*
X82133Y-35121D01*
X82085Y-35237D01*
X82084Y-35362D01*
X82132Y-35478D01*
X82221Y-35566D01*
X82337Y-35614D01*
X82462Y-35615D01*
X82523Y-35590D01*
X83760Y-35590D01*
X83760Y-37010D01*
X82573Y-37010D01*
X82512Y-36985D01*
X82387Y-36984D01*
X82271Y-37032D01*
X82183Y-37121D01*
X82135Y-37237D01*
X82134Y-37362D01*
X82182Y-37478D01*
X82271Y-37566D01*
X82387Y-37614D01*
X82512Y-37615D01*
X82573Y-37590D01*
X83760Y-37590D01*
X83760Y-39010D01*
X82573Y-39010D01*
X82512Y-38985D01*
X82387Y-38984D01*
X82271Y-39032D01*
X82183Y-39121D01*
X82135Y-39237D01*
X82134Y-39362D01*
X82182Y-39478D01*
X82271Y-39566D01*
X82387Y-39614D01*
X82512Y-39615D01*
X82573Y-39590D01*
X83760Y-39590D01*
X83760Y-42710D01*
X82623Y-42710D01*
X82562Y-42685D01*
X82437Y-42684D01*
X82321Y-42732D01*
X82233Y-42821D01*
X82185Y-42937D01*
X82184Y-43062D01*
X82232Y-43178D01*
X82321Y-43266D01*
X82437Y-43314D01*
X82562Y-43315D01*
X82623Y-43290D01*
X83760Y-43290D01*
X83760Y-44710D01*
X82673Y-44710D01*
X82612Y-44685D01*
X82487Y-44684D01*
X82371Y-44732D01*
X82283Y-44821D01*
X82235Y-44937D01*
X82234Y-45062D01*
X82282Y-45178D01*
X82371Y-45266D01*
X82487Y-45314D01*
X82612Y-45315D01*
X82673Y-45290D01*
X83760Y-45290D01*
X83760Y-46710D01*
X82673Y-46710D01*
X82612Y-46685D01*
X82487Y-46684D01*
X82371Y-46732D01*
X82283Y-46821D01*
X82235Y-46937D01*
X82234Y-47062D01*
X82282Y-47178D01*
X82371Y-47266D01*
X82487Y-47314D01*
X82612Y-47315D01*
X82673Y-47290D01*
X83760Y-47290D01*
X83760Y-48710D01*
X82673Y-48710D01*
X82612Y-48685D01*
X82487Y-48684D01*
X82371Y-48732D01*
X82283Y-48821D01*
X82235Y-48937D01*
X82234Y-49062D01*
X82282Y-49178D01*
X82371Y-49266D01*
X82487Y-49314D01*
X82612Y-49315D01*
X82673Y-49290D01*
X83760Y-49290D01*
X83760Y-52410D01*
X83396Y-52410D01*
X83335Y-52348D01*
X83182Y-52285D01*
X83017Y-52284D01*
X82865Y-52347D01*
X82748Y-52464D01*
X82685Y-52617D01*
X82684Y-52782D01*
X82747Y-52934D01*
X82864Y-53051D01*
X83017Y-53114D01*
X83182Y-53115D01*
X83334Y-53052D01*
X83396Y-52990D01*
X83760Y-52990D01*
X83760Y-54660D01*
X83396Y-54660D01*
X83335Y-54598D01*
X83182Y-54535D01*
X83017Y-54534D01*
X82865Y-54597D01*
X82748Y-54714D01*
X82685Y-54867D01*
X82684Y-55032D01*
X82747Y-55184D01*
X82864Y-55301D01*
X83017Y-55364D01*
X83182Y-55365D01*
X83334Y-55302D01*
X83396Y-55240D01*
X83760Y-55240D01*
X83760Y-56610D01*
X83346Y-56610D01*
X83285Y-56548D01*
X83132Y-56485D01*
X82967Y-56484D01*
X82815Y-56547D01*
X82698Y-56664D01*
X82635Y-56817D01*
X82634Y-56982D01*
X82697Y-57134D01*
X82814Y-57251D01*
X82967Y-57314D01*
X83132Y-57315D01*
X83284Y-57252D01*
X83346Y-57190D01*
X83760Y-57190D01*
X83760Y-58560D01*
X83346Y-58560D01*
X83285Y-58498D01*
X83132Y-58435D01*
X82967Y-58434D01*
X82815Y-58497D01*
X82698Y-58614D01*
X82635Y-58767D01*
X82634Y-58932D01*
X82697Y-59084D01*
X82814Y-59201D01*
X82967Y-59264D01*
X83132Y-59265D01*
X83284Y-59202D01*
X83346Y-59140D01*
X83760Y-59140D01*
X83760Y-62060D01*
X83296Y-62060D01*
X83185Y-61948D01*
X83032Y-61885D01*
X82867Y-61884D01*
X82715Y-61947D01*
X82598Y-62064D01*
X82535Y-62217D01*
X82534Y-62382D01*
X82597Y-62534D01*
X82714Y-62651D01*
X82867Y-62714D01*
X83032Y-62715D01*
X83184Y-62652D01*
X83196Y-62640D01*
X83760Y-62640D01*
X83760Y-64260D01*
X83296Y-64260D01*
X83235Y-64198D01*
X83082Y-64135D01*
X82917Y-64134D01*
X82765Y-64197D01*
X82648Y-64314D01*
X82585Y-64467D01*
X82584Y-64632D01*
X82647Y-64784D01*
X82764Y-64901D01*
X82917Y-64964D01*
X83082Y-64965D01*
X83234Y-64902D01*
X83296Y-64840D01*
X83760Y-64840D01*
X83760Y-66210D01*
X83346Y-66210D01*
X83285Y-66148D01*
X83132Y-66085D01*
X82967Y-66084D01*
X82815Y-66147D01*
X82698Y-66264D01*
X82635Y-66417D01*
X82634Y-66582D01*
X82697Y-66734D01*
X82814Y-66851D01*
X82967Y-66914D01*
X83132Y-66915D01*
X83284Y-66852D01*
X83346Y-66790D01*
X83760Y-66790D01*
X83760Y-68210D01*
X83396Y-68210D01*
X83335Y-68148D01*
X83182Y-68085D01*
X83017Y-68084D01*
X82865Y-68147D01*
X82748Y-68264D01*
X82685Y-68417D01*
X82684Y-68582D01*
X82747Y-68734D01*
X82864Y-68851D01*
X83017Y-68914D01*
X83182Y-68915D01*
X83334Y-68852D01*
X83396Y-68790D01*
X83760Y-68790D01*
X83760Y-71510D01*
X83396Y-71510D01*
X83335Y-71448D01*
X83182Y-71385D01*
X83017Y-71384D01*
X82865Y-71447D01*
X82748Y-71564D01*
X82685Y-71717D01*
X82684Y-71882D01*
X82747Y-72034D01*
X82864Y-72151D01*
X83017Y-72214D01*
X83182Y-72215D01*
X83334Y-72152D01*
X83396Y-72090D01*
X83760Y-72090D01*
X83760Y-73760D01*
X83396Y-73760D01*
X83335Y-73698D01*
X83182Y-73635D01*
X83017Y-73634D01*
X82865Y-73697D01*
X82748Y-73814D01*
X82685Y-73967D01*
X82684Y-74132D01*
X82747Y-74284D01*
X82864Y-74401D01*
X83017Y-74464D01*
X83182Y-74465D01*
X83334Y-74402D01*
X83396Y-74340D01*
X83760Y-74340D01*
X83760Y-75760D01*
X83396Y-75760D01*
X83335Y-75698D01*
X83182Y-75635D01*
X83017Y-75634D01*
X82865Y-75697D01*
X82748Y-75814D01*
X82685Y-75967D01*
X82684Y-76132D01*
X82747Y-76284D01*
X82864Y-76401D01*
X83017Y-76464D01*
X83182Y-76465D01*
X83334Y-76402D01*
X83396Y-76340D01*
X83760Y-76340D01*
X83760Y-77760D01*
X83296Y-77760D01*
X83235Y-77698D01*
X83082Y-77635D01*
X82917Y-77634D01*
X82765Y-77697D01*
X82648Y-77814D01*
X82585Y-77967D01*
X82584Y-78132D01*
X82647Y-78284D01*
X82764Y-78401D01*
X82917Y-78464D01*
X83082Y-78465D01*
X83234Y-78402D01*
X83296Y-78340D01*
X83760Y-78340D01*
X83760Y-81310D01*
X83296Y-81310D01*
X83235Y-81248D01*
X83082Y-81185D01*
X82917Y-81184D01*
X82765Y-81247D01*
X82648Y-81364D01*
X82585Y-81517D01*
X82584Y-81682D01*
X82647Y-81834D01*
X82764Y-81951D01*
X82917Y-82014D01*
X83082Y-82015D01*
X83234Y-81952D01*
X83296Y-81890D01*
X83760Y-81890D01*
X83760Y-83510D01*
X83346Y-83510D01*
X83285Y-83448D01*
X83132Y-83385D01*
X82967Y-83384D01*
X82815Y-83447D01*
X82698Y-83564D01*
X82635Y-83717D01*
X82634Y-83882D01*
X82697Y-84034D01*
X82814Y-84151D01*
X82967Y-84214D01*
X83132Y-84215D01*
X83284Y-84152D01*
X83346Y-84090D01*
X83760Y-84090D01*
X83760Y-85610D01*
X83296Y-85610D01*
X83235Y-85548D01*
X83082Y-85485D01*
X82917Y-85484D01*
X82765Y-85547D01*
X82648Y-85664D01*
X82585Y-85817D01*
X82584Y-85982D01*
X82647Y-86134D01*
X82764Y-86251D01*
X82917Y-86314D01*
X83082Y-86315D01*
X83234Y-86252D01*
X83296Y-86190D01*
X83847Y-86190D01*
X83932Y-86317D01*
X84060Y-86402D01*
X84060Y-87410D01*
X83242Y-87410D01*
X83182Y-87385D01*
X83017Y-87384D01*
X82865Y-87447D01*
X82748Y-87564D01*
X82685Y-87717D01*
X82684Y-87882D01*
X82747Y-88034D01*
X82864Y-88151D01*
X83017Y-88214D01*
X83182Y-88215D01*
X83334Y-88152D01*
X83451Y-88035D01*
X83470Y-87990D01*
X84350Y-87990D01*
X84460Y-87967D01*
X84555Y-87905D01*
X84617Y-87810D01*
X84640Y-87700D01*
X84640Y-86402D01*
X84767Y-86317D01*
X84895Y-86125D01*
X84940Y-85900D01*
X84940Y-83800D01*
X84940Y-81600D01*
X84940Y-81494D01*
X84973Y-81494D01*
X85682Y-81494D01*
X85733Y-81473D01*
X85772Y-81433D01*
X85794Y-81382D01*
X85794Y-81326D01*
X85794Y-90060D01*
X85640Y-90060D01*
X85640Y-89073D01*
X85542Y-88837D01*
X85363Y-88657D01*
X85127Y-88560D01*
X84873Y-88559D01*
X84637Y-88657D01*
X84457Y-88836D01*
X84360Y-89072D01*
X84359Y-89326D01*
X84457Y-89562D01*
X84636Y-89742D01*
X84872Y-89839D01*
X85126Y-89840D01*
X85362Y-89742D01*
X85542Y-89563D01*
X85639Y-89327D01*
X85640Y-89073D01*
X85640Y-90060D01*
X79639Y-90060D01*
X79543Y-12790D01*
X80740Y-12790D01*
X80740Y-10639D01*
X85910Y-10639D01*
X85910Y-90060D01*
X85910Y-90060D01*
G37*
G54D20*
X85910Y-90060D02*
X85840Y-90060D01*
X85840Y-13073D01*
X85742Y-12837D01*
X85563Y-12657D01*
X85327Y-12560D01*
X85073Y-12559D01*
X84864Y-12646D01*
X84864Y-12027D01*
X84864Y-10972D01*
X84842Y-10920D01*
X84803Y-10881D01*
X84751Y-10860D01*
X84696Y-10859D01*
X84419Y-10860D01*
X84384Y-10895D01*
X84384Y-11340D01*
X84829Y-11340D01*
X84864Y-11305D01*
X84864Y-10972D01*
X84864Y-12027D01*
X84864Y-11695D01*
X84829Y-11660D01*
X84384Y-11660D01*
X84384Y-12105D01*
X84419Y-12140D01*
X84696Y-12140D01*
X84751Y-12139D01*
X84803Y-12118D01*
X84842Y-12079D01*
X84864Y-12027D01*
X84864Y-12646D01*
X84837Y-12657D01*
X84657Y-12836D01*
X84560Y-13072D01*
X84559Y-13326D01*
X84657Y-13562D01*
X84836Y-13742D01*
X85072Y-13839D01*
X85326Y-13840D01*
X85562Y-13742D01*
X85742Y-13563D01*
X85839Y-13327D01*
X85840Y-13073D01*
X85840Y-90060D01*
X85794Y-90060D01*
X85794Y-81326D01*
X85794Y-80617D01*
X85773Y-80566D01*
X85733Y-80527D01*
X85682Y-80505D01*
X85626Y-80505D01*
X84940Y-80505D01*
X84940Y-80494D01*
X84973Y-80494D01*
X85682Y-80494D01*
X85733Y-80473D01*
X85772Y-80433D01*
X85794Y-80382D01*
X85794Y-80326D01*
X85794Y-79617D01*
X85773Y-79566D01*
X85733Y-79527D01*
X85682Y-79505D01*
X85626Y-79505D01*
X84940Y-79505D01*
X84940Y-79494D01*
X84973Y-79494D01*
X85682Y-79494D01*
X85733Y-79473D01*
X85772Y-79433D01*
X85794Y-79382D01*
X85794Y-79326D01*
X85794Y-78617D01*
X85773Y-78566D01*
X85733Y-78527D01*
X85682Y-78505D01*
X85626Y-78505D01*
X84940Y-78505D01*
X84940Y-78494D01*
X84973Y-78494D01*
X85682Y-78494D01*
X85733Y-78473D01*
X85772Y-78433D01*
X85794Y-78382D01*
X85794Y-78326D01*
X85794Y-77617D01*
X85773Y-77566D01*
X85733Y-77527D01*
X85682Y-77505D01*
X85626Y-77505D01*
X84940Y-77505D01*
X84940Y-77494D01*
X84973Y-77494D01*
X85682Y-77494D01*
X85733Y-77473D01*
X85772Y-77433D01*
X85794Y-77382D01*
X85794Y-77326D01*
X85794Y-76617D01*
X85773Y-76566D01*
X85733Y-76527D01*
X85682Y-76505D01*
X85626Y-76505D01*
X84940Y-76505D01*
X84940Y-76494D01*
X84973Y-76494D01*
X85682Y-76494D01*
X85733Y-76473D01*
X85772Y-76433D01*
X85794Y-76382D01*
X85794Y-76326D01*
X85794Y-75617D01*
X85773Y-75566D01*
X85733Y-75527D01*
X85682Y-75505D01*
X85626Y-75505D01*
X84940Y-75505D01*
X84940Y-75494D01*
X84973Y-75494D01*
X85682Y-75494D01*
X85733Y-75473D01*
X85772Y-75433D01*
X85794Y-75382D01*
X85794Y-75326D01*
X85794Y-74617D01*
X85773Y-74566D01*
X85733Y-74527D01*
X85682Y-74505D01*
X85626Y-74505D01*
X84940Y-74505D01*
X84940Y-74494D01*
X84973Y-74494D01*
X85682Y-74494D01*
X85733Y-74473D01*
X85772Y-74433D01*
X85794Y-74382D01*
X85794Y-74326D01*
X85794Y-73617D01*
X85773Y-73566D01*
X85733Y-73527D01*
X85682Y-73505D01*
X85626Y-73505D01*
X84940Y-73505D01*
X84940Y-71800D01*
X84940Y-68500D01*
X84940Y-66500D01*
X84940Y-64550D01*
X84940Y-62350D01*
X84940Y-61794D01*
X84973Y-61794D01*
X85682Y-61794D01*
X85733Y-61773D01*
X85772Y-61733D01*
X85794Y-61682D01*
X85794Y-61626D01*
X85794Y-60917D01*
X85773Y-60866D01*
X85733Y-60827D01*
X85682Y-60805D01*
X85626Y-60805D01*
X84940Y-60805D01*
X84940Y-60794D01*
X84973Y-60794D01*
X85682Y-60794D01*
X85733Y-60773D01*
X85772Y-60733D01*
X85794Y-60682D01*
X85794Y-60626D01*
X85794Y-59917D01*
X85773Y-59866D01*
X85733Y-59827D01*
X85682Y-59805D01*
X85626Y-59805D01*
X84940Y-59805D01*
X84940Y-59794D01*
X84973Y-59794D01*
X85682Y-59794D01*
X85733Y-59773D01*
X85772Y-59733D01*
X85794Y-59682D01*
X85794Y-59626D01*
X85794Y-58917D01*
X85773Y-58866D01*
X85733Y-58827D01*
X85682Y-58805D01*
X85626Y-58805D01*
X84940Y-58805D01*
X84940Y-58794D01*
X84973Y-58794D01*
X85682Y-58794D01*
X85733Y-58773D01*
X85772Y-58733D01*
X85794Y-58682D01*
X85794Y-58626D01*
X85794Y-57917D01*
X85773Y-57866D01*
X85733Y-57827D01*
X85682Y-57805D01*
X85626Y-57805D01*
X84940Y-57805D01*
X84940Y-57794D01*
X84973Y-57794D01*
X85682Y-57794D01*
X85733Y-57773D01*
X85772Y-57733D01*
X85794Y-57682D01*
X85794Y-57626D01*
X85794Y-56917D01*
X85773Y-56866D01*
X85733Y-56827D01*
X85682Y-56805D01*
X85626Y-56805D01*
X84940Y-56805D01*
X84940Y-56794D01*
X84973Y-56794D01*
X85682Y-56794D01*
X85733Y-56773D01*
X85772Y-56733D01*
X85794Y-56682D01*
X85794Y-56626D01*
X85794Y-55917D01*
X85773Y-55866D01*
X85733Y-55827D01*
X85682Y-55805D01*
X85626Y-55805D01*
X84940Y-55805D01*
X84940Y-55794D01*
X84973Y-55794D01*
X85682Y-55794D01*
X85733Y-55773D01*
X85772Y-55733D01*
X85794Y-55682D01*
X85794Y-55626D01*
X85794Y-54917D01*
X85773Y-54866D01*
X85733Y-54827D01*
X85682Y-54805D01*
X85626Y-54805D01*
X84940Y-54805D01*
X84940Y-54794D01*
X84973Y-54794D01*
X85682Y-54794D01*
X85733Y-54773D01*
X85772Y-54733D01*
X85794Y-54682D01*
X85794Y-54626D01*
X85794Y-53917D01*
X85773Y-53866D01*
X85733Y-53827D01*
X85682Y-53805D01*
X85626Y-53805D01*
X84940Y-53805D01*
X84940Y-52700D01*
X84940Y-49000D01*
X84940Y-47000D01*
X84940Y-45000D01*
X84940Y-43000D01*
X84940Y-41794D01*
X84973Y-41794D01*
X85682Y-41794D01*
X85733Y-41773D01*
X85772Y-41733D01*
X85794Y-41682D01*
X85794Y-41626D01*
X85794Y-40917D01*
X85773Y-40866D01*
X85733Y-40827D01*
X85682Y-40805D01*
X85626Y-40805D01*
X84940Y-40805D01*
X84940Y-40794D01*
X84973Y-40794D01*
X85682Y-40794D01*
X85733Y-40773D01*
X85772Y-40733D01*
X85794Y-40682D01*
X85794Y-40626D01*
X85794Y-39917D01*
X85773Y-39866D01*
X85733Y-39827D01*
X85682Y-39805D01*
X85626Y-39805D01*
X84940Y-39805D01*
X84940Y-39794D01*
X84973Y-39794D01*
X85682Y-39794D01*
X85733Y-39773D01*
X85772Y-39733D01*
X85794Y-39682D01*
X85794Y-39626D01*
X85794Y-38917D01*
X85773Y-38866D01*
X85733Y-38827D01*
X85682Y-38805D01*
X85626Y-38805D01*
X84940Y-38805D01*
X84940Y-38794D01*
X84973Y-38794D01*
X85682Y-38794D01*
X85733Y-38773D01*
X85772Y-38733D01*
X85794Y-38682D01*
X85794Y-38626D01*
X85794Y-37917D01*
X85773Y-37866D01*
X85733Y-37827D01*
X85682Y-37805D01*
X85626Y-37805D01*
X84940Y-37805D01*
X84940Y-37794D01*
X84973Y-37794D01*
X85682Y-37794D01*
X85733Y-37773D01*
X85772Y-37733D01*
X85794Y-37682D01*
X85794Y-37626D01*
X85794Y-36917D01*
X85773Y-36866D01*
X85733Y-36827D01*
X85682Y-36805D01*
X85626Y-36805D01*
X84940Y-36805D01*
X84940Y-36794D01*
X84973Y-36794D01*
X85682Y-36794D01*
X85733Y-36773D01*
X85772Y-36733D01*
X85794Y-36682D01*
X85794Y-36626D01*
X85794Y-35917D01*
X85773Y-35866D01*
X85733Y-35827D01*
X85682Y-35805D01*
X85626Y-35805D01*
X84940Y-35805D01*
X84940Y-35794D01*
X84973Y-35794D01*
X85682Y-35794D01*
X85733Y-35773D01*
X85772Y-35733D01*
X85794Y-35682D01*
X85794Y-35626D01*
X85794Y-34917D01*
X85773Y-34866D01*
X85733Y-34827D01*
X85682Y-34805D01*
X85626Y-34805D01*
X84940Y-34805D01*
X84940Y-34794D01*
X84973Y-34794D01*
X85682Y-34794D01*
X85733Y-34773D01*
X85772Y-34733D01*
X85794Y-34682D01*
X85794Y-34626D01*
X85794Y-33917D01*
X85773Y-33866D01*
X85733Y-33827D01*
X85682Y-33805D01*
X85626Y-33805D01*
X84940Y-33805D01*
X84940Y-33300D01*
X84940Y-30000D01*
X84940Y-28000D01*
X84940Y-26000D01*
X84940Y-24000D01*
X84940Y-22994D01*
X84973Y-22994D01*
X85682Y-22994D01*
X85733Y-22973D01*
X85772Y-22933D01*
X85794Y-22882D01*
X85794Y-22826D01*
X85794Y-22117D01*
X85773Y-22066D01*
X85733Y-22027D01*
X85682Y-22005D01*
X85626Y-22005D01*
X84940Y-22005D01*
X84940Y-21994D01*
X84973Y-21994D01*
X85682Y-21994D01*
X85733Y-21973D01*
X85772Y-21933D01*
X85794Y-21882D01*
X85794Y-21826D01*
X85794Y-21117D01*
X85773Y-21066D01*
X85733Y-21027D01*
X85682Y-21005D01*
X85626Y-21005D01*
X84940Y-21005D01*
X84940Y-20994D01*
X84973Y-20994D01*
X85682Y-20994D01*
X85733Y-20973D01*
X85772Y-20933D01*
X85794Y-20882D01*
X85794Y-20826D01*
X85794Y-20117D01*
X85773Y-20066D01*
X85733Y-20027D01*
X85682Y-20005D01*
X85626Y-20005D01*
X84940Y-20005D01*
X84940Y-19994D01*
X84973Y-19994D01*
X85682Y-19994D01*
X85733Y-19973D01*
X85772Y-19933D01*
X85794Y-19882D01*
X85794Y-19826D01*
X85794Y-19117D01*
X85773Y-19066D01*
X85733Y-19027D01*
X85682Y-19005D01*
X85626Y-19005D01*
X84940Y-19005D01*
X84940Y-18994D01*
X84973Y-18994D01*
X85682Y-18994D01*
X85733Y-18973D01*
X85772Y-18933D01*
X85794Y-18882D01*
X85794Y-18826D01*
X85794Y-18117D01*
X85773Y-18066D01*
X85733Y-18027D01*
X85682Y-18005D01*
X85626Y-18005D01*
X84940Y-18005D01*
X84940Y-17994D01*
X84973Y-17994D01*
X85682Y-17994D01*
X85733Y-17973D01*
X85772Y-17933D01*
X85794Y-17882D01*
X85794Y-17826D01*
X85794Y-17117D01*
X85773Y-17066D01*
X85733Y-17027D01*
X85682Y-17005D01*
X85626Y-17005D01*
X84940Y-17005D01*
X84940Y-16994D01*
X84973Y-16994D01*
X85682Y-16994D01*
X85733Y-16973D01*
X85772Y-16933D01*
X85794Y-16882D01*
X85794Y-16826D01*
X85794Y-16117D01*
X85773Y-16066D01*
X85733Y-16027D01*
X85682Y-16005D01*
X85626Y-16005D01*
X84940Y-16005D01*
X84940Y-16000D01*
X84940Y-15994D01*
X84973Y-15994D01*
X85682Y-15994D01*
X85733Y-15973D01*
X85772Y-15933D01*
X85794Y-15882D01*
X85794Y-15826D01*
X85794Y-15117D01*
X85773Y-15066D01*
X85733Y-15027D01*
X85682Y-15005D01*
X85626Y-15005D01*
X84921Y-15005D01*
X84895Y-14874D01*
X84895Y-14874D01*
X84852Y-14810D01*
X84767Y-14682D01*
X84767Y-14682D01*
X84064Y-13979D01*
X84064Y-12105D01*
X84064Y-11660D01*
X84064Y-11340D01*
X84064Y-10895D01*
X84029Y-10860D01*
X83751Y-10859D01*
X83696Y-10860D01*
X83644Y-10881D01*
X83605Y-10920D01*
X83583Y-10972D01*
X83584Y-11305D01*
X83619Y-11340D01*
X84064Y-11340D01*
X84064Y-11660D01*
X83619Y-11660D01*
X83584Y-11695D01*
X83583Y-12027D01*
X83605Y-12079D01*
X83644Y-12118D01*
X83696Y-12139D01*
X83751Y-12140D01*
X84029Y-12140D01*
X84064Y-12105D01*
X84064Y-13979D01*
X83340Y-13255D01*
X83340Y-12107D01*
X83368Y-12079D01*
X83389Y-12027D01*
X83390Y-11972D01*
X83390Y-10972D01*
X83368Y-10920D01*
X83329Y-10881D01*
X83277Y-10860D01*
X83222Y-10859D01*
X82222Y-10859D01*
X82170Y-10881D01*
X82131Y-10920D01*
X82110Y-10972D01*
X82109Y-11027D01*
X82109Y-12027D01*
X82131Y-12079D01*
X82160Y-12108D01*
X82160Y-13110D01*
X81800Y-13110D01*
X81689Y-13132D01*
X81680Y-13138D01*
X81571Y-13182D01*
X81483Y-13271D01*
X81435Y-13387D01*
X81434Y-13512D01*
X81482Y-13628D01*
X81571Y-13716D01*
X81687Y-13764D01*
X81812Y-13765D01*
X81928Y-13717D01*
X81955Y-13690D01*
X82197Y-13690D01*
X82197Y-13690D01*
X82204Y-13725D01*
X82332Y-13917D01*
X83760Y-15344D01*
X83760Y-15710D01*
X83150Y-15710D01*
X83149Y-15710D01*
X83131Y-15713D01*
X83039Y-15732D01*
X82944Y-15794D01*
X82944Y-15794D01*
X82944Y-15794D01*
X82631Y-16107D01*
X82571Y-16132D01*
X82483Y-16221D01*
X82435Y-16337D01*
X82434Y-16462D01*
X82482Y-16578D01*
X82571Y-16666D01*
X82687Y-16714D01*
X82812Y-16715D01*
X82928Y-16667D01*
X83016Y-16578D01*
X83042Y-16518D01*
X83270Y-16290D01*
X83760Y-16290D01*
X83760Y-18110D01*
X82623Y-18110D01*
X82562Y-18085D01*
X82437Y-18084D01*
X82321Y-18132D01*
X82233Y-18221D01*
X82185Y-18337D01*
X82184Y-18462D01*
X82232Y-18578D01*
X82321Y-18666D01*
X82437Y-18714D01*
X82562Y-18715D01*
X82623Y-18690D01*
X83760Y-18690D01*
X83760Y-20110D01*
X82523Y-20110D01*
X82462Y-20085D01*
X82337Y-20084D01*
X82221Y-20132D01*
X82133Y-20221D01*
X82085Y-20337D01*
X82084Y-20462D01*
X82132Y-20578D01*
X82221Y-20666D01*
X82337Y-20714D01*
X82462Y-20715D01*
X82523Y-20690D01*
X83760Y-20690D01*
X83760Y-23710D01*
X82423Y-23710D01*
X82362Y-23685D01*
X82237Y-23684D01*
X82121Y-23732D01*
X82033Y-23821D01*
X81985Y-23937D01*
X81984Y-24062D01*
X82032Y-24178D01*
X82121Y-24266D01*
X82237Y-24314D01*
X82362Y-24315D01*
X82423Y-24290D01*
X83760Y-24290D01*
X83760Y-25710D01*
X82573Y-25710D01*
X82512Y-25685D01*
X82387Y-25684D01*
X82271Y-25732D01*
X82183Y-25821D01*
X82135Y-25937D01*
X82134Y-26062D01*
X82182Y-26178D01*
X82271Y-26266D01*
X82387Y-26314D01*
X82512Y-26315D01*
X82573Y-26290D01*
X83760Y-26290D01*
X83760Y-27710D01*
X82573Y-27710D01*
X82512Y-27685D01*
X82387Y-27684D01*
X82271Y-27732D01*
X82183Y-27821D01*
X82135Y-27937D01*
X82134Y-28062D01*
X82182Y-28178D01*
X82271Y-28266D01*
X82387Y-28314D01*
X82512Y-28315D01*
X82573Y-28290D01*
X83760Y-28290D01*
X83760Y-29710D01*
X82573Y-29710D01*
X82512Y-29685D01*
X82387Y-29684D01*
X82271Y-29732D01*
X82183Y-29821D01*
X82135Y-29937D01*
X82134Y-30062D01*
X82182Y-30178D01*
X82271Y-30266D01*
X82387Y-30314D01*
X82512Y-30315D01*
X82573Y-30290D01*
X83760Y-30290D01*
X83760Y-33010D01*
X82523Y-33010D01*
X82462Y-32985D01*
X82337Y-32984D01*
X82221Y-33032D01*
X82133Y-33121D01*
X82085Y-33237D01*
X82084Y-33362D01*
X82132Y-33478D01*
X82221Y-33566D01*
X82337Y-33614D01*
X82462Y-33615D01*
X82523Y-33590D01*
X83760Y-33590D01*
X83760Y-35010D01*
X82523Y-35010D01*
X82462Y-34985D01*
X82337Y-34984D01*
X82221Y-35032D01*
X82133Y-35121D01*
X82085Y-35237D01*
X82084Y-35362D01*
X82132Y-35478D01*
X82221Y-35566D01*
X82337Y-35614D01*
X82462Y-35615D01*
X82523Y-35590D01*
X83760Y-35590D01*
X83760Y-37010D01*
X82573Y-37010D01*
X82512Y-36985D01*
X82387Y-36984D01*
X82271Y-37032D01*
X82183Y-37121D01*
X82135Y-37237D01*
X82134Y-37362D01*
X82182Y-37478D01*
X82271Y-37566D01*
X82387Y-37614D01*
X82512Y-37615D01*
X82573Y-37590D01*
X83760Y-37590D01*
X83760Y-39010D01*
X82573Y-39010D01*
X82512Y-38985D01*
X82387Y-38984D01*
X82271Y-39032D01*
X82183Y-39121D01*
X82135Y-39237D01*
X82134Y-39362D01*
X82182Y-39478D01*
X82271Y-39566D01*
X82387Y-39614D01*
X82512Y-39615D01*
X82573Y-39590D01*
X83760Y-39590D01*
X83760Y-42710D01*
X82623Y-42710D01*
X82562Y-42685D01*
X82437Y-42684D01*
X82321Y-42732D01*
X82233Y-42821D01*
X82185Y-42937D01*
X82184Y-43062D01*
X82232Y-43178D01*
X82321Y-43266D01*
X82437Y-43314D01*
X82562Y-43315D01*
X82623Y-43290D01*
X83760Y-43290D01*
X83760Y-44710D01*
X82673Y-44710D01*
X82612Y-44685D01*
X82487Y-44684D01*
X82371Y-44732D01*
X82283Y-44821D01*
X82235Y-44937D01*
X82234Y-45062D01*
X82282Y-45178D01*
X82371Y-45266D01*
X82487Y-45314D01*
X82612Y-45315D01*
X82673Y-45290D01*
X83760Y-45290D01*
X83760Y-46710D01*
X82673Y-46710D01*
X82612Y-46685D01*
X82487Y-46684D01*
X82371Y-46732D01*
X82283Y-46821D01*
X82235Y-46937D01*
X82234Y-47062D01*
X82282Y-47178D01*
X82371Y-47266D01*
X82487Y-47314D01*
X82612Y-47315D01*
X82673Y-47290D01*
X83760Y-47290D01*
X83760Y-48710D01*
X82673Y-48710D01*
X82612Y-48685D01*
X82487Y-48684D01*
X82371Y-48732D01*
X82283Y-48821D01*
X82235Y-48937D01*
X82234Y-49062D01*
X82282Y-49178D01*
X82371Y-49266D01*
X82487Y-49314D01*
X82612Y-49315D01*
X82673Y-49290D01*
X83760Y-49290D01*
X83760Y-52410D01*
X83396Y-52410D01*
X83335Y-52348D01*
X83182Y-52285D01*
X83017Y-52284D01*
X82865Y-52347D01*
X82748Y-52464D01*
X82685Y-52617D01*
X82684Y-52782D01*
X82747Y-52934D01*
X82864Y-53051D01*
X83017Y-53114D01*
X83182Y-53115D01*
X83334Y-53052D01*
X83396Y-52990D01*
X83760Y-52990D01*
X83760Y-54660D01*
X83396Y-54660D01*
X83335Y-54598D01*
X83182Y-54535D01*
X83017Y-54534D01*
X82865Y-54597D01*
X82748Y-54714D01*
X82685Y-54867D01*
X82684Y-55032D01*
X82747Y-55184D01*
X82864Y-55301D01*
X83017Y-55364D01*
X83182Y-55365D01*
X83334Y-55302D01*
X83396Y-55240D01*
X83760Y-55240D01*
X83760Y-56610D01*
X83346Y-56610D01*
X83285Y-56548D01*
X83132Y-56485D01*
X82967Y-56484D01*
X82815Y-56547D01*
X82698Y-56664D01*
X82635Y-56817D01*
X82634Y-56982D01*
X82697Y-57134D01*
X82814Y-57251D01*
X82967Y-57314D01*
X83132Y-57315D01*
X83284Y-57252D01*
X83346Y-57190D01*
X83760Y-57190D01*
X83760Y-58560D01*
X83346Y-58560D01*
X83285Y-58498D01*
X83132Y-58435D01*
X82967Y-58434D01*
X82815Y-58497D01*
X82698Y-58614D01*
X82635Y-58767D01*
X82634Y-58932D01*
X82697Y-59084D01*
X82814Y-59201D01*
X82967Y-59264D01*
X83132Y-59265D01*
X83284Y-59202D01*
X83346Y-59140D01*
X83760Y-59140D01*
X83760Y-62060D01*
X83296Y-62060D01*
X83185Y-61948D01*
X83032Y-61885D01*
X82867Y-61884D01*
X82715Y-61947D01*
X82598Y-62064D01*
X82535Y-62217D01*
X82534Y-62382D01*
X82597Y-62534D01*
X82714Y-62651D01*
X82867Y-62714D01*
X83032Y-62715D01*
X83184Y-62652D01*
X83196Y-62640D01*
X83760Y-62640D01*
X83760Y-64260D01*
X83296Y-64260D01*
X83235Y-64198D01*
X83082Y-64135D01*
X82917Y-64134D01*
X82765Y-64197D01*
X82648Y-64314D01*
X82585Y-64467D01*
X82584Y-64632D01*
X82647Y-64784D01*
X82764Y-64901D01*
X82917Y-64964D01*
X83082Y-64965D01*
X83234Y-64902D01*
X83296Y-64840D01*
X83760Y-64840D01*
X83760Y-66210D01*
X83346Y-66210D01*
X83285Y-66148D01*
X83132Y-66085D01*
X82967Y-66084D01*
X82815Y-66147D01*
X82698Y-66264D01*
X82635Y-66417D01*
X82634Y-66582D01*
X82697Y-66734D01*
X82814Y-66851D01*
X82967Y-66914D01*
X83132Y-66915D01*
X83284Y-66852D01*
X83346Y-66790D01*
X83760Y-66790D01*
X83760Y-68210D01*
X83396Y-68210D01*
X83335Y-68148D01*
X83182Y-68085D01*
X83017Y-68084D01*
X82865Y-68147D01*
X82748Y-68264D01*
X82685Y-68417D01*
X82684Y-68582D01*
X82747Y-68734D01*
X82864Y-68851D01*
X83017Y-68914D01*
X83182Y-68915D01*
X83334Y-68852D01*
X83396Y-68790D01*
X83760Y-68790D01*
X83760Y-71510D01*
X83396Y-71510D01*
X83335Y-71448D01*
X83182Y-71385D01*
X83017Y-71384D01*
X82865Y-71447D01*
X82748Y-71564D01*
X82685Y-71717D01*
X82684Y-71882D01*
X82747Y-72034D01*
X82864Y-72151D01*
X83017Y-72214D01*
X83182Y-72215D01*
X83334Y-72152D01*
X83396Y-72090D01*
X83760Y-72090D01*
X83760Y-73760D01*
X83396Y-73760D01*
X83335Y-73698D01*
X83182Y-73635D01*
X83017Y-73634D01*
X82865Y-73697D01*
X82748Y-73814D01*
X82685Y-73967D01*
X82684Y-74132D01*
X82747Y-74284D01*
X82864Y-74401D01*
X83017Y-74464D01*
X83182Y-74465D01*
X83334Y-74402D01*
X83396Y-74340D01*
X83760Y-74340D01*
X83760Y-75760D01*
X83396Y-75760D01*
X83335Y-75698D01*
X83182Y-75635D01*
X83017Y-75634D01*
X82865Y-75697D01*
X82748Y-75814D01*
X82685Y-75967D01*
X82684Y-76132D01*
X82747Y-76284D01*
X82864Y-76401D01*
X83017Y-76464D01*
X83182Y-76465D01*
X83334Y-76402D01*
X83396Y-76340D01*
X83760Y-76340D01*
X83760Y-77760D01*
X83296Y-77760D01*
X83235Y-77698D01*
X83082Y-77635D01*
X82917Y-77634D01*
X82765Y-77697D01*
X82648Y-77814D01*
X82585Y-77967D01*
X82584Y-78132D01*
X82647Y-78284D01*
X82764Y-78401D01*
X82917Y-78464D01*
X83082Y-78465D01*
X83234Y-78402D01*
X83296Y-78340D01*
X83760Y-78340D01*
X83760Y-81310D01*
X83296Y-81310D01*
X83235Y-81248D01*
X83082Y-81185D01*
X82917Y-81184D01*
X82765Y-81247D01*
X82648Y-81364D01*
X82585Y-81517D01*
X82584Y-81682D01*
X82647Y-81834D01*
X82764Y-81951D01*
X82917Y-82014D01*
X83082Y-82015D01*
X83234Y-81952D01*
X83296Y-81890D01*
X83760Y-81890D01*
X83760Y-83510D01*
X83346Y-83510D01*
X83285Y-83448D01*
X83132Y-83385D01*
X82967Y-83384D01*
X82815Y-83447D01*
X82698Y-83564D01*
X82635Y-83717D01*
X82634Y-83882D01*
X82697Y-84034D01*
X82814Y-84151D01*
X82967Y-84214D01*
X83132Y-84215D01*
X83284Y-84152D01*
X83346Y-84090D01*
X83760Y-84090D01*
X83760Y-85610D01*
X83296Y-85610D01*
X83235Y-85548D01*
X83082Y-85485D01*
X82917Y-85484D01*
X82765Y-85547D01*
X82648Y-85664D01*
X82585Y-85817D01*
X82584Y-85982D01*
X82647Y-86134D01*
X82764Y-86251D01*
X82917Y-86314D01*
X83082Y-86315D01*
X83234Y-86252D01*
X83296Y-86190D01*
X83847Y-86190D01*
X83932Y-86317D01*
X84060Y-86402D01*
X84060Y-87410D01*
X83242Y-87410D01*
X83182Y-87385D01*
X83017Y-87384D01*
X82865Y-87447D01*
X82748Y-87564D01*
X82685Y-87717D01*
X82684Y-87882D01*
X82747Y-88034D01*
X82864Y-88151D01*
X83017Y-88214D01*
X83182Y-88215D01*
X83334Y-88152D01*
X83451Y-88035D01*
X83470Y-87990D01*
X84350Y-87990D01*
X84460Y-87967D01*
X84555Y-87905D01*
X84617Y-87810D01*
X84640Y-87700D01*
X84640Y-86402D01*
X84767Y-86317D01*
X84895Y-86125D01*
X84940Y-85900D01*
X84940Y-83800D01*
X84940Y-81600D01*
X84940Y-81494D01*
X84973Y-81494D01*
X85682Y-81494D01*
X85733Y-81473D01*
X85772Y-81433D01*
X85794Y-81382D01*
X85794Y-81326D01*
X85794Y-90060D01*
X85640Y-90060D01*
X85640Y-89073D01*
X85542Y-88837D01*
X85363Y-88657D01*
X85127Y-88560D01*
X84873Y-88559D01*
X84637Y-88657D01*
X84457Y-88836D01*
X84360Y-89072D01*
X84359Y-89326D01*
X84457Y-89562D01*
X84636Y-89742D01*
X84872Y-89839D01*
X85126Y-89840D01*
X85362Y-89742D01*
X85542Y-89563D01*
X85639Y-89327D01*
X85640Y-89073D01*
X85640Y-90060D01*
X79639Y-90060D01*
X79543Y-12790D01*
X80740Y-12790D01*
X80740Y-10639D01*
X85910Y-10639D01*
X85910Y-90060D01*
G54D10*
G36*
X74960Y-57221D02*
X74715Y-57465D01*
X74674Y-57527D01*
X74660Y-57600D01*
X74660Y-57764D01*
X74628Y-57733D01*
X74512Y-57685D01*
X74387Y-57684D01*
X74271Y-57732D01*
X74190Y-57814D01*
X74190Y-54278D01*
X74753Y-53714D01*
X74862Y-53715D01*
X74960Y-53674D01*
X74960Y-57221D01*
X74960Y-57221D01*
G37*
G54D20*
X74960Y-57221D02*
X74715Y-57465D01*
X74674Y-57527D01*
X74660Y-57600D01*
X74660Y-57764D01*
X74628Y-57733D01*
X74512Y-57685D01*
X74387Y-57684D01*
X74271Y-57732D01*
X74190Y-57814D01*
X74190Y-54278D01*
X74753Y-53714D01*
X74862Y-53715D01*
X74960Y-53674D01*
X74960Y-57221D01*
G54D10*
G36*
X75060Y-72464D02*
X74978Y-72383D01*
X74862Y-72335D01*
X74737Y-72334D01*
X74621Y-72382D01*
X74533Y-72471D01*
X74485Y-72587D01*
X74484Y-72696D01*
X73990Y-73191D01*
X73990Y-70378D01*
X74050Y-70390D01*
X74471Y-70390D01*
X75060Y-70978D01*
X75060Y-72464D01*
X75060Y-72464D01*
G37*
G54D20*
X75060Y-72464D02*
X74978Y-72383D01*
X74862Y-72335D01*
X74737Y-72334D01*
X74621Y-72382D01*
X74533Y-72471D01*
X74485Y-72587D01*
X74484Y-72696D01*
X73990Y-73191D01*
X73990Y-70378D01*
X74050Y-70390D01*
X74471Y-70390D01*
X75060Y-70978D01*
X75060Y-72464D01*
G54D10*
G36*
X75714Y-60883D02*
X75304Y-61294D01*
X75116Y-61294D01*
X74927Y-61294D01*
X74927Y-61282D01*
X74927Y-61117D01*
X74920Y-61100D01*
X74927Y-61082D01*
X74927Y-61048D01*
X74892Y-61013D01*
X74834Y-61013D01*
X74815Y-61005D01*
X74759Y-61005D01*
X74180Y-61005D01*
X74161Y-61013D01*
X74103Y-61013D01*
X74078Y-61038D01*
X74056Y-61038D01*
X73990Y-60971D01*
X73990Y-60558D01*
X74025Y-60594D01*
X74025Y-60594D01*
X74068Y-60622D01*
X74068Y-60661D01*
X74068Y-60826D01*
X74075Y-60844D01*
X74068Y-60861D01*
X74068Y-60895D01*
X74103Y-60930D01*
X74161Y-60930D01*
X74180Y-60938D01*
X74236Y-60938D01*
X74815Y-60938D01*
X74834Y-60930D01*
X74892Y-60930D01*
X74917Y-60906D01*
X74934Y-60906D01*
X75006Y-60891D01*
X75068Y-60850D01*
X75234Y-60684D01*
X75275Y-60622D01*
X75290Y-60550D01*
X75290Y-60445D01*
X75315Y-60484D01*
X75714Y-60883D01*
X75714Y-60883D01*
G37*
G54D20*
X75714Y-60883D02*
X75304Y-61294D01*
X75116Y-61294D01*
X74927Y-61294D01*
X74927Y-61282D01*
X74927Y-61117D01*
X74920Y-61100D01*
X74927Y-61082D01*
X74927Y-61048D01*
X74892Y-61013D01*
X74834Y-61013D01*
X74815Y-61005D01*
X74759Y-61005D01*
X74180Y-61005D01*
X74161Y-61013D01*
X74103Y-61013D01*
X74078Y-61038D01*
X74056Y-61038D01*
X73990Y-60971D01*
X73990Y-60558D01*
X74025Y-60594D01*
X74025Y-60594D01*
X74068Y-60622D01*
X74068Y-60661D01*
X74068Y-60826D01*
X74075Y-60844D01*
X74068Y-60861D01*
X74068Y-60895D01*
X74103Y-60930D01*
X74161Y-60930D01*
X74180Y-60938D01*
X74236Y-60938D01*
X74815Y-60938D01*
X74834Y-60930D01*
X74892Y-60930D01*
X74917Y-60906D01*
X74934Y-60906D01*
X75006Y-60891D01*
X75068Y-60850D01*
X75234Y-60684D01*
X75275Y-60622D01*
X75290Y-60550D01*
X75290Y-60445D01*
X75315Y-60484D01*
X75714Y-60883D01*
G54D10*
G36*
X75746Y-41234D02*
X75737Y-41234D01*
X75621Y-41282D01*
X75533Y-41371D01*
X75485Y-41487D01*
X75484Y-41612D01*
X75532Y-41728D01*
X75539Y-41734D01*
X75263Y-42010D01*
X75100Y-42010D01*
X75099Y-42010D01*
X75085Y-42012D01*
X75054Y-42019D01*
X74927Y-42019D01*
X74927Y-42007D01*
X74927Y-41842D01*
X74920Y-41825D01*
X74927Y-41807D01*
X74927Y-41773D01*
X74892Y-41738D01*
X74834Y-41738D01*
X74815Y-41730D01*
X74759Y-41730D01*
X74180Y-41730D01*
X74161Y-41738D01*
X74103Y-41738D01*
X74078Y-41763D01*
X74053Y-41763D01*
X74031Y-41763D01*
X73990Y-41721D01*
X73990Y-41600D01*
X73990Y-37212D01*
X74861Y-38131D01*
X74865Y-38133D01*
X74865Y-38134D01*
X75009Y-38278D01*
X75009Y-39871D01*
X74865Y-40015D01*
X74824Y-40077D01*
X74814Y-40124D01*
X74815Y-40037D01*
X74767Y-39921D01*
X74678Y-39833D01*
X74562Y-39785D01*
X74437Y-39784D01*
X74321Y-39832D01*
X74233Y-39921D01*
X74185Y-40037D01*
X74184Y-40162D01*
X74232Y-40278D01*
X74310Y-40355D01*
X74310Y-40710D01*
X74182Y-40710D01*
X74131Y-40731D01*
X74091Y-40771D01*
X74070Y-40822D01*
X74070Y-40878D01*
X74070Y-41043D01*
X74076Y-41058D01*
X74070Y-41074D01*
X74070Y-41130D01*
X74070Y-41295D01*
X74076Y-41310D01*
X74068Y-41330D01*
X74068Y-41386D01*
X74068Y-41551D01*
X74075Y-41569D01*
X74068Y-41586D01*
X74068Y-41620D01*
X74103Y-41655D01*
X74161Y-41655D01*
X74180Y-41663D01*
X74236Y-41663D01*
X74815Y-41663D01*
X74834Y-41655D01*
X74892Y-41655D01*
X74919Y-41628D01*
X74981Y-41616D01*
X75043Y-41575D01*
X75735Y-40883D01*
X75735Y-41175D01*
X75746Y-41234D01*
X75746Y-41234D01*
G37*
G54D20*
X75746Y-41234D02*
X75737Y-41234D01*
X75621Y-41282D01*
X75533Y-41371D01*
X75485Y-41487D01*
X75484Y-41612D01*
X75532Y-41728D01*
X75539Y-41734D01*
X75263Y-42010D01*
X75100Y-42010D01*
X75099Y-42010D01*
X75085Y-42012D01*
X75054Y-42019D01*
X74927Y-42019D01*
X74927Y-42007D01*
X74927Y-41842D01*
X74920Y-41825D01*
X74927Y-41807D01*
X74927Y-41773D01*
X74892Y-41738D01*
X74834Y-41738D01*
X74815Y-41730D01*
X74759Y-41730D01*
X74180Y-41730D01*
X74161Y-41738D01*
X74103Y-41738D01*
X74078Y-41763D01*
X74053Y-41763D01*
X74031Y-41763D01*
X73990Y-41721D01*
X73990Y-41600D01*
X73990Y-37212D01*
X74861Y-38131D01*
X74865Y-38133D01*
X74865Y-38134D01*
X75009Y-38278D01*
X75009Y-39871D01*
X74865Y-40015D01*
X74824Y-40077D01*
X74814Y-40124D01*
X74815Y-40037D01*
X74767Y-39921D01*
X74678Y-39833D01*
X74562Y-39785D01*
X74437Y-39784D01*
X74321Y-39832D01*
X74233Y-39921D01*
X74185Y-40037D01*
X74184Y-40162D01*
X74232Y-40278D01*
X74310Y-40355D01*
X74310Y-40710D01*
X74182Y-40710D01*
X74131Y-40731D01*
X74091Y-40771D01*
X74070Y-40822D01*
X74070Y-40878D01*
X74070Y-41043D01*
X74076Y-41058D01*
X74070Y-41074D01*
X74070Y-41130D01*
X74070Y-41295D01*
X74076Y-41310D01*
X74068Y-41330D01*
X74068Y-41386D01*
X74068Y-41551D01*
X74075Y-41569D01*
X74068Y-41586D01*
X74068Y-41620D01*
X74103Y-41655D01*
X74161Y-41655D01*
X74180Y-41663D01*
X74236Y-41663D01*
X74815Y-41663D01*
X74834Y-41655D01*
X74892Y-41655D01*
X74919Y-41628D01*
X74981Y-41616D01*
X75043Y-41575D01*
X75735Y-40883D01*
X75735Y-41175D01*
X75746Y-41234D01*
G54D10*
G36*
X75910Y-79938D02*
X75454Y-80394D01*
X75366Y-80394D01*
X75027Y-80394D01*
X75027Y-80382D01*
X75027Y-80217D01*
X75020Y-80200D01*
X75027Y-80182D01*
X75027Y-80148D01*
X74992Y-80113D01*
X74934Y-80113D01*
X74915Y-80105D01*
X74859Y-80105D01*
X74280Y-80105D01*
X74261Y-80113D01*
X74203Y-80113D01*
X74178Y-80138D01*
X74156Y-80138D01*
X73990Y-79971D01*
X73990Y-79558D01*
X74125Y-79694D01*
X74125Y-79694D01*
X74168Y-79722D01*
X74168Y-79761D01*
X74168Y-79926D01*
X74175Y-79944D01*
X74168Y-79961D01*
X74168Y-79995D01*
X74203Y-80030D01*
X74261Y-80030D01*
X74280Y-80038D01*
X74336Y-80038D01*
X74915Y-80038D01*
X74934Y-80030D01*
X74992Y-80030D01*
X75017Y-80006D01*
X75034Y-80006D01*
X75106Y-79991D01*
X75168Y-79950D01*
X75334Y-79784D01*
X75375Y-79722D01*
X75390Y-79650D01*
X75390Y-78950D01*
X75375Y-78877D01*
X75334Y-78815D01*
X74659Y-78140D01*
X74659Y-78140D01*
X74490Y-77971D01*
X74490Y-77900D01*
X74490Y-75064D01*
X74562Y-75065D01*
X74678Y-75017D01*
X74766Y-74928D01*
X74814Y-74812D01*
X74815Y-74687D01*
X74767Y-74571D01*
X74678Y-74483D01*
X74562Y-74435D01*
X74437Y-74434D01*
X74321Y-74482D01*
X74290Y-74514D01*
X74290Y-73428D01*
X74753Y-72964D01*
X74862Y-72965D01*
X74978Y-72917D01*
X75060Y-72835D01*
X75060Y-77250D01*
X75074Y-77322D01*
X75115Y-77384D01*
X75610Y-77878D01*
X75610Y-79500D01*
X75624Y-79572D01*
X75665Y-79634D01*
X75910Y-79878D01*
X75910Y-79938D01*
X75910Y-79938D01*
G37*
G54D20*
X75910Y-79938D02*
X75454Y-80394D01*
X75366Y-80394D01*
X75027Y-80394D01*
X75027Y-80382D01*
X75027Y-80217D01*
X75020Y-80200D01*
X75027Y-80182D01*
X75027Y-80148D01*
X74992Y-80113D01*
X74934Y-80113D01*
X74915Y-80105D01*
X74859Y-80105D01*
X74280Y-80105D01*
X74261Y-80113D01*
X74203Y-80113D01*
X74178Y-80138D01*
X74156Y-80138D01*
X73990Y-79971D01*
X73990Y-79558D01*
X74125Y-79694D01*
X74125Y-79694D01*
X74168Y-79722D01*
X74168Y-79761D01*
X74168Y-79926D01*
X74175Y-79944D01*
X74168Y-79961D01*
X74168Y-79995D01*
X74203Y-80030D01*
X74261Y-80030D01*
X74280Y-80038D01*
X74336Y-80038D01*
X74915Y-80038D01*
X74934Y-80030D01*
X74992Y-80030D01*
X75017Y-80006D01*
X75034Y-80006D01*
X75106Y-79991D01*
X75168Y-79950D01*
X75334Y-79784D01*
X75375Y-79722D01*
X75390Y-79650D01*
X75390Y-78950D01*
X75375Y-78877D01*
X75334Y-78815D01*
X74659Y-78140D01*
X74659Y-78140D01*
X74490Y-77971D01*
X74490Y-77900D01*
X74490Y-75064D01*
X74562Y-75065D01*
X74678Y-75017D01*
X74766Y-74928D01*
X74814Y-74812D01*
X74815Y-74687D01*
X74767Y-74571D01*
X74678Y-74483D01*
X74562Y-74435D01*
X74437Y-74434D01*
X74321Y-74482D01*
X74290Y-74514D01*
X74290Y-73428D01*
X74753Y-72964D01*
X74862Y-72965D01*
X74978Y-72917D01*
X75060Y-72835D01*
X75060Y-77250D01*
X75074Y-77322D01*
X75115Y-77384D01*
X75610Y-77878D01*
X75610Y-79500D01*
X75624Y-79572D01*
X75665Y-79634D01*
X75910Y-79878D01*
X75910Y-79938D01*
G54D10*
G36*
X76109Y-77241D02*
X76014Y-77146D01*
X76015Y-77037D01*
X75967Y-76921D01*
X75878Y-76833D01*
X75762Y-76785D01*
X75637Y-76784D01*
X75521Y-76832D01*
X75440Y-76914D01*
X75440Y-75224D01*
X75482Y-75328D01*
X75571Y-75416D01*
X75687Y-75464D01*
X75796Y-75465D01*
X76109Y-75778D01*
X76109Y-77241D01*
X76109Y-77241D01*
G37*
G54D20*
X76109Y-77241D02*
X76014Y-77146D01*
X76015Y-77037D01*
X75967Y-76921D01*
X75878Y-76833D01*
X75762Y-76785D01*
X75637Y-76784D01*
X75521Y-76832D01*
X75440Y-76914D01*
X75440Y-75224D01*
X75482Y-75328D01*
X75571Y-75416D01*
X75687Y-75464D01*
X75796Y-75465D01*
X76109Y-75778D01*
X76109Y-77241D01*
G54D10*
G36*
X76160Y-86671D02*
X75921Y-86910D01*
X75673Y-86910D01*
X75612Y-86885D01*
X75487Y-86884D01*
X75371Y-86932D01*
X75283Y-87021D01*
X75240Y-87125D01*
X75240Y-86950D01*
X75239Y-86949D01*
X75240Y-86949D01*
X75237Y-86935D01*
X75225Y-86877D01*
X75225Y-86877D01*
X75184Y-86815D01*
X75184Y-86815D01*
X74040Y-85671D01*
X74040Y-85550D01*
X74040Y-81578D01*
X74300Y-81318D01*
X74336Y-81318D01*
X74910Y-81318D01*
X74910Y-81421D01*
X74446Y-81885D01*
X74337Y-81884D01*
X74221Y-81932D01*
X74133Y-82021D01*
X74085Y-82137D01*
X74084Y-82262D01*
X74132Y-82378D01*
X74221Y-82466D01*
X74337Y-82514D01*
X74462Y-82515D01*
X74578Y-82467D01*
X74666Y-82378D01*
X74714Y-82262D01*
X74715Y-82153D01*
X75234Y-81634D01*
X75234Y-81634D01*
X75234Y-81634D01*
X75275Y-81572D01*
X75290Y-81500D01*
X75289Y-81500D01*
X75290Y-81500D01*
X75290Y-80950D01*
X75275Y-80877D01*
X75234Y-80815D01*
X75192Y-80774D01*
X75366Y-80774D01*
X75509Y-80774D01*
X75509Y-81921D01*
X75446Y-81985D01*
X75337Y-81984D01*
X75221Y-82032D01*
X75133Y-82121D01*
X75085Y-82237D01*
X75084Y-82362D01*
X75132Y-82478D01*
X75221Y-82566D01*
X75337Y-82614D01*
X75462Y-82615D01*
X75578Y-82567D01*
X75666Y-82478D01*
X75709Y-82374D01*
X75709Y-83871D01*
X75596Y-83985D01*
X75487Y-83984D01*
X75371Y-84032D01*
X75283Y-84121D01*
X75235Y-84237D01*
X75234Y-84362D01*
X75282Y-84478D01*
X75371Y-84566D01*
X75487Y-84614D01*
X75612Y-84615D01*
X75728Y-84567D01*
X75816Y-84478D01*
X75864Y-84362D01*
X75865Y-84253D01*
X75910Y-84208D01*
X75910Y-85821D01*
X75621Y-86110D01*
X75605Y-86110D01*
X75528Y-86033D01*
X75412Y-85985D01*
X75287Y-85984D01*
X75171Y-86032D01*
X75083Y-86121D01*
X75035Y-86237D01*
X75034Y-86362D01*
X75082Y-86478D01*
X75171Y-86566D01*
X75287Y-86614D01*
X75412Y-86615D01*
X75528Y-86567D01*
X75605Y-86490D01*
X75700Y-86490D01*
X75772Y-86475D01*
X75834Y-86434D01*
X76160Y-86108D01*
X76160Y-86671D01*
X76160Y-86671D01*
G37*
G54D20*
X76160Y-86671D02*
X75921Y-86910D01*
X75673Y-86910D01*
X75612Y-86885D01*
X75487Y-86884D01*
X75371Y-86932D01*
X75283Y-87021D01*
X75240Y-87125D01*
X75240Y-86950D01*
X75239Y-86949D01*
X75240Y-86949D01*
X75237Y-86935D01*
X75225Y-86877D01*
X75225Y-86877D01*
X75184Y-86815D01*
X75184Y-86815D01*
X74040Y-85671D01*
X74040Y-85550D01*
X74040Y-81578D01*
X74300Y-81318D01*
X74336Y-81318D01*
X74910Y-81318D01*
X74910Y-81421D01*
X74446Y-81885D01*
X74337Y-81884D01*
X74221Y-81932D01*
X74133Y-82021D01*
X74085Y-82137D01*
X74084Y-82262D01*
X74132Y-82378D01*
X74221Y-82466D01*
X74337Y-82514D01*
X74462Y-82515D01*
X74578Y-82467D01*
X74666Y-82378D01*
X74714Y-82262D01*
X74715Y-82153D01*
X75234Y-81634D01*
X75234Y-81634D01*
X75234Y-81634D01*
X75275Y-81572D01*
X75290Y-81500D01*
X75289Y-81500D01*
X75290Y-81500D01*
X75290Y-80950D01*
X75275Y-80877D01*
X75234Y-80815D01*
X75192Y-80774D01*
X75366Y-80774D01*
X75509Y-80774D01*
X75509Y-81921D01*
X75446Y-81985D01*
X75337Y-81984D01*
X75221Y-82032D01*
X75133Y-82121D01*
X75085Y-82237D01*
X75084Y-82362D01*
X75132Y-82478D01*
X75221Y-82566D01*
X75337Y-82614D01*
X75462Y-82615D01*
X75578Y-82567D01*
X75666Y-82478D01*
X75709Y-82374D01*
X75709Y-83871D01*
X75596Y-83985D01*
X75487Y-83984D01*
X75371Y-84032D01*
X75283Y-84121D01*
X75235Y-84237D01*
X75234Y-84362D01*
X75282Y-84478D01*
X75371Y-84566D01*
X75487Y-84614D01*
X75612Y-84615D01*
X75728Y-84567D01*
X75816Y-84478D01*
X75864Y-84362D01*
X75865Y-84253D01*
X75910Y-84208D01*
X75910Y-85821D01*
X75621Y-86110D01*
X75605Y-86110D01*
X75528Y-86033D01*
X75412Y-85985D01*
X75287Y-85984D01*
X75171Y-86032D01*
X75083Y-86121D01*
X75035Y-86237D01*
X75034Y-86362D01*
X75082Y-86478D01*
X75171Y-86566D01*
X75287Y-86614D01*
X75412Y-86615D01*
X75528Y-86567D01*
X75605Y-86490D01*
X75700Y-86490D01*
X75772Y-86475D01*
X75834Y-86434D01*
X76160Y-86108D01*
X76160Y-86671D01*
G54D10*
G36*
X76810Y-10905D02*
X76167Y-10905D01*
X76116Y-10926D01*
X76077Y-10966D01*
X76055Y-11017D01*
X76055Y-11073D01*
X76055Y-11782D01*
X76076Y-11833D01*
X76116Y-11872D01*
X76167Y-11894D01*
X76223Y-11894D01*
X76368Y-11894D01*
X76374Y-11922D01*
X76415Y-11984D01*
X76711Y-12280D01*
X76662Y-12260D01*
X76537Y-12259D01*
X76421Y-12307D01*
X76333Y-12396D01*
X76320Y-12426D01*
X76134Y-12240D01*
X76072Y-12199D01*
X76000Y-12185D01*
X75803Y-12185D01*
X75740Y-12121D01*
X75740Y-11894D01*
X75932Y-11894D01*
X75983Y-11873D01*
X76022Y-11833D01*
X76044Y-11782D01*
X76044Y-11726D01*
X76044Y-11017D01*
X76023Y-10966D01*
X75983Y-10927D01*
X75932Y-10905D01*
X75876Y-10905D01*
X75167Y-10905D01*
X75116Y-10926D01*
X75077Y-10966D01*
X75055Y-11017D01*
X75055Y-11073D01*
X75055Y-11782D01*
X75076Y-11833D01*
X75116Y-11872D01*
X75167Y-11894D01*
X75223Y-11894D01*
X75360Y-11894D01*
X75360Y-12200D01*
X75374Y-12272D01*
X75415Y-12334D01*
X75486Y-12405D01*
X75389Y-12405D01*
X75389Y-12440D01*
X75355Y-12405D01*
X75223Y-12405D01*
X75167Y-12405D01*
X75116Y-12427D01*
X75076Y-12466D01*
X75055Y-12517D01*
X75055Y-12705D01*
X75090Y-12740D01*
X75390Y-12740D01*
X75390Y-12732D01*
X75710Y-12732D01*
X75710Y-12740D01*
X76009Y-12740D01*
X76044Y-12705D01*
X76044Y-12688D01*
X76085Y-12728D01*
X76085Y-13175D01*
X76085Y-13500D01*
X76044Y-13483D01*
X76044Y-13282D01*
X76044Y-13095D01*
X76009Y-13060D01*
X75710Y-13060D01*
X75710Y-13359D01*
X75745Y-13394D01*
X75876Y-13394D01*
X75932Y-13394D01*
X75983Y-13372D01*
X76023Y-13333D01*
X76044Y-13282D01*
X76044Y-13483D01*
X75987Y-13460D01*
X75862Y-13459D01*
X75746Y-13507D01*
X75658Y-13596D01*
X75610Y-13712D01*
X75609Y-13837D01*
X75657Y-13953D01*
X75710Y-14005D01*
X75710Y-14450D01*
X75710Y-14550D01*
X75710Y-14675D01*
X75724Y-14747D01*
X75765Y-14809D01*
X75860Y-14903D01*
X75860Y-15321D01*
X75390Y-15791D01*
X75390Y-13359D01*
X75390Y-13060D01*
X75090Y-13060D01*
X75055Y-13095D01*
X75055Y-13282D01*
X75076Y-13333D01*
X75116Y-13372D01*
X75167Y-13394D01*
X75223Y-13394D01*
X75355Y-13394D01*
X75390Y-13359D01*
X75390Y-15791D01*
X74690Y-16491D01*
X74690Y-16134D01*
X74934Y-15914D01*
X74937Y-15914D01*
X75062Y-15915D01*
X75178Y-15867D01*
X75266Y-15778D01*
X75314Y-15662D01*
X75315Y-15537D01*
X75267Y-15421D01*
X75178Y-15333D01*
X75062Y-15285D01*
X75044Y-15285D01*
X75044Y-13226D01*
X75044Y-12517D01*
X75044Y-11726D01*
X75044Y-11017D01*
X75023Y-10966D01*
X74983Y-10927D01*
X74932Y-10905D01*
X74876Y-10905D01*
X74167Y-10905D01*
X74116Y-10926D01*
X74077Y-10966D01*
X74055Y-11017D01*
X74055Y-11073D01*
X74055Y-11782D01*
X74076Y-11833D01*
X74116Y-11872D01*
X74167Y-11894D01*
X74223Y-11894D01*
X74932Y-11894D01*
X74983Y-11873D01*
X75022Y-11833D01*
X75044Y-11782D01*
X75044Y-11726D01*
X75044Y-12517D01*
X75023Y-12466D01*
X74983Y-12427D01*
X74932Y-12405D01*
X74876Y-12405D01*
X74167Y-12405D01*
X74116Y-12426D01*
X74077Y-12466D01*
X74055Y-12517D01*
X74055Y-12573D01*
X74055Y-13282D01*
X74076Y-13333D01*
X74116Y-13372D01*
X74167Y-13394D01*
X74223Y-13394D01*
X74932Y-13394D01*
X74983Y-13373D01*
X75022Y-13333D01*
X75044Y-13282D01*
X75044Y-13226D01*
X75044Y-15285D01*
X74937Y-15284D01*
X74821Y-15332D01*
X74733Y-15421D01*
X74685Y-15537D01*
X74684Y-15627D01*
X74372Y-15908D01*
X74369Y-15912D01*
X74365Y-15915D01*
X74347Y-15942D01*
X74328Y-15968D01*
X74327Y-15973D01*
X74324Y-15977D01*
X74318Y-16008D01*
X74310Y-16040D01*
X74310Y-16045D01*
X74310Y-16050D01*
X74310Y-20854D01*
X74262Y-20835D01*
X74137Y-20834D01*
X74021Y-20882D01*
X73933Y-20971D01*
X73885Y-21087D01*
X73884Y-21212D01*
X73932Y-21328D01*
X74021Y-21416D01*
X74137Y-21464D01*
X74246Y-21465D01*
X74266Y-21485D01*
X74182Y-21485D01*
X74131Y-21506D01*
X74091Y-21546D01*
X74070Y-21597D01*
X74070Y-21653D01*
X74070Y-21818D01*
X74076Y-21833D01*
X74070Y-21849D01*
X74070Y-21905D01*
X74070Y-22070D01*
X74076Y-22085D01*
X74068Y-22105D01*
X74068Y-22161D01*
X74068Y-22326D01*
X74075Y-22344D01*
X74068Y-22361D01*
X74068Y-22395D01*
X74103Y-22430D01*
X74161Y-22430D01*
X74180Y-22438D01*
X74236Y-22438D01*
X74665Y-22438D01*
X74665Y-22505D01*
X74180Y-22505D01*
X74161Y-22513D01*
X74103Y-22513D01*
X74078Y-22538D01*
X73972Y-22538D01*
X73951Y-22542D01*
X73930Y-22542D01*
X73915Y-22549D01*
X73899Y-22552D01*
X73881Y-22564D01*
X73862Y-22572D01*
X73851Y-22584D01*
X73837Y-22593D01*
X73826Y-22610D01*
X73811Y-22626D01*
X73639Y-22898D01*
X73633Y-22913D01*
X73624Y-22927D01*
X73620Y-22947D01*
X73612Y-22967D01*
X73613Y-22983D01*
X73610Y-23000D01*
X73610Y-41600D01*
X73610Y-41800D01*
X73624Y-41872D01*
X73665Y-41934D01*
X73706Y-41974D01*
X73665Y-42015D01*
X73624Y-42077D01*
X73610Y-42150D01*
X73610Y-61050D01*
X73610Y-80050D01*
X73624Y-80122D01*
X73665Y-80184D01*
X73943Y-80462D01*
X73943Y-80462D01*
X74005Y-80503D01*
X74078Y-80518D01*
X74168Y-80518D01*
X74168Y-80529D01*
X74168Y-80694D01*
X74175Y-80711D01*
X74168Y-80729D01*
X74168Y-80785D01*
X74168Y-80929D01*
X74119Y-80961D01*
X74119Y-80961D01*
X73715Y-81365D01*
X73674Y-81427D01*
X73660Y-81500D01*
X73660Y-85550D01*
X73660Y-85750D01*
X73674Y-85822D01*
X73715Y-85884D01*
X74860Y-87028D01*
X74860Y-89105D01*
X74667Y-89105D01*
X74616Y-89126D01*
X74577Y-89166D01*
X74555Y-89217D01*
X74555Y-89273D01*
X74555Y-89982D01*
X74576Y-90033D01*
X74603Y-90060D01*
X74496Y-90060D01*
X74522Y-90033D01*
X74544Y-89982D01*
X74544Y-89926D01*
X74544Y-89217D01*
X74523Y-89166D01*
X74483Y-89127D01*
X74432Y-89105D01*
X74376Y-89105D01*
X73667Y-89105D01*
X73616Y-89126D01*
X73589Y-89153D01*
X73589Y-88269D01*
X73607Y-88312D01*
X73786Y-88492D01*
X74022Y-88589D01*
X74276Y-88590D01*
X74512Y-88492D01*
X74692Y-88313D01*
X74789Y-88077D01*
X74790Y-87823D01*
X74692Y-87587D01*
X74513Y-87407D01*
X74277Y-87310D01*
X74023Y-87309D01*
X73787Y-87407D01*
X73607Y-87586D01*
X73589Y-87630D01*
X73589Y-14598D01*
X73657Y-14762D01*
X73836Y-14942D01*
X74072Y-15039D01*
X74326Y-15040D01*
X74562Y-14942D01*
X74742Y-14763D01*
X74839Y-14527D01*
X74840Y-14273D01*
X74742Y-14037D01*
X74563Y-13857D01*
X74327Y-13760D01*
X74073Y-13759D01*
X73837Y-13857D01*
X73657Y-14036D01*
X73589Y-14200D01*
X73589Y-10639D01*
X76810Y-10639D01*
X76810Y-10905D01*
X76810Y-10905D01*
G37*
G54D20*
X76810Y-10905D02*
X76167Y-10905D01*
X76116Y-10926D01*
X76077Y-10966D01*
X76055Y-11017D01*
X76055Y-11073D01*
X76055Y-11782D01*
X76076Y-11833D01*
X76116Y-11872D01*
X76167Y-11894D01*
X76223Y-11894D01*
X76368Y-11894D01*
X76374Y-11922D01*
X76415Y-11984D01*
X76711Y-12280D01*
X76662Y-12260D01*
X76537Y-12259D01*
X76421Y-12307D01*
X76333Y-12396D01*
X76320Y-12426D01*
X76134Y-12240D01*
X76072Y-12199D01*
X76000Y-12185D01*
X75803Y-12185D01*
X75740Y-12121D01*
X75740Y-11894D01*
X75932Y-11894D01*
X75983Y-11873D01*
X76022Y-11833D01*
X76044Y-11782D01*
X76044Y-11726D01*
X76044Y-11017D01*
X76023Y-10966D01*
X75983Y-10927D01*
X75932Y-10905D01*
X75876Y-10905D01*
X75167Y-10905D01*
X75116Y-10926D01*
X75077Y-10966D01*
X75055Y-11017D01*
X75055Y-11073D01*
X75055Y-11782D01*
X75076Y-11833D01*
X75116Y-11872D01*
X75167Y-11894D01*
X75223Y-11894D01*
X75360Y-11894D01*
X75360Y-12200D01*
X75374Y-12272D01*
X75415Y-12334D01*
X75486Y-12405D01*
X75389Y-12405D01*
X75389Y-12440D01*
X75355Y-12405D01*
X75223Y-12405D01*
X75167Y-12405D01*
X75116Y-12427D01*
X75076Y-12466D01*
X75055Y-12517D01*
X75055Y-12705D01*
X75090Y-12740D01*
X75390Y-12740D01*
X75390Y-12732D01*
X75710Y-12732D01*
X75710Y-12740D01*
X76009Y-12740D01*
X76044Y-12705D01*
X76044Y-12688D01*
X76085Y-12728D01*
X76085Y-13175D01*
X76085Y-13500D01*
X76044Y-13483D01*
X76044Y-13282D01*
X76044Y-13095D01*
X76009Y-13060D01*
X75710Y-13060D01*
X75710Y-13359D01*
X75745Y-13394D01*
X75876Y-13394D01*
X75932Y-13394D01*
X75983Y-13372D01*
X76023Y-13333D01*
X76044Y-13282D01*
X76044Y-13483D01*
X75987Y-13460D01*
X75862Y-13459D01*
X75746Y-13507D01*
X75658Y-13596D01*
X75610Y-13712D01*
X75609Y-13837D01*
X75657Y-13953D01*
X75710Y-14005D01*
X75710Y-14450D01*
X75710Y-14550D01*
X75710Y-14675D01*
X75724Y-14747D01*
X75765Y-14809D01*
X75860Y-14903D01*
X75860Y-15321D01*
X75390Y-15791D01*
X75390Y-13359D01*
X75390Y-13060D01*
X75090Y-13060D01*
X75055Y-13095D01*
X75055Y-13282D01*
X75076Y-13333D01*
X75116Y-13372D01*
X75167Y-13394D01*
X75223Y-13394D01*
X75355Y-13394D01*
X75390Y-13359D01*
X75390Y-15791D01*
X74690Y-16491D01*
X74690Y-16134D01*
X74934Y-15914D01*
X74937Y-15914D01*
X75062Y-15915D01*
X75178Y-15867D01*
X75266Y-15778D01*
X75314Y-15662D01*
X75315Y-15537D01*
X75267Y-15421D01*
X75178Y-15333D01*
X75062Y-15285D01*
X75044Y-15285D01*
X75044Y-13226D01*
X75044Y-12517D01*
X75044Y-11726D01*
X75044Y-11017D01*
X75023Y-10966D01*
X74983Y-10927D01*
X74932Y-10905D01*
X74876Y-10905D01*
X74167Y-10905D01*
X74116Y-10926D01*
X74077Y-10966D01*
X74055Y-11017D01*
X74055Y-11073D01*
X74055Y-11782D01*
X74076Y-11833D01*
X74116Y-11872D01*
X74167Y-11894D01*
X74223Y-11894D01*
X74932Y-11894D01*
X74983Y-11873D01*
X75022Y-11833D01*
X75044Y-11782D01*
X75044Y-11726D01*
X75044Y-12517D01*
X75023Y-12466D01*
X74983Y-12427D01*
X74932Y-12405D01*
X74876Y-12405D01*
X74167Y-12405D01*
X74116Y-12426D01*
X74077Y-12466D01*
X74055Y-12517D01*
X74055Y-12573D01*
X74055Y-13282D01*
X74076Y-13333D01*
X74116Y-13372D01*
X74167Y-13394D01*
X74223Y-13394D01*
X74932Y-13394D01*
X74983Y-13373D01*
X75022Y-13333D01*
X75044Y-13282D01*
X75044Y-13226D01*
X75044Y-15285D01*
X74937Y-15284D01*
X74821Y-15332D01*
X74733Y-15421D01*
X74685Y-15537D01*
X74684Y-15627D01*
X74372Y-15908D01*
X74369Y-15912D01*
X74365Y-15915D01*
X74347Y-15942D01*
X74328Y-15968D01*
X74327Y-15973D01*
X74324Y-15977D01*
X74318Y-16008D01*
X74310Y-16040D01*
X74310Y-16045D01*
X74310Y-16050D01*
X74310Y-20854D01*
X74262Y-20835D01*
X74137Y-20834D01*
X74021Y-20882D01*
X73933Y-20971D01*
X73885Y-21087D01*
X73884Y-21212D01*
X73932Y-21328D01*
X74021Y-21416D01*
X74137Y-21464D01*
X74246Y-21465D01*
X74266Y-21485D01*
X74182Y-21485D01*
X74131Y-21506D01*
X74091Y-21546D01*
X74070Y-21597D01*
X74070Y-21653D01*
X74070Y-21818D01*
X74076Y-21833D01*
X74070Y-21849D01*
X74070Y-21905D01*
X74070Y-22070D01*
X74076Y-22085D01*
X74068Y-22105D01*
X74068Y-22161D01*
X74068Y-22326D01*
X74075Y-22344D01*
X74068Y-22361D01*
X74068Y-22395D01*
X74103Y-22430D01*
X74161Y-22430D01*
X74180Y-22438D01*
X74236Y-22438D01*
X74665Y-22438D01*
X74665Y-22505D01*
X74180Y-22505D01*
X74161Y-22513D01*
X74103Y-22513D01*
X74078Y-22538D01*
X73972Y-22538D01*
X73951Y-22542D01*
X73930Y-22542D01*
X73915Y-22549D01*
X73899Y-22552D01*
X73881Y-22564D01*
X73862Y-22572D01*
X73851Y-22584D01*
X73837Y-22593D01*
X73826Y-22610D01*
X73811Y-22626D01*
X73639Y-22898D01*
X73633Y-22913D01*
X73624Y-22927D01*
X73620Y-22947D01*
X73612Y-22967D01*
X73613Y-22983D01*
X73610Y-23000D01*
X73610Y-41600D01*
X73610Y-41800D01*
X73624Y-41872D01*
X73665Y-41934D01*
X73706Y-41974D01*
X73665Y-42015D01*
X73624Y-42077D01*
X73610Y-42150D01*
X73610Y-61050D01*
X73610Y-80050D01*
X73624Y-80122D01*
X73665Y-80184D01*
X73943Y-80462D01*
X73943Y-80462D01*
X74005Y-80503D01*
X74078Y-80518D01*
X74168Y-80518D01*
X74168Y-80529D01*
X74168Y-80694D01*
X74175Y-80711D01*
X74168Y-80729D01*
X74168Y-80785D01*
X74168Y-80929D01*
X74119Y-80961D01*
X74119Y-80961D01*
X73715Y-81365D01*
X73674Y-81427D01*
X73660Y-81500D01*
X73660Y-85550D01*
X73660Y-85750D01*
X73674Y-85822D01*
X73715Y-85884D01*
X74860Y-87028D01*
X74860Y-89105D01*
X74667Y-89105D01*
X74616Y-89126D01*
X74577Y-89166D01*
X74555Y-89217D01*
X74555Y-89273D01*
X74555Y-89982D01*
X74576Y-90033D01*
X74603Y-90060D01*
X74496Y-90060D01*
X74522Y-90033D01*
X74544Y-89982D01*
X74544Y-89926D01*
X74544Y-89217D01*
X74523Y-89166D01*
X74483Y-89127D01*
X74432Y-89105D01*
X74376Y-89105D01*
X73667Y-89105D01*
X73616Y-89126D01*
X73589Y-89153D01*
X73589Y-88269D01*
X73607Y-88312D01*
X73786Y-88492D01*
X74022Y-88589D01*
X74276Y-88590D01*
X74512Y-88492D01*
X74692Y-88313D01*
X74789Y-88077D01*
X74790Y-87823D01*
X74692Y-87587D01*
X74513Y-87407D01*
X74277Y-87310D01*
X74023Y-87309D01*
X73787Y-87407D01*
X73607Y-87586D01*
X73589Y-87630D01*
X73589Y-14598D01*
X73657Y-14762D01*
X73836Y-14942D01*
X74072Y-15039D01*
X74326Y-15040D01*
X74562Y-14942D01*
X74742Y-14763D01*
X74839Y-14527D01*
X74840Y-14273D01*
X74742Y-14037D01*
X74563Y-13857D01*
X74327Y-13760D01*
X74073Y-13759D01*
X73837Y-13857D01*
X73657Y-14036D01*
X73589Y-14200D01*
X73589Y-10639D01*
X76810Y-10639D01*
X76810Y-10905D01*
G54D10*
G36*
X76810Y-35366D02*
X76557Y-35113D01*
X76557Y-23683D01*
X76557Y-23537D01*
X76307Y-23537D01*
X76272Y-23572D01*
X76272Y-23606D01*
X76293Y-23657D01*
X76333Y-23697D01*
X76384Y-23718D01*
X76440Y-23718D01*
X76522Y-23718D01*
X76557Y-23683D01*
X76557Y-35113D01*
X76114Y-34671D01*
X76115Y-34562D01*
X76067Y-34446D01*
X75978Y-34358D01*
X75862Y-34310D01*
X75737Y-34309D01*
X75699Y-34325D01*
X75714Y-34287D01*
X75715Y-34162D01*
X75667Y-34046D01*
X75578Y-33958D01*
X75462Y-33910D01*
X75337Y-33909D01*
X75221Y-33957D01*
X75133Y-34046D01*
X75085Y-34162D01*
X75084Y-34287D01*
X75132Y-34403D01*
X75210Y-34480D01*
X75210Y-37941D01*
X75134Y-37865D01*
X75131Y-37863D01*
X74240Y-36924D01*
X74240Y-27060D01*
X74296Y-27116D01*
X74412Y-27164D01*
X74537Y-27165D01*
X74585Y-27145D01*
X74584Y-27212D01*
X74632Y-27328D01*
X74721Y-27416D01*
X74837Y-27464D01*
X74962Y-27465D01*
X75078Y-27417D01*
X75166Y-27328D01*
X75214Y-27212D01*
X75215Y-27103D01*
X75710Y-26608D01*
X75710Y-27971D01*
X74946Y-28735D01*
X74837Y-28734D01*
X74721Y-28782D01*
X74633Y-28871D01*
X74585Y-28987D01*
X74584Y-29112D01*
X74632Y-29228D01*
X74721Y-29316D01*
X74837Y-29364D01*
X74962Y-29365D01*
X75078Y-29317D01*
X75166Y-29228D01*
X75214Y-29112D01*
X75215Y-29003D01*
X76034Y-28184D01*
X76034Y-28184D01*
X76034Y-28184D01*
X76075Y-28122D01*
X76090Y-28050D01*
X76090Y-23628D01*
X76285Y-23432D01*
X76307Y-23454D01*
X76365Y-23454D01*
X76384Y-23462D01*
X76440Y-23462D01*
X76810Y-23462D01*
X76810Y-35366D01*
X76810Y-35366D01*
G37*
G54D20*
X76810Y-35366D02*
X76557Y-35113D01*
X76557Y-23683D01*
X76557Y-23537D01*
X76307Y-23537D01*
X76272Y-23572D01*
X76272Y-23606D01*
X76293Y-23657D01*
X76333Y-23697D01*
X76384Y-23718D01*
X76440Y-23718D01*
X76522Y-23718D01*
X76557Y-23683D01*
X76557Y-35113D01*
X76114Y-34671D01*
X76115Y-34562D01*
X76067Y-34446D01*
X75978Y-34358D01*
X75862Y-34310D01*
X75737Y-34309D01*
X75699Y-34325D01*
X75714Y-34287D01*
X75715Y-34162D01*
X75667Y-34046D01*
X75578Y-33958D01*
X75462Y-33910D01*
X75337Y-33909D01*
X75221Y-33957D01*
X75133Y-34046D01*
X75085Y-34162D01*
X75084Y-34287D01*
X75132Y-34403D01*
X75210Y-34480D01*
X75210Y-37941D01*
X75134Y-37865D01*
X75131Y-37863D01*
X74240Y-36924D01*
X74240Y-27060D01*
X74296Y-27116D01*
X74412Y-27164D01*
X74537Y-27165D01*
X74585Y-27145D01*
X74584Y-27212D01*
X74632Y-27328D01*
X74721Y-27416D01*
X74837Y-27464D01*
X74962Y-27465D01*
X75078Y-27417D01*
X75166Y-27328D01*
X75214Y-27212D01*
X75215Y-27103D01*
X75710Y-26608D01*
X75710Y-27971D01*
X74946Y-28735D01*
X74837Y-28734D01*
X74721Y-28782D01*
X74633Y-28871D01*
X74585Y-28987D01*
X74584Y-29112D01*
X74632Y-29228D01*
X74721Y-29316D01*
X74837Y-29364D01*
X74962Y-29365D01*
X75078Y-29317D01*
X75166Y-29228D01*
X75214Y-29112D01*
X75215Y-29003D01*
X76034Y-28184D01*
X76034Y-28184D01*
X76034Y-28184D01*
X76075Y-28122D01*
X76090Y-28050D01*
X76090Y-23628D01*
X76285Y-23432D01*
X76307Y-23454D01*
X76365Y-23454D01*
X76384Y-23462D01*
X76440Y-23462D01*
X76810Y-23462D01*
X76810Y-35366D01*
G54D10*
G36*
X76810Y-59981D02*
X76390Y-59981D01*
X76390Y-54200D01*
X76389Y-54199D01*
X76390Y-54199D01*
X76387Y-54185D01*
X76375Y-54127D01*
X76375Y-54127D01*
X76334Y-54065D01*
X76334Y-54065D01*
X76114Y-53846D01*
X76115Y-53737D01*
X76067Y-53621D01*
X75978Y-53533D01*
X75862Y-53485D01*
X75737Y-53484D01*
X75621Y-53532D01*
X75533Y-53621D01*
X75485Y-53737D01*
X75484Y-53862D01*
X75532Y-53978D01*
X75621Y-54066D01*
X75737Y-54114D01*
X75846Y-54115D01*
X76010Y-54278D01*
X76010Y-55925D01*
X75967Y-55821D01*
X75878Y-55733D01*
X75762Y-55685D01*
X75637Y-55684D01*
X75521Y-55732D01*
X75433Y-55821D01*
X75385Y-55937D01*
X75384Y-56062D01*
X75432Y-56178D01*
X75521Y-56266D01*
X75637Y-56314D01*
X75710Y-56315D01*
X75710Y-57925D01*
X75667Y-57821D01*
X75578Y-57733D01*
X75462Y-57685D01*
X75337Y-57684D01*
X75221Y-57732D01*
X75133Y-57821D01*
X75085Y-57937D01*
X75085Y-57966D01*
X75040Y-57921D01*
X75040Y-57678D01*
X75284Y-57434D01*
X75284Y-57434D01*
X75284Y-57434D01*
X75325Y-57372D01*
X75340Y-57300D01*
X75339Y-57300D01*
X75340Y-57300D01*
X75340Y-52250D01*
X75325Y-52177D01*
X75284Y-52115D01*
X75284Y-52115D01*
X75283Y-52115D01*
X75312Y-52115D01*
X75428Y-52067D01*
X75516Y-51978D01*
X75564Y-51862D01*
X75565Y-51737D01*
X75517Y-51621D01*
X75428Y-51533D01*
X75312Y-51485D01*
X75203Y-51484D01*
X74590Y-50871D01*
X74590Y-44135D01*
X74621Y-44166D01*
X74737Y-44214D01*
X74862Y-44215D01*
X74978Y-44167D01*
X75066Y-44078D01*
X75114Y-43962D01*
X75114Y-43935D01*
X75171Y-43991D01*
X75287Y-44039D01*
X75412Y-44040D01*
X75510Y-43999D01*
X75510Y-44061D01*
X75396Y-44107D01*
X75308Y-44196D01*
X75260Y-44312D01*
X75259Y-44437D01*
X75307Y-44553D01*
X75396Y-44641D01*
X75512Y-44689D01*
X75637Y-44690D01*
X75735Y-44649D01*
X75735Y-46036D01*
X75621Y-46082D01*
X75533Y-46171D01*
X75485Y-46287D01*
X75484Y-46412D01*
X75532Y-46528D01*
X75621Y-46616D01*
X75737Y-46664D01*
X75862Y-46665D01*
X75960Y-46624D01*
X75960Y-47971D01*
X75846Y-48085D01*
X75737Y-48084D01*
X75621Y-48132D01*
X75533Y-48221D01*
X75485Y-48337D01*
X75484Y-48462D01*
X75532Y-48578D01*
X75621Y-48666D01*
X75737Y-48714D01*
X75862Y-48715D01*
X75978Y-48667D01*
X76066Y-48578D01*
X76114Y-48462D01*
X76115Y-48353D01*
X76284Y-48184D01*
X76284Y-48184D01*
X76284Y-48184D01*
X76325Y-48122D01*
X76325Y-48122D01*
X76337Y-48062D01*
X76340Y-48050D01*
X76339Y-48050D01*
X76340Y-48050D01*
X76340Y-42924D01*
X76384Y-42943D01*
X76440Y-42943D01*
X76522Y-42943D01*
X76557Y-42908D01*
X76557Y-42762D01*
X76534Y-42762D01*
X76534Y-42687D01*
X76810Y-42687D01*
X76810Y-59981D01*
X76810Y-59981D01*
G37*
G54D20*
X76810Y-59981D02*
X76390Y-59981D01*
X76390Y-54200D01*
X76389Y-54199D01*
X76390Y-54199D01*
X76387Y-54185D01*
X76375Y-54127D01*
X76375Y-54127D01*
X76334Y-54065D01*
X76334Y-54065D01*
X76114Y-53846D01*
X76115Y-53737D01*
X76067Y-53621D01*
X75978Y-53533D01*
X75862Y-53485D01*
X75737Y-53484D01*
X75621Y-53532D01*
X75533Y-53621D01*
X75485Y-53737D01*
X75484Y-53862D01*
X75532Y-53978D01*
X75621Y-54066D01*
X75737Y-54114D01*
X75846Y-54115D01*
X76010Y-54278D01*
X76010Y-55925D01*
X75967Y-55821D01*
X75878Y-55733D01*
X75762Y-55685D01*
X75637Y-55684D01*
X75521Y-55732D01*
X75433Y-55821D01*
X75385Y-55937D01*
X75384Y-56062D01*
X75432Y-56178D01*
X75521Y-56266D01*
X75637Y-56314D01*
X75710Y-56315D01*
X75710Y-57925D01*
X75667Y-57821D01*
X75578Y-57733D01*
X75462Y-57685D01*
X75337Y-57684D01*
X75221Y-57732D01*
X75133Y-57821D01*
X75085Y-57937D01*
X75085Y-57966D01*
X75040Y-57921D01*
X75040Y-57678D01*
X75284Y-57434D01*
X75284Y-57434D01*
X75284Y-57434D01*
X75325Y-57372D01*
X75340Y-57300D01*
X75339Y-57300D01*
X75340Y-57300D01*
X75340Y-52250D01*
X75325Y-52177D01*
X75284Y-52115D01*
X75284Y-52115D01*
X75283Y-52115D01*
X75312Y-52115D01*
X75428Y-52067D01*
X75516Y-51978D01*
X75564Y-51862D01*
X75565Y-51737D01*
X75517Y-51621D01*
X75428Y-51533D01*
X75312Y-51485D01*
X75203Y-51484D01*
X74590Y-50871D01*
X74590Y-44135D01*
X74621Y-44166D01*
X74737Y-44214D01*
X74862Y-44215D01*
X74978Y-44167D01*
X75066Y-44078D01*
X75114Y-43962D01*
X75114Y-43935D01*
X75171Y-43991D01*
X75287Y-44039D01*
X75412Y-44040D01*
X75510Y-43999D01*
X75510Y-44061D01*
X75396Y-44107D01*
X75308Y-44196D01*
X75260Y-44312D01*
X75259Y-44437D01*
X75307Y-44553D01*
X75396Y-44641D01*
X75512Y-44689D01*
X75637Y-44690D01*
X75735Y-44649D01*
X75735Y-46036D01*
X75621Y-46082D01*
X75533Y-46171D01*
X75485Y-46287D01*
X75484Y-46412D01*
X75532Y-46528D01*
X75621Y-46616D01*
X75737Y-46664D01*
X75862Y-46665D01*
X75960Y-46624D01*
X75960Y-47971D01*
X75846Y-48085D01*
X75737Y-48084D01*
X75621Y-48132D01*
X75533Y-48221D01*
X75485Y-48337D01*
X75484Y-48462D01*
X75532Y-48578D01*
X75621Y-48666D01*
X75737Y-48714D01*
X75862Y-48715D01*
X75978Y-48667D01*
X76066Y-48578D01*
X76114Y-48462D01*
X76115Y-48353D01*
X76284Y-48184D01*
X76284Y-48184D01*
X76284Y-48184D01*
X76325Y-48122D01*
X76325Y-48122D01*
X76337Y-48062D01*
X76340Y-48050D01*
X76339Y-48050D01*
X76340Y-48050D01*
X76340Y-42924D01*
X76384Y-42943D01*
X76440Y-42943D01*
X76522Y-42943D01*
X76557Y-42908D01*
X76557Y-42762D01*
X76534Y-42762D01*
X76534Y-42687D01*
X76810Y-42687D01*
X76810Y-59981D01*
G54D10*
G36*
X76810Y-78991D02*
X76690Y-78871D01*
X76690Y-73750D01*
X76689Y-73749D01*
X76690Y-73749D01*
X76675Y-73677D01*
X76634Y-73615D01*
X76634Y-73615D01*
X76114Y-73096D01*
X76115Y-72987D01*
X76067Y-72871D01*
X75978Y-72783D01*
X75862Y-72735D01*
X75737Y-72734D01*
X75621Y-72782D01*
X75533Y-72871D01*
X75485Y-72987D01*
X75484Y-73112D01*
X75532Y-73228D01*
X75621Y-73316D01*
X75737Y-73364D01*
X75846Y-73365D01*
X76310Y-73828D01*
X76310Y-75441D01*
X76064Y-75196D01*
X76065Y-75087D01*
X76017Y-74971D01*
X75928Y-74883D01*
X75812Y-74835D01*
X75687Y-74834D01*
X75571Y-74882D01*
X75483Y-74971D01*
X75440Y-75075D01*
X75440Y-70900D01*
X75439Y-70899D01*
X75440Y-70899D01*
X75425Y-70827D01*
X75384Y-70765D01*
X75384Y-70765D01*
X74684Y-70065D01*
X74622Y-70024D01*
X74550Y-70010D01*
X74240Y-70010D01*
X74240Y-63585D01*
X74321Y-63666D01*
X74437Y-63714D01*
X74562Y-63715D01*
X74678Y-63667D01*
X74766Y-63578D01*
X74814Y-63462D01*
X74815Y-63337D01*
X74785Y-63264D01*
X75269Y-62338D01*
X75272Y-62326D01*
X75275Y-62322D01*
X75278Y-62306D01*
X75290Y-62267D01*
X75288Y-62255D01*
X75290Y-62250D01*
X75290Y-61850D01*
X75275Y-61777D01*
X75234Y-61715D01*
X75192Y-61674D01*
X75310Y-61674D01*
X75310Y-62605D01*
X75245Y-62734D01*
X75237Y-62734D01*
X75121Y-62782D01*
X75033Y-62871D01*
X74985Y-62987D01*
X74984Y-63112D01*
X75032Y-63228D01*
X75121Y-63316D01*
X75237Y-63364D01*
X75362Y-63365D01*
X75478Y-63317D01*
X75559Y-63235D01*
X75559Y-64521D01*
X75446Y-64635D01*
X75337Y-64634D01*
X75221Y-64682D01*
X75133Y-64771D01*
X75085Y-64887D01*
X75084Y-65012D01*
X75132Y-65128D01*
X75221Y-65216D01*
X75337Y-65264D01*
X75462Y-65265D01*
X75578Y-65217D01*
X75666Y-65128D01*
X75714Y-65012D01*
X75715Y-64903D01*
X75760Y-64858D01*
X75760Y-66571D01*
X75636Y-66694D01*
X75612Y-66685D01*
X75487Y-66684D01*
X75371Y-66732D01*
X75283Y-66821D01*
X75235Y-66937D01*
X75234Y-67062D01*
X75282Y-67178D01*
X75371Y-67266D01*
X75487Y-67314D01*
X75612Y-67315D01*
X75728Y-67267D01*
X75816Y-67178D01*
X75864Y-67062D01*
X75864Y-67003D01*
X76010Y-66858D01*
X76010Y-68521D01*
X75846Y-68685D01*
X75737Y-68684D01*
X75621Y-68732D01*
X75533Y-68821D01*
X75485Y-68937D01*
X75484Y-69062D01*
X75532Y-69178D01*
X75621Y-69266D01*
X75737Y-69314D01*
X75862Y-69315D01*
X75978Y-69267D01*
X76066Y-69178D01*
X76114Y-69062D01*
X76115Y-68953D01*
X76334Y-68734D01*
X76334Y-68734D01*
X76334Y-68734D01*
X76375Y-68672D01*
X76375Y-68672D01*
X76387Y-68614D01*
X76390Y-68600D01*
X76389Y-68600D01*
X76390Y-68600D01*
X76390Y-62218D01*
X76440Y-62218D01*
X76522Y-62218D01*
X76557Y-62183D01*
X76557Y-62037D01*
X76534Y-62037D01*
X76534Y-61962D01*
X76810Y-61962D01*
X76810Y-78991D01*
X76810Y-78991D01*
G37*
G54D20*
X76810Y-78991D02*
X76690Y-78871D01*
X76690Y-73750D01*
X76689Y-73749D01*
X76690Y-73749D01*
X76675Y-73677D01*
X76634Y-73615D01*
X76634Y-73615D01*
X76114Y-73096D01*
X76115Y-72987D01*
X76067Y-72871D01*
X75978Y-72783D01*
X75862Y-72735D01*
X75737Y-72734D01*
X75621Y-72782D01*
X75533Y-72871D01*
X75485Y-72987D01*
X75484Y-73112D01*
X75532Y-73228D01*
X75621Y-73316D01*
X75737Y-73364D01*
X75846Y-73365D01*
X76310Y-73828D01*
X76310Y-75441D01*
X76064Y-75196D01*
X76065Y-75087D01*
X76017Y-74971D01*
X75928Y-74883D01*
X75812Y-74835D01*
X75687Y-74834D01*
X75571Y-74882D01*
X75483Y-74971D01*
X75440Y-75075D01*
X75440Y-70900D01*
X75439Y-70899D01*
X75440Y-70899D01*
X75425Y-70827D01*
X75384Y-70765D01*
X75384Y-70765D01*
X74684Y-70065D01*
X74622Y-70024D01*
X74550Y-70010D01*
X74240Y-70010D01*
X74240Y-63585D01*
X74321Y-63666D01*
X74437Y-63714D01*
X74562Y-63715D01*
X74678Y-63667D01*
X74766Y-63578D01*
X74814Y-63462D01*
X74815Y-63337D01*
X74785Y-63264D01*
X75269Y-62338D01*
X75272Y-62326D01*
X75275Y-62322D01*
X75278Y-62306D01*
X75290Y-62267D01*
X75288Y-62255D01*
X75290Y-62250D01*
X75290Y-61850D01*
X75275Y-61777D01*
X75234Y-61715D01*
X75192Y-61674D01*
X75310Y-61674D01*
X75310Y-62605D01*
X75245Y-62734D01*
X75237Y-62734D01*
X75121Y-62782D01*
X75033Y-62871D01*
X74985Y-62987D01*
X74984Y-63112D01*
X75032Y-63228D01*
X75121Y-63316D01*
X75237Y-63364D01*
X75362Y-63365D01*
X75478Y-63317D01*
X75559Y-63235D01*
X75559Y-64521D01*
X75446Y-64635D01*
X75337Y-64634D01*
X75221Y-64682D01*
X75133Y-64771D01*
X75085Y-64887D01*
X75084Y-65012D01*
X75132Y-65128D01*
X75221Y-65216D01*
X75337Y-65264D01*
X75462Y-65265D01*
X75578Y-65217D01*
X75666Y-65128D01*
X75714Y-65012D01*
X75715Y-64903D01*
X75760Y-64858D01*
X75760Y-66571D01*
X75636Y-66694D01*
X75612Y-66685D01*
X75487Y-66684D01*
X75371Y-66732D01*
X75283Y-66821D01*
X75235Y-66937D01*
X75234Y-67062D01*
X75282Y-67178D01*
X75371Y-67266D01*
X75487Y-67314D01*
X75612Y-67315D01*
X75728Y-67267D01*
X75816Y-67178D01*
X75864Y-67062D01*
X75864Y-67003D01*
X76010Y-66858D01*
X76010Y-68521D01*
X75846Y-68685D01*
X75737Y-68684D01*
X75621Y-68732D01*
X75533Y-68821D01*
X75485Y-68937D01*
X75484Y-69062D01*
X75532Y-69178D01*
X75621Y-69266D01*
X75737Y-69314D01*
X75862Y-69315D01*
X75978Y-69267D01*
X76066Y-69178D01*
X76114Y-69062D01*
X76115Y-68953D01*
X76334Y-68734D01*
X76334Y-68734D01*
X76334Y-68734D01*
X76375Y-68672D01*
X76375Y-68672D01*
X76387Y-68614D01*
X76390Y-68600D01*
X76389Y-68600D01*
X76390Y-68600D01*
X76390Y-62218D01*
X76440Y-62218D01*
X76522Y-62218D01*
X76557Y-62183D01*
X76557Y-62037D01*
X76534Y-62037D01*
X76534Y-61962D01*
X76810Y-61962D01*
X76810Y-78991D01*
G54D10*
G36*
X76810Y-90060D02*
X75496Y-90060D01*
X75522Y-90033D01*
X75544Y-89982D01*
X75544Y-89926D01*
X75544Y-89217D01*
X75523Y-89166D01*
X75483Y-89127D01*
X75432Y-89105D01*
X75376Y-89105D01*
X75240Y-89105D01*
X75240Y-87274D01*
X75282Y-87378D01*
X75371Y-87466D01*
X75487Y-87514D01*
X75612Y-87515D01*
X75728Y-87467D01*
X75816Y-87378D01*
X75853Y-87290D01*
X76000Y-87290D01*
X76072Y-87275D01*
X76134Y-87234D01*
X76484Y-86884D01*
X76484Y-86884D01*
X76484Y-86884D01*
X76525Y-86822D01*
X76525Y-86822D01*
X76537Y-86762D01*
X76540Y-86750D01*
X76539Y-86750D01*
X76540Y-86750D01*
X76540Y-81318D01*
X76540Y-81318D01*
X76622Y-81318D01*
X76657Y-81283D01*
X76657Y-81137D01*
X76634Y-81137D01*
X76634Y-81062D01*
X76810Y-81062D01*
X76810Y-90060D01*
X76810Y-90060D01*
G37*
G54D20*
X76810Y-90060D02*
X75496Y-90060D01*
X75522Y-90033D01*
X75544Y-89982D01*
X75544Y-89926D01*
X75544Y-89217D01*
X75523Y-89166D01*
X75483Y-89127D01*
X75432Y-89105D01*
X75376Y-89105D01*
X75240Y-89105D01*
X75240Y-87274D01*
X75282Y-87378D01*
X75371Y-87466D01*
X75487Y-87514D01*
X75612Y-87515D01*
X75728Y-87467D01*
X75816Y-87378D01*
X75853Y-87290D01*
X76000Y-87290D01*
X76072Y-87275D01*
X76134Y-87234D01*
X76484Y-86884D01*
X76484Y-86884D01*
X76484Y-86884D01*
X76525Y-86822D01*
X76525Y-86822D01*
X76537Y-86762D01*
X76540Y-86750D01*
X76539Y-86750D01*
X76540Y-86750D01*
X76540Y-81318D01*
X76540Y-81318D01*
X76622Y-81318D01*
X76657Y-81283D01*
X76657Y-81137D01*
X76634Y-81137D01*
X76634Y-81062D01*
X76810Y-81062D01*
X76810Y-90060D01*
M02*
