G04 (created by PCBNEW (2013-07-07 BZR 4022)-stable) date 10/2/2014 12:43:53 AM*
%MOIN*%
G04 Gerber Fmt 3.4, Leading zero omitted, Abs format*
%FSLAX34Y34*%
G01*
G70*
G90*
G04 APERTURE LIST*
%ADD10C,0.005*%
%ADD11C,0.00393701*%
%ADD12C,0.00787402*%
%ADD13C,0.011811*%
G04 APERTURE END LIST*
G54D10*
G54D11*
X86050Y-10500D02*
X73450Y-10500D01*
X86050Y-90200D02*
X73450Y-90200D01*
X73450Y-90200D02*
X73450Y-10500D01*
X86050Y-10500D02*
X86050Y-90200D01*
G54D12*
X73650Y-87450D02*
X74650Y-88450D01*
X74650Y-87450D02*
X73650Y-88450D01*
X73700Y-13900D02*
X74700Y-14900D01*
X74700Y-13900D02*
X73700Y-14900D01*
X80750Y-50850D02*
X81750Y-51850D01*
X81750Y-50850D02*
X80750Y-51850D01*
X84500Y-88700D02*
X85500Y-89700D01*
X85500Y-88700D02*
X84500Y-89700D01*
X84700Y-12700D02*
X85700Y-13700D01*
X85700Y-12700D02*
X84700Y-13700D01*
G54D13*
X74498Y-91996D02*
X74498Y-90815D01*
X74780Y-90815D01*
X74948Y-90872D01*
X75061Y-90984D01*
X75117Y-91097D01*
X75173Y-91322D01*
X75173Y-91490D01*
X75117Y-91715D01*
X75061Y-91828D01*
X74948Y-91940D01*
X74780Y-91996D01*
X74498Y-91996D01*
X75680Y-91996D02*
X75680Y-91209D01*
X75680Y-91434D02*
X75736Y-91322D01*
X75792Y-91265D01*
X75905Y-91209D01*
X76017Y-91209D01*
X76411Y-91996D02*
X76411Y-91209D01*
X76411Y-90815D02*
X76354Y-90872D01*
X76411Y-90928D01*
X76467Y-90872D01*
X76411Y-90815D01*
X76411Y-90928D01*
X77142Y-91996D02*
X77029Y-91940D01*
X76973Y-91828D01*
X76973Y-90815D01*
X77761Y-91996D02*
X77648Y-91940D01*
X77592Y-91828D01*
X77592Y-90815D01*
X79110Y-91996D02*
X79110Y-90815D01*
X79504Y-91659D01*
X79898Y-90815D01*
X79898Y-91996D01*
X80966Y-91996D02*
X80966Y-91378D01*
X80910Y-91265D01*
X80798Y-91209D01*
X80573Y-91209D01*
X80460Y-91265D01*
X80966Y-91940D02*
X80854Y-91996D01*
X80573Y-91996D01*
X80460Y-91940D01*
X80404Y-91828D01*
X80404Y-91715D01*
X80460Y-91603D01*
X80573Y-91547D01*
X80854Y-91547D01*
X80966Y-91490D01*
X81529Y-91209D02*
X81529Y-92390D01*
X81529Y-91265D02*
X81641Y-91209D01*
X81866Y-91209D01*
X81979Y-91265D01*
X82035Y-91322D01*
X82091Y-91434D01*
X82091Y-91771D01*
X82035Y-91884D01*
X81979Y-91940D01*
X81866Y-91996D01*
X81641Y-91996D01*
X81529Y-91940D01*
X82597Y-91884D02*
X82654Y-91940D01*
X82597Y-91996D01*
X82541Y-91940D01*
X82597Y-91884D01*
X82597Y-91996D01*
X82597Y-91265D02*
X82654Y-91322D01*
X82597Y-91378D01*
X82541Y-91322D01*
X82597Y-91265D01*
X82597Y-91378D01*
X72430Y-93499D02*
X73430Y-94499D01*
X73430Y-93499D02*
X72430Y-94499D01*
X74442Y-93408D02*
X74498Y-93352D01*
X74611Y-93296D01*
X74892Y-93296D01*
X75005Y-93352D01*
X75061Y-93408D01*
X75117Y-93521D01*
X75117Y-93633D01*
X75061Y-93802D01*
X74386Y-94477D01*
X75117Y-94477D01*
X75623Y-94364D02*
X75680Y-94421D01*
X75623Y-94477D01*
X75567Y-94421D01*
X75623Y-94364D01*
X75623Y-94477D01*
X76748Y-93296D02*
X76186Y-93296D01*
X76129Y-93858D01*
X76186Y-93802D01*
X76298Y-93746D01*
X76579Y-93746D01*
X76692Y-93802D01*
X76748Y-93858D01*
X76804Y-93971D01*
X76804Y-94252D01*
X76748Y-94364D01*
X76692Y-94421D01*
X76579Y-94477D01*
X76298Y-94477D01*
X76186Y-94421D01*
X76129Y-94364D01*
X77817Y-93689D02*
X77817Y-94477D01*
X77536Y-93239D02*
X77254Y-94083D01*
X77985Y-94083D01*
X78435Y-94477D02*
X78435Y-93689D01*
X78435Y-93802D02*
X78492Y-93746D01*
X78604Y-93689D01*
X78773Y-93689D01*
X78885Y-93746D01*
X78942Y-93858D01*
X78942Y-94477D01*
X78942Y-93858D02*
X78998Y-93746D01*
X79110Y-93689D01*
X79279Y-93689D01*
X79392Y-93746D01*
X79448Y-93858D01*
X79448Y-94477D01*
X80010Y-94477D02*
X80010Y-93689D01*
X80010Y-93802D02*
X80066Y-93746D01*
X80179Y-93689D01*
X80348Y-93689D01*
X80460Y-93746D01*
X80516Y-93858D01*
X80516Y-94477D01*
X80516Y-93858D02*
X80573Y-93746D01*
X80685Y-93689D01*
X80854Y-93689D01*
X80966Y-93746D01*
X81023Y-93858D01*
X81023Y-94477D01*
X83329Y-93239D02*
X82316Y-94758D01*
X84847Y-93296D02*
X84960Y-93296D01*
X85072Y-93352D01*
X85128Y-93408D01*
X85185Y-93521D01*
X85241Y-93746D01*
X85241Y-94027D01*
X85185Y-94252D01*
X85128Y-94364D01*
X85072Y-94421D01*
X84960Y-94477D01*
X84847Y-94477D01*
X84735Y-94421D01*
X84678Y-94364D01*
X84622Y-94252D01*
X84566Y-94027D01*
X84566Y-93746D01*
X84622Y-93521D01*
X84678Y-93408D01*
X84735Y-93352D01*
X84847Y-93296D01*
X85747Y-94364D02*
X85803Y-94421D01*
X85747Y-94477D01*
X85691Y-94421D01*
X85747Y-94364D01*
X85747Y-94477D01*
X86928Y-94477D02*
X86253Y-94477D01*
X86591Y-94477D02*
X86591Y-93296D01*
X86478Y-93464D01*
X86366Y-93577D01*
X86253Y-93633D01*
X87659Y-93296D02*
X87772Y-93296D01*
X87884Y-93352D01*
X87941Y-93408D01*
X87997Y-93521D01*
X88053Y-93746D01*
X88053Y-94027D01*
X87997Y-94252D01*
X87941Y-94364D01*
X87884Y-94421D01*
X87772Y-94477D01*
X87659Y-94477D01*
X87547Y-94421D01*
X87491Y-94364D01*
X87434Y-94252D01*
X87378Y-94027D01*
X87378Y-93746D01*
X87434Y-93521D01*
X87491Y-93408D01*
X87547Y-93352D01*
X87659Y-93296D01*
X88784Y-93296D02*
X88897Y-93296D01*
X89009Y-93352D01*
X89065Y-93408D01*
X89122Y-93521D01*
X89178Y-93746D01*
X89178Y-94027D01*
X89122Y-94252D01*
X89065Y-94364D01*
X89009Y-94421D01*
X88897Y-94477D01*
X88784Y-94477D01*
X88672Y-94421D01*
X88615Y-94364D01*
X88559Y-94252D01*
X88503Y-94027D01*
X88503Y-93746D01*
X88559Y-93521D01*
X88615Y-93408D01*
X88672Y-93352D01*
X88784Y-93296D01*
X89628Y-93296D02*
X89628Y-93521D01*
X90078Y-93296D02*
X90078Y-93521D01*
X91821Y-94927D02*
X91765Y-94870D01*
X91653Y-94702D01*
X91596Y-94589D01*
X91540Y-94421D01*
X91484Y-94139D01*
X91484Y-93914D01*
X91540Y-93633D01*
X91596Y-93464D01*
X91653Y-93352D01*
X91765Y-93183D01*
X91821Y-93127D01*
X92834Y-93296D02*
X92271Y-93296D01*
X92215Y-93858D01*
X92271Y-93802D01*
X92384Y-93746D01*
X92665Y-93746D01*
X92777Y-93802D01*
X92834Y-93858D01*
X92890Y-93971D01*
X92890Y-94252D01*
X92834Y-94364D01*
X92777Y-94421D01*
X92665Y-94477D01*
X92384Y-94477D01*
X92271Y-94421D01*
X92215Y-94364D01*
X94296Y-94477D02*
X94296Y-93296D01*
X94802Y-94477D02*
X94802Y-93858D01*
X94746Y-93746D01*
X94633Y-93689D01*
X94465Y-93689D01*
X94352Y-93746D01*
X94296Y-93802D01*
X95533Y-94477D02*
X95421Y-94421D01*
X95365Y-94364D01*
X95308Y-94252D01*
X95308Y-93914D01*
X95365Y-93802D01*
X95421Y-93746D01*
X95533Y-93689D01*
X95702Y-93689D01*
X95815Y-93746D01*
X95871Y-93802D01*
X95927Y-93914D01*
X95927Y-94252D01*
X95871Y-94364D01*
X95815Y-94421D01*
X95702Y-94477D01*
X95533Y-94477D01*
X96602Y-94477D02*
X96489Y-94421D01*
X96433Y-94308D01*
X96433Y-93296D01*
X97502Y-94421D02*
X97389Y-94477D01*
X97164Y-94477D01*
X97052Y-94421D01*
X96996Y-94308D01*
X96996Y-93858D01*
X97052Y-93746D01*
X97164Y-93689D01*
X97389Y-93689D01*
X97502Y-93746D01*
X97558Y-93858D01*
X97558Y-93971D01*
X96996Y-94083D01*
X98008Y-94421D02*
X98120Y-94477D01*
X98345Y-94477D01*
X98458Y-94421D01*
X98514Y-94308D01*
X98514Y-94252D01*
X98458Y-94139D01*
X98345Y-94083D01*
X98177Y-94083D01*
X98064Y-94027D01*
X98008Y-93914D01*
X98008Y-93858D01*
X98064Y-93746D01*
X98177Y-93689D01*
X98345Y-93689D01*
X98458Y-93746D01*
X98908Y-94927D02*
X98964Y-94870D01*
X99077Y-94702D01*
X99133Y-94589D01*
X99189Y-94421D01*
X99245Y-94139D01*
X99245Y-93914D01*
X99189Y-93633D01*
X99133Y-93464D01*
X99077Y-93352D01*
X98964Y-93183D01*
X98908Y-93127D01*
M02*
