G04 (created by PCBNEW (2013-07-07 BZR 4022)-stable) date 10/2/2014 12:43:44 AM*
%MOIN*%
G04 Gerber Fmt 3.4, Leading zero omitted, Abs format*
%FSLAX34Y34*%
G01*
G70*
G90*
G04 APERTURE LIST*
%ADD10C,0.00590551*%
%ADD11R,0.0511811X0.0590551*%
%ADD12R,0.025X0.045*%
%ADD13R,0.045X0.025*%
%ADD14R,0.0708661X0.0708661*%
%ADD15R,0.1X0.1*%
%ADD16R,0.0394X0.0236*%
%ADD17C,0.1*%
G04 APERTURE END LIST*
G54D10*
G54D11*
X76456Y-52700D03*
X76456Y-53700D03*
X76456Y-54700D03*
X76456Y-55700D03*
X76456Y-56700D03*
X76456Y-57700D03*
X76456Y-58700D03*
X76456Y-59700D03*
X80000Y-59700D03*
X80000Y-58700D03*
X80000Y-57700D03*
X80000Y-56700D03*
X80000Y-55700D03*
X80000Y-54700D03*
X80000Y-53700D03*
X80000Y-52700D03*
X76456Y-23976D03*
X76456Y-24976D03*
X76456Y-25976D03*
X76456Y-26976D03*
X76456Y-27976D03*
X76456Y-28976D03*
X76456Y-29976D03*
X76456Y-30976D03*
X80000Y-30976D03*
X80000Y-29976D03*
X80000Y-28976D03*
X80000Y-27976D03*
X80000Y-26976D03*
X80000Y-25976D03*
X80000Y-24976D03*
X80000Y-23976D03*
X76456Y-81600D03*
X76456Y-82600D03*
X76456Y-83600D03*
X76456Y-84600D03*
X76456Y-85600D03*
X76456Y-86600D03*
X76456Y-87600D03*
X76456Y-88600D03*
X80000Y-88600D03*
X80000Y-87600D03*
X80000Y-86600D03*
X80000Y-85600D03*
X80000Y-84600D03*
X80000Y-83600D03*
X80000Y-82600D03*
X80000Y-81600D03*
X76456Y-33267D03*
X76456Y-34267D03*
X76456Y-35267D03*
X76456Y-36267D03*
X76456Y-37267D03*
X76456Y-38267D03*
X76456Y-39267D03*
X76456Y-40267D03*
X80000Y-40267D03*
X80000Y-39267D03*
X80000Y-38267D03*
X80000Y-37267D03*
X80000Y-36267D03*
X80000Y-35267D03*
X80000Y-34267D03*
X80000Y-33267D03*
X76456Y-43031D03*
X76456Y-44031D03*
X76456Y-45031D03*
X76456Y-46031D03*
X76456Y-47031D03*
X76456Y-48031D03*
X76456Y-49031D03*
X76456Y-50031D03*
X80000Y-50031D03*
X80000Y-49031D03*
X80000Y-48031D03*
X80000Y-47031D03*
X80000Y-46031D03*
X80000Y-45031D03*
X80000Y-44031D03*
X80000Y-43031D03*
X76456Y-62300D03*
X76456Y-63300D03*
X76456Y-64300D03*
X76456Y-65300D03*
X76456Y-66300D03*
X76456Y-67300D03*
X76456Y-68300D03*
X76456Y-69300D03*
X80000Y-69300D03*
X80000Y-68300D03*
X80000Y-67300D03*
X80000Y-66300D03*
X80000Y-65300D03*
X80000Y-64300D03*
X80000Y-63300D03*
X80000Y-62300D03*
X76456Y-71800D03*
X76456Y-72800D03*
X76456Y-73800D03*
X76456Y-74800D03*
X76456Y-75800D03*
X76456Y-76800D03*
X76456Y-77800D03*
X76456Y-78800D03*
X80000Y-78800D03*
X80000Y-77800D03*
X80000Y-76800D03*
X80000Y-75800D03*
X80000Y-74800D03*
X80000Y-73800D03*
X80000Y-72800D03*
X80000Y-71800D03*
X76456Y-14400D03*
X76456Y-15400D03*
X76456Y-16400D03*
X76456Y-17400D03*
X76456Y-18400D03*
X76456Y-19400D03*
X76456Y-20400D03*
X76456Y-21400D03*
X80000Y-21400D03*
X80000Y-20400D03*
X80000Y-19400D03*
X80000Y-18400D03*
X80000Y-17400D03*
X80000Y-16400D03*
X80000Y-15400D03*
X80000Y-14400D03*
G54D12*
X81700Y-64300D03*
X81100Y-64300D03*
X81700Y-56700D03*
X81100Y-56700D03*
X81700Y-66300D03*
X81100Y-66300D03*
X81700Y-62300D03*
X81100Y-62300D03*
X75500Y-68300D03*
X74900Y-68300D03*
X75500Y-66300D03*
X74900Y-66300D03*
X75500Y-64200D03*
X74900Y-64200D03*
X75500Y-62200D03*
X74900Y-62200D03*
X81700Y-58700D03*
X81100Y-58700D03*
X81700Y-47000D03*
X81100Y-47000D03*
X81700Y-77800D03*
X81100Y-77800D03*
X81700Y-87600D03*
X81100Y-87600D03*
X81700Y-85600D03*
X81100Y-85600D03*
X81700Y-83600D03*
X81100Y-83600D03*
X81700Y-81600D03*
X81100Y-81600D03*
G54D13*
X75550Y-88350D03*
X75550Y-87750D03*
G54D12*
X75500Y-85600D03*
X74900Y-85600D03*
X75500Y-83600D03*
X74900Y-83600D03*
X75500Y-81600D03*
X74900Y-81600D03*
X81700Y-68300D03*
X81100Y-68300D03*
X81700Y-75800D03*
X81100Y-75800D03*
X81700Y-73800D03*
X81100Y-73800D03*
X81700Y-71800D03*
X81100Y-71800D03*
X75500Y-77800D03*
X74900Y-77800D03*
X75500Y-75800D03*
X74900Y-75800D03*
X75500Y-73800D03*
X74900Y-73800D03*
X75500Y-71800D03*
X74900Y-71800D03*
X75500Y-24000D03*
X74900Y-24000D03*
X75500Y-35200D03*
X74900Y-35200D03*
X75500Y-33200D03*
X74900Y-33200D03*
X81600Y-30000D03*
X81000Y-30000D03*
X81600Y-28000D03*
X81000Y-28000D03*
X81600Y-26000D03*
X81000Y-26000D03*
X81600Y-24000D03*
X81000Y-24000D03*
X75500Y-29900D03*
X74900Y-29900D03*
X75500Y-28000D03*
X74900Y-28000D03*
X75500Y-26000D03*
X74900Y-26000D03*
X81700Y-54700D03*
X81100Y-54700D03*
X81600Y-20400D03*
X81000Y-20400D03*
X81600Y-18400D03*
X81000Y-18400D03*
X81600Y-16400D03*
X81000Y-16400D03*
X81600Y-14400D03*
X81000Y-14400D03*
X75500Y-20400D03*
X74900Y-20400D03*
X75500Y-18400D03*
X74900Y-18400D03*
X75500Y-16400D03*
X74900Y-16400D03*
G54D13*
X75700Y-14500D03*
X75700Y-15100D03*
G54D12*
X75500Y-37200D03*
X74900Y-37200D03*
X81700Y-52700D03*
X81100Y-52700D03*
X75500Y-58700D03*
X74900Y-58700D03*
X75500Y-56700D03*
X74900Y-56700D03*
X75500Y-54600D03*
X74900Y-54600D03*
X75500Y-52600D03*
X74900Y-52600D03*
X81700Y-49000D03*
X81100Y-49000D03*
X81700Y-45000D03*
X81100Y-45000D03*
X81700Y-43000D03*
X81100Y-43000D03*
X75500Y-49000D03*
X74900Y-49000D03*
X75500Y-39200D03*
X74900Y-39200D03*
X81600Y-33300D03*
X81000Y-33300D03*
X81600Y-35300D03*
X81000Y-35300D03*
X81600Y-37300D03*
X81000Y-37300D03*
X81600Y-39300D03*
X81000Y-39300D03*
X75500Y-43000D03*
X74900Y-43000D03*
X75500Y-45000D03*
X74900Y-45000D03*
X75500Y-47000D03*
X74900Y-47000D03*
G54D14*
X85300Y-20500D03*
X85300Y-19500D03*
X85300Y-21500D03*
X85300Y-22500D03*
X85300Y-18500D03*
X85300Y-17500D03*
X85300Y-15500D03*
X85300Y-16500D03*
X85300Y-79000D03*
X85300Y-78000D03*
X85300Y-80000D03*
X85300Y-81000D03*
X85300Y-77000D03*
X85300Y-76000D03*
X85300Y-74000D03*
X85300Y-75000D03*
X85300Y-59300D03*
X85300Y-58300D03*
X85300Y-60300D03*
X85300Y-61300D03*
X85300Y-57300D03*
X85300Y-56300D03*
X85300Y-54300D03*
X85300Y-55300D03*
X85300Y-39300D03*
X85300Y-38300D03*
X85300Y-40300D03*
X85300Y-41300D03*
X85300Y-37300D03*
X85300Y-36300D03*
X85300Y-34300D03*
X85300Y-35300D03*
X74550Y-11400D03*
X75550Y-11400D03*
X77550Y-11400D03*
X76550Y-11400D03*
G54D15*
X82750Y-11500D03*
X84224Y-11500D03*
G54D14*
X74050Y-89600D03*
X75050Y-89600D03*
X74550Y-12900D03*
X75550Y-12900D03*
G54D16*
X82184Y-15025D03*
X83016Y-15400D03*
X82184Y-15775D03*
X82184Y-19025D03*
X83016Y-19400D03*
X82184Y-19775D03*
X82284Y-57325D03*
X83116Y-57700D03*
X82284Y-58075D03*
X82284Y-55325D03*
X83116Y-55700D03*
X82284Y-56075D03*
X82184Y-21025D03*
X83016Y-21400D03*
X82184Y-21775D03*
X82284Y-45625D03*
X83116Y-46000D03*
X82284Y-46375D03*
X82284Y-53325D03*
X83116Y-53700D03*
X82284Y-54075D03*
X82184Y-35925D03*
X83016Y-36300D03*
X82184Y-36675D03*
X82284Y-47625D03*
X83116Y-48000D03*
X82284Y-48375D03*
X82184Y-33925D03*
X83016Y-34300D03*
X82184Y-34675D03*
X82284Y-43625D03*
X83116Y-44000D03*
X82284Y-44375D03*
X82184Y-24625D03*
X83016Y-25000D03*
X82184Y-25375D03*
X82184Y-39925D03*
X83016Y-40300D03*
X82184Y-40675D03*
X82184Y-26625D03*
X83016Y-27000D03*
X82184Y-27375D03*
X82284Y-49625D03*
X83116Y-50000D03*
X82284Y-50375D03*
X82184Y-28625D03*
X83016Y-29000D03*
X82184Y-29375D03*
X82184Y-30625D03*
X83016Y-31000D03*
X82184Y-31375D03*
X82184Y-37925D03*
X83016Y-38300D03*
X82184Y-38675D03*
X82284Y-88225D03*
X83116Y-88600D03*
X82284Y-88975D03*
X82284Y-86225D03*
X83116Y-86600D03*
X82284Y-86975D03*
X82284Y-84225D03*
X83116Y-84600D03*
X82284Y-84975D03*
X82284Y-82225D03*
X83116Y-82600D03*
X82284Y-82975D03*
X82284Y-78425D03*
X83116Y-78800D03*
X82284Y-79175D03*
X82284Y-76425D03*
X83116Y-76800D03*
X82284Y-77175D03*
X82284Y-74425D03*
X83116Y-74800D03*
X82284Y-75175D03*
X82284Y-72425D03*
X83116Y-72800D03*
X82284Y-73175D03*
X82284Y-68925D03*
X83116Y-69300D03*
X82284Y-69675D03*
X82284Y-66925D03*
X83116Y-67300D03*
X82284Y-67675D03*
X82284Y-64925D03*
X83116Y-65300D03*
X82284Y-65675D03*
X82284Y-62925D03*
X83116Y-63300D03*
X82284Y-63675D03*
X82284Y-59325D03*
X83116Y-59700D03*
X82284Y-60075D03*
X82184Y-17025D03*
X83016Y-17400D03*
X82184Y-17775D03*
G54D12*
X75500Y-21300D03*
X74900Y-21300D03*
X75100Y-41250D03*
X74500Y-41250D03*
X74900Y-59700D03*
X75500Y-59700D03*
X74900Y-78800D03*
X75500Y-78800D03*
G54D17*
X85000Y-89200D03*
X85200Y-13200D03*
X74200Y-14400D03*
X74150Y-87950D03*
X81250Y-51350D03*
M02*
