M48
;DRILL file {Pcbnew (2013-07-07 BZR 4022)-stable} date 10/2/2014 12:43:52 AM
;FORMAT={-:-/ absolute / inch / decimal}
FMAT,2
INCH,TZ
T1C0.025
T2C0.043
T3C0.070
%
G90
G05
M72
T1
X7.375Y-8.075
X7.383Y-1.298
X7.389Y-1.631
X7.39Y-2.015
X7.395Y-8.69
X7.4Y-8.89
X7.42Y-2.115
X7.44Y-8.22
X7.445Y-5.8
X7.445Y-6.265
X7.445Y-7.885
X7.4475Y-2.685
X7.45Y-4.01
X7.45Y-5.97
X7.45Y-6.34
X7.45Y-7.475
X7.47Y-2.5075
X7.47Y-3.835
X7.475Y-5.53
X7.475Y-7.665
X7.48Y-3.08
X7.48Y-4.39
X7.48Y-5.34
X7.48Y-7.265
X7.485Y-7.11
X7.4875Y-2.4625
X7.49Y-2.715
X7.49Y-2.905
X7.5Y-1.56
X7.5Y-4.04
X7.52Y-2.51
X7.52Y-4.18
X7.525Y-5.18
X7.53Y-6.1
X7.53Y-6.305
X7.535Y-4.3725
X7.535Y-6.355
X7.535Y-6.565
X7.535Y-8.295
X7.535Y-8.63
X7.54Y-1.365
X7.54Y-3.4225
X7.54Y-5.8
X7.54Y-6.495
X7.54Y-8.23
X7.545Y-2.735
X7.545Y-8.
X7.55Y-5.735
X7.55Y-6.765
X7.555Y-5.005
X7.555Y-5.075
X7.555Y-6.7
X7.555Y-8.43
X7.555Y-8.495
X7.555Y-8.72
X7.5575Y-4.4375
X7.56Y-3.08
X7.565Y-1.715
X7.565Y-2.92
X7.5675Y-1.7625
X7.57Y-5.53
X7.57Y-5.6
X7.57Y-6.975
X7.57Y-7.645
X7.57Y-7.71
X7.57Y-8.67
X7.5725Y-1.97
X7.575Y-3.9925
X7.575Y-7.24
X7.575Y-7.445
X7.575Y-7.515
X7.5775Y-3.86
X7.58Y-3.4625
X7.58Y-3.6425
X7.58Y-4.155
X7.58Y-4.635
X7.58Y-4.84
X7.58Y-5.32
X7.58Y-5.38
X7.58Y-6.9
X7.58Y-7.305
X7.5925Y-1.3775
X7.63Y-8.935
X7.66Y-1.2575
X7.7Y-1.37
X8.075Y-2.91
X8.075Y-3.645
X8.075Y-7.695
X8.08Y-1.955
X8.08Y-3.84
X8.08Y-4.05
X8.08Y-4.815
X8.08Y-6.745
X8.08Y-8.275
X8.08Y-8.47
X8.08Y-8.68
X8.085Y-2.17
X8.085Y-2.515
X8.085Y-2.715
X8.085Y-3.125
X8.085Y-3.44
X8.085Y-4.61
X8.085Y-5.58
X8.085Y-5.79
X8.085Y-6.95
X8.085Y-7.295
X8.085Y-8.875
X8.09Y-1.755
X8.09Y-4.42
X8.09Y-5.015
X8.09Y-5.99
X8.09Y-6.545
X8.09Y-7.5
X8.09Y-7.905
X8.095Y-1.56
X8.095Y-5.38
X8.095Y-6.345
X8.145Y-1.265
X8.175Y-1.345
X8.23Y-2.4
X8.24Y-2.04
X8.24Y-3.33
X8.24Y-3.53
X8.245Y-2.6
X8.245Y-2.8
X8.245Y-3.
X8.245Y-3.73
X8.245Y-3.93
X8.25Y-1.84
X8.25Y-4.3
X8.255Y-4.5
X8.255Y-4.7
X8.255Y-4.9
X8.275Y-1.64
X8.295Y-6.23
X8.3Y-6.455
X8.3Y-7.805
X8.3Y-8.16
X8.3Y-8.59
X8.305Y-5.69
X8.305Y-5.885
X8.305Y-6.65
X8.305Y-8.38
X8.31Y-5.27
X8.31Y-5.495
X8.31Y-6.85
X8.31Y-7.18
X8.31Y-7.405
X8.31Y-7.605
X8.31Y-8.78
X8.54Y-1.15
T2
X7.405Y-8.96
X7.455Y-1.14
X7.455Y-1.29
X7.505Y-8.96
X7.555Y-1.14
X7.555Y-1.29
X7.655Y-1.14
X7.755Y-1.14
X8.53Y-1.55
X8.53Y-1.65
X8.53Y-1.75
X8.53Y-1.85
X8.53Y-1.95
X8.53Y-2.05
X8.53Y-2.15
X8.53Y-2.25
X8.53Y-3.43
X8.53Y-3.53
X8.53Y-3.63
X8.53Y-3.73
X8.53Y-3.83
X8.53Y-3.93
X8.53Y-4.03
X8.53Y-4.13
X8.53Y-5.43
X8.53Y-5.53
X8.53Y-5.63
X8.53Y-5.73
X8.53Y-5.83
X8.53Y-5.93
X8.53Y-6.03
X8.53Y-6.13
X8.53Y-7.4
X8.53Y-7.5
X8.53Y-7.6
X8.53Y-7.7
X8.53Y-7.8
X8.53Y-7.9
X8.53Y-8.
X8.53Y-8.1
T3
X8.275Y-1.15
X8.4224Y-1.15
T0
M30
