G04 (created by PCBNEW (2013-07-07 BZR 4022)-stable) date 9/25/2014 11:35:05 PM*
%MOIN*%
G04 Gerber Fmt 3.4, Leading zero omitted, Abs format*
%FSLAX34Y34*%
G01*
G70*
G90*
G04 APERTURE LIST*
%ADD10C,0.00590551*%
%ADD11C,0.005*%
%ADD12C,0.0047*%
%ADD13C,0.0045*%
%ADD14C,0.0039*%
G04 APERTURE END LIST*
G54D10*
X76944Y-22834D02*
G75*
G03X76944Y-22834I-212J0D01*
G74*
G01*
X76944Y-51558D02*
G75*
G03X76944Y-51558I-212J0D01*
G74*
G01*
X76944Y-80458D02*
G75*
G03X76944Y-80458I-212J0D01*
G74*
G01*
X76944Y-32125D02*
G75*
G03X76944Y-32125I-212J0D01*
G74*
G01*
X76944Y-41889D02*
G75*
G03X76944Y-41889I-212J0D01*
G74*
G01*
X76944Y-61158D02*
G75*
G03X76944Y-61158I-212J0D01*
G74*
G01*
X76944Y-70658D02*
G75*
G03X76944Y-70658I-212J0D01*
G74*
G01*
X76944Y-13258D02*
G75*
G03X76944Y-13258I-212J0D01*
G74*
G01*
G54D11*
X81850Y-64550D02*
X80950Y-64550D01*
X80950Y-64550D02*
X80950Y-64050D01*
X80950Y-64050D02*
X81850Y-64050D01*
X81850Y-64050D02*
X81850Y-64550D01*
X81850Y-56950D02*
X80950Y-56950D01*
X80950Y-56950D02*
X80950Y-56450D01*
X80950Y-56450D02*
X81850Y-56450D01*
X81850Y-56450D02*
X81850Y-56950D01*
X81850Y-66550D02*
X80950Y-66550D01*
X80950Y-66550D02*
X80950Y-66050D01*
X80950Y-66050D02*
X81850Y-66050D01*
X81850Y-66050D02*
X81850Y-66550D01*
X81850Y-62550D02*
X80950Y-62550D01*
X80950Y-62550D02*
X80950Y-62050D01*
X80950Y-62050D02*
X81850Y-62050D01*
X81850Y-62050D02*
X81850Y-62550D01*
X75650Y-68550D02*
X74750Y-68550D01*
X74750Y-68550D02*
X74750Y-68050D01*
X74750Y-68050D02*
X75650Y-68050D01*
X75650Y-68050D02*
X75650Y-68550D01*
X75650Y-66550D02*
X74750Y-66550D01*
X74750Y-66550D02*
X74750Y-66050D01*
X74750Y-66050D02*
X75650Y-66050D01*
X75650Y-66050D02*
X75650Y-66550D01*
X75650Y-64450D02*
X74750Y-64450D01*
X74750Y-64450D02*
X74750Y-63950D01*
X74750Y-63950D02*
X75650Y-63950D01*
X75650Y-63950D02*
X75650Y-64450D01*
X75650Y-62450D02*
X74750Y-62450D01*
X74750Y-62450D02*
X74750Y-61950D01*
X74750Y-61950D02*
X75650Y-61950D01*
X75650Y-61950D02*
X75650Y-62450D01*
X81850Y-58950D02*
X80950Y-58950D01*
X80950Y-58950D02*
X80950Y-58450D01*
X80950Y-58450D02*
X81850Y-58450D01*
X81850Y-58450D02*
X81850Y-58950D01*
X81850Y-47250D02*
X80950Y-47250D01*
X80950Y-47250D02*
X80950Y-46750D01*
X80950Y-46750D02*
X81850Y-46750D01*
X81850Y-46750D02*
X81850Y-47250D01*
X81850Y-78050D02*
X80950Y-78050D01*
X80950Y-78050D02*
X80950Y-77550D01*
X80950Y-77550D02*
X81850Y-77550D01*
X81850Y-77550D02*
X81850Y-78050D01*
X81850Y-87850D02*
X80950Y-87850D01*
X80950Y-87850D02*
X80950Y-87350D01*
X80950Y-87350D02*
X81850Y-87350D01*
X81850Y-87350D02*
X81850Y-87850D01*
X81850Y-85850D02*
X80950Y-85850D01*
X80950Y-85850D02*
X80950Y-85350D01*
X80950Y-85350D02*
X81850Y-85350D01*
X81850Y-85350D02*
X81850Y-85850D01*
X81850Y-83850D02*
X80950Y-83850D01*
X80950Y-83850D02*
X80950Y-83350D01*
X80950Y-83350D02*
X81850Y-83350D01*
X81850Y-83350D02*
X81850Y-83850D01*
X81850Y-81850D02*
X80950Y-81850D01*
X80950Y-81850D02*
X80950Y-81350D01*
X80950Y-81350D02*
X81850Y-81350D01*
X81850Y-81350D02*
X81850Y-81850D01*
X75650Y-87850D02*
X74750Y-87850D01*
X74750Y-87850D02*
X74750Y-87350D01*
X74750Y-87350D02*
X75650Y-87350D01*
X75650Y-87350D02*
X75650Y-87850D01*
X75650Y-85850D02*
X74750Y-85850D01*
X74750Y-85850D02*
X74750Y-85350D01*
X74750Y-85350D02*
X75650Y-85350D01*
X75650Y-85350D02*
X75650Y-85850D01*
X75650Y-83850D02*
X74750Y-83850D01*
X74750Y-83850D02*
X74750Y-83350D01*
X74750Y-83350D02*
X75650Y-83350D01*
X75650Y-83350D02*
X75650Y-83850D01*
X75650Y-81850D02*
X74750Y-81850D01*
X74750Y-81850D02*
X74750Y-81350D01*
X74750Y-81350D02*
X75650Y-81350D01*
X75650Y-81350D02*
X75650Y-81850D01*
X81850Y-68550D02*
X80950Y-68550D01*
X80950Y-68550D02*
X80950Y-68050D01*
X80950Y-68050D02*
X81850Y-68050D01*
X81850Y-68050D02*
X81850Y-68550D01*
X81850Y-76050D02*
X80950Y-76050D01*
X80950Y-76050D02*
X80950Y-75550D01*
X80950Y-75550D02*
X81850Y-75550D01*
X81850Y-75550D02*
X81850Y-76050D01*
X81850Y-74050D02*
X80950Y-74050D01*
X80950Y-74050D02*
X80950Y-73550D01*
X80950Y-73550D02*
X81850Y-73550D01*
X81850Y-73550D02*
X81850Y-74050D01*
X81850Y-72050D02*
X80950Y-72050D01*
X80950Y-72050D02*
X80950Y-71550D01*
X80950Y-71550D02*
X81850Y-71550D01*
X81850Y-71550D02*
X81850Y-72050D01*
X75650Y-78050D02*
X74750Y-78050D01*
X74750Y-78050D02*
X74750Y-77550D01*
X74750Y-77550D02*
X75650Y-77550D01*
X75650Y-77550D02*
X75650Y-78050D01*
X75650Y-76050D02*
X74750Y-76050D01*
X74750Y-76050D02*
X74750Y-75550D01*
X74750Y-75550D02*
X75650Y-75550D01*
X75650Y-75550D02*
X75650Y-76050D01*
X75650Y-74050D02*
X74750Y-74050D01*
X74750Y-74050D02*
X74750Y-73550D01*
X74750Y-73550D02*
X75650Y-73550D01*
X75650Y-73550D02*
X75650Y-74050D01*
X75650Y-72050D02*
X74750Y-72050D01*
X74750Y-72050D02*
X74750Y-71550D01*
X74750Y-71550D02*
X75650Y-71550D01*
X75650Y-71550D02*
X75650Y-72050D01*
X75650Y-24250D02*
X74750Y-24250D01*
X74750Y-24250D02*
X74750Y-23750D01*
X74750Y-23750D02*
X75650Y-23750D01*
X75650Y-23750D02*
X75650Y-24250D01*
X75650Y-35450D02*
X74750Y-35450D01*
X74750Y-35450D02*
X74750Y-34950D01*
X74750Y-34950D02*
X75650Y-34950D01*
X75650Y-34950D02*
X75650Y-35450D01*
X75650Y-33450D02*
X74750Y-33450D01*
X74750Y-33450D02*
X74750Y-32950D01*
X74750Y-32950D02*
X75650Y-32950D01*
X75650Y-32950D02*
X75650Y-33450D01*
X81750Y-30250D02*
X80850Y-30250D01*
X80850Y-30250D02*
X80850Y-29750D01*
X80850Y-29750D02*
X81750Y-29750D01*
X81750Y-29750D02*
X81750Y-30250D01*
X81750Y-28250D02*
X80850Y-28250D01*
X80850Y-28250D02*
X80850Y-27750D01*
X80850Y-27750D02*
X81750Y-27750D01*
X81750Y-27750D02*
X81750Y-28250D01*
X81750Y-26250D02*
X80850Y-26250D01*
X80850Y-26250D02*
X80850Y-25750D01*
X80850Y-25750D02*
X81750Y-25750D01*
X81750Y-25750D02*
X81750Y-26250D01*
X81750Y-24250D02*
X80850Y-24250D01*
X80850Y-24250D02*
X80850Y-23750D01*
X80850Y-23750D02*
X81750Y-23750D01*
X81750Y-23750D02*
X81750Y-24250D01*
X75650Y-30150D02*
X74750Y-30150D01*
X74750Y-30150D02*
X74750Y-29650D01*
X74750Y-29650D02*
X75650Y-29650D01*
X75650Y-29650D02*
X75650Y-30150D01*
X75650Y-28250D02*
X74750Y-28250D01*
X74750Y-28250D02*
X74750Y-27750D01*
X74750Y-27750D02*
X75650Y-27750D01*
X75650Y-27750D02*
X75650Y-28250D01*
X75650Y-26250D02*
X74750Y-26250D01*
X74750Y-26250D02*
X74750Y-25750D01*
X74750Y-25750D02*
X75650Y-25750D01*
X75650Y-25750D02*
X75650Y-26250D01*
X81850Y-54950D02*
X80950Y-54950D01*
X80950Y-54950D02*
X80950Y-54450D01*
X80950Y-54450D02*
X81850Y-54450D01*
X81850Y-54450D02*
X81850Y-54950D01*
X81750Y-20650D02*
X80850Y-20650D01*
X80850Y-20650D02*
X80850Y-20150D01*
X80850Y-20150D02*
X81750Y-20150D01*
X81750Y-20150D02*
X81750Y-20650D01*
X81750Y-18650D02*
X80850Y-18650D01*
X80850Y-18650D02*
X80850Y-18150D01*
X80850Y-18150D02*
X81750Y-18150D01*
X81750Y-18150D02*
X81750Y-18650D01*
X81750Y-16650D02*
X80850Y-16650D01*
X80850Y-16650D02*
X80850Y-16150D01*
X80850Y-16150D02*
X81750Y-16150D01*
X81750Y-16150D02*
X81750Y-16650D01*
X81750Y-14650D02*
X80850Y-14650D01*
X80850Y-14650D02*
X80850Y-14150D01*
X80850Y-14150D02*
X81750Y-14150D01*
X81750Y-14150D02*
X81750Y-14650D01*
X75650Y-20650D02*
X74750Y-20650D01*
X74750Y-20650D02*
X74750Y-20150D01*
X74750Y-20150D02*
X75650Y-20150D01*
X75650Y-20150D02*
X75650Y-20650D01*
X75650Y-18650D02*
X74750Y-18650D01*
X74750Y-18650D02*
X74750Y-18150D01*
X74750Y-18150D02*
X75650Y-18150D01*
X75650Y-18150D02*
X75650Y-18650D01*
X75650Y-16650D02*
X74750Y-16650D01*
X74750Y-16650D02*
X74750Y-16150D01*
X74750Y-16150D02*
X75650Y-16150D01*
X75650Y-16150D02*
X75650Y-16650D01*
X75650Y-14650D02*
X74750Y-14650D01*
X74750Y-14650D02*
X74750Y-14150D01*
X74750Y-14150D02*
X75650Y-14150D01*
X75650Y-14150D02*
X75650Y-14650D01*
X75650Y-37450D02*
X74750Y-37450D01*
X74750Y-37450D02*
X74750Y-36950D01*
X74750Y-36950D02*
X75650Y-36950D01*
X75650Y-36950D02*
X75650Y-37450D01*
X81850Y-52950D02*
X80950Y-52950D01*
X80950Y-52950D02*
X80950Y-52450D01*
X80950Y-52450D02*
X81850Y-52450D01*
X81850Y-52450D02*
X81850Y-52950D01*
X75650Y-58950D02*
X74750Y-58950D01*
X74750Y-58950D02*
X74750Y-58450D01*
X74750Y-58450D02*
X75650Y-58450D01*
X75650Y-58450D02*
X75650Y-58950D01*
X75650Y-56950D02*
X74750Y-56950D01*
X74750Y-56950D02*
X74750Y-56450D01*
X74750Y-56450D02*
X75650Y-56450D01*
X75650Y-56450D02*
X75650Y-56950D01*
X75650Y-54850D02*
X74750Y-54850D01*
X74750Y-54850D02*
X74750Y-54350D01*
X74750Y-54350D02*
X75650Y-54350D01*
X75650Y-54350D02*
X75650Y-54850D01*
X75650Y-52850D02*
X74750Y-52850D01*
X74750Y-52850D02*
X74750Y-52350D01*
X74750Y-52350D02*
X75650Y-52350D01*
X75650Y-52350D02*
X75650Y-52850D01*
X81850Y-49250D02*
X80950Y-49250D01*
X80950Y-49250D02*
X80950Y-48750D01*
X80950Y-48750D02*
X81850Y-48750D01*
X81850Y-48750D02*
X81850Y-49250D01*
X81850Y-45250D02*
X80950Y-45250D01*
X80950Y-45250D02*
X80950Y-44750D01*
X80950Y-44750D02*
X81850Y-44750D01*
X81850Y-44750D02*
X81850Y-45250D01*
X81850Y-43250D02*
X80950Y-43250D01*
X80950Y-43250D02*
X80950Y-42750D01*
X80950Y-42750D02*
X81850Y-42750D01*
X81850Y-42750D02*
X81850Y-43250D01*
X75650Y-49250D02*
X74750Y-49250D01*
X74750Y-49250D02*
X74750Y-48750D01*
X74750Y-48750D02*
X75650Y-48750D01*
X75650Y-48750D02*
X75650Y-49250D01*
X75650Y-39450D02*
X74750Y-39450D01*
X74750Y-39450D02*
X74750Y-38950D01*
X74750Y-38950D02*
X75650Y-38950D01*
X75650Y-38950D02*
X75650Y-39450D01*
X81750Y-33550D02*
X80850Y-33550D01*
X80850Y-33550D02*
X80850Y-33050D01*
X80850Y-33050D02*
X81750Y-33050D01*
X81750Y-33050D02*
X81750Y-33550D01*
X81750Y-35550D02*
X80850Y-35550D01*
X80850Y-35550D02*
X80850Y-35050D01*
X80850Y-35050D02*
X81750Y-35050D01*
X81750Y-35050D02*
X81750Y-35550D01*
X81750Y-37550D02*
X80850Y-37550D01*
X80850Y-37550D02*
X80850Y-37050D01*
X80850Y-37050D02*
X81750Y-37050D01*
X81750Y-37050D02*
X81750Y-37550D01*
X81750Y-39550D02*
X80850Y-39550D01*
X80850Y-39550D02*
X80850Y-39050D01*
X80850Y-39050D02*
X81750Y-39050D01*
X81750Y-39050D02*
X81750Y-39550D01*
X75650Y-43250D02*
X74750Y-43250D01*
X74750Y-43250D02*
X74750Y-42750D01*
X74750Y-42750D02*
X75650Y-42750D01*
X75650Y-42750D02*
X75650Y-43250D01*
X75650Y-45250D02*
X74750Y-45250D01*
X74750Y-45250D02*
X74750Y-44750D01*
X74750Y-44750D02*
X75650Y-44750D01*
X75650Y-44750D02*
X75650Y-45250D01*
X75650Y-47250D02*
X74750Y-47250D01*
X74750Y-47250D02*
X74750Y-46750D01*
X74750Y-46750D02*
X75650Y-46750D01*
X75650Y-46750D02*
X75650Y-47250D01*
X82325Y-15775D02*
X82065Y-15775D01*
X82325Y-15025D02*
X82065Y-15025D01*
X82875Y-15400D02*
X83135Y-15400D01*
X82875Y-14810D02*
X82875Y-15990D01*
X82875Y-15990D02*
X82325Y-15990D01*
X82325Y-15990D02*
X82325Y-14810D01*
X82325Y-14810D02*
X82875Y-14810D01*
X82325Y-19775D02*
X82065Y-19775D01*
X82325Y-19025D02*
X82065Y-19025D01*
X82875Y-19400D02*
X83135Y-19400D01*
X82875Y-18810D02*
X82875Y-19990D01*
X82875Y-19990D02*
X82325Y-19990D01*
X82325Y-19990D02*
X82325Y-18810D01*
X82325Y-18810D02*
X82875Y-18810D01*
X82425Y-58075D02*
X82165Y-58075D01*
X82425Y-57325D02*
X82165Y-57325D01*
X82975Y-57700D02*
X83235Y-57700D01*
X82975Y-57110D02*
X82975Y-58290D01*
X82975Y-58290D02*
X82425Y-58290D01*
X82425Y-58290D02*
X82425Y-57110D01*
X82425Y-57110D02*
X82975Y-57110D01*
X82425Y-56075D02*
X82165Y-56075D01*
X82425Y-55325D02*
X82165Y-55325D01*
X82975Y-55700D02*
X83235Y-55700D01*
X82975Y-55110D02*
X82975Y-56290D01*
X82975Y-56290D02*
X82425Y-56290D01*
X82425Y-56290D02*
X82425Y-55110D01*
X82425Y-55110D02*
X82975Y-55110D01*
X82325Y-21775D02*
X82065Y-21775D01*
X82325Y-21025D02*
X82065Y-21025D01*
X82875Y-21400D02*
X83135Y-21400D01*
X82875Y-20810D02*
X82875Y-21990D01*
X82875Y-21990D02*
X82325Y-21990D01*
X82325Y-21990D02*
X82325Y-20810D01*
X82325Y-20810D02*
X82875Y-20810D01*
X82425Y-46375D02*
X82165Y-46375D01*
X82425Y-45625D02*
X82165Y-45625D01*
X82975Y-46000D02*
X83235Y-46000D01*
X82975Y-45410D02*
X82975Y-46590D01*
X82975Y-46590D02*
X82425Y-46590D01*
X82425Y-46590D02*
X82425Y-45410D01*
X82425Y-45410D02*
X82975Y-45410D01*
X82425Y-54075D02*
X82165Y-54075D01*
X82425Y-53325D02*
X82165Y-53325D01*
X82975Y-53700D02*
X83235Y-53700D01*
X82975Y-53110D02*
X82975Y-54290D01*
X82975Y-54290D02*
X82425Y-54290D01*
X82425Y-54290D02*
X82425Y-53110D01*
X82425Y-53110D02*
X82975Y-53110D01*
X82325Y-36675D02*
X82065Y-36675D01*
X82325Y-35925D02*
X82065Y-35925D01*
X82875Y-36300D02*
X83135Y-36300D01*
X82875Y-35710D02*
X82875Y-36890D01*
X82875Y-36890D02*
X82325Y-36890D01*
X82325Y-36890D02*
X82325Y-35710D01*
X82325Y-35710D02*
X82875Y-35710D01*
X82425Y-48375D02*
X82165Y-48375D01*
X82425Y-47625D02*
X82165Y-47625D01*
X82975Y-48000D02*
X83235Y-48000D01*
X82975Y-47410D02*
X82975Y-48590D01*
X82975Y-48590D02*
X82425Y-48590D01*
X82425Y-48590D02*
X82425Y-47410D01*
X82425Y-47410D02*
X82975Y-47410D01*
X82325Y-34675D02*
X82065Y-34675D01*
X82325Y-33925D02*
X82065Y-33925D01*
X82875Y-34300D02*
X83135Y-34300D01*
X82875Y-33710D02*
X82875Y-34890D01*
X82875Y-34890D02*
X82325Y-34890D01*
X82325Y-34890D02*
X82325Y-33710D01*
X82325Y-33710D02*
X82875Y-33710D01*
X82425Y-44375D02*
X82165Y-44375D01*
X82425Y-43625D02*
X82165Y-43625D01*
X82975Y-44000D02*
X83235Y-44000D01*
X82975Y-43410D02*
X82975Y-44590D01*
X82975Y-44590D02*
X82425Y-44590D01*
X82425Y-44590D02*
X82425Y-43410D01*
X82425Y-43410D02*
X82975Y-43410D01*
X82325Y-25375D02*
X82065Y-25375D01*
X82325Y-24625D02*
X82065Y-24625D01*
X82875Y-25000D02*
X83135Y-25000D01*
X82875Y-24410D02*
X82875Y-25590D01*
X82875Y-25590D02*
X82325Y-25590D01*
X82325Y-25590D02*
X82325Y-24410D01*
X82325Y-24410D02*
X82875Y-24410D01*
X82325Y-40675D02*
X82065Y-40675D01*
X82325Y-39925D02*
X82065Y-39925D01*
X82875Y-40300D02*
X83135Y-40300D01*
X82875Y-39710D02*
X82875Y-40890D01*
X82875Y-40890D02*
X82325Y-40890D01*
X82325Y-40890D02*
X82325Y-39710D01*
X82325Y-39710D02*
X82875Y-39710D01*
X82325Y-27375D02*
X82065Y-27375D01*
X82325Y-26625D02*
X82065Y-26625D01*
X82875Y-27000D02*
X83135Y-27000D01*
X82875Y-26410D02*
X82875Y-27590D01*
X82875Y-27590D02*
X82325Y-27590D01*
X82325Y-27590D02*
X82325Y-26410D01*
X82325Y-26410D02*
X82875Y-26410D01*
X82425Y-50375D02*
X82165Y-50375D01*
X82425Y-49625D02*
X82165Y-49625D01*
X82975Y-50000D02*
X83235Y-50000D01*
X82975Y-49410D02*
X82975Y-50590D01*
X82975Y-50590D02*
X82425Y-50590D01*
X82425Y-50590D02*
X82425Y-49410D01*
X82425Y-49410D02*
X82975Y-49410D01*
X82325Y-29375D02*
X82065Y-29375D01*
X82325Y-28625D02*
X82065Y-28625D01*
X82875Y-29000D02*
X83135Y-29000D01*
X82875Y-28410D02*
X82875Y-29590D01*
X82875Y-29590D02*
X82325Y-29590D01*
X82325Y-29590D02*
X82325Y-28410D01*
X82325Y-28410D02*
X82875Y-28410D01*
X82325Y-31375D02*
X82065Y-31375D01*
X82325Y-30625D02*
X82065Y-30625D01*
X82875Y-31000D02*
X83135Y-31000D01*
X82875Y-30410D02*
X82875Y-31590D01*
X82875Y-31590D02*
X82325Y-31590D01*
X82325Y-31590D02*
X82325Y-30410D01*
X82325Y-30410D02*
X82875Y-30410D01*
X82325Y-38675D02*
X82065Y-38675D01*
X82325Y-37925D02*
X82065Y-37925D01*
X82875Y-38300D02*
X83135Y-38300D01*
X82875Y-37710D02*
X82875Y-38890D01*
X82875Y-38890D02*
X82325Y-38890D01*
X82325Y-38890D02*
X82325Y-37710D01*
X82325Y-37710D02*
X82875Y-37710D01*
X82425Y-88975D02*
X82165Y-88975D01*
X82425Y-88225D02*
X82165Y-88225D01*
X82975Y-88600D02*
X83235Y-88600D01*
X82975Y-88010D02*
X82975Y-89190D01*
X82975Y-89190D02*
X82425Y-89190D01*
X82425Y-89190D02*
X82425Y-88010D01*
X82425Y-88010D02*
X82975Y-88010D01*
X82425Y-86975D02*
X82165Y-86975D01*
X82425Y-86225D02*
X82165Y-86225D01*
X82975Y-86600D02*
X83235Y-86600D01*
X82975Y-86010D02*
X82975Y-87190D01*
X82975Y-87190D02*
X82425Y-87190D01*
X82425Y-87190D02*
X82425Y-86010D01*
X82425Y-86010D02*
X82975Y-86010D01*
X82425Y-84975D02*
X82165Y-84975D01*
X82425Y-84225D02*
X82165Y-84225D01*
X82975Y-84600D02*
X83235Y-84600D01*
X82975Y-84010D02*
X82975Y-85190D01*
X82975Y-85190D02*
X82425Y-85190D01*
X82425Y-85190D02*
X82425Y-84010D01*
X82425Y-84010D02*
X82975Y-84010D01*
X82425Y-82975D02*
X82165Y-82975D01*
X82425Y-82225D02*
X82165Y-82225D01*
X82975Y-82600D02*
X83235Y-82600D01*
X82975Y-82010D02*
X82975Y-83190D01*
X82975Y-83190D02*
X82425Y-83190D01*
X82425Y-83190D02*
X82425Y-82010D01*
X82425Y-82010D02*
X82975Y-82010D01*
X82425Y-79175D02*
X82165Y-79175D01*
X82425Y-78425D02*
X82165Y-78425D01*
X82975Y-78800D02*
X83235Y-78800D01*
X82975Y-78210D02*
X82975Y-79390D01*
X82975Y-79390D02*
X82425Y-79390D01*
X82425Y-79390D02*
X82425Y-78210D01*
X82425Y-78210D02*
X82975Y-78210D01*
X82425Y-77175D02*
X82165Y-77175D01*
X82425Y-76425D02*
X82165Y-76425D01*
X82975Y-76800D02*
X83235Y-76800D01*
X82975Y-76210D02*
X82975Y-77390D01*
X82975Y-77390D02*
X82425Y-77390D01*
X82425Y-77390D02*
X82425Y-76210D01*
X82425Y-76210D02*
X82975Y-76210D01*
X82425Y-75175D02*
X82165Y-75175D01*
X82425Y-74425D02*
X82165Y-74425D01*
X82975Y-74800D02*
X83235Y-74800D01*
X82975Y-74210D02*
X82975Y-75390D01*
X82975Y-75390D02*
X82425Y-75390D01*
X82425Y-75390D02*
X82425Y-74210D01*
X82425Y-74210D02*
X82975Y-74210D01*
X82425Y-73175D02*
X82165Y-73175D01*
X82425Y-72425D02*
X82165Y-72425D01*
X82975Y-72800D02*
X83235Y-72800D01*
X82975Y-72210D02*
X82975Y-73390D01*
X82975Y-73390D02*
X82425Y-73390D01*
X82425Y-73390D02*
X82425Y-72210D01*
X82425Y-72210D02*
X82975Y-72210D01*
X82425Y-69675D02*
X82165Y-69675D01*
X82425Y-68925D02*
X82165Y-68925D01*
X82975Y-69300D02*
X83235Y-69300D01*
X82975Y-68710D02*
X82975Y-69890D01*
X82975Y-69890D02*
X82425Y-69890D01*
X82425Y-69890D02*
X82425Y-68710D01*
X82425Y-68710D02*
X82975Y-68710D01*
X82425Y-67675D02*
X82165Y-67675D01*
X82425Y-66925D02*
X82165Y-66925D01*
X82975Y-67300D02*
X83235Y-67300D01*
X82975Y-66710D02*
X82975Y-67890D01*
X82975Y-67890D02*
X82425Y-67890D01*
X82425Y-67890D02*
X82425Y-66710D01*
X82425Y-66710D02*
X82975Y-66710D01*
X82425Y-65675D02*
X82165Y-65675D01*
X82425Y-64925D02*
X82165Y-64925D01*
X82975Y-65300D02*
X83235Y-65300D01*
X82975Y-64710D02*
X82975Y-65890D01*
X82975Y-65890D02*
X82425Y-65890D01*
X82425Y-65890D02*
X82425Y-64710D01*
X82425Y-64710D02*
X82975Y-64710D01*
X82425Y-63675D02*
X82165Y-63675D01*
X82425Y-62925D02*
X82165Y-62925D01*
X82975Y-63300D02*
X83235Y-63300D01*
X82975Y-62710D02*
X82975Y-63890D01*
X82975Y-63890D02*
X82425Y-63890D01*
X82425Y-63890D02*
X82425Y-62710D01*
X82425Y-62710D02*
X82975Y-62710D01*
X82425Y-60075D02*
X82165Y-60075D01*
X82425Y-59325D02*
X82165Y-59325D01*
X82975Y-59700D02*
X83235Y-59700D01*
X82975Y-59110D02*
X82975Y-60290D01*
X82975Y-60290D02*
X82425Y-60290D01*
X82425Y-60290D02*
X82425Y-59110D01*
X82425Y-59110D02*
X82975Y-59110D01*
X82325Y-17775D02*
X82065Y-17775D01*
X82325Y-17025D02*
X82065Y-17025D01*
X82875Y-17400D02*
X83135Y-17400D01*
X82875Y-16810D02*
X82875Y-17990D01*
X82875Y-17990D02*
X82325Y-17990D01*
X82325Y-17990D02*
X82325Y-16810D01*
X82325Y-16810D02*
X82875Y-16810D01*
G54D12*
X75003Y-21044D02*
X74728Y-21044D01*
X75397Y-21044D02*
X75672Y-21044D01*
X75003Y-21556D02*
X74728Y-21556D01*
X75672Y-21556D02*
X75397Y-21556D01*
X74728Y-21550D02*
X74728Y-21050D01*
X75672Y-21050D02*
X75672Y-21550D01*
X74603Y-40994D02*
X74328Y-40994D01*
X74997Y-40994D02*
X75272Y-40994D01*
X74603Y-41506D02*
X74328Y-41506D01*
X75272Y-41506D02*
X74997Y-41506D01*
X74328Y-41500D02*
X74328Y-41000D01*
X75272Y-41000D02*
X75272Y-41500D01*
X75397Y-59956D02*
X75672Y-59956D01*
X75003Y-59956D02*
X74728Y-59956D01*
X75397Y-59444D02*
X75672Y-59444D01*
X74728Y-59444D02*
X75003Y-59444D01*
X75672Y-59450D02*
X75672Y-59950D01*
X74728Y-59950D02*
X74728Y-59450D01*
X75397Y-79056D02*
X75672Y-79056D01*
X75003Y-79056D02*
X74728Y-79056D01*
X75397Y-78544D02*
X75672Y-78544D01*
X74728Y-78544D02*
X75003Y-78544D01*
X75672Y-78550D02*
X75672Y-79050D01*
X74728Y-79050D02*
X74728Y-78550D01*
G54D10*
X80455Y-24498D02*
X80774Y-24498D01*
X80811Y-24480D01*
X80830Y-24461D01*
X80849Y-24423D01*
X80849Y-24348D01*
X80830Y-24311D01*
X80811Y-24292D01*
X80774Y-24273D01*
X80455Y-24273D01*
X80849Y-23880D02*
X80849Y-24105D01*
X80849Y-23992D02*
X80455Y-23992D01*
X80511Y-24030D01*
X80549Y-24067D01*
X80568Y-24105D01*
X80493Y-23730D02*
X80474Y-23711D01*
X80455Y-23673D01*
X80455Y-23580D01*
X80474Y-23542D01*
X80493Y-23523D01*
X80530Y-23505D01*
X80568Y-23505D01*
X80624Y-23523D01*
X80849Y-23748D01*
X80849Y-23505D01*
X80859Y-26960D02*
X80859Y-27148D01*
X80465Y-27148D01*
X80465Y-26885D02*
X80465Y-26660D01*
X80859Y-26773D02*
X80465Y-26773D01*
X80465Y-26585D02*
X80859Y-26454D01*
X80465Y-26323D01*
X80634Y-26135D02*
X80615Y-26173D01*
X80596Y-26192D01*
X80559Y-26210D01*
X80540Y-26210D01*
X80503Y-26192D01*
X80484Y-26173D01*
X80465Y-26135D01*
X80465Y-26060D01*
X80484Y-26023D01*
X80503Y-26004D01*
X80540Y-25985D01*
X80559Y-25985D01*
X80596Y-26004D01*
X80615Y-26023D01*
X80634Y-26060D01*
X80634Y-26135D01*
X80653Y-26173D01*
X80671Y-26192D01*
X80709Y-26210D01*
X80784Y-26210D01*
X80821Y-26192D01*
X80840Y-26173D01*
X80859Y-26135D01*
X80859Y-26060D01*
X80840Y-26023D01*
X80821Y-26004D01*
X80784Y-25985D01*
X80709Y-25985D01*
X80671Y-26004D01*
X80653Y-26023D01*
X80634Y-26060D01*
X80596Y-25648D02*
X80859Y-25648D01*
X80446Y-25742D02*
X80728Y-25835D01*
X80728Y-25592D01*
X80465Y-25479D02*
X80465Y-25217D01*
X80859Y-25385D01*
X80455Y-53222D02*
X80774Y-53222D01*
X80811Y-53203D01*
X80830Y-53184D01*
X80849Y-53147D01*
X80849Y-53072D01*
X80830Y-53034D01*
X80811Y-53016D01*
X80774Y-52997D01*
X80455Y-52997D01*
X80849Y-52603D02*
X80849Y-52828D01*
X80849Y-52716D02*
X80455Y-52716D01*
X80511Y-52753D01*
X80549Y-52791D01*
X80568Y-52828D01*
X80455Y-52472D02*
X80455Y-52210D01*
X80849Y-52378D01*
X80859Y-55684D02*
X80859Y-55871D01*
X80465Y-55871D01*
X80465Y-55609D02*
X80465Y-55384D01*
X80859Y-55496D02*
X80465Y-55496D01*
X80465Y-55309D02*
X80859Y-55178D01*
X80465Y-55046D01*
X80634Y-54859D02*
X80615Y-54896D01*
X80596Y-54915D01*
X80559Y-54934D01*
X80540Y-54934D01*
X80503Y-54915D01*
X80484Y-54896D01*
X80465Y-54859D01*
X80465Y-54784D01*
X80484Y-54746D01*
X80503Y-54728D01*
X80540Y-54709D01*
X80559Y-54709D01*
X80596Y-54728D01*
X80615Y-54746D01*
X80634Y-54784D01*
X80634Y-54859D01*
X80653Y-54896D01*
X80671Y-54915D01*
X80709Y-54934D01*
X80784Y-54934D01*
X80821Y-54915D01*
X80840Y-54896D01*
X80859Y-54859D01*
X80859Y-54784D01*
X80840Y-54746D01*
X80821Y-54728D01*
X80784Y-54709D01*
X80709Y-54709D01*
X80671Y-54728D01*
X80653Y-54746D01*
X80634Y-54784D01*
X80596Y-54371D02*
X80859Y-54371D01*
X80446Y-54465D02*
X80728Y-54559D01*
X80728Y-54315D01*
X80465Y-54203D02*
X80465Y-53940D01*
X80859Y-54109D01*
X80455Y-82122D02*
X80774Y-82122D01*
X80811Y-82103D01*
X80830Y-82084D01*
X80849Y-82047D01*
X80849Y-81972D01*
X80830Y-81934D01*
X80811Y-81916D01*
X80774Y-81897D01*
X80455Y-81897D01*
X80493Y-81728D02*
X80474Y-81709D01*
X80455Y-81672D01*
X80455Y-81578D01*
X80474Y-81541D01*
X80493Y-81522D01*
X80530Y-81503D01*
X80568Y-81503D01*
X80624Y-81522D01*
X80849Y-81747D01*
X80849Y-81503D01*
X80455Y-81260D02*
X80455Y-81222D01*
X80474Y-81185D01*
X80493Y-81166D01*
X80530Y-81147D01*
X80605Y-81128D01*
X80699Y-81128D01*
X80774Y-81147D01*
X80811Y-81166D01*
X80830Y-81185D01*
X80849Y-81222D01*
X80849Y-81260D01*
X80830Y-81297D01*
X80811Y-81316D01*
X80774Y-81335D01*
X80699Y-81353D01*
X80605Y-81353D01*
X80530Y-81335D01*
X80493Y-81316D01*
X80474Y-81297D01*
X80455Y-81260D01*
X80859Y-84584D02*
X80859Y-84771D01*
X80465Y-84771D01*
X80465Y-84509D02*
X80465Y-84284D01*
X80859Y-84396D02*
X80465Y-84396D01*
X80465Y-84209D02*
X80859Y-84078D01*
X80465Y-83946D01*
X80634Y-83759D02*
X80615Y-83796D01*
X80596Y-83815D01*
X80559Y-83834D01*
X80540Y-83834D01*
X80503Y-83815D01*
X80484Y-83796D01*
X80465Y-83759D01*
X80465Y-83684D01*
X80484Y-83646D01*
X80503Y-83628D01*
X80540Y-83609D01*
X80559Y-83609D01*
X80596Y-83628D01*
X80615Y-83646D01*
X80634Y-83684D01*
X80634Y-83759D01*
X80653Y-83796D01*
X80671Y-83815D01*
X80709Y-83834D01*
X80784Y-83834D01*
X80821Y-83815D01*
X80840Y-83796D01*
X80859Y-83759D01*
X80859Y-83684D01*
X80840Y-83646D01*
X80821Y-83628D01*
X80784Y-83609D01*
X80709Y-83609D01*
X80671Y-83628D01*
X80653Y-83646D01*
X80634Y-83684D01*
X80596Y-83271D02*
X80859Y-83271D01*
X80446Y-83365D02*
X80728Y-83459D01*
X80728Y-83215D01*
X80465Y-83103D02*
X80465Y-82840D01*
X80859Y-83009D01*
X80455Y-33790D02*
X80774Y-33790D01*
X80811Y-33771D01*
X80830Y-33752D01*
X80849Y-33715D01*
X80849Y-33640D01*
X80830Y-33602D01*
X80811Y-33583D01*
X80774Y-33565D01*
X80455Y-33565D01*
X80849Y-33171D02*
X80849Y-33396D01*
X80849Y-33283D02*
X80455Y-33283D01*
X80511Y-33321D01*
X80549Y-33358D01*
X80568Y-33396D01*
X80455Y-33040D02*
X80455Y-32796D01*
X80605Y-32927D01*
X80605Y-32871D01*
X80624Y-32834D01*
X80643Y-32815D01*
X80680Y-32796D01*
X80774Y-32796D01*
X80811Y-32815D01*
X80830Y-32834D01*
X80849Y-32871D01*
X80849Y-32984D01*
X80830Y-33021D01*
X80811Y-33040D01*
X80859Y-36251D02*
X80859Y-36439D01*
X80465Y-36439D01*
X80465Y-36177D02*
X80465Y-35952D01*
X80859Y-36064D02*
X80465Y-36064D01*
X80465Y-35877D02*
X80859Y-35745D01*
X80465Y-35614D01*
X80634Y-35427D02*
X80615Y-35464D01*
X80596Y-35483D01*
X80559Y-35502D01*
X80540Y-35502D01*
X80503Y-35483D01*
X80484Y-35464D01*
X80465Y-35427D01*
X80465Y-35352D01*
X80484Y-35314D01*
X80503Y-35295D01*
X80540Y-35277D01*
X80559Y-35277D01*
X80596Y-35295D01*
X80615Y-35314D01*
X80634Y-35352D01*
X80634Y-35427D01*
X80653Y-35464D01*
X80671Y-35483D01*
X80709Y-35502D01*
X80784Y-35502D01*
X80821Y-35483D01*
X80840Y-35464D01*
X80859Y-35427D01*
X80859Y-35352D01*
X80840Y-35314D01*
X80821Y-35295D01*
X80784Y-35277D01*
X80709Y-35277D01*
X80671Y-35295D01*
X80653Y-35314D01*
X80634Y-35352D01*
X80596Y-34939D02*
X80859Y-34939D01*
X80446Y-35033D02*
X80728Y-35127D01*
X80728Y-34883D01*
X80465Y-34770D02*
X80465Y-34508D01*
X80859Y-34677D01*
X80455Y-43553D02*
X80774Y-43553D01*
X80811Y-43535D01*
X80830Y-43516D01*
X80849Y-43478D01*
X80849Y-43403D01*
X80830Y-43366D01*
X80811Y-43347D01*
X80774Y-43328D01*
X80455Y-43328D01*
X80849Y-42935D02*
X80849Y-43160D01*
X80849Y-43047D02*
X80455Y-43047D01*
X80511Y-43085D01*
X80549Y-43122D01*
X80568Y-43160D01*
X80586Y-42597D02*
X80849Y-42597D01*
X80436Y-42691D02*
X80718Y-42785D01*
X80718Y-42541D01*
X80859Y-46015D02*
X80859Y-46203D01*
X80465Y-46203D01*
X80465Y-45940D02*
X80465Y-45715D01*
X80859Y-45828D02*
X80465Y-45828D01*
X80465Y-45640D02*
X80859Y-45509D01*
X80465Y-45378D01*
X80634Y-45190D02*
X80615Y-45228D01*
X80596Y-45247D01*
X80559Y-45265D01*
X80540Y-45265D01*
X80503Y-45247D01*
X80484Y-45228D01*
X80465Y-45190D01*
X80465Y-45115D01*
X80484Y-45078D01*
X80503Y-45059D01*
X80540Y-45040D01*
X80559Y-45040D01*
X80596Y-45059D01*
X80615Y-45078D01*
X80634Y-45115D01*
X80634Y-45190D01*
X80653Y-45228D01*
X80671Y-45247D01*
X80709Y-45265D01*
X80784Y-45265D01*
X80821Y-45247D01*
X80840Y-45228D01*
X80859Y-45190D01*
X80859Y-45115D01*
X80840Y-45078D01*
X80821Y-45059D01*
X80784Y-45040D01*
X80709Y-45040D01*
X80671Y-45059D01*
X80653Y-45078D01*
X80634Y-45115D01*
X80596Y-44703D02*
X80859Y-44703D01*
X80446Y-44797D02*
X80728Y-44890D01*
X80728Y-44647D01*
X80465Y-44534D02*
X80465Y-44272D01*
X80859Y-44440D01*
X80455Y-62822D02*
X80774Y-62822D01*
X80811Y-62803D01*
X80830Y-62784D01*
X80849Y-62747D01*
X80849Y-62672D01*
X80830Y-62634D01*
X80811Y-62616D01*
X80774Y-62597D01*
X80455Y-62597D01*
X80849Y-62203D02*
X80849Y-62428D01*
X80849Y-62316D02*
X80455Y-62316D01*
X80511Y-62353D01*
X80549Y-62391D01*
X80568Y-62428D01*
X80624Y-61978D02*
X80605Y-62016D01*
X80586Y-62035D01*
X80549Y-62053D01*
X80530Y-62053D01*
X80493Y-62035D01*
X80474Y-62016D01*
X80455Y-61978D01*
X80455Y-61903D01*
X80474Y-61866D01*
X80493Y-61847D01*
X80530Y-61828D01*
X80549Y-61828D01*
X80586Y-61847D01*
X80605Y-61866D01*
X80624Y-61903D01*
X80624Y-61978D01*
X80643Y-62016D01*
X80661Y-62035D01*
X80699Y-62053D01*
X80774Y-62053D01*
X80811Y-62035D01*
X80830Y-62016D01*
X80849Y-61978D01*
X80849Y-61903D01*
X80830Y-61866D01*
X80811Y-61847D01*
X80774Y-61828D01*
X80699Y-61828D01*
X80661Y-61847D01*
X80643Y-61866D01*
X80624Y-61903D01*
X80859Y-65284D02*
X80859Y-65471D01*
X80465Y-65471D01*
X80465Y-65209D02*
X80465Y-64984D01*
X80859Y-65096D02*
X80465Y-65096D01*
X80465Y-64909D02*
X80859Y-64778D01*
X80465Y-64646D01*
X80634Y-64459D02*
X80615Y-64496D01*
X80596Y-64515D01*
X80559Y-64534D01*
X80540Y-64534D01*
X80503Y-64515D01*
X80484Y-64496D01*
X80465Y-64459D01*
X80465Y-64384D01*
X80484Y-64346D01*
X80503Y-64328D01*
X80540Y-64309D01*
X80559Y-64309D01*
X80596Y-64328D01*
X80615Y-64346D01*
X80634Y-64384D01*
X80634Y-64459D01*
X80653Y-64496D01*
X80671Y-64515D01*
X80709Y-64534D01*
X80784Y-64534D01*
X80821Y-64515D01*
X80840Y-64496D01*
X80859Y-64459D01*
X80859Y-64384D01*
X80840Y-64346D01*
X80821Y-64328D01*
X80784Y-64309D01*
X80709Y-64309D01*
X80671Y-64328D01*
X80653Y-64346D01*
X80634Y-64384D01*
X80596Y-63971D02*
X80859Y-63971D01*
X80446Y-64065D02*
X80728Y-64159D01*
X80728Y-63915D01*
X80465Y-63803D02*
X80465Y-63540D01*
X80859Y-63709D01*
X80455Y-72322D02*
X80774Y-72322D01*
X80811Y-72303D01*
X80830Y-72284D01*
X80849Y-72247D01*
X80849Y-72172D01*
X80830Y-72134D01*
X80811Y-72116D01*
X80774Y-72097D01*
X80455Y-72097D01*
X80849Y-71703D02*
X80849Y-71928D01*
X80849Y-71816D02*
X80455Y-71816D01*
X80511Y-71853D01*
X80549Y-71891D01*
X80568Y-71928D01*
X80849Y-71516D02*
X80849Y-71441D01*
X80830Y-71403D01*
X80811Y-71385D01*
X80755Y-71347D01*
X80680Y-71328D01*
X80530Y-71328D01*
X80493Y-71347D01*
X80474Y-71366D01*
X80455Y-71403D01*
X80455Y-71478D01*
X80474Y-71516D01*
X80493Y-71535D01*
X80530Y-71553D01*
X80624Y-71553D01*
X80661Y-71535D01*
X80680Y-71516D01*
X80699Y-71478D01*
X80699Y-71403D01*
X80680Y-71366D01*
X80661Y-71347D01*
X80624Y-71328D01*
X80859Y-74784D02*
X80859Y-74971D01*
X80465Y-74971D01*
X80465Y-74709D02*
X80465Y-74484D01*
X80859Y-74596D02*
X80465Y-74596D01*
X80465Y-74409D02*
X80859Y-74278D01*
X80465Y-74146D01*
X80634Y-73959D02*
X80615Y-73996D01*
X80596Y-74015D01*
X80559Y-74034D01*
X80540Y-74034D01*
X80503Y-74015D01*
X80484Y-73996D01*
X80465Y-73959D01*
X80465Y-73884D01*
X80484Y-73846D01*
X80503Y-73828D01*
X80540Y-73809D01*
X80559Y-73809D01*
X80596Y-73828D01*
X80615Y-73846D01*
X80634Y-73884D01*
X80634Y-73959D01*
X80653Y-73996D01*
X80671Y-74015D01*
X80709Y-74034D01*
X80784Y-74034D01*
X80821Y-74015D01*
X80840Y-73996D01*
X80859Y-73959D01*
X80859Y-73884D01*
X80840Y-73846D01*
X80821Y-73828D01*
X80784Y-73809D01*
X80709Y-73809D01*
X80671Y-73828D01*
X80653Y-73846D01*
X80634Y-73884D01*
X80596Y-73471D02*
X80859Y-73471D01*
X80446Y-73565D02*
X80728Y-73659D01*
X80728Y-73415D01*
X80465Y-73303D02*
X80465Y-73040D01*
X80859Y-73209D01*
X80455Y-14922D02*
X80774Y-14922D01*
X80811Y-14903D01*
X80830Y-14884D01*
X80849Y-14847D01*
X80849Y-14772D01*
X80830Y-14734D01*
X80811Y-14716D01*
X80774Y-14697D01*
X80455Y-14697D01*
X80849Y-14303D02*
X80849Y-14528D01*
X80849Y-14416D02*
X80455Y-14416D01*
X80511Y-14453D01*
X80549Y-14491D01*
X80568Y-14528D01*
X80849Y-13928D02*
X80849Y-14153D01*
X80849Y-14041D02*
X80455Y-14041D01*
X80511Y-14078D01*
X80549Y-14116D01*
X80568Y-14153D01*
X80859Y-17384D02*
X80859Y-17571D01*
X80465Y-17571D01*
X80465Y-17309D02*
X80465Y-17084D01*
X80859Y-17196D02*
X80465Y-17196D01*
X80465Y-17009D02*
X80859Y-16878D01*
X80465Y-16746D01*
X80634Y-16559D02*
X80615Y-16596D01*
X80596Y-16615D01*
X80559Y-16634D01*
X80540Y-16634D01*
X80503Y-16615D01*
X80484Y-16596D01*
X80465Y-16559D01*
X80465Y-16484D01*
X80484Y-16446D01*
X80503Y-16428D01*
X80540Y-16409D01*
X80559Y-16409D01*
X80596Y-16428D01*
X80615Y-16446D01*
X80634Y-16484D01*
X80634Y-16559D01*
X80653Y-16596D01*
X80671Y-16615D01*
X80709Y-16634D01*
X80784Y-16634D01*
X80821Y-16615D01*
X80840Y-16596D01*
X80859Y-16559D01*
X80859Y-16484D01*
X80840Y-16446D01*
X80821Y-16428D01*
X80784Y-16409D01*
X80709Y-16409D01*
X80671Y-16428D01*
X80653Y-16446D01*
X80634Y-16484D01*
X80596Y-16071D02*
X80859Y-16071D01*
X80446Y-16165D02*
X80728Y-16259D01*
X80728Y-16015D01*
X80465Y-15903D02*
X80465Y-15640D01*
X80859Y-15809D01*
G54D13*
X81284Y-64380D02*
X81224Y-64285D01*
X81181Y-64380D02*
X81181Y-64180D01*
X81250Y-64180D01*
X81267Y-64190D01*
X81275Y-64200D01*
X81284Y-64219D01*
X81284Y-64247D01*
X81275Y-64266D01*
X81267Y-64276D01*
X81250Y-64285D01*
X81181Y-64285D01*
X81447Y-64180D02*
X81361Y-64180D01*
X81352Y-64276D01*
X81361Y-64266D01*
X81378Y-64257D01*
X81421Y-64257D01*
X81438Y-64266D01*
X81447Y-64276D01*
X81455Y-64295D01*
X81455Y-64342D01*
X81447Y-64361D01*
X81438Y-64371D01*
X81421Y-64380D01*
X81378Y-64380D01*
X81361Y-64371D01*
X81352Y-64361D01*
X81610Y-64247D02*
X81610Y-64380D01*
X81567Y-64171D02*
X81524Y-64314D01*
X81635Y-64314D01*
X81284Y-56780D02*
X81224Y-56685D01*
X81181Y-56780D02*
X81181Y-56580D01*
X81250Y-56580D01*
X81267Y-56590D01*
X81275Y-56600D01*
X81284Y-56619D01*
X81284Y-56647D01*
X81275Y-56666D01*
X81267Y-56676D01*
X81250Y-56685D01*
X81181Y-56685D01*
X81447Y-56580D02*
X81361Y-56580D01*
X81352Y-56676D01*
X81361Y-56666D01*
X81378Y-56657D01*
X81421Y-56657D01*
X81438Y-56666D01*
X81447Y-56676D01*
X81455Y-56695D01*
X81455Y-56742D01*
X81447Y-56761D01*
X81438Y-56771D01*
X81421Y-56780D01*
X81378Y-56780D01*
X81361Y-56771D01*
X81352Y-56761D01*
X81627Y-56780D02*
X81524Y-56780D01*
X81575Y-56780D02*
X81575Y-56580D01*
X81558Y-56609D01*
X81541Y-56628D01*
X81524Y-56638D01*
X81284Y-66380D02*
X81224Y-66285D01*
X81181Y-66380D02*
X81181Y-66180D01*
X81250Y-66180D01*
X81267Y-66190D01*
X81275Y-66200D01*
X81284Y-66219D01*
X81284Y-66247D01*
X81275Y-66266D01*
X81267Y-66276D01*
X81250Y-66285D01*
X81181Y-66285D01*
X81447Y-66180D02*
X81361Y-66180D01*
X81352Y-66276D01*
X81361Y-66266D01*
X81378Y-66257D01*
X81421Y-66257D01*
X81438Y-66266D01*
X81447Y-66276D01*
X81455Y-66295D01*
X81455Y-66342D01*
X81447Y-66361D01*
X81438Y-66371D01*
X81421Y-66380D01*
X81378Y-66380D01*
X81361Y-66371D01*
X81352Y-66361D01*
X81618Y-66180D02*
X81532Y-66180D01*
X81524Y-66276D01*
X81532Y-66266D01*
X81550Y-66257D01*
X81592Y-66257D01*
X81610Y-66266D01*
X81618Y-66276D01*
X81627Y-66295D01*
X81627Y-66342D01*
X81618Y-66361D01*
X81610Y-66371D01*
X81592Y-66380D01*
X81550Y-66380D01*
X81532Y-66371D01*
X81524Y-66361D01*
X81284Y-62380D02*
X81224Y-62285D01*
X81181Y-62380D02*
X81181Y-62180D01*
X81250Y-62180D01*
X81267Y-62190D01*
X81275Y-62200D01*
X81284Y-62219D01*
X81284Y-62247D01*
X81275Y-62266D01*
X81267Y-62276D01*
X81250Y-62285D01*
X81181Y-62285D01*
X81447Y-62180D02*
X81361Y-62180D01*
X81352Y-62276D01*
X81361Y-62266D01*
X81378Y-62257D01*
X81421Y-62257D01*
X81438Y-62266D01*
X81447Y-62276D01*
X81455Y-62295D01*
X81455Y-62342D01*
X81447Y-62361D01*
X81438Y-62371D01*
X81421Y-62380D01*
X81378Y-62380D01*
X81361Y-62371D01*
X81352Y-62361D01*
X81515Y-62180D02*
X81627Y-62180D01*
X81567Y-62257D01*
X81592Y-62257D01*
X81610Y-62266D01*
X81618Y-62276D01*
X81627Y-62295D01*
X81627Y-62342D01*
X81618Y-62361D01*
X81610Y-62371D01*
X81592Y-62380D01*
X81541Y-62380D01*
X81524Y-62371D01*
X81515Y-62361D01*
X75084Y-68380D02*
X75024Y-68285D01*
X74981Y-68380D02*
X74981Y-68180D01*
X75050Y-68180D01*
X75067Y-68190D01*
X75075Y-68200D01*
X75084Y-68219D01*
X75084Y-68247D01*
X75075Y-68266D01*
X75067Y-68276D01*
X75050Y-68285D01*
X74981Y-68285D01*
X75238Y-68247D02*
X75238Y-68380D01*
X75195Y-68171D02*
X75152Y-68314D01*
X75264Y-68314D01*
X75358Y-68266D02*
X75341Y-68257D01*
X75332Y-68247D01*
X75324Y-68228D01*
X75324Y-68219D01*
X75332Y-68200D01*
X75341Y-68190D01*
X75358Y-68180D01*
X75392Y-68180D01*
X75410Y-68190D01*
X75418Y-68200D01*
X75427Y-68219D01*
X75427Y-68228D01*
X75418Y-68247D01*
X75410Y-68257D01*
X75392Y-68266D01*
X75358Y-68266D01*
X75341Y-68276D01*
X75332Y-68285D01*
X75324Y-68304D01*
X75324Y-68342D01*
X75332Y-68361D01*
X75341Y-68371D01*
X75358Y-68380D01*
X75392Y-68380D01*
X75410Y-68371D01*
X75418Y-68361D01*
X75427Y-68342D01*
X75427Y-68304D01*
X75418Y-68285D01*
X75410Y-68276D01*
X75392Y-68266D01*
X75084Y-66380D02*
X75024Y-66285D01*
X74981Y-66380D02*
X74981Y-66180D01*
X75050Y-66180D01*
X75067Y-66190D01*
X75075Y-66200D01*
X75084Y-66219D01*
X75084Y-66247D01*
X75075Y-66266D01*
X75067Y-66276D01*
X75050Y-66285D01*
X74981Y-66285D01*
X75238Y-66247D02*
X75238Y-66380D01*
X75195Y-66171D02*
X75152Y-66314D01*
X75264Y-66314D01*
X75315Y-66180D02*
X75435Y-66180D01*
X75358Y-66380D01*
X75084Y-64280D02*
X75024Y-64185D01*
X74981Y-64280D02*
X74981Y-64080D01*
X75050Y-64080D01*
X75067Y-64090D01*
X75075Y-64100D01*
X75084Y-64119D01*
X75084Y-64147D01*
X75075Y-64166D01*
X75067Y-64176D01*
X75050Y-64185D01*
X74981Y-64185D01*
X75238Y-64147D02*
X75238Y-64280D01*
X75195Y-64071D02*
X75152Y-64214D01*
X75264Y-64214D01*
X75410Y-64080D02*
X75375Y-64080D01*
X75358Y-64090D01*
X75350Y-64100D01*
X75332Y-64128D01*
X75324Y-64166D01*
X75324Y-64242D01*
X75332Y-64261D01*
X75341Y-64271D01*
X75358Y-64280D01*
X75392Y-64280D01*
X75410Y-64271D01*
X75418Y-64261D01*
X75427Y-64242D01*
X75427Y-64195D01*
X75418Y-64176D01*
X75410Y-64166D01*
X75392Y-64157D01*
X75358Y-64157D01*
X75341Y-64166D01*
X75332Y-64176D01*
X75324Y-64195D01*
X75084Y-62280D02*
X75024Y-62185D01*
X74981Y-62280D02*
X74981Y-62080D01*
X75050Y-62080D01*
X75067Y-62090D01*
X75075Y-62100D01*
X75084Y-62119D01*
X75084Y-62147D01*
X75075Y-62166D01*
X75067Y-62176D01*
X75050Y-62185D01*
X74981Y-62185D01*
X75238Y-62147D02*
X75238Y-62280D01*
X75195Y-62071D02*
X75152Y-62214D01*
X75264Y-62214D01*
X75418Y-62080D02*
X75332Y-62080D01*
X75324Y-62176D01*
X75332Y-62166D01*
X75350Y-62157D01*
X75392Y-62157D01*
X75410Y-62166D01*
X75418Y-62176D01*
X75427Y-62195D01*
X75427Y-62242D01*
X75418Y-62261D01*
X75410Y-62271D01*
X75392Y-62280D01*
X75350Y-62280D01*
X75332Y-62271D01*
X75324Y-62261D01*
X81284Y-58780D02*
X81224Y-58685D01*
X81181Y-58780D02*
X81181Y-58580D01*
X81250Y-58580D01*
X81267Y-58590D01*
X81275Y-58600D01*
X81284Y-58619D01*
X81284Y-58647D01*
X81275Y-58666D01*
X81267Y-58676D01*
X81250Y-58685D01*
X81181Y-58685D01*
X81447Y-58580D02*
X81361Y-58580D01*
X81352Y-58676D01*
X81361Y-58666D01*
X81378Y-58657D01*
X81421Y-58657D01*
X81438Y-58666D01*
X81447Y-58676D01*
X81455Y-58695D01*
X81455Y-58742D01*
X81447Y-58761D01*
X81438Y-58771D01*
X81421Y-58780D01*
X81378Y-58780D01*
X81361Y-58771D01*
X81352Y-58761D01*
X81524Y-58600D02*
X81532Y-58590D01*
X81550Y-58580D01*
X81592Y-58580D01*
X81610Y-58590D01*
X81618Y-58600D01*
X81627Y-58619D01*
X81627Y-58638D01*
X81618Y-58666D01*
X81515Y-58780D01*
X81627Y-58780D01*
X81284Y-47080D02*
X81224Y-46985D01*
X81181Y-47080D02*
X81181Y-46880D01*
X81250Y-46880D01*
X81267Y-46890D01*
X81275Y-46900D01*
X81284Y-46919D01*
X81284Y-46947D01*
X81275Y-46966D01*
X81267Y-46976D01*
X81250Y-46985D01*
X81181Y-46985D01*
X81344Y-46880D02*
X81455Y-46880D01*
X81395Y-46957D01*
X81421Y-46957D01*
X81438Y-46966D01*
X81447Y-46976D01*
X81455Y-46995D01*
X81455Y-47042D01*
X81447Y-47061D01*
X81438Y-47071D01*
X81421Y-47080D01*
X81370Y-47080D01*
X81352Y-47071D01*
X81344Y-47061D01*
X81627Y-47080D02*
X81524Y-47080D01*
X81575Y-47080D02*
X81575Y-46880D01*
X81558Y-46909D01*
X81541Y-46928D01*
X81524Y-46938D01*
X81284Y-77880D02*
X81224Y-77785D01*
X81181Y-77880D02*
X81181Y-77680D01*
X81250Y-77680D01*
X81267Y-77690D01*
X81275Y-77700D01*
X81284Y-77719D01*
X81284Y-77747D01*
X81275Y-77766D01*
X81267Y-77776D01*
X81250Y-77785D01*
X81181Y-77785D01*
X81438Y-77680D02*
X81404Y-77680D01*
X81387Y-77690D01*
X81378Y-77700D01*
X81361Y-77728D01*
X81352Y-77766D01*
X81352Y-77842D01*
X81361Y-77861D01*
X81370Y-77871D01*
X81387Y-77880D01*
X81421Y-77880D01*
X81438Y-77871D01*
X81447Y-77861D01*
X81455Y-77842D01*
X81455Y-77795D01*
X81447Y-77776D01*
X81438Y-77766D01*
X81421Y-77757D01*
X81387Y-77757D01*
X81370Y-77766D01*
X81361Y-77776D01*
X81352Y-77795D01*
X81567Y-77680D02*
X81584Y-77680D01*
X81601Y-77690D01*
X81610Y-77700D01*
X81618Y-77719D01*
X81627Y-77757D01*
X81627Y-77804D01*
X81618Y-77842D01*
X81610Y-77861D01*
X81601Y-77871D01*
X81584Y-77880D01*
X81567Y-77880D01*
X81550Y-77871D01*
X81541Y-77861D01*
X81532Y-77842D01*
X81524Y-77804D01*
X81524Y-77757D01*
X81532Y-77719D01*
X81541Y-77700D01*
X81550Y-77690D01*
X81567Y-77680D01*
X81284Y-87680D02*
X81224Y-87585D01*
X81181Y-87680D02*
X81181Y-87480D01*
X81250Y-87480D01*
X81267Y-87490D01*
X81275Y-87500D01*
X81284Y-87519D01*
X81284Y-87547D01*
X81275Y-87566D01*
X81267Y-87576D01*
X81250Y-87585D01*
X81181Y-87585D01*
X81438Y-87480D02*
X81404Y-87480D01*
X81387Y-87490D01*
X81378Y-87500D01*
X81361Y-87528D01*
X81352Y-87566D01*
X81352Y-87642D01*
X81361Y-87661D01*
X81370Y-87671D01*
X81387Y-87680D01*
X81421Y-87680D01*
X81438Y-87671D01*
X81447Y-87661D01*
X81455Y-87642D01*
X81455Y-87595D01*
X81447Y-87576D01*
X81438Y-87566D01*
X81421Y-87557D01*
X81387Y-87557D01*
X81370Y-87566D01*
X81361Y-87576D01*
X81352Y-87595D01*
X81610Y-87547D02*
X81610Y-87680D01*
X81567Y-87471D02*
X81524Y-87614D01*
X81635Y-87614D01*
X81284Y-85680D02*
X81224Y-85585D01*
X81181Y-85680D02*
X81181Y-85480D01*
X81250Y-85480D01*
X81267Y-85490D01*
X81275Y-85500D01*
X81284Y-85519D01*
X81284Y-85547D01*
X81275Y-85566D01*
X81267Y-85576D01*
X81250Y-85585D01*
X81181Y-85585D01*
X81438Y-85480D02*
X81404Y-85480D01*
X81387Y-85490D01*
X81378Y-85500D01*
X81361Y-85528D01*
X81352Y-85566D01*
X81352Y-85642D01*
X81361Y-85661D01*
X81370Y-85671D01*
X81387Y-85680D01*
X81421Y-85680D01*
X81438Y-85671D01*
X81447Y-85661D01*
X81455Y-85642D01*
X81455Y-85595D01*
X81447Y-85576D01*
X81438Y-85566D01*
X81421Y-85557D01*
X81387Y-85557D01*
X81370Y-85566D01*
X81361Y-85576D01*
X81352Y-85595D01*
X81515Y-85480D02*
X81627Y-85480D01*
X81567Y-85557D01*
X81592Y-85557D01*
X81610Y-85566D01*
X81618Y-85576D01*
X81627Y-85595D01*
X81627Y-85642D01*
X81618Y-85661D01*
X81610Y-85671D01*
X81592Y-85680D01*
X81541Y-85680D01*
X81524Y-85671D01*
X81515Y-85661D01*
X81284Y-83680D02*
X81224Y-83585D01*
X81181Y-83680D02*
X81181Y-83480D01*
X81250Y-83480D01*
X81267Y-83490D01*
X81275Y-83500D01*
X81284Y-83519D01*
X81284Y-83547D01*
X81275Y-83566D01*
X81267Y-83576D01*
X81250Y-83585D01*
X81181Y-83585D01*
X81438Y-83480D02*
X81404Y-83480D01*
X81387Y-83490D01*
X81378Y-83500D01*
X81361Y-83528D01*
X81352Y-83566D01*
X81352Y-83642D01*
X81361Y-83661D01*
X81370Y-83671D01*
X81387Y-83680D01*
X81421Y-83680D01*
X81438Y-83671D01*
X81447Y-83661D01*
X81455Y-83642D01*
X81455Y-83595D01*
X81447Y-83576D01*
X81438Y-83566D01*
X81421Y-83557D01*
X81387Y-83557D01*
X81370Y-83566D01*
X81361Y-83576D01*
X81352Y-83595D01*
X81524Y-83500D02*
X81532Y-83490D01*
X81550Y-83480D01*
X81592Y-83480D01*
X81610Y-83490D01*
X81618Y-83500D01*
X81627Y-83519D01*
X81627Y-83538D01*
X81618Y-83566D01*
X81515Y-83680D01*
X81627Y-83680D01*
X81284Y-81680D02*
X81224Y-81585D01*
X81181Y-81680D02*
X81181Y-81480D01*
X81250Y-81480D01*
X81267Y-81490D01*
X81275Y-81500D01*
X81284Y-81519D01*
X81284Y-81547D01*
X81275Y-81566D01*
X81267Y-81576D01*
X81250Y-81585D01*
X81181Y-81585D01*
X81438Y-81480D02*
X81404Y-81480D01*
X81387Y-81490D01*
X81378Y-81500D01*
X81361Y-81528D01*
X81352Y-81566D01*
X81352Y-81642D01*
X81361Y-81661D01*
X81370Y-81671D01*
X81387Y-81680D01*
X81421Y-81680D01*
X81438Y-81671D01*
X81447Y-81661D01*
X81455Y-81642D01*
X81455Y-81595D01*
X81447Y-81576D01*
X81438Y-81566D01*
X81421Y-81557D01*
X81387Y-81557D01*
X81370Y-81566D01*
X81361Y-81576D01*
X81352Y-81595D01*
X81627Y-81680D02*
X81524Y-81680D01*
X81575Y-81680D02*
X81575Y-81480D01*
X81558Y-81509D01*
X81541Y-81528D01*
X81524Y-81538D01*
X75084Y-87680D02*
X75024Y-87585D01*
X74981Y-87680D02*
X74981Y-87480D01*
X75050Y-87480D01*
X75067Y-87490D01*
X75075Y-87500D01*
X75084Y-87519D01*
X75084Y-87547D01*
X75075Y-87566D01*
X75067Y-87576D01*
X75050Y-87585D01*
X74981Y-87585D01*
X75238Y-87547D02*
X75238Y-87680D01*
X75195Y-87471D02*
X75152Y-87614D01*
X75264Y-87614D01*
X75367Y-87480D02*
X75384Y-87480D01*
X75401Y-87490D01*
X75410Y-87500D01*
X75418Y-87519D01*
X75427Y-87557D01*
X75427Y-87604D01*
X75418Y-87642D01*
X75410Y-87661D01*
X75401Y-87671D01*
X75384Y-87680D01*
X75367Y-87680D01*
X75350Y-87671D01*
X75341Y-87661D01*
X75332Y-87642D01*
X75324Y-87604D01*
X75324Y-87557D01*
X75332Y-87519D01*
X75341Y-87500D01*
X75350Y-87490D01*
X75367Y-87480D01*
X75084Y-85680D02*
X75024Y-85585D01*
X74981Y-85680D02*
X74981Y-85480D01*
X75050Y-85480D01*
X75067Y-85490D01*
X75075Y-85500D01*
X75084Y-85519D01*
X75084Y-85547D01*
X75075Y-85566D01*
X75067Y-85576D01*
X75050Y-85585D01*
X74981Y-85585D01*
X75144Y-85480D02*
X75255Y-85480D01*
X75195Y-85557D01*
X75221Y-85557D01*
X75238Y-85566D01*
X75247Y-85576D01*
X75255Y-85595D01*
X75255Y-85642D01*
X75247Y-85661D01*
X75238Y-85671D01*
X75221Y-85680D01*
X75170Y-85680D01*
X75152Y-85671D01*
X75144Y-85661D01*
X75341Y-85680D02*
X75375Y-85680D01*
X75392Y-85671D01*
X75401Y-85661D01*
X75418Y-85633D01*
X75427Y-85595D01*
X75427Y-85519D01*
X75418Y-85500D01*
X75410Y-85490D01*
X75392Y-85480D01*
X75358Y-85480D01*
X75341Y-85490D01*
X75332Y-85500D01*
X75324Y-85519D01*
X75324Y-85566D01*
X75332Y-85585D01*
X75341Y-85595D01*
X75358Y-85604D01*
X75392Y-85604D01*
X75410Y-85595D01*
X75418Y-85585D01*
X75427Y-85566D01*
X75084Y-83680D02*
X75024Y-83585D01*
X74981Y-83680D02*
X74981Y-83480D01*
X75050Y-83480D01*
X75067Y-83490D01*
X75075Y-83500D01*
X75084Y-83519D01*
X75084Y-83547D01*
X75075Y-83566D01*
X75067Y-83576D01*
X75050Y-83585D01*
X74981Y-83585D01*
X75144Y-83480D02*
X75255Y-83480D01*
X75195Y-83557D01*
X75221Y-83557D01*
X75238Y-83566D01*
X75247Y-83576D01*
X75255Y-83595D01*
X75255Y-83642D01*
X75247Y-83661D01*
X75238Y-83671D01*
X75221Y-83680D01*
X75170Y-83680D01*
X75152Y-83671D01*
X75144Y-83661D01*
X75358Y-83566D02*
X75341Y-83557D01*
X75332Y-83547D01*
X75324Y-83528D01*
X75324Y-83519D01*
X75332Y-83500D01*
X75341Y-83490D01*
X75358Y-83480D01*
X75392Y-83480D01*
X75410Y-83490D01*
X75418Y-83500D01*
X75427Y-83519D01*
X75427Y-83528D01*
X75418Y-83547D01*
X75410Y-83557D01*
X75392Y-83566D01*
X75358Y-83566D01*
X75341Y-83576D01*
X75332Y-83585D01*
X75324Y-83604D01*
X75324Y-83642D01*
X75332Y-83661D01*
X75341Y-83671D01*
X75358Y-83680D01*
X75392Y-83680D01*
X75410Y-83671D01*
X75418Y-83661D01*
X75427Y-83642D01*
X75427Y-83604D01*
X75418Y-83585D01*
X75410Y-83576D01*
X75392Y-83566D01*
X75084Y-81680D02*
X75024Y-81585D01*
X74981Y-81680D02*
X74981Y-81480D01*
X75050Y-81480D01*
X75067Y-81490D01*
X75075Y-81500D01*
X75084Y-81519D01*
X75084Y-81547D01*
X75075Y-81566D01*
X75067Y-81576D01*
X75050Y-81585D01*
X74981Y-81585D01*
X75144Y-81480D02*
X75255Y-81480D01*
X75195Y-81557D01*
X75221Y-81557D01*
X75238Y-81566D01*
X75247Y-81576D01*
X75255Y-81595D01*
X75255Y-81642D01*
X75247Y-81661D01*
X75238Y-81671D01*
X75221Y-81680D01*
X75170Y-81680D01*
X75152Y-81671D01*
X75144Y-81661D01*
X75315Y-81480D02*
X75435Y-81480D01*
X75358Y-81680D01*
X81284Y-68380D02*
X81224Y-68285D01*
X81181Y-68380D02*
X81181Y-68180D01*
X81250Y-68180D01*
X81267Y-68190D01*
X81275Y-68200D01*
X81284Y-68219D01*
X81284Y-68247D01*
X81275Y-68266D01*
X81267Y-68276D01*
X81250Y-68285D01*
X81181Y-68285D01*
X81447Y-68180D02*
X81361Y-68180D01*
X81352Y-68276D01*
X81361Y-68266D01*
X81378Y-68257D01*
X81421Y-68257D01*
X81438Y-68266D01*
X81447Y-68276D01*
X81455Y-68295D01*
X81455Y-68342D01*
X81447Y-68361D01*
X81438Y-68371D01*
X81421Y-68380D01*
X81378Y-68380D01*
X81361Y-68371D01*
X81352Y-68361D01*
X81610Y-68180D02*
X81575Y-68180D01*
X81558Y-68190D01*
X81550Y-68200D01*
X81532Y-68228D01*
X81524Y-68266D01*
X81524Y-68342D01*
X81532Y-68361D01*
X81541Y-68371D01*
X81558Y-68380D01*
X81592Y-68380D01*
X81610Y-68371D01*
X81618Y-68361D01*
X81627Y-68342D01*
X81627Y-68295D01*
X81618Y-68276D01*
X81610Y-68266D01*
X81592Y-68257D01*
X81558Y-68257D01*
X81541Y-68266D01*
X81532Y-68276D01*
X81524Y-68295D01*
X81284Y-75880D02*
X81224Y-75785D01*
X81181Y-75880D02*
X81181Y-75680D01*
X81250Y-75680D01*
X81267Y-75690D01*
X81275Y-75700D01*
X81284Y-75719D01*
X81284Y-75747D01*
X81275Y-75766D01*
X81267Y-75776D01*
X81250Y-75785D01*
X81181Y-75785D01*
X81447Y-75680D02*
X81361Y-75680D01*
X81352Y-75776D01*
X81361Y-75766D01*
X81378Y-75757D01*
X81421Y-75757D01*
X81438Y-75766D01*
X81447Y-75776D01*
X81455Y-75795D01*
X81455Y-75842D01*
X81447Y-75861D01*
X81438Y-75871D01*
X81421Y-75880D01*
X81378Y-75880D01*
X81361Y-75871D01*
X81352Y-75861D01*
X81541Y-75880D02*
X81575Y-75880D01*
X81592Y-75871D01*
X81601Y-75861D01*
X81618Y-75833D01*
X81627Y-75795D01*
X81627Y-75719D01*
X81618Y-75700D01*
X81610Y-75690D01*
X81592Y-75680D01*
X81558Y-75680D01*
X81541Y-75690D01*
X81532Y-75700D01*
X81524Y-75719D01*
X81524Y-75766D01*
X81532Y-75785D01*
X81541Y-75795D01*
X81558Y-75804D01*
X81592Y-75804D01*
X81610Y-75795D01*
X81618Y-75785D01*
X81627Y-75766D01*
X81284Y-73880D02*
X81224Y-73785D01*
X81181Y-73880D02*
X81181Y-73680D01*
X81250Y-73680D01*
X81267Y-73690D01*
X81275Y-73700D01*
X81284Y-73719D01*
X81284Y-73747D01*
X81275Y-73766D01*
X81267Y-73776D01*
X81250Y-73785D01*
X81181Y-73785D01*
X81447Y-73680D02*
X81361Y-73680D01*
X81352Y-73776D01*
X81361Y-73766D01*
X81378Y-73757D01*
X81421Y-73757D01*
X81438Y-73766D01*
X81447Y-73776D01*
X81455Y-73795D01*
X81455Y-73842D01*
X81447Y-73861D01*
X81438Y-73871D01*
X81421Y-73880D01*
X81378Y-73880D01*
X81361Y-73871D01*
X81352Y-73861D01*
X81558Y-73766D02*
X81541Y-73757D01*
X81532Y-73747D01*
X81524Y-73728D01*
X81524Y-73719D01*
X81532Y-73700D01*
X81541Y-73690D01*
X81558Y-73680D01*
X81592Y-73680D01*
X81610Y-73690D01*
X81618Y-73700D01*
X81627Y-73719D01*
X81627Y-73728D01*
X81618Y-73747D01*
X81610Y-73757D01*
X81592Y-73766D01*
X81558Y-73766D01*
X81541Y-73776D01*
X81532Y-73785D01*
X81524Y-73804D01*
X81524Y-73842D01*
X81532Y-73861D01*
X81541Y-73871D01*
X81558Y-73880D01*
X81592Y-73880D01*
X81610Y-73871D01*
X81618Y-73861D01*
X81627Y-73842D01*
X81627Y-73804D01*
X81618Y-73785D01*
X81610Y-73776D01*
X81592Y-73766D01*
X81284Y-71880D02*
X81224Y-71785D01*
X81181Y-71880D02*
X81181Y-71680D01*
X81250Y-71680D01*
X81267Y-71690D01*
X81275Y-71700D01*
X81284Y-71719D01*
X81284Y-71747D01*
X81275Y-71766D01*
X81267Y-71776D01*
X81250Y-71785D01*
X81181Y-71785D01*
X81447Y-71680D02*
X81361Y-71680D01*
X81352Y-71776D01*
X81361Y-71766D01*
X81378Y-71757D01*
X81421Y-71757D01*
X81438Y-71766D01*
X81447Y-71776D01*
X81455Y-71795D01*
X81455Y-71842D01*
X81447Y-71861D01*
X81438Y-71871D01*
X81421Y-71880D01*
X81378Y-71880D01*
X81361Y-71871D01*
X81352Y-71861D01*
X81515Y-71680D02*
X81635Y-71680D01*
X81558Y-71880D01*
X75084Y-77880D02*
X75024Y-77785D01*
X74981Y-77880D02*
X74981Y-77680D01*
X75050Y-77680D01*
X75067Y-77690D01*
X75075Y-77700D01*
X75084Y-77719D01*
X75084Y-77747D01*
X75075Y-77766D01*
X75067Y-77776D01*
X75050Y-77785D01*
X74981Y-77785D01*
X75144Y-77680D02*
X75255Y-77680D01*
X75195Y-77757D01*
X75221Y-77757D01*
X75238Y-77766D01*
X75247Y-77776D01*
X75255Y-77795D01*
X75255Y-77842D01*
X75247Y-77861D01*
X75238Y-77871D01*
X75221Y-77880D01*
X75170Y-77880D01*
X75152Y-77871D01*
X75144Y-77861D01*
X75410Y-77680D02*
X75375Y-77680D01*
X75358Y-77690D01*
X75350Y-77700D01*
X75332Y-77728D01*
X75324Y-77766D01*
X75324Y-77842D01*
X75332Y-77861D01*
X75341Y-77871D01*
X75358Y-77880D01*
X75392Y-77880D01*
X75410Y-77871D01*
X75418Y-77861D01*
X75427Y-77842D01*
X75427Y-77795D01*
X75418Y-77776D01*
X75410Y-77766D01*
X75392Y-77757D01*
X75358Y-77757D01*
X75341Y-77766D01*
X75332Y-77776D01*
X75324Y-77795D01*
X75084Y-75880D02*
X75024Y-75785D01*
X74981Y-75880D02*
X74981Y-75680D01*
X75050Y-75680D01*
X75067Y-75690D01*
X75075Y-75700D01*
X75084Y-75719D01*
X75084Y-75747D01*
X75075Y-75766D01*
X75067Y-75776D01*
X75050Y-75785D01*
X74981Y-75785D01*
X75144Y-75680D02*
X75255Y-75680D01*
X75195Y-75757D01*
X75221Y-75757D01*
X75238Y-75766D01*
X75247Y-75776D01*
X75255Y-75795D01*
X75255Y-75842D01*
X75247Y-75861D01*
X75238Y-75871D01*
X75221Y-75880D01*
X75170Y-75880D01*
X75152Y-75871D01*
X75144Y-75861D01*
X75418Y-75680D02*
X75332Y-75680D01*
X75324Y-75776D01*
X75332Y-75766D01*
X75350Y-75757D01*
X75392Y-75757D01*
X75410Y-75766D01*
X75418Y-75776D01*
X75427Y-75795D01*
X75427Y-75842D01*
X75418Y-75861D01*
X75410Y-75871D01*
X75392Y-75880D01*
X75350Y-75880D01*
X75332Y-75871D01*
X75324Y-75861D01*
X75084Y-73880D02*
X75024Y-73785D01*
X74981Y-73880D02*
X74981Y-73680D01*
X75050Y-73680D01*
X75067Y-73690D01*
X75075Y-73700D01*
X75084Y-73719D01*
X75084Y-73747D01*
X75075Y-73766D01*
X75067Y-73776D01*
X75050Y-73785D01*
X74981Y-73785D01*
X75144Y-73680D02*
X75255Y-73680D01*
X75195Y-73757D01*
X75221Y-73757D01*
X75238Y-73766D01*
X75247Y-73776D01*
X75255Y-73795D01*
X75255Y-73842D01*
X75247Y-73861D01*
X75238Y-73871D01*
X75221Y-73880D01*
X75170Y-73880D01*
X75152Y-73871D01*
X75144Y-73861D01*
X75410Y-73747D02*
X75410Y-73880D01*
X75367Y-73671D02*
X75324Y-73814D01*
X75435Y-73814D01*
X75084Y-71880D02*
X75024Y-71785D01*
X74981Y-71880D02*
X74981Y-71680D01*
X75050Y-71680D01*
X75067Y-71690D01*
X75075Y-71700D01*
X75084Y-71719D01*
X75084Y-71747D01*
X75075Y-71766D01*
X75067Y-71776D01*
X75050Y-71785D01*
X74981Y-71785D01*
X75144Y-71680D02*
X75255Y-71680D01*
X75195Y-71757D01*
X75221Y-71757D01*
X75238Y-71766D01*
X75247Y-71776D01*
X75255Y-71795D01*
X75255Y-71842D01*
X75247Y-71861D01*
X75238Y-71871D01*
X75221Y-71880D01*
X75170Y-71880D01*
X75152Y-71871D01*
X75144Y-71861D01*
X75315Y-71680D02*
X75427Y-71680D01*
X75367Y-71757D01*
X75392Y-71757D01*
X75410Y-71766D01*
X75418Y-71776D01*
X75427Y-71795D01*
X75427Y-71842D01*
X75418Y-71861D01*
X75410Y-71871D01*
X75392Y-71880D01*
X75341Y-71880D01*
X75324Y-71871D01*
X75315Y-71861D01*
X75084Y-24080D02*
X75024Y-23985D01*
X74981Y-24080D02*
X74981Y-23880D01*
X75050Y-23880D01*
X75067Y-23890D01*
X75075Y-23900D01*
X75084Y-23919D01*
X75084Y-23947D01*
X75075Y-23966D01*
X75067Y-23976D01*
X75050Y-23985D01*
X74981Y-23985D01*
X75255Y-24080D02*
X75152Y-24080D01*
X75204Y-24080D02*
X75204Y-23880D01*
X75187Y-23909D01*
X75170Y-23928D01*
X75152Y-23938D01*
X75315Y-23880D02*
X75427Y-23880D01*
X75367Y-23957D01*
X75392Y-23957D01*
X75410Y-23966D01*
X75418Y-23976D01*
X75427Y-23995D01*
X75427Y-24042D01*
X75418Y-24061D01*
X75410Y-24071D01*
X75392Y-24080D01*
X75341Y-24080D01*
X75324Y-24071D01*
X75315Y-24061D01*
X75170Y-35280D02*
X75110Y-35185D01*
X75067Y-35280D02*
X75067Y-35080D01*
X75135Y-35080D01*
X75152Y-35090D01*
X75161Y-35100D01*
X75170Y-35119D01*
X75170Y-35147D01*
X75161Y-35166D01*
X75152Y-35176D01*
X75135Y-35185D01*
X75067Y-35185D01*
X75238Y-35100D02*
X75247Y-35090D01*
X75264Y-35080D01*
X75307Y-35080D01*
X75324Y-35090D01*
X75332Y-35100D01*
X75341Y-35119D01*
X75341Y-35138D01*
X75332Y-35166D01*
X75230Y-35280D01*
X75341Y-35280D01*
X75170Y-33280D02*
X75110Y-33185D01*
X75067Y-33280D02*
X75067Y-33080D01*
X75135Y-33080D01*
X75152Y-33090D01*
X75161Y-33100D01*
X75170Y-33119D01*
X75170Y-33147D01*
X75161Y-33166D01*
X75152Y-33176D01*
X75135Y-33185D01*
X75067Y-33185D01*
X75341Y-33280D02*
X75238Y-33280D01*
X75290Y-33280D02*
X75290Y-33080D01*
X75272Y-33109D01*
X75255Y-33128D01*
X75238Y-33138D01*
X81184Y-30080D02*
X81124Y-29985D01*
X81081Y-30080D02*
X81081Y-29880D01*
X81150Y-29880D01*
X81167Y-29890D01*
X81175Y-29900D01*
X81184Y-29919D01*
X81184Y-29947D01*
X81175Y-29966D01*
X81167Y-29976D01*
X81150Y-29985D01*
X81081Y-29985D01*
X81252Y-29900D02*
X81261Y-29890D01*
X81278Y-29880D01*
X81321Y-29880D01*
X81338Y-29890D01*
X81347Y-29900D01*
X81355Y-29919D01*
X81355Y-29938D01*
X81347Y-29966D01*
X81244Y-30080D01*
X81355Y-30080D01*
X81510Y-29947D02*
X81510Y-30080D01*
X81467Y-29871D02*
X81424Y-30014D01*
X81535Y-30014D01*
X81184Y-28080D02*
X81124Y-27985D01*
X81081Y-28080D02*
X81081Y-27880D01*
X81150Y-27880D01*
X81167Y-27890D01*
X81175Y-27900D01*
X81184Y-27919D01*
X81184Y-27947D01*
X81175Y-27966D01*
X81167Y-27976D01*
X81150Y-27985D01*
X81081Y-27985D01*
X81252Y-27900D02*
X81261Y-27890D01*
X81278Y-27880D01*
X81321Y-27880D01*
X81338Y-27890D01*
X81347Y-27900D01*
X81355Y-27919D01*
X81355Y-27938D01*
X81347Y-27966D01*
X81244Y-28080D01*
X81355Y-28080D01*
X81415Y-27880D02*
X81527Y-27880D01*
X81467Y-27957D01*
X81492Y-27957D01*
X81510Y-27966D01*
X81518Y-27976D01*
X81527Y-27995D01*
X81527Y-28042D01*
X81518Y-28061D01*
X81510Y-28071D01*
X81492Y-28080D01*
X81441Y-28080D01*
X81424Y-28071D01*
X81415Y-28061D01*
X81184Y-26080D02*
X81124Y-25985D01*
X81081Y-26080D02*
X81081Y-25880D01*
X81150Y-25880D01*
X81167Y-25890D01*
X81175Y-25900D01*
X81184Y-25919D01*
X81184Y-25947D01*
X81175Y-25966D01*
X81167Y-25976D01*
X81150Y-25985D01*
X81081Y-25985D01*
X81252Y-25900D02*
X81261Y-25890D01*
X81278Y-25880D01*
X81321Y-25880D01*
X81338Y-25890D01*
X81347Y-25900D01*
X81355Y-25919D01*
X81355Y-25938D01*
X81347Y-25966D01*
X81244Y-26080D01*
X81355Y-26080D01*
X81424Y-25900D02*
X81432Y-25890D01*
X81450Y-25880D01*
X81492Y-25880D01*
X81510Y-25890D01*
X81518Y-25900D01*
X81527Y-25919D01*
X81527Y-25938D01*
X81518Y-25966D01*
X81415Y-26080D01*
X81527Y-26080D01*
X81184Y-24080D02*
X81124Y-23985D01*
X81081Y-24080D02*
X81081Y-23880D01*
X81150Y-23880D01*
X81167Y-23890D01*
X81175Y-23900D01*
X81184Y-23919D01*
X81184Y-23947D01*
X81175Y-23966D01*
X81167Y-23976D01*
X81150Y-23985D01*
X81081Y-23985D01*
X81252Y-23900D02*
X81261Y-23890D01*
X81278Y-23880D01*
X81321Y-23880D01*
X81338Y-23890D01*
X81347Y-23900D01*
X81355Y-23919D01*
X81355Y-23938D01*
X81347Y-23966D01*
X81244Y-24080D01*
X81355Y-24080D01*
X81527Y-24080D02*
X81424Y-24080D01*
X81475Y-24080D02*
X81475Y-23880D01*
X81458Y-23909D01*
X81441Y-23928D01*
X81424Y-23938D01*
X75084Y-29980D02*
X75024Y-29885D01*
X74981Y-29980D02*
X74981Y-29780D01*
X75050Y-29780D01*
X75067Y-29790D01*
X75075Y-29800D01*
X75084Y-29819D01*
X75084Y-29847D01*
X75075Y-29866D01*
X75067Y-29876D01*
X75050Y-29885D01*
X74981Y-29885D01*
X75255Y-29980D02*
X75152Y-29980D01*
X75204Y-29980D02*
X75204Y-29780D01*
X75187Y-29809D01*
X75170Y-29828D01*
X75152Y-29838D01*
X75410Y-29780D02*
X75375Y-29780D01*
X75358Y-29790D01*
X75350Y-29800D01*
X75332Y-29828D01*
X75324Y-29866D01*
X75324Y-29942D01*
X75332Y-29961D01*
X75341Y-29971D01*
X75358Y-29980D01*
X75392Y-29980D01*
X75410Y-29971D01*
X75418Y-29961D01*
X75427Y-29942D01*
X75427Y-29895D01*
X75418Y-29876D01*
X75410Y-29866D01*
X75392Y-29857D01*
X75358Y-29857D01*
X75341Y-29866D01*
X75332Y-29876D01*
X75324Y-29895D01*
X75084Y-28080D02*
X75024Y-27985D01*
X74981Y-28080D02*
X74981Y-27880D01*
X75050Y-27880D01*
X75067Y-27890D01*
X75075Y-27900D01*
X75084Y-27919D01*
X75084Y-27947D01*
X75075Y-27966D01*
X75067Y-27976D01*
X75050Y-27985D01*
X74981Y-27985D01*
X75255Y-28080D02*
X75152Y-28080D01*
X75204Y-28080D02*
X75204Y-27880D01*
X75187Y-27909D01*
X75170Y-27928D01*
X75152Y-27938D01*
X75418Y-27880D02*
X75332Y-27880D01*
X75324Y-27976D01*
X75332Y-27966D01*
X75350Y-27957D01*
X75392Y-27957D01*
X75410Y-27966D01*
X75418Y-27976D01*
X75427Y-27995D01*
X75427Y-28042D01*
X75418Y-28061D01*
X75410Y-28071D01*
X75392Y-28080D01*
X75350Y-28080D01*
X75332Y-28071D01*
X75324Y-28061D01*
X75084Y-26080D02*
X75024Y-25985D01*
X74981Y-26080D02*
X74981Y-25880D01*
X75050Y-25880D01*
X75067Y-25890D01*
X75075Y-25900D01*
X75084Y-25919D01*
X75084Y-25947D01*
X75075Y-25966D01*
X75067Y-25976D01*
X75050Y-25985D01*
X74981Y-25985D01*
X75255Y-26080D02*
X75152Y-26080D01*
X75204Y-26080D02*
X75204Y-25880D01*
X75187Y-25909D01*
X75170Y-25928D01*
X75152Y-25938D01*
X75410Y-25947D02*
X75410Y-26080D01*
X75367Y-25871D02*
X75324Y-26014D01*
X75435Y-26014D01*
X81284Y-54780D02*
X81224Y-54685D01*
X81181Y-54780D02*
X81181Y-54580D01*
X81250Y-54580D01*
X81267Y-54590D01*
X81275Y-54600D01*
X81284Y-54619D01*
X81284Y-54647D01*
X81275Y-54666D01*
X81267Y-54676D01*
X81250Y-54685D01*
X81181Y-54685D01*
X81447Y-54580D02*
X81361Y-54580D01*
X81352Y-54676D01*
X81361Y-54666D01*
X81378Y-54657D01*
X81421Y-54657D01*
X81438Y-54666D01*
X81447Y-54676D01*
X81455Y-54695D01*
X81455Y-54742D01*
X81447Y-54761D01*
X81438Y-54771D01*
X81421Y-54780D01*
X81378Y-54780D01*
X81361Y-54771D01*
X81352Y-54761D01*
X81567Y-54580D02*
X81584Y-54580D01*
X81601Y-54590D01*
X81610Y-54600D01*
X81618Y-54619D01*
X81627Y-54657D01*
X81627Y-54704D01*
X81618Y-54742D01*
X81610Y-54761D01*
X81601Y-54771D01*
X81584Y-54780D01*
X81567Y-54780D01*
X81550Y-54771D01*
X81541Y-54761D01*
X81532Y-54742D01*
X81524Y-54704D01*
X81524Y-54657D01*
X81532Y-54619D01*
X81541Y-54600D01*
X81550Y-54590D01*
X81567Y-54580D01*
X81184Y-20480D02*
X81124Y-20385D01*
X81081Y-20480D02*
X81081Y-20280D01*
X81150Y-20280D01*
X81167Y-20290D01*
X81175Y-20300D01*
X81184Y-20319D01*
X81184Y-20347D01*
X81175Y-20366D01*
X81167Y-20376D01*
X81150Y-20385D01*
X81081Y-20385D01*
X81252Y-20300D02*
X81261Y-20290D01*
X81278Y-20280D01*
X81321Y-20280D01*
X81338Y-20290D01*
X81347Y-20300D01*
X81355Y-20319D01*
X81355Y-20338D01*
X81347Y-20366D01*
X81244Y-20480D01*
X81355Y-20480D01*
X81467Y-20280D02*
X81484Y-20280D01*
X81501Y-20290D01*
X81510Y-20300D01*
X81518Y-20319D01*
X81527Y-20357D01*
X81527Y-20404D01*
X81518Y-20442D01*
X81510Y-20461D01*
X81501Y-20471D01*
X81484Y-20480D01*
X81467Y-20480D01*
X81450Y-20471D01*
X81441Y-20461D01*
X81432Y-20442D01*
X81424Y-20404D01*
X81424Y-20357D01*
X81432Y-20319D01*
X81441Y-20300D01*
X81450Y-20290D01*
X81467Y-20280D01*
X81184Y-18480D02*
X81124Y-18385D01*
X81081Y-18480D02*
X81081Y-18280D01*
X81150Y-18280D01*
X81167Y-18290D01*
X81175Y-18300D01*
X81184Y-18319D01*
X81184Y-18347D01*
X81175Y-18366D01*
X81167Y-18376D01*
X81150Y-18385D01*
X81081Y-18385D01*
X81355Y-18480D02*
X81252Y-18480D01*
X81304Y-18480D02*
X81304Y-18280D01*
X81287Y-18309D01*
X81270Y-18328D01*
X81252Y-18338D01*
X81441Y-18480D02*
X81475Y-18480D01*
X81492Y-18471D01*
X81501Y-18461D01*
X81518Y-18433D01*
X81527Y-18395D01*
X81527Y-18319D01*
X81518Y-18300D01*
X81510Y-18290D01*
X81492Y-18280D01*
X81458Y-18280D01*
X81441Y-18290D01*
X81432Y-18300D01*
X81424Y-18319D01*
X81424Y-18366D01*
X81432Y-18385D01*
X81441Y-18395D01*
X81458Y-18404D01*
X81492Y-18404D01*
X81510Y-18395D01*
X81518Y-18385D01*
X81527Y-18366D01*
X81184Y-16480D02*
X81124Y-16385D01*
X81081Y-16480D02*
X81081Y-16280D01*
X81150Y-16280D01*
X81167Y-16290D01*
X81175Y-16300D01*
X81184Y-16319D01*
X81184Y-16347D01*
X81175Y-16366D01*
X81167Y-16376D01*
X81150Y-16385D01*
X81081Y-16385D01*
X81355Y-16480D02*
X81252Y-16480D01*
X81304Y-16480D02*
X81304Y-16280D01*
X81287Y-16309D01*
X81270Y-16328D01*
X81252Y-16338D01*
X81458Y-16366D02*
X81441Y-16357D01*
X81432Y-16347D01*
X81424Y-16328D01*
X81424Y-16319D01*
X81432Y-16300D01*
X81441Y-16290D01*
X81458Y-16280D01*
X81492Y-16280D01*
X81510Y-16290D01*
X81518Y-16300D01*
X81527Y-16319D01*
X81527Y-16328D01*
X81518Y-16347D01*
X81510Y-16357D01*
X81492Y-16366D01*
X81458Y-16366D01*
X81441Y-16376D01*
X81432Y-16385D01*
X81424Y-16404D01*
X81424Y-16442D01*
X81432Y-16461D01*
X81441Y-16471D01*
X81458Y-16480D01*
X81492Y-16480D01*
X81510Y-16471D01*
X81518Y-16461D01*
X81527Y-16442D01*
X81527Y-16404D01*
X81518Y-16385D01*
X81510Y-16376D01*
X81492Y-16366D01*
X81184Y-14480D02*
X81124Y-14385D01*
X81081Y-14480D02*
X81081Y-14280D01*
X81150Y-14280D01*
X81167Y-14290D01*
X81175Y-14300D01*
X81184Y-14319D01*
X81184Y-14347D01*
X81175Y-14366D01*
X81167Y-14376D01*
X81150Y-14385D01*
X81081Y-14385D01*
X81355Y-14480D02*
X81252Y-14480D01*
X81304Y-14480D02*
X81304Y-14280D01*
X81287Y-14309D01*
X81270Y-14328D01*
X81252Y-14338D01*
X81415Y-14280D02*
X81535Y-14280D01*
X81458Y-14480D01*
X75084Y-20480D02*
X75024Y-20385D01*
X74981Y-20480D02*
X74981Y-20280D01*
X75050Y-20280D01*
X75067Y-20290D01*
X75075Y-20300D01*
X75084Y-20319D01*
X75084Y-20347D01*
X75075Y-20366D01*
X75067Y-20376D01*
X75050Y-20385D01*
X74981Y-20385D01*
X75255Y-20480D02*
X75152Y-20480D01*
X75204Y-20480D02*
X75204Y-20280D01*
X75187Y-20309D01*
X75170Y-20328D01*
X75152Y-20338D01*
X75324Y-20300D02*
X75332Y-20290D01*
X75350Y-20280D01*
X75392Y-20280D01*
X75410Y-20290D01*
X75418Y-20300D01*
X75427Y-20319D01*
X75427Y-20338D01*
X75418Y-20366D01*
X75315Y-20480D01*
X75427Y-20480D01*
X75084Y-18480D02*
X75024Y-18385D01*
X74981Y-18480D02*
X74981Y-18280D01*
X75050Y-18280D01*
X75067Y-18290D01*
X75075Y-18300D01*
X75084Y-18319D01*
X75084Y-18347D01*
X75075Y-18366D01*
X75067Y-18376D01*
X75050Y-18385D01*
X74981Y-18385D01*
X75255Y-18480D02*
X75152Y-18480D01*
X75204Y-18480D02*
X75204Y-18280D01*
X75187Y-18309D01*
X75170Y-18328D01*
X75152Y-18338D01*
X75427Y-18480D02*
X75324Y-18480D01*
X75375Y-18480D02*
X75375Y-18280D01*
X75358Y-18309D01*
X75341Y-18328D01*
X75324Y-18338D01*
X75084Y-16480D02*
X75024Y-16385D01*
X74981Y-16480D02*
X74981Y-16280D01*
X75050Y-16280D01*
X75067Y-16290D01*
X75075Y-16300D01*
X75084Y-16319D01*
X75084Y-16347D01*
X75075Y-16366D01*
X75067Y-16376D01*
X75050Y-16385D01*
X74981Y-16385D01*
X75255Y-16480D02*
X75152Y-16480D01*
X75204Y-16480D02*
X75204Y-16280D01*
X75187Y-16309D01*
X75170Y-16328D01*
X75152Y-16338D01*
X75367Y-16280D02*
X75384Y-16280D01*
X75401Y-16290D01*
X75410Y-16300D01*
X75418Y-16319D01*
X75427Y-16357D01*
X75427Y-16404D01*
X75418Y-16442D01*
X75410Y-16461D01*
X75401Y-16471D01*
X75384Y-16480D01*
X75367Y-16480D01*
X75350Y-16471D01*
X75341Y-16461D01*
X75332Y-16442D01*
X75324Y-16404D01*
X75324Y-16357D01*
X75332Y-16319D01*
X75341Y-16300D01*
X75350Y-16290D01*
X75367Y-16280D01*
X75170Y-14480D02*
X75110Y-14385D01*
X75067Y-14480D02*
X75067Y-14280D01*
X75135Y-14280D01*
X75152Y-14290D01*
X75161Y-14300D01*
X75170Y-14319D01*
X75170Y-14347D01*
X75161Y-14366D01*
X75152Y-14376D01*
X75135Y-14385D01*
X75067Y-14385D01*
X75255Y-14480D02*
X75290Y-14480D01*
X75307Y-14471D01*
X75315Y-14461D01*
X75332Y-14433D01*
X75341Y-14395D01*
X75341Y-14319D01*
X75332Y-14300D01*
X75324Y-14290D01*
X75307Y-14280D01*
X75272Y-14280D01*
X75255Y-14290D01*
X75247Y-14300D01*
X75238Y-14319D01*
X75238Y-14366D01*
X75247Y-14385D01*
X75255Y-14395D01*
X75272Y-14404D01*
X75307Y-14404D01*
X75324Y-14395D01*
X75332Y-14385D01*
X75341Y-14366D01*
X75170Y-37280D02*
X75110Y-37185D01*
X75067Y-37280D02*
X75067Y-37080D01*
X75135Y-37080D01*
X75152Y-37090D01*
X75161Y-37100D01*
X75170Y-37119D01*
X75170Y-37147D01*
X75161Y-37166D01*
X75152Y-37176D01*
X75135Y-37185D01*
X75067Y-37185D01*
X75230Y-37080D02*
X75341Y-37080D01*
X75281Y-37157D01*
X75307Y-37157D01*
X75324Y-37166D01*
X75332Y-37176D01*
X75341Y-37195D01*
X75341Y-37242D01*
X75332Y-37261D01*
X75324Y-37271D01*
X75307Y-37280D01*
X75255Y-37280D01*
X75238Y-37271D01*
X75230Y-37261D01*
X81284Y-52780D02*
X81224Y-52685D01*
X81181Y-52780D02*
X81181Y-52580D01*
X81250Y-52580D01*
X81267Y-52590D01*
X81275Y-52600D01*
X81284Y-52619D01*
X81284Y-52647D01*
X81275Y-52666D01*
X81267Y-52676D01*
X81250Y-52685D01*
X81181Y-52685D01*
X81438Y-52647D02*
X81438Y-52780D01*
X81395Y-52571D02*
X81352Y-52714D01*
X81464Y-52714D01*
X81541Y-52780D02*
X81575Y-52780D01*
X81592Y-52771D01*
X81601Y-52761D01*
X81618Y-52733D01*
X81627Y-52695D01*
X81627Y-52619D01*
X81618Y-52600D01*
X81610Y-52590D01*
X81592Y-52580D01*
X81558Y-52580D01*
X81541Y-52590D01*
X81532Y-52600D01*
X81524Y-52619D01*
X81524Y-52666D01*
X81532Y-52685D01*
X81541Y-52695D01*
X81558Y-52704D01*
X81592Y-52704D01*
X81610Y-52695D01*
X81618Y-52685D01*
X81627Y-52666D01*
X75084Y-58780D02*
X75024Y-58685D01*
X74981Y-58780D02*
X74981Y-58580D01*
X75050Y-58580D01*
X75067Y-58590D01*
X75075Y-58600D01*
X75084Y-58619D01*
X75084Y-58647D01*
X75075Y-58666D01*
X75067Y-58676D01*
X75050Y-58685D01*
X74981Y-58685D01*
X75238Y-58647D02*
X75238Y-58780D01*
X75195Y-58571D02*
X75152Y-58714D01*
X75264Y-58714D01*
X75410Y-58647D02*
X75410Y-58780D01*
X75367Y-58571D02*
X75324Y-58714D01*
X75435Y-58714D01*
X75084Y-56780D02*
X75024Y-56685D01*
X74981Y-56780D02*
X74981Y-56580D01*
X75050Y-56580D01*
X75067Y-56590D01*
X75075Y-56600D01*
X75084Y-56619D01*
X75084Y-56647D01*
X75075Y-56666D01*
X75067Y-56676D01*
X75050Y-56685D01*
X74981Y-56685D01*
X75238Y-56647D02*
X75238Y-56780D01*
X75195Y-56571D02*
X75152Y-56714D01*
X75264Y-56714D01*
X75315Y-56580D02*
X75427Y-56580D01*
X75367Y-56657D01*
X75392Y-56657D01*
X75410Y-56666D01*
X75418Y-56676D01*
X75427Y-56695D01*
X75427Y-56742D01*
X75418Y-56761D01*
X75410Y-56771D01*
X75392Y-56780D01*
X75341Y-56780D01*
X75324Y-56771D01*
X75315Y-56761D01*
X75084Y-54680D02*
X75024Y-54585D01*
X74981Y-54680D02*
X74981Y-54480D01*
X75050Y-54480D01*
X75067Y-54490D01*
X75075Y-54500D01*
X75084Y-54519D01*
X75084Y-54547D01*
X75075Y-54566D01*
X75067Y-54576D01*
X75050Y-54585D01*
X74981Y-54585D01*
X75238Y-54547D02*
X75238Y-54680D01*
X75195Y-54471D02*
X75152Y-54614D01*
X75264Y-54614D01*
X75324Y-54500D02*
X75332Y-54490D01*
X75350Y-54480D01*
X75392Y-54480D01*
X75410Y-54490D01*
X75418Y-54500D01*
X75427Y-54519D01*
X75427Y-54538D01*
X75418Y-54566D01*
X75315Y-54680D01*
X75427Y-54680D01*
X75084Y-52680D02*
X75024Y-52585D01*
X74981Y-52680D02*
X74981Y-52480D01*
X75050Y-52480D01*
X75067Y-52490D01*
X75075Y-52500D01*
X75084Y-52519D01*
X75084Y-52547D01*
X75075Y-52566D01*
X75067Y-52576D01*
X75050Y-52585D01*
X74981Y-52585D01*
X75238Y-52547D02*
X75238Y-52680D01*
X75195Y-52471D02*
X75152Y-52614D01*
X75264Y-52614D01*
X75427Y-52680D02*
X75324Y-52680D01*
X75375Y-52680D02*
X75375Y-52480D01*
X75358Y-52509D01*
X75341Y-52528D01*
X75324Y-52538D01*
X81284Y-49080D02*
X81224Y-48985D01*
X81181Y-49080D02*
X81181Y-48880D01*
X81250Y-48880D01*
X81267Y-48890D01*
X81275Y-48900D01*
X81284Y-48919D01*
X81284Y-48947D01*
X81275Y-48966D01*
X81267Y-48976D01*
X81250Y-48985D01*
X81181Y-48985D01*
X81344Y-48880D02*
X81455Y-48880D01*
X81395Y-48957D01*
X81421Y-48957D01*
X81438Y-48966D01*
X81447Y-48976D01*
X81455Y-48995D01*
X81455Y-49042D01*
X81447Y-49061D01*
X81438Y-49071D01*
X81421Y-49080D01*
X81370Y-49080D01*
X81352Y-49071D01*
X81344Y-49061D01*
X81524Y-48900D02*
X81532Y-48890D01*
X81550Y-48880D01*
X81592Y-48880D01*
X81610Y-48890D01*
X81618Y-48900D01*
X81627Y-48919D01*
X81627Y-48938D01*
X81618Y-48966D01*
X81515Y-49080D01*
X81627Y-49080D01*
X81284Y-45080D02*
X81224Y-44985D01*
X81181Y-45080D02*
X81181Y-44880D01*
X81250Y-44880D01*
X81267Y-44890D01*
X81275Y-44900D01*
X81284Y-44919D01*
X81284Y-44947D01*
X81275Y-44966D01*
X81267Y-44976D01*
X81250Y-44985D01*
X81181Y-44985D01*
X81344Y-44880D02*
X81455Y-44880D01*
X81395Y-44957D01*
X81421Y-44957D01*
X81438Y-44966D01*
X81447Y-44976D01*
X81455Y-44995D01*
X81455Y-45042D01*
X81447Y-45061D01*
X81438Y-45071D01*
X81421Y-45080D01*
X81370Y-45080D01*
X81352Y-45071D01*
X81344Y-45061D01*
X81567Y-44880D02*
X81584Y-44880D01*
X81601Y-44890D01*
X81610Y-44900D01*
X81618Y-44919D01*
X81627Y-44957D01*
X81627Y-45004D01*
X81618Y-45042D01*
X81610Y-45061D01*
X81601Y-45071D01*
X81584Y-45080D01*
X81567Y-45080D01*
X81550Y-45071D01*
X81541Y-45061D01*
X81532Y-45042D01*
X81524Y-45004D01*
X81524Y-44957D01*
X81532Y-44919D01*
X81541Y-44900D01*
X81550Y-44890D01*
X81567Y-44880D01*
X81284Y-43080D02*
X81224Y-42985D01*
X81181Y-43080D02*
X81181Y-42880D01*
X81250Y-42880D01*
X81267Y-42890D01*
X81275Y-42900D01*
X81284Y-42919D01*
X81284Y-42947D01*
X81275Y-42966D01*
X81267Y-42976D01*
X81250Y-42985D01*
X81181Y-42985D01*
X81352Y-42900D02*
X81361Y-42890D01*
X81378Y-42880D01*
X81421Y-42880D01*
X81438Y-42890D01*
X81447Y-42900D01*
X81455Y-42919D01*
X81455Y-42938D01*
X81447Y-42966D01*
X81344Y-43080D01*
X81455Y-43080D01*
X81541Y-43080D02*
X81575Y-43080D01*
X81592Y-43071D01*
X81601Y-43061D01*
X81618Y-43033D01*
X81627Y-42995D01*
X81627Y-42919D01*
X81618Y-42900D01*
X81610Y-42890D01*
X81592Y-42880D01*
X81558Y-42880D01*
X81541Y-42890D01*
X81532Y-42900D01*
X81524Y-42919D01*
X81524Y-42966D01*
X81532Y-42985D01*
X81541Y-42995D01*
X81558Y-43004D01*
X81592Y-43004D01*
X81610Y-42995D01*
X81618Y-42985D01*
X81627Y-42966D01*
X75170Y-49080D02*
X75110Y-48985D01*
X75067Y-49080D02*
X75067Y-48880D01*
X75135Y-48880D01*
X75152Y-48890D01*
X75161Y-48900D01*
X75170Y-48919D01*
X75170Y-48947D01*
X75161Y-48966D01*
X75152Y-48976D01*
X75135Y-48985D01*
X75067Y-48985D01*
X75272Y-48966D02*
X75255Y-48957D01*
X75247Y-48947D01*
X75238Y-48928D01*
X75238Y-48919D01*
X75247Y-48900D01*
X75255Y-48890D01*
X75272Y-48880D01*
X75307Y-48880D01*
X75324Y-48890D01*
X75332Y-48900D01*
X75341Y-48919D01*
X75341Y-48928D01*
X75332Y-48947D01*
X75324Y-48957D01*
X75307Y-48966D01*
X75272Y-48966D01*
X75255Y-48976D01*
X75247Y-48985D01*
X75238Y-49004D01*
X75238Y-49042D01*
X75247Y-49061D01*
X75255Y-49071D01*
X75272Y-49080D01*
X75307Y-49080D01*
X75324Y-49071D01*
X75332Y-49061D01*
X75341Y-49042D01*
X75341Y-49004D01*
X75332Y-48985D01*
X75324Y-48976D01*
X75307Y-48966D01*
X75170Y-39280D02*
X75110Y-39185D01*
X75067Y-39280D02*
X75067Y-39080D01*
X75135Y-39080D01*
X75152Y-39090D01*
X75161Y-39100D01*
X75170Y-39119D01*
X75170Y-39147D01*
X75161Y-39166D01*
X75152Y-39176D01*
X75135Y-39185D01*
X75067Y-39185D01*
X75324Y-39147D02*
X75324Y-39280D01*
X75281Y-39071D02*
X75238Y-39214D01*
X75350Y-39214D01*
X81184Y-33380D02*
X81124Y-33285D01*
X81081Y-33380D02*
X81081Y-33180D01*
X81150Y-33180D01*
X81167Y-33190D01*
X81175Y-33200D01*
X81184Y-33219D01*
X81184Y-33247D01*
X81175Y-33266D01*
X81167Y-33276D01*
X81150Y-33285D01*
X81081Y-33285D01*
X81252Y-33200D02*
X81261Y-33190D01*
X81278Y-33180D01*
X81321Y-33180D01*
X81338Y-33190D01*
X81347Y-33200D01*
X81355Y-33219D01*
X81355Y-33238D01*
X81347Y-33266D01*
X81244Y-33380D01*
X81355Y-33380D01*
X81518Y-33180D02*
X81432Y-33180D01*
X81424Y-33276D01*
X81432Y-33266D01*
X81450Y-33257D01*
X81492Y-33257D01*
X81510Y-33266D01*
X81518Y-33276D01*
X81527Y-33295D01*
X81527Y-33342D01*
X81518Y-33361D01*
X81510Y-33371D01*
X81492Y-33380D01*
X81450Y-33380D01*
X81432Y-33371D01*
X81424Y-33361D01*
X81184Y-35380D02*
X81124Y-35285D01*
X81081Y-35380D02*
X81081Y-35180D01*
X81150Y-35180D01*
X81167Y-35190D01*
X81175Y-35200D01*
X81184Y-35219D01*
X81184Y-35247D01*
X81175Y-35266D01*
X81167Y-35276D01*
X81150Y-35285D01*
X81081Y-35285D01*
X81252Y-35200D02*
X81261Y-35190D01*
X81278Y-35180D01*
X81321Y-35180D01*
X81338Y-35190D01*
X81347Y-35200D01*
X81355Y-35219D01*
X81355Y-35238D01*
X81347Y-35266D01*
X81244Y-35380D01*
X81355Y-35380D01*
X81510Y-35180D02*
X81475Y-35180D01*
X81458Y-35190D01*
X81450Y-35200D01*
X81432Y-35228D01*
X81424Y-35266D01*
X81424Y-35342D01*
X81432Y-35361D01*
X81441Y-35371D01*
X81458Y-35380D01*
X81492Y-35380D01*
X81510Y-35371D01*
X81518Y-35361D01*
X81527Y-35342D01*
X81527Y-35295D01*
X81518Y-35276D01*
X81510Y-35266D01*
X81492Y-35257D01*
X81458Y-35257D01*
X81441Y-35266D01*
X81432Y-35276D01*
X81424Y-35295D01*
X81184Y-37380D02*
X81124Y-37285D01*
X81081Y-37380D02*
X81081Y-37180D01*
X81150Y-37180D01*
X81167Y-37190D01*
X81175Y-37200D01*
X81184Y-37219D01*
X81184Y-37247D01*
X81175Y-37266D01*
X81167Y-37276D01*
X81150Y-37285D01*
X81081Y-37285D01*
X81252Y-37200D02*
X81261Y-37190D01*
X81278Y-37180D01*
X81321Y-37180D01*
X81338Y-37190D01*
X81347Y-37200D01*
X81355Y-37219D01*
X81355Y-37238D01*
X81347Y-37266D01*
X81244Y-37380D01*
X81355Y-37380D01*
X81415Y-37180D02*
X81535Y-37180D01*
X81458Y-37380D01*
X81184Y-39380D02*
X81124Y-39285D01*
X81081Y-39380D02*
X81081Y-39180D01*
X81150Y-39180D01*
X81167Y-39190D01*
X81175Y-39200D01*
X81184Y-39219D01*
X81184Y-39247D01*
X81175Y-39266D01*
X81167Y-39276D01*
X81150Y-39285D01*
X81081Y-39285D01*
X81252Y-39200D02*
X81261Y-39190D01*
X81278Y-39180D01*
X81321Y-39180D01*
X81338Y-39190D01*
X81347Y-39200D01*
X81355Y-39219D01*
X81355Y-39238D01*
X81347Y-39266D01*
X81244Y-39380D01*
X81355Y-39380D01*
X81458Y-39266D02*
X81441Y-39257D01*
X81432Y-39247D01*
X81424Y-39228D01*
X81424Y-39219D01*
X81432Y-39200D01*
X81441Y-39190D01*
X81458Y-39180D01*
X81492Y-39180D01*
X81510Y-39190D01*
X81518Y-39200D01*
X81527Y-39219D01*
X81527Y-39228D01*
X81518Y-39247D01*
X81510Y-39257D01*
X81492Y-39266D01*
X81458Y-39266D01*
X81441Y-39276D01*
X81432Y-39285D01*
X81424Y-39304D01*
X81424Y-39342D01*
X81432Y-39361D01*
X81441Y-39371D01*
X81458Y-39380D01*
X81492Y-39380D01*
X81510Y-39371D01*
X81518Y-39361D01*
X81527Y-39342D01*
X81527Y-39304D01*
X81518Y-39285D01*
X81510Y-39276D01*
X81492Y-39266D01*
X75170Y-43080D02*
X75110Y-42985D01*
X75067Y-43080D02*
X75067Y-42880D01*
X75135Y-42880D01*
X75152Y-42890D01*
X75161Y-42900D01*
X75170Y-42919D01*
X75170Y-42947D01*
X75161Y-42966D01*
X75152Y-42976D01*
X75135Y-42985D01*
X75067Y-42985D01*
X75332Y-42880D02*
X75247Y-42880D01*
X75238Y-42976D01*
X75247Y-42966D01*
X75264Y-42957D01*
X75307Y-42957D01*
X75324Y-42966D01*
X75332Y-42976D01*
X75341Y-42995D01*
X75341Y-43042D01*
X75332Y-43061D01*
X75324Y-43071D01*
X75307Y-43080D01*
X75264Y-43080D01*
X75247Y-43071D01*
X75238Y-43061D01*
X75170Y-45080D02*
X75110Y-44985D01*
X75067Y-45080D02*
X75067Y-44880D01*
X75135Y-44880D01*
X75152Y-44890D01*
X75161Y-44900D01*
X75170Y-44919D01*
X75170Y-44947D01*
X75161Y-44966D01*
X75152Y-44976D01*
X75135Y-44985D01*
X75067Y-44985D01*
X75324Y-44880D02*
X75290Y-44880D01*
X75272Y-44890D01*
X75264Y-44900D01*
X75247Y-44928D01*
X75238Y-44966D01*
X75238Y-45042D01*
X75247Y-45061D01*
X75255Y-45071D01*
X75272Y-45080D01*
X75307Y-45080D01*
X75324Y-45071D01*
X75332Y-45061D01*
X75341Y-45042D01*
X75341Y-44995D01*
X75332Y-44976D01*
X75324Y-44966D01*
X75307Y-44957D01*
X75272Y-44957D01*
X75255Y-44966D01*
X75247Y-44976D01*
X75238Y-44995D01*
X75170Y-47080D02*
X75110Y-46985D01*
X75067Y-47080D02*
X75067Y-46880D01*
X75135Y-46880D01*
X75152Y-46890D01*
X75161Y-46900D01*
X75170Y-46919D01*
X75170Y-46947D01*
X75161Y-46966D01*
X75152Y-46976D01*
X75135Y-46985D01*
X75067Y-46985D01*
X75230Y-46880D02*
X75350Y-46880D01*
X75272Y-47080D01*
G54D10*
X84539Y-17616D02*
X84539Y-17898D01*
X83948Y-17898D01*
X83948Y-17307D02*
X83948Y-17195D01*
X83976Y-17138D01*
X84032Y-17082D01*
X84145Y-17054D01*
X84342Y-17054D01*
X84454Y-17082D01*
X84510Y-17138D01*
X84539Y-17195D01*
X84539Y-17307D01*
X84510Y-17363D01*
X84454Y-17420D01*
X84342Y-17448D01*
X84145Y-17448D01*
X84032Y-17420D01*
X83976Y-17363D01*
X83948Y-17307D01*
X83948Y-16857D02*
X84539Y-16717D01*
X84117Y-16604D01*
X84539Y-16492D01*
X83948Y-16351D01*
X84595Y-16267D02*
X84595Y-15817D01*
X84539Y-15367D02*
X84539Y-15704D01*
X84539Y-15535D02*
X83948Y-15535D01*
X84032Y-15592D01*
X84089Y-15648D01*
X84117Y-15704D01*
X84314Y-15114D02*
X84314Y-14664D01*
X84201Y-14298D02*
X84173Y-14354D01*
X84145Y-14383D01*
X84089Y-14411D01*
X84060Y-14411D01*
X84004Y-14383D01*
X83976Y-14354D01*
X83948Y-14298D01*
X83948Y-14186D01*
X83976Y-14129D01*
X84004Y-14101D01*
X84060Y-14073D01*
X84089Y-14073D01*
X84145Y-14101D01*
X84173Y-14129D01*
X84201Y-14186D01*
X84201Y-14298D01*
X84229Y-14354D01*
X84257Y-14383D01*
X84314Y-14411D01*
X84426Y-14411D01*
X84482Y-14383D01*
X84510Y-14354D01*
X84539Y-14298D01*
X84539Y-14186D01*
X84510Y-14129D01*
X84482Y-14101D01*
X84426Y-14073D01*
X84314Y-14073D01*
X84257Y-14101D01*
X84229Y-14129D01*
X84201Y-14186D01*
X84539Y-76848D02*
X83948Y-76848D01*
X84229Y-76848D02*
X84229Y-76510D01*
X84539Y-76510D02*
X83948Y-76510D01*
X84539Y-76229D02*
X83948Y-76229D01*
X83976Y-75638D02*
X83948Y-75695D01*
X83948Y-75779D01*
X83976Y-75863D01*
X84032Y-75920D01*
X84089Y-75948D01*
X84201Y-75976D01*
X84285Y-75976D01*
X84398Y-75948D01*
X84454Y-75920D01*
X84510Y-75863D01*
X84539Y-75779D01*
X84539Y-75723D01*
X84510Y-75638D01*
X84482Y-75610D01*
X84285Y-75610D01*
X84285Y-75723D01*
X84539Y-75357D02*
X83948Y-75357D01*
X84229Y-75357D02*
X84229Y-75020D01*
X84539Y-75020D02*
X83948Y-75020D01*
X84595Y-74879D02*
X84595Y-74429D01*
X84539Y-74260D02*
X84539Y-74148D01*
X84510Y-74092D01*
X84482Y-74064D01*
X84398Y-74007D01*
X84285Y-73979D01*
X84060Y-73979D01*
X84004Y-74007D01*
X83976Y-74035D01*
X83948Y-74092D01*
X83948Y-74204D01*
X83976Y-74260D01*
X84004Y-74289D01*
X84060Y-74317D01*
X84201Y-74317D01*
X84257Y-74289D01*
X84285Y-74260D01*
X84314Y-74204D01*
X84314Y-74092D01*
X84285Y-74035D01*
X84257Y-74007D01*
X84201Y-73979D01*
X84314Y-73726D02*
X84314Y-73276D01*
X84539Y-72686D02*
X84539Y-73023D01*
X84539Y-72854D02*
X83948Y-72854D01*
X84032Y-72911D01*
X84089Y-72967D01*
X84117Y-73023D01*
X83948Y-72179D02*
X83948Y-72292D01*
X83976Y-72348D01*
X84004Y-72376D01*
X84089Y-72433D01*
X84201Y-72461D01*
X84426Y-72461D01*
X84482Y-72433D01*
X84510Y-72404D01*
X84539Y-72348D01*
X84539Y-72236D01*
X84510Y-72179D01*
X84482Y-72151D01*
X84426Y-72123D01*
X84285Y-72123D01*
X84229Y-72151D01*
X84201Y-72179D01*
X84173Y-72236D01*
X84173Y-72348D01*
X84201Y-72404D01*
X84229Y-72433D01*
X84285Y-72461D01*
X84539Y-56866D02*
X83948Y-56866D01*
X84229Y-56866D02*
X84229Y-56529D01*
X84539Y-56529D02*
X83948Y-56529D01*
X84539Y-56248D02*
X83948Y-56248D01*
X83976Y-55657D02*
X83948Y-55713D01*
X83948Y-55798D01*
X83976Y-55882D01*
X84032Y-55938D01*
X84089Y-55967D01*
X84201Y-55995D01*
X84285Y-55995D01*
X84398Y-55967D01*
X84454Y-55938D01*
X84510Y-55882D01*
X84539Y-55798D01*
X84539Y-55742D01*
X84510Y-55657D01*
X84482Y-55629D01*
X84285Y-55629D01*
X84285Y-55742D01*
X84539Y-55376D02*
X83948Y-55376D01*
X84229Y-55376D02*
X84229Y-55039D01*
X84539Y-55039D02*
X83948Y-55039D01*
X84595Y-54898D02*
X84595Y-54448D01*
X84539Y-53998D02*
X84539Y-54335D01*
X84539Y-54167D02*
X83948Y-54167D01*
X84032Y-54223D01*
X84089Y-54279D01*
X84117Y-54335D01*
X84314Y-53745D02*
X84314Y-53295D01*
X84201Y-52929D02*
X84173Y-52986D01*
X84145Y-53014D01*
X84089Y-53042D01*
X84060Y-53042D01*
X84004Y-53014D01*
X83976Y-52986D01*
X83948Y-52929D01*
X83948Y-52817D01*
X83976Y-52761D01*
X84004Y-52733D01*
X84060Y-52704D01*
X84089Y-52704D01*
X84145Y-52733D01*
X84173Y-52761D01*
X84201Y-52817D01*
X84201Y-52929D01*
X84229Y-52986D01*
X84257Y-53014D01*
X84314Y-53042D01*
X84426Y-53042D01*
X84482Y-53014D01*
X84510Y-52986D01*
X84539Y-52929D01*
X84539Y-52817D01*
X84510Y-52761D01*
X84482Y-52733D01*
X84426Y-52704D01*
X84314Y-52704D01*
X84257Y-52733D01*
X84229Y-52761D01*
X84201Y-52817D01*
X84539Y-36698D02*
X84539Y-36979D01*
X83948Y-36979D01*
X83948Y-36388D02*
X83948Y-36276D01*
X83976Y-36220D01*
X84032Y-36163D01*
X84145Y-36135D01*
X84342Y-36135D01*
X84454Y-36163D01*
X84510Y-36220D01*
X84539Y-36276D01*
X84539Y-36388D01*
X84510Y-36445D01*
X84454Y-36501D01*
X84342Y-36529D01*
X84145Y-36529D01*
X84032Y-36501D01*
X83976Y-36445D01*
X83948Y-36388D01*
X83948Y-35938D02*
X84539Y-35798D01*
X84117Y-35685D01*
X84539Y-35573D01*
X83948Y-35432D01*
X84595Y-35348D02*
X84595Y-34898D01*
X84539Y-34729D02*
X84539Y-34617D01*
X84510Y-34560D01*
X84482Y-34532D01*
X84398Y-34476D01*
X84285Y-34448D01*
X84060Y-34448D01*
X84004Y-34476D01*
X83976Y-34504D01*
X83948Y-34560D01*
X83948Y-34673D01*
X83976Y-34729D01*
X84004Y-34757D01*
X84060Y-34785D01*
X84201Y-34785D01*
X84257Y-34757D01*
X84285Y-34729D01*
X84314Y-34673D01*
X84314Y-34560D01*
X84285Y-34504D01*
X84257Y-34476D01*
X84201Y-34448D01*
X84314Y-34195D02*
X84314Y-33745D01*
X84539Y-33154D02*
X84539Y-33492D01*
X84539Y-33323D02*
X83948Y-33323D01*
X84032Y-33379D01*
X84089Y-33436D01*
X84117Y-33492D01*
X83948Y-32648D02*
X83948Y-32761D01*
X83976Y-32817D01*
X84004Y-32845D01*
X84089Y-32901D01*
X84201Y-32929D01*
X84426Y-32929D01*
X84482Y-32901D01*
X84510Y-32873D01*
X84539Y-32817D01*
X84539Y-32704D01*
X84510Y-32648D01*
X84482Y-32620D01*
X84426Y-32592D01*
X84285Y-32592D01*
X84229Y-32620D01*
X84201Y-32648D01*
X84173Y-32704D01*
X84173Y-32817D01*
X84201Y-32873D01*
X84229Y-32901D01*
X84285Y-32929D01*
X78314Y-11689D02*
X78314Y-11098D01*
X78454Y-11098D01*
X78539Y-11126D01*
X78595Y-11182D01*
X78623Y-11239D01*
X78651Y-11351D01*
X78651Y-11435D01*
X78623Y-11548D01*
X78595Y-11604D01*
X78539Y-11660D01*
X78454Y-11689D01*
X78314Y-11689D01*
X78876Y-11520D02*
X79157Y-11520D01*
X78820Y-11689D02*
X79017Y-11098D01*
X79214Y-11689D01*
X79326Y-11098D02*
X79664Y-11098D01*
X79495Y-11689D02*
X79495Y-11098D01*
X79832Y-11520D02*
X80113Y-11520D01*
X79776Y-11689D02*
X79973Y-11098D01*
X80170Y-11689D01*
X81034Y-11689D02*
X80696Y-11689D01*
X80865Y-11689D02*
X80865Y-11098D01*
X80809Y-11182D01*
X80753Y-11239D01*
X80696Y-11267D01*
X81259Y-11154D02*
X81287Y-11126D01*
X81343Y-11098D01*
X81484Y-11098D01*
X81540Y-11126D01*
X81568Y-11154D01*
X81596Y-11210D01*
X81596Y-11267D01*
X81568Y-11351D01*
X81231Y-11689D01*
X81596Y-11689D01*
X81765Y-11098D02*
X81962Y-11689D01*
X82159Y-11098D01*
X75945Y-89889D02*
X75945Y-89298D01*
X76086Y-89298D01*
X76170Y-89326D01*
X76226Y-89382D01*
X76254Y-89439D01*
X76283Y-89551D01*
X76283Y-89635D01*
X76254Y-89748D01*
X76226Y-89804D01*
X76170Y-89860D01*
X76086Y-89889D01*
X75945Y-89889D01*
X76507Y-89720D02*
X76789Y-89720D01*
X76451Y-89889D02*
X76648Y-89298D01*
X76845Y-89889D01*
X76957Y-89298D02*
X77295Y-89298D01*
X77126Y-89889D02*
X77126Y-89298D01*
X77464Y-89720D02*
X77745Y-89720D01*
X77407Y-89889D02*
X77604Y-89298D01*
X77801Y-89889D01*
X77857Y-89945D02*
X78307Y-89945D01*
X78560Y-89298D02*
X78673Y-89298D01*
X78729Y-89326D01*
X78785Y-89382D01*
X78813Y-89495D01*
X78813Y-89692D01*
X78785Y-89804D01*
X78729Y-89860D01*
X78673Y-89889D01*
X78560Y-89889D01*
X78504Y-89860D01*
X78448Y-89804D01*
X78420Y-89692D01*
X78420Y-89495D01*
X78448Y-89382D01*
X78504Y-89326D01*
X78560Y-89298D01*
X79067Y-89298D02*
X79067Y-89776D01*
X79095Y-89832D01*
X79123Y-89860D01*
X79179Y-89889D01*
X79292Y-89889D01*
X79348Y-89860D01*
X79376Y-89832D01*
X79404Y-89776D01*
X79404Y-89298D01*
X79601Y-89298D02*
X79938Y-89298D01*
X79770Y-89889D02*
X79770Y-89298D01*
X74178Y-13548D02*
X74543Y-13548D01*
X74346Y-13773D01*
X74431Y-13773D01*
X74487Y-13801D01*
X74515Y-13829D01*
X74543Y-13885D01*
X74543Y-14026D01*
X74515Y-14082D01*
X74487Y-14110D01*
X74431Y-14139D01*
X74262Y-14139D01*
X74206Y-14110D01*
X74178Y-14082D01*
X74796Y-14082D02*
X74825Y-14110D01*
X74796Y-14139D01*
X74768Y-14110D01*
X74796Y-14082D01*
X74796Y-14139D01*
X75021Y-13548D02*
X75387Y-13548D01*
X75190Y-13773D01*
X75274Y-13773D01*
X75331Y-13801D01*
X75359Y-13829D01*
X75387Y-13885D01*
X75387Y-14026D01*
X75359Y-14082D01*
X75331Y-14110D01*
X75274Y-14139D01*
X75106Y-14139D01*
X75050Y-14110D01*
X75021Y-14082D01*
X75556Y-13548D02*
X75753Y-14139D01*
X75949Y-13548D01*
G54D14*
X82698Y-15418D02*
X82689Y-15437D01*
X82670Y-15456D01*
X82642Y-15484D01*
X82632Y-15503D01*
X82632Y-15521D01*
X82679Y-15512D02*
X82670Y-15531D01*
X82651Y-15550D01*
X82614Y-15559D01*
X82548Y-15559D01*
X82510Y-15550D01*
X82492Y-15531D01*
X82482Y-15512D01*
X82482Y-15475D01*
X82492Y-15456D01*
X82510Y-15437D01*
X82548Y-15428D01*
X82614Y-15428D01*
X82651Y-15437D01*
X82670Y-15456D01*
X82679Y-15475D01*
X82679Y-15512D01*
X82679Y-15240D02*
X82679Y-15353D01*
X82679Y-15296D02*
X82482Y-15296D01*
X82510Y-15315D01*
X82529Y-15334D01*
X82539Y-15353D01*
X82698Y-19418D02*
X82689Y-19437D01*
X82670Y-19456D01*
X82642Y-19484D01*
X82632Y-19503D01*
X82632Y-19521D01*
X82679Y-19512D02*
X82670Y-19531D01*
X82651Y-19550D01*
X82614Y-19559D01*
X82548Y-19559D01*
X82510Y-19550D01*
X82492Y-19531D01*
X82482Y-19512D01*
X82482Y-19475D01*
X82492Y-19456D01*
X82510Y-19437D01*
X82548Y-19428D01*
X82614Y-19428D01*
X82651Y-19437D01*
X82670Y-19456D01*
X82679Y-19475D01*
X82679Y-19512D01*
X82501Y-19353D02*
X82492Y-19343D01*
X82482Y-19324D01*
X82482Y-19278D01*
X82492Y-19259D01*
X82501Y-19249D01*
X82520Y-19240D01*
X82539Y-19240D01*
X82567Y-19249D01*
X82679Y-19362D01*
X82679Y-19240D01*
X82798Y-57812D02*
X82789Y-57831D01*
X82770Y-57850D01*
X82742Y-57878D01*
X82732Y-57897D01*
X82732Y-57915D01*
X82779Y-57906D02*
X82770Y-57925D01*
X82751Y-57943D01*
X82714Y-57953D01*
X82648Y-57953D01*
X82610Y-57943D01*
X82592Y-57925D01*
X82582Y-57906D01*
X82582Y-57868D01*
X82592Y-57850D01*
X82610Y-57831D01*
X82648Y-57821D01*
X82714Y-57821D01*
X82751Y-57831D01*
X82770Y-57850D01*
X82779Y-57868D01*
X82779Y-57906D01*
X82779Y-57634D02*
X82779Y-57746D01*
X82779Y-57690D02*
X82582Y-57690D01*
X82610Y-57709D01*
X82629Y-57728D01*
X82639Y-57746D01*
X82667Y-57521D02*
X82657Y-57540D01*
X82648Y-57549D01*
X82629Y-57559D01*
X82620Y-57559D01*
X82601Y-57549D01*
X82592Y-57540D01*
X82582Y-57521D01*
X82582Y-57484D01*
X82592Y-57465D01*
X82601Y-57456D01*
X82620Y-57446D01*
X82629Y-57446D01*
X82648Y-57456D01*
X82657Y-57465D01*
X82667Y-57484D01*
X82667Y-57521D01*
X82676Y-57540D01*
X82685Y-57549D01*
X82704Y-57559D01*
X82742Y-57559D01*
X82760Y-57549D01*
X82770Y-57540D01*
X82779Y-57521D01*
X82779Y-57484D01*
X82770Y-57465D01*
X82760Y-57456D01*
X82742Y-57446D01*
X82704Y-57446D01*
X82685Y-57456D01*
X82676Y-57465D01*
X82667Y-57484D01*
X82798Y-55812D02*
X82789Y-55831D01*
X82770Y-55850D01*
X82742Y-55878D01*
X82732Y-55897D01*
X82732Y-55915D01*
X82779Y-55906D02*
X82770Y-55925D01*
X82751Y-55943D01*
X82714Y-55953D01*
X82648Y-55953D01*
X82610Y-55943D01*
X82592Y-55925D01*
X82582Y-55906D01*
X82582Y-55868D01*
X82592Y-55850D01*
X82610Y-55831D01*
X82648Y-55821D01*
X82714Y-55821D01*
X82751Y-55831D01*
X82770Y-55850D01*
X82779Y-55868D01*
X82779Y-55906D01*
X82601Y-55746D02*
X82592Y-55737D01*
X82582Y-55718D01*
X82582Y-55671D01*
X82592Y-55653D01*
X82601Y-55643D01*
X82620Y-55634D01*
X82639Y-55634D01*
X82667Y-55643D01*
X82779Y-55756D01*
X82779Y-55634D01*
X82582Y-55456D02*
X82582Y-55549D01*
X82676Y-55559D01*
X82667Y-55549D01*
X82657Y-55531D01*
X82657Y-55484D01*
X82667Y-55465D01*
X82676Y-55456D01*
X82695Y-55446D01*
X82742Y-55446D01*
X82760Y-55456D01*
X82770Y-55465D01*
X82779Y-55484D01*
X82779Y-55531D01*
X82770Y-55549D01*
X82760Y-55559D01*
X82698Y-21512D02*
X82689Y-21531D01*
X82670Y-21550D01*
X82642Y-21578D01*
X82632Y-21597D01*
X82632Y-21615D01*
X82679Y-21606D02*
X82670Y-21625D01*
X82651Y-21643D01*
X82614Y-21653D01*
X82548Y-21653D01*
X82510Y-21643D01*
X82492Y-21625D01*
X82482Y-21606D01*
X82482Y-21568D01*
X82492Y-21550D01*
X82510Y-21531D01*
X82548Y-21521D01*
X82614Y-21521D01*
X82651Y-21531D01*
X82670Y-21550D01*
X82679Y-21568D01*
X82679Y-21606D01*
X82679Y-21334D02*
X82679Y-21446D01*
X82679Y-21390D02*
X82482Y-21390D01*
X82510Y-21409D01*
X82529Y-21428D01*
X82539Y-21446D01*
X82482Y-21212D02*
X82482Y-21193D01*
X82492Y-21174D01*
X82501Y-21165D01*
X82520Y-21156D01*
X82557Y-21146D01*
X82604Y-21146D01*
X82642Y-21156D01*
X82660Y-21165D01*
X82670Y-21174D01*
X82679Y-21193D01*
X82679Y-21212D01*
X82670Y-21231D01*
X82660Y-21240D01*
X82642Y-21249D01*
X82604Y-21259D01*
X82557Y-21259D01*
X82520Y-21249D01*
X82501Y-21240D01*
X82492Y-21231D01*
X82482Y-21212D01*
X82798Y-46112D02*
X82789Y-46131D01*
X82770Y-46150D01*
X82742Y-46178D01*
X82732Y-46197D01*
X82732Y-46215D01*
X82779Y-46206D02*
X82770Y-46225D01*
X82751Y-46243D01*
X82714Y-46253D01*
X82648Y-46253D01*
X82610Y-46243D01*
X82592Y-46225D01*
X82582Y-46206D01*
X82582Y-46168D01*
X82592Y-46150D01*
X82610Y-46131D01*
X82648Y-46121D01*
X82714Y-46121D01*
X82751Y-46131D01*
X82770Y-46150D01*
X82779Y-46168D01*
X82779Y-46206D01*
X82779Y-45934D02*
X82779Y-46046D01*
X82779Y-45990D02*
X82582Y-45990D01*
X82610Y-46009D01*
X82629Y-46028D01*
X82639Y-46046D01*
X82582Y-45756D02*
X82582Y-45849D01*
X82676Y-45859D01*
X82667Y-45849D01*
X82657Y-45831D01*
X82657Y-45784D01*
X82667Y-45765D01*
X82676Y-45756D01*
X82695Y-45746D01*
X82742Y-45746D01*
X82760Y-45756D01*
X82770Y-45765D01*
X82779Y-45784D01*
X82779Y-45831D01*
X82770Y-45849D01*
X82760Y-45859D01*
X82798Y-53812D02*
X82789Y-53831D01*
X82770Y-53850D01*
X82742Y-53878D01*
X82732Y-53897D01*
X82732Y-53915D01*
X82779Y-53906D02*
X82770Y-53925D01*
X82751Y-53943D01*
X82714Y-53953D01*
X82648Y-53953D01*
X82610Y-53943D01*
X82592Y-53925D01*
X82582Y-53906D01*
X82582Y-53868D01*
X82592Y-53850D01*
X82610Y-53831D01*
X82648Y-53821D01*
X82714Y-53821D01*
X82751Y-53831D01*
X82770Y-53850D01*
X82779Y-53868D01*
X82779Y-53906D01*
X82779Y-53634D02*
X82779Y-53746D01*
X82779Y-53690D02*
X82582Y-53690D01*
X82610Y-53709D01*
X82629Y-53728D01*
X82639Y-53746D01*
X82582Y-53568D02*
X82582Y-53437D01*
X82779Y-53521D01*
X82698Y-36412D02*
X82689Y-36431D01*
X82670Y-36450D01*
X82642Y-36478D01*
X82632Y-36497D01*
X82632Y-36515D01*
X82679Y-36506D02*
X82670Y-36525D01*
X82651Y-36543D01*
X82614Y-36553D01*
X82548Y-36553D01*
X82510Y-36543D01*
X82492Y-36525D01*
X82482Y-36506D01*
X82482Y-36468D01*
X82492Y-36450D01*
X82510Y-36431D01*
X82548Y-36421D01*
X82614Y-36421D01*
X82651Y-36431D01*
X82670Y-36450D01*
X82679Y-36468D01*
X82679Y-36506D01*
X82679Y-36234D02*
X82679Y-36346D01*
X82679Y-36290D02*
X82482Y-36290D01*
X82510Y-36309D01*
X82529Y-36328D01*
X82539Y-36346D01*
X82482Y-36168D02*
X82482Y-36046D01*
X82557Y-36112D01*
X82557Y-36084D01*
X82567Y-36065D01*
X82576Y-36056D01*
X82595Y-36046D01*
X82642Y-36046D01*
X82660Y-36056D01*
X82670Y-36065D01*
X82679Y-36084D01*
X82679Y-36140D01*
X82670Y-36159D01*
X82660Y-36168D01*
X82798Y-48018D02*
X82789Y-48037D01*
X82770Y-48056D01*
X82742Y-48084D01*
X82732Y-48103D01*
X82732Y-48121D01*
X82779Y-48112D02*
X82770Y-48131D01*
X82751Y-48150D01*
X82714Y-48159D01*
X82648Y-48159D01*
X82610Y-48150D01*
X82592Y-48131D01*
X82582Y-48112D01*
X82582Y-48075D01*
X82592Y-48056D01*
X82610Y-48037D01*
X82648Y-48028D01*
X82714Y-48028D01*
X82751Y-48037D01*
X82770Y-48056D01*
X82779Y-48075D01*
X82779Y-48112D01*
X82667Y-47915D02*
X82657Y-47934D01*
X82648Y-47943D01*
X82629Y-47953D01*
X82620Y-47953D01*
X82601Y-47943D01*
X82592Y-47934D01*
X82582Y-47915D01*
X82582Y-47878D01*
X82592Y-47859D01*
X82601Y-47849D01*
X82620Y-47840D01*
X82629Y-47840D01*
X82648Y-47849D01*
X82657Y-47859D01*
X82667Y-47878D01*
X82667Y-47915D01*
X82676Y-47934D01*
X82685Y-47943D01*
X82704Y-47953D01*
X82742Y-47953D01*
X82760Y-47943D01*
X82770Y-47934D01*
X82779Y-47915D01*
X82779Y-47878D01*
X82770Y-47859D01*
X82760Y-47849D01*
X82742Y-47840D01*
X82704Y-47840D01*
X82685Y-47849D01*
X82676Y-47859D01*
X82667Y-47878D01*
X82698Y-34318D02*
X82689Y-34337D01*
X82670Y-34356D01*
X82642Y-34384D01*
X82632Y-34403D01*
X82632Y-34421D01*
X82679Y-34412D02*
X82670Y-34431D01*
X82651Y-34450D01*
X82614Y-34459D01*
X82548Y-34459D01*
X82510Y-34450D01*
X82492Y-34431D01*
X82482Y-34412D01*
X82482Y-34375D01*
X82492Y-34356D01*
X82510Y-34337D01*
X82548Y-34328D01*
X82614Y-34328D01*
X82651Y-34337D01*
X82670Y-34356D01*
X82679Y-34375D01*
X82679Y-34412D01*
X82482Y-34149D02*
X82482Y-34243D01*
X82576Y-34253D01*
X82567Y-34243D01*
X82557Y-34224D01*
X82557Y-34178D01*
X82567Y-34159D01*
X82576Y-34149D01*
X82595Y-34140D01*
X82642Y-34140D01*
X82660Y-34149D01*
X82670Y-34159D01*
X82679Y-34178D01*
X82679Y-34224D01*
X82670Y-34243D01*
X82660Y-34253D01*
X82798Y-44018D02*
X82789Y-44037D01*
X82770Y-44056D01*
X82742Y-44084D01*
X82732Y-44103D01*
X82732Y-44121D01*
X82779Y-44112D02*
X82770Y-44131D01*
X82751Y-44150D01*
X82714Y-44159D01*
X82648Y-44159D01*
X82610Y-44150D01*
X82592Y-44131D01*
X82582Y-44112D01*
X82582Y-44075D01*
X82592Y-44056D01*
X82610Y-44037D01*
X82648Y-44028D01*
X82714Y-44028D01*
X82751Y-44037D01*
X82770Y-44056D01*
X82779Y-44075D01*
X82779Y-44112D01*
X82582Y-43962D02*
X82582Y-43831D01*
X82779Y-43915D01*
X82698Y-25018D02*
X82689Y-25037D01*
X82670Y-25056D01*
X82642Y-25084D01*
X82632Y-25103D01*
X82632Y-25121D01*
X82679Y-25112D02*
X82670Y-25131D01*
X82651Y-25150D01*
X82614Y-25159D01*
X82548Y-25159D01*
X82510Y-25150D01*
X82492Y-25131D01*
X82482Y-25112D01*
X82482Y-25075D01*
X82492Y-25056D01*
X82510Y-25037D01*
X82548Y-25028D01*
X82614Y-25028D01*
X82651Y-25037D01*
X82670Y-25056D01*
X82679Y-25075D01*
X82679Y-25112D01*
X82482Y-24962D02*
X82482Y-24840D01*
X82557Y-24906D01*
X82557Y-24878D01*
X82567Y-24859D01*
X82576Y-24849D01*
X82595Y-24840D01*
X82642Y-24840D01*
X82660Y-24849D01*
X82670Y-24859D01*
X82679Y-24878D01*
X82679Y-24934D01*
X82670Y-24953D01*
X82660Y-24962D01*
X82698Y-40412D02*
X82689Y-40431D01*
X82670Y-40450D01*
X82642Y-40478D01*
X82632Y-40497D01*
X82632Y-40515D01*
X82679Y-40506D02*
X82670Y-40525D01*
X82651Y-40543D01*
X82614Y-40553D01*
X82548Y-40553D01*
X82510Y-40543D01*
X82492Y-40525D01*
X82482Y-40506D01*
X82482Y-40468D01*
X82492Y-40450D01*
X82510Y-40431D01*
X82548Y-40421D01*
X82614Y-40421D01*
X82651Y-40431D01*
X82670Y-40450D01*
X82679Y-40468D01*
X82679Y-40506D01*
X82679Y-40234D02*
X82679Y-40346D01*
X82679Y-40290D02*
X82482Y-40290D01*
X82510Y-40309D01*
X82529Y-40328D01*
X82539Y-40346D01*
X82548Y-40065D02*
X82679Y-40065D01*
X82473Y-40112D02*
X82614Y-40159D01*
X82614Y-40037D01*
X82698Y-27112D02*
X82689Y-27131D01*
X82670Y-27150D01*
X82642Y-27178D01*
X82632Y-27197D01*
X82632Y-27215D01*
X82679Y-27206D02*
X82670Y-27225D01*
X82651Y-27243D01*
X82614Y-27253D01*
X82548Y-27253D01*
X82510Y-27243D01*
X82492Y-27225D01*
X82482Y-27206D01*
X82482Y-27168D01*
X82492Y-27150D01*
X82510Y-27131D01*
X82548Y-27121D01*
X82614Y-27121D01*
X82651Y-27131D01*
X82670Y-27150D01*
X82679Y-27168D01*
X82679Y-27206D01*
X82679Y-26934D02*
X82679Y-27046D01*
X82679Y-26990D02*
X82482Y-26990D01*
X82510Y-27009D01*
X82529Y-27028D01*
X82539Y-27046D01*
X82679Y-26746D02*
X82679Y-26859D01*
X82679Y-26803D02*
X82482Y-26803D01*
X82510Y-26821D01*
X82529Y-26840D01*
X82539Y-26859D01*
X82798Y-50112D02*
X82789Y-50131D01*
X82770Y-50150D01*
X82742Y-50178D01*
X82732Y-50197D01*
X82732Y-50215D01*
X82779Y-50206D02*
X82770Y-50225D01*
X82751Y-50243D01*
X82714Y-50253D01*
X82648Y-50253D01*
X82610Y-50243D01*
X82592Y-50225D01*
X82582Y-50206D01*
X82582Y-50168D01*
X82592Y-50150D01*
X82610Y-50131D01*
X82648Y-50121D01*
X82714Y-50121D01*
X82751Y-50131D01*
X82770Y-50150D01*
X82779Y-50168D01*
X82779Y-50206D01*
X82779Y-49934D02*
X82779Y-50046D01*
X82779Y-49990D02*
X82582Y-49990D01*
X82610Y-50009D01*
X82629Y-50028D01*
X82639Y-50046D01*
X82582Y-49765D02*
X82582Y-49803D01*
X82592Y-49821D01*
X82601Y-49831D01*
X82629Y-49849D01*
X82667Y-49859D01*
X82742Y-49859D01*
X82760Y-49849D01*
X82770Y-49840D01*
X82779Y-49821D01*
X82779Y-49784D01*
X82770Y-49765D01*
X82760Y-49756D01*
X82742Y-49746D01*
X82695Y-49746D01*
X82676Y-49756D01*
X82667Y-49765D01*
X82657Y-49784D01*
X82657Y-49821D01*
X82667Y-49840D01*
X82676Y-49849D01*
X82695Y-49859D01*
X82698Y-29018D02*
X82689Y-29037D01*
X82670Y-29056D01*
X82642Y-29084D01*
X82632Y-29103D01*
X82632Y-29121D01*
X82679Y-29112D02*
X82670Y-29131D01*
X82651Y-29150D01*
X82614Y-29159D01*
X82548Y-29159D01*
X82510Y-29150D01*
X82492Y-29131D01*
X82482Y-29112D01*
X82482Y-29075D01*
X82492Y-29056D01*
X82510Y-29037D01*
X82548Y-29028D01*
X82614Y-29028D01*
X82651Y-29037D01*
X82670Y-29056D01*
X82679Y-29075D01*
X82679Y-29112D01*
X82548Y-28859D02*
X82679Y-28859D01*
X82473Y-28906D02*
X82614Y-28953D01*
X82614Y-28831D01*
X82698Y-31112D02*
X82689Y-31131D01*
X82670Y-31150D01*
X82642Y-31178D01*
X82632Y-31197D01*
X82632Y-31215D01*
X82679Y-31206D02*
X82670Y-31225D01*
X82651Y-31243D01*
X82614Y-31253D01*
X82548Y-31253D01*
X82510Y-31243D01*
X82492Y-31225D01*
X82482Y-31206D01*
X82482Y-31168D01*
X82492Y-31150D01*
X82510Y-31131D01*
X82548Y-31121D01*
X82614Y-31121D01*
X82651Y-31131D01*
X82670Y-31150D01*
X82679Y-31168D01*
X82679Y-31206D01*
X82679Y-30934D02*
X82679Y-31046D01*
X82679Y-30990D02*
X82482Y-30990D01*
X82510Y-31009D01*
X82529Y-31028D01*
X82539Y-31046D01*
X82501Y-30859D02*
X82492Y-30849D01*
X82482Y-30831D01*
X82482Y-30784D01*
X82492Y-30765D01*
X82501Y-30756D01*
X82520Y-30746D01*
X82539Y-30746D01*
X82567Y-30756D01*
X82679Y-30868D01*
X82679Y-30746D01*
X82698Y-38318D02*
X82689Y-38337D01*
X82670Y-38356D01*
X82642Y-38384D01*
X82632Y-38403D01*
X82632Y-38421D01*
X82679Y-38412D02*
X82670Y-38431D01*
X82651Y-38450D01*
X82614Y-38459D01*
X82548Y-38459D01*
X82510Y-38450D01*
X82492Y-38431D01*
X82482Y-38412D01*
X82482Y-38375D01*
X82492Y-38356D01*
X82510Y-38337D01*
X82548Y-38328D01*
X82614Y-38328D01*
X82651Y-38337D01*
X82670Y-38356D01*
X82679Y-38375D01*
X82679Y-38412D01*
X82482Y-38159D02*
X82482Y-38196D01*
X82492Y-38215D01*
X82501Y-38224D01*
X82529Y-38243D01*
X82567Y-38253D01*
X82642Y-38253D01*
X82660Y-38243D01*
X82670Y-38234D01*
X82679Y-38215D01*
X82679Y-38178D01*
X82670Y-38159D01*
X82660Y-38149D01*
X82642Y-38140D01*
X82595Y-38140D01*
X82576Y-38149D01*
X82567Y-38159D01*
X82557Y-38178D01*
X82557Y-38215D01*
X82567Y-38234D01*
X82576Y-38243D01*
X82595Y-38253D01*
X82798Y-88712D02*
X82789Y-88731D01*
X82770Y-88750D01*
X82742Y-88778D01*
X82732Y-88797D01*
X82732Y-88815D01*
X82779Y-88806D02*
X82770Y-88825D01*
X82751Y-88843D01*
X82714Y-88853D01*
X82648Y-88853D01*
X82610Y-88843D01*
X82592Y-88825D01*
X82582Y-88806D01*
X82582Y-88768D01*
X82592Y-88750D01*
X82610Y-88731D01*
X82648Y-88721D01*
X82714Y-88721D01*
X82751Y-88731D01*
X82770Y-88750D01*
X82779Y-88768D01*
X82779Y-88806D01*
X82582Y-88656D02*
X82582Y-88534D01*
X82657Y-88599D01*
X82657Y-88571D01*
X82667Y-88553D01*
X82676Y-88543D01*
X82695Y-88534D01*
X82742Y-88534D01*
X82760Y-88543D01*
X82770Y-88553D01*
X82779Y-88571D01*
X82779Y-88628D01*
X82770Y-88646D01*
X82760Y-88656D01*
X82601Y-88459D02*
X82592Y-88449D01*
X82582Y-88431D01*
X82582Y-88384D01*
X82592Y-88365D01*
X82601Y-88356D01*
X82620Y-88346D01*
X82639Y-88346D01*
X82667Y-88356D01*
X82779Y-88468D01*
X82779Y-88346D01*
X82798Y-86712D02*
X82789Y-86731D01*
X82770Y-86750D01*
X82742Y-86778D01*
X82732Y-86797D01*
X82732Y-86815D01*
X82779Y-86806D02*
X82770Y-86825D01*
X82751Y-86843D01*
X82714Y-86853D01*
X82648Y-86853D01*
X82610Y-86843D01*
X82592Y-86825D01*
X82582Y-86806D01*
X82582Y-86768D01*
X82592Y-86750D01*
X82610Y-86731D01*
X82648Y-86721D01*
X82714Y-86721D01*
X82751Y-86731D01*
X82770Y-86750D01*
X82779Y-86768D01*
X82779Y-86806D01*
X82601Y-86646D02*
X82592Y-86637D01*
X82582Y-86618D01*
X82582Y-86571D01*
X82592Y-86553D01*
X82601Y-86543D01*
X82620Y-86534D01*
X82639Y-86534D01*
X82667Y-86543D01*
X82779Y-86656D01*
X82779Y-86534D01*
X82648Y-86365D02*
X82779Y-86365D01*
X82573Y-86412D02*
X82714Y-86459D01*
X82714Y-86337D01*
X82798Y-84712D02*
X82789Y-84731D01*
X82770Y-84750D01*
X82742Y-84778D01*
X82732Y-84797D01*
X82732Y-84815D01*
X82779Y-84806D02*
X82770Y-84825D01*
X82751Y-84843D01*
X82714Y-84853D01*
X82648Y-84853D01*
X82610Y-84843D01*
X82592Y-84825D01*
X82582Y-84806D01*
X82582Y-84768D01*
X82592Y-84750D01*
X82610Y-84731D01*
X82648Y-84721D01*
X82714Y-84721D01*
X82751Y-84731D01*
X82770Y-84750D01*
X82779Y-84768D01*
X82779Y-84806D01*
X82582Y-84656D02*
X82582Y-84534D01*
X82657Y-84599D01*
X82657Y-84571D01*
X82667Y-84553D01*
X82676Y-84543D01*
X82695Y-84534D01*
X82742Y-84534D01*
X82760Y-84543D01*
X82770Y-84553D01*
X82779Y-84571D01*
X82779Y-84628D01*
X82770Y-84646D01*
X82760Y-84656D01*
X82779Y-84346D02*
X82779Y-84459D01*
X82779Y-84403D02*
X82582Y-84403D01*
X82610Y-84421D01*
X82629Y-84440D01*
X82639Y-84459D01*
X82798Y-82712D02*
X82789Y-82731D01*
X82770Y-82750D01*
X82742Y-82778D01*
X82732Y-82797D01*
X82732Y-82815D01*
X82779Y-82806D02*
X82770Y-82825D01*
X82751Y-82843D01*
X82714Y-82853D01*
X82648Y-82853D01*
X82610Y-82843D01*
X82592Y-82825D01*
X82582Y-82806D01*
X82582Y-82768D01*
X82592Y-82750D01*
X82610Y-82731D01*
X82648Y-82721D01*
X82714Y-82721D01*
X82751Y-82731D01*
X82770Y-82750D01*
X82779Y-82768D01*
X82779Y-82806D01*
X82601Y-82646D02*
X82592Y-82637D01*
X82582Y-82618D01*
X82582Y-82571D01*
X82592Y-82553D01*
X82601Y-82543D01*
X82620Y-82534D01*
X82639Y-82534D01*
X82667Y-82543D01*
X82779Y-82656D01*
X82779Y-82534D01*
X82582Y-82468D02*
X82582Y-82346D01*
X82657Y-82412D01*
X82657Y-82384D01*
X82667Y-82365D01*
X82676Y-82356D01*
X82695Y-82346D01*
X82742Y-82346D01*
X82760Y-82356D01*
X82770Y-82365D01*
X82779Y-82384D01*
X82779Y-82440D01*
X82770Y-82459D01*
X82760Y-82468D01*
X82798Y-78912D02*
X82789Y-78931D01*
X82770Y-78950D01*
X82742Y-78978D01*
X82732Y-78997D01*
X82732Y-79015D01*
X82779Y-79006D02*
X82770Y-79025D01*
X82751Y-79043D01*
X82714Y-79053D01*
X82648Y-79053D01*
X82610Y-79043D01*
X82592Y-79025D01*
X82582Y-79006D01*
X82582Y-78968D01*
X82592Y-78950D01*
X82610Y-78931D01*
X82648Y-78921D01*
X82714Y-78921D01*
X82751Y-78931D01*
X82770Y-78950D01*
X82779Y-78968D01*
X82779Y-79006D01*
X82582Y-78856D02*
X82582Y-78734D01*
X82657Y-78799D01*
X82657Y-78771D01*
X82667Y-78753D01*
X82676Y-78743D01*
X82695Y-78734D01*
X82742Y-78734D01*
X82760Y-78743D01*
X82770Y-78753D01*
X82779Y-78771D01*
X82779Y-78828D01*
X82770Y-78846D01*
X82760Y-78856D01*
X82582Y-78612D02*
X82582Y-78593D01*
X82592Y-78574D01*
X82601Y-78565D01*
X82620Y-78556D01*
X82657Y-78546D01*
X82704Y-78546D01*
X82742Y-78556D01*
X82760Y-78565D01*
X82770Y-78574D01*
X82779Y-78593D01*
X82779Y-78612D01*
X82770Y-78631D01*
X82760Y-78640D01*
X82742Y-78649D01*
X82704Y-78659D01*
X82657Y-78659D01*
X82620Y-78649D01*
X82601Y-78640D01*
X82592Y-78631D01*
X82582Y-78612D01*
X82798Y-76912D02*
X82789Y-76931D01*
X82770Y-76950D01*
X82742Y-76978D01*
X82732Y-76997D01*
X82732Y-77015D01*
X82779Y-77006D02*
X82770Y-77025D01*
X82751Y-77043D01*
X82714Y-77053D01*
X82648Y-77053D01*
X82610Y-77043D01*
X82592Y-77025D01*
X82582Y-77006D01*
X82582Y-76968D01*
X82592Y-76950D01*
X82610Y-76931D01*
X82648Y-76921D01*
X82714Y-76921D01*
X82751Y-76931D01*
X82770Y-76950D01*
X82779Y-76968D01*
X82779Y-77006D01*
X82601Y-76846D02*
X82592Y-76837D01*
X82582Y-76818D01*
X82582Y-76771D01*
X82592Y-76753D01*
X82601Y-76743D01*
X82620Y-76734D01*
X82639Y-76734D01*
X82667Y-76743D01*
X82779Y-76856D01*
X82779Y-76734D01*
X82601Y-76659D02*
X82592Y-76649D01*
X82582Y-76631D01*
X82582Y-76584D01*
X82592Y-76565D01*
X82601Y-76556D01*
X82620Y-76546D01*
X82639Y-76546D01*
X82667Y-76556D01*
X82779Y-76668D01*
X82779Y-76546D01*
X82798Y-74912D02*
X82789Y-74931D01*
X82770Y-74950D01*
X82742Y-74978D01*
X82732Y-74997D01*
X82732Y-75015D01*
X82779Y-75006D02*
X82770Y-75025D01*
X82751Y-75043D01*
X82714Y-75053D01*
X82648Y-75053D01*
X82610Y-75043D01*
X82592Y-75025D01*
X82582Y-75006D01*
X82582Y-74968D01*
X82592Y-74950D01*
X82610Y-74931D01*
X82648Y-74921D01*
X82714Y-74921D01*
X82751Y-74931D01*
X82770Y-74950D01*
X82779Y-74968D01*
X82779Y-75006D01*
X82601Y-74846D02*
X82592Y-74837D01*
X82582Y-74818D01*
X82582Y-74771D01*
X82592Y-74753D01*
X82601Y-74743D01*
X82620Y-74734D01*
X82639Y-74734D01*
X82667Y-74743D01*
X82779Y-74856D01*
X82779Y-74734D01*
X82779Y-74640D02*
X82779Y-74603D01*
X82770Y-74584D01*
X82760Y-74574D01*
X82732Y-74556D01*
X82695Y-74546D01*
X82620Y-74546D01*
X82601Y-74556D01*
X82592Y-74565D01*
X82582Y-74584D01*
X82582Y-74621D01*
X82592Y-74640D01*
X82601Y-74649D01*
X82620Y-74659D01*
X82667Y-74659D01*
X82685Y-74649D01*
X82695Y-74640D01*
X82704Y-74621D01*
X82704Y-74584D01*
X82695Y-74565D01*
X82685Y-74556D01*
X82667Y-74546D01*
X82798Y-72912D02*
X82789Y-72931D01*
X82770Y-72950D01*
X82742Y-72978D01*
X82732Y-72997D01*
X82732Y-73015D01*
X82779Y-73006D02*
X82770Y-73025D01*
X82751Y-73043D01*
X82714Y-73053D01*
X82648Y-73053D01*
X82610Y-73043D01*
X82592Y-73025D01*
X82582Y-73006D01*
X82582Y-72968D01*
X82592Y-72950D01*
X82610Y-72931D01*
X82648Y-72921D01*
X82714Y-72921D01*
X82751Y-72931D01*
X82770Y-72950D01*
X82779Y-72968D01*
X82779Y-73006D01*
X82601Y-72846D02*
X82592Y-72837D01*
X82582Y-72818D01*
X82582Y-72771D01*
X82592Y-72753D01*
X82601Y-72743D01*
X82620Y-72734D01*
X82639Y-72734D01*
X82667Y-72743D01*
X82779Y-72856D01*
X82779Y-72734D01*
X82779Y-72546D02*
X82779Y-72659D01*
X82779Y-72603D02*
X82582Y-72603D01*
X82610Y-72621D01*
X82629Y-72640D01*
X82639Y-72659D01*
X82798Y-69412D02*
X82789Y-69431D01*
X82770Y-69450D01*
X82742Y-69478D01*
X82732Y-69497D01*
X82732Y-69515D01*
X82779Y-69506D02*
X82770Y-69525D01*
X82751Y-69543D01*
X82714Y-69553D01*
X82648Y-69553D01*
X82610Y-69543D01*
X82592Y-69525D01*
X82582Y-69506D01*
X82582Y-69468D01*
X82592Y-69450D01*
X82610Y-69431D01*
X82648Y-69421D01*
X82714Y-69421D01*
X82751Y-69431D01*
X82770Y-69450D01*
X82779Y-69468D01*
X82779Y-69506D01*
X82601Y-69346D02*
X82592Y-69337D01*
X82582Y-69318D01*
X82582Y-69271D01*
X82592Y-69253D01*
X82601Y-69243D01*
X82620Y-69234D01*
X82639Y-69234D01*
X82667Y-69243D01*
X82779Y-69356D01*
X82779Y-69234D01*
X82667Y-69121D02*
X82657Y-69140D01*
X82648Y-69149D01*
X82629Y-69159D01*
X82620Y-69159D01*
X82601Y-69149D01*
X82592Y-69140D01*
X82582Y-69121D01*
X82582Y-69084D01*
X82592Y-69065D01*
X82601Y-69056D01*
X82620Y-69046D01*
X82629Y-69046D01*
X82648Y-69056D01*
X82657Y-69065D01*
X82667Y-69084D01*
X82667Y-69121D01*
X82676Y-69140D01*
X82685Y-69149D01*
X82704Y-69159D01*
X82742Y-69159D01*
X82760Y-69149D01*
X82770Y-69140D01*
X82779Y-69121D01*
X82779Y-69084D01*
X82770Y-69065D01*
X82760Y-69056D01*
X82742Y-69046D01*
X82704Y-69046D01*
X82685Y-69056D01*
X82676Y-69065D01*
X82667Y-69084D01*
X82798Y-67412D02*
X82789Y-67431D01*
X82770Y-67450D01*
X82742Y-67478D01*
X82732Y-67497D01*
X82732Y-67515D01*
X82779Y-67506D02*
X82770Y-67525D01*
X82751Y-67543D01*
X82714Y-67553D01*
X82648Y-67553D01*
X82610Y-67543D01*
X82592Y-67525D01*
X82582Y-67506D01*
X82582Y-67468D01*
X82592Y-67450D01*
X82610Y-67431D01*
X82648Y-67421D01*
X82714Y-67421D01*
X82751Y-67431D01*
X82770Y-67450D01*
X82779Y-67468D01*
X82779Y-67506D01*
X82601Y-67346D02*
X82592Y-67337D01*
X82582Y-67318D01*
X82582Y-67271D01*
X82592Y-67253D01*
X82601Y-67243D01*
X82620Y-67234D01*
X82639Y-67234D01*
X82667Y-67243D01*
X82779Y-67356D01*
X82779Y-67234D01*
X82582Y-67112D02*
X82582Y-67093D01*
X82592Y-67074D01*
X82601Y-67065D01*
X82620Y-67056D01*
X82657Y-67046D01*
X82704Y-67046D01*
X82742Y-67056D01*
X82760Y-67065D01*
X82770Y-67074D01*
X82779Y-67093D01*
X82779Y-67112D01*
X82770Y-67131D01*
X82760Y-67140D01*
X82742Y-67149D01*
X82704Y-67159D01*
X82657Y-67159D01*
X82620Y-67149D01*
X82601Y-67140D01*
X82592Y-67131D01*
X82582Y-67112D01*
X82798Y-65412D02*
X82789Y-65431D01*
X82770Y-65450D01*
X82742Y-65478D01*
X82732Y-65497D01*
X82732Y-65515D01*
X82779Y-65506D02*
X82770Y-65525D01*
X82751Y-65543D01*
X82714Y-65553D01*
X82648Y-65553D01*
X82610Y-65543D01*
X82592Y-65525D01*
X82582Y-65506D01*
X82582Y-65468D01*
X82592Y-65450D01*
X82610Y-65431D01*
X82648Y-65421D01*
X82714Y-65421D01*
X82751Y-65431D01*
X82770Y-65450D01*
X82779Y-65468D01*
X82779Y-65506D01*
X82601Y-65346D02*
X82592Y-65337D01*
X82582Y-65318D01*
X82582Y-65271D01*
X82592Y-65253D01*
X82601Y-65243D01*
X82620Y-65234D01*
X82639Y-65234D01*
X82667Y-65243D01*
X82779Y-65356D01*
X82779Y-65234D01*
X82582Y-65168D02*
X82582Y-65037D01*
X82779Y-65121D01*
X82798Y-63412D02*
X82789Y-63431D01*
X82770Y-63450D01*
X82742Y-63478D01*
X82732Y-63497D01*
X82732Y-63515D01*
X82779Y-63506D02*
X82770Y-63525D01*
X82751Y-63543D01*
X82714Y-63553D01*
X82648Y-63553D01*
X82610Y-63543D01*
X82592Y-63525D01*
X82582Y-63506D01*
X82582Y-63468D01*
X82592Y-63450D01*
X82610Y-63431D01*
X82648Y-63421D01*
X82714Y-63421D01*
X82751Y-63431D01*
X82770Y-63450D01*
X82779Y-63468D01*
X82779Y-63506D01*
X82779Y-63234D02*
X82779Y-63346D01*
X82779Y-63290D02*
X82582Y-63290D01*
X82610Y-63309D01*
X82629Y-63328D01*
X82639Y-63346D01*
X82779Y-63140D02*
X82779Y-63103D01*
X82770Y-63084D01*
X82760Y-63074D01*
X82732Y-63056D01*
X82695Y-63046D01*
X82620Y-63046D01*
X82601Y-63056D01*
X82592Y-63065D01*
X82582Y-63084D01*
X82582Y-63121D01*
X82592Y-63140D01*
X82601Y-63149D01*
X82620Y-63159D01*
X82667Y-63159D01*
X82685Y-63149D01*
X82695Y-63140D01*
X82704Y-63121D01*
X82704Y-63084D01*
X82695Y-63065D01*
X82685Y-63056D01*
X82667Y-63046D01*
X82798Y-59812D02*
X82789Y-59831D01*
X82770Y-59850D01*
X82742Y-59878D01*
X82732Y-59897D01*
X82732Y-59915D01*
X82779Y-59906D02*
X82770Y-59925D01*
X82751Y-59943D01*
X82714Y-59953D01*
X82648Y-59953D01*
X82610Y-59943D01*
X82592Y-59925D01*
X82582Y-59906D01*
X82582Y-59868D01*
X82592Y-59850D01*
X82610Y-59831D01*
X82648Y-59821D01*
X82714Y-59821D01*
X82751Y-59831D01*
X82770Y-59850D01*
X82779Y-59868D01*
X82779Y-59906D01*
X82601Y-59746D02*
X82592Y-59737D01*
X82582Y-59718D01*
X82582Y-59671D01*
X82592Y-59653D01*
X82601Y-59643D01*
X82620Y-59634D01*
X82639Y-59634D01*
X82667Y-59643D01*
X82779Y-59756D01*
X82779Y-59634D01*
X82582Y-59465D02*
X82582Y-59503D01*
X82592Y-59521D01*
X82601Y-59531D01*
X82629Y-59549D01*
X82667Y-59559D01*
X82742Y-59559D01*
X82760Y-59549D01*
X82770Y-59540D01*
X82779Y-59521D01*
X82779Y-59484D01*
X82770Y-59465D01*
X82760Y-59456D01*
X82742Y-59446D01*
X82695Y-59446D01*
X82676Y-59456D01*
X82667Y-59465D01*
X82657Y-59484D01*
X82657Y-59521D01*
X82667Y-59540D01*
X82676Y-59549D01*
X82695Y-59559D01*
X82698Y-17418D02*
X82689Y-17437D01*
X82670Y-17456D01*
X82642Y-17484D01*
X82632Y-17503D01*
X82632Y-17521D01*
X82679Y-17512D02*
X82670Y-17531D01*
X82651Y-17550D01*
X82614Y-17559D01*
X82548Y-17559D01*
X82510Y-17550D01*
X82492Y-17531D01*
X82482Y-17512D01*
X82482Y-17475D01*
X82492Y-17456D01*
X82510Y-17437D01*
X82548Y-17428D01*
X82614Y-17428D01*
X82651Y-17437D01*
X82670Y-17456D01*
X82679Y-17475D01*
X82679Y-17512D01*
X82679Y-17334D02*
X82679Y-17296D01*
X82670Y-17278D01*
X82660Y-17268D01*
X82632Y-17249D01*
X82595Y-17240D01*
X82520Y-17240D01*
X82501Y-17249D01*
X82492Y-17259D01*
X82482Y-17278D01*
X82482Y-17315D01*
X82492Y-17334D01*
X82501Y-17343D01*
X82520Y-17353D01*
X82567Y-17353D01*
X82585Y-17343D01*
X82595Y-17334D01*
X82604Y-17315D01*
X82604Y-17278D01*
X82595Y-17259D01*
X82585Y-17249D01*
X82567Y-17240D01*
G54D13*
X75261Y-21330D02*
X75271Y-21338D01*
X75280Y-21364D01*
X75280Y-21381D01*
X75271Y-21407D01*
X75252Y-21424D01*
X75233Y-21432D01*
X75195Y-21441D01*
X75166Y-21441D01*
X75128Y-21432D01*
X75109Y-21424D01*
X75090Y-21407D01*
X75080Y-21381D01*
X75080Y-21364D01*
X75090Y-21338D01*
X75100Y-21330D01*
X75280Y-21158D02*
X75280Y-21261D01*
X75280Y-21210D02*
X75080Y-21210D01*
X75109Y-21227D01*
X75128Y-21244D01*
X75138Y-21261D01*
X75911Y-21244D02*
X75921Y-21252D01*
X75930Y-21278D01*
X75930Y-21295D01*
X75921Y-21321D01*
X75902Y-21338D01*
X75883Y-21347D01*
X75845Y-21355D01*
X75816Y-21355D01*
X75778Y-21347D01*
X75759Y-21338D01*
X75740Y-21321D01*
X75730Y-21295D01*
X75730Y-21278D01*
X75740Y-21252D01*
X75750Y-21244D01*
X74861Y-41280D02*
X74871Y-41288D01*
X74880Y-41314D01*
X74880Y-41331D01*
X74871Y-41357D01*
X74852Y-41374D01*
X74833Y-41382D01*
X74795Y-41391D01*
X74766Y-41391D01*
X74728Y-41382D01*
X74709Y-41374D01*
X74690Y-41357D01*
X74680Y-41331D01*
X74680Y-41314D01*
X74690Y-41288D01*
X74700Y-41280D01*
X74700Y-41211D02*
X74690Y-41202D01*
X74680Y-41185D01*
X74680Y-41142D01*
X74690Y-41125D01*
X74700Y-41117D01*
X74719Y-41108D01*
X74738Y-41108D01*
X74766Y-41117D01*
X74880Y-41220D01*
X74880Y-41108D01*
X75511Y-41194D02*
X75521Y-41202D01*
X75530Y-41228D01*
X75530Y-41245D01*
X75521Y-41271D01*
X75502Y-41288D01*
X75483Y-41297D01*
X75445Y-41305D01*
X75416Y-41305D01*
X75378Y-41297D01*
X75359Y-41288D01*
X75340Y-41271D01*
X75330Y-41245D01*
X75330Y-41228D01*
X75340Y-41202D01*
X75350Y-41194D01*
X75261Y-59730D02*
X75271Y-59738D01*
X75280Y-59764D01*
X75280Y-59781D01*
X75271Y-59807D01*
X75252Y-59824D01*
X75233Y-59832D01*
X75195Y-59841D01*
X75166Y-59841D01*
X75128Y-59832D01*
X75109Y-59824D01*
X75090Y-59807D01*
X75080Y-59781D01*
X75080Y-59764D01*
X75090Y-59738D01*
X75100Y-59730D01*
X75080Y-59670D02*
X75080Y-59558D01*
X75157Y-59618D01*
X75157Y-59592D01*
X75166Y-59575D01*
X75176Y-59567D01*
X75195Y-59558D01*
X75242Y-59558D01*
X75261Y-59567D01*
X75271Y-59575D01*
X75280Y-59592D01*
X75280Y-59644D01*
X75271Y-59661D01*
X75261Y-59670D01*
X74611Y-59644D02*
X74621Y-59652D01*
X74630Y-59678D01*
X74630Y-59695D01*
X74621Y-59721D01*
X74602Y-59738D01*
X74583Y-59747D01*
X74545Y-59755D01*
X74516Y-59755D01*
X74478Y-59747D01*
X74459Y-59738D01*
X74440Y-59721D01*
X74430Y-59695D01*
X74430Y-59678D01*
X74440Y-59652D01*
X74450Y-59644D01*
X75261Y-78830D02*
X75271Y-78838D01*
X75280Y-78864D01*
X75280Y-78881D01*
X75271Y-78907D01*
X75252Y-78924D01*
X75233Y-78932D01*
X75195Y-78941D01*
X75166Y-78941D01*
X75128Y-78932D01*
X75109Y-78924D01*
X75090Y-78907D01*
X75080Y-78881D01*
X75080Y-78864D01*
X75090Y-78838D01*
X75100Y-78830D01*
X75147Y-78675D02*
X75280Y-78675D01*
X75071Y-78718D02*
X75214Y-78761D01*
X75214Y-78650D01*
X74611Y-78744D02*
X74621Y-78752D01*
X74630Y-78778D01*
X74630Y-78795D01*
X74621Y-78821D01*
X74602Y-78838D01*
X74583Y-78847D01*
X74545Y-78855D01*
X74516Y-78855D01*
X74478Y-78847D01*
X74459Y-78838D01*
X74440Y-78821D01*
X74430Y-78795D01*
X74430Y-78778D01*
X74440Y-78752D01*
X74450Y-78744D01*
M02*
