M48
;DRILL file {Pcbnew (2013-07-07 BZR 4022)-stable} date 8/25/2014 11:10:58 PM
;FORMAT={-:-/ absolute / inch / decimal}
FMAT,2
INCH,TZ
T1C0.024
T2C0.025
T3C0.039
T4C0.043
T5C0.120
%
G90
G05
M72
T1
X8.2038Y-2.6854
X8.3416Y-2.6854
X9.1535Y-2.5236
X9.1535Y-2.6614
T2
X7.7735Y-2.3955
X7.775Y-2.941
X7.99Y-2.721
X8.2475Y-2.4435
X8.4325Y-2.547
X8.587Y-2.8195
X8.7695Y-2.5835
X8.792Y-2.4125
X8.965Y-2.801
T4
X8.5643Y-2.4067
X8.6643Y-2.4067
X8.9413Y-2.4067
X9.0413Y-2.4067
X9.374Y-2.6614
X9.374Y-2.7614
X9.374Y-2.9252
X9.374Y-3.0252
T5
X8.2274Y-2.936
X9.3465Y-2.4606
T3
X8.8386Y-2.7165G85X8.8386Y-2.7165
G05
T0
M30
