G04 (created by PCBNEW (2013-07-07 BZR 4022)-stable) date 8/25/2014 11:10:48 PM*
%MOIN*%
G04 Gerber Fmt 3.4, Leading zero omitted, Abs format*
%FSLAX34Y34*%
G01*
G70*
G90*
G04 APERTURE LIST*
%ADD10C,0.00590551*%
%ADD11C,0.0590551*%
%ADD12R,0.0590551X0.0590551*%
%ADD13R,0.110236X0.0944882*%
%ADD14C,0.0629921*%
%ADD15C,0.0708661*%
%ADD16C,0.16*%
%ADD17R,0.0708661X0.0708661*%
%ADD18R,0.055X0.035*%
%ADD19R,0.0748031X0.0748031*%
%ADD20O,0.015748X0.0334646*%
%ADD21O,0.0334646X0.015748*%
%ADD22R,0.0787402X0.125197*%
%ADD23R,0.0629921X0.188976*%
G04 APERTURE END LIST*
G54D10*
G54D11*
X82038Y-26854D03*
G54D12*
X83415Y-26854D03*
G54D13*
X78959Y-25019D03*
X76558Y-25019D03*
X76558Y-29428D03*
X78959Y-29428D03*
G54D14*
X76558Y-27224D03*
G54D15*
X78329Y-27224D03*
G54D11*
X91535Y-25236D03*
G54D12*
X91535Y-26614D03*
G54D16*
X93464Y-24606D03*
X82274Y-29360D03*
G54D17*
X93740Y-26614D03*
X93740Y-27614D03*
X93740Y-29251D03*
X93740Y-30251D03*
X85643Y-24067D03*
X86643Y-24067D03*
X89413Y-24067D03*
X90413Y-24067D03*
G54D18*
X89803Y-26437D03*
X89803Y-25687D03*
X85254Y-26049D03*
X85254Y-26799D03*
X86356Y-26049D03*
X86356Y-26799D03*
G54D19*
X88385Y-27165D03*
G54D20*
X88090Y-26584D03*
X88287Y-26584D03*
X88484Y-26584D03*
X88681Y-26584D03*
X88090Y-27746D03*
X88287Y-27746D03*
X88484Y-27746D03*
X88681Y-27746D03*
G54D21*
X88966Y-27460D03*
X88966Y-27263D03*
X88966Y-27066D03*
X88966Y-26870D03*
X87805Y-27460D03*
X87805Y-27263D03*
X87805Y-27066D03*
X87805Y-26870D03*
G54D10*
G36*
X90559Y-30674D02*
X88973Y-29087D01*
X89418Y-28642D01*
X91005Y-30229D01*
X90559Y-30674D01*
X90559Y-30674D01*
G37*
G36*
X91868Y-29366D02*
X90281Y-27779D01*
X90726Y-27333D01*
X92313Y-28920D01*
X91868Y-29366D01*
X91868Y-29366D01*
G37*
G54D22*
X81453Y-24475D03*
X83422Y-24475D03*
G54D23*
X86998Y-29595D03*
X84557Y-29595D03*
M02*
