G04 (created by PCBNEW (2013-07-07 BZR 4022)-stable) date 8/25/2014 11:10:48 PM*
%MOIN*%
G04 Gerber Fmt 3.4, Leading zero omitted, Abs format*
%FSLAX34Y34*%
G01*
G70*
G90*
G04 APERTURE LIST*
%ADD10C,0.00590551*%
%ADD11C,0.015*%
%ADD12C,0.0039*%
%ADD13C,0.008*%
%ADD14C,0.0043*%
G04 APERTURE END LIST*
G54D10*
X82589Y-26814D02*
X82451Y-26814D01*
X82845Y-26814D02*
X83002Y-26814D01*
X82805Y-26677D02*
X82805Y-26992D01*
X82569Y-26992D02*
G75*
G03X82589Y-26696I-137J157D01*
G74*
G01*
G54D11*
X74983Y-25452D02*
X74983Y-28996D01*
X74589Y-25452D02*
X74589Y-28996D01*
X74589Y-28996D02*
X80495Y-28996D01*
X80495Y-28996D02*
X80495Y-25452D01*
X80495Y-25452D02*
X74589Y-25452D01*
G54D10*
X91574Y-25787D02*
X91574Y-25649D01*
X91574Y-26043D02*
X91574Y-26200D01*
X91712Y-26003D02*
X91397Y-26003D01*
X91397Y-25767D02*
G75*
G03X91692Y-25787I157J137D01*
G74*
G01*
G54D11*
X94364Y-24606D02*
G75*
G03X94364Y-24606I-900J0D01*
G74*
G01*
X83174Y-29360D02*
G75*
G03X83174Y-29360I-900J0D01*
G74*
G01*
G54D12*
X90153Y-26712D02*
G75*
G03X90153Y-26712I-50J0D01*
G74*
G01*
X90103Y-26262D02*
X90103Y-26662D01*
X90103Y-26662D02*
X89503Y-26662D01*
X89503Y-26662D02*
X89503Y-26262D01*
X89503Y-25862D02*
X89503Y-25462D01*
X89503Y-25462D02*
X90103Y-25462D01*
X90103Y-25462D02*
X90103Y-25862D01*
X85004Y-25774D02*
G75*
G03X85004Y-25774I-50J0D01*
G74*
G01*
X84954Y-26224D02*
X84954Y-25824D01*
X84954Y-25824D02*
X85554Y-25824D01*
X85554Y-25824D02*
X85554Y-26224D01*
X85554Y-26624D02*
X85554Y-27024D01*
X85554Y-27024D02*
X84954Y-27024D01*
X84954Y-27024D02*
X84954Y-26624D01*
X86106Y-25774D02*
G75*
G03X86106Y-25774I-50J0D01*
G74*
G01*
X86056Y-26224D02*
X86056Y-25824D01*
X86056Y-25824D02*
X86656Y-25824D01*
X86656Y-25824D02*
X86656Y-26224D01*
X86656Y-26624D02*
X86656Y-27024D01*
X86656Y-27024D02*
X86056Y-27024D01*
X86056Y-27024D02*
X86056Y-26624D01*
G54D10*
X87735Y-26492D02*
G75*
G03X87735Y-26492I-52J0D01*
G74*
G01*
X86072Y-29595D02*
X86505Y-29595D01*
X85383Y-29614D02*
X85029Y-29614D01*
X85383Y-29634D02*
X86053Y-30205D01*
X86053Y-30205D02*
X86053Y-29044D01*
X86053Y-29044D02*
X85383Y-29595D01*
X85383Y-30205D02*
X85383Y-29024D01*
G54D13*
X77646Y-27690D02*
X77665Y-27709D01*
X77684Y-27766D01*
X77684Y-27804D01*
X77665Y-27861D01*
X77627Y-27899D01*
X77589Y-27918D01*
X77513Y-27937D01*
X77455Y-27937D01*
X77379Y-27918D01*
X77341Y-27899D01*
X77303Y-27861D01*
X77284Y-27804D01*
X77284Y-27766D01*
X77303Y-27709D01*
X77322Y-27690D01*
X77284Y-27442D02*
X77284Y-27366D01*
X77303Y-27328D01*
X77341Y-27290D01*
X77417Y-27270D01*
X77551Y-27270D01*
X77627Y-27290D01*
X77665Y-27328D01*
X77684Y-27366D01*
X77684Y-27442D01*
X77665Y-27480D01*
X77627Y-27518D01*
X77551Y-27537D01*
X77417Y-27537D01*
X77341Y-27518D01*
X77303Y-27480D01*
X77284Y-27442D01*
X77684Y-27099D02*
X77284Y-27099D01*
X77684Y-26870D01*
X77284Y-26870D01*
X77684Y-26470D02*
X77684Y-26699D01*
X77684Y-26585D02*
X77284Y-26585D01*
X77341Y-26623D01*
X77379Y-26661D01*
X77398Y-26699D01*
G54D14*
X89739Y-26095D02*
X89748Y-26105D01*
X89757Y-26133D01*
X89757Y-26152D01*
X89748Y-26180D01*
X89729Y-26199D01*
X89710Y-26208D01*
X89673Y-26217D01*
X89645Y-26217D01*
X89607Y-26208D01*
X89589Y-26199D01*
X89570Y-26180D01*
X89560Y-26152D01*
X89560Y-26133D01*
X89570Y-26105D01*
X89579Y-26095D01*
X89560Y-26030D02*
X89560Y-25908D01*
X89635Y-25973D01*
X89635Y-25945D01*
X89645Y-25926D01*
X89654Y-25917D01*
X89673Y-25908D01*
X89720Y-25908D01*
X89739Y-25917D01*
X89748Y-25926D01*
X89757Y-25945D01*
X89757Y-26002D01*
X89748Y-26020D01*
X89739Y-26030D01*
X85440Y-26457D02*
X85449Y-26467D01*
X85459Y-26495D01*
X85459Y-26514D01*
X85449Y-26542D01*
X85431Y-26561D01*
X85412Y-26570D01*
X85374Y-26579D01*
X85346Y-26579D01*
X85309Y-26570D01*
X85290Y-26561D01*
X85271Y-26542D01*
X85262Y-26514D01*
X85262Y-26495D01*
X85271Y-26467D01*
X85280Y-26457D01*
X85280Y-26382D02*
X85271Y-26373D01*
X85262Y-26354D01*
X85262Y-26307D01*
X85271Y-26288D01*
X85280Y-26279D01*
X85299Y-26270D01*
X85318Y-26270D01*
X85346Y-26279D01*
X85459Y-26392D01*
X85459Y-26270D01*
X86542Y-26457D02*
X86551Y-26467D01*
X86561Y-26495D01*
X86561Y-26514D01*
X86551Y-26542D01*
X86533Y-26561D01*
X86514Y-26570D01*
X86476Y-26579D01*
X86448Y-26579D01*
X86411Y-26570D01*
X86392Y-26561D01*
X86373Y-26542D01*
X86364Y-26514D01*
X86364Y-26495D01*
X86373Y-26467D01*
X86382Y-26457D01*
X86364Y-26279D02*
X86364Y-26373D01*
X86457Y-26382D01*
X86448Y-26373D01*
X86439Y-26354D01*
X86439Y-26307D01*
X86448Y-26288D01*
X86457Y-26279D01*
X86476Y-26270D01*
X86523Y-26270D01*
X86542Y-26279D01*
X86551Y-26288D01*
X86561Y-26307D01*
X86561Y-26354D01*
X86551Y-26373D01*
X86542Y-26382D01*
G54D10*
X87889Y-28308D02*
X87889Y-28627D01*
X87907Y-28665D01*
X87926Y-28683D01*
X87964Y-28702D01*
X88038Y-28702D01*
X88076Y-28683D01*
X88095Y-28665D01*
X88113Y-28627D01*
X88113Y-28308D01*
X88263Y-28308D02*
X88507Y-28308D01*
X88376Y-28458D01*
X88432Y-28458D01*
X88470Y-28477D01*
X88488Y-28496D01*
X88507Y-28533D01*
X88507Y-28627D01*
X88488Y-28665D01*
X88470Y-28683D01*
X88432Y-28702D01*
X88320Y-28702D01*
X88282Y-28683D01*
X88263Y-28665D01*
M02*
