G04 (created by PCBNEW (2013-07-07 BZR 4022)-stable) date 8/25/2014 9:50:12 PM*
%MOIN*%
G04 Gerber Fmt 3.4, Leading zero omitted, Abs format*
%FSLAX34Y34*%
G01*
G70*
G90*
G04 APERTURE LIST*
%ADD10C,0.00590551*%
%ADD11C,0.0590551*%
%ADD12R,0.0590551X0.0590551*%
%ADD13C,0.16*%
%ADD14R,0.1378X0.1378*%
%ADD15R,0.0708661X0.0708661*%
%ADD16R,0.055X0.035*%
%ADD17O,0.011811X0.0295276*%
%ADD18O,0.0295276X0.011811*%
%ADD19R,0.125197X0.0787402*%
%ADD20R,0.0629921X0.188976*%
%ADD21C,0.01*%
%ADD22C,0.05*%
G04 APERTURE END LIST*
G54D10*
G54D11*
X91535Y-25236D03*
G54D12*
X91535Y-26614D03*
G54D13*
X93464Y-24606D03*
X77125Y-29527D03*
G54D14*
X80511Y-25511D03*
X78149Y-25511D03*
X79330Y-27361D03*
G54D15*
X93740Y-26614D03*
X93740Y-27614D03*
X93740Y-29251D03*
X93740Y-30251D03*
X85643Y-24067D03*
X86643Y-24067D03*
X89413Y-24067D03*
X90413Y-24067D03*
G54D16*
X89803Y-26437D03*
X89803Y-25687D03*
X85254Y-26049D03*
X85254Y-26799D03*
X86356Y-26049D03*
X86356Y-26799D03*
G54D15*
X88385Y-27165D03*
G54D17*
X88090Y-26584D03*
X88287Y-26584D03*
X88484Y-26584D03*
X88681Y-26584D03*
X88090Y-27746D03*
X88287Y-27746D03*
X88484Y-27746D03*
X88681Y-27746D03*
G54D18*
X88966Y-27460D03*
X88966Y-27263D03*
X88966Y-27066D03*
X88966Y-26870D03*
X87805Y-27460D03*
X87805Y-27263D03*
X87805Y-27066D03*
X87805Y-26870D03*
G54D10*
G36*
X90559Y-30674D02*
X88973Y-29087D01*
X89418Y-28642D01*
X91005Y-30229D01*
X90559Y-30674D01*
X90559Y-30674D01*
G37*
G36*
X91868Y-29366D02*
X90281Y-27779D01*
X90726Y-27333D01*
X92313Y-28920D01*
X91868Y-29366D01*
X91868Y-29366D01*
G37*
G54D19*
X83105Y-24095D03*
X83105Y-26064D03*
G54D20*
X79685Y-29803D03*
X82125Y-29803D03*
G54D11*
X86220Y-29803D03*
G54D12*
X84842Y-29803D03*
G54D21*
X87805Y-27066D02*
X87421Y-27066D01*
X86994Y-26049D02*
X86356Y-26049D01*
X87165Y-26220D02*
X86994Y-26049D01*
X87165Y-26811D02*
X87165Y-26220D01*
X87421Y-27066D02*
X87165Y-26811D01*
G54D22*
X85254Y-26049D02*
X83119Y-26049D01*
X83119Y-26049D02*
X83105Y-26064D01*
X85254Y-26049D02*
X86356Y-26049D01*
X85643Y-24067D02*
X85643Y-25196D01*
X85643Y-25196D02*
X85629Y-25196D01*
X83105Y-26064D02*
X83778Y-26064D01*
X83778Y-26064D02*
X84645Y-25196D01*
X84645Y-25196D02*
X85629Y-25196D01*
X88283Y-25196D02*
X89413Y-24067D01*
X85629Y-25196D02*
X88283Y-25196D01*
X83105Y-28140D02*
X83105Y-26064D01*
X84833Y-29812D02*
X83105Y-28140D01*
X82125Y-29803D02*
X84833Y-29812D01*
G54D21*
X83105Y-27165D02*
X83105Y-26064D01*
X93740Y-26614D02*
X92598Y-26614D01*
X92598Y-26614D02*
X91535Y-26614D01*
X89989Y-29658D02*
X91272Y-29658D01*
X93070Y-29251D02*
X93740Y-29251D01*
X92047Y-30275D02*
X93070Y-29251D01*
X91889Y-30275D02*
X92047Y-30275D01*
X91272Y-29658D02*
X91889Y-30275D01*
X91535Y-26614D02*
X92086Y-27598D01*
X92086Y-27598D02*
X93740Y-29251D01*
X88090Y-27746D02*
X88090Y-29468D01*
X88280Y-29658D02*
X89989Y-29658D01*
X88090Y-29468D02*
X88280Y-29658D01*
X87185Y-27460D02*
X86476Y-27460D01*
X86356Y-27340D02*
X86356Y-26799D01*
X86476Y-27460D02*
X86356Y-27340D01*
X88287Y-26043D02*
X88444Y-26043D01*
X90413Y-24823D02*
X90413Y-24067D01*
X90236Y-25000D02*
X90413Y-24823D01*
X89488Y-25000D02*
X90236Y-25000D01*
X88444Y-26043D02*
X89488Y-25000D01*
X87805Y-27460D02*
X87185Y-27460D01*
X87185Y-27460D02*
X87165Y-27480D01*
X88287Y-26584D02*
X88287Y-26043D01*
X88287Y-26043D02*
X88307Y-26023D01*
X88966Y-27263D02*
X89547Y-27263D01*
X89803Y-27007D02*
X89803Y-26437D01*
X89547Y-27263D02*
X89803Y-27007D01*
X89803Y-25687D02*
X90569Y-25687D01*
X90944Y-27997D02*
X91297Y-28349D01*
X90944Y-26062D02*
X90944Y-27997D01*
X90569Y-25687D02*
X90944Y-26062D01*
X88966Y-26870D02*
X88966Y-26190D01*
X89469Y-25687D02*
X89803Y-25687D01*
X88966Y-26190D02*
X89469Y-25687D01*
G54D22*
X83105Y-24095D02*
X82345Y-24095D01*
X82345Y-24095D02*
X80511Y-25511D01*
G54D10*
G36*
X85143Y-24696D02*
X84645Y-24696D01*
X84454Y-24734D01*
X84292Y-24843D01*
X84292Y-24843D01*
X83714Y-25420D01*
X83682Y-25420D01*
X82430Y-25420D01*
X82338Y-25458D01*
X82267Y-25528D01*
X82229Y-25620D01*
X82229Y-25719D01*
X82229Y-26507D01*
X82267Y-26599D01*
X82337Y-26669D01*
X82429Y-26707D01*
X82529Y-26707D01*
X82605Y-26707D01*
X82605Y-28140D01*
X82606Y-28144D01*
X82605Y-28147D01*
X82625Y-28239D01*
X82643Y-28331D01*
X82645Y-28334D01*
X82646Y-28338D01*
X82699Y-28415D01*
X82752Y-28493D01*
X82755Y-28495D01*
X82757Y-28499D01*
X83592Y-29308D01*
X82690Y-29305D01*
X82690Y-28808D01*
X82653Y-28716D01*
X82582Y-28646D01*
X82490Y-28608D01*
X82391Y-28608D01*
X81761Y-28608D01*
X81669Y-28646D01*
X81599Y-28716D01*
X81561Y-28808D01*
X81560Y-28907D01*
X81560Y-30753D01*
X80249Y-30753D01*
X80250Y-30698D01*
X80250Y-28907D01*
X80249Y-28808D01*
X80211Y-28716D01*
X80141Y-28646D01*
X80049Y-28608D01*
X79797Y-28608D01*
X79735Y-28670D01*
X79735Y-29753D01*
X80187Y-29753D01*
X80250Y-29690D01*
X80250Y-28907D01*
X80250Y-30698D01*
X80250Y-29915D01*
X80187Y-29853D01*
X79735Y-29853D01*
X79735Y-29861D01*
X79635Y-29861D01*
X79635Y-29853D01*
X79635Y-29753D01*
X79635Y-28670D01*
X79572Y-28608D01*
X79320Y-28608D01*
X79228Y-28646D01*
X79158Y-28716D01*
X79120Y-28808D01*
X79120Y-28907D01*
X79120Y-29690D01*
X79182Y-29753D01*
X79635Y-29753D01*
X79635Y-29853D01*
X79182Y-29853D01*
X79120Y-29915D01*
X79120Y-30698D01*
X79120Y-30753D01*
X78176Y-30753D01*
X78176Y-29319D01*
X78099Y-29134D01*
X78099Y-26388D01*
X78099Y-25561D01*
X78099Y-25461D01*
X78099Y-24635D01*
X78037Y-24572D01*
X77411Y-24572D01*
X77319Y-24610D01*
X77249Y-24681D01*
X77210Y-24772D01*
X77210Y-24872D01*
X77210Y-25399D01*
X77273Y-25461D01*
X78099Y-25461D01*
X78099Y-25561D01*
X77273Y-25561D01*
X77210Y-25624D01*
X77210Y-26151D01*
X77210Y-26250D01*
X77249Y-26342D01*
X77319Y-26412D01*
X77411Y-26450D01*
X78037Y-26450D01*
X78099Y-26388D01*
X78099Y-29134D01*
X78016Y-28933D01*
X77721Y-28637D01*
X77335Y-28477D01*
X76918Y-28477D01*
X76531Y-28636D01*
X76236Y-28932D01*
X76076Y-29317D01*
X76075Y-29735D01*
X76235Y-30121D01*
X76530Y-30417D01*
X76916Y-30577D01*
X77333Y-30577D01*
X77719Y-30418D01*
X78015Y-30123D01*
X78175Y-29737D01*
X78176Y-29319D01*
X78176Y-30753D01*
X75545Y-30753D01*
X75545Y-23694D01*
X82048Y-23694D01*
X82039Y-23699D01*
X80909Y-24572D01*
X79773Y-24572D01*
X79681Y-24610D01*
X79611Y-24681D01*
X79572Y-24772D01*
X79572Y-24872D01*
X79572Y-26250D01*
X79610Y-26342D01*
X79681Y-26412D01*
X79705Y-26422D01*
X78956Y-26422D01*
X78980Y-26412D01*
X79050Y-26342D01*
X79088Y-26250D01*
X79088Y-26151D01*
X79088Y-24872D01*
X79088Y-24772D01*
X79050Y-24681D01*
X78980Y-24610D01*
X78888Y-24572D01*
X78262Y-24572D01*
X78199Y-24635D01*
X78199Y-25461D01*
X79026Y-25461D01*
X79088Y-25399D01*
X79088Y-24872D01*
X79088Y-26151D01*
X79088Y-25624D01*
X79026Y-25561D01*
X78199Y-25561D01*
X78199Y-26388D01*
X78262Y-26450D01*
X78524Y-26450D01*
X78500Y-26460D01*
X78430Y-26531D01*
X78391Y-26622D01*
X78391Y-26722D01*
X78391Y-28100D01*
X78429Y-28192D01*
X78500Y-28262D01*
X78591Y-28300D01*
X78691Y-28300D01*
X80069Y-28300D01*
X80161Y-28262D01*
X80231Y-28192D01*
X80269Y-28100D01*
X80269Y-28001D01*
X80269Y-26623D01*
X80231Y-26531D01*
X80161Y-26460D01*
X80137Y-26450D01*
X81250Y-26450D01*
X81342Y-26412D01*
X81412Y-26342D01*
X81450Y-26250D01*
X81450Y-26151D01*
X81450Y-25417D01*
X82364Y-24712D01*
X82429Y-24739D01*
X82529Y-24739D01*
X83781Y-24739D01*
X83873Y-24701D01*
X83943Y-24631D01*
X83981Y-24539D01*
X83981Y-24439D01*
X83981Y-23694D01*
X85038Y-23694D01*
X85038Y-23762D01*
X85038Y-24470D01*
X85076Y-24562D01*
X85143Y-24629D01*
X85143Y-24696D01*
X85143Y-24696D01*
G37*
G54D21*
X85143Y-24696D02*
X84645Y-24696D01*
X84454Y-24734D01*
X84292Y-24843D01*
X84292Y-24843D01*
X83714Y-25420D01*
X83682Y-25420D01*
X82430Y-25420D01*
X82338Y-25458D01*
X82267Y-25528D01*
X82229Y-25620D01*
X82229Y-25719D01*
X82229Y-26507D01*
X82267Y-26599D01*
X82337Y-26669D01*
X82429Y-26707D01*
X82529Y-26707D01*
X82605Y-26707D01*
X82605Y-28140D01*
X82606Y-28144D01*
X82605Y-28147D01*
X82625Y-28239D01*
X82643Y-28331D01*
X82645Y-28334D01*
X82646Y-28338D01*
X82699Y-28415D01*
X82752Y-28493D01*
X82755Y-28495D01*
X82757Y-28499D01*
X83592Y-29308D01*
X82690Y-29305D01*
X82690Y-28808D01*
X82653Y-28716D01*
X82582Y-28646D01*
X82490Y-28608D01*
X82391Y-28608D01*
X81761Y-28608D01*
X81669Y-28646D01*
X81599Y-28716D01*
X81561Y-28808D01*
X81560Y-28907D01*
X81560Y-30753D01*
X80249Y-30753D01*
X80250Y-30698D01*
X80250Y-28907D01*
X80249Y-28808D01*
X80211Y-28716D01*
X80141Y-28646D01*
X80049Y-28608D01*
X79797Y-28608D01*
X79735Y-28670D01*
X79735Y-29753D01*
X80187Y-29753D01*
X80250Y-29690D01*
X80250Y-28907D01*
X80250Y-30698D01*
X80250Y-29915D01*
X80187Y-29853D01*
X79735Y-29853D01*
X79735Y-29861D01*
X79635Y-29861D01*
X79635Y-29853D01*
X79635Y-29753D01*
X79635Y-28670D01*
X79572Y-28608D01*
X79320Y-28608D01*
X79228Y-28646D01*
X79158Y-28716D01*
X79120Y-28808D01*
X79120Y-28907D01*
X79120Y-29690D01*
X79182Y-29753D01*
X79635Y-29753D01*
X79635Y-29853D01*
X79182Y-29853D01*
X79120Y-29915D01*
X79120Y-30698D01*
X79120Y-30753D01*
X78176Y-30753D01*
X78176Y-29319D01*
X78099Y-29134D01*
X78099Y-26388D01*
X78099Y-25561D01*
X78099Y-25461D01*
X78099Y-24635D01*
X78037Y-24572D01*
X77411Y-24572D01*
X77319Y-24610D01*
X77249Y-24681D01*
X77210Y-24772D01*
X77210Y-24872D01*
X77210Y-25399D01*
X77273Y-25461D01*
X78099Y-25461D01*
X78099Y-25561D01*
X77273Y-25561D01*
X77210Y-25624D01*
X77210Y-26151D01*
X77210Y-26250D01*
X77249Y-26342D01*
X77319Y-26412D01*
X77411Y-26450D01*
X78037Y-26450D01*
X78099Y-26388D01*
X78099Y-29134D01*
X78016Y-28933D01*
X77721Y-28637D01*
X77335Y-28477D01*
X76918Y-28477D01*
X76531Y-28636D01*
X76236Y-28932D01*
X76076Y-29317D01*
X76075Y-29735D01*
X76235Y-30121D01*
X76530Y-30417D01*
X76916Y-30577D01*
X77333Y-30577D01*
X77719Y-30418D01*
X78015Y-30123D01*
X78175Y-29737D01*
X78176Y-29319D01*
X78176Y-30753D01*
X75545Y-30753D01*
X75545Y-23694D01*
X82048Y-23694D01*
X82039Y-23699D01*
X80909Y-24572D01*
X79773Y-24572D01*
X79681Y-24610D01*
X79611Y-24681D01*
X79572Y-24772D01*
X79572Y-24872D01*
X79572Y-26250D01*
X79610Y-26342D01*
X79681Y-26412D01*
X79705Y-26422D01*
X78956Y-26422D01*
X78980Y-26412D01*
X79050Y-26342D01*
X79088Y-26250D01*
X79088Y-26151D01*
X79088Y-24872D01*
X79088Y-24772D01*
X79050Y-24681D01*
X78980Y-24610D01*
X78888Y-24572D01*
X78262Y-24572D01*
X78199Y-24635D01*
X78199Y-25461D01*
X79026Y-25461D01*
X79088Y-25399D01*
X79088Y-24872D01*
X79088Y-26151D01*
X79088Y-25624D01*
X79026Y-25561D01*
X78199Y-25561D01*
X78199Y-26388D01*
X78262Y-26450D01*
X78524Y-26450D01*
X78500Y-26460D01*
X78430Y-26531D01*
X78391Y-26622D01*
X78391Y-26722D01*
X78391Y-28100D01*
X78429Y-28192D01*
X78500Y-28262D01*
X78591Y-28300D01*
X78691Y-28300D01*
X80069Y-28300D01*
X80161Y-28262D01*
X80231Y-28192D01*
X80269Y-28100D01*
X80269Y-28001D01*
X80269Y-26623D01*
X80231Y-26531D01*
X80161Y-26460D01*
X80137Y-26450D01*
X81250Y-26450D01*
X81342Y-26412D01*
X81412Y-26342D01*
X81450Y-26250D01*
X81450Y-26151D01*
X81450Y-25417D01*
X82364Y-24712D01*
X82429Y-24739D01*
X82529Y-24739D01*
X83781Y-24739D01*
X83873Y-24701D01*
X83943Y-24631D01*
X83981Y-24539D01*
X83981Y-24439D01*
X83981Y-23694D01*
X85038Y-23694D01*
X85038Y-23762D01*
X85038Y-24470D01*
X85076Y-24562D01*
X85143Y-24629D01*
X85143Y-24696D01*
G54D10*
G36*
X88580Y-27165D02*
X88561Y-27263D01*
X88580Y-27359D01*
X88484Y-27340D01*
X88385Y-27360D01*
X88287Y-27340D01*
X88191Y-27359D01*
X88210Y-27263D01*
X88190Y-27165D01*
X88210Y-27066D01*
X88191Y-26970D01*
X88192Y-26969D01*
X88210Y-26972D01*
X88224Y-26956D01*
X88287Y-26914D01*
X88350Y-26956D01*
X88364Y-26972D01*
X88382Y-26969D01*
X88484Y-26990D01*
X88580Y-26970D01*
X88561Y-27066D01*
X88580Y-27165D01*
X88580Y-27165D01*
G37*
G54D21*
X88580Y-27165D02*
X88561Y-27263D01*
X88580Y-27359D01*
X88484Y-27340D01*
X88385Y-27360D01*
X88287Y-27340D01*
X88191Y-27359D01*
X88210Y-27263D01*
X88190Y-27165D01*
X88210Y-27066D01*
X88191Y-26970D01*
X88192Y-26969D01*
X88210Y-26972D01*
X88224Y-26956D01*
X88287Y-26914D01*
X88350Y-26956D01*
X88364Y-26972D01*
X88382Y-26969D01*
X88484Y-26990D01*
X88580Y-26970D01*
X88561Y-27066D01*
X88580Y-27165D01*
G54D10*
G36*
X88808Y-23694D02*
X88808Y-23762D01*
X88808Y-23964D01*
X88076Y-24696D01*
X87247Y-24696D01*
X87247Y-24470D01*
X87247Y-24179D01*
X87184Y-24117D01*
X86693Y-24117D01*
X86693Y-24608D01*
X86755Y-24671D01*
X86947Y-24671D01*
X87047Y-24671D01*
X87139Y-24633D01*
X87209Y-24562D01*
X87247Y-24470D01*
X87247Y-24696D01*
X86143Y-24696D01*
X86143Y-24629D01*
X86146Y-24633D01*
X86238Y-24671D01*
X86338Y-24671D01*
X86530Y-24671D01*
X86593Y-24608D01*
X86593Y-24117D01*
X86585Y-24117D01*
X86585Y-24017D01*
X86593Y-24017D01*
X86593Y-24009D01*
X86693Y-24009D01*
X86693Y-24017D01*
X87184Y-24017D01*
X87247Y-23954D01*
X87247Y-23694D01*
X88808Y-23694D01*
X88808Y-23694D01*
G37*
G54D21*
X88808Y-23694D02*
X88808Y-23762D01*
X88808Y-23964D01*
X88076Y-24696D01*
X87247Y-24696D01*
X87247Y-24470D01*
X87247Y-24179D01*
X87184Y-24117D01*
X86693Y-24117D01*
X86693Y-24608D01*
X86755Y-24671D01*
X86947Y-24671D01*
X87047Y-24671D01*
X87139Y-24633D01*
X87209Y-24562D01*
X87247Y-24470D01*
X87247Y-24696D01*
X86143Y-24696D01*
X86143Y-24629D01*
X86146Y-24633D01*
X86238Y-24671D01*
X86338Y-24671D01*
X86530Y-24671D01*
X86593Y-24608D01*
X86593Y-24117D01*
X86585Y-24117D01*
X86585Y-24017D01*
X86593Y-24017D01*
X86593Y-24009D01*
X86693Y-24009D01*
X86693Y-24017D01*
X87184Y-24017D01*
X87247Y-23954D01*
X87247Y-23694D01*
X88808Y-23694D01*
G54D10*
G36*
X90285Y-30753D02*
X86881Y-30753D01*
X86770Y-30753D01*
X86770Y-29883D01*
X86759Y-29667D01*
X86697Y-29518D01*
X86602Y-29491D01*
X86532Y-29562D01*
X86532Y-29420D01*
X86505Y-29325D01*
X86306Y-29254D01*
X86306Y-27162D01*
X86306Y-26849D01*
X85893Y-26849D01*
X85831Y-26912D01*
X85831Y-27024D01*
X85869Y-27116D01*
X85939Y-27186D01*
X86031Y-27224D01*
X86130Y-27225D01*
X86243Y-27224D01*
X86306Y-27162D01*
X86306Y-29254D01*
X86301Y-29253D01*
X86084Y-29264D01*
X85935Y-29325D01*
X85908Y-29420D01*
X86220Y-29732D01*
X86532Y-29420D01*
X86532Y-29562D01*
X86291Y-29803D01*
X86602Y-30114D01*
X86697Y-30088D01*
X86770Y-29883D01*
X86770Y-30753D01*
X86532Y-30753D01*
X86532Y-30185D01*
X86220Y-29873D01*
X86149Y-29944D01*
X86149Y-29803D01*
X85837Y-29491D01*
X85779Y-29507D01*
X85779Y-27024D01*
X85779Y-26912D01*
X85716Y-26849D01*
X85304Y-26849D01*
X85304Y-27162D01*
X85366Y-27224D01*
X85479Y-27225D01*
X85579Y-27224D01*
X85671Y-27186D01*
X85741Y-27116D01*
X85779Y-27024D01*
X85779Y-29507D01*
X85743Y-29518D01*
X85670Y-29722D01*
X85681Y-29939D01*
X85743Y-30088D01*
X85837Y-30114D01*
X86149Y-29803D01*
X86149Y-29944D01*
X85908Y-30185D01*
X85935Y-30280D01*
X86139Y-30353D01*
X86356Y-30342D01*
X86505Y-30280D01*
X86532Y-30185D01*
X86532Y-30753D01*
X82690Y-30753D01*
X82690Y-30698D01*
X82690Y-30305D01*
X84407Y-30311D01*
X84497Y-30348D01*
X84596Y-30348D01*
X85187Y-30348D01*
X85279Y-30310D01*
X85349Y-30240D01*
X85387Y-30148D01*
X85387Y-30048D01*
X85387Y-29458D01*
X85349Y-29366D01*
X85279Y-29296D01*
X85204Y-29264D01*
X85204Y-27162D01*
X85204Y-26849D01*
X84791Y-26849D01*
X84729Y-26912D01*
X84729Y-27024D01*
X84767Y-27116D01*
X84837Y-27186D01*
X84929Y-27224D01*
X85028Y-27225D01*
X85141Y-27224D01*
X85204Y-27162D01*
X85204Y-29264D01*
X85187Y-29257D01*
X85088Y-29257D01*
X84977Y-29257D01*
X83605Y-27928D01*
X83605Y-26707D01*
X83781Y-26707D01*
X83873Y-26669D01*
X83943Y-26599D01*
X83964Y-26549D01*
X84739Y-26549D01*
X84729Y-26575D01*
X84729Y-26687D01*
X84791Y-26749D01*
X85204Y-26749D01*
X85204Y-26742D01*
X85304Y-26742D01*
X85304Y-26749D01*
X85716Y-26749D01*
X85779Y-26687D01*
X85779Y-26575D01*
X85768Y-26549D01*
X85841Y-26549D01*
X85831Y-26575D01*
X85831Y-26687D01*
X85893Y-26749D01*
X86306Y-26749D01*
X86306Y-26742D01*
X86406Y-26742D01*
X86406Y-26749D01*
X86414Y-26749D01*
X86414Y-26849D01*
X86406Y-26849D01*
X86406Y-27162D01*
X86468Y-27224D01*
X86581Y-27225D01*
X86681Y-27224D01*
X86773Y-27186D01*
X86843Y-27116D01*
X86881Y-27024D01*
X86881Y-26912D01*
X86818Y-26849D01*
X86873Y-26849D01*
X86888Y-26925D01*
X86953Y-27023D01*
X87209Y-27279D01*
X87209Y-27279D01*
X87306Y-27344D01*
X87419Y-27366D01*
X87417Y-27383D01*
X87433Y-27397D01*
X87490Y-27482D01*
X87501Y-27490D01*
X87471Y-27490D01*
X87417Y-27537D01*
X87422Y-27571D01*
X87486Y-27675D01*
X87586Y-27746D01*
X87705Y-27774D01*
X87755Y-27710D01*
X87755Y-27769D01*
X87781Y-27769D01*
X87781Y-27842D01*
X87790Y-27887D01*
X87790Y-29468D01*
X87813Y-29583D01*
X87878Y-29680D01*
X88068Y-29870D01*
X88068Y-29870D01*
X88165Y-29935D01*
X88280Y-29958D01*
X89490Y-29958D01*
X90285Y-30753D01*
X90285Y-30753D01*
G37*
G54D21*
X90285Y-30753D02*
X86881Y-30753D01*
X86770Y-30753D01*
X86770Y-29883D01*
X86759Y-29667D01*
X86697Y-29518D01*
X86602Y-29491D01*
X86532Y-29562D01*
X86532Y-29420D01*
X86505Y-29325D01*
X86306Y-29254D01*
X86306Y-27162D01*
X86306Y-26849D01*
X85893Y-26849D01*
X85831Y-26912D01*
X85831Y-27024D01*
X85869Y-27116D01*
X85939Y-27186D01*
X86031Y-27224D01*
X86130Y-27225D01*
X86243Y-27224D01*
X86306Y-27162D01*
X86306Y-29254D01*
X86301Y-29253D01*
X86084Y-29264D01*
X85935Y-29325D01*
X85908Y-29420D01*
X86220Y-29732D01*
X86532Y-29420D01*
X86532Y-29562D01*
X86291Y-29803D01*
X86602Y-30114D01*
X86697Y-30088D01*
X86770Y-29883D01*
X86770Y-30753D01*
X86532Y-30753D01*
X86532Y-30185D01*
X86220Y-29873D01*
X86149Y-29944D01*
X86149Y-29803D01*
X85837Y-29491D01*
X85779Y-29507D01*
X85779Y-27024D01*
X85779Y-26912D01*
X85716Y-26849D01*
X85304Y-26849D01*
X85304Y-27162D01*
X85366Y-27224D01*
X85479Y-27225D01*
X85579Y-27224D01*
X85671Y-27186D01*
X85741Y-27116D01*
X85779Y-27024D01*
X85779Y-29507D01*
X85743Y-29518D01*
X85670Y-29722D01*
X85681Y-29939D01*
X85743Y-30088D01*
X85837Y-30114D01*
X86149Y-29803D01*
X86149Y-29944D01*
X85908Y-30185D01*
X85935Y-30280D01*
X86139Y-30353D01*
X86356Y-30342D01*
X86505Y-30280D01*
X86532Y-30185D01*
X86532Y-30753D01*
X82690Y-30753D01*
X82690Y-30698D01*
X82690Y-30305D01*
X84407Y-30311D01*
X84497Y-30348D01*
X84596Y-30348D01*
X85187Y-30348D01*
X85279Y-30310D01*
X85349Y-30240D01*
X85387Y-30148D01*
X85387Y-30048D01*
X85387Y-29458D01*
X85349Y-29366D01*
X85279Y-29296D01*
X85204Y-29264D01*
X85204Y-27162D01*
X85204Y-26849D01*
X84791Y-26849D01*
X84729Y-26912D01*
X84729Y-27024D01*
X84767Y-27116D01*
X84837Y-27186D01*
X84929Y-27224D01*
X85028Y-27225D01*
X85141Y-27224D01*
X85204Y-27162D01*
X85204Y-29264D01*
X85187Y-29257D01*
X85088Y-29257D01*
X84977Y-29257D01*
X83605Y-27928D01*
X83605Y-26707D01*
X83781Y-26707D01*
X83873Y-26669D01*
X83943Y-26599D01*
X83964Y-26549D01*
X84739Y-26549D01*
X84729Y-26575D01*
X84729Y-26687D01*
X84791Y-26749D01*
X85204Y-26749D01*
X85204Y-26742D01*
X85304Y-26742D01*
X85304Y-26749D01*
X85716Y-26749D01*
X85779Y-26687D01*
X85779Y-26575D01*
X85768Y-26549D01*
X85841Y-26549D01*
X85831Y-26575D01*
X85831Y-26687D01*
X85893Y-26749D01*
X86306Y-26749D01*
X86306Y-26742D01*
X86406Y-26742D01*
X86406Y-26749D01*
X86414Y-26749D01*
X86414Y-26849D01*
X86406Y-26849D01*
X86406Y-27162D01*
X86468Y-27224D01*
X86581Y-27225D01*
X86681Y-27224D01*
X86773Y-27186D01*
X86843Y-27116D01*
X86881Y-27024D01*
X86881Y-26912D01*
X86818Y-26849D01*
X86873Y-26849D01*
X86888Y-26925D01*
X86953Y-27023D01*
X87209Y-27279D01*
X87209Y-27279D01*
X87306Y-27344D01*
X87419Y-27366D01*
X87417Y-27383D01*
X87433Y-27397D01*
X87490Y-27482D01*
X87501Y-27490D01*
X87471Y-27490D01*
X87417Y-27537D01*
X87422Y-27571D01*
X87486Y-27675D01*
X87586Y-27746D01*
X87705Y-27774D01*
X87755Y-27710D01*
X87755Y-27769D01*
X87781Y-27769D01*
X87781Y-27842D01*
X87790Y-27887D01*
X87790Y-29468D01*
X87813Y-29583D01*
X87878Y-29680D01*
X88068Y-29870D01*
X88068Y-29870D01*
X88165Y-29935D01*
X88280Y-29958D01*
X89490Y-29958D01*
X90285Y-30753D01*
G54D10*
G36*
X93798Y-30301D02*
X93790Y-30301D01*
X93790Y-30309D01*
X93690Y-30309D01*
X93690Y-30301D01*
X93198Y-30301D01*
X93135Y-30364D01*
X93135Y-30556D01*
X93135Y-30656D01*
X93174Y-30748D01*
X93179Y-30753D01*
X90833Y-30753D01*
X91217Y-30370D01*
X91255Y-30279D01*
X91255Y-30179D01*
X91217Y-30087D01*
X91147Y-30017D01*
X91088Y-29958D01*
X91148Y-29958D01*
X91677Y-30487D01*
X91677Y-30487D01*
X91774Y-30552D01*
X91889Y-30575D01*
X92047Y-30575D01*
X92047Y-30575D01*
X92162Y-30552D01*
X92162Y-30552D01*
X92259Y-30487D01*
X93135Y-29611D01*
X93135Y-29655D01*
X93173Y-29747D01*
X93177Y-29751D01*
X93174Y-29755D01*
X93135Y-29847D01*
X93135Y-29947D01*
X93135Y-30139D01*
X93198Y-30201D01*
X93690Y-30201D01*
X93690Y-30194D01*
X93790Y-30194D01*
X93790Y-30201D01*
X93798Y-30201D01*
X93798Y-30301D01*
X93798Y-30301D01*
G37*
G54D21*
X93798Y-30301D02*
X93790Y-30301D01*
X93790Y-30309D01*
X93690Y-30309D01*
X93690Y-30301D01*
X93198Y-30301D01*
X93135Y-30364D01*
X93135Y-30556D01*
X93135Y-30656D01*
X93174Y-30748D01*
X93179Y-30753D01*
X90833Y-30753D01*
X91217Y-30370D01*
X91255Y-30279D01*
X91255Y-30179D01*
X91217Y-30087D01*
X91147Y-30017D01*
X91088Y-29958D01*
X91148Y-29958D01*
X91677Y-30487D01*
X91677Y-30487D01*
X91774Y-30552D01*
X91889Y-30575D01*
X92047Y-30575D01*
X92047Y-30575D01*
X92162Y-30552D01*
X92162Y-30552D01*
X92259Y-30487D01*
X93135Y-29611D01*
X93135Y-29655D01*
X93173Y-29747D01*
X93177Y-29751D01*
X93174Y-29755D01*
X93135Y-29847D01*
X93135Y-29947D01*
X93135Y-30139D01*
X93198Y-30201D01*
X93690Y-30201D01*
X93690Y-30194D01*
X93790Y-30194D01*
X93790Y-30201D01*
X93798Y-30201D01*
X93798Y-30301D01*
G54D10*
G36*
X94336Y-26191D02*
X94306Y-26118D01*
X94236Y-26048D01*
X94144Y-26009D01*
X94044Y-26009D01*
X93336Y-26009D01*
X93244Y-26047D01*
X93174Y-26118D01*
X93135Y-26209D01*
X93135Y-26309D01*
X93135Y-26314D01*
X92598Y-26314D01*
X92085Y-26314D01*
X92085Y-25316D01*
X92074Y-25100D01*
X92012Y-24951D01*
X91917Y-24924D01*
X91847Y-24995D01*
X91847Y-24853D01*
X91820Y-24758D01*
X91616Y-24686D01*
X91399Y-24697D01*
X91250Y-24758D01*
X91223Y-24853D01*
X91535Y-25165D01*
X91847Y-24853D01*
X91847Y-24995D01*
X91606Y-25236D01*
X91917Y-25547D01*
X92012Y-25521D01*
X92085Y-25316D01*
X92085Y-26314D01*
X92080Y-26314D01*
X92080Y-26269D01*
X92042Y-26177D01*
X91972Y-26107D01*
X91880Y-26068D01*
X91847Y-26068D01*
X91847Y-25618D01*
X91535Y-25306D01*
X91464Y-25377D01*
X91464Y-25236D01*
X91152Y-24924D01*
X91058Y-24951D01*
X91017Y-25065D01*
X91017Y-24470D01*
X91017Y-24179D01*
X90954Y-24117D01*
X90463Y-24117D01*
X90463Y-24608D01*
X90525Y-24671D01*
X90717Y-24671D01*
X90817Y-24671D01*
X90909Y-24633D01*
X90979Y-24562D01*
X91017Y-24470D01*
X91017Y-25065D01*
X90985Y-25155D01*
X90996Y-25372D01*
X91058Y-25521D01*
X91152Y-25547D01*
X91464Y-25236D01*
X91464Y-25377D01*
X91223Y-25618D01*
X91250Y-25713D01*
X91454Y-25786D01*
X91671Y-25775D01*
X91820Y-25713D01*
X91847Y-25618D01*
X91847Y-26068D01*
X91781Y-26068D01*
X91244Y-26068D01*
X91244Y-26062D01*
X91222Y-25948D01*
X91157Y-25850D01*
X91157Y-25850D01*
X90782Y-25475D01*
X90684Y-25410D01*
X90569Y-25387D01*
X90297Y-25387D01*
X90290Y-25371D01*
X90219Y-25301D01*
X90128Y-25263D01*
X90028Y-25262D01*
X89478Y-25262D01*
X89386Y-25300D01*
X89316Y-25371D01*
X89278Y-25461D01*
X89278Y-25461D01*
X89257Y-25475D01*
X88754Y-25978D01*
X88689Y-26076D01*
X88668Y-26181D01*
X88668Y-26181D01*
X88582Y-26198D01*
X88484Y-26179D01*
X88382Y-26199D01*
X88364Y-26196D01*
X88350Y-26213D01*
X88287Y-26255D01*
X88224Y-26213D01*
X88210Y-26196D01*
X88192Y-26199D01*
X88090Y-26179D01*
X87972Y-26202D01*
X87872Y-26269D01*
X87805Y-26370D01*
X87781Y-26488D01*
X87781Y-26561D01*
X87708Y-26561D01*
X87590Y-26584D01*
X87490Y-26651D01*
X87466Y-26687D01*
X87465Y-26686D01*
X87465Y-26220D01*
X87442Y-26105D01*
X87377Y-26008D01*
X87377Y-26008D01*
X87206Y-25837D01*
X87109Y-25772D01*
X86994Y-25749D01*
X86850Y-25749D01*
X86843Y-25733D01*
X86806Y-25696D01*
X88283Y-25696D01*
X88283Y-25696D01*
X88283Y-25696D01*
X88474Y-25658D01*
X88636Y-25550D01*
X89515Y-24671D01*
X89816Y-24671D01*
X89908Y-24633D01*
X89912Y-24629D01*
X89916Y-24633D01*
X90008Y-24671D01*
X90108Y-24671D01*
X90300Y-24671D01*
X90363Y-24608D01*
X90363Y-24117D01*
X90355Y-24117D01*
X90355Y-24017D01*
X90363Y-24017D01*
X90363Y-24009D01*
X90463Y-24009D01*
X90463Y-24017D01*
X90954Y-24017D01*
X91017Y-23954D01*
X91017Y-23694D01*
X92920Y-23694D01*
X92870Y-23715D01*
X92574Y-24010D01*
X92414Y-24396D01*
X92414Y-24814D01*
X92573Y-25200D01*
X92869Y-25495D01*
X93254Y-25656D01*
X93672Y-25656D01*
X94058Y-25496D01*
X94336Y-25219D01*
X94336Y-26191D01*
X94336Y-26191D01*
G37*
G54D21*
X94336Y-26191D02*
X94306Y-26118D01*
X94236Y-26048D01*
X94144Y-26009D01*
X94044Y-26009D01*
X93336Y-26009D01*
X93244Y-26047D01*
X93174Y-26118D01*
X93135Y-26209D01*
X93135Y-26309D01*
X93135Y-26314D01*
X92598Y-26314D01*
X92085Y-26314D01*
X92085Y-25316D01*
X92074Y-25100D01*
X92012Y-24951D01*
X91917Y-24924D01*
X91847Y-24995D01*
X91847Y-24853D01*
X91820Y-24758D01*
X91616Y-24686D01*
X91399Y-24697D01*
X91250Y-24758D01*
X91223Y-24853D01*
X91535Y-25165D01*
X91847Y-24853D01*
X91847Y-24995D01*
X91606Y-25236D01*
X91917Y-25547D01*
X92012Y-25521D01*
X92085Y-25316D01*
X92085Y-26314D01*
X92080Y-26314D01*
X92080Y-26269D01*
X92042Y-26177D01*
X91972Y-26107D01*
X91880Y-26068D01*
X91847Y-26068D01*
X91847Y-25618D01*
X91535Y-25306D01*
X91464Y-25377D01*
X91464Y-25236D01*
X91152Y-24924D01*
X91058Y-24951D01*
X91017Y-25065D01*
X91017Y-24470D01*
X91017Y-24179D01*
X90954Y-24117D01*
X90463Y-24117D01*
X90463Y-24608D01*
X90525Y-24671D01*
X90717Y-24671D01*
X90817Y-24671D01*
X90909Y-24633D01*
X90979Y-24562D01*
X91017Y-24470D01*
X91017Y-25065D01*
X90985Y-25155D01*
X90996Y-25372D01*
X91058Y-25521D01*
X91152Y-25547D01*
X91464Y-25236D01*
X91464Y-25377D01*
X91223Y-25618D01*
X91250Y-25713D01*
X91454Y-25786D01*
X91671Y-25775D01*
X91820Y-25713D01*
X91847Y-25618D01*
X91847Y-26068D01*
X91781Y-26068D01*
X91244Y-26068D01*
X91244Y-26062D01*
X91222Y-25948D01*
X91157Y-25850D01*
X91157Y-25850D01*
X90782Y-25475D01*
X90684Y-25410D01*
X90569Y-25387D01*
X90297Y-25387D01*
X90290Y-25371D01*
X90219Y-25301D01*
X90128Y-25263D01*
X90028Y-25262D01*
X89478Y-25262D01*
X89386Y-25300D01*
X89316Y-25371D01*
X89278Y-25461D01*
X89278Y-25461D01*
X89257Y-25475D01*
X88754Y-25978D01*
X88689Y-26076D01*
X88668Y-26181D01*
X88668Y-26181D01*
X88582Y-26198D01*
X88484Y-26179D01*
X88382Y-26199D01*
X88364Y-26196D01*
X88350Y-26213D01*
X88287Y-26255D01*
X88224Y-26213D01*
X88210Y-26196D01*
X88192Y-26199D01*
X88090Y-26179D01*
X87972Y-26202D01*
X87872Y-26269D01*
X87805Y-26370D01*
X87781Y-26488D01*
X87781Y-26561D01*
X87708Y-26561D01*
X87590Y-26584D01*
X87490Y-26651D01*
X87466Y-26687D01*
X87465Y-26686D01*
X87465Y-26220D01*
X87442Y-26105D01*
X87377Y-26008D01*
X87377Y-26008D01*
X87206Y-25837D01*
X87109Y-25772D01*
X86994Y-25749D01*
X86850Y-25749D01*
X86843Y-25733D01*
X86806Y-25696D01*
X88283Y-25696D01*
X88283Y-25696D01*
X88283Y-25696D01*
X88474Y-25658D01*
X88636Y-25550D01*
X89515Y-24671D01*
X89816Y-24671D01*
X89908Y-24633D01*
X89912Y-24629D01*
X89916Y-24633D01*
X90008Y-24671D01*
X90108Y-24671D01*
X90300Y-24671D01*
X90363Y-24608D01*
X90363Y-24117D01*
X90355Y-24117D01*
X90355Y-24017D01*
X90363Y-24017D01*
X90363Y-24009D01*
X90463Y-24009D01*
X90463Y-24017D01*
X90954Y-24017D01*
X91017Y-23954D01*
X91017Y-23694D01*
X92920Y-23694D01*
X92870Y-23715D01*
X92574Y-24010D01*
X92414Y-24396D01*
X92414Y-24814D01*
X92573Y-25200D01*
X92869Y-25495D01*
X93254Y-25656D01*
X93672Y-25656D01*
X94058Y-25496D01*
X94336Y-25219D01*
X94336Y-26191D01*
G54D10*
G36*
X94336Y-28828D02*
X94306Y-28756D01*
X94236Y-28685D01*
X94144Y-28647D01*
X94044Y-28647D01*
X93690Y-28647D01*
X93690Y-28156D01*
X93690Y-27664D01*
X93198Y-27664D01*
X93135Y-27726D01*
X93135Y-27918D01*
X93135Y-28018D01*
X93174Y-28110D01*
X93244Y-28180D01*
X93336Y-28218D01*
X93627Y-28218D01*
X93690Y-28156D01*
X93690Y-28647D01*
X93560Y-28647D01*
X92325Y-27413D01*
X92076Y-26968D01*
X92080Y-26959D01*
X92080Y-26914D01*
X92598Y-26914D01*
X93135Y-26914D01*
X93135Y-27018D01*
X93173Y-27109D01*
X93177Y-27114D01*
X93174Y-27118D01*
X93135Y-27209D01*
X93135Y-27309D01*
X93135Y-27501D01*
X93198Y-27564D01*
X93690Y-27564D01*
X93690Y-27556D01*
X93790Y-27556D01*
X93790Y-27564D01*
X93798Y-27564D01*
X93798Y-27664D01*
X93790Y-27664D01*
X93790Y-28156D01*
X93852Y-28218D01*
X94143Y-28218D01*
X94235Y-28180D01*
X94306Y-28110D01*
X94336Y-28037D01*
X94336Y-28828D01*
X94336Y-28828D01*
G37*
G54D21*
X94336Y-28828D02*
X94306Y-28756D01*
X94236Y-28685D01*
X94144Y-28647D01*
X94044Y-28647D01*
X93690Y-28647D01*
X93690Y-28156D01*
X93690Y-27664D01*
X93198Y-27664D01*
X93135Y-27726D01*
X93135Y-27918D01*
X93135Y-28018D01*
X93174Y-28110D01*
X93244Y-28180D01*
X93336Y-28218D01*
X93627Y-28218D01*
X93690Y-28156D01*
X93690Y-28647D01*
X93560Y-28647D01*
X92325Y-27413D01*
X92076Y-26968D01*
X92080Y-26959D01*
X92080Y-26914D01*
X92598Y-26914D01*
X93135Y-26914D01*
X93135Y-27018D01*
X93173Y-27109D01*
X93177Y-27114D01*
X93174Y-27118D01*
X93135Y-27209D01*
X93135Y-27309D01*
X93135Y-27501D01*
X93198Y-27564D01*
X93690Y-27564D01*
X93690Y-27556D01*
X93790Y-27556D01*
X93790Y-27564D01*
X93798Y-27564D01*
X93798Y-27664D01*
X93790Y-27664D01*
X93790Y-28156D01*
X93852Y-28218D01*
X94143Y-28218D01*
X94235Y-28180D01*
X94306Y-28110D01*
X94336Y-28037D01*
X94336Y-28828D01*
M02*
