G04 (created by PCBNEW (2013-07-07 BZR 4022)-stable) date 8/25/2014 9:50:12 PM*
%MOIN*%
G04 Gerber Fmt 3.4, Leading zero omitted, Abs format*
%FSLAX34Y34*%
G01*
G70*
G90*
G04 APERTURE LIST*
%ADD10C,0.00590551*%
%ADD11C,0.015*%
%ADD12C,0.0039*%
%ADD13C,0.008*%
%ADD14C,0.0043*%
G04 APERTURE END LIST*
G54D10*
X91574Y-25787D02*
X91574Y-25649D01*
X91574Y-26043D02*
X91574Y-26200D01*
X91712Y-26003D02*
X91397Y-26003D01*
X91397Y-25767D02*
G75*
G03X91692Y-25787I157J137D01*
G74*
G01*
G54D11*
X94364Y-24606D02*
G75*
G03X94364Y-24606I-900J0D01*
G74*
G01*
X78025Y-29527D02*
G75*
G03X78025Y-29527I-900J0D01*
G74*
G01*
X76495Y-23739D02*
X76495Y-27283D01*
X75117Y-23739D02*
X75117Y-27283D01*
X75117Y-27283D02*
X80826Y-27283D01*
X80826Y-27283D02*
X80826Y-23739D01*
X80826Y-23739D02*
X75117Y-23739D01*
G54D12*
X90153Y-26712D02*
G75*
G03X90153Y-26712I-50J0D01*
G74*
G01*
X90103Y-26262D02*
X90103Y-26662D01*
X90103Y-26662D02*
X89503Y-26662D01*
X89503Y-26662D02*
X89503Y-26262D01*
X89503Y-25862D02*
X89503Y-25462D01*
X89503Y-25462D02*
X90103Y-25462D01*
X90103Y-25462D02*
X90103Y-25862D01*
X85004Y-25774D02*
G75*
G03X85004Y-25774I-50J0D01*
G74*
G01*
X84954Y-26224D02*
X84954Y-25824D01*
X84954Y-25824D02*
X85554Y-25824D01*
X85554Y-25824D02*
X85554Y-26224D01*
X85554Y-26624D02*
X85554Y-27024D01*
X85554Y-27024D02*
X84954Y-27024D01*
X84954Y-27024D02*
X84954Y-26624D01*
X86106Y-25774D02*
G75*
G03X86106Y-25774I-50J0D01*
G74*
G01*
X86056Y-26224D02*
X86056Y-25824D01*
X86056Y-25824D02*
X86656Y-25824D01*
X86656Y-25824D02*
X86656Y-26224D01*
X86656Y-26624D02*
X86656Y-27024D01*
X86656Y-27024D02*
X86056Y-27024D01*
X86056Y-27024D02*
X86056Y-26624D01*
G54D10*
X87735Y-26492D02*
G75*
G03X87735Y-26492I-52J0D01*
G74*
G01*
X80610Y-29803D02*
X80177Y-29803D01*
X81299Y-29783D02*
X81653Y-29783D01*
X81299Y-29763D02*
X80629Y-29192D01*
X80629Y-29192D02*
X80629Y-30354D01*
X80629Y-30354D02*
X81299Y-29803D01*
X81299Y-29192D02*
X81299Y-30374D01*
X85669Y-29842D02*
X85807Y-29842D01*
X85413Y-29842D02*
X85255Y-29842D01*
X85452Y-29980D02*
X85452Y-29665D01*
X85688Y-29665D02*
G75*
G03X85669Y-29960I137J-157D01*
G74*
G01*
G54D13*
X76194Y-25997D02*
X76213Y-26016D01*
X76232Y-26073D01*
X76232Y-26111D01*
X76213Y-26168D01*
X76175Y-26207D01*
X76137Y-26226D01*
X76061Y-26245D01*
X76004Y-26245D01*
X75928Y-26226D01*
X75889Y-26207D01*
X75851Y-26168D01*
X75832Y-26111D01*
X75832Y-26073D01*
X75851Y-26016D01*
X75870Y-25997D01*
X75832Y-25749D02*
X75832Y-25673D01*
X75851Y-25635D01*
X75889Y-25597D01*
X75966Y-25578D01*
X76099Y-25578D01*
X76175Y-25597D01*
X76213Y-25635D01*
X76232Y-25673D01*
X76232Y-25749D01*
X76213Y-25788D01*
X76175Y-25826D01*
X76099Y-25845D01*
X75966Y-25845D01*
X75889Y-25826D01*
X75851Y-25788D01*
X75832Y-25749D01*
X76232Y-25407D02*
X75832Y-25407D01*
X76232Y-25178D01*
X75832Y-25178D01*
X76232Y-24778D02*
X76232Y-25007D01*
X76232Y-24892D02*
X75832Y-24892D01*
X75889Y-24930D01*
X75928Y-24968D01*
X75947Y-25007D01*
G54D14*
X89739Y-26095D02*
X89748Y-26105D01*
X89757Y-26133D01*
X89757Y-26152D01*
X89748Y-26180D01*
X89729Y-26199D01*
X89710Y-26208D01*
X89673Y-26217D01*
X89645Y-26217D01*
X89607Y-26208D01*
X89589Y-26199D01*
X89570Y-26180D01*
X89560Y-26152D01*
X89560Y-26133D01*
X89570Y-26105D01*
X89579Y-26095D01*
X89560Y-26030D02*
X89560Y-25908D01*
X89635Y-25973D01*
X89635Y-25945D01*
X89645Y-25926D01*
X89654Y-25917D01*
X89673Y-25908D01*
X89720Y-25908D01*
X89739Y-25917D01*
X89748Y-25926D01*
X89757Y-25945D01*
X89757Y-26002D01*
X89748Y-26020D01*
X89739Y-26030D01*
X85440Y-26457D02*
X85449Y-26467D01*
X85459Y-26495D01*
X85459Y-26514D01*
X85449Y-26542D01*
X85431Y-26561D01*
X85412Y-26570D01*
X85374Y-26579D01*
X85346Y-26579D01*
X85309Y-26570D01*
X85290Y-26561D01*
X85271Y-26542D01*
X85262Y-26514D01*
X85262Y-26495D01*
X85271Y-26467D01*
X85280Y-26457D01*
X85280Y-26382D02*
X85271Y-26373D01*
X85262Y-26354D01*
X85262Y-26307D01*
X85271Y-26288D01*
X85280Y-26279D01*
X85299Y-26270D01*
X85318Y-26270D01*
X85346Y-26279D01*
X85459Y-26392D01*
X85459Y-26270D01*
X86542Y-26457D02*
X86551Y-26467D01*
X86561Y-26495D01*
X86561Y-26514D01*
X86551Y-26542D01*
X86533Y-26561D01*
X86514Y-26570D01*
X86476Y-26579D01*
X86448Y-26579D01*
X86411Y-26570D01*
X86392Y-26561D01*
X86373Y-26542D01*
X86364Y-26514D01*
X86364Y-26495D01*
X86373Y-26467D01*
X86382Y-26457D01*
X86364Y-26279D02*
X86364Y-26373D01*
X86457Y-26382D01*
X86448Y-26373D01*
X86439Y-26354D01*
X86439Y-26307D01*
X86448Y-26288D01*
X86457Y-26279D01*
X86476Y-26270D01*
X86523Y-26270D01*
X86542Y-26279D01*
X86551Y-26288D01*
X86561Y-26307D01*
X86561Y-26354D01*
X86551Y-26373D01*
X86542Y-26382D01*
G54D10*
X87889Y-28308D02*
X87889Y-28627D01*
X87907Y-28665D01*
X87926Y-28683D01*
X87964Y-28702D01*
X88038Y-28702D01*
X88076Y-28683D01*
X88095Y-28665D01*
X88113Y-28627D01*
X88113Y-28308D01*
X88263Y-28308D02*
X88507Y-28308D01*
X88376Y-28458D01*
X88432Y-28458D01*
X88470Y-28477D01*
X88488Y-28496D01*
X88507Y-28533D01*
X88507Y-28627D01*
X88488Y-28665D01*
X88470Y-28683D01*
X88432Y-28702D01*
X88320Y-28702D01*
X88282Y-28683D01*
X88263Y-28665D01*
M02*
