G04 (created by PCBNEW (2013-07-07 BZR 4022)-stable) date 8/25/2014 11:10:48 PM*
%MOIN*%
G04 Gerber Fmt 3.4, Leading zero omitted, Abs format*
%FSLAX34Y34*%
G01*
G70*
G90*
G04 APERTURE LIST*
%ADD10C,0.00590551*%
%ADD11C,0.0590551*%
%ADD12R,0.0590551X0.0590551*%
%ADD13R,0.110236X0.0944882*%
%ADD14C,0.0629921*%
%ADD15C,0.0708661*%
%ADD16C,0.16*%
%ADD17R,0.0708661X0.0708661*%
%ADD18R,0.055X0.035*%
%ADD19O,0.011811X0.0295276*%
%ADD20O,0.0295276X0.011811*%
%ADD21R,0.0787402X0.125197*%
%ADD22R,0.0629921X0.188976*%
%ADD23C,0.035*%
%ADD24C,0.05*%
%ADD25C,0.01*%
%ADD26C,0.008*%
G04 APERTURE END LIST*
G54D10*
G54D11*
X82038Y-26854D03*
G54D12*
X83415Y-26854D03*
G54D13*
X78959Y-25019D03*
X76558Y-25019D03*
X76558Y-29428D03*
X78959Y-29428D03*
G54D14*
X76558Y-27224D03*
G54D15*
X78329Y-27224D03*
G54D11*
X91535Y-25236D03*
G54D12*
X91535Y-26614D03*
G54D16*
X93464Y-24606D03*
X82274Y-29360D03*
G54D17*
X93740Y-26614D03*
X93740Y-27614D03*
X93740Y-29251D03*
X93740Y-30251D03*
X85643Y-24067D03*
X86643Y-24067D03*
X89413Y-24067D03*
X90413Y-24067D03*
G54D18*
X89803Y-26437D03*
X89803Y-25687D03*
X85254Y-26049D03*
X85254Y-26799D03*
X86356Y-26049D03*
X86356Y-26799D03*
G54D17*
X88385Y-27165D03*
G54D19*
X88090Y-26584D03*
X88287Y-26584D03*
X88484Y-26584D03*
X88681Y-26584D03*
X88090Y-27746D03*
X88287Y-27746D03*
X88484Y-27746D03*
X88681Y-27746D03*
G54D20*
X88966Y-27460D03*
X88966Y-27263D03*
X88966Y-27066D03*
X88966Y-26870D03*
X87805Y-27460D03*
X87805Y-27263D03*
X87805Y-27066D03*
X87805Y-26870D03*
G54D10*
G36*
X90559Y-30674D02*
X88973Y-29087D01*
X89418Y-28642D01*
X91005Y-30229D01*
X90559Y-30674D01*
X90559Y-30674D01*
G37*
G36*
X91868Y-29366D02*
X90281Y-27779D01*
X90726Y-27333D01*
X92313Y-28920D01*
X91868Y-29366D01*
X91868Y-29366D01*
G37*
G54D21*
X81453Y-24475D03*
X83422Y-24475D03*
G54D22*
X86998Y-29595D03*
X84557Y-29595D03*
G54D23*
X84325Y-25470D03*
X87695Y-25835D03*
X87920Y-24125D03*
X82475Y-24435D03*
X77735Y-23955D03*
X85870Y-28195D03*
X77750Y-29410D03*
X79900Y-27210D03*
X89650Y-28010D03*
G54D24*
X85254Y-25060D02*
X88420Y-25060D01*
X88420Y-25060D02*
X89413Y-24067D01*
X83422Y-24475D02*
X85234Y-24475D01*
X85234Y-24475D02*
X85643Y-24067D01*
X84557Y-29595D02*
X84557Y-27995D01*
X84557Y-27995D02*
X83415Y-26854D01*
X85254Y-26049D02*
X85254Y-25060D01*
X85254Y-25060D02*
X85254Y-24455D01*
X85254Y-24455D02*
X85643Y-24067D01*
X83415Y-26854D02*
X83415Y-24481D01*
X83415Y-24481D02*
X83422Y-24475D01*
G54D25*
X87805Y-27066D02*
X87421Y-27066D01*
X86994Y-26049D02*
X86356Y-26049D01*
X87165Y-26220D02*
X86994Y-26049D01*
X87165Y-26811D02*
X87165Y-26220D01*
X87421Y-27066D02*
X87165Y-26811D01*
G54D24*
X85254Y-26049D02*
X86356Y-26049D01*
G54D25*
X93740Y-26614D02*
X92598Y-26614D01*
X92598Y-26614D02*
X91535Y-26614D01*
X89989Y-29658D02*
X91272Y-29658D01*
X93070Y-29251D02*
X93740Y-29251D01*
X92047Y-30275D02*
X93070Y-29251D01*
X91889Y-30275D02*
X92047Y-30275D01*
X91272Y-29658D02*
X91889Y-30275D01*
X91535Y-26614D02*
X92086Y-27598D01*
X92086Y-27598D02*
X93740Y-29251D01*
X88090Y-27746D02*
X88090Y-29468D01*
X88280Y-29658D02*
X89989Y-29658D01*
X88090Y-29468D02*
X88280Y-29658D01*
X88966Y-27263D02*
X89547Y-27263D01*
X89803Y-27007D02*
X89803Y-26437D01*
X89547Y-27263D02*
X89803Y-27007D01*
X89803Y-25687D02*
X90569Y-25687D01*
X90944Y-27997D02*
X91297Y-28349D01*
X90944Y-26062D02*
X90944Y-27997D01*
X90569Y-25687D02*
X90944Y-26062D01*
X88966Y-26870D02*
X88966Y-26190D01*
X89469Y-25687D02*
X89803Y-25687D01*
X88966Y-26190D02*
X89469Y-25687D01*
G54D24*
X76558Y-25019D02*
X78959Y-25019D01*
X78959Y-25019D02*
X79503Y-24475D01*
X79503Y-24475D02*
X81453Y-24475D01*
G54D10*
G36*
X94466Y-30883D02*
X94384Y-30883D01*
X94384Y-24424D01*
X94244Y-24085D01*
X93986Y-23826D01*
X93648Y-23686D01*
X93282Y-23686D01*
X92944Y-23825D01*
X92685Y-24084D01*
X92544Y-24422D01*
X92544Y-24788D01*
X92684Y-25126D01*
X92942Y-25385D01*
X93280Y-25526D01*
X93646Y-25526D01*
X93985Y-25386D01*
X94244Y-25128D01*
X94384Y-24790D01*
X94384Y-24424D01*
X94384Y-30883D01*
X94214Y-30883D01*
X94214Y-30582D01*
X94214Y-29921D01*
X94214Y-29582D01*
X94214Y-28873D01*
X94214Y-27944D01*
X94214Y-27283D01*
X94214Y-27235D01*
X94196Y-27191D01*
X94162Y-27158D01*
X94118Y-27139D01*
X93930Y-27139D01*
X93900Y-27169D01*
X93900Y-27454D01*
X94184Y-27454D01*
X94214Y-27424D01*
X94214Y-27283D01*
X94214Y-27944D01*
X94214Y-27804D01*
X94184Y-27774D01*
X93900Y-27774D01*
X93900Y-28058D01*
X93930Y-28088D01*
X94118Y-28088D01*
X94162Y-28070D01*
X94196Y-28036D01*
X94214Y-27992D01*
X94214Y-27944D01*
X94214Y-28873D01*
X94196Y-28829D01*
X94162Y-28795D01*
X94118Y-28777D01*
X94070Y-28777D01*
X93580Y-28777D01*
X93580Y-28058D01*
X93580Y-27774D01*
X93580Y-27454D01*
X93580Y-27169D01*
X93550Y-27139D01*
X93362Y-27139D01*
X93317Y-27158D01*
X93284Y-27191D01*
X93265Y-27235D01*
X93265Y-27283D01*
X93265Y-27424D01*
X93295Y-27454D01*
X93580Y-27454D01*
X93580Y-27774D01*
X93295Y-27774D01*
X93265Y-27804D01*
X93265Y-27944D01*
X93265Y-27992D01*
X93284Y-28036D01*
X93317Y-28070D01*
X93362Y-28088D01*
X93550Y-28088D01*
X93580Y-28058D01*
X93580Y-28777D01*
X93506Y-28777D01*
X92221Y-27492D01*
X91932Y-26976D01*
X91950Y-26933D01*
X91950Y-26885D01*
X91950Y-26784D01*
X92598Y-26784D01*
X93265Y-26784D01*
X93265Y-26992D01*
X93284Y-27036D01*
X93317Y-27070D01*
X93361Y-27088D01*
X93409Y-27088D01*
X94118Y-27088D01*
X94162Y-27070D01*
X94196Y-27036D01*
X94214Y-26992D01*
X94214Y-26944D01*
X94214Y-26236D01*
X94196Y-26191D01*
X94162Y-26158D01*
X94118Y-26139D01*
X94070Y-26139D01*
X93362Y-26139D01*
X93317Y-26158D01*
X93284Y-26191D01*
X93265Y-26235D01*
X93265Y-26283D01*
X93265Y-26444D01*
X92598Y-26444D01*
X91955Y-26444D01*
X91955Y-25185D01*
X91943Y-25122D01*
X91897Y-25082D01*
X91744Y-25236D01*
X91897Y-25389D01*
X91943Y-25350D01*
X91955Y-25185D01*
X91955Y-26444D01*
X91950Y-26444D01*
X91950Y-26295D01*
X91932Y-26251D01*
X91898Y-26217D01*
X91854Y-26198D01*
X91806Y-26198D01*
X91688Y-26198D01*
X91688Y-25598D01*
X91688Y-24873D01*
X91649Y-24828D01*
X91484Y-24815D01*
X91421Y-24828D01*
X91381Y-24873D01*
X91535Y-25027D01*
X91688Y-24873D01*
X91688Y-25598D01*
X91535Y-25445D01*
X91381Y-25598D01*
X91421Y-25644D01*
X91586Y-25656D01*
X91649Y-25644D01*
X91688Y-25598D01*
X91688Y-26198D01*
X91326Y-26198D01*
X91326Y-25236D01*
X91173Y-25082D01*
X91127Y-25122D01*
X91115Y-25287D01*
X91127Y-25350D01*
X91173Y-25389D01*
X91326Y-25236D01*
X91326Y-26198D01*
X91216Y-26198D01*
X91172Y-26217D01*
X91138Y-26250D01*
X91120Y-26294D01*
X91120Y-26342D01*
X91120Y-26933D01*
X91138Y-26977D01*
X91172Y-27011D01*
X91216Y-27029D01*
X91263Y-27029D01*
X91572Y-27029D01*
X91937Y-27681D01*
X91957Y-27705D01*
X91966Y-27718D01*
X93265Y-29018D01*
X93265Y-29081D01*
X93070Y-29081D01*
X93005Y-29094D01*
X92950Y-29131D01*
X91976Y-30105D01*
X91960Y-30105D01*
X91392Y-29538D01*
X91337Y-29501D01*
X91272Y-29488D01*
X90434Y-29488D01*
X89486Y-28540D01*
X89442Y-28522D01*
X89394Y-28522D01*
X89350Y-28540D01*
X89316Y-28574D01*
X88871Y-29019D01*
X88853Y-29063D01*
X88853Y-29111D01*
X88871Y-29155D01*
X88904Y-29189D01*
X89203Y-29488D01*
X88350Y-29488D01*
X88260Y-29398D01*
X88260Y-28013D01*
X88287Y-28018D01*
X88355Y-28005D01*
X88385Y-27985D01*
X88415Y-28005D01*
X88484Y-28018D01*
X88552Y-28005D01*
X88582Y-27985D01*
X88612Y-28005D01*
X88681Y-28018D01*
X88749Y-28005D01*
X88807Y-27966D01*
X88846Y-27908D01*
X88860Y-27839D01*
X88860Y-27652D01*
X88857Y-27636D01*
X88872Y-27639D01*
X89060Y-27639D01*
X89128Y-27626D01*
X89186Y-27587D01*
X89225Y-27529D01*
X89239Y-27460D01*
X89234Y-27433D01*
X89547Y-27433D01*
X89612Y-27420D01*
X89612Y-27420D01*
X89667Y-27383D01*
X89923Y-27128D01*
X89923Y-27128D01*
X89923Y-27128D01*
X89960Y-27072D01*
X89973Y-27007D01*
X89973Y-27007D01*
X89973Y-27007D01*
X89973Y-26733D01*
X90101Y-26733D01*
X90146Y-26714D01*
X90179Y-26681D01*
X90198Y-26636D01*
X90198Y-26589D01*
X90198Y-26239D01*
X90179Y-26195D01*
X90146Y-26161D01*
X90102Y-26143D01*
X90054Y-26142D01*
X89504Y-26142D01*
X89460Y-26161D01*
X89426Y-26194D01*
X89408Y-26239D01*
X89408Y-26286D01*
X89408Y-26636D01*
X89426Y-26680D01*
X89460Y-26714D01*
X89504Y-26732D01*
X89551Y-26733D01*
X89633Y-26733D01*
X89633Y-26937D01*
X89476Y-27093D01*
X89234Y-27093D01*
X89239Y-27066D01*
X89225Y-26998D01*
X89205Y-26968D01*
X89225Y-26938D01*
X89239Y-26870D01*
X89225Y-26801D01*
X89186Y-26743D01*
X89136Y-26709D01*
X89136Y-26261D01*
X89446Y-25951D01*
X89460Y-25964D01*
X89504Y-25982D01*
X89551Y-25983D01*
X90101Y-25983D01*
X90146Y-25964D01*
X90179Y-25931D01*
X90198Y-25886D01*
X90198Y-25857D01*
X90499Y-25857D01*
X90774Y-26133D01*
X90774Y-27223D01*
X90750Y-27213D01*
X90703Y-27213D01*
X90658Y-27232D01*
X90625Y-27265D01*
X90179Y-27711D01*
X90161Y-27755D01*
X90161Y-27803D01*
X90179Y-27847D01*
X90213Y-27880D01*
X91800Y-29467D01*
X91844Y-29486D01*
X91892Y-29486D01*
X91936Y-29467D01*
X91969Y-29434D01*
X92415Y-28988D01*
X92433Y-28944D01*
X92433Y-28896D01*
X92415Y-28852D01*
X92381Y-28818D01*
X91114Y-27552D01*
X91114Y-26062D01*
X91101Y-25997D01*
X91065Y-25942D01*
X91065Y-25942D01*
X90887Y-25765D01*
X90887Y-24445D01*
X90887Y-23688D01*
X90869Y-23644D01*
X90835Y-23610D01*
X90791Y-23592D01*
X90743Y-23592D01*
X90603Y-23592D01*
X90573Y-23622D01*
X90573Y-23907D01*
X90857Y-23907D01*
X90887Y-23877D01*
X90887Y-23688D01*
X90887Y-24445D01*
X90887Y-24257D01*
X90857Y-24227D01*
X90573Y-24227D01*
X90573Y-24511D01*
X90603Y-24541D01*
X90743Y-24541D01*
X90791Y-24541D01*
X90835Y-24523D01*
X90869Y-24489D01*
X90887Y-24445D01*
X90887Y-25765D01*
X90690Y-25567D01*
X90634Y-25530D01*
X90569Y-25517D01*
X90253Y-25517D01*
X90253Y-24511D01*
X90253Y-24227D01*
X90253Y-23907D01*
X90253Y-23622D01*
X90223Y-23592D01*
X90082Y-23592D01*
X90034Y-23592D01*
X89990Y-23610D01*
X89956Y-23644D01*
X89938Y-23688D01*
X89938Y-23877D01*
X89968Y-23907D01*
X90253Y-23907D01*
X90253Y-24227D01*
X89968Y-24227D01*
X89938Y-24257D01*
X89938Y-24445D01*
X89956Y-24489D01*
X89990Y-24523D01*
X90034Y-24541D01*
X90082Y-24541D01*
X90223Y-24541D01*
X90253Y-24511D01*
X90253Y-25517D01*
X90198Y-25517D01*
X90198Y-25489D01*
X90179Y-25445D01*
X90146Y-25411D01*
X90102Y-25393D01*
X90054Y-25392D01*
X89887Y-25392D01*
X89887Y-24397D01*
X89887Y-23688D01*
X89869Y-23644D01*
X89835Y-23610D01*
X89791Y-23592D01*
X89743Y-23592D01*
X89034Y-23592D01*
X88990Y-23610D01*
X88956Y-23644D01*
X88938Y-23688D01*
X88938Y-23736D01*
X88938Y-24018D01*
X88266Y-24690D01*
X87117Y-24690D01*
X87117Y-24445D01*
X87117Y-23688D01*
X87099Y-23644D01*
X87065Y-23610D01*
X87021Y-23592D01*
X86973Y-23592D01*
X86833Y-23592D01*
X86803Y-23622D01*
X86803Y-23907D01*
X87087Y-23907D01*
X87117Y-23877D01*
X87117Y-23688D01*
X87117Y-24445D01*
X87117Y-24257D01*
X87087Y-24227D01*
X86803Y-24227D01*
X86803Y-24511D01*
X86833Y-24541D01*
X86973Y-24541D01*
X87021Y-24541D01*
X87065Y-24523D01*
X87099Y-24489D01*
X87117Y-24445D01*
X87117Y-24690D01*
X86483Y-24690D01*
X86483Y-24511D01*
X86483Y-24227D01*
X86483Y-23907D01*
X86483Y-23622D01*
X86453Y-23592D01*
X86312Y-23592D01*
X86264Y-23592D01*
X86220Y-23610D01*
X86186Y-23644D01*
X86168Y-23688D01*
X86168Y-23877D01*
X86198Y-23907D01*
X86483Y-23907D01*
X86483Y-24227D01*
X86198Y-24227D01*
X86168Y-24257D01*
X86168Y-24445D01*
X86186Y-24489D01*
X86220Y-24523D01*
X86264Y-24541D01*
X86312Y-24541D01*
X86453Y-24541D01*
X86483Y-24511D01*
X86483Y-24690D01*
X85624Y-24690D01*
X85624Y-24608D01*
X85691Y-24541D01*
X86021Y-24541D01*
X86065Y-24523D01*
X86099Y-24489D01*
X86117Y-24445D01*
X86117Y-24397D01*
X86117Y-23688D01*
X86099Y-23644D01*
X86065Y-23610D01*
X86021Y-23592D01*
X85973Y-23592D01*
X85264Y-23592D01*
X85220Y-23610D01*
X85186Y-23644D01*
X85168Y-23688D01*
X85168Y-23736D01*
X85168Y-24018D01*
X85081Y-24105D01*
X85081Y-24105D01*
X83935Y-24105D01*
X83935Y-23825D01*
X83917Y-23781D01*
X83883Y-23747D01*
X83839Y-23729D01*
X83792Y-23729D01*
X83004Y-23729D01*
X82960Y-23747D01*
X82926Y-23781D01*
X82908Y-23825D01*
X82908Y-23873D01*
X82908Y-25125D01*
X82926Y-25169D01*
X82960Y-25203D01*
X83004Y-25221D01*
X83045Y-25221D01*
X83045Y-26464D01*
X83019Y-26491D01*
X83000Y-26535D01*
X83000Y-26582D01*
X83000Y-27173D01*
X83018Y-27217D01*
X83052Y-27251D01*
X83096Y-27269D01*
X83144Y-27269D01*
X83307Y-27269D01*
X84187Y-28148D01*
X84187Y-28543D01*
X84174Y-28548D01*
X84140Y-28582D01*
X84122Y-28626D01*
X84122Y-28674D01*
X84122Y-30563D01*
X84140Y-30608D01*
X84174Y-30641D01*
X84218Y-30660D01*
X84265Y-30660D01*
X84895Y-30660D01*
X84939Y-30641D01*
X84973Y-30608D01*
X84991Y-30564D01*
X84992Y-30516D01*
X84992Y-28626D01*
X84973Y-28582D01*
X84940Y-28548D01*
X84927Y-28543D01*
X84927Y-27995D01*
X84898Y-27853D01*
X84818Y-27733D01*
X83831Y-26746D01*
X83831Y-26535D01*
X83813Y-26491D01*
X83785Y-26464D01*
X83785Y-25221D01*
X83839Y-25221D01*
X83883Y-25203D01*
X83917Y-25169D01*
X83935Y-25125D01*
X83935Y-25077D01*
X83935Y-24845D01*
X84884Y-24845D01*
X84884Y-25060D01*
X84884Y-25800D01*
X84877Y-25806D01*
X84859Y-25851D01*
X84859Y-25898D01*
X84859Y-26248D01*
X84877Y-26292D01*
X84911Y-26326D01*
X84955Y-26344D01*
X85003Y-26344D01*
X85042Y-26344D01*
X85112Y-26391D01*
X85254Y-26419D01*
X86356Y-26419D01*
X86498Y-26391D01*
X86568Y-26344D01*
X86655Y-26344D01*
X86699Y-26326D01*
X86733Y-26293D01*
X86751Y-26248D01*
X86751Y-26219D01*
X86924Y-26219D01*
X86995Y-26290D01*
X86995Y-26811D01*
X87008Y-26876D01*
X87045Y-26931D01*
X87301Y-27187D01*
X87301Y-27187D01*
X87356Y-27223D01*
X87421Y-27236D01*
X87421Y-27236D01*
X87421Y-27236D01*
X87537Y-27236D01*
X87532Y-27263D01*
X87545Y-27332D01*
X87566Y-27363D01*
X87546Y-27403D01*
X87570Y-27431D01*
X87652Y-27431D01*
X87711Y-27442D01*
X87898Y-27442D01*
X87957Y-27431D01*
X88039Y-27431D01*
X88063Y-27403D01*
X88043Y-27363D01*
X88064Y-27332D01*
X88077Y-27263D01*
X88064Y-27195D01*
X88044Y-27165D01*
X88064Y-27135D01*
X88077Y-27066D01*
X88064Y-26998D01*
X88044Y-26968D01*
X88064Y-26938D01*
X88077Y-26870D01*
X88074Y-26854D01*
X88090Y-26857D01*
X88159Y-26843D01*
X88190Y-26822D01*
X88230Y-26843D01*
X88257Y-26819D01*
X88257Y-26737D01*
X88269Y-26678D01*
X88269Y-26490D01*
X88257Y-26431D01*
X88257Y-26349D01*
X88230Y-26326D01*
X88190Y-26346D01*
X88159Y-26325D01*
X88090Y-26311D01*
X88022Y-26325D01*
X87963Y-26364D01*
X87925Y-26422D01*
X87911Y-26490D01*
X87911Y-26678D01*
X87914Y-26694D01*
X87898Y-26691D01*
X87711Y-26691D01*
X87642Y-26704D01*
X87584Y-26743D01*
X87545Y-26801D01*
X87532Y-26870D01*
X87537Y-26896D01*
X87491Y-26896D01*
X87335Y-26740D01*
X87335Y-26220D01*
X87322Y-26155D01*
X87285Y-26100D01*
X87285Y-26100D01*
X87115Y-25929D01*
X87059Y-25892D01*
X86994Y-25879D01*
X86751Y-25879D01*
X86751Y-25851D01*
X86733Y-25807D01*
X86699Y-25773D01*
X86655Y-25754D01*
X86607Y-25754D01*
X86568Y-25754D01*
X86498Y-25708D01*
X86356Y-25679D01*
X85624Y-25679D01*
X85624Y-25430D01*
X88420Y-25430D01*
X88561Y-25401D01*
X88681Y-25321D01*
X89461Y-24541D01*
X89791Y-24541D01*
X89835Y-24523D01*
X89869Y-24489D01*
X89887Y-24445D01*
X89887Y-24397D01*
X89887Y-25392D01*
X89504Y-25392D01*
X89460Y-25411D01*
X89426Y-25444D01*
X89408Y-25489D01*
X89408Y-25530D01*
X89404Y-25530D01*
X89349Y-25567D01*
X89349Y-25567D01*
X88846Y-26070D01*
X88809Y-26125D01*
X88796Y-26190D01*
X88796Y-26356D01*
X88749Y-26325D01*
X88681Y-26311D01*
X88612Y-26325D01*
X88582Y-26345D01*
X88552Y-26325D01*
X88484Y-26311D01*
X88415Y-26325D01*
X88384Y-26346D01*
X88344Y-26326D01*
X88316Y-26349D01*
X88316Y-26431D01*
X88305Y-26490D01*
X88305Y-26678D01*
X88316Y-26737D01*
X88316Y-26819D01*
X88344Y-26843D01*
X88384Y-26822D01*
X88415Y-26843D01*
X88484Y-26857D01*
X88552Y-26843D01*
X88582Y-26823D01*
X88612Y-26843D01*
X88681Y-26857D01*
X88696Y-26854D01*
X88693Y-26870D01*
X88707Y-26938D01*
X88727Y-26968D01*
X88707Y-26998D01*
X88693Y-27066D01*
X88707Y-27135D01*
X88727Y-27165D01*
X88707Y-27195D01*
X88693Y-27263D01*
X88707Y-27332D01*
X88727Y-27362D01*
X88707Y-27392D01*
X88693Y-27460D01*
X88696Y-27476D01*
X88681Y-27473D01*
X88612Y-27486D01*
X88582Y-27506D01*
X88552Y-27486D01*
X88484Y-27473D01*
X88415Y-27486D01*
X88385Y-27506D01*
X88355Y-27486D01*
X88287Y-27473D01*
X88218Y-27486D01*
X88188Y-27506D01*
X88159Y-27486D01*
X88090Y-27473D01*
X88022Y-27486D01*
X88017Y-27490D01*
X87878Y-27490D01*
X87878Y-27612D01*
X87907Y-27642D01*
X87913Y-27641D01*
X87911Y-27652D01*
X87911Y-27839D01*
X87920Y-27885D01*
X87920Y-29468D01*
X87933Y-29533D01*
X87970Y-29588D01*
X88160Y-29778D01*
X88160Y-29778D01*
X88215Y-29815D01*
X88280Y-29828D01*
X89543Y-29828D01*
X90491Y-30776D01*
X90535Y-30794D01*
X90583Y-30794D01*
X90627Y-30776D01*
X90661Y-30742D01*
X91106Y-30297D01*
X91125Y-30253D01*
X91125Y-30205D01*
X91107Y-30161D01*
X91073Y-30127D01*
X90774Y-29828D01*
X91202Y-29828D01*
X91769Y-30395D01*
X91769Y-30395D01*
X91824Y-30432D01*
X91889Y-30445D01*
X92047Y-30445D01*
X92112Y-30432D01*
X92112Y-30432D01*
X92167Y-30395D01*
X93141Y-29421D01*
X93265Y-29421D01*
X93265Y-29630D01*
X93284Y-29674D01*
X93317Y-29707D01*
X93361Y-29726D01*
X93409Y-29726D01*
X94118Y-29726D01*
X94162Y-29708D01*
X94196Y-29674D01*
X94214Y-29630D01*
X94214Y-29582D01*
X94214Y-29921D01*
X94214Y-29873D01*
X94196Y-29829D01*
X94162Y-29795D01*
X94118Y-29777D01*
X93930Y-29777D01*
X93900Y-29807D01*
X93900Y-30091D01*
X94184Y-30091D01*
X94214Y-30061D01*
X94214Y-29921D01*
X94214Y-30582D01*
X94214Y-30441D01*
X94184Y-30411D01*
X93900Y-30411D01*
X93900Y-30696D01*
X93930Y-30726D01*
X94118Y-30726D01*
X94162Y-30708D01*
X94196Y-30674D01*
X94214Y-30630D01*
X94214Y-30582D01*
X94214Y-30883D01*
X93580Y-30883D01*
X93580Y-30696D01*
X93580Y-30411D01*
X93580Y-30091D01*
X93580Y-29807D01*
X93550Y-29777D01*
X93362Y-29777D01*
X93317Y-29795D01*
X93284Y-29829D01*
X93265Y-29873D01*
X93265Y-29921D01*
X93265Y-30061D01*
X93295Y-30091D01*
X93580Y-30091D01*
X93580Y-30411D01*
X93295Y-30411D01*
X93265Y-30441D01*
X93265Y-30582D01*
X93265Y-30630D01*
X93284Y-30674D01*
X93317Y-30708D01*
X93362Y-30726D01*
X93550Y-30726D01*
X93580Y-30696D01*
X93580Y-30883D01*
X87731Y-30883D01*
X87731Y-27612D01*
X87731Y-27490D01*
X87570Y-27490D01*
X87546Y-27517D01*
X87577Y-27579D01*
X87633Y-27623D01*
X87702Y-27642D01*
X87731Y-27612D01*
X87731Y-30883D01*
X87432Y-30883D01*
X87432Y-30516D01*
X87432Y-28674D01*
X87432Y-28626D01*
X87414Y-28582D01*
X87380Y-28548D01*
X87336Y-28530D01*
X87185Y-28530D01*
X87155Y-28560D01*
X87155Y-29435D01*
X87402Y-29435D01*
X87432Y-29405D01*
X87432Y-28674D01*
X87432Y-30516D01*
X87432Y-29785D01*
X87402Y-29755D01*
X87155Y-29755D01*
X87155Y-30630D01*
X87185Y-30660D01*
X87336Y-30660D01*
X87380Y-30641D01*
X87414Y-30608D01*
X87432Y-30564D01*
X87432Y-30516D01*
X87432Y-30883D01*
X86840Y-30883D01*
X86840Y-30630D01*
X86840Y-29755D01*
X86840Y-29435D01*
X86840Y-28560D01*
X86810Y-28530D01*
X86751Y-28530D01*
X86751Y-26998D01*
X86751Y-26601D01*
X86733Y-26557D01*
X86699Y-26523D01*
X86655Y-26504D01*
X86607Y-26504D01*
X86523Y-26504D01*
X86493Y-26534D01*
X86493Y-26712D01*
X86721Y-26712D01*
X86751Y-26682D01*
X86751Y-26601D01*
X86751Y-26998D01*
X86751Y-26917D01*
X86721Y-26887D01*
X86493Y-26887D01*
X86493Y-27064D01*
X86523Y-27094D01*
X86607Y-27094D01*
X86655Y-27094D01*
X86699Y-27076D01*
X86733Y-27042D01*
X86751Y-26998D01*
X86751Y-28530D01*
X86659Y-28530D01*
X86615Y-28548D01*
X86581Y-28582D01*
X86563Y-28626D01*
X86563Y-28674D01*
X86563Y-29405D01*
X86593Y-29435D01*
X86840Y-29435D01*
X86840Y-29755D01*
X86593Y-29755D01*
X86563Y-29785D01*
X86563Y-30516D01*
X86563Y-30564D01*
X86581Y-30608D01*
X86615Y-30641D01*
X86659Y-30660D01*
X86810Y-30660D01*
X86840Y-30630D01*
X86840Y-30883D01*
X86218Y-30883D01*
X86218Y-27064D01*
X86218Y-26887D01*
X86218Y-26712D01*
X86218Y-26534D01*
X86188Y-26504D01*
X86105Y-26504D01*
X86057Y-26504D01*
X86013Y-26523D01*
X85979Y-26557D01*
X85961Y-26601D01*
X85961Y-26682D01*
X85991Y-26712D01*
X86218Y-26712D01*
X86218Y-26887D01*
X85991Y-26887D01*
X85961Y-26917D01*
X85961Y-26998D01*
X85979Y-27042D01*
X86013Y-27076D01*
X86057Y-27094D01*
X86105Y-27094D01*
X86188Y-27094D01*
X86218Y-27064D01*
X86218Y-30883D01*
X85649Y-30883D01*
X85649Y-26998D01*
X85649Y-26601D01*
X85631Y-26557D01*
X85597Y-26523D01*
X85553Y-26504D01*
X85505Y-26504D01*
X85421Y-26504D01*
X85391Y-26534D01*
X85391Y-26712D01*
X85619Y-26712D01*
X85649Y-26682D01*
X85649Y-26601D01*
X85649Y-26998D01*
X85649Y-26917D01*
X85619Y-26887D01*
X85391Y-26887D01*
X85391Y-27064D01*
X85421Y-27094D01*
X85505Y-27094D01*
X85553Y-27094D01*
X85597Y-27076D01*
X85631Y-27042D01*
X85649Y-26998D01*
X85649Y-30883D01*
X85116Y-30883D01*
X85116Y-27064D01*
X85116Y-26887D01*
X85116Y-26712D01*
X85116Y-26534D01*
X85086Y-26504D01*
X85003Y-26504D01*
X84955Y-26504D01*
X84911Y-26523D01*
X84877Y-26557D01*
X84859Y-26601D01*
X84859Y-26682D01*
X84889Y-26712D01*
X85116Y-26712D01*
X85116Y-26887D01*
X84889Y-26887D01*
X84859Y-26917D01*
X84859Y-26998D01*
X84877Y-27042D01*
X84911Y-27076D01*
X84955Y-27094D01*
X85003Y-27094D01*
X85086Y-27094D01*
X85116Y-27064D01*
X85116Y-30883D01*
X83194Y-30883D01*
X83194Y-29177D01*
X83054Y-28839D01*
X82795Y-28580D01*
X82458Y-28440D01*
X82458Y-26803D01*
X82445Y-26740D01*
X82400Y-26700D01*
X82246Y-26854D01*
X82400Y-27007D01*
X82445Y-26968D01*
X82458Y-26803D01*
X82458Y-28440D01*
X82457Y-28440D01*
X82191Y-28439D01*
X82191Y-27216D01*
X82191Y-26492D01*
X82151Y-26446D01*
X81987Y-26434D01*
X81967Y-26437D01*
X81967Y-25077D01*
X81967Y-23825D01*
X81949Y-23781D01*
X81915Y-23747D01*
X81871Y-23729D01*
X81823Y-23729D01*
X81036Y-23729D01*
X80992Y-23747D01*
X80958Y-23781D01*
X80939Y-23825D01*
X80939Y-23873D01*
X80939Y-24105D01*
X79503Y-24105D01*
X79361Y-24133D01*
X79241Y-24213D01*
X79028Y-24426D01*
X78384Y-24426D01*
X78340Y-24445D01*
X78306Y-24478D01*
X78288Y-24522D01*
X78288Y-24570D01*
X78288Y-24649D01*
X77229Y-24649D01*
X77229Y-24523D01*
X77210Y-24478D01*
X77177Y-24445D01*
X77133Y-24426D01*
X77085Y-24426D01*
X75983Y-24426D01*
X75938Y-24445D01*
X75905Y-24478D01*
X75886Y-24522D01*
X75886Y-24570D01*
X75886Y-25515D01*
X75905Y-25559D01*
X75938Y-25593D01*
X75982Y-25611D01*
X76030Y-25611D01*
X77132Y-25611D01*
X77177Y-25593D01*
X77210Y-25559D01*
X77229Y-25515D01*
X77229Y-25467D01*
X77229Y-25389D01*
X78288Y-25389D01*
X78288Y-25515D01*
X78306Y-25559D01*
X78340Y-25593D01*
X78384Y-25611D01*
X78432Y-25611D01*
X79534Y-25611D01*
X79578Y-25593D01*
X79612Y-25559D01*
X79630Y-25515D01*
X79630Y-25467D01*
X79630Y-24871D01*
X79656Y-24845D01*
X80939Y-24845D01*
X80939Y-25125D01*
X80958Y-25169D01*
X80991Y-25203D01*
X81035Y-25221D01*
X81083Y-25221D01*
X81871Y-25221D01*
X81915Y-25203D01*
X81949Y-25169D01*
X81967Y-25125D01*
X81967Y-25077D01*
X81967Y-26437D01*
X81924Y-26446D01*
X81884Y-26492D01*
X82038Y-26645D01*
X82191Y-26492D01*
X82191Y-27216D01*
X82038Y-27063D01*
X81884Y-27216D01*
X81924Y-27262D01*
X82088Y-27274D01*
X82151Y-27262D01*
X82191Y-27216D01*
X82191Y-28439D01*
X82091Y-28439D01*
X81829Y-28548D01*
X81829Y-26854D01*
X81675Y-26700D01*
X81630Y-26740D01*
X81617Y-26905D01*
X81630Y-26968D01*
X81675Y-27007D01*
X81829Y-26854D01*
X81829Y-28548D01*
X81753Y-28579D01*
X81494Y-28838D01*
X81354Y-29176D01*
X81353Y-29542D01*
X81493Y-29880D01*
X81752Y-30139D01*
X82090Y-30279D01*
X82456Y-30280D01*
X82794Y-30140D01*
X83053Y-29881D01*
X83193Y-29543D01*
X83194Y-29177D01*
X83194Y-30883D01*
X79630Y-30883D01*
X79630Y-29877D01*
X79630Y-28932D01*
X79612Y-28888D01*
X79578Y-28854D01*
X79534Y-28836D01*
X79486Y-28836D01*
X78804Y-28836D01*
X78804Y-27130D01*
X78732Y-26955D01*
X78598Y-26822D01*
X78424Y-26749D01*
X78235Y-26749D01*
X78061Y-26821D01*
X77927Y-26954D01*
X77855Y-27129D01*
X77855Y-27317D01*
X77927Y-27492D01*
X78060Y-27625D01*
X78234Y-27698D01*
X78423Y-27698D01*
X78597Y-27626D01*
X78731Y-27493D01*
X78803Y-27318D01*
X78804Y-27130D01*
X78804Y-28836D01*
X78384Y-28836D01*
X78340Y-28854D01*
X78306Y-28888D01*
X78288Y-28932D01*
X78288Y-28980D01*
X78288Y-29924D01*
X78306Y-29969D01*
X78340Y-30002D01*
X78384Y-30021D01*
X78432Y-30021D01*
X79534Y-30021D01*
X79578Y-30002D01*
X79612Y-29969D01*
X79630Y-29925D01*
X79630Y-29877D01*
X79630Y-30883D01*
X77229Y-30883D01*
X77229Y-29877D01*
X77229Y-28980D01*
X77229Y-28932D01*
X77210Y-28888D01*
X77177Y-28854D01*
X77132Y-28836D01*
X76993Y-28836D01*
X76993Y-27137D01*
X76926Y-26977D01*
X76804Y-26855D01*
X76644Y-26789D01*
X76471Y-26788D01*
X76311Y-26855D01*
X76189Y-26977D01*
X76123Y-27137D01*
X76122Y-27310D01*
X76189Y-27470D01*
X76311Y-27592D01*
X76471Y-27658D01*
X76644Y-27659D01*
X76804Y-27592D01*
X76926Y-27470D01*
X76992Y-27310D01*
X76993Y-27137D01*
X76993Y-28836D01*
X76748Y-28836D01*
X76718Y-28866D01*
X76718Y-29268D01*
X77199Y-29268D01*
X77229Y-29238D01*
X77229Y-28980D01*
X77229Y-29877D01*
X77229Y-29618D01*
X77199Y-29588D01*
X76718Y-29588D01*
X76718Y-29991D01*
X76748Y-30021D01*
X77132Y-30021D01*
X77177Y-30002D01*
X77210Y-29969D01*
X77229Y-29925D01*
X77229Y-29877D01*
X77229Y-30883D01*
X76398Y-30883D01*
X76398Y-29991D01*
X76398Y-29588D01*
X76398Y-29268D01*
X76398Y-28866D01*
X76368Y-28836D01*
X75983Y-28836D01*
X75938Y-28854D01*
X75905Y-28888D01*
X75886Y-28932D01*
X75886Y-28980D01*
X75886Y-29238D01*
X75916Y-29268D01*
X76398Y-29268D01*
X76398Y-29588D01*
X75916Y-29588D01*
X75886Y-29618D01*
X75886Y-29877D01*
X75886Y-29925D01*
X75905Y-29969D01*
X75938Y-30002D01*
X75983Y-30021D01*
X76368Y-30021D01*
X76398Y-29991D01*
X76398Y-30883D01*
X75415Y-30883D01*
X75415Y-23564D01*
X94466Y-23564D01*
X94466Y-30883D01*
X94466Y-30883D01*
G37*
G54D26*
X94466Y-30883D02*
X94384Y-30883D01*
X94384Y-24424D01*
X94244Y-24085D01*
X93986Y-23826D01*
X93648Y-23686D01*
X93282Y-23686D01*
X92944Y-23825D01*
X92685Y-24084D01*
X92544Y-24422D01*
X92544Y-24788D01*
X92684Y-25126D01*
X92942Y-25385D01*
X93280Y-25526D01*
X93646Y-25526D01*
X93985Y-25386D01*
X94244Y-25128D01*
X94384Y-24790D01*
X94384Y-24424D01*
X94384Y-30883D01*
X94214Y-30883D01*
X94214Y-30582D01*
X94214Y-29921D01*
X94214Y-29582D01*
X94214Y-28873D01*
X94214Y-27944D01*
X94214Y-27283D01*
X94214Y-27235D01*
X94196Y-27191D01*
X94162Y-27158D01*
X94118Y-27139D01*
X93930Y-27139D01*
X93900Y-27169D01*
X93900Y-27454D01*
X94184Y-27454D01*
X94214Y-27424D01*
X94214Y-27283D01*
X94214Y-27944D01*
X94214Y-27804D01*
X94184Y-27774D01*
X93900Y-27774D01*
X93900Y-28058D01*
X93930Y-28088D01*
X94118Y-28088D01*
X94162Y-28070D01*
X94196Y-28036D01*
X94214Y-27992D01*
X94214Y-27944D01*
X94214Y-28873D01*
X94196Y-28829D01*
X94162Y-28795D01*
X94118Y-28777D01*
X94070Y-28777D01*
X93580Y-28777D01*
X93580Y-28058D01*
X93580Y-27774D01*
X93580Y-27454D01*
X93580Y-27169D01*
X93550Y-27139D01*
X93362Y-27139D01*
X93317Y-27158D01*
X93284Y-27191D01*
X93265Y-27235D01*
X93265Y-27283D01*
X93265Y-27424D01*
X93295Y-27454D01*
X93580Y-27454D01*
X93580Y-27774D01*
X93295Y-27774D01*
X93265Y-27804D01*
X93265Y-27944D01*
X93265Y-27992D01*
X93284Y-28036D01*
X93317Y-28070D01*
X93362Y-28088D01*
X93550Y-28088D01*
X93580Y-28058D01*
X93580Y-28777D01*
X93506Y-28777D01*
X92221Y-27492D01*
X91932Y-26976D01*
X91950Y-26933D01*
X91950Y-26885D01*
X91950Y-26784D01*
X92598Y-26784D01*
X93265Y-26784D01*
X93265Y-26992D01*
X93284Y-27036D01*
X93317Y-27070D01*
X93361Y-27088D01*
X93409Y-27088D01*
X94118Y-27088D01*
X94162Y-27070D01*
X94196Y-27036D01*
X94214Y-26992D01*
X94214Y-26944D01*
X94214Y-26236D01*
X94196Y-26191D01*
X94162Y-26158D01*
X94118Y-26139D01*
X94070Y-26139D01*
X93362Y-26139D01*
X93317Y-26158D01*
X93284Y-26191D01*
X93265Y-26235D01*
X93265Y-26283D01*
X93265Y-26444D01*
X92598Y-26444D01*
X91955Y-26444D01*
X91955Y-25185D01*
X91943Y-25122D01*
X91897Y-25082D01*
X91744Y-25236D01*
X91897Y-25389D01*
X91943Y-25350D01*
X91955Y-25185D01*
X91955Y-26444D01*
X91950Y-26444D01*
X91950Y-26295D01*
X91932Y-26251D01*
X91898Y-26217D01*
X91854Y-26198D01*
X91806Y-26198D01*
X91688Y-26198D01*
X91688Y-25598D01*
X91688Y-24873D01*
X91649Y-24828D01*
X91484Y-24815D01*
X91421Y-24828D01*
X91381Y-24873D01*
X91535Y-25027D01*
X91688Y-24873D01*
X91688Y-25598D01*
X91535Y-25445D01*
X91381Y-25598D01*
X91421Y-25644D01*
X91586Y-25656D01*
X91649Y-25644D01*
X91688Y-25598D01*
X91688Y-26198D01*
X91326Y-26198D01*
X91326Y-25236D01*
X91173Y-25082D01*
X91127Y-25122D01*
X91115Y-25287D01*
X91127Y-25350D01*
X91173Y-25389D01*
X91326Y-25236D01*
X91326Y-26198D01*
X91216Y-26198D01*
X91172Y-26217D01*
X91138Y-26250D01*
X91120Y-26294D01*
X91120Y-26342D01*
X91120Y-26933D01*
X91138Y-26977D01*
X91172Y-27011D01*
X91216Y-27029D01*
X91263Y-27029D01*
X91572Y-27029D01*
X91937Y-27681D01*
X91957Y-27705D01*
X91966Y-27718D01*
X93265Y-29018D01*
X93265Y-29081D01*
X93070Y-29081D01*
X93005Y-29094D01*
X92950Y-29131D01*
X91976Y-30105D01*
X91960Y-30105D01*
X91392Y-29538D01*
X91337Y-29501D01*
X91272Y-29488D01*
X90434Y-29488D01*
X89486Y-28540D01*
X89442Y-28522D01*
X89394Y-28522D01*
X89350Y-28540D01*
X89316Y-28574D01*
X88871Y-29019D01*
X88853Y-29063D01*
X88853Y-29111D01*
X88871Y-29155D01*
X88904Y-29189D01*
X89203Y-29488D01*
X88350Y-29488D01*
X88260Y-29398D01*
X88260Y-28013D01*
X88287Y-28018D01*
X88355Y-28005D01*
X88385Y-27985D01*
X88415Y-28005D01*
X88484Y-28018D01*
X88552Y-28005D01*
X88582Y-27985D01*
X88612Y-28005D01*
X88681Y-28018D01*
X88749Y-28005D01*
X88807Y-27966D01*
X88846Y-27908D01*
X88860Y-27839D01*
X88860Y-27652D01*
X88857Y-27636D01*
X88872Y-27639D01*
X89060Y-27639D01*
X89128Y-27626D01*
X89186Y-27587D01*
X89225Y-27529D01*
X89239Y-27460D01*
X89234Y-27433D01*
X89547Y-27433D01*
X89612Y-27420D01*
X89612Y-27420D01*
X89667Y-27383D01*
X89923Y-27128D01*
X89923Y-27128D01*
X89923Y-27128D01*
X89960Y-27072D01*
X89973Y-27007D01*
X89973Y-27007D01*
X89973Y-27007D01*
X89973Y-26733D01*
X90101Y-26733D01*
X90146Y-26714D01*
X90179Y-26681D01*
X90198Y-26636D01*
X90198Y-26589D01*
X90198Y-26239D01*
X90179Y-26195D01*
X90146Y-26161D01*
X90102Y-26143D01*
X90054Y-26142D01*
X89504Y-26142D01*
X89460Y-26161D01*
X89426Y-26194D01*
X89408Y-26239D01*
X89408Y-26286D01*
X89408Y-26636D01*
X89426Y-26680D01*
X89460Y-26714D01*
X89504Y-26732D01*
X89551Y-26733D01*
X89633Y-26733D01*
X89633Y-26937D01*
X89476Y-27093D01*
X89234Y-27093D01*
X89239Y-27066D01*
X89225Y-26998D01*
X89205Y-26968D01*
X89225Y-26938D01*
X89239Y-26870D01*
X89225Y-26801D01*
X89186Y-26743D01*
X89136Y-26709D01*
X89136Y-26261D01*
X89446Y-25951D01*
X89460Y-25964D01*
X89504Y-25982D01*
X89551Y-25983D01*
X90101Y-25983D01*
X90146Y-25964D01*
X90179Y-25931D01*
X90198Y-25886D01*
X90198Y-25857D01*
X90499Y-25857D01*
X90774Y-26133D01*
X90774Y-27223D01*
X90750Y-27213D01*
X90703Y-27213D01*
X90658Y-27232D01*
X90625Y-27265D01*
X90179Y-27711D01*
X90161Y-27755D01*
X90161Y-27803D01*
X90179Y-27847D01*
X90213Y-27880D01*
X91800Y-29467D01*
X91844Y-29486D01*
X91892Y-29486D01*
X91936Y-29467D01*
X91969Y-29434D01*
X92415Y-28988D01*
X92433Y-28944D01*
X92433Y-28896D01*
X92415Y-28852D01*
X92381Y-28818D01*
X91114Y-27552D01*
X91114Y-26062D01*
X91101Y-25997D01*
X91065Y-25942D01*
X91065Y-25942D01*
X90887Y-25765D01*
X90887Y-24445D01*
X90887Y-23688D01*
X90869Y-23644D01*
X90835Y-23610D01*
X90791Y-23592D01*
X90743Y-23592D01*
X90603Y-23592D01*
X90573Y-23622D01*
X90573Y-23907D01*
X90857Y-23907D01*
X90887Y-23877D01*
X90887Y-23688D01*
X90887Y-24445D01*
X90887Y-24257D01*
X90857Y-24227D01*
X90573Y-24227D01*
X90573Y-24511D01*
X90603Y-24541D01*
X90743Y-24541D01*
X90791Y-24541D01*
X90835Y-24523D01*
X90869Y-24489D01*
X90887Y-24445D01*
X90887Y-25765D01*
X90690Y-25567D01*
X90634Y-25530D01*
X90569Y-25517D01*
X90253Y-25517D01*
X90253Y-24511D01*
X90253Y-24227D01*
X90253Y-23907D01*
X90253Y-23622D01*
X90223Y-23592D01*
X90082Y-23592D01*
X90034Y-23592D01*
X89990Y-23610D01*
X89956Y-23644D01*
X89938Y-23688D01*
X89938Y-23877D01*
X89968Y-23907D01*
X90253Y-23907D01*
X90253Y-24227D01*
X89968Y-24227D01*
X89938Y-24257D01*
X89938Y-24445D01*
X89956Y-24489D01*
X89990Y-24523D01*
X90034Y-24541D01*
X90082Y-24541D01*
X90223Y-24541D01*
X90253Y-24511D01*
X90253Y-25517D01*
X90198Y-25517D01*
X90198Y-25489D01*
X90179Y-25445D01*
X90146Y-25411D01*
X90102Y-25393D01*
X90054Y-25392D01*
X89887Y-25392D01*
X89887Y-24397D01*
X89887Y-23688D01*
X89869Y-23644D01*
X89835Y-23610D01*
X89791Y-23592D01*
X89743Y-23592D01*
X89034Y-23592D01*
X88990Y-23610D01*
X88956Y-23644D01*
X88938Y-23688D01*
X88938Y-23736D01*
X88938Y-24018D01*
X88266Y-24690D01*
X87117Y-24690D01*
X87117Y-24445D01*
X87117Y-23688D01*
X87099Y-23644D01*
X87065Y-23610D01*
X87021Y-23592D01*
X86973Y-23592D01*
X86833Y-23592D01*
X86803Y-23622D01*
X86803Y-23907D01*
X87087Y-23907D01*
X87117Y-23877D01*
X87117Y-23688D01*
X87117Y-24445D01*
X87117Y-24257D01*
X87087Y-24227D01*
X86803Y-24227D01*
X86803Y-24511D01*
X86833Y-24541D01*
X86973Y-24541D01*
X87021Y-24541D01*
X87065Y-24523D01*
X87099Y-24489D01*
X87117Y-24445D01*
X87117Y-24690D01*
X86483Y-24690D01*
X86483Y-24511D01*
X86483Y-24227D01*
X86483Y-23907D01*
X86483Y-23622D01*
X86453Y-23592D01*
X86312Y-23592D01*
X86264Y-23592D01*
X86220Y-23610D01*
X86186Y-23644D01*
X86168Y-23688D01*
X86168Y-23877D01*
X86198Y-23907D01*
X86483Y-23907D01*
X86483Y-24227D01*
X86198Y-24227D01*
X86168Y-24257D01*
X86168Y-24445D01*
X86186Y-24489D01*
X86220Y-24523D01*
X86264Y-24541D01*
X86312Y-24541D01*
X86453Y-24541D01*
X86483Y-24511D01*
X86483Y-24690D01*
X85624Y-24690D01*
X85624Y-24608D01*
X85691Y-24541D01*
X86021Y-24541D01*
X86065Y-24523D01*
X86099Y-24489D01*
X86117Y-24445D01*
X86117Y-24397D01*
X86117Y-23688D01*
X86099Y-23644D01*
X86065Y-23610D01*
X86021Y-23592D01*
X85973Y-23592D01*
X85264Y-23592D01*
X85220Y-23610D01*
X85186Y-23644D01*
X85168Y-23688D01*
X85168Y-23736D01*
X85168Y-24018D01*
X85081Y-24105D01*
X85081Y-24105D01*
X83935Y-24105D01*
X83935Y-23825D01*
X83917Y-23781D01*
X83883Y-23747D01*
X83839Y-23729D01*
X83792Y-23729D01*
X83004Y-23729D01*
X82960Y-23747D01*
X82926Y-23781D01*
X82908Y-23825D01*
X82908Y-23873D01*
X82908Y-25125D01*
X82926Y-25169D01*
X82960Y-25203D01*
X83004Y-25221D01*
X83045Y-25221D01*
X83045Y-26464D01*
X83019Y-26491D01*
X83000Y-26535D01*
X83000Y-26582D01*
X83000Y-27173D01*
X83018Y-27217D01*
X83052Y-27251D01*
X83096Y-27269D01*
X83144Y-27269D01*
X83307Y-27269D01*
X84187Y-28148D01*
X84187Y-28543D01*
X84174Y-28548D01*
X84140Y-28582D01*
X84122Y-28626D01*
X84122Y-28674D01*
X84122Y-30563D01*
X84140Y-30608D01*
X84174Y-30641D01*
X84218Y-30660D01*
X84265Y-30660D01*
X84895Y-30660D01*
X84939Y-30641D01*
X84973Y-30608D01*
X84991Y-30564D01*
X84992Y-30516D01*
X84992Y-28626D01*
X84973Y-28582D01*
X84940Y-28548D01*
X84927Y-28543D01*
X84927Y-27995D01*
X84898Y-27853D01*
X84818Y-27733D01*
X83831Y-26746D01*
X83831Y-26535D01*
X83813Y-26491D01*
X83785Y-26464D01*
X83785Y-25221D01*
X83839Y-25221D01*
X83883Y-25203D01*
X83917Y-25169D01*
X83935Y-25125D01*
X83935Y-25077D01*
X83935Y-24845D01*
X84884Y-24845D01*
X84884Y-25060D01*
X84884Y-25800D01*
X84877Y-25806D01*
X84859Y-25851D01*
X84859Y-25898D01*
X84859Y-26248D01*
X84877Y-26292D01*
X84911Y-26326D01*
X84955Y-26344D01*
X85003Y-26344D01*
X85042Y-26344D01*
X85112Y-26391D01*
X85254Y-26419D01*
X86356Y-26419D01*
X86498Y-26391D01*
X86568Y-26344D01*
X86655Y-26344D01*
X86699Y-26326D01*
X86733Y-26293D01*
X86751Y-26248D01*
X86751Y-26219D01*
X86924Y-26219D01*
X86995Y-26290D01*
X86995Y-26811D01*
X87008Y-26876D01*
X87045Y-26931D01*
X87301Y-27187D01*
X87301Y-27187D01*
X87356Y-27223D01*
X87421Y-27236D01*
X87421Y-27236D01*
X87421Y-27236D01*
X87537Y-27236D01*
X87532Y-27263D01*
X87545Y-27332D01*
X87566Y-27363D01*
X87546Y-27403D01*
X87570Y-27431D01*
X87652Y-27431D01*
X87711Y-27442D01*
X87898Y-27442D01*
X87957Y-27431D01*
X88039Y-27431D01*
X88063Y-27403D01*
X88043Y-27363D01*
X88064Y-27332D01*
X88077Y-27263D01*
X88064Y-27195D01*
X88044Y-27165D01*
X88064Y-27135D01*
X88077Y-27066D01*
X88064Y-26998D01*
X88044Y-26968D01*
X88064Y-26938D01*
X88077Y-26870D01*
X88074Y-26854D01*
X88090Y-26857D01*
X88159Y-26843D01*
X88190Y-26822D01*
X88230Y-26843D01*
X88257Y-26819D01*
X88257Y-26737D01*
X88269Y-26678D01*
X88269Y-26490D01*
X88257Y-26431D01*
X88257Y-26349D01*
X88230Y-26326D01*
X88190Y-26346D01*
X88159Y-26325D01*
X88090Y-26311D01*
X88022Y-26325D01*
X87963Y-26364D01*
X87925Y-26422D01*
X87911Y-26490D01*
X87911Y-26678D01*
X87914Y-26694D01*
X87898Y-26691D01*
X87711Y-26691D01*
X87642Y-26704D01*
X87584Y-26743D01*
X87545Y-26801D01*
X87532Y-26870D01*
X87537Y-26896D01*
X87491Y-26896D01*
X87335Y-26740D01*
X87335Y-26220D01*
X87322Y-26155D01*
X87285Y-26100D01*
X87285Y-26100D01*
X87115Y-25929D01*
X87059Y-25892D01*
X86994Y-25879D01*
X86751Y-25879D01*
X86751Y-25851D01*
X86733Y-25807D01*
X86699Y-25773D01*
X86655Y-25754D01*
X86607Y-25754D01*
X86568Y-25754D01*
X86498Y-25708D01*
X86356Y-25679D01*
X85624Y-25679D01*
X85624Y-25430D01*
X88420Y-25430D01*
X88561Y-25401D01*
X88681Y-25321D01*
X89461Y-24541D01*
X89791Y-24541D01*
X89835Y-24523D01*
X89869Y-24489D01*
X89887Y-24445D01*
X89887Y-24397D01*
X89887Y-25392D01*
X89504Y-25392D01*
X89460Y-25411D01*
X89426Y-25444D01*
X89408Y-25489D01*
X89408Y-25530D01*
X89404Y-25530D01*
X89349Y-25567D01*
X89349Y-25567D01*
X88846Y-26070D01*
X88809Y-26125D01*
X88796Y-26190D01*
X88796Y-26356D01*
X88749Y-26325D01*
X88681Y-26311D01*
X88612Y-26325D01*
X88582Y-26345D01*
X88552Y-26325D01*
X88484Y-26311D01*
X88415Y-26325D01*
X88384Y-26346D01*
X88344Y-26326D01*
X88316Y-26349D01*
X88316Y-26431D01*
X88305Y-26490D01*
X88305Y-26678D01*
X88316Y-26737D01*
X88316Y-26819D01*
X88344Y-26843D01*
X88384Y-26822D01*
X88415Y-26843D01*
X88484Y-26857D01*
X88552Y-26843D01*
X88582Y-26823D01*
X88612Y-26843D01*
X88681Y-26857D01*
X88696Y-26854D01*
X88693Y-26870D01*
X88707Y-26938D01*
X88727Y-26968D01*
X88707Y-26998D01*
X88693Y-27066D01*
X88707Y-27135D01*
X88727Y-27165D01*
X88707Y-27195D01*
X88693Y-27263D01*
X88707Y-27332D01*
X88727Y-27362D01*
X88707Y-27392D01*
X88693Y-27460D01*
X88696Y-27476D01*
X88681Y-27473D01*
X88612Y-27486D01*
X88582Y-27506D01*
X88552Y-27486D01*
X88484Y-27473D01*
X88415Y-27486D01*
X88385Y-27506D01*
X88355Y-27486D01*
X88287Y-27473D01*
X88218Y-27486D01*
X88188Y-27506D01*
X88159Y-27486D01*
X88090Y-27473D01*
X88022Y-27486D01*
X88017Y-27490D01*
X87878Y-27490D01*
X87878Y-27612D01*
X87907Y-27642D01*
X87913Y-27641D01*
X87911Y-27652D01*
X87911Y-27839D01*
X87920Y-27885D01*
X87920Y-29468D01*
X87933Y-29533D01*
X87970Y-29588D01*
X88160Y-29778D01*
X88160Y-29778D01*
X88215Y-29815D01*
X88280Y-29828D01*
X89543Y-29828D01*
X90491Y-30776D01*
X90535Y-30794D01*
X90583Y-30794D01*
X90627Y-30776D01*
X90661Y-30742D01*
X91106Y-30297D01*
X91125Y-30253D01*
X91125Y-30205D01*
X91107Y-30161D01*
X91073Y-30127D01*
X90774Y-29828D01*
X91202Y-29828D01*
X91769Y-30395D01*
X91769Y-30395D01*
X91824Y-30432D01*
X91889Y-30445D01*
X92047Y-30445D01*
X92112Y-30432D01*
X92112Y-30432D01*
X92167Y-30395D01*
X93141Y-29421D01*
X93265Y-29421D01*
X93265Y-29630D01*
X93284Y-29674D01*
X93317Y-29707D01*
X93361Y-29726D01*
X93409Y-29726D01*
X94118Y-29726D01*
X94162Y-29708D01*
X94196Y-29674D01*
X94214Y-29630D01*
X94214Y-29582D01*
X94214Y-29921D01*
X94214Y-29873D01*
X94196Y-29829D01*
X94162Y-29795D01*
X94118Y-29777D01*
X93930Y-29777D01*
X93900Y-29807D01*
X93900Y-30091D01*
X94184Y-30091D01*
X94214Y-30061D01*
X94214Y-29921D01*
X94214Y-30582D01*
X94214Y-30441D01*
X94184Y-30411D01*
X93900Y-30411D01*
X93900Y-30696D01*
X93930Y-30726D01*
X94118Y-30726D01*
X94162Y-30708D01*
X94196Y-30674D01*
X94214Y-30630D01*
X94214Y-30582D01*
X94214Y-30883D01*
X93580Y-30883D01*
X93580Y-30696D01*
X93580Y-30411D01*
X93580Y-30091D01*
X93580Y-29807D01*
X93550Y-29777D01*
X93362Y-29777D01*
X93317Y-29795D01*
X93284Y-29829D01*
X93265Y-29873D01*
X93265Y-29921D01*
X93265Y-30061D01*
X93295Y-30091D01*
X93580Y-30091D01*
X93580Y-30411D01*
X93295Y-30411D01*
X93265Y-30441D01*
X93265Y-30582D01*
X93265Y-30630D01*
X93284Y-30674D01*
X93317Y-30708D01*
X93362Y-30726D01*
X93550Y-30726D01*
X93580Y-30696D01*
X93580Y-30883D01*
X87731Y-30883D01*
X87731Y-27612D01*
X87731Y-27490D01*
X87570Y-27490D01*
X87546Y-27517D01*
X87577Y-27579D01*
X87633Y-27623D01*
X87702Y-27642D01*
X87731Y-27612D01*
X87731Y-30883D01*
X87432Y-30883D01*
X87432Y-30516D01*
X87432Y-28674D01*
X87432Y-28626D01*
X87414Y-28582D01*
X87380Y-28548D01*
X87336Y-28530D01*
X87185Y-28530D01*
X87155Y-28560D01*
X87155Y-29435D01*
X87402Y-29435D01*
X87432Y-29405D01*
X87432Y-28674D01*
X87432Y-30516D01*
X87432Y-29785D01*
X87402Y-29755D01*
X87155Y-29755D01*
X87155Y-30630D01*
X87185Y-30660D01*
X87336Y-30660D01*
X87380Y-30641D01*
X87414Y-30608D01*
X87432Y-30564D01*
X87432Y-30516D01*
X87432Y-30883D01*
X86840Y-30883D01*
X86840Y-30630D01*
X86840Y-29755D01*
X86840Y-29435D01*
X86840Y-28560D01*
X86810Y-28530D01*
X86751Y-28530D01*
X86751Y-26998D01*
X86751Y-26601D01*
X86733Y-26557D01*
X86699Y-26523D01*
X86655Y-26504D01*
X86607Y-26504D01*
X86523Y-26504D01*
X86493Y-26534D01*
X86493Y-26712D01*
X86721Y-26712D01*
X86751Y-26682D01*
X86751Y-26601D01*
X86751Y-26998D01*
X86751Y-26917D01*
X86721Y-26887D01*
X86493Y-26887D01*
X86493Y-27064D01*
X86523Y-27094D01*
X86607Y-27094D01*
X86655Y-27094D01*
X86699Y-27076D01*
X86733Y-27042D01*
X86751Y-26998D01*
X86751Y-28530D01*
X86659Y-28530D01*
X86615Y-28548D01*
X86581Y-28582D01*
X86563Y-28626D01*
X86563Y-28674D01*
X86563Y-29405D01*
X86593Y-29435D01*
X86840Y-29435D01*
X86840Y-29755D01*
X86593Y-29755D01*
X86563Y-29785D01*
X86563Y-30516D01*
X86563Y-30564D01*
X86581Y-30608D01*
X86615Y-30641D01*
X86659Y-30660D01*
X86810Y-30660D01*
X86840Y-30630D01*
X86840Y-30883D01*
X86218Y-30883D01*
X86218Y-27064D01*
X86218Y-26887D01*
X86218Y-26712D01*
X86218Y-26534D01*
X86188Y-26504D01*
X86105Y-26504D01*
X86057Y-26504D01*
X86013Y-26523D01*
X85979Y-26557D01*
X85961Y-26601D01*
X85961Y-26682D01*
X85991Y-26712D01*
X86218Y-26712D01*
X86218Y-26887D01*
X85991Y-26887D01*
X85961Y-26917D01*
X85961Y-26998D01*
X85979Y-27042D01*
X86013Y-27076D01*
X86057Y-27094D01*
X86105Y-27094D01*
X86188Y-27094D01*
X86218Y-27064D01*
X86218Y-30883D01*
X85649Y-30883D01*
X85649Y-26998D01*
X85649Y-26601D01*
X85631Y-26557D01*
X85597Y-26523D01*
X85553Y-26504D01*
X85505Y-26504D01*
X85421Y-26504D01*
X85391Y-26534D01*
X85391Y-26712D01*
X85619Y-26712D01*
X85649Y-26682D01*
X85649Y-26601D01*
X85649Y-26998D01*
X85649Y-26917D01*
X85619Y-26887D01*
X85391Y-26887D01*
X85391Y-27064D01*
X85421Y-27094D01*
X85505Y-27094D01*
X85553Y-27094D01*
X85597Y-27076D01*
X85631Y-27042D01*
X85649Y-26998D01*
X85649Y-30883D01*
X85116Y-30883D01*
X85116Y-27064D01*
X85116Y-26887D01*
X85116Y-26712D01*
X85116Y-26534D01*
X85086Y-26504D01*
X85003Y-26504D01*
X84955Y-26504D01*
X84911Y-26523D01*
X84877Y-26557D01*
X84859Y-26601D01*
X84859Y-26682D01*
X84889Y-26712D01*
X85116Y-26712D01*
X85116Y-26887D01*
X84889Y-26887D01*
X84859Y-26917D01*
X84859Y-26998D01*
X84877Y-27042D01*
X84911Y-27076D01*
X84955Y-27094D01*
X85003Y-27094D01*
X85086Y-27094D01*
X85116Y-27064D01*
X85116Y-30883D01*
X83194Y-30883D01*
X83194Y-29177D01*
X83054Y-28839D01*
X82795Y-28580D01*
X82458Y-28440D01*
X82458Y-26803D01*
X82445Y-26740D01*
X82400Y-26700D01*
X82246Y-26854D01*
X82400Y-27007D01*
X82445Y-26968D01*
X82458Y-26803D01*
X82458Y-28440D01*
X82457Y-28440D01*
X82191Y-28439D01*
X82191Y-27216D01*
X82191Y-26492D01*
X82151Y-26446D01*
X81987Y-26434D01*
X81967Y-26437D01*
X81967Y-25077D01*
X81967Y-23825D01*
X81949Y-23781D01*
X81915Y-23747D01*
X81871Y-23729D01*
X81823Y-23729D01*
X81036Y-23729D01*
X80992Y-23747D01*
X80958Y-23781D01*
X80939Y-23825D01*
X80939Y-23873D01*
X80939Y-24105D01*
X79503Y-24105D01*
X79361Y-24133D01*
X79241Y-24213D01*
X79028Y-24426D01*
X78384Y-24426D01*
X78340Y-24445D01*
X78306Y-24478D01*
X78288Y-24522D01*
X78288Y-24570D01*
X78288Y-24649D01*
X77229Y-24649D01*
X77229Y-24523D01*
X77210Y-24478D01*
X77177Y-24445D01*
X77133Y-24426D01*
X77085Y-24426D01*
X75983Y-24426D01*
X75938Y-24445D01*
X75905Y-24478D01*
X75886Y-24522D01*
X75886Y-24570D01*
X75886Y-25515D01*
X75905Y-25559D01*
X75938Y-25593D01*
X75982Y-25611D01*
X76030Y-25611D01*
X77132Y-25611D01*
X77177Y-25593D01*
X77210Y-25559D01*
X77229Y-25515D01*
X77229Y-25467D01*
X77229Y-25389D01*
X78288Y-25389D01*
X78288Y-25515D01*
X78306Y-25559D01*
X78340Y-25593D01*
X78384Y-25611D01*
X78432Y-25611D01*
X79534Y-25611D01*
X79578Y-25593D01*
X79612Y-25559D01*
X79630Y-25515D01*
X79630Y-25467D01*
X79630Y-24871D01*
X79656Y-24845D01*
X80939Y-24845D01*
X80939Y-25125D01*
X80958Y-25169D01*
X80991Y-25203D01*
X81035Y-25221D01*
X81083Y-25221D01*
X81871Y-25221D01*
X81915Y-25203D01*
X81949Y-25169D01*
X81967Y-25125D01*
X81967Y-25077D01*
X81967Y-26437D01*
X81924Y-26446D01*
X81884Y-26492D01*
X82038Y-26645D01*
X82191Y-26492D01*
X82191Y-27216D01*
X82038Y-27063D01*
X81884Y-27216D01*
X81924Y-27262D01*
X82088Y-27274D01*
X82151Y-27262D01*
X82191Y-27216D01*
X82191Y-28439D01*
X82091Y-28439D01*
X81829Y-28548D01*
X81829Y-26854D01*
X81675Y-26700D01*
X81630Y-26740D01*
X81617Y-26905D01*
X81630Y-26968D01*
X81675Y-27007D01*
X81829Y-26854D01*
X81829Y-28548D01*
X81753Y-28579D01*
X81494Y-28838D01*
X81354Y-29176D01*
X81353Y-29542D01*
X81493Y-29880D01*
X81752Y-30139D01*
X82090Y-30279D01*
X82456Y-30280D01*
X82794Y-30140D01*
X83053Y-29881D01*
X83193Y-29543D01*
X83194Y-29177D01*
X83194Y-30883D01*
X79630Y-30883D01*
X79630Y-29877D01*
X79630Y-28932D01*
X79612Y-28888D01*
X79578Y-28854D01*
X79534Y-28836D01*
X79486Y-28836D01*
X78804Y-28836D01*
X78804Y-27130D01*
X78732Y-26955D01*
X78598Y-26822D01*
X78424Y-26749D01*
X78235Y-26749D01*
X78061Y-26821D01*
X77927Y-26954D01*
X77855Y-27129D01*
X77855Y-27317D01*
X77927Y-27492D01*
X78060Y-27625D01*
X78234Y-27698D01*
X78423Y-27698D01*
X78597Y-27626D01*
X78731Y-27493D01*
X78803Y-27318D01*
X78804Y-27130D01*
X78804Y-28836D01*
X78384Y-28836D01*
X78340Y-28854D01*
X78306Y-28888D01*
X78288Y-28932D01*
X78288Y-28980D01*
X78288Y-29924D01*
X78306Y-29969D01*
X78340Y-30002D01*
X78384Y-30021D01*
X78432Y-30021D01*
X79534Y-30021D01*
X79578Y-30002D01*
X79612Y-29969D01*
X79630Y-29925D01*
X79630Y-29877D01*
X79630Y-30883D01*
X77229Y-30883D01*
X77229Y-29877D01*
X77229Y-28980D01*
X77229Y-28932D01*
X77210Y-28888D01*
X77177Y-28854D01*
X77132Y-28836D01*
X76993Y-28836D01*
X76993Y-27137D01*
X76926Y-26977D01*
X76804Y-26855D01*
X76644Y-26789D01*
X76471Y-26788D01*
X76311Y-26855D01*
X76189Y-26977D01*
X76123Y-27137D01*
X76122Y-27310D01*
X76189Y-27470D01*
X76311Y-27592D01*
X76471Y-27658D01*
X76644Y-27659D01*
X76804Y-27592D01*
X76926Y-27470D01*
X76992Y-27310D01*
X76993Y-27137D01*
X76993Y-28836D01*
X76748Y-28836D01*
X76718Y-28866D01*
X76718Y-29268D01*
X77199Y-29268D01*
X77229Y-29238D01*
X77229Y-28980D01*
X77229Y-29877D01*
X77229Y-29618D01*
X77199Y-29588D01*
X76718Y-29588D01*
X76718Y-29991D01*
X76748Y-30021D01*
X77132Y-30021D01*
X77177Y-30002D01*
X77210Y-29969D01*
X77229Y-29925D01*
X77229Y-29877D01*
X77229Y-30883D01*
X76398Y-30883D01*
X76398Y-29991D01*
X76398Y-29588D01*
X76398Y-29268D01*
X76398Y-28866D01*
X76368Y-28836D01*
X75983Y-28836D01*
X75938Y-28854D01*
X75905Y-28888D01*
X75886Y-28932D01*
X75886Y-28980D01*
X75886Y-29238D01*
X75916Y-29268D01*
X76398Y-29268D01*
X76398Y-29588D01*
X75916Y-29588D01*
X75886Y-29618D01*
X75886Y-29877D01*
X75886Y-29925D01*
X75905Y-29969D01*
X75938Y-30002D01*
X75983Y-30021D01*
X76368Y-30021D01*
X76398Y-29991D01*
X76398Y-30883D01*
X75415Y-30883D01*
X75415Y-23564D01*
X94466Y-23564D01*
X94466Y-30883D01*
M02*
