G04 (created by PCBNEW (2013-07-07 BZR 4022)-stable) date 8/25/2014 9:50:12 PM*
%MOIN*%
G04 Gerber Fmt 3.4, Leading zero omitted, Abs format*
%FSLAX34Y34*%
G01*
G70*
G90*
G04 APERTURE LIST*
%ADD10C,0.00590551*%
%ADD11C,0.0590551*%
%ADD12R,0.0590551X0.0590551*%
%ADD13C,0.16*%
%ADD14R,0.1378X0.1378*%
%ADD15R,0.0708661X0.0708661*%
%ADD16C,0.01*%
G04 APERTURE END LIST*
G54D10*
G54D11*
X91535Y-25236D03*
G54D12*
X91535Y-26614D03*
G54D13*
X93464Y-24606D03*
X77125Y-29527D03*
G54D14*
X80511Y-25511D03*
X78149Y-25511D03*
X79330Y-27361D03*
G54D15*
X93740Y-26614D03*
X93740Y-27614D03*
X93740Y-29251D03*
X93740Y-30251D03*
X85643Y-24067D03*
X86643Y-24067D03*
X89413Y-24067D03*
X90413Y-24067D03*
X88385Y-27165D03*
G54D11*
X86220Y-29803D03*
G54D12*
X84842Y-29803D03*
G54D10*
G36*
X94336Y-28828D02*
X94306Y-28756D01*
X94236Y-28685D01*
X94144Y-28647D01*
X94044Y-28647D01*
X93690Y-28647D01*
X93690Y-28156D01*
X93690Y-27664D01*
X93198Y-27664D01*
X93135Y-27726D01*
X93135Y-27918D01*
X93135Y-28018D01*
X93174Y-28110D01*
X93244Y-28180D01*
X93336Y-28218D01*
X93627Y-28218D01*
X93690Y-28156D01*
X93690Y-28647D01*
X93336Y-28647D01*
X93244Y-28685D01*
X93174Y-28755D01*
X93135Y-28847D01*
X93135Y-28947D01*
X93135Y-29655D01*
X93173Y-29747D01*
X93177Y-29751D01*
X93174Y-29755D01*
X93135Y-29847D01*
X93135Y-29947D01*
X93135Y-30139D01*
X93198Y-30201D01*
X93690Y-30201D01*
X93690Y-30194D01*
X93790Y-30194D01*
X93790Y-30201D01*
X93798Y-30201D01*
X93798Y-30301D01*
X93790Y-30301D01*
X93790Y-30309D01*
X93690Y-30309D01*
X93690Y-30301D01*
X93198Y-30301D01*
X93135Y-30364D01*
X93135Y-30556D01*
X93135Y-30656D01*
X93174Y-30748D01*
X93179Y-30753D01*
X92085Y-30753D01*
X92085Y-25316D01*
X92074Y-25100D01*
X92012Y-24951D01*
X91917Y-24924D01*
X91847Y-24995D01*
X91847Y-24853D01*
X91820Y-24758D01*
X91616Y-24686D01*
X91399Y-24697D01*
X91250Y-24758D01*
X91223Y-24853D01*
X91535Y-25165D01*
X91847Y-24853D01*
X91847Y-24995D01*
X91606Y-25236D01*
X91917Y-25547D01*
X92012Y-25521D01*
X92085Y-25316D01*
X92085Y-30753D01*
X92080Y-30753D01*
X92080Y-26859D01*
X92080Y-26269D01*
X92042Y-26177D01*
X91972Y-26107D01*
X91880Y-26068D01*
X91847Y-26068D01*
X91847Y-25618D01*
X91535Y-25306D01*
X91464Y-25377D01*
X91464Y-25236D01*
X91152Y-24924D01*
X91058Y-24951D01*
X91017Y-25065D01*
X91017Y-24470D01*
X91017Y-24179D01*
X90954Y-24117D01*
X90463Y-24117D01*
X90463Y-24608D01*
X90525Y-24671D01*
X90717Y-24671D01*
X90817Y-24671D01*
X90909Y-24633D01*
X90979Y-24562D01*
X91017Y-24470D01*
X91017Y-25065D01*
X90985Y-25155D01*
X90996Y-25372D01*
X91058Y-25521D01*
X91152Y-25547D01*
X91464Y-25236D01*
X91464Y-25377D01*
X91223Y-25618D01*
X91250Y-25713D01*
X91454Y-25786D01*
X91671Y-25775D01*
X91820Y-25713D01*
X91847Y-25618D01*
X91847Y-26068D01*
X91781Y-26068D01*
X91190Y-26068D01*
X91098Y-26106D01*
X91028Y-26177D01*
X90990Y-26268D01*
X90990Y-26368D01*
X90990Y-26958D01*
X91028Y-27050D01*
X91098Y-27121D01*
X91190Y-27159D01*
X91289Y-27159D01*
X91880Y-27159D01*
X91972Y-27121D01*
X92042Y-27051D01*
X92080Y-26959D01*
X92080Y-26859D01*
X92080Y-30753D01*
X87247Y-30753D01*
X87247Y-24470D01*
X87247Y-24179D01*
X87184Y-24117D01*
X86693Y-24117D01*
X86693Y-24608D01*
X86755Y-24671D01*
X86947Y-24671D01*
X87047Y-24671D01*
X87139Y-24633D01*
X87209Y-24562D01*
X87247Y-24470D01*
X87247Y-30753D01*
X86770Y-30753D01*
X86770Y-29883D01*
X86759Y-29667D01*
X86697Y-29518D01*
X86602Y-29491D01*
X86532Y-29562D01*
X86532Y-29420D01*
X86505Y-29325D01*
X86301Y-29253D01*
X86084Y-29264D01*
X85935Y-29325D01*
X85908Y-29420D01*
X86220Y-29732D01*
X86532Y-29420D01*
X86532Y-29562D01*
X86291Y-29803D01*
X86602Y-30114D01*
X86697Y-30088D01*
X86770Y-29883D01*
X86770Y-30753D01*
X86532Y-30753D01*
X86532Y-30185D01*
X86220Y-29873D01*
X86149Y-29944D01*
X86149Y-29803D01*
X85837Y-29491D01*
X85743Y-29518D01*
X85670Y-29722D01*
X85681Y-29939D01*
X85743Y-30088D01*
X85837Y-30114D01*
X86149Y-29803D01*
X86149Y-29944D01*
X85908Y-30185D01*
X85935Y-30280D01*
X86139Y-30353D01*
X86356Y-30342D01*
X86505Y-30280D01*
X86532Y-30185D01*
X86532Y-30753D01*
X85387Y-30753D01*
X85387Y-30048D01*
X85387Y-29458D01*
X85349Y-29366D01*
X85279Y-29296D01*
X85187Y-29257D01*
X85088Y-29257D01*
X84497Y-29257D01*
X84405Y-29295D01*
X84335Y-29366D01*
X84297Y-29457D01*
X84297Y-29557D01*
X84297Y-30147D01*
X84335Y-30239D01*
X84405Y-30310D01*
X84497Y-30348D01*
X84596Y-30348D01*
X85187Y-30348D01*
X85279Y-30310D01*
X85349Y-30240D01*
X85387Y-30148D01*
X85387Y-30048D01*
X85387Y-30753D01*
X81450Y-30753D01*
X81450Y-26151D01*
X81450Y-24773D01*
X81412Y-24681D01*
X81342Y-24610D01*
X81250Y-24572D01*
X81151Y-24572D01*
X79773Y-24572D01*
X79681Y-24610D01*
X79611Y-24681D01*
X79572Y-24772D01*
X79572Y-24872D01*
X79572Y-26250D01*
X79610Y-26342D01*
X79681Y-26412D01*
X79705Y-26422D01*
X78956Y-26422D01*
X78980Y-26412D01*
X79050Y-26342D01*
X79088Y-26250D01*
X79088Y-26151D01*
X79088Y-24872D01*
X79088Y-24772D01*
X79050Y-24681D01*
X78980Y-24610D01*
X78888Y-24572D01*
X78262Y-24572D01*
X78199Y-24635D01*
X78199Y-25461D01*
X79026Y-25461D01*
X79088Y-25399D01*
X79088Y-24872D01*
X79088Y-26151D01*
X79088Y-25624D01*
X79026Y-25561D01*
X78199Y-25561D01*
X78199Y-26388D01*
X78262Y-26450D01*
X78524Y-26450D01*
X78500Y-26460D01*
X78430Y-26531D01*
X78391Y-26622D01*
X78391Y-26722D01*
X78391Y-28100D01*
X78429Y-28192D01*
X78500Y-28262D01*
X78591Y-28300D01*
X78691Y-28300D01*
X80069Y-28300D01*
X80161Y-28262D01*
X80231Y-28192D01*
X80269Y-28100D01*
X80269Y-28001D01*
X80269Y-26623D01*
X80231Y-26531D01*
X80161Y-26460D01*
X80137Y-26450D01*
X81250Y-26450D01*
X81342Y-26412D01*
X81412Y-26342D01*
X81450Y-26250D01*
X81450Y-26151D01*
X81450Y-30753D01*
X78176Y-30753D01*
X78176Y-29319D01*
X78099Y-29134D01*
X78099Y-26388D01*
X78099Y-25561D01*
X78099Y-25461D01*
X78099Y-24635D01*
X78037Y-24572D01*
X77411Y-24572D01*
X77319Y-24610D01*
X77249Y-24681D01*
X77210Y-24772D01*
X77210Y-24872D01*
X77210Y-25399D01*
X77273Y-25461D01*
X78099Y-25461D01*
X78099Y-25561D01*
X77273Y-25561D01*
X77210Y-25624D01*
X77210Y-26151D01*
X77210Y-26250D01*
X77249Y-26342D01*
X77319Y-26412D01*
X77411Y-26450D01*
X78037Y-26450D01*
X78099Y-26388D01*
X78099Y-29134D01*
X78016Y-28933D01*
X77721Y-28637D01*
X77335Y-28477D01*
X76918Y-28477D01*
X76531Y-28636D01*
X76236Y-28932D01*
X76076Y-29317D01*
X76075Y-29735D01*
X76235Y-30121D01*
X76530Y-30417D01*
X76916Y-30577D01*
X77333Y-30577D01*
X77719Y-30418D01*
X78015Y-30123D01*
X78175Y-29737D01*
X78176Y-29319D01*
X78176Y-30753D01*
X75545Y-30753D01*
X75545Y-23694D01*
X85038Y-23694D01*
X85038Y-23762D01*
X85038Y-24470D01*
X85076Y-24562D01*
X85146Y-24633D01*
X85238Y-24671D01*
X85338Y-24671D01*
X86046Y-24671D01*
X86138Y-24633D01*
X86142Y-24629D01*
X86146Y-24633D01*
X86238Y-24671D01*
X86338Y-24671D01*
X86530Y-24671D01*
X86593Y-24608D01*
X86593Y-24117D01*
X86585Y-24117D01*
X86585Y-24017D01*
X86593Y-24017D01*
X86593Y-24009D01*
X86693Y-24009D01*
X86693Y-24017D01*
X87184Y-24017D01*
X87247Y-23954D01*
X87247Y-23694D01*
X88808Y-23694D01*
X88808Y-23762D01*
X88808Y-24470D01*
X88846Y-24562D01*
X88916Y-24633D01*
X89008Y-24671D01*
X89108Y-24671D01*
X89816Y-24671D01*
X89908Y-24633D01*
X89912Y-24629D01*
X89916Y-24633D01*
X90008Y-24671D01*
X90108Y-24671D01*
X90300Y-24671D01*
X90363Y-24608D01*
X90363Y-24117D01*
X90355Y-24117D01*
X90355Y-24017D01*
X90363Y-24017D01*
X90363Y-24009D01*
X90463Y-24009D01*
X90463Y-24017D01*
X90954Y-24017D01*
X91017Y-23954D01*
X91017Y-23694D01*
X92920Y-23694D01*
X92870Y-23715D01*
X92574Y-24010D01*
X92414Y-24396D01*
X92414Y-24814D01*
X92573Y-25200D01*
X92869Y-25495D01*
X93254Y-25656D01*
X93672Y-25656D01*
X94058Y-25496D01*
X94336Y-25219D01*
X94336Y-26191D01*
X94306Y-26118D01*
X94236Y-26048D01*
X94144Y-26009D01*
X94044Y-26009D01*
X93336Y-26009D01*
X93244Y-26047D01*
X93174Y-26118D01*
X93135Y-26209D01*
X93135Y-26309D01*
X93135Y-27018D01*
X93173Y-27109D01*
X93177Y-27114D01*
X93174Y-27118D01*
X93135Y-27209D01*
X93135Y-27309D01*
X93135Y-27501D01*
X93198Y-27564D01*
X93690Y-27564D01*
X93690Y-27556D01*
X93790Y-27556D01*
X93790Y-27564D01*
X93798Y-27564D01*
X93798Y-27664D01*
X93790Y-27664D01*
X93790Y-28156D01*
X93852Y-28218D01*
X94143Y-28218D01*
X94235Y-28180D01*
X94306Y-28110D01*
X94336Y-28037D01*
X94336Y-28828D01*
X94336Y-28828D01*
G37*
G54D16*
X94336Y-28828D02*
X94306Y-28756D01*
X94236Y-28685D01*
X94144Y-28647D01*
X94044Y-28647D01*
X93690Y-28647D01*
X93690Y-28156D01*
X93690Y-27664D01*
X93198Y-27664D01*
X93135Y-27726D01*
X93135Y-27918D01*
X93135Y-28018D01*
X93174Y-28110D01*
X93244Y-28180D01*
X93336Y-28218D01*
X93627Y-28218D01*
X93690Y-28156D01*
X93690Y-28647D01*
X93336Y-28647D01*
X93244Y-28685D01*
X93174Y-28755D01*
X93135Y-28847D01*
X93135Y-28947D01*
X93135Y-29655D01*
X93173Y-29747D01*
X93177Y-29751D01*
X93174Y-29755D01*
X93135Y-29847D01*
X93135Y-29947D01*
X93135Y-30139D01*
X93198Y-30201D01*
X93690Y-30201D01*
X93690Y-30194D01*
X93790Y-30194D01*
X93790Y-30201D01*
X93798Y-30201D01*
X93798Y-30301D01*
X93790Y-30301D01*
X93790Y-30309D01*
X93690Y-30309D01*
X93690Y-30301D01*
X93198Y-30301D01*
X93135Y-30364D01*
X93135Y-30556D01*
X93135Y-30656D01*
X93174Y-30748D01*
X93179Y-30753D01*
X92085Y-30753D01*
X92085Y-25316D01*
X92074Y-25100D01*
X92012Y-24951D01*
X91917Y-24924D01*
X91847Y-24995D01*
X91847Y-24853D01*
X91820Y-24758D01*
X91616Y-24686D01*
X91399Y-24697D01*
X91250Y-24758D01*
X91223Y-24853D01*
X91535Y-25165D01*
X91847Y-24853D01*
X91847Y-24995D01*
X91606Y-25236D01*
X91917Y-25547D01*
X92012Y-25521D01*
X92085Y-25316D01*
X92085Y-30753D01*
X92080Y-30753D01*
X92080Y-26859D01*
X92080Y-26269D01*
X92042Y-26177D01*
X91972Y-26107D01*
X91880Y-26068D01*
X91847Y-26068D01*
X91847Y-25618D01*
X91535Y-25306D01*
X91464Y-25377D01*
X91464Y-25236D01*
X91152Y-24924D01*
X91058Y-24951D01*
X91017Y-25065D01*
X91017Y-24470D01*
X91017Y-24179D01*
X90954Y-24117D01*
X90463Y-24117D01*
X90463Y-24608D01*
X90525Y-24671D01*
X90717Y-24671D01*
X90817Y-24671D01*
X90909Y-24633D01*
X90979Y-24562D01*
X91017Y-24470D01*
X91017Y-25065D01*
X90985Y-25155D01*
X90996Y-25372D01*
X91058Y-25521D01*
X91152Y-25547D01*
X91464Y-25236D01*
X91464Y-25377D01*
X91223Y-25618D01*
X91250Y-25713D01*
X91454Y-25786D01*
X91671Y-25775D01*
X91820Y-25713D01*
X91847Y-25618D01*
X91847Y-26068D01*
X91781Y-26068D01*
X91190Y-26068D01*
X91098Y-26106D01*
X91028Y-26177D01*
X90990Y-26268D01*
X90990Y-26368D01*
X90990Y-26958D01*
X91028Y-27050D01*
X91098Y-27121D01*
X91190Y-27159D01*
X91289Y-27159D01*
X91880Y-27159D01*
X91972Y-27121D01*
X92042Y-27051D01*
X92080Y-26959D01*
X92080Y-26859D01*
X92080Y-30753D01*
X87247Y-30753D01*
X87247Y-24470D01*
X87247Y-24179D01*
X87184Y-24117D01*
X86693Y-24117D01*
X86693Y-24608D01*
X86755Y-24671D01*
X86947Y-24671D01*
X87047Y-24671D01*
X87139Y-24633D01*
X87209Y-24562D01*
X87247Y-24470D01*
X87247Y-30753D01*
X86770Y-30753D01*
X86770Y-29883D01*
X86759Y-29667D01*
X86697Y-29518D01*
X86602Y-29491D01*
X86532Y-29562D01*
X86532Y-29420D01*
X86505Y-29325D01*
X86301Y-29253D01*
X86084Y-29264D01*
X85935Y-29325D01*
X85908Y-29420D01*
X86220Y-29732D01*
X86532Y-29420D01*
X86532Y-29562D01*
X86291Y-29803D01*
X86602Y-30114D01*
X86697Y-30088D01*
X86770Y-29883D01*
X86770Y-30753D01*
X86532Y-30753D01*
X86532Y-30185D01*
X86220Y-29873D01*
X86149Y-29944D01*
X86149Y-29803D01*
X85837Y-29491D01*
X85743Y-29518D01*
X85670Y-29722D01*
X85681Y-29939D01*
X85743Y-30088D01*
X85837Y-30114D01*
X86149Y-29803D01*
X86149Y-29944D01*
X85908Y-30185D01*
X85935Y-30280D01*
X86139Y-30353D01*
X86356Y-30342D01*
X86505Y-30280D01*
X86532Y-30185D01*
X86532Y-30753D01*
X85387Y-30753D01*
X85387Y-30048D01*
X85387Y-29458D01*
X85349Y-29366D01*
X85279Y-29296D01*
X85187Y-29257D01*
X85088Y-29257D01*
X84497Y-29257D01*
X84405Y-29295D01*
X84335Y-29366D01*
X84297Y-29457D01*
X84297Y-29557D01*
X84297Y-30147D01*
X84335Y-30239D01*
X84405Y-30310D01*
X84497Y-30348D01*
X84596Y-30348D01*
X85187Y-30348D01*
X85279Y-30310D01*
X85349Y-30240D01*
X85387Y-30148D01*
X85387Y-30048D01*
X85387Y-30753D01*
X81450Y-30753D01*
X81450Y-26151D01*
X81450Y-24773D01*
X81412Y-24681D01*
X81342Y-24610D01*
X81250Y-24572D01*
X81151Y-24572D01*
X79773Y-24572D01*
X79681Y-24610D01*
X79611Y-24681D01*
X79572Y-24772D01*
X79572Y-24872D01*
X79572Y-26250D01*
X79610Y-26342D01*
X79681Y-26412D01*
X79705Y-26422D01*
X78956Y-26422D01*
X78980Y-26412D01*
X79050Y-26342D01*
X79088Y-26250D01*
X79088Y-26151D01*
X79088Y-24872D01*
X79088Y-24772D01*
X79050Y-24681D01*
X78980Y-24610D01*
X78888Y-24572D01*
X78262Y-24572D01*
X78199Y-24635D01*
X78199Y-25461D01*
X79026Y-25461D01*
X79088Y-25399D01*
X79088Y-24872D01*
X79088Y-26151D01*
X79088Y-25624D01*
X79026Y-25561D01*
X78199Y-25561D01*
X78199Y-26388D01*
X78262Y-26450D01*
X78524Y-26450D01*
X78500Y-26460D01*
X78430Y-26531D01*
X78391Y-26622D01*
X78391Y-26722D01*
X78391Y-28100D01*
X78429Y-28192D01*
X78500Y-28262D01*
X78591Y-28300D01*
X78691Y-28300D01*
X80069Y-28300D01*
X80161Y-28262D01*
X80231Y-28192D01*
X80269Y-28100D01*
X80269Y-28001D01*
X80269Y-26623D01*
X80231Y-26531D01*
X80161Y-26460D01*
X80137Y-26450D01*
X81250Y-26450D01*
X81342Y-26412D01*
X81412Y-26342D01*
X81450Y-26250D01*
X81450Y-26151D01*
X81450Y-30753D01*
X78176Y-30753D01*
X78176Y-29319D01*
X78099Y-29134D01*
X78099Y-26388D01*
X78099Y-25561D01*
X78099Y-25461D01*
X78099Y-24635D01*
X78037Y-24572D01*
X77411Y-24572D01*
X77319Y-24610D01*
X77249Y-24681D01*
X77210Y-24772D01*
X77210Y-24872D01*
X77210Y-25399D01*
X77273Y-25461D01*
X78099Y-25461D01*
X78099Y-25561D01*
X77273Y-25561D01*
X77210Y-25624D01*
X77210Y-26151D01*
X77210Y-26250D01*
X77249Y-26342D01*
X77319Y-26412D01*
X77411Y-26450D01*
X78037Y-26450D01*
X78099Y-26388D01*
X78099Y-29134D01*
X78016Y-28933D01*
X77721Y-28637D01*
X77335Y-28477D01*
X76918Y-28477D01*
X76531Y-28636D01*
X76236Y-28932D01*
X76076Y-29317D01*
X76075Y-29735D01*
X76235Y-30121D01*
X76530Y-30417D01*
X76916Y-30577D01*
X77333Y-30577D01*
X77719Y-30418D01*
X78015Y-30123D01*
X78175Y-29737D01*
X78176Y-29319D01*
X78176Y-30753D01*
X75545Y-30753D01*
X75545Y-23694D01*
X85038Y-23694D01*
X85038Y-23762D01*
X85038Y-24470D01*
X85076Y-24562D01*
X85146Y-24633D01*
X85238Y-24671D01*
X85338Y-24671D01*
X86046Y-24671D01*
X86138Y-24633D01*
X86142Y-24629D01*
X86146Y-24633D01*
X86238Y-24671D01*
X86338Y-24671D01*
X86530Y-24671D01*
X86593Y-24608D01*
X86593Y-24117D01*
X86585Y-24117D01*
X86585Y-24017D01*
X86593Y-24017D01*
X86593Y-24009D01*
X86693Y-24009D01*
X86693Y-24017D01*
X87184Y-24017D01*
X87247Y-23954D01*
X87247Y-23694D01*
X88808Y-23694D01*
X88808Y-23762D01*
X88808Y-24470D01*
X88846Y-24562D01*
X88916Y-24633D01*
X89008Y-24671D01*
X89108Y-24671D01*
X89816Y-24671D01*
X89908Y-24633D01*
X89912Y-24629D01*
X89916Y-24633D01*
X90008Y-24671D01*
X90108Y-24671D01*
X90300Y-24671D01*
X90363Y-24608D01*
X90363Y-24117D01*
X90355Y-24117D01*
X90355Y-24017D01*
X90363Y-24017D01*
X90363Y-24009D01*
X90463Y-24009D01*
X90463Y-24017D01*
X90954Y-24017D01*
X91017Y-23954D01*
X91017Y-23694D01*
X92920Y-23694D01*
X92870Y-23715D01*
X92574Y-24010D01*
X92414Y-24396D01*
X92414Y-24814D01*
X92573Y-25200D01*
X92869Y-25495D01*
X93254Y-25656D01*
X93672Y-25656D01*
X94058Y-25496D01*
X94336Y-25219D01*
X94336Y-26191D01*
X94306Y-26118D01*
X94236Y-26048D01*
X94144Y-26009D01*
X94044Y-26009D01*
X93336Y-26009D01*
X93244Y-26047D01*
X93174Y-26118D01*
X93135Y-26209D01*
X93135Y-26309D01*
X93135Y-27018D01*
X93173Y-27109D01*
X93177Y-27114D01*
X93174Y-27118D01*
X93135Y-27209D01*
X93135Y-27309D01*
X93135Y-27501D01*
X93198Y-27564D01*
X93690Y-27564D01*
X93690Y-27556D01*
X93790Y-27556D01*
X93790Y-27564D01*
X93798Y-27564D01*
X93798Y-27664D01*
X93790Y-27664D01*
X93790Y-28156D01*
X93852Y-28218D01*
X94143Y-28218D01*
X94235Y-28180D01*
X94306Y-28110D01*
X94336Y-28037D01*
X94336Y-28828D01*
M02*
