G04 (created by PCBNEW (2013-07-07 BZR 4022)-stable) date 2/23/2015 9:33:28 PM*
%MOIN*%
G04 Gerber Fmt 3.4, Leading zero omitted, Abs format*
%FSLAX34Y34*%
G01*
G70*
G90*
G04 APERTURE LIST*
%ADD10C,0.00590551*%
%ADD11C,0.00787402*%
%ADD12C,0.01*%
%ADD13C,0.0031*%
%ADD14C,0.005*%
%ADD15C,0.0039*%
%ADD16C,0.012*%
%ADD17C,0.015*%
%ADD18C,0.0075*%
%ADD19C,0.0047*%
%ADD20C,0.0043*%
%ADD21C,0.0045*%
%ADD22C,0.008*%
G04 APERTURE END LIST*
G54D10*
G54D11*
X52165Y-29527D02*
X52165Y-13779D01*
X54133Y-29527D02*
X52165Y-29527D01*
X54133Y-13779D02*
X54133Y-29527D01*
X52165Y-13779D02*
X54133Y-13779D01*
X51181Y-12795D02*
X39370Y-12795D01*
X51181Y-14763D02*
X51181Y-12795D01*
X39370Y-14763D02*
X51181Y-14763D01*
X39370Y-12795D02*
X39370Y-14763D01*
X36417Y-13779D02*
X36417Y-29527D01*
X38385Y-13779D02*
X36417Y-13779D01*
X38385Y-29527D02*
X38385Y-13779D01*
X36417Y-29527D02*
X38385Y-29527D01*
X51181Y-32480D02*
X39370Y-32480D01*
X51181Y-30511D02*
X51181Y-32480D01*
X39370Y-30511D02*
X51181Y-30511D01*
X39370Y-32480D02*
X39370Y-30511D01*
X54133Y-33464D02*
X54133Y-49212D01*
X52165Y-33464D02*
X54133Y-33464D01*
X52165Y-49212D02*
X52165Y-33464D01*
X54133Y-49212D02*
X52165Y-49212D01*
X51181Y-48228D02*
X39370Y-48228D01*
X51181Y-50196D02*
X51181Y-48228D01*
X39370Y-50196D02*
X51181Y-50196D01*
X39370Y-48228D02*
X39370Y-50196D01*
X36417Y-49212D02*
X36417Y-33464D01*
X38385Y-49212D02*
X36417Y-49212D01*
X38385Y-33464D02*
X38385Y-49212D01*
X36417Y-33464D02*
X38385Y-33464D01*
X19685Y-14763D02*
X19685Y-12795D01*
X31496Y-14763D02*
X19685Y-14763D01*
X31496Y-12795D02*
X31496Y-14763D01*
X19685Y-12795D02*
X31496Y-12795D01*
X32480Y-13779D02*
X32480Y-29527D01*
X34448Y-13779D02*
X32480Y-13779D01*
X34448Y-29527D02*
X34448Y-13779D01*
X32480Y-29527D02*
X34448Y-29527D01*
X31496Y-30511D02*
X19685Y-30511D01*
X31496Y-32480D02*
X31496Y-30511D01*
X19685Y-32480D02*
X31496Y-32480D01*
X19685Y-30511D02*
X19685Y-32480D01*
X32480Y-33464D02*
X32480Y-49212D01*
X34448Y-33464D02*
X32480Y-33464D01*
X34448Y-49212D02*
X34448Y-33464D01*
X32480Y-49212D02*
X34448Y-49212D01*
X31496Y-50196D02*
X19685Y-50196D01*
X31496Y-48228D02*
X31496Y-50196D01*
X19685Y-48228D02*
X31496Y-48228D01*
X16732Y-47244D02*
X16732Y-49212D01*
X18700Y-47244D02*
X18700Y-49212D01*
X16732Y-29527D02*
X18700Y-29527D01*
X55118Y-31496D02*
X15748Y-31496D01*
X35433Y-11811D02*
X35433Y-51181D01*
X19685Y-48228D02*
X19685Y-50196D01*
X16732Y-47244D02*
X16732Y-33464D01*
X18700Y-49212D02*
X16732Y-49212D01*
X18700Y-33464D02*
X18700Y-47244D01*
X16732Y-33464D02*
X18700Y-33464D01*
X16732Y-29527D02*
X16732Y-13779D01*
X18700Y-31496D02*
X16732Y-31496D01*
X18700Y-13779D02*
X18700Y-29527D01*
X16732Y-13779D02*
X18700Y-13779D01*
G54D12*
X24840Y-35548D02*
X24840Y-33448D01*
X24840Y-33448D02*
X26290Y-33448D01*
X26290Y-33448D02*
X26290Y-35548D01*
X26290Y-35548D02*
X24840Y-35548D01*
X26174Y-35315D02*
G75*
G03X26174Y-35315I-128J0D01*
G74*
G01*
X44525Y-35548D02*
X44525Y-33448D01*
X44525Y-33448D02*
X45975Y-33448D01*
X45975Y-33448D02*
X45975Y-35548D01*
X45975Y-35548D02*
X44525Y-35548D01*
X45859Y-35315D02*
G75*
G03X45859Y-35315I-128J0D01*
G74*
G01*
G54D13*
X39570Y-19163D02*
G75*
G03X39570Y-19163I-62J0D01*
G74*
G01*
X39170Y-18200D02*
X39570Y-18200D01*
X39170Y-19225D02*
X39570Y-19225D01*
X39570Y-18200D02*
X39570Y-19225D01*
X39170Y-19225D02*
X39170Y-18200D01*
X42848Y-29389D02*
G75*
G03X42848Y-29389I-62J0D01*
G74*
G01*
X41822Y-29727D02*
X41822Y-29327D01*
X42847Y-29727D02*
X42847Y-29327D01*
X41822Y-29327D02*
X42847Y-29327D01*
X42847Y-29727D02*
X41822Y-29727D01*
X41922Y-15886D02*
G75*
G03X41922Y-15886I-62J0D01*
G74*
G01*
X42822Y-15548D02*
X42822Y-15948D01*
X41797Y-15548D02*
X41797Y-15948D01*
X42822Y-15948D02*
X41797Y-15948D01*
X41797Y-15548D02*
X42822Y-15548D01*
X51105Y-18237D02*
G75*
G03X51105Y-18237I-62J0D01*
G74*
G01*
X51381Y-19200D02*
X50981Y-19200D01*
X51381Y-18175D02*
X50981Y-18175D01*
X50981Y-19200D02*
X50981Y-18175D01*
X51381Y-18175D02*
X51381Y-19200D01*
X51105Y-37922D02*
G75*
G03X51105Y-37922I-62J0D01*
G74*
G01*
X51381Y-38885D02*
X50981Y-38885D01*
X51381Y-37860D02*
X50981Y-37860D01*
X50981Y-38885D02*
X50981Y-37860D01*
X51381Y-37860D02*
X51381Y-38885D01*
X42848Y-46121D02*
G75*
G03X42848Y-46121I-62J0D01*
G74*
G01*
X41822Y-46459D02*
X41822Y-46059D01*
X42847Y-46459D02*
X42847Y-46059D01*
X41822Y-46059D02*
X42847Y-46059D01*
X42847Y-46459D02*
X41822Y-46459D01*
X39570Y-38848D02*
G75*
G03X39570Y-38848I-62J0D01*
G74*
G01*
X39170Y-37885D02*
X39570Y-37885D01*
X39170Y-38910D02*
X39570Y-38910D01*
X39570Y-37885D02*
X39570Y-38910D01*
X39170Y-38910D02*
X39170Y-37885D01*
X23163Y-29389D02*
G75*
G03X23163Y-29389I-62J0D01*
G74*
G01*
X22137Y-29727D02*
X22137Y-29327D01*
X23162Y-29727D02*
X23162Y-29327D01*
X22137Y-29327D02*
X23162Y-29327D01*
X23162Y-29727D02*
X22137Y-29727D01*
X22237Y-15886D02*
G75*
G03X22237Y-15886I-62J0D01*
G74*
G01*
X23137Y-15548D02*
X23137Y-15948D01*
X22112Y-15548D02*
X22112Y-15948D01*
X23137Y-15948D02*
X22112Y-15948D01*
X22112Y-15548D02*
X23137Y-15548D01*
X19885Y-19163D02*
G75*
G03X19885Y-19163I-62J0D01*
G74*
G01*
X19485Y-18200D02*
X19885Y-18200D01*
X19485Y-19225D02*
X19885Y-19225D01*
X19885Y-18200D02*
X19885Y-19225D01*
X19485Y-19225D02*
X19485Y-18200D01*
X31420Y-18237D02*
G75*
G03X31420Y-18237I-62J0D01*
G74*
G01*
X31696Y-19200D02*
X31296Y-19200D01*
X31696Y-18175D02*
X31296Y-18175D01*
X31296Y-19200D02*
X31296Y-18175D01*
X31696Y-18175D02*
X31696Y-19200D01*
X23163Y-46121D02*
G75*
G03X23163Y-46121I-62J0D01*
G74*
G01*
X22137Y-46459D02*
X22137Y-46059D01*
X23162Y-46459D02*
X23162Y-46059D01*
X22137Y-46059D02*
X23162Y-46059D01*
X23162Y-46459D02*
X22137Y-46459D01*
X19885Y-38848D02*
G75*
G03X19885Y-38848I-62J0D01*
G74*
G01*
X19485Y-37885D02*
X19885Y-37885D01*
X19485Y-38910D02*
X19885Y-38910D01*
X19885Y-37885D02*
X19885Y-38910D01*
X19485Y-38910D02*
X19485Y-37885D01*
X31420Y-37922D02*
G75*
G03X31420Y-37922I-62J0D01*
G74*
G01*
X31696Y-38885D02*
X31296Y-38885D01*
X31696Y-37860D02*
X31296Y-37860D01*
X31296Y-38885D02*
X31296Y-37860D01*
X31696Y-37860D02*
X31696Y-38885D01*
G54D14*
X24590Y-29077D02*
X24590Y-29977D01*
X24590Y-29977D02*
X25240Y-29977D01*
X25940Y-29077D02*
X26590Y-29077D01*
X26590Y-29077D02*
X26590Y-29977D01*
X26590Y-29977D02*
X25940Y-29977D01*
X25240Y-29077D02*
X24590Y-29077D01*
X50731Y-42338D02*
X51631Y-42338D01*
X51631Y-42338D02*
X51631Y-41688D01*
X50731Y-40988D02*
X50731Y-40338D01*
X50731Y-40338D02*
X51631Y-40338D01*
X51631Y-40338D02*
X51631Y-40988D01*
X50731Y-41688D02*
X50731Y-42338D01*
X50731Y-22653D02*
X51631Y-22653D01*
X51631Y-22653D02*
X51631Y-22003D01*
X50731Y-21303D02*
X50731Y-20653D01*
X50731Y-20653D02*
X51631Y-20653D01*
X51631Y-20653D02*
X51631Y-21303D01*
X50731Y-22003D02*
X50731Y-22653D01*
X44275Y-15298D02*
X44275Y-16198D01*
X44275Y-16198D02*
X44925Y-16198D01*
X45625Y-15298D02*
X46275Y-15298D01*
X46275Y-15298D02*
X46275Y-16198D01*
X46275Y-16198D02*
X45625Y-16198D01*
X44925Y-15298D02*
X44275Y-15298D01*
X44275Y-29077D02*
X44275Y-29977D01*
X44275Y-29977D02*
X44925Y-29977D01*
X45625Y-29077D02*
X46275Y-29077D01*
X46275Y-29077D02*
X46275Y-29977D01*
X46275Y-29977D02*
X45625Y-29977D01*
X44925Y-29077D02*
X44275Y-29077D01*
X44275Y-46794D02*
X44275Y-47694D01*
X44275Y-47694D02*
X44925Y-47694D01*
X45625Y-46794D02*
X46275Y-46794D01*
X46275Y-46794D02*
X46275Y-47694D01*
X46275Y-47694D02*
X45625Y-47694D01*
X44925Y-46794D02*
X44275Y-46794D01*
X38920Y-42338D02*
X39820Y-42338D01*
X39820Y-42338D02*
X39820Y-41688D01*
X38920Y-40988D02*
X38920Y-40338D01*
X38920Y-40338D02*
X39820Y-40338D01*
X39820Y-40338D02*
X39820Y-40988D01*
X38920Y-41688D02*
X38920Y-42338D01*
X38920Y-22653D02*
X39820Y-22653D01*
X39820Y-22653D02*
X39820Y-22003D01*
X38920Y-21303D02*
X38920Y-20653D01*
X38920Y-20653D02*
X39820Y-20653D01*
X39820Y-20653D02*
X39820Y-21303D01*
X38920Y-22003D02*
X38920Y-22653D01*
X24590Y-15298D02*
X24590Y-16198D01*
X24590Y-16198D02*
X25240Y-16198D01*
X25940Y-15298D02*
X26590Y-15298D01*
X26590Y-15298D02*
X26590Y-16198D01*
X26590Y-16198D02*
X25940Y-16198D01*
X25240Y-15298D02*
X24590Y-15298D01*
X31046Y-22653D02*
X31946Y-22653D01*
X31946Y-22653D02*
X31946Y-22003D01*
X31046Y-21303D02*
X31046Y-20653D01*
X31046Y-20653D02*
X31946Y-20653D01*
X31946Y-20653D02*
X31946Y-21303D01*
X31046Y-22003D02*
X31046Y-22653D01*
X31046Y-42338D02*
X31946Y-42338D01*
X31946Y-42338D02*
X31946Y-41688D01*
X31046Y-40988D02*
X31046Y-40338D01*
X31046Y-40338D02*
X31946Y-40338D01*
X31946Y-40338D02*
X31946Y-40988D01*
X31046Y-41688D02*
X31046Y-42338D01*
X26590Y-47694D02*
X26590Y-46794D01*
X26590Y-46794D02*
X25940Y-46794D01*
X25240Y-47694D02*
X24590Y-47694D01*
X24590Y-47694D02*
X24590Y-46794D01*
X24590Y-46794D02*
X25240Y-46794D01*
X25940Y-47694D02*
X26590Y-47694D01*
X19235Y-42338D02*
X20135Y-42338D01*
X20135Y-42338D02*
X20135Y-41688D01*
X19235Y-40988D02*
X19235Y-40338D01*
X19235Y-40338D02*
X20135Y-40338D01*
X20135Y-40338D02*
X20135Y-40988D01*
X19235Y-41688D02*
X19235Y-42338D01*
X19235Y-22653D02*
X20135Y-22653D01*
X20135Y-22653D02*
X20135Y-22003D01*
X19235Y-21303D02*
X19235Y-20653D01*
X19235Y-20653D02*
X20135Y-20653D01*
X20135Y-20653D02*
X20135Y-21303D01*
X19235Y-22003D02*
X19235Y-22653D01*
G54D15*
X53499Y-41988D02*
G75*
G03X53499Y-41988I-50J0D01*
G74*
G01*
X53449Y-41538D02*
X53449Y-41938D01*
X53449Y-41938D02*
X52849Y-41938D01*
X52849Y-41938D02*
X52849Y-41538D01*
X52849Y-41138D02*
X52849Y-40738D01*
X52849Y-40738D02*
X53449Y-40738D01*
X53449Y-40738D02*
X53449Y-41138D01*
X53499Y-22303D02*
G75*
G03X53499Y-22303I-50J0D01*
G74*
G01*
X53449Y-21853D02*
X53449Y-22253D01*
X53449Y-22253D02*
X52849Y-22253D01*
X52849Y-22253D02*
X52849Y-21853D01*
X52849Y-21453D02*
X52849Y-21053D01*
X52849Y-21053D02*
X53449Y-21053D01*
X53449Y-21053D02*
X53449Y-21453D01*
X53499Y-47894D02*
G75*
G03X53499Y-47894I-50J0D01*
G74*
G01*
X53449Y-47444D02*
X53449Y-47844D01*
X53449Y-47844D02*
X52849Y-47844D01*
X52849Y-47844D02*
X52849Y-47444D01*
X52849Y-47044D02*
X52849Y-46644D01*
X52849Y-46644D02*
X53449Y-46644D01*
X53449Y-46644D02*
X53449Y-47044D01*
X53499Y-16398D02*
G75*
G03X53499Y-16398I-50J0D01*
G74*
G01*
X53449Y-15948D02*
X53449Y-16348D01*
X53449Y-16348D02*
X52849Y-16348D01*
X52849Y-16348D02*
X52849Y-15948D01*
X52849Y-15548D02*
X52849Y-15148D01*
X52849Y-15148D02*
X53449Y-15148D01*
X53449Y-15148D02*
X53449Y-15548D01*
X42038Y-13479D02*
G75*
G03X42038Y-13479I-50J0D01*
G74*
G01*
X41538Y-13479D02*
X41938Y-13479D01*
X41938Y-13479D02*
X41938Y-14079D01*
X41938Y-14079D02*
X41538Y-14079D01*
X41138Y-14079D02*
X40738Y-14079D01*
X40738Y-14079D02*
X40738Y-13479D01*
X40738Y-13479D02*
X41138Y-13479D01*
X53499Y-28209D02*
G75*
G03X53499Y-28209I-50J0D01*
G74*
G01*
X53449Y-27759D02*
X53449Y-28159D01*
X53449Y-28159D02*
X52849Y-28159D01*
X52849Y-28159D02*
X52849Y-27759D01*
X52849Y-27359D02*
X52849Y-26959D01*
X52849Y-26959D02*
X53449Y-26959D01*
X53449Y-26959D02*
X53449Y-27359D01*
X30227Y-31196D02*
G75*
G03X30227Y-31196I-50J0D01*
G74*
G01*
X29727Y-31196D02*
X30127Y-31196D01*
X30127Y-31196D02*
X30127Y-31796D01*
X30127Y-31796D02*
X29727Y-31796D01*
X29327Y-31796D02*
X28927Y-31796D01*
X28927Y-31796D02*
X28927Y-31196D01*
X28927Y-31196D02*
X29327Y-31196D01*
X53499Y-36083D02*
G75*
G03X53499Y-36083I-50J0D01*
G74*
G01*
X53449Y-35633D02*
X53449Y-36033D01*
X53449Y-36033D02*
X52849Y-36033D01*
X52849Y-36033D02*
X52849Y-35633D01*
X52849Y-35233D02*
X52849Y-34833D01*
X52849Y-34833D02*
X53449Y-34833D01*
X53449Y-34833D02*
X53449Y-35233D01*
X49912Y-48912D02*
G75*
G03X49912Y-48912I-50J0D01*
G74*
G01*
X49412Y-48912D02*
X49812Y-48912D01*
X49812Y-48912D02*
X49812Y-49512D01*
X49812Y-49512D02*
X49412Y-49512D01*
X49012Y-49512D02*
X48612Y-49512D01*
X48612Y-49512D02*
X48612Y-48912D01*
X48612Y-48912D02*
X49012Y-48912D01*
X37751Y-16398D02*
G75*
G03X37751Y-16398I-50J0D01*
G74*
G01*
X37701Y-15948D02*
X37701Y-16348D01*
X37701Y-16348D02*
X37101Y-16348D01*
X37101Y-16348D02*
X37101Y-15948D01*
X37101Y-15548D02*
X37101Y-15148D01*
X37101Y-15148D02*
X37701Y-15148D01*
X37701Y-15148D02*
X37701Y-15548D01*
X37751Y-22303D02*
G75*
G03X37751Y-22303I-50J0D01*
G74*
G01*
X37701Y-21853D02*
X37701Y-22253D01*
X37701Y-22253D02*
X37101Y-22253D01*
X37101Y-22253D02*
X37101Y-21853D01*
X37101Y-21453D02*
X37101Y-21053D01*
X37101Y-21053D02*
X37701Y-21053D01*
X37701Y-21053D02*
X37701Y-21453D01*
X37751Y-28209D02*
G75*
G03X37751Y-28209I-50J0D01*
G74*
G01*
X37701Y-27759D02*
X37701Y-28159D01*
X37701Y-28159D02*
X37101Y-28159D01*
X37101Y-28159D02*
X37101Y-27759D01*
X37101Y-27359D02*
X37101Y-26959D01*
X37101Y-26959D02*
X37701Y-26959D01*
X37701Y-26959D02*
X37701Y-27359D01*
X37751Y-36083D02*
G75*
G03X37751Y-36083I-50J0D01*
G74*
G01*
X37701Y-35633D02*
X37701Y-36033D01*
X37701Y-36033D02*
X37101Y-36033D01*
X37101Y-36033D02*
X37101Y-35633D01*
X37101Y-35233D02*
X37101Y-34833D01*
X37101Y-34833D02*
X37701Y-34833D01*
X37701Y-34833D02*
X37701Y-35233D01*
X37751Y-41988D02*
G75*
G03X37751Y-41988I-50J0D01*
G74*
G01*
X37701Y-41538D02*
X37701Y-41938D01*
X37701Y-41938D02*
X37101Y-41938D01*
X37101Y-41938D02*
X37101Y-41538D01*
X37101Y-41138D02*
X37101Y-40738D01*
X37101Y-40738D02*
X37701Y-40738D01*
X37701Y-40738D02*
X37701Y-41138D01*
X37751Y-47894D02*
G75*
G03X37751Y-47894I-50J0D01*
G74*
G01*
X37701Y-47444D02*
X37701Y-47844D01*
X37701Y-47844D02*
X37101Y-47844D01*
X37101Y-47844D02*
X37101Y-47444D01*
X37101Y-47044D02*
X37101Y-46644D01*
X37101Y-46644D02*
X37701Y-46644D01*
X37701Y-46644D02*
X37701Y-47044D01*
X42038Y-48912D02*
G75*
G03X42038Y-48912I-50J0D01*
G74*
G01*
X41538Y-48912D02*
X41938Y-48912D01*
X41938Y-48912D02*
X41938Y-49512D01*
X41938Y-49512D02*
X41538Y-49512D01*
X41138Y-49512D02*
X40738Y-49512D01*
X40738Y-49512D02*
X40738Y-48912D01*
X40738Y-48912D02*
X41138Y-48912D01*
X45975Y-48912D02*
G75*
G03X45975Y-48912I-50J0D01*
G74*
G01*
X45475Y-48912D02*
X45875Y-48912D01*
X45875Y-48912D02*
X45875Y-49512D01*
X45875Y-49512D02*
X45475Y-49512D01*
X45075Y-49512D02*
X44675Y-49512D01*
X44675Y-49512D02*
X44675Y-48912D01*
X44675Y-48912D02*
X45075Y-48912D01*
X33814Y-41988D02*
G75*
G03X33814Y-41988I-50J0D01*
G74*
G01*
X33764Y-41538D02*
X33764Y-41938D01*
X33764Y-41938D02*
X33164Y-41938D01*
X33164Y-41938D02*
X33164Y-41538D01*
X33164Y-41138D02*
X33164Y-40738D01*
X33164Y-40738D02*
X33764Y-40738D01*
X33764Y-40738D02*
X33764Y-41138D01*
X49912Y-31196D02*
G75*
G03X49912Y-31196I-50J0D01*
G74*
G01*
X49412Y-31196D02*
X49812Y-31196D01*
X49812Y-31196D02*
X49812Y-31796D01*
X49812Y-31796D02*
X49412Y-31796D01*
X49012Y-31796D02*
X48612Y-31796D01*
X48612Y-31796D02*
X48612Y-31196D01*
X48612Y-31196D02*
X49012Y-31196D01*
X45975Y-31196D02*
G75*
G03X45975Y-31196I-50J0D01*
G74*
G01*
X45475Y-31196D02*
X45875Y-31196D01*
X45875Y-31196D02*
X45875Y-31796D01*
X45875Y-31796D02*
X45475Y-31796D01*
X45075Y-31796D02*
X44675Y-31796D01*
X44675Y-31796D02*
X44675Y-31196D01*
X44675Y-31196D02*
X45075Y-31196D01*
X18066Y-16398D02*
G75*
G03X18066Y-16398I-50J0D01*
G74*
G01*
X18016Y-15948D02*
X18016Y-16348D01*
X18016Y-16348D02*
X17416Y-16348D01*
X17416Y-16348D02*
X17416Y-15948D01*
X17416Y-15548D02*
X17416Y-15148D01*
X17416Y-15148D02*
X18016Y-15148D01*
X18016Y-15148D02*
X18016Y-15548D01*
X18066Y-22303D02*
G75*
G03X18066Y-22303I-50J0D01*
G74*
G01*
X18016Y-21853D02*
X18016Y-22253D01*
X18016Y-22253D02*
X17416Y-22253D01*
X17416Y-22253D02*
X17416Y-21853D01*
X17416Y-21453D02*
X17416Y-21053D01*
X17416Y-21053D02*
X18016Y-21053D01*
X18016Y-21053D02*
X18016Y-21453D01*
X18066Y-28209D02*
G75*
G03X18066Y-28209I-50J0D01*
G74*
G01*
X18016Y-27759D02*
X18016Y-28159D01*
X18016Y-28159D02*
X17416Y-28159D01*
X17416Y-28159D02*
X17416Y-27759D01*
X17416Y-27359D02*
X17416Y-26959D01*
X17416Y-26959D02*
X18016Y-26959D01*
X18016Y-26959D02*
X18016Y-27359D01*
X18066Y-36083D02*
G75*
G03X18066Y-36083I-50J0D01*
G74*
G01*
X18016Y-35633D02*
X18016Y-36033D01*
X18016Y-36033D02*
X17416Y-36033D01*
X17416Y-36033D02*
X17416Y-35633D01*
X17416Y-35233D02*
X17416Y-34833D01*
X17416Y-34833D02*
X18016Y-34833D01*
X18016Y-34833D02*
X18016Y-35233D01*
X18066Y-41988D02*
G75*
G03X18066Y-41988I-50J0D01*
G74*
G01*
X18016Y-41538D02*
X18016Y-41938D01*
X18016Y-41938D02*
X17416Y-41938D01*
X17416Y-41938D02*
X17416Y-41538D01*
X17416Y-41138D02*
X17416Y-40738D01*
X17416Y-40738D02*
X18016Y-40738D01*
X18016Y-40738D02*
X18016Y-41138D01*
X18066Y-47894D02*
G75*
G03X18066Y-47894I-50J0D01*
G74*
G01*
X18016Y-47444D02*
X18016Y-47844D01*
X18016Y-47844D02*
X17416Y-47844D01*
X17416Y-47844D02*
X17416Y-47444D01*
X17416Y-47044D02*
X17416Y-46644D01*
X17416Y-46644D02*
X18016Y-46644D01*
X18016Y-46644D02*
X18016Y-47044D01*
X22353Y-48912D02*
G75*
G03X22353Y-48912I-50J0D01*
G74*
G01*
X21853Y-48912D02*
X22253Y-48912D01*
X22253Y-48912D02*
X22253Y-49512D01*
X22253Y-49512D02*
X21853Y-49512D01*
X21453Y-49512D02*
X21053Y-49512D01*
X21053Y-49512D02*
X21053Y-48912D01*
X21053Y-48912D02*
X21453Y-48912D01*
X26290Y-48912D02*
G75*
G03X26290Y-48912I-50J0D01*
G74*
G01*
X25790Y-48912D02*
X26190Y-48912D01*
X26190Y-48912D02*
X26190Y-49512D01*
X26190Y-49512D02*
X25790Y-49512D01*
X25390Y-49512D02*
X24990Y-49512D01*
X24990Y-49512D02*
X24990Y-48912D01*
X24990Y-48912D02*
X25390Y-48912D01*
X30227Y-48912D02*
G75*
G03X30227Y-48912I-50J0D01*
G74*
G01*
X29727Y-48912D02*
X30127Y-48912D01*
X30127Y-48912D02*
X30127Y-49512D01*
X30127Y-49512D02*
X29727Y-49512D01*
X29327Y-49512D02*
X28927Y-49512D01*
X28927Y-49512D02*
X28927Y-48912D01*
X28927Y-48912D02*
X29327Y-48912D01*
X33814Y-36083D02*
G75*
G03X33814Y-36083I-50J0D01*
G74*
G01*
X33764Y-35633D02*
X33764Y-36033D01*
X33764Y-36033D02*
X33164Y-36033D01*
X33164Y-36033D02*
X33164Y-35633D01*
X33164Y-35233D02*
X33164Y-34833D01*
X33164Y-34833D02*
X33764Y-34833D01*
X33764Y-34833D02*
X33764Y-35233D01*
X45975Y-13479D02*
G75*
G03X45975Y-13479I-50J0D01*
G74*
G01*
X45475Y-13479D02*
X45875Y-13479D01*
X45875Y-13479D02*
X45875Y-14079D01*
X45875Y-14079D02*
X45475Y-14079D01*
X45075Y-14079D02*
X44675Y-14079D01*
X44675Y-14079D02*
X44675Y-13479D01*
X44675Y-13479D02*
X45075Y-13479D01*
X33814Y-47894D02*
G75*
G03X33814Y-47894I-50J0D01*
G74*
G01*
X33764Y-47444D02*
X33764Y-47844D01*
X33764Y-47844D02*
X33164Y-47844D01*
X33164Y-47844D02*
X33164Y-47444D01*
X33164Y-47044D02*
X33164Y-46644D01*
X33164Y-46644D02*
X33764Y-46644D01*
X33764Y-46644D02*
X33764Y-47044D01*
X33814Y-16398D02*
G75*
G03X33814Y-16398I-50J0D01*
G74*
G01*
X33764Y-15948D02*
X33764Y-16348D01*
X33764Y-16348D02*
X33164Y-16348D01*
X33164Y-16348D02*
X33164Y-15948D01*
X33164Y-15548D02*
X33164Y-15148D01*
X33164Y-15148D02*
X33764Y-15148D01*
X33764Y-15148D02*
X33764Y-15548D01*
X33814Y-22303D02*
G75*
G03X33814Y-22303I-50J0D01*
G74*
G01*
X33764Y-21853D02*
X33764Y-22253D01*
X33764Y-22253D02*
X33164Y-22253D01*
X33164Y-22253D02*
X33164Y-21853D01*
X33164Y-21453D02*
X33164Y-21053D01*
X33164Y-21053D02*
X33764Y-21053D01*
X33764Y-21053D02*
X33764Y-21453D01*
X33814Y-28209D02*
G75*
G03X33814Y-28209I-50J0D01*
G74*
G01*
X33764Y-27759D02*
X33764Y-28159D01*
X33764Y-28159D02*
X33164Y-28159D01*
X33164Y-28159D02*
X33164Y-27759D01*
X33164Y-27359D02*
X33164Y-26959D01*
X33164Y-26959D02*
X33764Y-26959D01*
X33764Y-26959D02*
X33764Y-27359D01*
X22353Y-13479D02*
G75*
G03X22353Y-13479I-50J0D01*
G74*
G01*
X21853Y-13479D02*
X22253Y-13479D01*
X22253Y-13479D02*
X22253Y-14079D01*
X22253Y-14079D02*
X21853Y-14079D01*
X21453Y-14079D02*
X21053Y-14079D01*
X21053Y-14079D02*
X21053Y-13479D01*
X21053Y-13479D02*
X21453Y-13479D01*
X26290Y-13479D02*
G75*
G03X26290Y-13479I-50J0D01*
G74*
G01*
X25790Y-13479D02*
X26190Y-13479D01*
X26190Y-13479D02*
X26190Y-14079D01*
X26190Y-14079D02*
X25790Y-14079D01*
X25390Y-14079D02*
X24990Y-14079D01*
X24990Y-14079D02*
X24990Y-13479D01*
X24990Y-13479D02*
X25390Y-13479D01*
X30227Y-13479D02*
G75*
G03X30227Y-13479I-50J0D01*
G74*
G01*
X29727Y-13479D02*
X30127Y-13479D01*
X30127Y-13479D02*
X30127Y-14079D01*
X30127Y-14079D02*
X29727Y-14079D01*
X29327Y-14079D02*
X28927Y-14079D01*
X28927Y-14079D02*
X28927Y-13479D01*
X28927Y-13479D02*
X29327Y-13479D01*
X22353Y-31196D02*
G75*
G03X22353Y-31196I-50J0D01*
G74*
G01*
X21853Y-31196D02*
X22253Y-31196D01*
X22253Y-31196D02*
X22253Y-31796D01*
X22253Y-31796D02*
X21853Y-31796D01*
X21453Y-31796D02*
X21053Y-31796D01*
X21053Y-31796D02*
X21053Y-31196D01*
X21053Y-31196D02*
X21453Y-31196D01*
X26290Y-31196D02*
G75*
G03X26290Y-31196I-50J0D01*
G74*
G01*
X25790Y-31196D02*
X26190Y-31196D01*
X26190Y-31196D02*
X26190Y-31796D01*
X26190Y-31796D02*
X25790Y-31796D01*
X25390Y-31796D02*
X24990Y-31796D01*
X24990Y-31796D02*
X24990Y-31196D01*
X24990Y-31196D02*
X25390Y-31196D01*
X42038Y-31196D02*
G75*
G03X42038Y-31196I-50J0D01*
G74*
G01*
X41538Y-31196D02*
X41938Y-31196D01*
X41938Y-31196D02*
X41938Y-31796D01*
X41938Y-31796D02*
X41538Y-31796D01*
X41138Y-31796D02*
X40738Y-31796D01*
X40738Y-31796D02*
X40738Y-31196D01*
X40738Y-31196D02*
X41138Y-31196D01*
X49912Y-13479D02*
G75*
G03X49912Y-13479I-50J0D01*
G74*
G01*
X49412Y-13479D02*
X49812Y-13479D01*
X49812Y-13479D02*
X49812Y-14079D01*
X49812Y-14079D02*
X49412Y-14079D01*
X49012Y-14079D02*
X48612Y-14079D01*
X48612Y-14079D02*
X48612Y-13479D01*
X48612Y-13479D02*
X49012Y-13479D01*
G54D14*
X28093Y-18450D02*
X28993Y-18450D01*
X28993Y-18450D02*
X28993Y-18950D01*
X28993Y-18950D02*
X28093Y-18950D01*
X28093Y-18950D02*
X28093Y-18450D01*
X43757Y-27809D02*
X42857Y-27809D01*
X42857Y-27809D02*
X42857Y-27309D01*
X42857Y-27309D02*
X43757Y-27309D01*
X43757Y-27309D02*
X43757Y-27809D01*
X44041Y-19150D02*
X44041Y-18250D01*
X44041Y-18250D02*
X44541Y-18250D01*
X44541Y-18250D02*
X44541Y-19150D01*
X44541Y-19150D02*
X44041Y-19150D01*
X22187Y-19435D02*
X23087Y-19435D01*
X23087Y-19435D02*
X23087Y-19935D01*
X23087Y-19935D02*
X22187Y-19935D01*
X22187Y-19935D02*
X22187Y-19435D01*
X47778Y-18450D02*
X48678Y-18450D01*
X48678Y-18450D02*
X48678Y-18950D01*
X48678Y-18950D02*
X47778Y-18950D01*
X47778Y-18950D02*
X47778Y-18450D01*
X47778Y-37151D02*
X48678Y-37151D01*
X48678Y-37151D02*
X48678Y-37651D01*
X48678Y-37651D02*
X47778Y-37651D01*
X47778Y-37651D02*
X47778Y-37151D01*
X22187Y-39120D02*
X23087Y-39120D01*
X23087Y-39120D02*
X23087Y-39620D01*
X23087Y-39620D02*
X22187Y-39620D01*
X22187Y-39620D02*
X22187Y-39120D01*
X43557Y-42857D02*
X43557Y-43757D01*
X43557Y-43757D02*
X43057Y-43757D01*
X43057Y-43757D02*
X43057Y-42857D01*
X43057Y-42857D02*
X43557Y-42857D01*
X42772Y-39620D02*
X41872Y-39620D01*
X41872Y-39620D02*
X41872Y-39120D01*
X41872Y-39120D02*
X42772Y-39120D01*
X42772Y-39120D02*
X42772Y-39620D01*
X23372Y-43757D02*
X23372Y-42857D01*
X23372Y-42857D02*
X23872Y-42857D01*
X23872Y-42857D02*
X23872Y-43757D01*
X23872Y-43757D02*
X23372Y-43757D01*
X42072Y-20135D02*
X42072Y-19235D01*
X42072Y-19235D02*
X42572Y-19235D01*
X42572Y-19235D02*
X42572Y-20135D01*
X42572Y-20135D02*
X42072Y-20135D01*
X28093Y-37151D02*
X28993Y-37151D01*
X28993Y-37151D02*
X28993Y-37651D01*
X28993Y-37651D02*
X28093Y-37651D01*
X28093Y-37651D02*
X28093Y-37151D01*
X24072Y-27809D02*
X23172Y-27809D01*
X23172Y-27809D02*
X23172Y-27309D01*
X23172Y-27309D02*
X24072Y-27309D01*
X24072Y-27309D02*
X24072Y-27809D01*
X24356Y-19150D02*
X24356Y-18250D01*
X24356Y-18250D02*
X24856Y-18250D01*
X24856Y-18250D02*
X24856Y-19150D01*
X24856Y-19150D02*
X24356Y-19150D01*
G54D16*
X54633Y-34496D02*
X53633Y-34496D01*
X53633Y-34496D02*
X53633Y-28496D01*
X53633Y-28496D02*
X54633Y-28496D01*
X54633Y-28496D02*
X54633Y-34496D01*
X54633Y-33496D02*
X53633Y-33496D01*
G54D15*
X43691Y-36717D02*
G75*
G03X43691Y-36717I-50J0D01*
G74*
G01*
X44091Y-36717D02*
X43691Y-36717D01*
X43691Y-36717D02*
X43691Y-36117D01*
X43691Y-36117D02*
X44091Y-36117D01*
X44491Y-36117D02*
X44891Y-36117D01*
X44891Y-36117D02*
X44891Y-36717D01*
X44891Y-36717D02*
X44491Y-36717D01*
X24006Y-36717D02*
G75*
G03X24006Y-36717I-50J0D01*
G74*
G01*
X24406Y-36717D02*
X24006Y-36717D01*
X24006Y-36717D02*
X24006Y-36117D01*
X24006Y-36117D02*
X24406Y-36117D01*
X24806Y-36117D02*
X25206Y-36117D01*
X25206Y-36117D02*
X25206Y-36717D01*
X25206Y-36717D02*
X24806Y-36717D01*
G54D17*
X18222Y-13385D02*
G75*
G03X18222Y-13385I-900J0D01*
G74*
G01*
X54443Y-13385D02*
G75*
G03X54443Y-13385I-900J0D01*
G74*
G01*
X54443Y-49606D02*
G75*
G03X54443Y-49606I-900J0D01*
G74*
G01*
X18222Y-49606D02*
G75*
G03X18222Y-49606I-900J0D01*
G74*
G01*
X36333Y-31496D02*
G75*
G03X36333Y-31496I-900J0D01*
G74*
G01*
G54D18*
X25057Y-34677D02*
X25381Y-34677D01*
X25419Y-34663D01*
X25438Y-34648D01*
X25457Y-34620D01*
X25457Y-34563D01*
X25438Y-34534D01*
X25419Y-34520D01*
X25381Y-34505D01*
X25057Y-34505D01*
X25457Y-34205D02*
X25457Y-34377D01*
X25457Y-34291D02*
X25057Y-34291D01*
X25114Y-34320D01*
X25152Y-34348D01*
X25171Y-34377D01*
X25706Y-35286D02*
X25706Y-35086D01*
X26006Y-35215D01*
X25806Y-34843D02*
X26006Y-34843D01*
X25692Y-34915D02*
X25906Y-34986D01*
X25906Y-34800D01*
X26006Y-34543D02*
X26006Y-34686D01*
X25706Y-34686D01*
X25992Y-34457D02*
X26006Y-34415D01*
X26006Y-34343D01*
X25992Y-34315D01*
X25978Y-34300D01*
X25949Y-34286D01*
X25921Y-34286D01*
X25892Y-34300D01*
X25878Y-34315D01*
X25864Y-34343D01*
X25849Y-34400D01*
X25835Y-34429D01*
X25821Y-34443D01*
X25792Y-34457D01*
X25764Y-34457D01*
X25735Y-34443D01*
X25721Y-34429D01*
X25706Y-34400D01*
X25706Y-34329D01*
X25721Y-34286D01*
X25706Y-34015D02*
X25706Y-34157D01*
X25849Y-34172D01*
X25835Y-34157D01*
X25821Y-34129D01*
X25821Y-34057D01*
X25835Y-34029D01*
X25849Y-34015D01*
X25878Y-34000D01*
X25949Y-34000D01*
X25978Y-34015D01*
X25992Y-34029D01*
X26006Y-34057D01*
X26006Y-34129D01*
X25992Y-34157D01*
X25978Y-34172D01*
X26006Y-33857D02*
X26006Y-33800D01*
X25992Y-33772D01*
X25978Y-33757D01*
X25935Y-33729D01*
X25878Y-33715D01*
X25764Y-33715D01*
X25735Y-33729D01*
X25721Y-33743D01*
X25706Y-33772D01*
X25706Y-33829D01*
X25721Y-33857D01*
X25735Y-33872D01*
X25764Y-33886D01*
X25835Y-33886D01*
X25864Y-33872D01*
X25878Y-33857D01*
X25892Y-33829D01*
X25892Y-33772D01*
X25878Y-33743D01*
X25864Y-33729D01*
X25835Y-33715D01*
X25706Y-33443D02*
X25706Y-33586D01*
X25849Y-33600D01*
X25835Y-33586D01*
X25821Y-33557D01*
X25821Y-33486D01*
X25835Y-33457D01*
X25849Y-33443D01*
X25878Y-33429D01*
X25949Y-33429D01*
X25978Y-33443D01*
X25992Y-33457D01*
X26006Y-33486D01*
X26006Y-33557D01*
X25992Y-33586D01*
X25978Y-33600D01*
X44742Y-34677D02*
X45066Y-34677D01*
X45104Y-34663D01*
X45123Y-34648D01*
X45142Y-34620D01*
X45142Y-34563D01*
X45123Y-34534D01*
X45104Y-34520D01*
X45066Y-34505D01*
X44742Y-34505D01*
X44780Y-34377D02*
X44761Y-34363D01*
X44742Y-34334D01*
X44742Y-34263D01*
X44761Y-34234D01*
X44780Y-34220D01*
X44818Y-34205D01*
X44856Y-34205D01*
X44913Y-34220D01*
X45142Y-34391D01*
X45142Y-34205D01*
X45392Y-35286D02*
X45392Y-35086D01*
X45692Y-35215D01*
X45492Y-34843D02*
X45692Y-34843D01*
X45377Y-34915D02*
X45592Y-34986D01*
X45592Y-34800D01*
X45692Y-34543D02*
X45692Y-34686D01*
X45392Y-34686D01*
X45677Y-34457D02*
X45692Y-34415D01*
X45692Y-34343D01*
X45677Y-34315D01*
X45663Y-34300D01*
X45634Y-34286D01*
X45606Y-34286D01*
X45577Y-34300D01*
X45563Y-34315D01*
X45549Y-34343D01*
X45534Y-34400D01*
X45520Y-34429D01*
X45506Y-34443D01*
X45477Y-34457D01*
X45449Y-34457D01*
X45420Y-34443D01*
X45406Y-34429D01*
X45392Y-34400D01*
X45392Y-34329D01*
X45406Y-34286D01*
X45392Y-34015D02*
X45392Y-34157D01*
X45534Y-34172D01*
X45520Y-34157D01*
X45506Y-34129D01*
X45506Y-34057D01*
X45520Y-34029D01*
X45534Y-34015D01*
X45563Y-34000D01*
X45634Y-34000D01*
X45663Y-34015D01*
X45677Y-34029D01*
X45692Y-34057D01*
X45692Y-34129D01*
X45677Y-34157D01*
X45663Y-34172D01*
X45692Y-33857D02*
X45692Y-33800D01*
X45677Y-33772D01*
X45663Y-33757D01*
X45620Y-33729D01*
X45563Y-33715D01*
X45449Y-33715D01*
X45420Y-33729D01*
X45406Y-33743D01*
X45392Y-33772D01*
X45392Y-33829D01*
X45406Y-33857D01*
X45420Y-33872D01*
X45449Y-33886D01*
X45520Y-33886D01*
X45549Y-33872D01*
X45563Y-33857D01*
X45577Y-33829D01*
X45577Y-33772D01*
X45563Y-33743D01*
X45549Y-33729D01*
X45520Y-33715D01*
X45392Y-33443D02*
X45392Y-33586D01*
X45534Y-33600D01*
X45520Y-33586D01*
X45506Y-33557D01*
X45506Y-33486D01*
X45520Y-33457D01*
X45534Y-33443D01*
X45563Y-33429D01*
X45634Y-33429D01*
X45663Y-33443D01*
X45677Y-33457D01*
X45692Y-33486D01*
X45692Y-33557D01*
X45677Y-33586D01*
X45663Y-33600D01*
G54D19*
X39302Y-18063D02*
X39273Y-18049D01*
X39245Y-18020D01*
X39202Y-17978D01*
X39173Y-17963D01*
X39145Y-17963D01*
X39159Y-18035D02*
X39131Y-18020D01*
X39102Y-17992D01*
X39088Y-17935D01*
X39088Y-17835D01*
X39102Y-17778D01*
X39131Y-17749D01*
X39159Y-17735D01*
X39216Y-17735D01*
X39245Y-17749D01*
X39273Y-17778D01*
X39288Y-17835D01*
X39288Y-17935D01*
X39273Y-17992D01*
X39245Y-18020D01*
X39216Y-18035D01*
X39159Y-18035D01*
X39402Y-17763D02*
X39416Y-17749D01*
X39445Y-17735D01*
X39516Y-17735D01*
X39545Y-17749D01*
X39559Y-17763D01*
X39573Y-17792D01*
X39573Y-17820D01*
X39559Y-17863D01*
X39388Y-18035D01*
X39573Y-18035D01*
G54D15*
X39449Y-19402D02*
X39252Y-19402D01*
X39393Y-19337D01*
X39252Y-19271D01*
X39449Y-19271D01*
X39449Y-19177D02*
X39252Y-19177D01*
X39393Y-19112D01*
X39252Y-19046D01*
X39449Y-19046D01*
X39346Y-18886D02*
X39356Y-18858D01*
X39365Y-18849D01*
X39384Y-18839D01*
X39412Y-18839D01*
X39431Y-18849D01*
X39440Y-18858D01*
X39449Y-18877D01*
X39449Y-18952D01*
X39252Y-18952D01*
X39252Y-18886D01*
X39262Y-18868D01*
X39271Y-18858D01*
X39290Y-18849D01*
X39309Y-18849D01*
X39327Y-18858D01*
X39337Y-18868D01*
X39346Y-18886D01*
X39346Y-18952D01*
X39252Y-18783D02*
X39252Y-18671D01*
X39449Y-18727D02*
X39252Y-18727D01*
X39252Y-18521D02*
X39252Y-18558D01*
X39262Y-18577D01*
X39271Y-18586D01*
X39299Y-18605D01*
X39337Y-18614D01*
X39412Y-18614D01*
X39431Y-18605D01*
X39440Y-18596D01*
X39449Y-18577D01*
X39449Y-18539D01*
X39440Y-18521D01*
X39431Y-18511D01*
X39412Y-18502D01*
X39365Y-18502D01*
X39346Y-18511D01*
X39337Y-18521D01*
X39327Y-18539D01*
X39327Y-18577D01*
X39337Y-18596D01*
X39346Y-18605D01*
X39365Y-18614D01*
X39318Y-18333D02*
X39449Y-18333D01*
X39243Y-18380D02*
X39384Y-18427D01*
X39384Y-18305D01*
X39271Y-18239D02*
X39262Y-18230D01*
X39252Y-18211D01*
X39252Y-18164D01*
X39262Y-18145D01*
X39271Y-18136D01*
X39290Y-18127D01*
X39309Y-18127D01*
X39337Y-18136D01*
X39449Y-18248D01*
X39449Y-18127D01*
X39252Y-18061D02*
X39252Y-17930D01*
X39449Y-18014D01*
G54D19*
X41685Y-29737D02*
X41671Y-29766D01*
X41642Y-29795D01*
X41600Y-29837D01*
X41585Y-29866D01*
X41585Y-29895D01*
X41657Y-29880D02*
X41642Y-29909D01*
X41614Y-29937D01*
X41557Y-29952D01*
X41457Y-29952D01*
X41400Y-29937D01*
X41371Y-29909D01*
X41357Y-29880D01*
X41357Y-29823D01*
X41371Y-29795D01*
X41400Y-29766D01*
X41457Y-29752D01*
X41557Y-29752D01*
X41614Y-29766D01*
X41642Y-29795D01*
X41657Y-29823D01*
X41657Y-29880D01*
X41657Y-29466D02*
X41657Y-29637D01*
X41657Y-29552D02*
X41357Y-29552D01*
X41400Y-29580D01*
X41428Y-29609D01*
X41442Y-29637D01*
X41457Y-29209D02*
X41657Y-29209D01*
X41342Y-29280D02*
X41557Y-29352D01*
X41557Y-29166D01*
G54D15*
X41570Y-29607D02*
X41570Y-29410D01*
X41636Y-29551D01*
X41702Y-29410D01*
X41702Y-29607D01*
X41795Y-29607D02*
X41795Y-29410D01*
X41861Y-29551D01*
X41927Y-29410D01*
X41927Y-29607D01*
X42086Y-29504D02*
X42114Y-29513D01*
X42124Y-29522D01*
X42133Y-29541D01*
X42133Y-29569D01*
X42124Y-29588D01*
X42114Y-29597D01*
X42096Y-29607D01*
X42021Y-29607D01*
X42021Y-29410D01*
X42086Y-29410D01*
X42105Y-29419D01*
X42114Y-29429D01*
X42124Y-29447D01*
X42124Y-29466D01*
X42114Y-29485D01*
X42105Y-29494D01*
X42086Y-29504D01*
X42021Y-29504D01*
X42189Y-29410D02*
X42302Y-29410D01*
X42246Y-29607D02*
X42246Y-29410D01*
X42452Y-29410D02*
X42415Y-29410D01*
X42396Y-29419D01*
X42386Y-29429D01*
X42368Y-29457D01*
X42358Y-29494D01*
X42358Y-29569D01*
X42368Y-29588D01*
X42377Y-29597D01*
X42396Y-29607D01*
X42433Y-29607D01*
X42452Y-29597D01*
X42462Y-29588D01*
X42471Y-29569D01*
X42471Y-29522D01*
X42462Y-29504D01*
X42452Y-29494D01*
X42433Y-29485D01*
X42396Y-29485D01*
X42377Y-29494D01*
X42368Y-29504D01*
X42358Y-29522D01*
X42640Y-29475D02*
X42640Y-29607D01*
X42593Y-29400D02*
X42546Y-29541D01*
X42668Y-29541D01*
X42734Y-29429D02*
X42743Y-29419D01*
X42762Y-29410D01*
X42809Y-29410D01*
X42827Y-29419D01*
X42837Y-29429D01*
X42846Y-29447D01*
X42846Y-29466D01*
X42837Y-29494D01*
X42724Y-29607D01*
X42846Y-29607D01*
X42912Y-29410D02*
X43043Y-29410D01*
X42959Y-29607D01*
G54D19*
X43259Y-15880D02*
X43245Y-15909D01*
X43216Y-15937D01*
X43174Y-15980D01*
X43159Y-16009D01*
X43159Y-16037D01*
X43231Y-16023D02*
X43216Y-16051D01*
X43188Y-16080D01*
X43131Y-16094D01*
X43031Y-16094D01*
X42974Y-16080D01*
X42945Y-16051D01*
X42931Y-16023D01*
X42931Y-15966D01*
X42945Y-15937D01*
X42974Y-15909D01*
X43031Y-15894D01*
X43131Y-15894D01*
X43188Y-15909D01*
X43216Y-15937D01*
X43231Y-15966D01*
X43231Y-16023D01*
X43231Y-15609D02*
X43231Y-15780D01*
X43231Y-15694D02*
X42931Y-15694D01*
X42974Y-15723D01*
X43002Y-15751D01*
X43016Y-15780D01*
X42959Y-15494D02*
X42945Y-15480D01*
X42931Y-15451D01*
X42931Y-15380D01*
X42945Y-15351D01*
X42959Y-15337D01*
X42988Y-15323D01*
X43016Y-15323D01*
X43059Y-15337D01*
X43231Y-15509D01*
X43231Y-15323D01*
G54D15*
X41620Y-15827D02*
X41620Y-15630D01*
X41686Y-15771D01*
X41752Y-15630D01*
X41752Y-15827D01*
X41845Y-15827D02*
X41845Y-15630D01*
X41911Y-15771D01*
X41977Y-15630D01*
X41977Y-15827D01*
X42136Y-15724D02*
X42164Y-15733D01*
X42174Y-15743D01*
X42183Y-15762D01*
X42183Y-15790D01*
X42174Y-15809D01*
X42164Y-15818D01*
X42146Y-15827D01*
X42071Y-15827D01*
X42071Y-15630D01*
X42136Y-15630D01*
X42155Y-15640D01*
X42164Y-15649D01*
X42174Y-15668D01*
X42174Y-15687D01*
X42164Y-15705D01*
X42155Y-15715D01*
X42136Y-15724D01*
X42071Y-15724D01*
X42239Y-15630D02*
X42352Y-15630D01*
X42296Y-15827D02*
X42296Y-15630D01*
X42502Y-15630D02*
X42465Y-15630D01*
X42446Y-15640D01*
X42436Y-15649D01*
X42418Y-15677D01*
X42408Y-15715D01*
X42408Y-15790D01*
X42418Y-15809D01*
X42427Y-15818D01*
X42446Y-15827D01*
X42483Y-15827D01*
X42502Y-15818D01*
X42512Y-15809D01*
X42521Y-15790D01*
X42521Y-15743D01*
X42512Y-15724D01*
X42502Y-15715D01*
X42483Y-15705D01*
X42446Y-15705D01*
X42427Y-15715D01*
X42418Y-15724D01*
X42408Y-15743D01*
X42690Y-15696D02*
X42690Y-15827D01*
X42643Y-15621D02*
X42596Y-15762D01*
X42718Y-15762D01*
X42784Y-15649D02*
X42793Y-15640D01*
X42812Y-15630D01*
X42859Y-15630D01*
X42877Y-15640D01*
X42887Y-15649D01*
X42896Y-15668D01*
X42896Y-15687D01*
X42887Y-15715D01*
X42774Y-15827D01*
X42896Y-15827D01*
X42962Y-15630D02*
X43093Y-15630D01*
X43009Y-15827D01*
G54D19*
X51048Y-19637D02*
X51020Y-19623D01*
X50991Y-19594D01*
X50948Y-19552D01*
X50920Y-19537D01*
X50891Y-19537D01*
X50905Y-19609D02*
X50877Y-19594D01*
X50848Y-19566D01*
X50834Y-19509D01*
X50834Y-19409D01*
X50848Y-19352D01*
X50877Y-19323D01*
X50905Y-19309D01*
X50962Y-19309D01*
X50991Y-19323D01*
X51020Y-19352D01*
X51034Y-19409D01*
X51034Y-19509D01*
X51020Y-19566D01*
X50991Y-19594D01*
X50962Y-19609D01*
X50905Y-19609D01*
X51320Y-19609D02*
X51148Y-19609D01*
X51234Y-19609D02*
X51234Y-19309D01*
X51205Y-19352D01*
X51177Y-19380D01*
X51148Y-19394D01*
X51505Y-19309D02*
X51534Y-19309D01*
X51562Y-19323D01*
X51577Y-19337D01*
X51591Y-19366D01*
X51605Y-19423D01*
X51605Y-19494D01*
X51591Y-19552D01*
X51577Y-19580D01*
X51562Y-19594D01*
X51534Y-19609D01*
X51505Y-19609D01*
X51477Y-19594D01*
X51462Y-19580D01*
X51448Y-19552D01*
X51434Y-19494D01*
X51434Y-19423D01*
X51448Y-19366D01*
X51462Y-19337D01*
X51477Y-19323D01*
X51505Y-19309D01*
G54D15*
X51260Y-19452D02*
X51063Y-19452D01*
X51204Y-19387D01*
X51063Y-19321D01*
X51260Y-19321D01*
X51260Y-19227D02*
X51063Y-19227D01*
X51204Y-19162D01*
X51063Y-19096D01*
X51260Y-19096D01*
X51157Y-18936D02*
X51167Y-18908D01*
X51176Y-18899D01*
X51195Y-18889D01*
X51223Y-18889D01*
X51242Y-18899D01*
X51251Y-18908D01*
X51260Y-18927D01*
X51260Y-19002D01*
X51063Y-19002D01*
X51063Y-18936D01*
X51073Y-18918D01*
X51082Y-18908D01*
X51101Y-18899D01*
X51120Y-18899D01*
X51138Y-18908D01*
X51148Y-18918D01*
X51157Y-18936D01*
X51157Y-19002D01*
X51063Y-18833D02*
X51063Y-18721D01*
X51260Y-18777D02*
X51063Y-18777D01*
X51063Y-18571D02*
X51063Y-18608D01*
X51073Y-18627D01*
X51082Y-18636D01*
X51110Y-18655D01*
X51148Y-18664D01*
X51223Y-18664D01*
X51242Y-18655D01*
X51251Y-18646D01*
X51260Y-18627D01*
X51260Y-18589D01*
X51251Y-18571D01*
X51242Y-18561D01*
X51223Y-18552D01*
X51176Y-18552D01*
X51157Y-18561D01*
X51148Y-18571D01*
X51138Y-18589D01*
X51138Y-18627D01*
X51148Y-18646D01*
X51157Y-18655D01*
X51176Y-18664D01*
X51129Y-18383D02*
X51260Y-18383D01*
X51054Y-18430D02*
X51195Y-18477D01*
X51195Y-18355D01*
X51082Y-18289D02*
X51073Y-18280D01*
X51063Y-18261D01*
X51063Y-18214D01*
X51073Y-18195D01*
X51082Y-18186D01*
X51101Y-18177D01*
X51120Y-18177D01*
X51148Y-18186D01*
X51260Y-18298D01*
X51260Y-18177D01*
X51063Y-18111D02*
X51063Y-17980D01*
X51260Y-18064D01*
G54D19*
X51191Y-39322D02*
X51162Y-39308D01*
X51134Y-39279D01*
X51091Y-39237D01*
X51062Y-39222D01*
X51034Y-39222D01*
X51048Y-39294D02*
X51020Y-39279D01*
X50991Y-39251D01*
X50977Y-39194D01*
X50977Y-39094D01*
X50991Y-39037D01*
X51020Y-39008D01*
X51048Y-38994D01*
X51105Y-38994D01*
X51134Y-39008D01*
X51162Y-39037D01*
X51177Y-39094D01*
X51177Y-39194D01*
X51162Y-39251D01*
X51134Y-39279D01*
X51105Y-39294D01*
X51048Y-39294D01*
X51348Y-39122D02*
X51320Y-39108D01*
X51305Y-39094D01*
X51291Y-39065D01*
X51291Y-39051D01*
X51305Y-39022D01*
X51320Y-39008D01*
X51348Y-38994D01*
X51405Y-38994D01*
X51434Y-39008D01*
X51448Y-39022D01*
X51462Y-39051D01*
X51462Y-39065D01*
X51448Y-39094D01*
X51434Y-39108D01*
X51405Y-39122D01*
X51348Y-39122D01*
X51320Y-39137D01*
X51305Y-39151D01*
X51291Y-39179D01*
X51291Y-39237D01*
X51305Y-39265D01*
X51320Y-39279D01*
X51348Y-39294D01*
X51405Y-39294D01*
X51434Y-39279D01*
X51448Y-39265D01*
X51462Y-39237D01*
X51462Y-39179D01*
X51448Y-39151D01*
X51434Y-39137D01*
X51405Y-39122D01*
G54D15*
X51260Y-39137D02*
X51063Y-39137D01*
X51204Y-39072D01*
X51063Y-39006D01*
X51260Y-39006D01*
X51260Y-38912D02*
X51063Y-38912D01*
X51204Y-38847D01*
X51063Y-38781D01*
X51260Y-38781D01*
X51157Y-38621D02*
X51167Y-38593D01*
X51176Y-38584D01*
X51195Y-38574D01*
X51223Y-38574D01*
X51242Y-38584D01*
X51251Y-38593D01*
X51260Y-38612D01*
X51260Y-38687D01*
X51063Y-38687D01*
X51063Y-38621D01*
X51073Y-38603D01*
X51082Y-38593D01*
X51101Y-38584D01*
X51120Y-38584D01*
X51138Y-38593D01*
X51148Y-38603D01*
X51157Y-38621D01*
X51157Y-38687D01*
X51063Y-38518D02*
X51063Y-38406D01*
X51260Y-38462D02*
X51063Y-38462D01*
X51063Y-38256D02*
X51063Y-38293D01*
X51073Y-38312D01*
X51082Y-38321D01*
X51110Y-38340D01*
X51148Y-38349D01*
X51223Y-38349D01*
X51242Y-38340D01*
X51251Y-38331D01*
X51260Y-38312D01*
X51260Y-38274D01*
X51251Y-38256D01*
X51242Y-38246D01*
X51223Y-38237D01*
X51176Y-38237D01*
X51157Y-38246D01*
X51148Y-38256D01*
X51138Y-38274D01*
X51138Y-38312D01*
X51148Y-38331D01*
X51157Y-38340D01*
X51176Y-38349D01*
X51129Y-38068D02*
X51260Y-38068D01*
X51054Y-38115D02*
X51195Y-38162D01*
X51195Y-38040D01*
X51082Y-37974D02*
X51073Y-37965D01*
X51063Y-37946D01*
X51063Y-37899D01*
X51073Y-37880D01*
X51082Y-37871D01*
X51101Y-37862D01*
X51120Y-37862D01*
X51148Y-37871D01*
X51260Y-37983D01*
X51260Y-37862D01*
X51063Y-37796D02*
X51063Y-37665D01*
X51260Y-37749D01*
G54D19*
X41685Y-46327D02*
X41671Y-46355D01*
X41642Y-46384D01*
X41600Y-46427D01*
X41585Y-46455D01*
X41585Y-46484D01*
X41657Y-46470D02*
X41642Y-46498D01*
X41614Y-46527D01*
X41557Y-46541D01*
X41457Y-46541D01*
X41400Y-46527D01*
X41371Y-46498D01*
X41357Y-46470D01*
X41357Y-46413D01*
X41371Y-46384D01*
X41400Y-46355D01*
X41457Y-46341D01*
X41557Y-46341D01*
X41614Y-46355D01*
X41642Y-46384D01*
X41657Y-46413D01*
X41657Y-46470D01*
X41357Y-46084D02*
X41357Y-46141D01*
X41371Y-46170D01*
X41385Y-46184D01*
X41428Y-46213D01*
X41485Y-46227D01*
X41600Y-46227D01*
X41628Y-46213D01*
X41642Y-46198D01*
X41657Y-46170D01*
X41657Y-46113D01*
X41642Y-46084D01*
X41628Y-46070D01*
X41600Y-46055D01*
X41528Y-46055D01*
X41500Y-46070D01*
X41485Y-46084D01*
X41471Y-46113D01*
X41471Y-46170D01*
X41485Y-46198D01*
X41500Y-46213D01*
X41528Y-46227D01*
G54D15*
X41570Y-46339D02*
X41570Y-46142D01*
X41636Y-46283D01*
X41702Y-46142D01*
X41702Y-46339D01*
X41795Y-46339D02*
X41795Y-46142D01*
X41861Y-46283D01*
X41927Y-46142D01*
X41927Y-46339D01*
X42086Y-46236D02*
X42114Y-46245D01*
X42124Y-46255D01*
X42133Y-46273D01*
X42133Y-46302D01*
X42124Y-46320D01*
X42114Y-46330D01*
X42096Y-46339D01*
X42021Y-46339D01*
X42021Y-46142D01*
X42086Y-46142D01*
X42105Y-46151D01*
X42114Y-46161D01*
X42124Y-46180D01*
X42124Y-46198D01*
X42114Y-46217D01*
X42105Y-46227D01*
X42086Y-46236D01*
X42021Y-46236D01*
X42189Y-46142D02*
X42302Y-46142D01*
X42246Y-46339D02*
X42246Y-46142D01*
X42452Y-46142D02*
X42415Y-46142D01*
X42396Y-46151D01*
X42386Y-46161D01*
X42368Y-46189D01*
X42358Y-46227D01*
X42358Y-46302D01*
X42368Y-46320D01*
X42377Y-46330D01*
X42396Y-46339D01*
X42433Y-46339D01*
X42452Y-46330D01*
X42462Y-46320D01*
X42471Y-46302D01*
X42471Y-46255D01*
X42462Y-46236D01*
X42452Y-46227D01*
X42433Y-46217D01*
X42396Y-46217D01*
X42377Y-46227D01*
X42368Y-46236D01*
X42358Y-46255D01*
X42640Y-46208D02*
X42640Y-46339D01*
X42593Y-46133D02*
X42546Y-46273D01*
X42668Y-46273D01*
X42734Y-46161D02*
X42743Y-46151D01*
X42762Y-46142D01*
X42809Y-46142D01*
X42827Y-46151D01*
X42837Y-46161D01*
X42846Y-46180D01*
X42846Y-46198D01*
X42837Y-46227D01*
X42724Y-46339D01*
X42846Y-46339D01*
X42912Y-46142D02*
X43043Y-46142D01*
X42959Y-46339D01*
G54D19*
X39302Y-37748D02*
X39273Y-37734D01*
X39245Y-37705D01*
X39202Y-37663D01*
X39173Y-37648D01*
X39145Y-37648D01*
X39159Y-37720D02*
X39131Y-37705D01*
X39102Y-37677D01*
X39088Y-37620D01*
X39088Y-37520D01*
X39102Y-37463D01*
X39131Y-37434D01*
X39159Y-37420D01*
X39216Y-37420D01*
X39245Y-37434D01*
X39273Y-37463D01*
X39288Y-37520D01*
X39288Y-37620D01*
X39273Y-37677D01*
X39245Y-37705D01*
X39216Y-37720D01*
X39159Y-37720D01*
X39545Y-37520D02*
X39545Y-37720D01*
X39473Y-37405D02*
X39402Y-37620D01*
X39588Y-37620D01*
G54D15*
X39449Y-39087D02*
X39252Y-39087D01*
X39393Y-39022D01*
X39252Y-38956D01*
X39449Y-38956D01*
X39449Y-38862D02*
X39252Y-38862D01*
X39393Y-38797D01*
X39252Y-38731D01*
X39449Y-38731D01*
X39346Y-38571D02*
X39356Y-38543D01*
X39365Y-38534D01*
X39384Y-38524D01*
X39412Y-38524D01*
X39431Y-38534D01*
X39440Y-38543D01*
X39449Y-38562D01*
X39449Y-38637D01*
X39252Y-38637D01*
X39252Y-38571D01*
X39262Y-38553D01*
X39271Y-38543D01*
X39290Y-38534D01*
X39309Y-38534D01*
X39327Y-38543D01*
X39337Y-38553D01*
X39346Y-38571D01*
X39346Y-38637D01*
X39252Y-38468D02*
X39252Y-38356D01*
X39449Y-38412D02*
X39252Y-38412D01*
X39252Y-38206D02*
X39252Y-38243D01*
X39262Y-38262D01*
X39271Y-38271D01*
X39299Y-38290D01*
X39337Y-38299D01*
X39412Y-38299D01*
X39431Y-38290D01*
X39440Y-38281D01*
X39449Y-38262D01*
X39449Y-38224D01*
X39440Y-38206D01*
X39431Y-38196D01*
X39412Y-38187D01*
X39365Y-38187D01*
X39346Y-38196D01*
X39337Y-38206D01*
X39327Y-38224D01*
X39327Y-38262D01*
X39337Y-38281D01*
X39346Y-38290D01*
X39365Y-38299D01*
X39318Y-38018D02*
X39449Y-38018D01*
X39243Y-38065D02*
X39384Y-38112D01*
X39384Y-37990D01*
X39271Y-37924D02*
X39262Y-37915D01*
X39252Y-37896D01*
X39252Y-37849D01*
X39262Y-37830D01*
X39271Y-37821D01*
X39290Y-37812D01*
X39309Y-37812D01*
X39337Y-37821D01*
X39449Y-37933D01*
X39449Y-37812D01*
X39252Y-37746D02*
X39252Y-37615D01*
X39449Y-37699D01*
G54D19*
X22000Y-29737D02*
X21986Y-29766D01*
X21957Y-29795D01*
X21915Y-29837D01*
X21900Y-29866D01*
X21900Y-29895D01*
X21972Y-29880D02*
X21957Y-29909D01*
X21929Y-29937D01*
X21872Y-29952D01*
X21772Y-29952D01*
X21715Y-29937D01*
X21686Y-29909D01*
X21672Y-29880D01*
X21672Y-29823D01*
X21686Y-29795D01*
X21715Y-29766D01*
X21772Y-29752D01*
X21872Y-29752D01*
X21929Y-29766D01*
X21957Y-29795D01*
X21972Y-29823D01*
X21972Y-29880D01*
X21972Y-29466D02*
X21972Y-29637D01*
X21972Y-29552D02*
X21672Y-29552D01*
X21715Y-29580D01*
X21743Y-29609D01*
X21757Y-29637D01*
X21672Y-29366D02*
X21672Y-29180D01*
X21786Y-29280D01*
X21786Y-29237D01*
X21800Y-29209D01*
X21815Y-29195D01*
X21843Y-29180D01*
X21915Y-29180D01*
X21943Y-29195D01*
X21957Y-29209D01*
X21972Y-29237D01*
X21972Y-29323D01*
X21957Y-29352D01*
X21943Y-29366D01*
G54D15*
X21885Y-29607D02*
X21885Y-29410D01*
X21951Y-29551D01*
X22017Y-29410D01*
X22017Y-29607D01*
X22110Y-29607D02*
X22110Y-29410D01*
X22176Y-29551D01*
X22242Y-29410D01*
X22242Y-29607D01*
X22401Y-29504D02*
X22429Y-29513D01*
X22439Y-29522D01*
X22448Y-29541D01*
X22448Y-29569D01*
X22439Y-29588D01*
X22429Y-29597D01*
X22411Y-29607D01*
X22336Y-29607D01*
X22336Y-29410D01*
X22401Y-29410D01*
X22420Y-29419D01*
X22429Y-29429D01*
X22439Y-29447D01*
X22439Y-29466D01*
X22429Y-29485D01*
X22420Y-29494D01*
X22401Y-29504D01*
X22336Y-29504D01*
X22504Y-29410D02*
X22617Y-29410D01*
X22561Y-29607D02*
X22561Y-29410D01*
X22767Y-29410D02*
X22730Y-29410D01*
X22711Y-29419D01*
X22701Y-29429D01*
X22683Y-29457D01*
X22673Y-29494D01*
X22673Y-29569D01*
X22683Y-29588D01*
X22692Y-29597D01*
X22711Y-29607D01*
X22748Y-29607D01*
X22767Y-29597D01*
X22776Y-29588D01*
X22786Y-29569D01*
X22786Y-29522D01*
X22776Y-29504D01*
X22767Y-29494D01*
X22748Y-29485D01*
X22711Y-29485D01*
X22692Y-29494D01*
X22683Y-29504D01*
X22673Y-29522D01*
X22955Y-29475D02*
X22955Y-29607D01*
X22908Y-29400D02*
X22861Y-29541D01*
X22983Y-29541D01*
X23049Y-29429D02*
X23058Y-29419D01*
X23077Y-29410D01*
X23124Y-29410D01*
X23142Y-29419D01*
X23152Y-29429D01*
X23161Y-29447D01*
X23161Y-29466D01*
X23152Y-29494D01*
X23039Y-29607D01*
X23161Y-29607D01*
X23227Y-29410D02*
X23358Y-29410D01*
X23274Y-29607D01*
G54D19*
X23574Y-15880D02*
X23560Y-15909D01*
X23531Y-15937D01*
X23489Y-15980D01*
X23474Y-16009D01*
X23474Y-16037D01*
X23546Y-16023D02*
X23531Y-16051D01*
X23503Y-16080D01*
X23446Y-16094D01*
X23346Y-16094D01*
X23289Y-16080D01*
X23260Y-16051D01*
X23246Y-16023D01*
X23246Y-15966D01*
X23260Y-15937D01*
X23289Y-15909D01*
X23346Y-15894D01*
X23446Y-15894D01*
X23503Y-15909D01*
X23531Y-15937D01*
X23546Y-15966D01*
X23546Y-16023D01*
X23546Y-15609D02*
X23546Y-15780D01*
X23546Y-15694D02*
X23246Y-15694D01*
X23289Y-15723D01*
X23317Y-15751D01*
X23331Y-15780D01*
X23546Y-15323D02*
X23546Y-15494D01*
X23546Y-15409D02*
X23246Y-15409D01*
X23289Y-15437D01*
X23317Y-15466D01*
X23331Y-15494D01*
G54D15*
X21935Y-15827D02*
X21935Y-15630D01*
X22001Y-15771D01*
X22067Y-15630D01*
X22067Y-15827D01*
X22160Y-15827D02*
X22160Y-15630D01*
X22226Y-15771D01*
X22292Y-15630D01*
X22292Y-15827D01*
X22451Y-15724D02*
X22479Y-15733D01*
X22489Y-15743D01*
X22498Y-15762D01*
X22498Y-15790D01*
X22489Y-15809D01*
X22479Y-15818D01*
X22461Y-15827D01*
X22386Y-15827D01*
X22386Y-15630D01*
X22451Y-15630D01*
X22470Y-15640D01*
X22479Y-15649D01*
X22489Y-15668D01*
X22489Y-15687D01*
X22479Y-15705D01*
X22470Y-15715D01*
X22451Y-15724D01*
X22386Y-15724D01*
X22554Y-15630D02*
X22667Y-15630D01*
X22611Y-15827D02*
X22611Y-15630D01*
X22817Y-15630D02*
X22780Y-15630D01*
X22761Y-15640D01*
X22751Y-15649D01*
X22733Y-15677D01*
X22723Y-15715D01*
X22723Y-15790D01*
X22733Y-15809D01*
X22742Y-15818D01*
X22761Y-15827D01*
X22798Y-15827D01*
X22817Y-15818D01*
X22826Y-15809D01*
X22836Y-15790D01*
X22836Y-15743D01*
X22826Y-15724D01*
X22817Y-15715D01*
X22798Y-15705D01*
X22761Y-15705D01*
X22742Y-15715D01*
X22733Y-15724D01*
X22723Y-15743D01*
X23005Y-15696D02*
X23005Y-15827D01*
X22958Y-15621D02*
X22911Y-15762D01*
X23033Y-15762D01*
X23099Y-15649D02*
X23108Y-15640D01*
X23127Y-15630D01*
X23174Y-15630D01*
X23192Y-15640D01*
X23202Y-15649D01*
X23211Y-15668D01*
X23211Y-15687D01*
X23202Y-15715D01*
X23089Y-15827D01*
X23211Y-15827D01*
X23277Y-15630D02*
X23408Y-15630D01*
X23324Y-15827D01*
G54D19*
X19617Y-18063D02*
X19588Y-18049D01*
X19560Y-18020D01*
X19517Y-17978D01*
X19488Y-17963D01*
X19460Y-17963D01*
X19474Y-18035D02*
X19446Y-18020D01*
X19417Y-17992D01*
X19403Y-17935D01*
X19403Y-17835D01*
X19417Y-17778D01*
X19446Y-17749D01*
X19474Y-17735D01*
X19531Y-17735D01*
X19560Y-17749D01*
X19588Y-17778D01*
X19603Y-17835D01*
X19603Y-17935D01*
X19588Y-17992D01*
X19560Y-18020D01*
X19531Y-18035D01*
X19474Y-18035D01*
X19888Y-18035D02*
X19717Y-18035D01*
X19803Y-18035D02*
X19803Y-17735D01*
X19774Y-17778D01*
X19746Y-17806D01*
X19717Y-17820D01*
G54D15*
X19764Y-19402D02*
X19567Y-19402D01*
X19708Y-19337D01*
X19567Y-19271D01*
X19764Y-19271D01*
X19764Y-19177D02*
X19567Y-19177D01*
X19708Y-19112D01*
X19567Y-19046D01*
X19764Y-19046D01*
X19661Y-18886D02*
X19670Y-18858D01*
X19680Y-18849D01*
X19699Y-18839D01*
X19727Y-18839D01*
X19746Y-18849D01*
X19755Y-18858D01*
X19764Y-18877D01*
X19764Y-18952D01*
X19567Y-18952D01*
X19567Y-18886D01*
X19577Y-18868D01*
X19586Y-18858D01*
X19605Y-18849D01*
X19624Y-18849D01*
X19642Y-18858D01*
X19652Y-18868D01*
X19661Y-18886D01*
X19661Y-18952D01*
X19567Y-18783D02*
X19567Y-18671D01*
X19764Y-18727D02*
X19567Y-18727D01*
X19567Y-18521D02*
X19567Y-18558D01*
X19577Y-18577D01*
X19586Y-18586D01*
X19614Y-18605D01*
X19652Y-18614D01*
X19727Y-18614D01*
X19746Y-18605D01*
X19755Y-18596D01*
X19764Y-18577D01*
X19764Y-18539D01*
X19755Y-18521D01*
X19746Y-18511D01*
X19727Y-18502D01*
X19680Y-18502D01*
X19661Y-18511D01*
X19652Y-18521D01*
X19642Y-18539D01*
X19642Y-18577D01*
X19652Y-18596D01*
X19661Y-18605D01*
X19680Y-18614D01*
X19633Y-18333D02*
X19764Y-18333D01*
X19558Y-18380D02*
X19699Y-18427D01*
X19699Y-18305D01*
X19586Y-18239D02*
X19577Y-18230D01*
X19567Y-18211D01*
X19567Y-18164D01*
X19577Y-18145D01*
X19586Y-18136D01*
X19605Y-18127D01*
X19624Y-18127D01*
X19652Y-18136D01*
X19764Y-18248D01*
X19764Y-18127D01*
X19567Y-18061D02*
X19567Y-17930D01*
X19764Y-18014D01*
G54D19*
X31506Y-19637D02*
X31477Y-19623D01*
X31449Y-19594D01*
X31406Y-19552D01*
X31377Y-19537D01*
X31349Y-19537D01*
X31363Y-19609D02*
X31335Y-19594D01*
X31306Y-19566D01*
X31292Y-19509D01*
X31292Y-19409D01*
X31306Y-19352D01*
X31335Y-19323D01*
X31363Y-19309D01*
X31420Y-19309D01*
X31449Y-19323D01*
X31477Y-19352D01*
X31492Y-19409D01*
X31492Y-19509D01*
X31477Y-19566D01*
X31449Y-19594D01*
X31420Y-19609D01*
X31363Y-19609D01*
X31635Y-19609D02*
X31692Y-19609D01*
X31720Y-19594D01*
X31735Y-19580D01*
X31763Y-19537D01*
X31777Y-19480D01*
X31777Y-19366D01*
X31763Y-19337D01*
X31749Y-19323D01*
X31720Y-19309D01*
X31663Y-19309D01*
X31635Y-19323D01*
X31620Y-19337D01*
X31606Y-19366D01*
X31606Y-19437D01*
X31620Y-19466D01*
X31635Y-19480D01*
X31663Y-19494D01*
X31720Y-19494D01*
X31749Y-19480D01*
X31763Y-19466D01*
X31777Y-19437D01*
G54D15*
X31575Y-19452D02*
X31378Y-19452D01*
X31519Y-19387D01*
X31378Y-19321D01*
X31575Y-19321D01*
X31575Y-19227D02*
X31378Y-19227D01*
X31519Y-19162D01*
X31378Y-19096D01*
X31575Y-19096D01*
X31472Y-18936D02*
X31481Y-18908D01*
X31491Y-18899D01*
X31510Y-18889D01*
X31538Y-18889D01*
X31557Y-18899D01*
X31566Y-18908D01*
X31575Y-18927D01*
X31575Y-19002D01*
X31378Y-19002D01*
X31378Y-18936D01*
X31388Y-18918D01*
X31397Y-18908D01*
X31416Y-18899D01*
X31435Y-18899D01*
X31453Y-18908D01*
X31463Y-18918D01*
X31472Y-18936D01*
X31472Y-19002D01*
X31378Y-18833D02*
X31378Y-18721D01*
X31575Y-18777D02*
X31378Y-18777D01*
X31378Y-18571D02*
X31378Y-18608D01*
X31388Y-18627D01*
X31397Y-18636D01*
X31425Y-18655D01*
X31463Y-18664D01*
X31538Y-18664D01*
X31557Y-18655D01*
X31566Y-18646D01*
X31575Y-18627D01*
X31575Y-18589D01*
X31566Y-18571D01*
X31557Y-18561D01*
X31538Y-18552D01*
X31491Y-18552D01*
X31472Y-18561D01*
X31463Y-18571D01*
X31453Y-18589D01*
X31453Y-18627D01*
X31463Y-18646D01*
X31472Y-18655D01*
X31491Y-18664D01*
X31444Y-18383D02*
X31575Y-18383D01*
X31369Y-18430D02*
X31510Y-18477D01*
X31510Y-18355D01*
X31397Y-18289D02*
X31388Y-18280D01*
X31378Y-18261D01*
X31378Y-18214D01*
X31388Y-18195D01*
X31397Y-18186D01*
X31416Y-18177D01*
X31435Y-18177D01*
X31463Y-18186D01*
X31575Y-18298D01*
X31575Y-18177D01*
X31378Y-18111D02*
X31378Y-17980D01*
X31575Y-18064D01*
G54D19*
X22000Y-46327D02*
X21986Y-46355D01*
X21957Y-46384D01*
X21915Y-46427D01*
X21900Y-46455D01*
X21900Y-46484D01*
X21972Y-46470D02*
X21957Y-46498D01*
X21929Y-46527D01*
X21872Y-46541D01*
X21772Y-46541D01*
X21715Y-46527D01*
X21686Y-46498D01*
X21672Y-46470D01*
X21672Y-46413D01*
X21686Y-46384D01*
X21715Y-46355D01*
X21772Y-46341D01*
X21872Y-46341D01*
X21929Y-46355D01*
X21957Y-46384D01*
X21972Y-46413D01*
X21972Y-46470D01*
X21672Y-46070D02*
X21672Y-46213D01*
X21815Y-46227D01*
X21800Y-46213D01*
X21786Y-46184D01*
X21786Y-46113D01*
X21800Y-46084D01*
X21815Y-46070D01*
X21843Y-46055D01*
X21915Y-46055D01*
X21943Y-46070D01*
X21957Y-46084D01*
X21972Y-46113D01*
X21972Y-46184D01*
X21957Y-46213D01*
X21943Y-46227D01*
G54D15*
X21885Y-46339D02*
X21885Y-46142D01*
X21951Y-46283D01*
X22017Y-46142D01*
X22017Y-46339D01*
X22110Y-46339D02*
X22110Y-46142D01*
X22176Y-46283D01*
X22242Y-46142D01*
X22242Y-46339D01*
X22401Y-46236D02*
X22429Y-46245D01*
X22439Y-46255D01*
X22448Y-46273D01*
X22448Y-46302D01*
X22439Y-46320D01*
X22429Y-46330D01*
X22411Y-46339D01*
X22336Y-46339D01*
X22336Y-46142D01*
X22401Y-46142D01*
X22420Y-46151D01*
X22429Y-46161D01*
X22439Y-46180D01*
X22439Y-46198D01*
X22429Y-46217D01*
X22420Y-46227D01*
X22401Y-46236D01*
X22336Y-46236D01*
X22504Y-46142D02*
X22617Y-46142D01*
X22561Y-46339D02*
X22561Y-46142D01*
X22767Y-46142D02*
X22730Y-46142D01*
X22711Y-46151D01*
X22701Y-46161D01*
X22683Y-46189D01*
X22673Y-46227D01*
X22673Y-46302D01*
X22683Y-46320D01*
X22692Y-46330D01*
X22711Y-46339D01*
X22748Y-46339D01*
X22767Y-46330D01*
X22776Y-46320D01*
X22786Y-46302D01*
X22786Y-46255D01*
X22776Y-46236D01*
X22767Y-46227D01*
X22748Y-46217D01*
X22711Y-46217D01*
X22692Y-46227D01*
X22683Y-46236D01*
X22673Y-46255D01*
X22955Y-46208D02*
X22955Y-46339D01*
X22908Y-46133D02*
X22861Y-46273D01*
X22983Y-46273D01*
X23049Y-46161D02*
X23058Y-46151D01*
X23077Y-46142D01*
X23124Y-46142D01*
X23142Y-46151D01*
X23152Y-46161D01*
X23161Y-46180D01*
X23161Y-46198D01*
X23152Y-46227D01*
X23039Y-46339D01*
X23161Y-46339D01*
X23227Y-46142D02*
X23358Y-46142D01*
X23274Y-46339D01*
G54D19*
X19617Y-37748D02*
X19588Y-37734D01*
X19560Y-37705D01*
X19517Y-37663D01*
X19488Y-37648D01*
X19460Y-37648D01*
X19474Y-37720D02*
X19446Y-37705D01*
X19417Y-37677D01*
X19403Y-37620D01*
X19403Y-37520D01*
X19417Y-37463D01*
X19446Y-37434D01*
X19474Y-37420D01*
X19531Y-37420D01*
X19560Y-37434D01*
X19588Y-37463D01*
X19603Y-37520D01*
X19603Y-37620D01*
X19588Y-37677D01*
X19560Y-37705D01*
X19531Y-37720D01*
X19474Y-37720D01*
X19703Y-37420D02*
X19888Y-37420D01*
X19788Y-37534D01*
X19831Y-37534D01*
X19860Y-37548D01*
X19874Y-37563D01*
X19888Y-37591D01*
X19888Y-37663D01*
X19874Y-37691D01*
X19860Y-37705D01*
X19831Y-37720D01*
X19746Y-37720D01*
X19717Y-37705D01*
X19703Y-37691D01*
G54D15*
X19764Y-39087D02*
X19567Y-39087D01*
X19708Y-39022D01*
X19567Y-38956D01*
X19764Y-38956D01*
X19764Y-38862D02*
X19567Y-38862D01*
X19708Y-38797D01*
X19567Y-38731D01*
X19764Y-38731D01*
X19661Y-38571D02*
X19670Y-38543D01*
X19680Y-38534D01*
X19699Y-38524D01*
X19727Y-38524D01*
X19746Y-38534D01*
X19755Y-38543D01*
X19764Y-38562D01*
X19764Y-38637D01*
X19567Y-38637D01*
X19567Y-38571D01*
X19577Y-38553D01*
X19586Y-38543D01*
X19605Y-38534D01*
X19624Y-38534D01*
X19642Y-38543D01*
X19652Y-38553D01*
X19661Y-38571D01*
X19661Y-38637D01*
X19567Y-38468D02*
X19567Y-38356D01*
X19764Y-38412D02*
X19567Y-38412D01*
X19567Y-38206D02*
X19567Y-38243D01*
X19577Y-38262D01*
X19586Y-38271D01*
X19614Y-38290D01*
X19652Y-38299D01*
X19727Y-38299D01*
X19746Y-38290D01*
X19755Y-38281D01*
X19764Y-38262D01*
X19764Y-38224D01*
X19755Y-38206D01*
X19746Y-38196D01*
X19727Y-38187D01*
X19680Y-38187D01*
X19661Y-38196D01*
X19652Y-38206D01*
X19642Y-38224D01*
X19642Y-38262D01*
X19652Y-38281D01*
X19661Y-38290D01*
X19680Y-38299D01*
X19633Y-38018D02*
X19764Y-38018D01*
X19558Y-38065D02*
X19699Y-38112D01*
X19699Y-37990D01*
X19586Y-37924D02*
X19577Y-37915D01*
X19567Y-37896D01*
X19567Y-37849D01*
X19577Y-37830D01*
X19586Y-37821D01*
X19605Y-37812D01*
X19624Y-37812D01*
X19652Y-37821D01*
X19764Y-37933D01*
X19764Y-37812D01*
X19567Y-37746D02*
X19567Y-37615D01*
X19764Y-37699D01*
G54D19*
X31506Y-39322D02*
X31477Y-39308D01*
X31449Y-39279D01*
X31406Y-39237D01*
X31377Y-39222D01*
X31349Y-39222D01*
X31363Y-39294D02*
X31335Y-39279D01*
X31306Y-39251D01*
X31292Y-39194D01*
X31292Y-39094D01*
X31306Y-39037D01*
X31335Y-39008D01*
X31363Y-38994D01*
X31420Y-38994D01*
X31449Y-39008D01*
X31477Y-39037D01*
X31492Y-39094D01*
X31492Y-39194D01*
X31477Y-39251D01*
X31449Y-39279D01*
X31420Y-39294D01*
X31363Y-39294D01*
X31592Y-38994D02*
X31792Y-38994D01*
X31663Y-39294D01*
G54D15*
X31575Y-39137D02*
X31378Y-39137D01*
X31519Y-39072D01*
X31378Y-39006D01*
X31575Y-39006D01*
X31575Y-38912D02*
X31378Y-38912D01*
X31519Y-38847D01*
X31378Y-38781D01*
X31575Y-38781D01*
X31472Y-38621D02*
X31481Y-38593D01*
X31491Y-38584D01*
X31510Y-38574D01*
X31538Y-38574D01*
X31557Y-38584D01*
X31566Y-38593D01*
X31575Y-38612D01*
X31575Y-38687D01*
X31378Y-38687D01*
X31378Y-38621D01*
X31388Y-38603D01*
X31397Y-38593D01*
X31416Y-38584D01*
X31435Y-38584D01*
X31453Y-38593D01*
X31463Y-38603D01*
X31472Y-38621D01*
X31472Y-38687D01*
X31378Y-38518D02*
X31378Y-38406D01*
X31575Y-38462D02*
X31378Y-38462D01*
X31378Y-38256D02*
X31378Y-38293D01*
X31388Y-38312D01*
X31397Y-38321D01*
X31425Y-38340D01*
X31463Y-38349D01*
X31538Y-38349D01*
X31557Y-38340D01*
X31566Y-38331D01*
X31575Y-38312D01*
X31575Y-38274D01*
X31566Y-38256D01*
X31557Y-38246D01*
X31538Y-38237D01*
X31491Y-38237D01*
X31472Y-38246D01*
X31463Y-38256D01*
X31453Y-38274D01*
X31453Y-38312D01*
X31463Y-38331D01*
X31472Y-38340D01*
X31491Y-38349D01*
X31444Y-38068D02*
X31575Y-38068D01*
X31369Y-38115D02*
X31510Y-38162D01*
X31510Y-38040D01*
X31397Y-37974D02*
X31388Y-37965D01*
X31378Y-37946D01*
X31378Y-37899D01*
X31388Y-37880D01*
X31397Y-37871D01*
X31416Y-37862D01*
X31435Y-37862D01*
X31463Y-37871D01*
X31575Y-37983D01*
X31575Y-37862D01*
X31378Y-37796D02*
X31378Y-37665D01*
X31575Y-37749D01*
G54D14*
X25397Y-29648D02*
X25297Y-29506D01*
X25226Y-29648D02*
X25226Y-29348D01*
X25340Y-29348D01*
X25369Y-29363D01*
X25383Y-29377D01*
X25397Y-29406D01*
X25397Y-29448D01*
X25383Y-29477D01*
X25369Y-29491D01*
X25340Y-29506D01*
X25226Y-29506D01*
X25511Y-29377D02*
X25526Y-29363D01*
X25554Y-29348D01*
X25626Y-29348D01*
X25654Y-29363D01*
X25669Y-29377D01*
X25683Y-29406D01*
X25683Y-29434D01*
X25669Y-29477D01*
X25497Y-29648D01*
X25683Y-29648D01*
X25783Y-29348D02*
X25983Y-29348D01*
X25854Y-29648D01*
X51302Y-41531D02*
X51159Y-41631D01*
X51302Y-41702D02*
X51002Y-41702D01*
X51002Y-41588D01*
X51016Y-41560D01*
X51031Y-41545D01*
X51059Y-41531D01*
X51102Y-41531D01*
X51131Y-41545D01*
X51145Y-41560D01*
X51159Y-41588D01*
X51159Y-41702D01*
X51302Y-41245D02*
X51302Y-41417D01*
X51302Y-41331D02*
X51002Y-41331D01*
X51045Y-41360D01*
X51073Y-41388D01*
X51088Y-41417D01*
X51002Y-40988D02*
X51002Y-41045D01*
X51016Y-41074D01*
X51031Y-41088D01*
X51073Y-41117D01*
X51131Y-41131D01*
X51245Y-41131D01*
X51273Y-41117D01*
X51288Y-41102D01*
X51302Y-41074D01*
X51302Y-41017D01*
X51288Y-40988D01*
X51273Y-40974D01*
X51245Y-40960D01*
X51173Y-40960D01*
X51145Y-40974D01*
X51131Y-40988D01*
X51116Y-41017D01*
X51116Y-41074D01*
X51131Y-41102D01*
X51145Y-41117D01*
X51173Y-41131D01*
X51302Y-21846D02*
X51159Y-21946D01*
X51302Y-22017D02*
X51002Y-22017D01*
X51002Y-21903D01*
X51016Y-21874D01*
X51031Y-21860D01*
X51059Y-21846D01*
X51102Y-21846D01*
X51131Y-21860D01*
X51145Y-21874D01*
X51159Y-21903D01*
X51159Y-22017D01*
X51031Y-21732D02*
X51016Y-21717D01*
X51002Y-21689D01*
X51002Y-21617D01*
X51016Y-21589D01*
X51031Y-21574D01*
X51059Y-21560D01*
X51088Y-21560D01*
X51131Y-21574D01*
X51302Y-21746D01*
X51302Y-21560D01*
X51002Y-21374D02*
X51002Y-21346D01*
X51016Y-21317D01*
X51031Y-21303D01*
X51059Y-21289D01*
X51116Y-21274D01*
X51188Y-21274D01*
X51245Y-21289D01*
X51273Y-21303D01*
X51288Y-21317D01*
X51302Y-21346D01*
X51302Y-21374D01*
X51288Y-21403D01*
X51273Y-21417D01*
X51245Y-21432D01*
X51188Y-21446D01*
X51116Y-21446D01*
X51059Y-21432D01*
X51031Y-21417D01*
X51016Y-21403D01*
X51002Y-21374D01*
X45082Y-15869D02*
X44982Y-15726D01*
X44911Y-15869D02*
X44911Y-15569D01*
X45025Y-15569D01*
X45054Y-15583D01*
X45068Y-15598D01*
X45082Y-15626D01*
X45082Y-15669D01*
X45068Y-15698D01*
X45054Y-15712D01*
X45025Y-15726D01*
X44911Y-15726D01*
X45197Y-15598D02*
X45211Y-15583D01*
X45239Y-15569D01*
X45311Y-15569D01*
X45339Y-15583D01*
X45354Y-15598D01*
X45368Y-15626D01*
X45368Y-15655D01*
X45354Y-15698D01*
X45182Y-15869D01*
X45368Y-15869D01*
X45625Y-15669D02*
X45625Y-15869D01*
X45554Y-15555D02*
X45482Y-15769D01*
X45668Y-15769D01*
X45082Y-29648D02*
X44982Y-29506D01*
X44911Y-29648D02*
X44911Y-29348D01*
X45025Y-29348D01*
X45054Y-29363D01*
X45068Y-29377D01*
X45082Y-29406D01*
X45082Y-29448D01*
X45068Y-29477D01*
X45054Y-29491D01*
X45025Y-29506D01*
X44911Y-29506D01*
X45197Y-29377D02*
X45211Y-29363D01*
X45239Y-29348D01*
X45311Y-29348D01*
X45339Y-29363D01*
X45354Y-29377D01*
X45368Y-29406D01*
X45368Y-29434D01*
X45354Y-29477D01*
X45182Y-29648D01*
X45368Y-29648D01*
X45539Y-29477D02*
X45511Y-29463D01*
X45497Y-29448D01*
X45482Y-29420D01*
X45482Y-29406D01*
X45497Y-29377D01*
X45511Y-29363D01*
X45539Y-29348D01*
X45597Y-29348D01*
X45625Y-29363D01*
X45639Y-29377D01*
X45654Y-29406D01*
X45654Y-29420D01*
X45639Y-29448D01*
X45625Y-29463D01*
X45597Y-29477D01*
X45539Y-29477D01*
X45511Y-29491D01*
X45497Y-29506D01*
X45482Y-29534D01*
X45482Y-29591D01*
X45497Y-29620D01*
X45511Y-29634D01*
X45539Y-29648D01*
X45597Y-29648D01*
X45625Y-29634D01*
X45639Y-29620D01*
X45654Y-29591D01*
X45654Y-29534D01*
X45639Y-29506D01*
X45625Y-29491D01*
X45597Y-29477D01*
X45082Y-47365D02*
X44982Y-47222D01*
X44911Y-47365D02*
X44911Y-47065D01*
X45025Y-47065D01*
X45054Y-47079D01*
X45068Y-47094D01*
X45082Y-47122D01*
X45082Y-47165D01*
X45068Y-47194D01*
X45054Y-47208D01*
X45025Y-47222D01*
X44911Y-47222D01*
X45368Y-47365D02*
X45197Y-47365D01*
X45282Y-47365D02*
X45282Y-47065D01*
X45254Y-47108D01*
X45225Y-47136D01*
X45197Y-47151D01*
X45482Y-47094D02*
X45497Y-47079D01*
X45525Y-47065D01*
X45597Y-47065D01*
X45625Y-47079D01*
X45639Y-47094D01*
X45654Y-47122D01*
X45654Y-47151D01*
X45639Y-47194D01*
X45468Y-47365D01*
X45654Y-47365D01*
X39491Y-41388D02*
X39348Y-41488D01*
X39491Y-41560D02*
X39191Y-41560D01*
X39191Y-41445D01*
X39205Y-41417D01*
X39220Y-41402D01*
X39248Y-41388D01*
X39291Y-41388D01*
X39320Y-41402D01*
X39334Y-41417D01*
X39348Y-41445D01*
X39348Y-41560D01*
X39320Y-41217D02*
X39305Y-41245D01*
X39291Y-41260D01*
X39262Y-41274D01*
X39248Y-41274D01*
X39220Y-41260D01*
X39205Y-41245D01*
X39191Y-41217D01*
X39191Y-41160D01*
X39205Y-41131D01*
X39220Y-41117D01*
X39248Y-41102D01*
X39262Y-41102D01*
X39291Y-41117D01*
X39305Y-41131D01*
X39320Y-41160D01*
X39320Y-41217D01*
X39334Y-41245D01*
X39348Y-41260D01*
X39377Y-41274D01*
X39434Y-41274D01*
X39462Y-41260D01*
X39477Y-41245D01*
X39491Y-41217D01*
X39491Y-41160D01*
X39477Y-41131D01*
X39462Y-41117D01*
X39434Y-41102D01*
X39377Y-41102D01*
X39348Y-41117D01*
X39334Y-41131D01*
X39320Y-41160D01*
X39491Y-21703D02*
X39348Y-21803D01*
X39491Y-21874D02*
X39191Y-21874D01*
X39191Y-21760D01*
X39205Y-21732D01*
X39220Y-21717D01*
X39248Y-21703D01*
X39291Y-21703D01*
X39320Y-21717D01*
X39334Y-21732D01*
X39348Y-21760D01*
X39348Y-21874D01*
X39291Y-21446D02*
X39491Y-21446D01*
X39177Y-21517D02*
X39391Y-21589D01*
X39391Y-21403D01*
X25397Y-15869D02*
X25297Y-15726D01*
X25226Y-15869D02*
X25226Y-15569D01*
X25340Y-15569D01*
X25369Y-15583D01*
X25383Y-15598D01*
X25397Y-15626D01*
X25397Y-15669D01*
X25383Y-15698D01*
X25369Y-15712D01*
X25340Y-15726D01*
X25226Y-15726D01*
X25511Y-15598D02*
X25526Y-15583D01*
X25554Y-15569D01*
X25626Y-15569D01*
X25654Y-15583D01*
X25669Y-15598D01*
X25683Y-15626D01*
X25683Y-15655D01*
X25669Y-15698D01*
X25497Y-15869D01*
X25683Y-15869D01*
X25783Y-15569D02*
X25969Y-15569D01*
X25869Y-15683D01*
X25911Y-15683D01*
X25940Y-15698D01*
X25954Y-15712D01*
X25969Y-15740D01*
X25969Y-15812D01*
X25954Y-15840D01*
X25940Y-15855D01*
X25911Y-15869D01*
X25826Y-15869D01*
X25797Y-15855D01*
X25783Y-15840D01*
X31617Y-21846D02*
X31474Y-21946D01*
X31617Y-22017D02*
X31317Y-22017D01*
X31317Y-21903D01*
X31331Y-21874D01*
X31346Y-21860D01*
X31374Y-21846D01*
X31417Y-21846D01*
X31446Y-21860D01*
X31460Y-21874D01*
X31474Y-21903D01*
X31474Y-22017D01*
X31617Y-21560D02*
X31617Y-21732D01*
X31617Y-21646D02*
X31317Y-21646D01*
X31360Y-21674D01*
X31388Y-21703D01*
X31403Y-21732D01*
X31617Y-21417D02*
X31617Y-21360D01*
X31603Y-21332D01*
X31588Y-21317D01*
X31546Y-21289D01*
X31488Y-21274D01*
X31374Y-21274D01*
X31346Y-21289D01*
X31331Y-21303D01*
X31317Y-21332D01*
X31317Y-21389D01*
X31331Y-21417D01*
X31346Y-21432D01*
X31374Y-21446D01*
X31446Y-21446D01*
X31474Y-21432D01*
X31488Y-21417D01*
X31503Y-21389D01*
X31503Y-21332D01*
X31488Y-21303D01*
X31474Y-21289D01*
X31446Y-21274D01*
X31617Y-41531D02*
X31474Y-41631D01*
X31617Y-41702D02*
X31317Y-41702D01*
X31317Y-41588D01*
X31331Y-41560D01*
X31346Y-41545D01*
X31374Y-41531D01*
X31417Y-41531D01*
X31446Y-41545D01*
X31460Y-41560D01*
X31474Y-41588D01*
X31474Y-41702D01*
X31617Y-41245D02*
X31617Y-41417D01*
X31617Y-41331D02*
X31317Y-41331D01*
X31360Y-41360D01*
X31388Y-41388D01*
X31403Y-41417D01*
X31317Y-40974D02*
X31317Y-41117D01*
X31460Y-41131D01*
X31446Y-41117D01*
X31431Y-41088D01*
X31431Y-41017D01*
X31446Y-40988D01*
X31460Y-40974D01*
X31488Y-40960D01*
X31560Y-40960D01*
X31588Y-40974D01*
X31603Y-40988D01*
X31617Y-41017D01*
X31617Y-41088D01*
X31603Y-41117D01*
X31588Y-41131D01*
X25397Y-47365D02*
X25297Y-47222D01*
X25226Y-47365D02*
X25226Y-47065D01*
X25340Y-47065D01*
X25369Y-47079D01*
X25383Y-47094D01*
X25397Y-47122D01*
X25397Y-47165D01*
X25383Y-47194D01*
X25369Y-47208D01*
X25340Y-47222D01*
X25226Y-47222D01*
X25683Y-47365D02*
X25511Y-47365D01*
X25597Y-47365D02*
X25597Y-47065D01*
X25569Y-47108D01*
X25540Y-47136D01*
X25511Y-47151D01*
X25969Y-47365D02*
X25797Y-47365D01*
X25883Y-47365D02*
X25883Y-47065D01*
X25854Y-47108D01*
X25826Y-47136D01*
X25797Y-47151D01*
X19806Y-41388D02*
X19663Y-41488D01*
X19806Y-41560D02*
X19506Y-41560D01*
X19506Y-41445D01*
X19520Y-41417D01*
X19535Y-41402D01*
X19563Y-41388D01*
X19606Y-41388D01*
X19635Y-41402D01*
X19649Y-41417D01*
X19663Y-41445D01*
X19663Y-41560D01*
X19506Y-41288D02*
X19506Y-41088D01*
X19806Y-41217D01*
X19806Y-21703D02*
X19663Y-21803D01*
X19806Y-21874D02*
X19506Y-21874D01*
X19506Y-21760D01*
X19520Y-21732D01*
X19535Y-21717D01*
X19563Y-21703D01*
X19606Y-21703D01*
X19635Y-21717D01*
X19649Y-21732D01*
X19663Y-21760D01*
X19663Y-21874D01*
X19506Y-21603D02*
X19506Y-21417D01*
X19620Y-21517D01*
X19620Y-21474D01*
X19635Y-21446D01*
X19649Y-21432D01*
X19677Y-21417D01*
X19749Y-21417D01*
X19777Y-21432D01*
X19792Y-21446D01*
X19806Y-21474D01*
X19806Y-21560D01*
X19792Y-21589D01*
X19777Y-21603D01*
G54D20*
X53104Y-41577D02*
X52907Y-41577D01*
X52907Y-41530D01*
X52916Y-41502D01*
X52935Y-41483D01*
X52954Y-41474D01*
X52991Y-41465D01*
X53019Y-41465D01*
X53057Y-41474D01*
X53076Y-41483D01*
X53094Y-41502D01*
X53104Y-41530D01*
X53104Y-41577D01*
X52926Y-41390D02*
X52916Y-41380D01*
X52907Y-41362D01*
X52907Y-41315D01*
X52916Y-41296D01*
X52926Y-41286D01*
X52944Y-41277D01*
X52963Y-41277D01*
X52991Y-41286D01*
X53104Y-41399D01*
X53104Y-41277D01*
X52926Y-41202D02*
X52916Y-41193D01*
X52907Y-41174D01*
X52907Y-41127D01*
X52916Y-41108D01*
X52926Y-41099D01*
X52944Y-41089D01*
X52963Y-41089D01*
X52991Y-41099D01*
X53104Y-41211D01*
X53104Y-41089D01*
X53379Y-41465D02*
X53379Y-41559D01*
X53182Y-41559D01*
X53276Y-41399D02*
X53276Y-41333D01*
X53379Y-41305D02*
X53379Y-41399D01*
X53182Y-41399D01*
X53182Y-41305D01*
X53379Y-41221D02*
X53182Y-41221D01*
X53182Y-41174D01*
X53191Y-41146D01*
X53210Y-41127D01*
X53229Y-41118D01*
X53266Y-41108D01*
X53294Y-41108D01*
X53332Y-41118D01*
X53351Y-41127D01*
X53369Y-41146D01*
X53379Y-41174D01*
X53379Y-41221D01*
X53104Y-21892D02*
X52907Y-21892D01*
X52907Y-21845D01*
X52916Y-21817D01*
X52935Y-21798D01*
X52954Y-21789D01*
X52991Y-21780D01*
X53019Y-21780D01*
X53057Y-21789D01*
X53076Y-21798D01*
X53094Y-21817D01*
X53104Y-21845D01*
X53104Y-21892D01*
X52926Y-21705D02*
X52916Y-21695D01*
X52907Y-21676D01*
X52907Y-21630D01*
X52916Y-21611D01*
X52926Y-21601D01*
X52944Y-21592D01*
X52963Y-21592D01*
X52991Y-21601D01*
X53104Y-21714D01*
X53104Y-21592D01*
X52991Y-21479D02*
X52982Y-21498D01*
X52973Y-21508D01*
X52954Y-21517D01*
X52944Y-21517D01*
X52926Y-21508D01*
X52916Y-21498D01*
X52907Y-21479D01*
X52907Y-21442D01*
X52916Y-21423D01*
X52926Y-21414D01*
X52944Y-21404D01*
X52954Y-21404D01*
X52973Y-21414D01*
X52982Y-21423D01*
X52991Y-21442D01*
X52991Y-21479D01*
X53001Y-21498D01*
X53010Y-21508D01*
X53029Y-21517D01*
X53066Y-21517D01*
X53085Y-21508D01*
X53094Y-21498D01*
X53104Y-21479D01*
X53104Y-21442D01*
X53094Y-21423D01*
X53085Y-21414D01*
X53066Y-21404D01*
X53029Y-21404D01*
X53010Y-21414D01*
X53001Y-21423D01*
X52991Y-21442D01*
X53379Y-21780D02*
X53379Y-21873D01*
X53182Y-21873D01*
X53276Y-21714D02*
X53276Y-21648D01*
X53379Y-21620D02*
X53379Y-21714D01*
X53182Y-21714D01*
X53182Y-21620D01*
X53379Y-21536D02*
X53182Y-21536D01*
X53182Y-21489D01*
X53191Y-21461D01*
X53210Y-21442D01*
X53229Y-21433D01*
X53266Y-21423D01*
X53294Y-21423D01*
X53332Y-21433D01*
X53351Y-21442D01*
X53369Y-21461D01*
X53379Y-21489D01*
X53379Y-21536D01*
X53104Y-47483D02*
X52907Y-47483D01*
X52907Y-47436D01*
X52916Y-47408D01*
X52935Y-47389D01*
X52954Y-47380D01*
X52991Y-47370D01*
X53019Y-47370D01*
X53057Y-47380D01*
X53076Y-47389D01*
X53094Y-47408D01*
X53104Y-47436D01*
X53104Y-47483D01*
X52926Y-47295D02*
X52916Y-47286D01*
X52907Y-47267D01*
X52907Y-47220D01*
X52916Y-47201D01*
X52926Y-47192D01*
X52944Y-47183D01*
X52963Y-47183D01*
X52991Y-47192D01*
X53104Y-47305D01*
X53104Y-47183D01*
X52973Y-47014D02*
X53104Y-47014D01*
X52897Y-47061D02*
X53038Y-47108D01*
X53038Y-46986D01*
X53379Y-47370D02*
X53379Y-47464D01*
X53182Y-47464D01*
X53276Y-47305D02*
X53276Y-47239D01*
X53379Y-47211D02*
X53379Y-47305D01*
X53182Y-47305D01*
X53182Y-47211D01*
X53379Y-47126D02*
X53182Y-47126D01*
X53182Y-47079D01*
X53191Y-47051D01*
X53210Y-47033D01*
X53229Y-47023D01*
X53266Y-47014D01*
X53294Y-47014D01*
X53332Y-47023D01*
X53351Y-47033D01*
X53369Y-47051D01*
X53379Y-47079D01*
X53379Y-47126D01*
X53104Y-15987D02*
X52907Y-15987D01*
X52907Y-15940D01*
X52916Y-15912D01*
X52935Y-15893D01*
X52954Y-15884D01*
X52991Y-15874D01*
X53019Y-15874D01*
X53057Y-15884D01*
X53076Y-15893D01*
X53094Y-15912D01*
X53104Y-15940D01*
X53104Y-15987D01*
X52926Y-15799D02*
X52916Y-15790D01*
X52907Y-15771D01*
X52907Y-15724D01*
X52916Y-15705D01*
X52926Y-15696D01*
X52944Y-15687D01*
X52963Y-15687D01*
X52991Y-15696D01*
X53104Y-15809D01*
X53104Y-15687D01*
X52907Y-15518D02*
X52907Y-15555D01*
X52916Y-15574D01*
X52926Y-15583D01*
X52954Y-15602D01*
X52991Y-15612D01*
X53066Y-15612D01*
X53085Y-15602D01*
X53094Y-15593D01*
X53104Y-15574D01*
X53104Y-15536D01*
X53094Y-15518D01*
X53085Y-15508D01*
X53066Y-15499D01*
X53019Y-15499D01*
X53001Y-15508D01*
X52991Y-15518D01*
X52982Y-15536D01*
X52982Y-15574D01*
X52991Y-15593D01*
X53001Y-15602D01*
X53019Y-15612D01*
X53379Y-15874D02*
X53379Y-15968D01*
X53182Y-15968D01*
X53276Y-15809D02*
X53276Y-15743D01*
X53379Y-15715D02*
X53379Y-15809D01*
X53182Y-15809D01*
X53182Y-15715D01*
X53379Y-15630D02*
X53182Y-15630D01*
X53182Y-15583D01*
X53191Y-15555D01*
X53210Y-15536D01*
X53229Y-15527D01*
X53266Y-15518D01*
X53294Y-15518D01*
X53332Y-15527D01*
X53351Y-15536D01*
X53369Y-15555D01*
X53379Y-15583D01*
X53379Y-15630D01*
X41099Y-13984D02*
X41099Y-13787D01*
X41146Y-13787D01*
X41174Y-13796D01*
X41193Y-13815D01*
X41202Y-13834D01*
X41211Y-13871D01*
X41211Y-13899D01*
X41202Y-13937D01*
X41193Y-13956D01*
X41174Y-13974D01*
X41146Y-13984D01*
X41099Y-13984D01*
X41277Y-13787D02*
X41399Y-13787D01*
X41333Y-13862D01*
X41362Y-13862D01*
X41380Y-13871D01*
X41390Y-13881D01*
X41399Y-13899D01*
X41399Y-13946D01*
X41390Y-13965D01*
X41380Y-13974D01*
X41362Y-13984D01*
X41305Y-13984D01*
X41286Y-13974D01*
X41277Y-13965D01*
X41474Y-13806D02*
X41483Y-13796D01*
X41502Y-13787D01*
X41549Y-13787D01*
X41568Y-13796D01*
X41577Y-13806D01*
X41587Y-13824D01*
X41587Y-13843D01*
X41577Y-13871D01*
X41465Y-13984D01*
X41587Y-13984D01*
X41211Y-13709D02*
X41118Y-13709D01*
X41118Y-13512D01*
X41277Y-13606D02*
X41343Y-13606D01*
X41371Y-13709D02*
X41277Y-13709D01*
X41277Y-13512D01*
X41371Y-13512D01*
X41455Y-13709D02*
X41455Y-13512D01*
X41502Y-13512D01*
X41530Y-13521D01*
X41549Y-13540D01*
X41559Y-13559D01*
X41568Y-13596D01*
X41568Y-13624D01*
X41559Y-13662D01*
X41549Y-13681D01*
X41530Y-13699D01*
X41502Y-13709D01*
X41455Y-13709D01*
X52785Y-27638D02*
X52785Y-27441D01*
X52832Y-27441D01*
X52860Y-27451D01*
X52879Y-27469D01*
X52888Y-27488D01*
X52897Y-27526D01*
X52897Y-27554D01*
X52888Y-27591D01*
X52879Y-27610D01*
X52860Y-27629D01*
X52832Y-27638D01*
X52785Y-27638D01*
X52963Y-27441D02*
X53085Y-27441D01*
X53019Y-27516D01*
X53048Y-27516D01*
X53066Y-27526D01*
X53076Y-27535D01*
X53085Y-27554D01*
X53085Y-27601D01*
X53076Y-27620D01*
X53066Y-27629D01*
X53048Y-27638D01*
X52991Y-27638D01*
X52973Y-27629D01*
X52963Y-27620D01*
X53207Y-27441D02*
X53226Y-27441D01*
X53245Y-27451D01*
X53254Y-27460D01*
X53263Y-27479D01*
X53273Y-27516D01*
X53273Y-27563D01*
X53263Y-27601D01*
X53254Y-27620D01*
X53245Y-27629D01*
X53226Y-27638D01*
X53207Y-27638D01*
X53188Y-27629D01*
X53179Y-27620D01*
X53170Y-27601D01*
X53160Y-27563D01*
X53160Y-27516D01*
X53170Y-27479D01*
X53179Y-27460D01*
X53188Y-27451D01*
X53207Y-27441D01*
X53379Y-27685D02*
X53379Y-27779D01*
X53182Y-27779D01*
X53276Y-27620D02*
X53276Y-27554D01*
X53379Y-27526D02*
X53379Y-27620D01*
X53182Y-27620D01*
X53182Y-27526D01*
X53379Y-27441D02*
X53182Y-27441D01*
X53182Y-27394D01*
X53191Y-27366D01*
X53210Y-27347D01*
X53229Y-27338D01*
X53266Y-27329D01*
X53294Y-27329D01*
X53332Y-27338D01*
X53351Y-27347D01*
X53369Y-27366D01*
X53379Y-27394D01*
X53379Y-27441D01*
X29288Y-31700D02*
X29288Y-31503D01*
X29335Y-31503D01*
X29363Y-31513D01*
X29382Y-31531D01*
X29391Y-31550D01*
X29400Y-31588D01*
X29400Y-31616D01*
X29391Y-31653D01*
X29382Y-31672D01*
X29363Y-31691D01*
X29335Y-31700D01*
X29288Y-31700D01*
X29569Y-31569D02*
X29569Y-31700D01*
X29522Y-31494D02*
X29475Y-31635D01*
X29597Y-31635D01*
X29776Y-31700D02*
X29663Y-31700D01*
X29719Y-31700D02*
X29719Y-31503D01*
X29701Y-31531D01*
X29682Y-31550D01*
X29663Y-31560D01*
X29400Y-31425D02*
X29307Y-31425D01*
X29307Y-31228D01*
X29466Y-31322D02*
X29532Y-31322D01*
X29560Y-31425D02*
X29466Y-31425D01*
X29466Y-31228D01*
X29560Y-31228D01*
X29644Y-31425D02*
X29644Y-31228D01*
X29691Y-31228D01*
X29719Y-31238D01*
X29738Y-31256D01*
X29748Y-31275D01*
X29757Y-31313D01*
X29757Y-31341D01*
X29748Y-31378D01*
X29738Y-31397D01*
X29719Y-31416D01*
X29691Y-31425D01*
X29644Y-31425D01*
X53104Y-35672D02*
X52907Y-35672D01*
X52907Y-35625D01*
X52916Y-35597D01*
X52935Y-35578D01*
X52954Y-35569D01*
X52991Y-35559D01*
X53019Y-35559D01*
X53057Y-35569D01*
X53076Y-35578D01*
X53094Y-35597D01*
X53104Y-35625D01*
X53104Y-35672D01*
X52926Y-35484D02*
X52916Y-35475D01*
X52907Y-35456D01*
X52907Y-35409D01*
X52916Y-35390D01*
X52926Y-35381D01*
X52944Y-35372D01*
X52963Y-35372D01*
X52991Y-35381D01*
X53104Y-35494D01*
X53104Y-35372D01*
X52907Y-35250D02*
X52907Y-35231D01*
X52916Y-35212D01*
X52926Y-35203D01*
X52944Y-35193D01*
X52982Y-35184D01*
X53029Y-35184D01*
X53066Y-35193D01*
X53085Y-35203D01*
X53094Y-35212D01*
X53104Y-35231D01*
X53104Y-35250D01*
X53094Y-35268D01*
X53085Y-35278D01*
X53066Y-35287D01*
X53029Y-35297D01*
X52982Y-35297D01*
X52944Y-35287D01*
X52926Y-35278D01*
X52916Y-35268D01*
X52907Y-35250D01*
X53379Y-35559D02*
X53379Y-35653D01*
X53182Y-35653D01*
X53276Y-35494D02*
X53276Y-35428D01*
X53379Y-35400D02*
X53379Y-35494D01*
X53182Y-35494D01*
X53182Y-35400D01*
X53379Y-35315D02*
X53182Y-35315D01*
X53182Y-35268D01*
X53191Y-35240D01*
X53210Y-35221D01*
X53229Y-35212D01*
X53266Y-35203D01*
X53294Y-35203D01*
X53332Y-35212D01*
X53351Y-35221D01*
X53369Y-35240D01*
X53379Y-35268D01*
X53379Y-35315D01*
X48973Y-49417D02*
X48973Y-49220D01*
X49020Y-49220D01*
X49048Y-49229D01*
X49067Y-49248D01*
X49076Y-49267D01*
X49085Y-49304D01*
X49085Y-49332D01*
X49076Y-49370D01*
X49067Y-49389D01*
X49048Y-49407D01*
X49020Y-49417D01*
X48973Y-49417D01*
X49273Y-49417D02*
X49161Y-49417D01*
X49217Y-49417D02*
X49217Y-49220D01*
X49198Y-49248D01*
X49179Y-49267D01*
X49161Y-49276D01*
X49386Y-49304D02*
X49367Y-49295D01*
X49358Y-49286D01*
X49348Y-49267D01*
X49348Y-49257D01*
X49358Y-49239D01*
X49367Y-49229D01*
X49386Y-49220D01*
X49423Y-49220D01*
X49442Y-49229D01*
X49451Y-49239D01*
X49461Y-49257D01*
X49461Y-49267D01*
X49451Y-49286D01*
X49442Y-49295D01*
X49423Y-49304D01*
X49386Y-49304D01*
X49367Y-49314D01*
X49358Y-49323D01*
X49348Y-49342D01*
X49348Y-49379D01*
X49358Y-49398D01*
X49367Y-49407D01*
X49386Y-49417D01*
X49423Y-49417D01*
X49442Y-49407D01*
X49451Y-49398D01*
X49461Y-49379D01*
X49461Y-49342D01*
X49451Y-49323D01*
X49442Y-49314D01*
X49423Y-49304D01*
X49085Y-49142D02*
X48992Y-49142D01*
X48992Y-48945D01*
X49151Y-49039D02*
X49217Y-49039D01*
X49245Y-49142D02*
X49151Y-49142D01*
X49151Y-48945D01*
X49245Y-48945D01*
X49329Y-49142D02*
X49329Y-48945D01*
X49376Y-48945D01*
X49404Y-48954D01*
X49423Y-48973D01*
X49433Y-48992D01*
X49442Y-49029D01*
X49442Y-49057D01*
X49433Y-49095D01*
X49423Y-49114D01*
X49404Y-49132D01*
X49376Y-49142D01*
X49329Y-49142D01*
X37356Y-15893D02*
X37159Y-15893D01*
X37159Y-15846D01*
X37168Y-15818D01*
X37187Y-15799D01*
X37206Y-15790D01*
X37243Y-15780D01*
X37271Y-15780D01*
X37309Y-15790D01*
X37328Y-15799D01*
X37346Y-15818D01*
X37356Y-15846D01*
X37356Y-15893D01*
X37178Y-15705D02*
X37168Y-15696D01*
X37159Y-15677D01*
X37159Y-15630D01*
X37168Y-15612D01*
X37178Y-15602D01*
X37196Y-15593D01*
X37215Y-15593D01*
X37243Y-15602D01*
X37356Y-15715D01*
X37356Y-15593D01*
X37424Y-15827D02*
X37331Y-15827D01*
X37331Y-15630D01*
X37490Y-15724D02*
X37556Y-15724D01*
X37584Y-15827D02*
X37490Y-15827D01*
X37490Y-15630D01*
X37584Y-15630D01*
X37668Y-15827D02*
X37668Y-15630D01*
X37715Y-15630D01*
X37743Y-15640D01*
X37762Y-15658D01*
X37772Y-15677D01*
X37781Y-15715D01*
X37781Y-15743D01*
X37772Y-15780D01*
X37762Y-15799D01*
X37743Y-15818D01*
X37715Y-15827D01*
X37668Y-15827D01*
X37131Y-21733D02*
X37131Y-21536D01*
X37178Y-21536D01*
X37206Y-21545D01*
X37224Y-21564D01*
X37234Y-21583D01*
X37243Y-21620D01*
X37243Y-21648D01*
X37234Y-21686D01*
X37224Y-21705D01*
X37206Y-21723D01*
X37178Y-21733D01*
X37131Y-21733D01*
X37412Y-21601D02*
X37412Y-21733D01*
X37365Y-21526D02*
X37318Y-21667D01*
X37440Y-21667D01*
X37424Y-21733D02*
X37331Y-21733D01*
X37331Y-21536D01*
X37490Y-21630D02*
X37556Y-21630D01*
X37584Y-21733D02*
X37490Y-21733D01*
X37490Y-21536D01*
X37584Y-21536D01*
X37668Y-21733D02*
X37668Y-21536D01*
X37715Y-21536D01*
X37743Y-21545D01*
X37762Y-21564D01*
X37772Y-21583D01*
X37781Y-21620D01*
X37781Y-21648D01*
X37772Y-21686D01*
X37762Y-21705D01*
X37743Y-21723D01*
X37715Y-21733D01*
X37668Y-21733D01*
X37356Y-27704D02*
X37159Y-27704D01*
X37159Y-27657D01*
X37168Y-27629D01*
X37187Y-27610D01*
X37206Y-27601D01*
X37243Y-27591D01*
X37271Y-27591D01*
X37309Y-27601D01*
X37328Y-27610D01*
X37346Y-27629D01*
X37356Y-27657D01*
X37356Y-27704D01*
X37159Y-27423D02*
X37159Y-27460D01*
X37168Y-27479D01*
X37178Y-27488D01*
X37206Y-27507D01*
X37243Y-27516D01*
X37318Y-27516D01*
X37337Y-27507D01*
X37346Y-27498D01*
X37356Y-27479D01*
X37356Y-27441D01*
X37346Y-27423D01*
X37337Y-27413D01*
X37318Y-27404D01*
X37271Y-27404D01*
X37253Y-27413D01*
X37243Y-27423D01*
X37234Y-27441D01*
X37234Y-27479D01*
X37243Y-27498D01*
X37253Y-27507D01*
X37271Y-27516D01*
X37631Y-27685D02*
X37631Y-27779D01*
X37434Y-27779D01*
X37528Y-27620D02*
X37528Y-27554D01*
X37631Y-27526D02*
X37631Y-27620D01*
X37434Y-27620D01*
X37434Y-27526D01*
X37631Y-27441D02*
X37434Y-27441D01*
X37434Y-27394D01*
X37443Y-27366D01*
X37462Y-27347D01*
X37481Y-27338D01*
X37518Y-27329D01*
X37546Y-27329D01*
X37584Y-27338D01*
X37603Y-27347D01*
X37621Y-27366D01*
X37631Y-27394D01*
X37631Y-27441D01*
X37356Y-35578D02*
X37159Y-35578D01*
X37159Y-35531D01*
X37168Y-35503D01*
X37187Y-35484D01*
X37206Y-35475D01*
X37243Y-35465D01*
X37271Y-35465D01*
X37309Y-35475D01*
X37328Y-35484D01*
X37346Y-35503D01*
X37356Y-35531D01*
X37356Y-35578D01*
X37243Y-35353D02*
X37234Y-35372D01*
X37224Y-35381D01*
X37206Y-35390D01*
X37196Y-35390D01*
X37178Y-35381D01*
X37168Y-35372D01*
X37159Y-35353D01*
X37159Y-35315D01*
X37168Y-35297D01*
X37178Y-35287D01*
X37196Y-35278D01*
X37206Y-35278D01*
X37224Y-35287D01*
X37234Y-35297D01*
X37243Y-35315D01*
X37243Y-35353D01*
X37253Y-35372D01*
X37262Y-35381D01*
X37281Y-35390D01*
X37318Y-35390D01*
X37337Y-35381D01*
X37346Y-35372D01*
X37356Y-35353D01*
X37356Y-35315D01*
X37346Y-35297D01*
X37337Y-35287D01*
X37318Y-35278D01*
X37281Y-35278D01*
X37262Y-35287D01*
X37253Y-35297D01*
X37243Y-35315D01*
X37631Y-35559D02*
X37631Y-35653D01*
X37434Y-35653D01*
X37528Y-35494D02*
X37528Y-35428D01*
X37631Y-35400D02*
X37631Y-35494D01*
X37434Y-35494D01*
X37434Y-35400D01*
X37631Y-35315D02*
X37434Y-35315D01*
X37434Y-35268D01*
X37443Y-35240D01*
X37462Y-35221D01*
X37481Y-35212D01*
X37518Y-35203D01*
X37546Y-35203D01*
X37584Y-35212D01*
X37603Y-35221D01*
X37621Y-35240D01*
X37631Y-35268D01*
X37631Y-35315D01*
X37356Y-41577D02*
X37159Y-41577D01*
X37159Y-41530D01*
X37168Y-41502D01*
X37187Y-41483D01*
X37206Y-41474D01*
X37243Y-41465D01*
X37271Y-41465D01*
X37309Y-41474D01*
X37328Y-41483D01*
X37346Y-41502D01*
X37356Y-41530D01*
X37356Y-41577D01*
X37356Y-41277D02*
X37356Y-41390D01*
X37356Y-41333D02*
X37159Y-41333D01*
X37187Y-41352D01*
X37206Y-41371D01*
X37215Y-41390D01*
X37159Y-41155D02*
X37159Y-41136D01*
X37168Y-41118D01*
X37178Y-41108D01*
X37196Y-41099D01*
X37234Y-41089D01*
X37281Y-41089D01*
X37318Y-41099D01*
X37337Y-41108D01*
X37346Y-41118D01*
X37356Y-41136D01*
X37356Y-41155D01*
X37346Y-41174D01*
X37337Y-41183D01*
X37318Y-41193D01*
X37281Y-41202D01*
X37234Y-41202D01*
X37196Y-41193D01*
X37178Y-41183D01*
X37168Y-41174D01*
X37159Y-41155D01*
X37631Y-41465D02*
X37631Y-41559D01*
X37434Y-41559D01*
X37528Y-41399D02*
X37528Y-41333D01*
X37631Y-41305D02*
X37631Y-41399D01*
X37434Y-41399D01*
X37434Y-41305D01*
X37631Y-41221D02*
X37434Y-41221D01*
X37434Y-41174D01*
X37443Y-41146D01*
X37462Y-41127D01*
X37481Y-41118D01*
X37518Y-41108D01*
X37546Y-41108D01*
X37584Y-41118D01*
X37603Y-41127D01*
X37621Y-41146D01*
X37631Y-41174D01*
X37631Y-41221D01*
X37356Y-47483D02*
X37159Y-47483D01*
X37159Y-47436D01*
X37168Y-47408D01*
X37187Y-47389D01*
X37206Y-47380D01*
X37243Y-47370D01*
X37271Y-47370D01*
X37309Y-47380D01*
X37328Y-47389D01*
X37346Y-47408D01*
X37356Y-47436D01*
X37356Y-47483D01*
X37356Y-47183D02*
X37356Y-47295D01*
X37356Y-47239D02*
X37159Y-47239D01*
X37187Y-47258D01*
X37206Y-47276D01*
X37215Y-47295D01*
X37178Y-47108D02*
X37168Y-47098D01*
X37159Y-47079D01*
X37159Y-47033D01*
X37168Y-47014D01*
X37178Y-47004D01*
X37196Y-46995D01*
X37215Y-46995D01*
X37243Y-47004D01*
X37356Y-47117D01*
X37356Y-46995D01*
X37631Y-47370D02*
X37631Y-47464D01*
X37434Y-47464D01*
X37528Y-47305D02*
X37528Y-47239D01*
X37631Y-47211D02*
X37631Y-47305D01*
X37434Y-47305D01*
X37434Y-47211D01*
X37631Y-47126D02*
X37434Y-47126D01*
X37434Y-47079D01*
X37443Y-47051D01*
X37462Y-47033D01*
X37481Y-47023D01*
X37518Y-47014D01*
X37546Y-47014D01*
X37584Y-47023D01*
X37603Y-47033D01*
X37621Y-47051D01*
X37631Y-47079D01*
X37631Y-47126D01*
X41099Y-49417D02*
X41099Y-49220D01*
X41146Y-49220D01*
X41174Y-49229D01*
X41193Y-49248D01*
X41202Y-49267D01*
X41211Y-49304D01*
X41211Y-49332D01*
X41202Y-49370D01*
X41193Y-49389D01*
X41174Y-49407D01*
X41146Y-49417D01*
X41099Y-49417D01*
X41399Y-49417D02*
X41286Y-49417D01*
X41343Y-49417D02*
X41343Y-49220D01*
X41324Y-49248D01*
X41305Y-49267D01*
X41286Y-49276D01*
X41568Y-49286D02*
X41568Y-49417D01*
X41521Y-49210D02*
X41474Y-49351D01*
X41596Y-49351D01*
X41211Y-49142D02*
X41118Y-49142D01*
X41118Y-48945D01*
X41277Y-49039D02*
X41343Y-49039D01*
X41371Y-49142D02*
X41277Y-49142D01*
X41277Y-48945D01*
X41371Y-48945D01*
X41455Y-49142D02*
X41455Y-48945D01*
X41502Y-48945D01*
X41530Y-48954D01*
X41549Y-48973D01*
X41559Y-48992D01*
X41568Y-49029D01*
X41568Y-49057D01*
X41559Y-49095D01*
X41549Y-49114D01*
X41530Y-49132D01*
X41502Y-49142D01*
X41455Y-49142D01*
X45036Y-49417D02*
X45036Y-49220D01*
X45083Y-49220D01*
X45111Y-49229D01*
X45130Y-49248D01*
X45139Y-49267D01*
X45148Y-49304D01*
X45148Y-49332D01*
X45139Y-49370D01*
X45130Y-49389D01*
X45111Y-49407D01*
X45083Y-49417D01*
X45036Y-49417D01*
X45336Y-49417D02*
X45223Y-49417D01*
X45280Y-49417D02*
X45280Y-49220D01*
X45261Y-49248D01*
X45242Y-49267D01*
X45223Y-49276D01*
X45505Y-49220D02*
X45467Y-49220D01*
X45449Y-49229D01*
X45439Y-49239D01*
X45420Y-49267D01*
X45411Y-49304D01*
X45411Y-49379D01*
X45420Y-49398D01*
X45430Y-49407D01*
X45449Y-49417D01*
X45486Y-49417D01*
X45505Y-49407D01*
X45514Y-49398D01*
X45524Y-49379D01*
X45524Y-49332D01*
X45514Y-49314D01*
X45505Y-49304D01*
X45486Y-49295D01*
X45449Y-49295D01*
X45430Y-49304D01*
X45420Y-49314D01*
X45411Y-49332D01*
X45148Y-49142D02*
X45055Y-49142D01*
X45055Y-48945D01*
X45214Y-49039D02*
X45280Y-49039D01*
X45308Y-49142D02*
X45214Y-49142D01*
X45214Y-48945D01*
X45308Y-48945D01*
X45392Y-49142D02*
X45392Y-48945D01*
X45439Y-48945D01*
X45467Y-48954D01*
X45486Y-48973D01*
X45496Y-48992D01*
X45505Y-49029D01*
X45505Y-49057D01*
X45496Y-49095D01*
X45486Y-49114D01*
X45467Y-49132D01*
X45439Y-49142D01*
X45392Y-49142D01*
X33419Y-41577D02*
X33222Y-41577D01*
X33222Y-41530D01*
X33231Y-41502D01*
X33250Y-41483D01*
X33269Y-41474D01*
X33306Y-41465D01*
X33334Y-41465D01*
X33372Y-41474D01*
X33391Y-41483D01*
X33409Y-41502D01*
X33419Y-41530D01*
X33419Y-41577D01*
X33241Y-41390D02*
X33231Y-41380D01*
X33222Y-41362D01*
X33222Y-41315D01*
X33231Y-41296D01*
X33241Y-41286D01*
X33259Y-41277D01*
X33278Y-41277D01*
X33306Y-41286D01*
X33419Y-41399D01*
X33419Y-41277D01*
X33419Y-41089D02*
X33419Y-41202D01*
X33419Y-41146D02*
X33222Y-41146D01*
X33250Y-41165D01*
X33269Y-41183D01*
X33278Y-41202D01*
X33487Y-41418D02*
X33394Y-41418D01*
X33394Y-41221D01*
X33553Y-41315D02*
X33619Y-41315D01*
X33647Y-41418D02*
X33553Y-41418D01*
X33553Y-41221D01*
X33647Y-41221D01*
X33731Y-41418D02*
X33731Y-41221D01*
X33778Y-41221D01*
X33806Y-41230D01*
X33825Y-41249D01*
X33835Y-41268D01*
X33844Y-41305D01*
X33844Y-41333D01*
X33835Y-41371D01*
X33825Y-41390D01*
X33806Y-41408D01*
X33778Y-41418D01*
X33731Y-41418D01*
X48973Y-31700D02*
X48973Y-31503D01*
X49020Y-31503D01*
X49048Y-31513D01*
X49067Y-31531D01*
X49076Y-31550D01*
X49085Y-31588D01*
X49085Y-31616D01*
X49076Y-31653D01*
X49067Y-31672D01*
X49048Y-31691D01*
X49020Y-31700D01*
X48973Y-31700D01*
X49254Y-31569D02*
X49254Y-31700D01*
X49207Y-31494D02*
X49161Y-31635D01*
X49282Y-31635D01*
X49348Y-31522D02*
X49358Y-31513D01*
X49376Y-31503D01*
X49423Y-31503D01*
X49442Y-31513D01*
X49451Y-31522D01*
X49461Y-31541D01*
X49461Y-31560D01*
X49451Y-31588D01*
X49339Y-31700D01*
X49461Y-31700D01*
X49085Y-31425D02*
X48992Y-31425D01*
X48992Y-31228D01*
X49151Y-31322D02*
X49217Y-31322D01*
X49245Y-31425D02*
X49151Y-31425D01*
X49151Y-31228D01*
X49245Y-31228D01*
X49329Y-31425D02*
X49329Y-31228D01*
X49376Y-31228D01*
X49404Y-31238D01*
X49423Y-31256D01*
X49433Y-31275D01*
X49442Y-31313D01*
X49442Y-31341D01*
X49433Y-31378D01*
X49423Y-31397D01*
X49404Y-31416D01*
X49376Y-31425D01*
X49329Y-31425D01*
X45036Y-31700D02*
X45036Y-31503D01*
X45083Y-31503D01*
X45111Y-31513D01*
X45130Y-31531D01*
X45139Y-31550D01*
X45148Y-31588D01*
X45148Y-31616D01*
X45139Y-31653D01*
X45130Y-31672D01*
X45111Y-31691D01*
X45083Y-31700D01*
X45036Y-31700D01*
X45317Y-31569D02*
X45317Y-31700D01*
X45270Y-31494D02*
X45223Y-31635D01*
X45345Y-31635D01*
X45458Y-31503D02*
X45477Y-31503D01*
X45496Y-31513D01*
X45505Y-31522D01*
X45514Y-31541D01*
X45524Y-31578D01*
X45524Y-31625D01*
X45514Y-31663D01*
X45505Y-31682D01*
X45496Y-31691D01*
X45477Y-31700D01*
X45458Y-31700D01*
X45439Y-31691D01*
X45430Y-31682D01*
X45420Y-31663D01*
X45411Y-31625D01*
X45411Y-31578D01*
X45420Y-31541D01*
X45430Y-31522D01*
X45439Y-31513D01*
X45458Y-31503D01*
X45148Y-31425D02*
X45055Y-31425D01*
X45055Y-31228D01*
X45214Y-31322D02*
X45280Y-31322D01*
X45308Y-31425D02*
X45214Y-31425D01*
X45214Y-31228D01*
X45308Y-31228D01*
X45392Y-31425D02*
X45392Y-31228D01*
X45439Y-31228D01*
X45467Y-31238D01*
X45486Y-31256D01*
X45496Y-31275D01*
X45505Y-31313D01*
X45505Y-31341D01*
X45496Y-31378D01*
X45486Y-31397D01*
X45467Y-31416D01*
X45439Y-31425D01*
X45392Y-31425D01*
X17671Y-15893D02*
X17474Y-15893D01*
X17474Y-15846D01*
X17483Y-15818D01*
X17502Y-15799D01*
X17521Y-15790D01*
X17558Y-15780D01*
X17586Y-15780D01*
X17624Y-15790D01*
X17643Y-15799D01*
X17661Y-15818D01*
X17671Y-15846D01*
X17671Y-15893D01*
X17671Y-15593D02*
X17671Y-15705D01*
X17671Y-15649D02*
X17474Y-15649D01*
X17502Y-15668D01*
X17521Y-15687D01*
X17530Y-15705D01*
X17946Y-15874D02*
X17946Y-15968D01*
X17749Y-15968D01*
X17843Y-15809D02*
X17843Y-15743D01*
X17946Y-15715D02*
X17946Y-15809D01*
X17749Y-15809D01*
X17749Y-15715D01*
X17946Y-15630D02*
X17749Y-15630D01*
X17749Y-15583D01*
X17758Y-15555D01*
X17777Y-15536D01*
X17796Y-15527D01*
X17833Y-15518D01*
X17861Y-15518D01*
X17899Y-15527D01*
X17918Y-15536D01*
X17936Y-15555D01*
X17946Y-15583D01*
X17946Y-15630D01*
X17671Y-21798D02*
X17474Y-21798D01*
X17474Y-21752D01*
X17483Y-21723D01*
X17502Y-21705D01*
X17521Y-21695D01*
X17558Y-21686D01*
X17586Y-21686D01*
X17624Y-21695D01*
X17643Y-21705D01*
X17661Y-21723D01*
X17671Y-21752D01*
X17671Y-21798D01*
X17474Y-21620D02*
X17474Y-21498D01*
X17549Y-21564D01*
X17549Y-21536D01*
X17558Y-21517D01*
X17568Y-21508D01*
X17586Y-21498D01*
X17633Y-21498D01*
X17652Y-21508D01*
X17661Y-21517D01*
X17671Y-21536D01*
X17671Y-21592D01*
X17661Y-21611D01*
X17652Y-21620D01*
X17946Y-21780D02*
X17946Y-21873D01*
X17749Y-21873D01*
X17843Y-21714D02*
X17843Y-21648D01*
X17946Y-21620D02*
X17946Y-21714D01*
X17749Y-21714D01*
X17749Y-21620D01*
X17946Y-21536D02*
X17749Y-21536D01*
X17749Y-21489D01*
X17758Y-21461D01*
X17777Y-21442D01*
X17796Y-21433D01*
X17833Y-21423D01*
X17861Y-21423D01*
X17899Y-21433D01*
X17918Y-21442D01*
X17936Y-21461D01*
X17946Y-21489D01*
X17946Y-21536D01*
X17446Y-27638D02*
X17446Y-27441D01*
X17493Y-27441D01*
X17521Y-27451D01*
X17539Y-27469D01*
X17549Y-27488D01*
X17558Y-27526D01*
X17558Y-27554D01*
X17549Y-27591D01*
X17539Y-27610D01*
X17521Y-27629D01*
X17493Y-27638D01*
X17446Y-27638D01*
X17736Y-27441D02*
X17643Y-27441D01*
X17633Y-27535D01*
X17643Y-27526D01*
X17661Y-27516D01*
X17708Y-27516D01*
X17727Y-27526D01*
X17736Y-27535D01*
X17746Y-27554D01*
X17746Y-27601D01*
X17736Y-27620D01*
X17727Y-27629D01*
X17708Y-27638D01*
X17661Y-27638D01*
X17643Y-27629D01*
X17633Y-27620D01*
X17739Y-27638D02*
X17646Y-27638D01*
X17646Y-27441D01*
X17805Y-27535D02*
X17871Y-27535D01*
X17899Y-27638D02*
X17805Y-27638D01*
X17805Y-27441D01*
X17899Y-27441D01*
X17983Y-27638D02*
X17983Y-27441D01*
X18030Y-27441D01*
X18058Y-27451D01*
X18077Y-27469D01*
X18086Y-27488D01*
X18096Y-27526D01*
X18096Y-27554D01*
X18086Y-27591D01*
X18077Y-27610D01*
X18058Y-27629D01*
X18030Y-27638D01*
X17983Y-27638D01*
X17671Y-35578D02*
X17474Y-35578D01*
X17474Y-35531D01*
X17483Y-35503D01*
X17502Y-35484D01*
X17521Y-35475D01*
X17558Y-35465D01*
X17586Y-35465D01*
X17624Y-35475D01*
X17643Y-35484D01*
X17661Y-35503D01*
X17671Y-35531D01*
X17671Y-35578D01*
X17474Y-35400D02*
X17474Y-35268D01*
X17671Y-35353D01*
X17739Y-35512D02*
X17646Y-35512D01*
X17646Y-35315D01*
X17805Y-35409D02*
X17871Y-35409D01*
X17899Y-35512D02*
X17805Y-35512D01*
X17805Y-35315D01*
X17899Y-35315D01*
X17983Y-35512D02*
X17983Y-35315D01*
X18030Y-35315D01*
X18058Y-35325D01*
X18077Y-35343D01*
X18086Y-35362D01*
X18096Y-35400D01*
X18096Y-35428D01*
X18086Y-35465D01*
X18077Y-35484D01*
X18058Y-35503D01*
X18030Y-35512D01*
X17983Y-35512D01*
X17446Y-41418D02*
X17446Y-41221D01*
X17493Y-41221D01*
X17521Y-41230D01*
X17539Y-41249D01*
X17549Y-41268D01*
X17558Y-41305D01*
X17558Y-41333D01*
X17549Y-41371D01*
X17539Y-41390D01*
X17521Y-41408D01*
X17493Y-41418D01*
X17446Y-41418D01*
X17652Y-41418D02*
X17690Y-41418D01*
X17708Y-41408D01*
X17718Y-41399D01*
X17736Y-41371D01*
X17746Y-41333D01*
X17746Y-41258D01*
X17736Y-41240D01*
X17727Y-41230D01*
X17708Y-41221D01*
X17671Y-41221D01*
X17652Y-41230D01*
X17643Y-41240D01*
X17633Y-41258D01*
X17633Y-41305D01*
X17643Y-41324D01*
X17652Y-41333D01*
X17671Y-41343D01*
X17708Y-41343D01*
X17727Y-41333D01*
X17736Y-41324D01*
X17746Y-41305D01*
X17946Y-41465D02*
X17946Y-41559D01*
X17749Y-41559D01*
X17843Y-41399D02*
X17843Y-41333D01*
X17946Y-41305D02*
X17946Y-41399D01*
X17749Y-41399D01*
X17749Y-41305D01*
X17946Y-41221D02*
X17749Y-41221D01*
X17749Y-41174D01*
X17758Y-41146D01*
X17777Y-41127D01*
X17796Y-41118D01*
X17833Y-41108D01*
X17861Y-41108D01*
X17899Y-41118D01*
X17918Y-41127D01*
X17936Y-41146D01*
X17946Y-41174D01*
X17946Y-41221D01*
X17671Y-47483D02*
X17474Y-47483D01*
X17474Y-47436D01*
X17483Y-47408D01*
X17502Y-47389D01*
X17521Y-47380D01*
X17558Y-47370D01*
X17586Y-47370D01*
X17624Y-47380D01*
X17643Y-47389D01*
X17661Y-47408D01*
X17671Y-47436D01*
X17671Y-47483D01*
X17671Y-47183D02*
X17671Y-47295D01*
X17671Y-47239D02*
X17474Y-47239D01*
X17502Y-47258D01*
X17521Y-47276D01*
X17530Y-47295D01*
X17671Y-46995D02*
X17671Y-47108D01*
X17671Y-47051D02*
X17474Y-47051D01*
X17502Y-47070D01*
X17521Y-47089D01*
X17530Y-47108D01*
X17946Y-47370D02*
X17946Y-47464D01*
X17749Y-47464D01*
X17843Y-47305D02*
X17843Y-47239D01*
X17946Y-47211D02*
X17946Y-47305D01*
X17749Y-47305D01*
X17749Y-47211D01*
X17946Y-47126D02*
X17749Y-47126D01*
X17749Y-47079D01*
X17758Y-47051D01*
X17777Y-47033D01*
X17796Y-47023D01*
X17833Y-47014D01*
X17861Y-47014D01*
X17899Y-47023D01*
X17918Y-47033D01*
X17936Y-47051D01*
X17946Y-47079D01*
X17946Y-47126D01*
X21414Y-49417D02*
X21414Y-49220D01*
X21461Y-49220D01*
X21489Y-49229D01*
X21508Y-49248D01*
X21517Y-49267D01*
X21526Y-49304D01*
X21526Y-49332D01*
X21517Y-49370D01*
X21508Y-49389D01*
X21489Y-49407D01*
X21461Y-49417D01*
X21414Y-49417D01*
X21714Y-49417D02*
X21601Y-49417D01*
X21658Y-49417D02*
X21658Y-49220D01*
X21639Y-49248D01*
X21620Y-49267D01*
X21601Y-49276D01*
X21780Y-49220D02*
X21902Y-49220D01*
X21836Y-49295D01*
X21864Y-49295D01*
X21883Y-49304D01*
X21892Y-49314D01*
X21902Y-49332D01*
X21902Y-49379D01*
X21892Y-49398D01*
X21883Y-49407D01*
X21864Y-49417D01*
X21808Y-49417D01*
X21789Y-49407D01*
X21780Y-49398D01*
X21526Y-49142D02*
X21433Y-49142D01*
X21433Y-48945D01*
X21592Y-49039D02*
X21658Y-49039D01*
X21686Y-49142D02*
X21592Y-49142D01*
X21592Y-48945D01*
X21686Y-48945D01*
X21770Y-49142D02*
X21770Y-48945D01*
X21817Y-48945D01*
X21845Y-48954D01*
X21864Y-48973D01*
X21873Y-48992D01*
X21883Y-49029D01*
X21883Y-49057D01*
X21873Y-49095D01*
X21864Y-49114D01*
X21845Y-49132D01*
X21817Y-49142D01*
X21770Y-49142D01*
X25351Y-49417D02*
X25351Y-49220D01*
X25398Y-49220D01*
X25426Y-49229D01*
X25445Y-49248D01*
X25454Y-49267D01*
X25463Y-49304D01*
X25463Y-49332D01*
X25454Y-49370D01*
X25445Y-49389D01*
X25426Y-49407D01*
X25398Y-49417D01*
X25351Y-49417D01*
X25651Y-49417D02*
X25538Y-49417D01*
X25595Y-49417D02*
X25595Y-49220D01*
X25576Y-49248D01*
X25557Y-49267D01*
X25538Y-49276D01*
X25829Y-49220D02*
X25735Y-49220D01*
X25726Y-49314D01*
X25735Y-49304D01*
X25754Y-49295D01*
X25801Y-49295D01*
X25820Y-49304D01*
X25829Y-49314D01*
X25839Y-49332D01*
X25839Y-49379D01*
X25829Y-49398D01*
X25820Y-49407D01*
X25801Y-49417D01*
X25754Y-49417D01*
X25735Y-49407D01*
X25726Y-49398D01*
X25463Y-49142D02*
X25370Y-49142D01*
X25370Y-48945D01*
X25529Y-49039D02*
X25595Y-49039D01*
X25623Y-49142D02*
X25529Y-49142D01*
X25529Y-48945D01*
X25623Y-48945D01*
X25707Y-49142D02*
X25707Y-48945D01*
X25754Y-48945D01*
X25782Y-48954D01*
X25801Y-48973D01*
X25811Y-48992D01*
X25820Y-49029D01*
X25820Y-49057D01*
X25811Y-49095D01*
X25801Y-49114D01*
X25782Y-49132D01*
X25754Y-49142D01*
X25707Y-49142D01*
X29288Y-49417D02*
X29288Y-49220D01*
X29335Y-49220D01*
X29363Y-49229D01*
X29382Y-49248D01*
X29391Y-49267D01*
X29400Y-49304D01*
X29400Y-49332D01*
X29391Y-49370D01*
X29382Y-49389D01*
X29363Y-49407D01*
X29335Y-49417D01*
X29288Y-49417D01*
X29588Y-49417D02*
X29475Y-49417D01*
X29532Y-49417D02*
X29532Y-49220D01*
X29513Y-49248D01*
X29494Y-49267D01*
X29475Y-49276D01*
X29654Y-49220D02*
X29785Y-49220D01*
X29701Y-49417D01*
X29400Y-49142D02*
X29307Y-49142D01*
X29307Y-48945D01*
X29466Y-49039D02*
X29532Y-49039D01*
X29560Y-49142D02*
X29466Y-49142D01*
X29466Y-48945D01*
X29560Y-48945D01*
X29644Y-49142D02*
X29644Y-48945D01*
X29691Y-48945D01*
X29719Y-48954D01*
X29738Y-48973D01*
X29748Y-48992D01*
X29757Y-49029D01*
X29757Y-49057D01*
X29748Y-49095D01*
X29738Y-49114D01*
X29719Y-49132D01*
X29691Y-49142D01*
X29644Y-49142D01*
X33419Y-35672D02*
X33222Y-35672D01*
X33222Y-35625D01*
X33231Y-35597D01*
X33250Y-35578D01*
X33269Y-35569D01*
X33306Y-35559D01*
X33334Y-35559D01*
X33372Y-35569D01*
X33391Y-35578D01*
X33409Y-35597D01*
X33419Y-35625D01*
X33419Y-35672D01*
X33419Y-35372D02*
X33419Y-35484D01*
X33419Y-35428D02*
X33222Y-35428D01*
X33250Y-35447D01*
X33269Y-35465D01*
X33278Y-35484D01*
X33419Y-35278D02*
X33419Y-35240D01*
X33409Y-35221D01*
X33400Y-35212D01*
X33372Y-35193D01*
X33334Y-35184D01*
X33259Y-35184D01*
X33241Y-35193D01*
X33231Y-35203D01*
X33222Y-35221D01*
X33222Y-35259D01*
X33231Y-35278D01*
X33241Y-35287D01*
X33259Y-35297D01*
X33306Y-35297D01*
X33325Y-35287D01*
X33334Y-35278D01*
X33344Y-35259D01*
X33344Y-35221D01*
X33334Y-35203D01*
X33325Y-35193D01*
X33306Y-35184D01*
X33694Y-35559D02*
X33694Y-35653D01*
X33497Y-35653D01*
X33591Y-35494D02*
X33591Y-35428D01*
X33694Y-35400D02*
X33694Y-35494D01*
X33497Y-35494D01*
X33497Y-35400D01*
X33694Y-35315D02*
X33497Y-35315D01*
X33497Y-35268D01*
X33506Y-35240D01*
X33525Y-35221D01*
X33544Y-35212D01*
X33581Y-35203D01*
X33609Y-35203D01*
X33647Y-35212D01*
X33666Y-35221D01*
X33684Y-35240D01*
X33694Y-35268D01*
X33694Y-35315D01*
X45036Y-13984D02*
X45036Y-13787D01*
X45083Y-13787D01*
X45111Y-13796D01*
X45130Y-13815D01*
X45139Y-13834D01*
X45148Y-13871D01*
X45148Y-13899D01*
X45139Y-13937D01*
X45130Y-13956D01*
X45111Y-13974D01*
X45083Y-13984D01*
X45036Y-13984D01*
X45214Y-13787D02*
X45336Y-13787D01*
X45270Y-13862D01*
X45299Y-13862D01*
X45317Y-13871D01*
X45327Y-13881D01*
X45336Y-13899D01*
X45336Y-13946D01*
X45327Y-13965D01*
X45317Y-13974D01*
X45299Y-13984D01*
X45242Y-13984D01*
X45223Y-13974D01*
X45214Y-13965D01*
X45505Y-13852D02*
X45505Y-13984D01*
X45458Y-13777D02*
X45411Y-13918D01*
X45533Y-13918D01*
X45148Y-13709D02*
X45055Y-13709D01*
X45055Y-13512D01*
X45214Y-13606D02*
X45280Y-13606D01*
X45308Y-13709D02*
X45214Y-13709D01*
X45214Y-13512D01*
X45308Y-13512D01*
X45392Y-13709D02*
X45392Y-13512D01*
X45439Y-13512D01*
X45467Y-13521D01*
X45486Y-13540D01*
X45496Y-13559D01*
X45505Y-13596D01*
X45505Y-13624D01*
X45496Y-13662D01*
X45486Y-13681D01*
X45467Y-13699D01*
X45439Y-13709D01*
X45392Y-13709D01*
X33419Y-47483D02*
X33222Y-47483D01*
X33222Y-47436D01*
X33231Y-47408D01*
X33250Y-47389D01*
X33269Y-47380D01*
X33306Y-47370D01*
X33334Y-47370D01*
X33372Y-47380D01*
X33391Y-47389D01*
X33409Y-47408D01*
X33419Y-47436D01*
X33419Y-47483D01*
X33241Y-47295D02*
X33231Y-47286D01*
X33222Y-47267D01*
X33222Y-47220D01*
X33231Y-47201D01*
X33241Y-47192D01*
X33259Y-47183D01*
X33278Y-47183D01*
X33306Y-47192D01*
X33419Y-47305D01*
X33419Y-47183D01*
X33222Y-47117D02*
X33222Y-46995D01*
X33297Y-47061D01*
X33297Y-47033D01*
X33306Y-47014D01*
X33316Y-47004D01*
X33334Y-46995D01*
X33381Y-46995D01*
X33400Y-47004D01*
X33409Y-47014D01*
X33419Y-47033D01*
X33419Y-47089D01*
X33409Y-47108D01*
X33400Y-47117D01*
X33694Y-47370D02*
X33694Y-47464D01*
X33497Y-47464D01*
X33591Y-47305D02*
X33591Y-47239D01*
X33694Y-47211D02*
X33694Y-47305D01*
X33497Y-47305D01*
X33497Y-47211D01*
X33694Y-47126D02*
X33497Y-47126D01*
X33497Y-47079D01*
X33506Y-47051D01*
X33525Y-47033D01*
X33544Y-47023D01*
X33581Y-47014D01*
X33609Y-47014D01*
X33647Y-47023D01*
X33666Y-47033D01*
X33684Y-47051D01*
X33694Y-47079D01*
X33694Y-47126D01*
X33419Y-15987D02*
X33222Y-15987D01*
X33222Y-15940D01*
X33231Y-15912D01*
X33250Y-15893D01*
X33269Y-15884D01*
X33306Y-15874D01*
X33334Y-15874D01*
X33372Y-15884D01*
X33391Y-15893D01*
X33409Y-15912D01*
X33419Y-15940D01*
X33419Y-15987D01*
X33241Y-15799D02*
X33231Y-15790D01*
X33222Y-15771D01*
X33222Y-15724D01*
X33231Y-15705D01*
X33241Y-15696D01*
X33259Y-15687D01*
X33278Y-15687D01*
X33306Y-15696D01*
X33419Y-15809D01*
X33419Y-15687D01*
X33222Y-15508D02*
X33222Y-15602D01*
X33316Y-15612D01*
X33306Y-15602D01*
X33297Y-15583D01*
X33297Y-15536D01*
X33306Y-15518D01*
X33316Y-15508D01*
X33334Y-15499D01*
X33381Y-15499D01*
X33400Y-15508D01*
X33409Y-15518D01*
X33419Y-15536D01*
X33419Y-15583D01*
X33409Y-15602D01*
X33400Y-15612D01*
X33694Y-15874D02*
X33694Y-15968D01*
X33497Y-15968D01*
X33591Y-15809D02*
X33591Y-15743D01*
X33694Y-15715D02*
X33694Y-15809D01*
X33497Y-15809D01*
X33497Y-15715D01*
X33694Y-15630D02*
X33497Y-15630D01*
X33497Y-15583D01*
X33506Y-15555D01*
X33525Y-15536D01*
X33544Y-15527D01*
X33581Y-15518D01*
X33609Y-15518D01*
X33647Y-15527D01*
X33666Y-15536D01*
X33684Y-15555D01*
X33694Y-15583D01*
X33694Y-15630D01*
X33419Y-21892D02*
X33222Y-21892D01*
X33222Y-21845D01*
X33231Y-21817D01*
X33250Y-21798D01*
X33269Y-21789D01*
X33306Y-21780D01*
X33334Y-21780D01*
X33372Y-21789D01*
X33391Y-21798D01*
X33409Y-21817D01*
X33419Y-21845D01*
X33419Y-21892D01*
X33241Y-21705D02*
X33231Y-21695D01*
X33222Y-21676D01*
X33222Y-21630D01*
X33231Y-21611D01*
X33241Y-21601D01*
X33259Y-21592D01*
X33278Y-21592D01*
X33306Y-21601D01*
X33419Y-21714D01*
X33419Y-21592D01*
X33222Y-21526D02*
X33222Y-21395D01*
X33419Y-21479D01*
X33694Y-21780D02*
X33694Y-21873D01*
X33497Y-21873D01*
X33591Y-21714D02*
X33591Y-21648D01*
X33694Y-21620D02*
X33694Y-21714D01*
X33497Y-21714D01*
X33497Y-21620D01*
X33694Y-21536D02*
X33497Y-21536D01*
X33497Y-21489D01*
X33506Y-21461D01*
X33525Y-21442D01*
X33544Y-21433D01*
X33581Y-21423D01*
X33609Y-21423D01*
X33647Y-21433D01*
X33666Y-21442D01*
X33684Y-21461D01*
X33694Y-21489D01*
X33694Y-21536D01*
X33419Y-27798D02*
X33222Y-27798D01*
X33222Y-27751D01*
X33231Y-27723D01*
X33250Y-27704D01*
X33269Y-27695D01*
X33306Y-27685D01*
X33334Y-27685D01*
X33372Y-27695D01*
X33391Y-27704D01*
X33409Y-27723D01*
X33419Y-27751D01*
X33419Y-27798D01*
X33241Y-27610D02*
X33231Y-27601D01*
X33222Y-27582D01*
X33222Y-27535D01*
X33231Y-27516D01*
X33241Y-27507D01*
X33259Y-27498D01*
X33278Y-27498D01*
X33306Y-27507D01*
X33419Y-27620D01*
X33419Y-27498D01*
X33419Y-27404D02*
X33419Y-27366D01*
X33409Y-27347D01*
X33400Y-27338D01*
X33372Y-27319D01*
X33334Y-27310D01*
X33259Y-27310D01*
X33241Y-27319D01*
X33231Y-27329D01*
X33222Y-27347D01*
X33222Y-27385D01*
X33231Y-27404D01*
X33241Y-27413D01*
X33259Y-27423D01*
X33306Y-27423D01*
X33325Y-27413D01*
X33334Y-27404D01*
X33344Y-27385D01*
X33344Y-27347D01*
X33334Y-27329D01*
X33325Y-27319D01*
X33306Y-27310D01*
X33694Y-27685D02*
X33694Y-27779D01*
X33497Y-27779D01*
X33591Y-27620D02*
X33591Y-27554D01*
X33694Y-27526D02*
X33694Y-27620D01*
X33497Y-27620D01*
X33497Y-27526D01*
X33694Y-27441D02*
X33497Y-27441D01*
X33497Y-27394D01*
X33506Y-27366D01*
X33525Y-27347D01*
X33544Y-27338D01*
X33581Y-27329D01*
X33609Y-27329D01*
X33647Y-27338D01*
X33666Y-27347D01*
X33684Y-27366D01*
X33694Y-27394D01*
X33694Y-27441D01*
X21414Y-13984D02*
X21414Y-13787D01*
X21461Y-13787D01*
X21489Y-13796D01*
X21508Y-13815D01*
X21517Y-13834D01*
X21526Y-13871D01*
X21526Y-13899D01*
X21517Y-13937D01*
X21508Y-13956D01*
X21489Y-13974D01*
X21461Y-13984D01*
X21414Y-13984D01*
X21592Y-13787D02*
X21714Y-13787D01*
X21648Y-13862D01*
X21676Y-13862D01*
X21695Y-13871D01*
X21705Y-13881D01*
X21714Y-13899D01*
X21714Y-13946D01*
X21705Y-13965D01*
X21695Y-13974D01*
X21676Y-13984D01*
X21620Y-13984D01*
X21601Y-13974D01*
X21592Y-13965D01*
X21902Y-13984D02*
X21789Y-13984D01*
X21845Y-13984D02*
X21845Y-13787D01*
X21827Y-13815D01*
X21808Y-13834D01*
X21789Y-13843D01*
X21526Y-13709D02*
X21433Y-13709D01*
X21433Y-13512D01*
X21592Y-13606D02*
X21658Y-13606D01*
X21686Y-13709D02*
X21592Y-13709D01*
X21592Y-13512D01*
X21686Y-13512D01*
X21770Y-13709D02*
X21770Y-13512D01*
X21817Y-13512D01*
X21845Y-13521D01*
X21864Y-13540D01*
X21873Y-13559D01*
X21883Y-13596D01*
X21883Y-13624D01*
X21873Y-13662D01*
X21864Y-13681D01*
X21845Y-13699D01*
X21817Y-13709D01*
X21770Y-13709D01*
X25351Y-13984D02*
X25351Y-13787D01*
X25398Y-13787D01*
X25426Y-13796D01*
X25445Y-13815D01*
X25454Y-13834D01*
X25463Y-13871D01*
X25463Y-13899D01*
X25454Y-13937D01*
X25445Y-13956D01*
X25426Y-13974D01*
X25398Y-13984D01*
X25351Y-13984D01*
X25529Y-13787D02*
X25651Y-13787D01*
X25585Y-13862D01*
X25614Y-13862D01*
X25632Y-13871D01*
X25642Y-13881D01*
X25651Y-13899D01*
X25651Y-13946D01*
X25642Y-13965D01*
X25632Y-13974D01*
X25614Y-13984D01*
X25557Y-13984D01*
X25538Y-13974D01*
X25529Y-13965D01*
X25717Y-13787D02*
X25839Y-13787D01*
X25773Y-13862D01*
X25801Y-13862D01*
X25820Y-13871D01*
X25829Y-13881D01*
X25839Y-13899D01*
X25839Y-13946D01*
X25829Y-13965D01*
X25820Y-13974D01*
X25801Y-13984D01*
X25745Y-13984D01*
X25726Y-13974D01*
X25717Y-13965D01*
X25463Y-13709D02*
X25370Y-13709D01*
X25370Y-13512D01*
X25529Y-13606D02*
X25595Y-13606D01*
X25623Y-13709D02*
X25529Y-13709D01*
X25529Y-13512D01*
X25623Y-13512D01*
X25707Y-13709D02*
X25707Y-13512D01*
X25754Y-13512D01*
X25782Y-13521D01*
X25801Y-13540D01*
X25811Y-13559D01*
X25820Y-13596D01*
X25820Y-13624D01*
X25811Y-13662D01*
X25801Y-13681D01*
X25782Y-13699D01*
X25754Y-13709D01*
X25707Y-13709D01*
X29288Y-13984D02*
X29288Y-13787D01*
X29335Y-13787D01*
X29363Y-13796D01*
X29382Y-13815D01*
X29391Y-13834D01*
X29400Y-13871D01*
X29400Y-13899D01*
X29391Y-13937D01*
X29382Y-13956D01*
X29363Y-13974D01*
X29335Y-13984D01*
X29288Y-13984D01*
X29466Y-13787D02*
X29588Y-13787D01*
X29522Y-13862D01*
X29551Y-13862D01*
X29569Y-13871D01*
X29579Y-13881D01*
X29588Y-13899D01*
X29588Y-13946D01*
X29579Y-13965D01*
X29569Y-13974D01*
X29551Y-13984D01*
X29494Y-13984D01*
X29475Y-13974D01*
X29466Y-13965D01*
X29766Y-13787D02*
X29672Y-13787D01*
X29663Y-13881D01*
X29672Y-13871D01*
X29691Y-13862D01*
X29738Y-13862D01*
X29757Y-13871D01*
X29766Y-13881D01*
X29776Y-13899D01*
X29776Y-13946D01*
X29766Y-13965D01*
X29757Y-13974D01*
X29738Y-13984D01*
X29691Y-13984D01*
X29672Y-13974D01*
X29663Y-13965D01*
X29400Y-13709D02*
X29307Y-13709D01*
X29307Y-13512D01*
X29466Y-13606D02*
X29532Y-13606D01*
X29560Y-13709D02*
X29466Y-13709D01*
X29466Y-13512D01*
X29560Y-13512D01*
X29644Y-13709D02*
X29644Y-13512D01*
X29691Y-13512D01*
X29719Y-13521D01*
X29738Y-13540D01*
X29748Y-13559D01*
X29757Y-13596D01*
X29757Y-13624D01*
X29748Y-13662D01*
X29738Y-13681D01*
X29719Y-13699D01*
X29691Y-13709D01*
X29644Y-13709D01*
X21414Y-31700D02*
X21414Y-31503D01*
X21461Y-31503D01*
X21489Y-31513D01*
X21508Y-31531D01*
X21517Y-31550D01*
X21526Y-31588D01*
X21526Y-31616D01*
X21517Y-31653D01*
X21508Y-31672D01*
X21489Y-31691D01*
X21461Y-31700D01*
X21414Y-31700D01*
X21592Y-31503D02*
X21714Y-31503D01*
X21648Y-31578D01*
X21676Y-31578D01*
X21695Y-31588D01*
X21705Y-31597D01*
X21714Y-31616D01*
X21714Y-31663D01*
X21705Y-31682D01*
X21695Y-31691D01*
X21676Y-31700D01*
X21620Y-31700D01*
X21601Y-31691D01*
X21592Y-31682D01*
X21780Y-31503D02*
X21911Y-31503D01*
X21827Y-31700D01*
X21526Y-31425D02*
X21433Y-31425D01*
X21433Y-31228D01*
X21592Y-31322D02*
X21658Y-31322D01*
X21686Y-31425D02*
X21592Y-31425D01*
X21592Y-31228D01*
X21686Y-31228D01*
X21770Y-31425D02*
X21770Y-31228D01*
X21817Y-31228D01*
X21845Y-31238D01*
X21864Y-31256D01*
X21873Y-31275D01*
X21883Y-31313D01*
X21883Y-31341D01*
X21873Y-31378D01*
X21864Y-31397D01*
X21845Y-31416D01*
X21817Y-31425D01*
X21770Y-31425D01*
X25351Y-31700D02*
X25351Y-31503D01*
X25398Y-31503D01*
X25426Y-31513D01*
X25445Y-31531D01*
X25454Y-31550D01*
X25463Y-31588D01*
X25463Y-31616D01*
X25454Y-31653D01*
X25445Y-31672D01*
X25426Y-31691D01*
X25398Y-31700D01*
X25351Y-31700D01*
X25529Y-31503D02*
X25651Y-31503D01*
X25585Y-31578D01*
X25614Y-31578D01*
X25632Y-31588D01*
X25642Y-31597D01*
X25651Y-31616D01*
X25651Y-31663D01*
X25642Y-31682D01*
X25632Y-31691D01*
X25614Y-31700D01*
X25557Y-31700D01*
X25538Y-31691D01*
X25529Y-31682D01*
X25745Y-31700D02*
X25782Y-31700D01*
X25801Y-31691D01*
X25811Y-31682D01*
X25829Y-31653D01*
X25839Y-31616D01*
X25839Y-31541D01*
X25829Y-31522D01*
X25820Y-31513D01*
X25801Y-31503D01*
X25764Y-31503D01*
X25745Y-31513D01*
X25735Y-31522D01*
X25726Y-31541D01*
X25726Y-31588D01*
X25735Y-31606D01*
X25745Y-31616D01*
X25764Y-31625D01*
X25801Y-31625D01*
X25820Y-31616D01*
X25829Y-31606D01*
X25839Y-31588D01*
X25463Y-31425D02*
X25370Y-31425D01*
X25370Y-31228D01*
X25529Y-31322D02*
X25595Y-31322D01*
X25623Y-31425D02*
X25529Y-31425D01*
X25529Y-31228D01*
X25623Y-31228D01*
X25707Y-31425D02*
X25707Y-31228D01*
X25754Y-31228D01*
X25782Y-31238D01*
X25801Y-31256D01*
X25811Y-31275D01*
X25820Y-31313D01*
X25820Y-31341D01*
X25811Y-31378D01*
X25801Y-31397D01*
X25782Y-31416D01*
X25754Y-31425D01*
X25707Y-31425D01*
X41099Y-31700D02*
X41099Y-31503D01*
X41146Y-31503D01*
X41174Y-31513D01*
X41193Y-31531D01*
X41202Y-31550D01*
X41211Y-31588D01*
X41211Y-31616D01*
X41202Y-31653D01*
X41193Y-31672D01*
X41174Y-31691D01*
X41146Y-31700D01*
X41099Y-31700D01*
X41277Y-31503D02*
X41399Y-31503D01*
X41333Y-31578D01*
X41362Y-31578D01*
X41380Y-31588D01*
X41390Y-31597D01*
X41399Y-31616D01*
X41399Y-31663D01*
X41390Y-31682D01*
X41380Y-31691D01*
X41362Y-31700D01*
X41305Y-31700D01*
X41286Y-31691D01*
X41277Y-31682D01*
X41512Y-31588D02*
X41493Y-31578D01*
X41483Y-31569D01*
X41474Y-31550D01*
X41474Y-31541D01*
X41483Y-31522D01*
X41493Y-31513D01*
X41512Y-31503D01*
X41549Y-31503D01*
X41568Y-31513D01*
X41577Y-31522D01*
X41587Y-31541D01*
X41587Y-31550D01*
X41577Y-31569D01*
X41568Y-31578D01*
X41549Y-31588D01*
X41512Y-31588D01*
X41493Y-31597D01*
X41483Y-31606D01*
X41474Y-31625D01*
X41474Y-31663D01*
X41483Y-31682D01*
X41493Y-31691D01*
X41512Y-31700D01*
X41549Y-31700D01*
X41568Y-31691D01*
X41577Y-31682D01*
X41587Y-31663D01*
X41587Y-31625D01*
X41577Y-31606D01*
X41568Y-31597D01*
X41549Y-31588D01*
X41211Y-31425D02*
X41118Y-31425D01*
X41118Y-31228D01*
X41277Y-31322D02*
X41343Y-31322D01*
X41371Y-31425D02*
X41277Y-31425D01*
X41277Y-31228D01*
X41371Y-31228D01*
X41455Y-31425D02*
X41455Y-31228D01*
X41502Y-31228D01*
X41530Y-31238D01*
X41549Y-31256D01*
X41559Y-31275D01*
X41568Y-31313D01*
X41568Y-31341D01*
X41559Y-31378D01*
X41549Y-31397D01*
X41530Y-31416D01*
X41502Y-31425D01*
X41455Y-31425D01*
X48973Y-13984D02*
X48973Y-13787D01*
X49020Y-13787D01*
X49048Y-13796D01*
X49067Y-13815D01*
X49076Y-13834D01*
X49085Y-13871D01*
X49085Y-13899D01*
X49076Y-13937D01*
X49067Y-13956D01*
X49048Y-13974D01*
X49020Y-13984D01*
X48973Y-13984D01*
X49151Y-13787D02*
X49273Y-13787D01*
X49207Y-13862D01*
X49236Y-13862D01*
X49254Y-13871D01*
X49264Y-13881D01*
X49273Y-13899D01*
X49273Y-13946D01*
X49264Y-13965D01*
X49254Y-13974D01*
X49236Y-13984D01*
X49179Y-13984D01*
X49161Y-13974D01*
X49151Y-13965D01*
X49442Y-13787D02*
X49404Y-13787D01*
X49386Y-13796D01*
X49376Y-13806D01*
X49358Y-13834D01*
X49348Y-13871D01*
X49348Y-13946D01*
X49358Y-13965D01*
X49367Y-13974D01*
X49386Y-13984D01*
X49423Y-13984D01*
X49442Y-13974D01*
X49451Y-13965D01*
X49461Y-13946D01*
X49461Y-13899D01*
X49451Y-13881D01*
X49442Y-13871D01*
X49423Y-13862D01*
X49386Y-13862D01*
X49367Y-13871D01*
X49358Y-13881D01*
X49348Y-13899D01*
X49085Y-13709D02*
X48992Y-13709D01*
X48992Y-13512D01*
X49151Y-13606D02*
X49217Y-13606D01*
X49245Y-13709D02*
X49151Y-13709D01*
X49151Y-13512D01*
X49245Y-13512D01*
X49329Y-13709D02*
X49329Y-13512D01*
X49376Y-13512D01*
X49404Y-13521D01*
X49423Y-13540D01*
X49433Y-13559D01*
X49442Y-13596D01*
X49442Y-13624D01*
X49433Y-13662D01*
X49423Y-13681D01*
X49404Y-13699D01*
X49376Y-13709D01*
X49329Y-13709D01*
G54D21*
X28427Y-18781D02*
X28367Y-18686D01*
X28324Y-18781D02*
X28324Y-18581D01*
X28393Y-18581D01*
X28410Y-18591D01*
X28419Y-18600D01*
X28427Y-18619D01*
X28427Y-18648D01*
X28419Y-18667D01*
X28410Y-18676D01*
X28393Y-18686D01*
X28324Y-18686D01*
X28599Y-18781D02*
X28496Y-18781D01*
X28547Y-18781D02*
X28547Y-18581D01*
X28530Y-18610D01*
X28513Y-18629D01*
X28496Y-18638D01*
X28659Y-18581D02*
X28779Y-18581D01*
X28701Y-18781D01*
X43191Y-27640D02*
X43131Y-27544D01*
X43088Y-27640D02*
X43088Y-27440D01*
X43157Y-27440D01*
X43174Y-27449D01*
X43182Y-27459D01*
X43191Y-27478D01*
X43191Y-27506D01*
X43182Y-27525D01*
X43174Y-27535D01*
X43157Y-27544D01*
X43088Y-27544D01*
X43259Y-27459D02*
X43268Y-27449D01*
X43285Y-27440D01*
X43328Y-27440D01*
X43345Y-27449D01*
X43354Y-27459D01*
X43362Y-27478D01*
X43362Y-27497D01*
X43354Y-27525D01*
X43251Y-27640D01*
X43362Y-27640D01*
X43517Y-27440D02*
X43482Y-27440D01*
X43465Y-27449D01*
X43457Y-27459D01*
X43439Y-27487D01*
X43431Y-27525D01*
X43431Y-27601D01*
X43439Y-27620D01*
X43448Y-27630D01*
X43465Y-27640D01*
X43499Y-27640D01*
X43517Y-27630D01*
X43525Y-27620D01*
X43534Y-27601D01*
X43534Y-27554D01*
X43525Y-27535D01*
X43517Y-27525D01*
X43499Y-27516D01*
X43465Y-27516D01*
X43448Y-27525D01*
X43439Y-27535D01*
X43431Y-27554D01*
X44372Y-18816D02*
X44277Y-18876D01*
X44372Y-18919D02*
X44172Y-18919D01*
X44172Y-18850D01*
X44181Y-18833D01*
X44191Y-18825D01*
X44210Y-18816D01*
X44238Y-18816D01*
X44258Y-18825D01*
X44267Y-18833D01*
X44277Y-18850D01*
X44277Y-18919D01*
X44191Y-18747D02*
X44181Y-18739D01*
X44172Y-18722D01*
X44172Y-18679D01*
X44181Y-18662D01*
X44191Y-18653D01*
X44210Y-18645D01*
X44229Y-18645D01*
X44258Y-18653D01*
X44372Y-18756D01*
X44372Y-18645D01*
X44191Y-18576D02*
X44181Y-18567D01*
X44172Y-18550D01*
X44172Y-18507D01*
X44181Y-18490D01*
X44191Y-18482D01*
X44210Y-18473D01*
X44229Y-18473D01*
X44258Y-18482D01*
X44372Y-18585D01*
X44372Y-18473D01*
X22607Y-19765D02*
X22547Y-19670D01*
X22504Y-19765D02*
X22504Y-19565D01*
X22573Y-19565D01*
X22590Y-19575D01*
X22599Y-19585D01*
X22607Y-19604D01*
X22607Y-19632D01*
X22599Y-19651D01*
X22590Y-19661D01*
X22573Y-19670D01*
X22504Y-19670D01*
X22779Y-19765D02*
X22676Y-19765D01*
X22727Y-19765D02*
X22727Y-19565D01*
X22710Y-19594D01*
X22693Y-19613D01*
X22676Y-19623D01*
X48112Y-18781D02*
X48052Y-18686D01*
X48009Y-18781D02*
X48009Y-18581D01*
X48078Y-18581D01*
X48095Y-18591D01*
X48104Y-18600D01*
X48112Y-18619D01*
X48112Y-18648D01*
X48104Y-18667D01*
X48095Y-18676D01*
X48078Y-18686D01*
X48009Y-18686D01*
X48284Y-18781D02*
X48181Y-18781D01*
X48232Y-18781D02*
X48232Y-18581D01*
X48215Y-18610D01*
X48198Y-18629D01*
X48181Y-18638D01*
X48386Y-18667D02*
X48369Y-18657D01*
X48361Y-18648D01*
X48352Y-18629D01*
X48352Y-18619D01*
X48361Y-18600D01*
X48369Y-18591D01*
X48386Y-18581D01*
X48421Y-18581D01*
X48438Y-18591D01*
X48446Y-18600D01*
X48455Y-18619D01*
X48455Y-18629D01*
X48446Y-18648D01*
X48438Y-18657D01*
X48421Y-18667D01*
X48386Y-18667D01*
X48369Y-18676D01*
X48361Y-18686D01*
X48352Y-18705D01*
X48352Y-18743D01*
X48361Y-18762D01*
X48369Y-18772D01*
X48386Y-18781D01*
X48421Y-18781D01*
X48438Y-18772D01*
X48446Y-18762D01*
X48455Y-18743D01*
X48455Y-18705D01*
X48446Y-18686D01*
X48438Y-18676D01*
X48421Y-18667D01*
X48112Y-37482D02*
X48052Y-37387D01*
X48009Y-37482D02*
X48009Y-37282D01*
X48078Y-37282D01*
X48095Y-37292D01*
X48104Y-37301D01*
X48112Y-37320D01*
X48112Y-37349D01*
X48104Y-37368D01*
X48095Y-37377D01*
X48078Y-37387D01*
X48009Y-37387D01*
X48284Y-37482D02*
X48181Y-37482D01*
X48232Y-37482D02*
X48232Y-37282D01*
X48215Y-37311D01*
X48198Y-37330D01*
X48181Y-37339D01*
X48438Y-37349D02*
X48438Y-37482D01*
X48395Y-37273D02*
X48352Y-37415D01*
X48464Y-37415D01*
X22607Y-39451D02*
X22547Y-39355D01*
X22504Y-39451D02*
X22504Y-39251D01*
X22573Y-39251D01*
X22590Y-39260D01*
X22599Y-39270D01*
X22607Y-39289D01*
X22607Y-39317D01*
X22599Y-39336D01*
X22590Y-39346D01*
X22573Y-39355D01*
X22504Y-39355D01*
X22770Y-39251D02*
X22684Y-39251D01*
X22676Y-39346D01*
X22684Y-39336D01*
X22702Y-39327D01*
X22744Y-39327D01*
X22762Y-39336D01*
X22770Y-39346D01*
X22779Y-39365D01*
X22779Y-39412D01*
X22770Y-39431D01*
X22762Y-39441D01*
X22744Y-39451D01*
X22702Y-39451D01*
X22684Y-39441D01*
X22676Y-39431D01*
X43388Y-43422D02*
X43292Y-43482D01*
X43388Y-43525D02*
X43188Y-43525D01*
X43188Y-43457D01*
X43197Y-43439D01*
X43207Y-43431D01*
X43226Y-43422D01*
X43254Y-43422D01*
X43273Y-43431D01*
X43283Y-43439D01*
X43292Y-43457D01*
X43292Y-43525D01*
X43388Y-43251D02*
X43388Y-43354D01*
X43388Y-43302D02*
X43188Y-43302D01*
X43216Y-43319D01*
X43235Y-43337D01*
X43245Y-43354D01*
X43188Y-43139D02*
X43188Y-43122D01*
X43197Y-43105D01*
X43207Y-43097D01*
X43226Y-43088D01*
X43264Y-43079D01*
X43311Y-43079D01*
X43349Y-43088D01*
X43368Y-43097D01*
X43378Y-43105D01*
X43388Y-43122D01*
X43388Y-43139D01*
X43378Y-43157D01*
X43368Y-43165D01*
X43349Y-43174D01*
X43311Y-43182D01*
X43264Y-43182D01*
X43226Y-43174D01*
X43207Y-43165D01*
X43197Y-43157D01*
X43188Y-43139D01*
X42292Y-39451D02*
X42232Y-39355D01*
X42189Y-39451D02*
X42189Y-39251D01*
X42258Y-39251D01*
X42275Y-39260D01*
X42284Y-39270D01*
X42292Y-39289D01*
X42292Y-39317D01*
X42284Y-39336D01*
X42275Y-39346D01*
X42258Y-39355D01*
X42189Y-39355D01*
X42447Y-39251D02*
X42412Y-39251D01*
X42395Y-39260D01*
X42387Y-39270D01*
X42369Y-39298D01*
X42361Y-39336D01*
X42361Y-39412D01*
X42369Y-39431D01*
X42378Y-39441D01*
X42395Y-39451D01*
X42429Y-39451D01*
X42447Y-39441D01*
X42455Y-39431D01*
X42464Y-39412D01*
X42464Y-39365D01*
X42455Y-39346D01*
X42447Y-39336D01*
X42429Y-39327D01*
X42395Y-39327D01*
X42378Y-39336D01*
X42369Y-39346D01*
X42361Y-39365D01*
X23702Y-43337D02*
X23607Y-43397D01*
X23702Y-43439D02*
X23502Y-43439D01*
X23502Y-43371D01*
X23512Y-43354D01*
X23522Y-43345D01*
X23541Y-43337D01*
X23569Y-43337D01*
X23588Y-43345D01*
X23598Y-43354D01*
X23607Y-43371D01*
X23607Y-43439D01*
X23702Y-43251D02*
X23702Y-43217D01*
X23693Y-43199D01*
X23683Y-43191D01*
X23655Y-43174D01*
X23617Y-43165D01*
X23541Y-43165D01*
X23522Y-43174D01*
X23512Y-43182D01*
X23502Y-43199D01*
X23502Y-43234D01*
X23512Y-43251D01*
X23522Y-43259D01*
X23541Y-43268D01*
X23588Y-43268D01*
X23607Y-43259D01*
X23617Y-43251D01*
X23626Y-43234D01*
X23626Y-43199D01*
X23617Y-43182D01*
X23607Y-43174D01*
X23588Y-43165D01*
X42403Y-19715D02*
X42308Y-19775D01*
X42403Y-19817D02*
X42203Y-19817D01*
X42203Y-19749D01*
X42213Y-19732D01*
X42222Y-19723D01*
X42241Y-19715D01*
X42270Y-19715D01*
X42289Y-19723D01*
X42299Y-19732D01*
X42308Y-19749D01*
X42308Y-19817D01*
X42222Y-19646D02*
X42213Y-19637D01*
X42203Y-19620D01*
X42203Y-19577D01*
X42213Y-19560D01*
X42222Y-19552D01*
X42241Y-19543D01*
X42260Y-19543D01*
X42289Y-19552D01*
X42403Y-19655D01*
X42403Y-19543D01*
X28427Y-37482D02*
X28367Y-37387D01*
X28324Y-37482D02*
X28324Y-37282D01*
X28393Y-37282D01*
X28410Y-37292D01*
X28419Y-37301D01*
X28427Y-37320D01*
X28427Y-37349D01*
X28419Y-37368D01*
X28410Y-37377D01*
X28393Y-37387D01*
X28324Y-37387D01*
X28599Y-37482D02*
X28496Y-37482D01*
X28547Y-37482D02*
X28547Y-37282D01*
X28530Y-37311D01*
X28513Y-37330D01*
X28496Y-37339D01*
X28659Y-37282D02*
X28770Y-37282D01*
X28710Y-37358D01*
X28736Y-37358D01*
X28753Y-37368D01*
X28761Y-37377D01*
X28770Y-37396D01*
X28770Y-37444D01*
X28761Y-37463D01*
X28753Y-37473D01*
X28736Y-37482D01*
X28684Y-37482D01*
X28667Y-37473D01*
X28659Y-37463D01*
X23506Y-27640D02*
X23446Y-27544D01*
X23403Y-27640D02*
X23403Y-27440D01*
X23472Y-27440D01*
X23489Y-27449D01*
X23497Y-27459D01*
X23506Y-27478D01*
X23506Y-27506D01*
X23497Y-27525D01*
X23489Y-27535D01*
X23472Y-27544D01*
X23403Y-27544D01*
X23574Y-27459D02*
X23583Y-27449D01*
X23600Y-27440D01*
X23643Y-27440D01*
X23660Y-27449D01*
X23669Y-27459D01*
X23677Y-27478D01*
X23677Y-27497D01*
X23669Y-27525D01*
X23566Y-27640D01*
X23677Y-27640D01*
X23840Y-27440D02*
X23754Y-27440D01*
X23746Y-27535D01*
X23754Y-27525D01*
X23772Y-27516D01*
X23814Y-27516D01*
X23832Y-27525D01*
X23840Y-27535D01*
X23849Y-27554D01*
X23849Y-27601D01*
X23840Y-27620D01*
X23832Y-27630D01*
X23814Y-27640D01*
X23772Y-27640D01*
X23754Y-27630D01*
X23746Y-27620D01*
X24687Y-18816D02*
X24592Y-18876D01*
X24687Y-18919D02*
X24487Y-18919D01*
X24487Y-18850D01*
X24496Y-18833D01*
X24506Y-18825D01*
X24525Y-18816D01*
X24553Y-18816D01*
X24572Y-18825D01*
X24582Y-18833D01*
X24592Y-18850D01*
X24592Y-18919D01*
X24506Y-18747D02*
X24496Y-18739D01*
X24487Y-18722D01*
X24487Y-18679D01*
X24496Y-18662D01*
X24506Y-18653D01*
X24525Y-18645D01*
X24544Y-18645D01*
X24572Y-18653D01*
X24687Y-18756D01*
X24687Y-18645D01*
X24687Y-18473D02*
X24687Y-18576D01*
X24687Y-18525D02*
X24487Y-18525D01*
X24515Y-18542D01*
X24534Y-18559D01*
X24544Y-18576D01*
G54D22*
X53445Y-31791D02*
X53045Y-31791D01*
X53045Y-31638D01*
X53064Y-31600D01*
X53083Y-31581D01*
X53121Y-31562D01*
X53179Y-31562D01*
X53217Y-31581D01*
X53236Y-31600D01*
X53255Y-31638D01*
X53255Y-31791D01*
X53083Y-31410D02*
X53064Y-31391D01*
X53045Y-31353D01*
X53045Y-31257D01*
X53064Y-31219D01*
X53083Y-31200D01*
X53121Y-31181D01*
X53160Y-31181D01*
X53217Y-31200D01*
X53445Y-31429D01*
X53445Y-31181D01*
G54D20*
X44258Y-36353D02*
X44249Y-36362D01*
X44220Y-36372D01*
X44202Y-36372D01*
X44174Y-36362D01*
X44155Y-36343D01*
X44145Y-36325D01*
X44136Y-36287D01*
X44136Y-36259D01*
X44145Y-36221D01*
X44155Y-36203D01*
X44174Y-36184D01*
X44202Y-36175D01*
X44220Y-36175D01*
X44249Y-36184D01*
X44258Y-36193D01*
X44446Y-36372D02*
X44333Y-36372D01*
X44389Y-36372D02*
X44389Y-36175D01*
X44371Y-36203D01*
X44352Y-36221D01*
X44333Y-36231D01*
X44352Y-36628D02*
X44342Y-36637D01*
X44314Y-36647D01*
X44296Y-36647D01*
X44267Y-36637D01*
X44249Y-36618D01*
X44239Y-36600D01*
X44230Y-36562D01*
X44230Y-36534D01*
X44239Y-36496D01*
X44249Y-36478D01*
X44267Y-36459D01*
X44296Y-36450D01*
X44314Y-36450D01*
X44342Y-36459D01*
X44352Y-36468D01*
X24573Y-36353D02*
X24564Y-36362D01*
X24535Y-36372D01*
X24517Y-36372D01*
X24489Y-36362D01*
X24470Y-36343D01*
X24460Y-36325D01*
X24451Y-36287D01*
X24451Y-36259D01*
X24460Y-36221D01*
X24470Y-36203D01*
X24489Y-36184D01*
X24517Y-36175D01*
X24535Y-36175D01*
X24564Y-36184D01*
X24573Y-36193D01*
X24648Y-36193D02*
X24657Y-36184D01*
X24676Y-36175D01*
X24723Y-36175D01*
X24742Y-36184D01*
X24751Y-36193D01*
X24761Y-36212D01*
X24761Y-36231D01*
X24751Y-36259D01*
X24639Y-36372D01*
X24761Y-36372D01*
X24667Y-36628D02*
X24657Y-36637D01*
X24629Y-36647D01*
X24610Y-36647D01*
X24582Y-36637D01*
X24564Y-36618D01*
X24554Y-36600D01*
X24545Y-36562D01*
X24545Y-36534D01*
X24554Y-36496D01*
X24564Y-36478D01*
X24582Y-36459D01*
X24610Y-36450D01*
X24629Y-36450D01*
X24657Y-36459D01*
X24667Y-36468D01*
G54D12*
X16932Y-12347D02*
X16703Y-12347D01*
X16818Y-12347D02*
X16818Y-11947D01*
X16779Y-12004D01*
X16741Y-12042D01*
X16703Y-12062D01*
X17103Y-12347D02*
X17103Y-11947D01*
X17256Y-11947D01*
X17294Y-11966D01*
X17313Y-11985D01*
X17332Y-12023D01*
X17332Y-12081D01*
X17313Y-12119D01*
X17294Y-12138D01*
X17256Y-12157D01*
X17103Y-12157D01*
X17503Y-12347D02*
X17503Y-11947D01*
X17694Y-12347D02*
X17694Y-11947D01*
X17922Y-12347D01*
X17922Y-11947D01*
X53152Y-12347D02*
X52924Y-12347D01*
X53038Y-12347D02*
X53038Y-11947D01*
X53000Y-12004D01*
X52962Y-12042D01*
X52924Y-12062D01*
X53324Y-12347D02*
X53324Y-11947D01*
X53476Y-11947D01*
X53514Y-11966D01*
X53533Y-11985D01*
X53552Y-12023D01*
X53552Y-12081D01*
X53533Y-12119D01*
X53514Y-12138D01*
X53476Y-12157D01*
X53324Y-12157D01*
X53724Y-12347D02*
X53724Y-11947D01*
X53914Y-12347D02*
X53914Y-11947D01*
X54143Y-12347D01*
X54143Y-11947D01*
X53152Y-48568D02*
X52924Y-48568D01*
X53038Y-48568D02*
X53038Y-48168D01*
X53000Y-48225D01*
X52962Y-48263D01*
X52924Y-48282D01*
X53324Y-48568D02*
X53324Y-48168D01*
X53476Y-48168D01*
X53514Y-48187D01*
X53533Y-48206D01*
X53552Y-48244D01*
X53552Y-48301D01*
X53533Y-48339D01*
X53514Y-48358D01*
X53476Y-48377D01*
X53324Y-48377D01*
X53724Y-48568D02*
X53724Y-48168D01*
X53914Y-48568D02*
X53914Y-48168D01*
X54143Y-48568D01*
X54143Y-48168D01*
X16932Y-48568D02*
X16703Y-48568D01*
X16818Y-48568D02*
X16818Y-48168D01*
X16779Y-48225D01*
X16741Y-48263D01*
X16703Y-48282D01*
X17103Y-48568D02*
X17103Y-48168D01*
X17256Y-48168D01*
X17294Y-48187D01*
X17313Y-48206D01*
X17332Y-48244D01*
X17332Y-48301D01*
X17313Y-48339D01*
X17294Y-48358D01*
X17256Y-48377D01*
X17103Y-48377D01*
X17503Y-48568D02*
X17503Y-48168D01*
X17694Y-48568D02*
X17694Y-48168D01*
X17922Y-48568D01*
X17922Y-48168D01*
X35042Y-30457D02*
X34814Y-30457D01*
X34928Y-30457D02*
X34928Y-30057D01*
X34890Y-30115D01*
X34852Y-30153D01*
X34814Y-30172D01*
X35214Y-30457D02*
X35214Y-30057D01*
X35366Y-30057D01*
X35404Y-30077D01*
X35423Y-30096D01*
X35442Y-30134D01*
X35442Y-30191D01*
X35423Y-30229D01*
X35404Y-30248D01*
X35366Y-30267D01*
X35214Y-30267D01*
X35614Y-30457D02*
X35614Y-30057D01*
X35804Y-30457D02*
X35804Y-30057D01*
X36033Y-30457D01*
X36033Y-30057D01*
M02*
