G04 (created by PCBNEW (2013-07-07 BZR 4022)-stable) date 2/23/2015 9:33:35 PM*
%MOIN*%
G04 Gerber Fmt 3.4, Leading zero omitted, Abs format*
%FSLAX34Y34*%
G01*
G70*
G90*
G04 APERTURE LIST*
%ADD10C,0.005*%
%ADD11C,0.00393701*%
%ADD12C,0.00787402*%
%ADD13C,0.011811*%
G04 APERTURE END LIST*
G54D10*
G54D11*
X15748Y-51181D02*
X15748Y-11811D01*
X55118Y-51181D02*
X15748Y-51181D01*
X55118Y-11811D02*
X55118Y-51181D01*
X35433Y-11811D02*
X55118Y-11811D01*
X15748Y-11811D02*
X35433Y-11811D01*
G54D12*
X17871Y-28871D02*
X18121Y-29121D01*
X18121Y-28871D02*
X17871Y-29121D01*
X18675Y-30075D02*
X18925Y-30325D01*
X18925Y-30075D02*
X18675Y-30325D01*
X19275Y-31375D02*
X19525Y-31625D01*
X19525Y-31375D02*
X19275Y-31625D01*
X19575Y-27675D02*
X19825Y-27925D01*
X19825Y-27675D02*
X19575Y-27925D01*
X19675Y-32475D02*
X19925Y-32725D01*
X19925Y-32475D02*
X19675Y-32725D01*
X19719Y-28563D02*
X19969Y-28813D01*
X19969Y-28563D02*
X19719Y-28813D01*
X20075Y-39675D02*
X20325Y-39925D01*
X20325Y-39675D02*
X20075Y-39925D01*
X21075Y-22175D02*
X21325Y-22425D01*
X21325Y-22175D02*
X21075Y-22425D01*
X21149Y-18245D02*
X21399Y-18495D01*
X21399Y-18245D02*
X21149Y-18495D01*
X21435Y-28959D02*
X21685Y-29209D01*
X21685Y-28959D02*
X21435Y-29209D01*
X21809Y-42973D02*
X22059Y-43223D01*
X22059Y-42973D02*
X21809Y-43223D01*
X21975Y-34075D02*
X22225Y-34325D01*
X22225Y-34075D02*
X21975Y-34325D01*
X22375Y-34575D02*
X22625Y-34825D01*
X22625Y-34575D02*
X22375Y-34825D01*
X23025Y-32350D02*
X23275Y-32600D01*
X23275Y-32350D02*
X23025Y-32600D01*
X23175Y-34575D02*
X23425Y-34825D01*
X23425Y-34575D02*
X23175Y-34825D01*
X23375Y-33225D02*
X23625Y-33475D01*
X23625Y-33225D02*
X23375Y-33475D01*
X23569Y-37913D02*
X23819Y-38163D01*
X23819Y-37913D02*
X23569Y-38163D01*
X23833Y-17255D02*
X24083Y-17505D01*
X24083Y-17255D02*
X23833Y-17505D01*
X23975Y-28275D02*
X24225Y-28525D01*
X24225Y-28275D02*
X23975Y-28525D01*
X24207Y-37121D02*
X24457Y-37371D01*
X24457Y-37121D02*
X24207Y-37371D01*
X24975Y-34475D02*
X25225Y-34725D01*
X25225Y-34475D02*
X24975Y-34725D01*
X25575Y-41875D02*
X25825Y-42125D01*
X25825Y-41875D02*
X25575Y-42125D01*
X26375Y-22175D02*
X26625Y-22425D01*
X26625Y-22175D02*
X26375Y-22425D01*
X26375Y-32875D02*
X26625Y-33125D01*
X26625Y-32875D02*
X26375Y-33125D01*
X28277Y-38683D02*
X28527Y-38933D01*
X28527Y-38683D02*
X28277Y-38933D01*
X28775Y-34925D02*
X29025Y-35175D01*
X29025Y-34925D02*
X28775Y-35175D01*
X28875Y-41875D02*
X29125Y-42125D01*
X29125Y-41875D02*
X28875Y-42125D01*
X29113Y-19521D02*
X29363Y-19771D01*
X29363Y-19521D02*
X29113Y-19771D01*
X29300Y-32825D02*
X29550Y-33075D01*
X29550Y-32825D02*
X29300Y-33075D01*
X29775Y-22175D02*
X30025Y-22425D01*
X30025Y-22175D02*
X29775Y-22425D01*
X30235Y-35537D02*
X30485Y-35787D01*
X30485Y-35537D02*
X30235Y-35787D01*
X31225Y-33800D02*
X31475Y-34050D01*
X31475Y-33800D02*
X31225Y-34050D01*
X31675Y-33125D02*
X31925Y-33375D01*
X31925Y-33125D02*
X31675Y-33375D01*
X39475Y-33775D02*
X39725Y-34025D01*
X39725Y-33775D02*
X39475Y-34025D01*
X39900Y-34325D02*
X40150Y-34575D01*
X40150Y-34325D02*
X39900Y-34575D01*
X41075Y-22175D02*
X41325Y-22425D01*
X41325Y-22175D02*
X41075Y-22425D01*
X41075Y-33300D02*
X41325Y-33550D01*
X41325Y-33300D02*
X41075Y-33550D01*
X41323Y-17871D02*
X41573Y-18121D01*
X41573Y-17871D02*
X41323Y-18121D01*
X41325Y-35025D02*
X41575Y-35275D01*
X41575Y-35025D02*
X41325Y-35275D01*
X41829Y-44821D02*
X42079Y-45071D01*
X42079Y-44821D02*
X41829Y-45071D01*
X41917Y-28145D02*
X42167Y-28395D01*
X42167Y-28145D02*
X41917Y-28395D01*
X42175Y-34275D02*
X42425Y-34525D01*
X42425Y-34275D02*
X42175Y-34525D01*
X42275Y-41775D02*
X42525Y-42025D01*
X42525Y-41775D02*
X42275Y-42025D01*
X42775Y-34975D02*
X43025Y-35225D01*
X43025Y-34975D02*
X42775Y-35225D01*
X42875Y-34175D02*
X43125Y-34425D01*
X43125Y-34175D02*
X42875Y-34425D01*
X43075Y-33275D02*
X43325Y-33525D01*
X43325Y-33275D02*
X43075Y-33525D01*
X43127Y-37869D02*
X43377Y-38119D01*
X43377Y-37869D02*
X43127Y-38119D01*
X43325Y-17101D02*
X43575Y-17351D01*
X43575Y-17101D02*
X43325Y-17351D01*
X43375Y-35675D02*
X43625Y-35925D01*
X43625Y-35675D02*
X43375Y-35925D01*
X44175Y-41775D02*
X44425Y-42025D01*
X44425Y-41775D02*
X44175Y-42025D01*
X44601Y-17629D02*
X44851Y-17879D01*
X44851Y-17629D02*
X44601Y-17879D01*
X44750Y-34375D02*
X45000Y-34625D01*
X45000Y-34375D02*
X44750Y-34625D01*
X44843Y-28145D02*
X45093Y-28395D01*
X45093Y-28145D02*
X44843Y-28395D01*
X45591Y-36527D02*
X45841Y-36777D01*
X45841Y-36527D02*
X45591Y-36777D01*
X45875Y-20875D02*
X46125Y-21125D01*
X46125Y-20875D02*
X45875Y-21125D01*
X46525Y-33000D02*
X46775Y-33250D01*
X46775Y-33000D02*
X46525Y-33250D01*
X46625Y-21743D02*
X46875Y-21993D01*
X46875Y-21743D02*
X46625Y-21993D01*
X46735Y-39057D02*
X46985Y-39307D01*
X46985Y-39057D02*
X46735Y-39307D01*
X46779Y-19719D02*
X47029Y-19969D01*
X47029Y-19719D02*
X46779Y-19969D01*
X47285Y-33337D02*
X47535Y-33587D01*
X47535Y-33337D02*
X47285Y-33587D01*
X48475Y-34975D02*
X48725Y-35225D01*
X48725Y-34975D02*
X48475Y-35225D01*
X48775Y-20675D02*
X49025Y-20925D01*
X49025Y-20675D02*
X48775Y-20925D01*
X48775Y-35775D02*
X49025Y-36025D01*
X49025Y-35775D02*
X48775Y-36025D01*
X49375Y-19455D02*
X49625Y-19705D01*
X49625Y-19455D02*
X49375Y-19705D01*
X49675Y-37175D02*
X49925Y-37425D01*
X49925Y-37175D02*
X49675Y-37425D01*
X50175Y-41775D02*
X50425Y-42025D01*
X50425Y-41775D02*
X50175Y-42025D01*
X51075Y-23775D02*
X51325Y-24025D01*
X51325Y-23775D02*
X51075Y-24025D01*
X51275Y-30875D02*
X51525Y-31125D01*
X51525Y-30875D02*
X51275Y-31125D01*
X51311Y-28783D02*
X51561Y-29033D01*
X51561Y-28783D02*
X51311Y-29033D01*
X51575Y-31575D02*
X51825Y-31825D01*
X51825Y-31575D02*
X51575Y-31825D01*
X52378Y-33871D02*
X52628Y-34121D01*
X52628Y-33871D02*
X52378Y-34121D01*
X16932Y-28996D02*
G75*
G03X16932Y-28996I-200J0D01*
G74*
G01*
X16932Y-29996D02*
G75*
G03X16932Y-29996I-200J0D01*
G74*
G01*
X16932Y-30996D02*
G75*
G03X16932Y-30996I-200J0D01*
G74*
G01*
X16932Y-31996D02*
G75*
G03X16932Y-31996I-200J0D01*
G74*
G01*
X16932Y-32996D02*
G75*
G03X16932Y-32996I-200J0D01*
G74*
G01*
X16932Y-33996D02*
G75*
G03X16932Y-33996I-200J0D01*
G74*
G01*
X54333Y-28996D02*
G75*
G03X54333Y-28996I-200J0D01*
G74*
G01*
X54333Y-29996D02*
G75*
G03X54333Y-29996I-200J0D01*
G74*
G01*
X54333Y-30996D02*
G75*
G03X54333Y-30996I-200J0D01*
G74*
G01*
X54333Y-31996D02*
G75*
G03X54333Y-31996I-200J0D01*
G74*
G01*
X54333Y-32996D02*
G75*
G03X54333Y-32996I-200J0D01*
G74*
G01*
X54333Y-33996D02*
G75*
G03X54333Y-33996I-200J0D01*
G74*
G01*
X17322Y-12785D02*
X17322Y-13985D01*
X16722Y-13385D02*
X17922Y-13385D01*
X17322Y-49006D02*
X17322Y-50206D01*
X16722Y-49606D02*
X17922Y-49606D01*
X35433Y-30896D02*
X35433Y-32096D01*
X34833Y-31496D02*
X36033Y-31496D01*
X53543Y-12785D02*
X53543Y-13985D01*
X52943Y-13385D02*
X54143Y-13385D01*
X53543Y-49006D02*
X53543Y-50206D01*
X52943Y-49606D02*
X54143Y-49606D01*
G54D13*
X16796Y-52978D02*
X16796Y-51796D01*
X17078Y-51796D01*
X17246Y-51853D01*
X17359Y-51965D01*
X17415Y-52078D01*
X17471Y-52303D01*
X17471Y-52471D01*
X17415Y-52696D01*
X17359Y-52809D01*
X17246Y-52921D01*
X17078Y-52978D01*
X16796Y-52978D01*
X17978Y-52978D02*
X17978Y-52190D01*
X17978Y-52415D02*
X18034Y-52303D01*
X18090Y-52246D01*
X18203Y-52190D01*
X18315Y-52190D01*
X18709Y-52978D02*
X18709Y-52190D01*
X18709Y-51796D02*
X18652Y-51853D01*
X18709Y-51909D01*
X18765Y-51853D01*
X18709Y-51796D01*
X18709Y-51909D01*
X19440Y-52978D02*
X19327Y-52921D01*
X19271Y-52809D01*
X19271Y-51796D01*
X20059Y-52978D02*
X19946Y-52921D01*
X19890Y-52809D01*
X19890Y-51796D01*
X21408Y-52978D02*
X21408Y-51796D01*
X21802Y-52640D01*
X22196Y-51796D01*
X22196Y-52978D01*
X23264Y-52978D02*
X23264Y-52359D01*
X23208Y-52246D01*
X23096Y-52190D01*
X22871Y-52190D01*
X22758Y-52246D01*
X23264Y-52921D02*
X23152Y-52978D01*
X22871Y-52978D01*
X22758Y-52921D01*
X22702Y-52809D01*
X22702Y-52696D01*
X22758Y-52584D01*
X22871Y-52528D01*
X23152Y-52528D01*
X23264Y-52471D01*
X23827Y-52190D02*
X23827Y-53371D01*
X23827Y-52246D02*
X23939Y-52190D01*
X24164Y-52190D01*
X24277Y-52246D01*
X24333Y-52303D01*
X24389Y-52415D01*
X24389Y-52753D01*
X24333Y-52865D01*
X24277Y-52921D01*
X24164Y-52978D01*
X23939Y-52978D01*
X23827Y-52921D01*
X24895Y-52865D02*
X24952Y-52921D01*
X24895Y-52978D01*
X24839Y-52921D01*
X24895Y-52865D01*
X24895Y-52978D01*
X24895Y-52246D02*
X24952Y-52303D01*
X24895Y-52359D01*
X24839Y-52303D01*
X24895Y-52246D01*
X24895Y-52359D01*
X15478Y-54855D02*
X15728Y-55105D01*
X15728Y-54855D02*
X15478Y-55105D01*
X17021Y-54277D02*
X17134Y-54277D01*
X17246Y-54333D01*
X17303Y-54389D01*
X17359Y-54502D01*
X17415Y-54727D01*
X17415Y-55008D01*
X17359Y-55233D01*
X17303Y-55345D01*
X17246Y-55402D01*
X17134Y-55458D01*
X17021Y-55458D01*
X16909Y-55402D01*
X16853Y-55345D01*
X16796Y-55233D01*
X16740Y-55008D01*
X16740Y-54727D01*
X16796Y-54502D01*
X16853Y-54389D01*
X16909Y-54333D01*
X17021Y-54277D01*
X17921Y-55345D02*
X17978Y-55402D01*
X17921Y-55458D01*
X17865Y-55402D01*
X17921Y-55345D01*
X17921Y-55458D01*
X18990Y-54277D02*
X18765Y-54277D01*
X18652Y-54333D01*
X18596Y-54389D01*
X18484Y-54558D01*
X18428Y-54783D01*
X18428Y-55233D01*
X18484Y-55345D01*
X18540Y-55402D01*
X18652Y-55458D01*
X18877Y-55458D01*
X18990Y-55402D01*
X19046Y-55345D01*
X19102Y-55233D01*
X19102Y-54952D01*
X19046Y-54839D01*
X18990Y-54783D01*
X18877Y-54727D01*
X18652Y-54727D01*
X18540Y-54783D01*
X18484Y-54839D01*
X18428Y-54952D01*
X20115Y-54670D02*
X20115Y-55458D01*
X19834Y-54221D02*
X19552Y-55064D01*
X20284Y-55064D01*
X20733Y-55458D02*
X20733Y-54670D01*
X20733Y-54783D02*
X20790Y-54727D01*
X20902Y-54670D01*
X21071Y-54670D01*
X21183Y-54727D01*
X21240Y-54839D01*
X21240Y-55458D01*
X21240Y-54839D02*
X21296Y-54727D01*
X21408Y-54670D01*
X21577Y-54670D01*
X21690Y-54727D01*
X21746Y-54839D01*
X21746Y-55458D01*
X22308Y-55458D02*
X22308Y-54670D01*
X22308Y-54783D02*
X22365Y-54727D01*
X22477Y-54670D01*
X22646Y-54670D01*
X22758Y-54727D01*
X22814Y-54839D01*
X22814Y-55458D01*
X22814Y-54839D02*
X22871Y-54727D01*
X22983Y-54670D01*
X23152Y-54670D01*
X23264Y-54727D01*
X23321Y-54839D01*
X23321Y-55458D01*
X25627Y-54221D02*
X24614Y-55739D01*
X27145Y-54277D02*
X27258Y-54277D01*
X27370Y-54333D01*
X27426Y-54389D01*
X27483Y-54502D01*
X27539Y-54727D01*
X27539Y-55008D01*
X27483Y-55233D01*
X27426Y-55345D01*
X27370Y-55402D01*
X27258Y-55458D01*
X27145Y-55458D01*
X27033Y-55402D01*
X26976Y-55345D01*
X26920Y-55233D01*
X26864Y-55008D01*
X26864Y-54727D01*
X26920Y-54502D01*
X26976Y-54389D01*
X27033Y-54333D01*
X27145Y-54277D01*
X28045Y-55345D02*
X28101Y-55402D01*
X28045Y-55458D01*
X27989Y-55402D01*
X28045Y-55345D01*
X28045Y-55458D01*
X28832Y-54277D02*
X28945Y-54277D01*
X29057Y-54333D01*
X29114Y-54389D01*
X29170Y-54502D01*
X29226Y-54727D01*
X29226Y-55008D01*
X29170Y-55233D01*
X29114Y-55345D01*
X29057Y-55402D01*
X28945Y-55458D01*
X28832Y-55458D01*
X28720Y-55402D01*
X28664Y-55345D01*
X28607Y-55233D01*
X28551Y-55008D01*
X28551Y-54727D01*
X28607Y-54502D01*
X28664Y-54389D01*
X28720Y-54333D01*
X28832Y-54277D01*
X29676Y-54389D02*
X29732Y-54333D01*
X29845Y-54277D01*
X30126Y-54277D01*
X30239Y-54333D01*
X30295Y-54389D01*
X30351Y-54502D01*
X30351Y-54614D01*
X30295Y-54783D01*
X29620Y-55458D01*
X30351Y-55458D01*
X31420Y-54277D02*
X30857Y-54277D01*
X30801Y-54839D01*
X30857Y-54783D01*
X30970Y-54727D01*
X31251Y-54727D01*
X31363Y-54783D01*
X31420Y-54839D01*
X31476Y-54952D01*
X31476Y-55233D01*
X31420Y-55345D01*
X31363Y-55402D01*
X31251Y-55458D01*
X30970Y-55458D01*
X30857Y-55402D01*
X30801Y-55345D01*
X31926Y-54277D02*
X31926Y-54502D01*
X32376Y-54277D02*
X32376Y-54502D01*
X34119Y-55908D02*
X34063Y-55852D01*
X33951Y-55683D01*
X33894Y-55570D01*
X33838Y-55402D01*
X33782Y-55120D01*
X33782Y-54895D01*
X33838Y-54614D01*
X33894Y-54446D01*
X33951Y-54333D01*
X34063Y-54164D01*
X34119Y-54108D01*
X34457Y-54277D02*
X35244Y-54277D01*
X34738Y-55458D01*
X36313Y-55458D02*
X35638Y-55458D01*
X35975Y-55458D02*
X35975Y-54277D01*
X35863Y-54446D01*
X35750Y-54558D01*
X35638Y-54614D01*
X37719Y-55458D02*
X37719Y-54277D01*
X38225Y-55458D02*
X38225Y-54839D01*
X38169Y-54727D01*
X38056Y-54670D01*
X37888Y-54670D01*
X37775Y-54727D01*
X37719Y-54783D01*
X38956Y-55458D02*
X38844Y-55402D01*
X38787Y-55345D01*
X38731Y-55233D01*
X38731Y-54895D01*
X38787Y-54783D01*
X38844Y-54727D01*
X38956Y-54670D01*
X39125Y-54670D01*
X39237Y-54727D01*
X39294Y-54783D01*
X39350Y-54895D01*
X39350Y-55233D01*
X39294Y-55345D01*
X39237Y-55402D01*
X39125Y-55458D01*
X38956Y-55458D01*
X40025Y-55458D02*
X39912Y-55402D01*
X39856Y-55289D01*
X39856Y-54277D01*
X40925Y-55402D02*
X40812Y-55458D01*
X40587Y-55458D01*
X40475Y-55402D01*
X40419Y-55289D01*
X40419Y-54839D01*
X40475Y-54727D01*
X40587Y-54670D01*
X40812Y-54670D01*
X40925Y-54727D01*
X40981Y-54839D01*
X40981Y-54952D01*
X40419Y-55064D01*
X41431Y-55402D02*
X41543Y-55458D01*
X41768Y-55458D01*
X41881Y-55402D01*
X41937Y-55289D01*
X41937Y-55233D01*
X41881Y-55120D01*
X41768Y-55064D01*
X41600Y-55064D01*
X41487Y-55008D01*
X41431Y-54895D01*
X41431Y-54839D01*
X41487Y-54727D01*
X41600Y-54670D01*
X41768Y-54670D01*
X41881Y-54727D01*
X42331Y-55908D02*
X42387Y-55852D01*
X42499Y-55683D01*
X42556Y-55570D01*
X42612Y-55402D01*
X42668Y-55120D01*
X42668Y-54895D01*
X42612Y-54614D01*
X42556Y-54446D01*
X42499Y-54333D01*
X42387Y-54164D01*
X42331Y-54108D01*
G54D12*
X15728Y-56539D02*
G75*
G03X15728Y-56539I-200J0D01*
G74*
G01*
G54D13*
X17415Y-57017D02*
X16740Y-57017D01*
X17078Y-57017D02*
X17078Y-55836D01*
X16965Y-56005D01*
X16853Y-56117D01*
X16740Y-56173D01*
X17921Y-56904D02*
X17978Y-56961D01*
X17921Y-57017D01*
X17865Y-56961D01*
X17921Y-56904D01*
X17921Y-57017D01*
X18709Y-55836D02*
X18821Y-55836D01*
X18934Y-55892D01*
X18990Y-55948D01*
X19046Y-56061D01*
X19102Y-56286D01*
X19102Y-56567D01*
X19046Y-56792D01*
X18990Y-56904D01*
X18934Y-56961D01*
X18821Y-57017D01*
X18709Y-57017D01*
X18596Y-56961D01*
X18540Y-56904D01*
X18484Y-56792D01*
X18428Y-56567D01*
X18428Y-56286D01*
X18484Y-56061D01*
X18540Y-55948D01*
X18596Y-55892D01*
X18709Y-55836D01*
X19552Y-55948D02*
X19609Y-55892D01*
X19721Y-55836D01*
X20002Y-55836D01*
X20115Y-55892D01*
X20171Y-55948D01*
X20227Y-56061D01*
X20227Y-56173D01*
X20171Y-56342D01*
X19496Y-57017D01*
X20227Y-57017D01*
X20733Y-57017D02*
X20733Y-56230D01*
X20733Y-56342D02*
X20790Y-56286D01*
X20902Y-56230D01*
X21071Y-56230D01*
X21183Y-56286D01*
X21240Y-56398D01*
X21240Y-57017D01*
X21240Y-56398D02*
X21296Y-56286D01*
X21408Y-56230D01*
X21577Y-56230D01*
X21690Y-56286D01*
X21746Y-56398D01*
X21746Y-57017D01*
X22308Y-57017D02*
X22308Y-56230D01*
X22308Y-56342D02*
X22365Y-56286D01*
X22477Y-56230D01*
X22646Y-56230D01*
X22758Y-56286D01*
X22814Y-56398D01*
X22814Y-57017D01*
X22814Y-56398D02*
X22871Y-56286D01*
X22983Y-56230D01*
X23152Y-56230D01*
X23264Y-56286D01*
X23321Y-56398D01*
X23321Y-57017D01*
X25627Y-55780D02*
X24614Y-57298D01*
X27145Y-55836D02*
X27258Y-55836D01*
X27370Y-55892D01*
X27426Y-55948D01*
X27483Y-56061D01*
X27539Y-56286D01*
X27539Y-56567D01*
X27483Y-56792D01*
X27426Y-56904D01*
X27370Y-56961D01*
X27258Y-57017D01*
X27145Y-57017D01*
X27033Y-56961D01*
X26976Y-56904D01*
X26920Y-56792D01*
X26864Y-56567D01*
X26864Y-56286D01*
X26920Y-56061D01*
X26976Y-55948D01*
X27033Y-55892D01*
X27145Y-55836D01*
X28045Y-56904D02*
X28101Y-56961D01*
X28045Y-57017D01*
X27989Y-56961D01*
X28045Y-56904D01*
X28045Y-57017D01*
X28832Y-55836D02*
X28945Y-55836D01*
X29057Y-55892D01*
X29114Y-55948D01*
X29170Y-56061D01*
X29226Y-56286D01*
X29226Y-56567D01*
X29170Y-56792D01*
X29114Y-56904D01*
X29057Y-56961D01*
X28945Y-57017D01*
X28832Y-57017D01*
X28720Y-56961D01*
X28664Y-56904D01*
X28607Y-56792D01*
X28551Y-56567D01*
X28551Y-56286D01*
X28607Y-56061D01*
X28664Y-55948D01*
X28720Y-55892D01*
X28832Y-55836D01*
X30239Y-56230D02*
X30239Y-57017D01*
X29957Y-55780D02*
X29676Y-56623D01*
X30407Y-56623D01*
X31082Y-55836D02*
X31195Y-55836D01*
X31307Y-55892D01*
X31363Y-55948D01*
X31420Y-56061D01*
X31476Y-56286D01*
X31476Y-56567D01*
X31420Y-56792D01*
X31363Y-56904D01*
X31307Y-56961D01*
X31195Y-57017D01*
X31082Y-57017D01*
X30970Y-56961D01*
X30913Y-56904D01*
X30857Y-56792D01*
X30801Y-56567D01*
X30801Y-56286D01*
X30857Y-56061D01*
X30913Y-55948D01*
X30970Y-55892D01*
X31082Y-55836D01*
X31926Y-55836D02*
X31926Y-56061D01*
X32376Y-55836D02*
X32376Y-56061D01*
X34119Y-57467D02*
X34063Y-57411D01*
X33951Y-57242D01*
X33894Y-57129D01*
X33838Y-56961D01*
X33782Y-56679D01*
X33782Y-56455D01*
X33838Y-56173D01*
X33894Y-56005D01*
X33951Y-55892D01*
X34063Y-55723D01*
X34119Y-55667D01*
X35188Y-57017D02*
X34513Y-57017D01*
X34850Y-57017D02*
X34850Y-55836D01*
X34738Y-56005D01*
X34625Y-56117D01*
X34513Y-56173D01*
X35638Y-55948D02*
X35694Y-55892D01*
X35807Y-55836D01*
X36088Y-55836D01*
X36200Y-55892D01*
X36257Y-55948D01*
X36313Y-56061D01*
X36313Y-56173D01*
X36257Y-56342D01*
X35582Y-57017D01*
X36313Y-57017D01*
X37719Y-57017D02*
X37719Y-55836D01*
X38225Y-57017D02*
X38225Y-56398D01*
X38169Y-56286D01*
X38056Y-56230D01*
X37888Y-56230D01*
X37775Y-56286D01*
X37719Y-56342D01*
X38956Y-57017D02*
X38844Y-56961D01*
X38787Y-56904D01*
X38731Y-56792D01*
X38731Y-56455D01*
X38787Y-56342D01*
X38844Y-56286D01*
X38956Y-56230D01*
X39125Y-56230D01*
X39237Y-56286D01*
X39294Y-56342D01*
X39350Y-56455D01*
X39350Y-56792D01*
X39294Y-56904D01*
X39237Y-56961D01*
X39125Y-57017D01*
X38956Y-57017D01*
X40025Y-57017D02*
X39912Y-56961D01*
X39856Y-56848D01*
X39856Y-55836D01*
X40925Y-56961D02*
X40812Y-57017D01*
X40587Y-57017D01*
X40475Y-56961D01*
X40419Y-56848D01*
X40419Y-56398D01*
X40475Y-56286D01*
X40587Y-56230D01*
X40812Y-56230D01*
X40925Y-56286D01*
X40981Y-56398D01*
X40981Y-56511D01*
X40419Y-56623D01*
X41431Y-56961D02*
X41543Y-57017D01*
X41768Y-57017D01*
X41881Y-56961D01*
X41937Y-56848D01*
X41937Y-56792D01*
X41881Y-56679D01*
X41768Y-56623D01*
X41600Y-56623D01*
X41487Y-56567D01*
X41431Y-56455D01*
X41431Y-56398D01*
X41487Y-56286D01*
X41600Y-56230D01*
X41768Y-56230D01*
X41881Y-56286D01*
X42331Y-57467D02*
X42387Y-57411D01*
X42499Y-57242D01*
X42556Y-57129D01*
X42612Y-56961D01*
X42668Y-56679D01*
X42668Y-56455D01*
X42612Y-56173D01*
X42556Y-56005D01*
X42499Y-55892D01*
X42387Y-55723D01*
X42331Y-55667D01*
X15128Y-57498D02*
X15128Y-58698D01*
X14528Y-58098D02*
X15728Y-58098D01*
X16684Y-57395D02*
X17415Y-57395D01*
X17021Y-57845D01*
X17190Y-57845D01*
X17303Y-57901D01*
X17359Y-57957D01*
X17415Y-58070D01*
X17415Y-58351D01*
X17359Y-58464D01*
X17303Y-58520D01*
X17190Y-58576D01*
X16853Y-58576D01*
X16740Y-58520D01*
X16684Y-58464D01*
X17921Y-58464D02*
X17978Y-58520D01*
X17921Y-58576D01*
X17865Y-58520D01*
X17921Y-58464D01*
X17921Y-58576D01*
X18709Y-57395D02*
X18821Y-57395D01*
X18934Y-57451D01*
X18990Y-57507D01*
X19046Y-57620D01*
X19102Y-57845D01*
X19102Y-58126D01*
X19046Y-58351D01*
X18990Y-58464D01*
X18934Y-58520D01*
X18821Y-58576D01*
X18709Y-58576D01*
X18596Y-58520D01*
X18540Y-58464D01*
X18484Y-58351D01*
X18428Y-58126D01*
X18428Y-57845D01*
X18484Y-57620D01*
X18540Y-57507D01*
X18596Y-57451D01*
X18709Y-57395D01*
X20171Y-57395D02*
X19609Y-57395D01*
X19552Y-57957D01*
X19609Y-57901D01*
X19721Y-57845D01*
X20002Y-57845D01*
X20115Y-57901D01*
X20171Y-57957D01*
X20227Y-58070D01*
X20227Y-58351D01*
X20171Y-58464D01*
X20115Y-58520D01*
X20002Y-58576D01*
X19721Y-58576D01*
X19609Y-58520D01*
X19552Y-58464D01*
X20733Y-58576D02*
X20733Y-57789D01*
X20733Y-57901D02*
X20790Y-57845D01*
X20902Y-57789D01*
X21071Y-57789D01*
X21183Y-57845D01*
X21240Y-57957D01*
X21240Y-58576D01*
X21240Y-57957D02*
X21296Y-57845D01*
X21408Y-57789D01*
X21577Y-57789D01*
X21690Y-57845D01*
X21746Y-57957D01*
X21746Y-58576D01*
X22308Y-58576D02*
X22308Y-57789D01*
X22308Y-57901D02*
X22365Y-57845D01*
X22477Y-57789D01*
X22646Y-57789D01*
X22758Y-57845D01*
X22814Y-57957D01*
X22814Y-58576D01*
X22814Y-57957D02*
X22871Y-57845D01*
X22983Y-57789D01*
X23152Y-57789D01*
X23264Y-57845D01*
X23321Y-57957D01*
X23321Y-58576D01*
X25627Y-57339D02*
X24614Y-58857D01*
X27145Y-57395D02*
X27258Y-57395D01*
X27370Y-57451D01*
X27426Y-57507D01*
X27483Y-57620D01*
X27539Y-57845D01*
X27539Y-58126D01*
X27483Y-58351D01*
X27426Y-58464D01*
X27370Y-58520D01*
X27258Y-58576D01*
X27145Y-58576D01*
X27033Y-58520D01*
X26976Y-58464D01*
X26920Y-58351D01*
X26864Y-58126D01*
X26864Y-57845D01*
X26920Y-57620D01*
X26976Y-57507D01*
X27033Y-57451D01*
X27145Y-57395D01*
X28045Y-58464D02*
X28101Y-58520D01*
X28045Y-58576D01*
X27989Y-58520D01*
X28045Y-58464D01*
X28045Y-58576D01*
X29226Y-58576D02*
X28551Y-58576D01*
X28889Y-58576D02*
X28889Y-57395D01*
X28776Y-57564D01*
X28664Y-57676D01*
X28551Y-57732D01*
X29676Y-57507D02*
X29732Y-57451D01*
X29845Y-57395D01*
X30126Y-57395D01*
X30239Y-57451D01*
X30295Y-57507D01*
X30351Y-57620D01*
X30351Y-57732D01*
X30295Y-57901D01*
X29620Y-58576D01*
X30351Y-58576D01*
X31082Y-57395D02*
X31195Y-57395D01*
X31307Y-57451D01*
X31363Y-57507D01*
X31420Y-57620D01*
X31476Y-57845D01*
X31476Y-58126D01*
X31420Y-58351D01*
X31363Y-58464D01*
X31307Y-58520D01*
X31195Y-58576D01*
X31082Y-58576D01*
X30970Y-58520D01*
X30913Y-58464D01*
X30857Y-58351D01*
X30801Y-58126D01*
X30801Y-57845D01*
X30857Y-57620D01*
X30913Y-57507D01*
X30970Y-57451D01*
X31082Y-57395D01*
X31926Y-57395D02*
X31926Y-57620D01*
X32376Y-57395D02*
X32376Y-57620D01*
X34119Y-59026D02*
X34063Y-58970D01*
X33951Y-58801D01*
X33894Y-58688D01*
X33838Y-58520D01*
X33782Y-58239D01*
X33782Y-58014D01*
X33838Y-57732D01*
X33894Y-57564D01*
X33951Y-57451D01*
X34063Y-57282D01*
X34119Y-57226D01*
X35132Y-57395D02*
X34569Y-57395D01*
X34513Y-57957D01*
X34569Y-57901D01*
X34682Y-57845D01*
X34963Y-57845D01*
X35075Y-57901D01*
X35132Y-57957D01*
X35188Y-58070D01*
X35188Y-58351D01*
X35132Y-58464D01*
X35075Y-58520D01*
X34963Y-58576D01*
X34682Y-58576D01*
X34569Y-58520D01*
X34513Y-58464D01*
X36594Y-58576D02*
X36594Y-57395D01*
X37100Y-58576D02*
X37100Y-57957D01*
X37044Y-57845D01*
X36931Y-57789D01*
X36763Y-57789D01*
X36650Y-57845D01*
X36594Y-57901D01*
X37831Y-58576D02*
X37719Y-58520D01*
X37663Y-58464D01*
X37606Y-58351D01*
X37606Y-58014D01*
X37663Y-57901D01*
X37719Y-57845D01*
X37831Y-57789D01*
X38000Y-57789D01*
X38113Y-57845D01*
X38169Y-57901D01*
X38225Y-58014D01*
X38225Y-58351D01*
X38169Y-58464D01*
X38113Y-58520D01*
X38000Y-58576D01*
X37831Y-58576D01*
X38900Y-58576D02*
X38787Y-58520D01*
X38731Y-58407D01*
X38731Y-57395D01*
X39800Y-58520D02*
X39687Y-58576D01*
X39462Y-58576D01*
X39350Y-58520D01*
X39294Y-58407D01*
X39294Y-57957D01*
X39350Y-57845D01*
X39462Y-57789D01*
X39687Y-57789D01*
X39800Y-57845D01*
X39856Y-57957D01*
X39856Y-58070D01*
X39294Y-58182D01*
X40306Y-58520D02*
X40419Y-58576D01*
X40643Y-58576D01*
X40756Y-58520D01*
X40812Y-58407D01*
X40812Y-58351D01*
X40756Y-58239D01*
X40643Y-58182D01*
X40475Y-58182D01*
X40362Y-58126D01*
X40306Y-58014D01*
X40306Y-57957D01*
X40362Y-57845D01*
X40475Y-57789D01*
X40643Y-57789D01*
X40756Y-57845D01*
X41206Y-59026D02*
X41262Y-58970D01*
X41375Y-58801D01*
X41431Y-58688D01*
X41487Y-58520D01*
X41543Y-58239D01*
X41543Y-58014D01*
X41487Y-57732D01*
X41431Y-57564D01*
X41375Y-57451D01*
X41262Y-57282D01*
X41206Y-57226D01*
M02*
