M48
;DRILL file {Pcbnew (2013-07-07 BZR 4022)-stable} date 2/23/2015 9:33:34 PM
;FORMAT={-:-/ absolute / inch / decimal}
FMAT,2
INCH,TZ
T1C0.025
T2C0.040
T3C0.120
%
G90
G05
M72
T1
X1.7996Y-2.8996
X1.88Y-3.02
X1.94Y-3.15
X1.97Y-2.78
X1.98Y-3.26
X1.9844Y-2.8688
X2.02Y-3.98
X2.12Y-2.23
X2.1274Y-1.837
X2.156Y-2.9084
X2.1934Y-4.3098
X2.21Y-3.42
X2.25Y-3.47
X2.315Y-3.2475
X2.33Y-3.47
X2.35Y-3.335
X2.3694Y-3.8038
X2.3958Y-1.738
X2.41Y-2.84
X2.4332Y-3.7246
X2.51Y-3.46
X2.57Y-4.2
X2.65Y-2.23
X2.65Y-3.3
X2.8402Y-3.8808
X2.89Y-3.505
X2.9Y-4.2
X2.9238Y-1.9646
X2.9425Y-3.295
X2.99Y-2.23
X3.036Y-3.5662
X3.135Y-3.3925
X3.18Y-3.325
X3.96Y-3.39
X4.0025Y-3.445
X4.12Y-2.23
X4.12Y-3.3425
X4.1448Y-1.7996
X4.145Y-3.515
X4.1954Y-4.4946
X4.2042Y-2.827
X4.23Y-3.44
X4.24Y-4.19
X4.29Y-3.51
X4.3Y-3.43
X4.32Y-3.34
X4.3252Y-3.7994
X4.345Y-1.7226
X4.35Y-3.58
X4.43Y-4.19
X4.4726Y-1.7754
X4.4875Y-3.45
X4.4968Y-2.827
X4.5716Y-3.6652
X4.6Y-2.1
X4.665Y-3.3125
X4.675Y-2.1868
X4.686Y-3.9182
X4.6904Y-1.9844
X4.741Y-3.3462
X4.86Y-3.51
X4.89Y-2.08
X4.89Y-3.59
X4.95Y-1.958
X4.98Y-3.73
X5.03Y-4.19
X5.12Y-2.39
X5.14Y-3.1
X5.1436Y-2.8908
X5.17Y-3.17
X5.2504Y-3.3996
T2
X1.6732Y-2.8996
X1.6732Y-2.9996
X1.6732Y-3.0996
X1.6732Y-3.1996
X1.6732Y-3.2996
X1.6732Y-3.3996
X5.4134Y-2.8996
X5.4134Y-2.9996
X5.4134Y-3.0996
X5.4134Y-3.1996
X5.4134Y-3.2996
X5.4134Y-3.3996
T3
X1.7323Y-1.3386
X1.7323Y-4.9606
X3.5433Y-3.1496
X5.3543Y-1.3386
X5.3543Y-4.9606
T0
M30
