G04 (created by PCBNEW (2013-07-07 BZR 4022)-stable) date 2/6/2015 12:36:25 AM*
%MOIN*%
G04 Gerber Fmt 3.4, Leading zero omitted, Abs format*
%FSLAX34Y34*%
G01*
G70*
G90*
G04 APERTURE LIST*
%ADD10C,0.00590551*%
%ADD11C,0.00787402*%
%ADD12C,0.01*%
%ADD13C,0.0031*%
%ADD14C,0.005*%
%ADD15C,0.0039*%
%ADD16C,0.012*%
%ADD17C,0.015*%
%ADD18C,0.0075*%
%ADD19C,0.0047*%
%ADD20C,0.0043*%
%ADD21C,0.0045*%
%ADD22C,0.008*%
G04 APERTURE END LIST*
G54D10*
G54D11*
X52165Y-29527D02*
X52165Y-13779D01*
X54133Y-29527D02*
X52165Y-29527D01*
X54133Y-13779D02*
X54133Y-29527D01*
X52165Y-13779D02*
X54133Y-13779D01*
X51181Y-12795D02*
X39370Y-12795D01*
X51181Y-14763D02*
X51181Y-12795D01*
X39370Y-14763D02*
X51181Y-14763D01*
X39370Y-12795D02*
X39370Y-14763D01*
X36417Y-13779D02*
X36417Y-29527D01*
X38385Y-13779D02*
X36417Y-13779D01*
X38385Y-29527D02*
X38385Y-13779D01*
X36417Y-29527D02*
X38385Y-29527D01*
X51181Y-32480D02*
X39370Y-32480D01*
X51181Y-30511D02*
X51181Y-32480D01*
X39370Y-30511D02*
X51181Y-30511D01*
X39370Y-32480D02*
X39370Y-30511D01*
X54133Y-33464D02*
X54133Y-49212D01*
X52165Y-33464D02*
X54133Y-33464D01*
X52165Y-49212D02*
X52165Y-33464D01*
X54133Y-49212D02*
X52165Y-49212D01*
X51181Y-48228D02*
X39370Y-48228D01*
X51181Y-50196D02*
X51181Y-48228D01*
X39370Y-50196D02*
X51181Y-50196D01*
X39370Y-48228D02*
X39370Y-50196D01*
X36417Y-49212D02*
X36417Y-33464D01*
X38385Y-49212D02*
X36417Y-49212D01*
X38385Y-33464D02*
X38385Y-49212D01*
X36417Y-33464D02*
X38385Y-33464D01*
X19685Y-14763D02*
X19685Y-12795D01*
X31496Y-14763D02*
X19685Y-14763D01*
X31496Y-12795D02*
X31496Y-14763D01*
X19685Y-12795D02*
X31496Y-12795D01*
X32480Y-13779D02*
X32480Y-29527D01*
X34448Y-13779D02*
X32480Y-13779D01*
X34448Y-29527D02*
X34448Y-13779D01*
X32480Y-29527D02*
X34448Y-29527D01*
X31496Y-30511D02*
X19685Y-30511D01*
X31496Y-32480D02*
X31496Y-30511D01*
X19685Y-32480D02*
X31496Y-32480D01*
X19685Y-30511D02*
X19685Y-32480D01*
X32480Y-33464D02*
X32480Y-49212D01*
X34448Y-33464D02*
X32480Y-33464D01*
X34448Y-49212D02*
X34448Y-33464D01*
X32480Y-49212D02*
X34448Y-49212D01*
X31496Y-50196D02*
X19685Y-50196D01*
X31496Y-48228D02*
X31496Y-50196D01*
X19685Y-48228D02*
X31496Y-48228D01*
X16732Y-47244D02*
X16732Y-49212D01*
X18700Y-47244D02*
X18700Y-49212D01*
X16732Y-29527D02*
X18700Y-29527D01*
X55118Y-31496D02*
X15748Y-31496D01*
X35433Y-11811D02*
X35433Y-51181D01*
X19685Y-48228D02*
X19685Y-50196D01*
X16732Y-47244D02*
X16732Y-33464D01*
X18700Y-49212D02*
X16732Y-49212D01*
X18700Y-33464D02*
X18700Y-47244D01*
X16732Y-33464D02*
X18700Y-33464D01*
X16732Y-29527D02*
X16732Y-13779D01*
X18700Y-31496D02*
X16732Y-31496D01*
X18700Y-13779D02*
X18700Y-29527D01*
X16732Y-13779D02*
X18700Y-13779D01*
G54D12*
X24840Y-35548D02*
X24840Y-33448D01*
X24840Y-33448D02*
X26290Y-33448D01*
X26290Y-33448D02*
X26290Y-35548D01*
X26290Y-35548D02*
X24840Y-35548D01*
X26174Y-35315D02*
G75*
G03X26174Y-35315I-128J0D01*
G74*
G01*
X44525Y-35548D02*
X44525Y-33448D01*
X44525Y-33448D02*
X45975Y-33448D01*
X45975Y-33448D02*
X45975Y-35548D01*
X45975Y-35548D02*
X44525Y-35548D01*
X45859Y-35315D02*
G75*
G03X45859Y-35315I-128J0D01*
G74*
G01*
G54D13*
X39570Y-19163D02*
G75*
G03X39570Y-19163I-62J0D01*
G74*
G01*
X39170Y-18200D02*
X39570Y-18200D01*
X39170Y-19225D02*
X39570Y-19225D01*
X39570Y-18200D02*
X39570Y-19225D01*
X39170Y-19225D02*
X39170Y-18200D01*
X42848Y-29389D02*
G75*
G03X42848Y-29389I-62J0D01*
G74*
G01*
X41822Y-29727D02*
X41822Y-29327D01*
X42847Y-29727D02*
X42847Y-29327D01*
X41822Y-29327D02*
X42847Y-29327D01*
X42847Y-29727D02*
X41822Y-29727D01*
X41922Y-15886D02*
G75*
G03X41922Y-15886I-62J0D01*
G74*
G01*
X42822Y-15548D02*
X42822Y-15948D01*
X41797Y-15548D02*
X41797Y-15948D01*
X42822Y-15948D02*
X41797Y-15948D01*
X41797Y-15548D02*
X42822Y-15548D01*
X51105Y-18237D02*
G75*
G03X51105Y-18237I-62J0D01*
G74*
G01*
X51381Y-19200D02*
X50981Y-19200D01*
X51381Y-18175D02*
X50981Y-18175D01*
X50981Y-19200D02*
X50981Y-18175D01*
X51381Y-18175D02*
X51381Y-19200D01*
X51105Y-37922D02*
G75*
G03X51105Y-37922I-62J0D01*
G74*
G01*
X51381Y-38885D02*
X50981Y-38885D01*
X51381Y-37860D02*
X50981Y-37860D01*
X50981Y-38885D02*
X50981Y-37860D01*
X51381Y-37860D02*
X51381Y-38885D01*
X42848Y-46121D02*
G75*
G03X42848Y-46121I-62J0D01*
G74*
G01*
X41822Y-46459D02*
X41822Y-46059D01*
X42847Y-46459D02*
X42847Y-46059D01*
X41822Y-46059D02*
X42847Y-46059D01*
X42847Y-46459D02*
X41822Y-46459D01*
X39570Y-38848D02*
G75*
G03X39570Y-38848I-62J0D01*
G74*
G01*
X39170Y-37885D02*
X39570Y-37885D01*
X39170Y-38910D02*
X39570Y-38910D01*
X39570Y-37885D02*
X39570Y-38910D01*
X39170Y-38910D02*
X39170Y-37885D01*
X23163Y-29389D02*
G75*
G03X23163Y-29389I-62J0D01*
G74*
G01*
X22137Y-29727D02*
X22137Y-29327D01*
X23162Y-29727D02*
X23162Y-29327D01*
X22137Y-29327D02*
X23162Y-29327D01*
X23162Y-29727D02*
X22137Y-29727D01*
X22237Y-15886D02*
G75*
G03X22237Y-15886I-62J0D01*
G74*
G01*
X23137Y-15548D02*
X23137Y-15948D01*
X22112Y-15548D02*
X22112Y-15948D01*
X23137Y-15948D02*
X22112Y-15948D01*
X22112Y-15548D02*
X23137Y-15548D01*
X19885Y-19163D02*
G75*
G03X19885Y-19163I-62J0D01*
G74*
G01*
X19485Y-18200D02*
X19885Y-18200D01*
X19485Y-19225D02*
X19885Y-19225D01*
X19885Y-18200D02*
X19885Y-19225D01*
X19485Y-19225D02*
X19485Y-18200D01*
X31420Y-18237D02*
G75*
G03X31420Y-18237I-62J0D01*
G74*
G01*
X31696Y-19200D02*
X31296Y-19200D01*
X31696Y-18175D02*
X31296Y-18175D01*
X31296Y-19200D02*
X31296Y-18175D01*
X31696Y-18175D02*
X31696Y-19200D01*
X23163Y-46121D02*
G75*
G03X23163Y-46121I-62J0D01*
G74*
G01*
X22137Y-46459D02*
X22137Y-46059D01*
X23162Y-46459D02*
X23162Y-46059D01*
X22137Y-46059D02*
X23162Y-46059D01*
X23162Y-46459D02*
X22137Y-46459D01*
X19885Y-38848D02*
G75*
G03X19885Y-38848I-62J0D01*
G74*
G01*
X19485Y-37885D02*
X19885Y-37885D01*
X19485Y-38910D02*
X19885Y-38910D01*
X19885Y-37885D02*
X19885Y-38910D01*
X19485Y-38910D02*
X19485Y-37885D01*
X31420Y-37922D02*
G75*
G03X31420Y-37922I-62J0D01*
G74*
G01*
X31696Y-38885D02*
X31296Y-38885D01*
X31696Y-37860D02*
X31296Y-37860D01*
X31296Y-38885D02*
X31296Y-37860D01*
X31696Y-37860D02*
X31696Y-38885D01*
G54D14*
X24590Y-29077D02*
X24590Y-29977D01*
X24590Y-29977D02*
X25240Y-29977D01*
X25940Y-29077D02*
X26590Y-29077D01*
X26590Y-29077D02*
X26590Y-29977D01*
X26590Y-29977D02*
X25940Y-29977D01*
X25240Y-29077D02*
X24590Y-29077D01*
X50731Y-42338D02*
X51631Y-42338D01*
X51631Y-42338D02*
X51631Y-41688D01*
X50731Y-40988D02*
X50731Y-40338D01*
X50731Y-40338D02*
X51631Y-40338D01*
X51631Y-40338D02*
X51631Y-40988D01*
X50731Y-41688D02*
X50731Y-42338D01*
X50731Y-22653D02*
X51631Y-22653D01*
X51631Y-22653D02*
X51631Y-22003D01*
X50731Y-21303D02*
X50731Y-20653D01*
X50731Y-20653D02*
X51631Y-20653D01*
X51631Y-20653D02*
X51631Y-21303D01*
X50731Y-22003D02*
X50731Y-22653D01*
X44275Y-15298D02*
X44275Y-16198D01*
X44275Y-16198D02*
X44925Y-16198D01*
X45625Y-15298D02*
X46275Y-15298D01*
X46275Y-15298D02*
X46275Y-16198D01*
X46275Y-16198D02*
X45625Y-16198D01*
X44925Y-15298D02*
X44275Y-15298D01*
X44275Y-29077D02*
X44275Y-29977D01*
X44275Y-29977D02*
X44925Y-29977D01*
X45625Y-29077D02*
X46275Y-29077D01*
X46275Y-29077D02*
X46275Y-29977D01*
X46275Y-29977D02*
X45625Y-29977D01*
X44925Y-29077D02*
X44275Y-29077D01*
X44275Y-46794D02*
X44275Y-47694D01*
X44275Y-47694D02*
X44925Y-47694D01*
X45625Y-46794D02*
X46275Y-46794D01*
X46275Y-46794D02*
X46275Y-47694D01*
X46275Y-47694D02*
X45625Y-47694D01*
X44925Y-46794D02*
X44275Y-46794D01*
X38920Y-42338D02*
X39820Y-42338D01*
X39820Y-42338D02*
X39820Y-41688D01*
X38920Y-40988D02*
X38920Y-40338D01*
X38920Y-40338D02*
X39820Y-40338D01*
X39820Y-40338D02*
X39820Y-40988D01*
X38920Y-41688D02*
X38920Y-42338D01*
X38920Y-22653D02*
X39820Y-22653D01*
X39820Y-22653D02*
X39820Y-22003D01*
X38920Y-21303D02*
X38920Y-20653D01*
X38920Y-20653D02*
X39820Y-20653D01*
X39820Y-20653D02*
X39820Y-21303D01*
X38920Y-22003D02*
X38920Y-22653D01*
X24590Y-15298D02*
X24590Y-16198D01*
X24590Y-16198D02*
X25240Y-16198D01*
X25940Y-15298D02*
X26590Y-15298D01*
X26590Y-15298D02*
X26590Y-16198D01*
X26590Y-16198D02*
X25940Y-16198D01*
X25240Y-15298D02*
X24590Y-15298D01*
X31046Y-22653D02*
X31946Y-22653D01*
X31946Y-22653D02*
X31946Y-22003D01*
X31046Y-21303D02*
X31046Y-20653D01*
X31046Y-20653D02*
X31946Y-20653D01*
X31946Y-20653D02*
X31946Y-21303D01*
X31046Y-22003D02*
X31046Y-22653D01*
X31046Y-42338D02*
X31946Y-42338D01*
X31946Y-42338D02*
X31946Y-41688D01*
X31046Y-40988D02*
X31046Y-40338D01*
X31046Y-40338D02*
X31946Y-40338D01*
X31946Y-40338D02*
X31946Y-40988D01*
X31046Y-41688D02*
X31046Y-42338D01*
X26590Y-47694D02*
X26590Y-46794D01*
X26590Y-46794D02*
X25940Y-46794D01*
X25240Y-47694D02*
X24590Y-47694D01*
X24590Y-47694D02*
X24590Y-46794D01*
X24590Y-46794D02*
X25240Y-46794D01*
X25940Y-47694D02*
X26590Y-47694D01*
X19235Y-42338D02*
X20135Y-42338D01*
X20135Y-42338D02*
X20135Y-41688D01*
X19235Y-40988D02*
X19235Y-40338D01*
X19235Y-40338D02*
X20135Y-40338D01*
X20135Y-40338D02*
X20135Y-40988D01*
X19235Y-41688D02*
X19235Y-42338D01*
X19235Y-22653D02*
X20135Y-22653D01*
X20135Y-22653D02*
X20135Y-22003D01*
X19235Y-21303D02*
X19235Y-20653D01*
X19235Y-20653D02*
X20135Y-20653D01*
X20135Y-20653D02*
X20135Y-21303D01*
X19235Y-22003D02*
X19235Y-22653D01*
G54D15*
X53849Y-35133D02*
G75*
G03X53849Y-35133I-50J0D01*
G74*
G01*
X53349Y-35133D02*
X53749Y-35133D01*
X53749Y-35133D02*
X53749Y-35733D01*
X53749Y-35733D02*
X53349Y-35733D01*
X52949Y-35733D02*
X52549Y-35733D01*
X52549Y-35733D02*
X52549Y-35133D01*
X52549Y-35133D02*
X52949Y-35133D01*
X53849Y-15448D02*
G75*
G03X53849Y-15448I-50J0D01*
G74*
G01*
X53349Y-15448D02*
X53749Y-15448D01*
X53749Y-15448D02*
X53749Y-16048D01*
X53749Y-16048D02*
X53349Y-16048D01*
X52949Y-16048D02*
X52549Y-16048D01*
X52549Y-16048D02*
X52549Y-15448D01*
X52549Y-15448D02*
X52949Y-15448D01*
X53849Y-46944D02*
G75*
G03X53849Y-46944I-50J0D01*
G74*
G01*
X53349Y-46944D02*
X53749Y-46944D01*
X53749Y-46944D02*
X53749Y-47544D01*
X53749Y-47544D02*
X53349Y-47544D01*
X52949Y-47544D02*
X52549Y-47544D01*
X52549Y-47544D02*
X52549Y-46944D01*
X52549Y-46944D02*
X52949Y-46944D01*
X53849Y-21353D02*
G75*
G03X53849Y-21353I-50J0D01*
G74*
G01*
X53349Y-21353D02*
X53749Y-21353D01*
X53749Y-21353D02*
X53749Y-21953D01*
X53749Y-21953D02*
X53349Y-21953D01*
X52949Y-21953D02*
X52549Y-21953D01*
X52549Y-21953D02*
X52549Y-21353D01*
X52549Y-21353D02*
X52949Y-21353D01*
X45625Y-14429D02*
G75*
G03X45625Y-14429I-50J0D01*
G74*
G01*
X45575Y-13979D02*
X45575Y-14379D01*
X45575Y-14379D02*
X44975Y-14379D01*
X44975Y-14379D02*
X44975Y-13979D01*
X44975Y-13579D02*
X44975Y-13179D01*
X44975Y-13179D02*
X45575Y-13179D01*
X45575Y-13179D02*
X45575Y-13579D01*
X53849Y-27259D02*
G75*
G03X53849Y-27259I-50J0D01*
G74*
G01*
X53349Y-27259D02*
X53749Y-27259D01*
X53749Y-27259D02*
X53749Y-27859D01*
X53749Y-27859D02*
X53349Y-27859D01*
X52949Y-27859D02*
X52549Y-27859D01*
X52549Y-27859D02*
X52549Y-27259D01*
X52549Y-27259D02*
X52949Y-27259D01*
X22003Y-32146D02*
G75*
G03X22003Y-32146I-50J0D01*
G74*
G01*
X21953Y-31696D02*
X21953Y-32096D01*
X21953Y-32096D02*
X21353Y-32096D01*
X21353Y-32096D02*
X21353Y-31696D01*
X21353Y-31296D02*
X21353Y-30896D01*
X21353Y-30896D02*
X21953Y-30896D01*
X21953Y-30896D02*
X21953Y-31296D01*
X53849Y-41038D02*
G75*
G03X53849Y-41038I-50J0D01*
G74*
G01*
X53349Y-41038D02*
X53749Y-41038D01*
X53749Y-41038D02*
X53749Y-41638D01*
X53749Y-41638D02*
X53349Y-41638D01*
X52949Y-41638D02*
X52549Y-41638D01*
X52549Y-41638D02*
X52549Y-41038D01*
X52549Y-41038D02*
X52949Y-41038D01*
X49562Y-49862D02*
G75*
G03X49562Y-49862I-50J0D01*
G74*
G01*
X49512Y-49412D02*
X49512Y-49812D01*
X49512Y-49812D02*
X48912Y-49812D01*
X48912Y-49812D02*
X48912Y-49412D01*
X48912Y-49012D02*
X48912Y-48612D01*
X48912Y-48612D02*
X49512Y-48612D01*
X49512Y-48612D02*
X49512Y-49012D01*
X38101Y-21353D02*
G75*
G03X38101Y-21353I-50J0D01*
G74*
G01*
X37601Y-21353D02*
X38001Y-21353D01*
X38001Y-21353D02*
X38001Y-21953D01*
X38001Y-21953D02*
X37601Y-21953D01*
X37201Y-21953D02*
X36801Y-21953D01*
X36801Y-21953D02*
X36801Y-21353D01*
X36801Y-21353D02*
X37201Y-21353D01*
X38101Y-27259D02*
G75*
G03X38101Y-27259I-50J0D01*
G74*
G01*
X37601Y-27259D02*
X38001Y-27259D01*
X38001Y-27259D02*
X38001Y-27859D01*
X38001Y-27859D02*
X37601Y-27859D01*
X37201Y-27859D02*
X36801Y-27859D01*
X36801Y-27859D02*
X36801Y-27259D01*
X36801Y-27259D02*
X37201Y-27259D01*
X38101Y-15448D02*
G75*
G03X38101Y-15448I-50J0D01*
G74*
G01*
X37601Y-15448D02*
X38001Y-15448D01*
X38001Y-15448D02*
X38001Y-16048D01*
X38001Y-16048D02*
X37601Y-16048D01*
X37201Y-16048D02*
X36801Y-16048D01*
X36801Y-16048D02*
X36801Y-15448D01*
X36801Y-15448D02*
X37201Y-15448D01*
X38101Y-41038D02*
G75*
G03X38101Y-41038I-50J0D01*
G74*
G01*
X37601Y-41038D02*
X38001Y-41038D01*
X38001Y-41038D02*
X38001Y-41638D01*
X38001Y-41638D02*
X37601Y-41638D01*
X37201Y-41638D02*
X36801Y-41638D01*
X36801Y-41638D02*
X36801Y-41038D01*
X36801Y-41038D02*
X37201Y-41038D01*
X38101Y-35133D02*
G75*
G03X38101Y-35133I-50J0D01*
G74*
G01*
X37601Y-35133D02*
X38001Y-35133D01*
X38001Y-35133D02*
X38001Y-35733D01*
X38001Y-35733D02*
X37601Y-35733D01*
X37201Y-35733D02*
X36801Y-35733D01*
X36801Y-35733D02*
X36801Y-35133D01*
X36801Y-35133D02*
X37201Y-35133D01*
X38101Y-46944D02*
G75*
G03X38101Y-46944I-50J0D01*
G74*
G01*
X37601Y-46944D02*
X38001Y-46944D01*
X38001Y-46944D02*
X38001Y-47544D01*
X38001Y-47544D02*
X37601Y-47544D01*
X37201Y-47544D02*
X36801Y-47544D01*
X36801Y-47544D02*
X36801Y-46944D01*
X36801Y-46944D02*
X37201Y-46944D01*
X45625Y-49862D02*
G75*
G03X45625Y-49862I-50J0D01*
G74*
G01*
X45575Y-49412D02*
X45575Y-49812D01*
X45575Y-49812D02*
X44975Y-49812D01*
X44975Y-49812D02*
X44975Y-49412D01*
X44975Y-49012D02*
X44975Y-48612D01*
X44975Y-48612D02*
X45575Y-48612D01*
X45575Y-48612D02*
X45575Y-49012D01*
X41688Y-49862D02*
G75*
G03X41688Y-49862I-50J0D01*
G74*
G01*
X41638Y-49412D02*
X41638Y-49812D01*
X41638Y-49812D02*
X41038Y-49812D01*
X41038Y-49812D02*
X41038Y-49412D01*
X41038Y-49012D02*
X41038Y-48612D01*
X41038Y-48612D02*
X41638Y-48612D01*
X41638Y-48612D02*
X41638Y-49012D01*
X34164Y-46944D02*
G75*
G03X34164Y-46944I-50J0D01*
G74*
G01*
X33664Y-46944D02*
X34064Y-46944D01*
X34064Y-46944D02*
X34064Y-47544D01*
X34064Y-47544D02*
X33664Y-47544D01*
X33264Y-47544D02*
X32864Y-47544D01*
X32864Y-47544D02*
X32864Y-46944D01*
X32864Y-46944D02*
X33264Y-46944D01*
X41688Y-32146D02*
G75*
G03X41688Y-32146I-50J0D01*
G74*
G01*
X41638Y-31696D02*
X41638Y-32096D01*
X41638Y-32096D02*
X41038Y-32096D01*
X41038Y-32096D02*
X41038Y-31696D01*
X41038Y-31296D02*
X41038Y-30896D01*
X41038Y-30896D02*
X41638Y-30896D01*
X41638Y-30896D02*
X41638Y-31296D01*
X49562Y-32146D02*
G75*
G03X49562Y-32146I-50J0D01*
G74*
G01*
X49512Y-31696D02*
X49512Y-32096D01*
X49512Y-32096D02*
X48912Y-32096D01*
X48912Y-32096D02*
X48912Y-31696D01*
X48912Y-31296D02*
X48912Y-30896D01*
X48912Y-30896D02*
X49512Y-30896D01*
X49512Y-30896D02*
X49512Y-31296D01*
X18416Y-15448D02*
G75*
G03X18416Y-15448I-50J0D01*
G74*
G01*
X17916Y-15448D02*
X18316Y-15448D01*
X18316Y-15448D02*
X18316Y-16048D01*
X18316Y-16048D02*
X17916Y-16048D01*
X17516Y-16048D02*
X17116Y-16048D01*
X17116Y-16048D02*
X17116Y-15448D01*
X17116Y-15448D02*
X17516Y-15448D01*
X18416Y-27259D02*
G75*
G03X18416Y-27259I-50J0D01*
G74*
G01*
X17916Y-27259D02*
X18316Y-27259D01*
X18316Y-27259D02*
X18316Y-27859D01*
X18316Y-27859D02*
X17916Y-27859D01*
X17516Y-27859D02*
X17116Y-27859D01*
X17116Y-27859D02*
X17116Y-27259D01*
X17116Y-27259D02*
X17516Y-27259D01*
X18416Y-21353D02*
G75*
G03X18416Y-21353I-50J0D01*
G74*
G01*
X17916Y-21353D02*
X18316Y-21353D01*
X18316Y-21353D02*
X18316Y-21953D01*
X18316Y-21953D02*
X17916Y-21953D01*
X17516Y-21953D02*
X17116Y-21953D01*
X17116Y-21953D02*
X17116Y-21353D01*
X17116Y-21353D02*
X17516Y-21353D01*
X18416Y-41038D02*
G75*
G03X18416Y-41038I-50J0D01*
G74*
G01*
X17916Y-41038D02*
X18316Y-41038D01*
X18316Y-41038D02*
X18316Y-41638D01*
X18316Y-41638D02*
X17916Y-41638D01*
X17516Y-41638D02*
X17116Y-41638D01*
X17116Y-41638D02*
X17116Y-41038D01*
X17116Y-41038D02*
X17516Y-41038D01*
X18416Y-35133D02*
G75*
G03X18416Y-35133I-50J0D01*
G74*
G01*
X17916Y-35133D02*
X18316Y-35133D01*
X18316Y-35133D02*
X18316Y-35733D01*
X18316Y-35733D02*
X17916Y-35733D01*
X17516Y-35733D02*
X17116Y-35733D01*
X17116Y-35733D02*
X17116Y-35133D01*
X17116Y-35133D02*
X17516Y-35133D01*
X18416Y-46944D02*
G75*
G03X18416Y-46944I-50J0D01*
G74*
G01*
X17916Y-46944D02*
X18316Y-46944D01*
X18316Y-46944D02*
X18316Y-47544D01*
X18316Y-47544D02*
X17916Y-47544D01*
X17516Y-47544D02*
X17116Y-47544D01*
X17116Y-47544D02*
X17116Y-46944D01*
X17116Y-46944D02*
X17516Y-46944D01*
X25940Y-49862D02*
G75*
G03X25940Y-49862I-50J0D01*
G74*
G01*
X25890Y-49412D02*
X25890Y-49812D01*
X25890Y-49812D02*
X25290Y-49812D01*
X25290Y-49812D02*
X25290Y-49412D01*
X25290Y-49012D02*
X25290Y-48612D01*
X25290Y-48612D02*
X25890Y-48612D01*
X25890Y-48612D02*
X25890Y-49012D01*
X22003Y-49862D02*
G75*
G03X22003Y-49862I-50J0D01*
G74*
G01*
X21953Y-49412D02*
X21953Y-49812D01*
X21953Y-49812D02*
X21353Y-49812D01*
X21353Y-49812D02*
X21353Y-49412D01*
X21353Y-49012D02*
X21353Y-48612D01*
X21353Y-48612D02*
X21953Y-48612D01*
X21953Y-48612D02*
X21953Y-49012D01*
X29877Y-49862D02*
G75*
G03X29877Y-49862I-50J0D01*
G74*
G01*
X29827Y-49412D02*
X29827Y-49812D01*
X29827Y-49812D02*
X29227Y-49812D01*
X29227Y-49812D02*
X29227Y-49412D01*
X29227Y-49012D02*
X29227Y-48612D01*
X29227Y-48612D02*
X29827Y-48612D01*
X29827Y-48612D02*
X29827Y-49012D01*
X34164Y-41038D02*
G75*
G03X34164Y-41038I-50J0D01*
G74*
G01*
X33664Y-41038D02*
X34064Y-41038D01*
X34064Y-41038D02*
X34064Y-41638D01*
X34064Y-41638D02*
X33664Y-41638D01*
X33264Y-41638D02*
X32864Y-41638D01*
X32864Y-41638D02*
X32864Y-41038D01*
X32864Y-41038D02*
X33264Y-41038D01*
X49562Y-14429D02*
G75*
G03X49562Y-14429I-50J0D01*
G74*
G01*
X49512Y-13979D02*
X49512Y-14379D01*
X49512Y-14379D02*
X48912Y-14379D01*
X48912Y-14379D02*
X48912Y-13979D01*
X48912Y-13579D02*
X48912Y-13179D01*
X48912Y-13179D02*
X49512Y-13179D01*
X49512Y-13179D02*
X49512Y-13579D01*
X34164Y-35133D02*
G75*
G03X34164Y-35133I-50J0D01*
G74*
G01*
X33664Y-35133D02*
X34064Y-35133D01*
X34064Y-35133D02*
X34064Y-35733D01*
X34064Y-35733D02*
X33664Y-35733D01*
X33264Y-35733D02*
X32864Y-35733D01*
X32864Y-35733D02*
X32864Y-35133D01*
X32864Y-35133D02*
X33264Y-35133D01*
X34164Y-21353D02*
G75*
G03X34164Y-21353I-50J0D01*
G74*
G01*
X33664Y-21353D02*
X34064Y-21353D01*
X34064Y-21353D02*
X34064Y-21953D01*
X34064Y-21953D02*
X33664Y-21953D01*
X33264Y-21953D02*
X32864Y-21953D01*
X32864Y-21953D02*
X32864Y-21353D01*
X32864Y-21353D02*
X33264Y-21353D01*
X34164Y-27259D02*
G75*
G03X34164Y-27259I-50J0D01*
G74*
G01*
X33664Y-27259D02*
X34064Y-27259D01*
X34064Y-27259D02*
X34064Y-27859D01*
X34064Y-27859D02*
X33664Y-27859D01*
X33264Y-27859D02*
X32864Y-27859D01*
X32864Y-27859D02*
X32864Y-27259D01*
X32864Y-27259D02*
X33264Y-27259D01*
X34164Y-15448D02*
G75*
G03X34164Y-15448I-50J0D01*
G74*
G01*
X33664Y-15448D02*
X34064Y-15448D01*
X34064Y-15448D02*
X34064Y-16048D01*
X34064Y-16048D02*
X33664Y-16048D01*
X33264Y-16048D02*
X32864Y-16048D01*
X32864Y-16048D02*
X32864Y-15448D01*
X32864Y-15448D02*
X33264Y-15448D01*
X25940Y-14429D02*
G75*
G03X25940Y-14429I-50J0D01*
G74*
G01*
X25890Y-13979D02*
X25890Y-14379D01*
X25890Y-14379D02*
X25290Y-14379D01*
X25290Y-14379D02*
X25290Y-13979D01*
X25290Y-13579D02*
X25290Y-13179D01*
X25290Y-13179D02*
X25890Y-13179D01*
X25890Y-13179D02*
X25890Y-13579D01*
X22003Y-14429D02*
G75*
G03X22003Y-14429I-50J0D01*
G74*
G01*
X21953Y-13979D02*
X21953Y-14379D01*
X21953Y-14379D02*
X21353Y-14379D01*
X21353Y-14379D02*
X21353Y-13979D01*
X21353Y-13579D02*
X21353Y-13179D01*
X21353Y-13179D02*
X21953Y-13179D01*
X21953Y-13179D02*
X21953Y-13579D01*
X29877Y-14429D02*
G75*
G03X29877Y-14429I-50J0D01*
G74*
G01*
X29827Y-13979D02*
X29827Y-14379D01*
X29827Y-14379D02*
X29227Y-14379D01*
X29227Y-14379D02*
X29227Y-13979D01*
X29227Y-13579D02*
X29227Y-13179D01*
X29227Y-13179D02*
X29827Y-13179D01*
X29827Y-13179D02*
X29827Y-13579D01*
X25940Y-32146D02*
G75*
G03X25940Y-32146I-50J0D01*
G74*
G01*
X25890Y-31696D02*
X25890Y-32096D01*
X25890Y-32096D02*
X25290Y-32096D01*
X25290Y-32096D02*
X25290Y-31696D01*
X25290Y-31296D02*
X25290Y-30896D01*
X25290Y-30896D02*
X25890Y-30896D01*
X25890Y-30896D02*
X25890Y-31296D01*
X29877Y-32146D02*
G75*
G03X29877Y-32146I-50J0D01*
G74*
G01*
X29827Y-31696D02*
X29827Y-32096D01*
X29827Y-32096D02*
X29227Y-32096D01*
X29227Y-32096D02*
X29227Y-31696D01*
X29227Y-31296D02*
X29227Y-30896D01*
X29227Y-30896D02*
X29827Y-30896D01*
X29827Y-30896D02*
X29827Y-31296D01*
X45625Y-32146D02*
G75*
G03X45625Y-32146I-50J0D01*
G74*
G01*
X45575Y-31696D02*
X45575Y-32096D01*
X45575Y-32096D02*
X44975Y-32096D01*
X44975Y-32096D02*
X44975Y-31696D01*
X44975Y-31296D02*
X44975Y-30896D01*
X44975Y-30896D02*
X45575Y-30896D01*
X45575Y-30896D02*
X45575Y-31296D01*
X41688Y-14429D02*
G75*
G03X41688Y-14429I-50J0D01*
G74*
G01*
X41638Y-13979D02*
X41638Y-14379D01*
X41638Y-14379D02*
X41038Y-14379D01*
X41038Y-14379D02*
X41038Y-13979D01*
X41038Y-13579D02*
X41038Y-13179D01*
X41038Y-13179D02*
X41638Y-13179D01*
X41638Y-13179D02*
X41638Y-13579D01*
G54D14*
X28093Y-18450D02*
X28993Y-18450D01*
X28993Y-18450D02*
X28993Y-18950D01*
X28993Y-18950D02*
X28093Y-18950D01*
X28093Y-18950D02*
X28093Y-18450D01*
X43757Y-27809D02*
X42857Y-27809D01*
X42857Y-27809D02*
X42857Y-27309D01*
X42857Y-27309D02*
X43757Y-27309D01*
X43757Y-27309D02*
X43757Y-27809D01*
X44041Y-19150D02*
X44041Y-18250D01*
X44041Y-18250D02*
X44541Y-18250D01*
X44541Y-18250D02*
X44541Y-19150D01*
X44541Y-19150D02*
X44041Y-19150D01*
X22187Y-19435D02*
X23087Y-19435D01*
X23087Y-19435D02*
X23087Y-19935D01*
X23087Y-19935D02*
X22187Y-19935D01*
X22187Y-19935D02*
X22187Y-19435D01*
X47778Y-18450D02*
X48678Y-18450D01*
X48678Y-18450D02*
X48678Y-18950D01*
X48678Y-18950D02*
X47778Y-18950D01*
X47778Y-18950D02*
X47778Y-18450D01*
X47778Y-37151D02*
X48678Y-37151D01*
X48678Y-37151D02*
X48678Y-37651D01*
X48678Y-37651D02*
X47778Y-37651D01*
X47778Y-37651D02*
X47778Y-37151D01*
X22187Y-39120D02*
X23087Y-39120D01*
X23087Y-39120D02*
X23087Y-39620D01*
X23087Y-39620D02*
X22187Y-39620D01*
X22187Y-39620D02*
X22187Y-39120D01*
X43557Y-42857D02*
X43557Y-43757D01*
X43557Y-43757D02*
X43057Y-43757D01*
X43057Y-43757D02*
X43057Y-42857D01*
X43057Y-42857D02*
X43557Y-42857D01*
X42772Y-39620D02*
X41872Y-39620D01*
X41872Y-39620D02*
X41872Y-39120D01*
X41872Y-39120D02*
X42772Y-39120D01*
X42772Y-39120D02*
X42772Y-39620D01*
X23372Y-43757D02*
X23372Y-42857D01*
X23372Y-42857D02*
X23872Y-42857D01*
X23872Y-42857D02*
X23872Y-43757D01*
X23872Y-43757D02*
X23372Y-43757D01*
X42072Y-20135D02*
X42072Y-19235D01*
X42072Y-19235D02*
X42572Y-19235D01*
X42572Y-19235D02*
X42572Y-20135D01*
X42572Y-20135D02*
X42072Y-20135D01*
X28093Y-37151D02*
X28993Y-37151D01*
X28993Y-37151D02*
X28993Y-37651D01*
X28993Y-37651D02*
X28093Y-37651D01*
X28093Y-37651D02*
X28093Y-37151D01*
X24072Y-27809D02*
X23172Y-27809D01*
X23172Y-27809D02*
X23172Y-27309D01*
X23172Y-27309D02*
X24072Y-27309D01*
X24072Y-27309D02*
X24072Y-27809D01*
X24356Y-19150D02*
X24356Y-18250D01*
X24356Y-18250D02*
X24856Y-18250D01*
X24856Y-18250D02*
X24856Y-19150D01*
X24856Y-19150D02*
X24356Y-19150D01*
G54D16*
X54633Y-34496D02*
X53633Y-34496D01*
X53633Y-34496D02*
X53633Y-28496D01*
X53633Y-28496D02*
X54633Y-28496D01*
X54633Y-28496D02*
X54633Y-34496D01*
X54633Y-33496D02*
X53633Y-33496D01*
G54D15*
X43691Y-36717D02*
G75*
G03X43691Y-36717I-50J0D01*
G74*
G01*
X44091Y-36717D02*
X43691Y-36717D01*
X43691Y-36717D02*
X43691Y-36117D01*
X43691Y-36117D02*
X44091Y-36117D01*
X44491Y-36117D02*
X44891Y-36117D01*
X44891Y-36117D02*
X44891Y-36717D01*
X44891Y-36717D02*
X44491Y-36717D01*
X24006Y-36717D02*
G75*
G03X24006Y-36717I-50J0D01*
G74*
G01*
X24406Y-36717D02*
X24006Y-36717D01*
X24006Y-36717D02*
X24006Y-36117D01*
X24006Y-36117D02*
X24406Y-36117D01*
X24806Y-36117D02*
X25206Y-36117D01*
X25206Y-36117D02*
X25206Y-36717D01*
X25206Y-36717D02*
X24806Y-36717D01*
G54D17*
X18222Y-13385D02*
G75*
G03X18222Y-13385I-900J0D01*
G74*
G01*
X54443Y-13385D02*
G75*
G03X54443Y-13385I-900J0D01*
G74*
G01*
X54443Y-49606D02*
G75*
G03X54443Y-49606I-900J0D01*
G74*
G01*
X18222Y-49606D02*
G75*
G03X18222Y-49606I-900J0D01*
G74*
G01*
X36333Y-31496D02*
G75*
G03X36333Y-31496I-900J0D01*
G74*
G01*
G54D18*
X25057Y-34677D02*
X25381Y-34677D01*
X25419Y-34663D01*
X25438Y-34648D01*
X25457Y-34620D01*
X25457Y-34563D01*
X25438Y-34534D01*
X25419Y-34520D01*
X25381Y-34505D01*
X25057Y-34505D01*
X25457Y-34205D02*
X25457Y-34377D01*
X25457Y-34291D02*
X25057Y-34291D01*
X25114Y-34320D01*
X25152Y-34348D01*
X25171Y-34377D01*
X25706Y-35286D02*
X25706Y-35086D01*
X26006Y-35215D01*
X25806Y-34843D02*
X26006Y-34843D01*
X25692Y-34915D02*
X25906Y-34986D01*
X25906Y-34800D01*
X26006Y-34543D02*
X26006Y-34686D01*
X25706Y-34686D01*
X25992Y-34457D02*
X26006Y-34415D01*
X26006Y-34343D01*
X25992Y-34315D01*
X25978Y-34300D01*
X25949Y-34286D01*
X25921Y-34286D01*
X25892Y-34300D01*
X25878Y-34315D01*
X25864Y-34343D01*
X25849Y-34400D01*
X25835Y-34429D01*
X25821Y-34443D01*
X25792Y-34457D01*
X25764Y-34457D01*
X25735Y-34443D01*
X25721Y-34429D01*
X25706Y-34400D01*
X25706Y-34329D01*
X25721Y-34286D01*
X25706Y-34015D02*
X25706Y-34157D01*
X25849Y-34172D01*
X25835Y-34157D01*
X25821Y-34129D01*
X25821Y-34057D01*
X25835Y-34029D01*
X25849Y-34015D01*
X25878Y-34000D01*
X25949Y-34000D01*
X25978Y-34015D01*
X25992Y-34029D01*
X26006Y-34057D01*
X26006Y-34129D01*
X25992Y-34157D01*
X25978Y-34172D01*
X26006Y-33857D02*
X26006Y-33800D01*
X25992Y-33772D01*
X25978Y-33757D01*
X25935Y-33729D01*
X25878Y-33715D01*
X25764Y-33715D01*
X25735Y-33729D01*
X25721Y-33743D01*
X25706Y-33772D01*
X25706Y-33829D01*
X25721Y-33857D01*
X25735Y-33872D01*
X25764Y-33886D01*
X25835Y-33886D01*
X25864Y-33872D01*
X25878Y-33857D01*
X25892Y-33829D01*
X25892Y-33772D01*
X25878Y-33743D01*
X25864Y-33729D01*
X25835Y-33715D01*
X25706Y-33443D02*
X25706Y-33586D01*
X25849Y-33600D01*
X25835Y-33586D01*
X25821Y-33557D01*
X25821Y-33486D01*
X25835Y-33457D01*
X25849Y-33443D01*
X25878Y-33429D01*
X25949Y-33429D01*
X25978Y-33443D01*
X25992Y-33457D01*
X26006Y-33486D01*
X26006Y-33557D01*
X25992Y-33586D01*
X25978Y-33600D01*
X44742Y-34677D02*
X45066Y-34677D01*
X45104Y-34663D01*
X45123Y-34648D01*
X45142Y-34620D01*
X45142Y-34563D01*
X45123Y-34534D01*
X45104Y-34520D01*
X45066Y-34505D01*
X44742Y-34505D01*
X44780Y-34377D02*
X44761Y-34363D01*
X44742Y-34334D01*
X44742Y-34263D01*
X44761Y-34234D01*
X44780Y-34220D01*
X44818Y-34205D01*
X44856Y-34205D01*
X44913Y-34220D01*
X45142Y-34391D01*
X45142Y-34205D01*
X45392Y-35286D02*
X45392Y-35086D01*
X45692Y-35215D01*
X45492Y-34843D02*
X45692Y-34843D01*
X45377Y-34915D02*
X45592Y-34986D01*
X45592Y-34800D01*
X45692Y-34543D02*
X45692Y-34686D01*
X45392Y-34686D01*
X45677Y-34457D02*
X45692Y-34415D01*
X45692Y-34343D01*
X45677Y-34315D01*
X45663Y-34300D01*
X45634Y-34286D01*
X45606Y-34286D01*
X45577Y-34300D01*
X45563Y-34315D01*
X45549Y-34343D01*
X45534Y-34400D01*
X45520Y-34429D01*
X45506Y-34443D01*
X45477Y-34457D01*
X45449Y-34457D01*
X45420Y-34443D01*
X45406Y-34429D01*
X45392Y-34400D01*
X45392Y-34329D01*
X45406Y-34286D01*
X45392Y-34015D02*
X45392Y-34157D01*
X45534Y-34172D01*
X45520Y-34157D01*
X45506Y-34129D01*
X45506Y-34057D01*
X45520Y-34029D01*
X45534Y-34015D01*
X45563Y-34000D01*
X45634Y-34000D01*
X45663Y-34015D01*
X45677Y-34029D01*
X45692Y-34057D01*
X45692Y-34129D01*
X45677Y-34157D01*
X45663Y-34172D01*
X45692Y-33857D02*
X45692Y-33800D01*
X45677Y-33772D01*
X45663Y-33757D01*
X45620Y-33729D01*
X45563Y-33715D01*
X45449Y-33715D01*
X45420Y-33729D01*
X45406Y-33743D01*
X45392Y-33772D01*
X45392Y-33829D01*
X45406Y-33857D01*
X45420Y-33872D01*
X45449Y-33886D01*
X45520Y-33886D01*
X45549Y-33872D01*
X45563Y-33857D01*
X45577Y-33829D01*
X45577Y-33772D01*
X45563Y-33743D01*
X45549Y-33729D01*
X45520Y-33715D01*
X45392Y-33443D02*
X45392Y-33586D01*
X45534Y-33600D01*
X45520Y-33586D01*
X45506Y-33557D01*
X45506Y-33486D01*
X45520Y-33457D01*
X45534Y-33443D01*
X45563Y-33429D01*
X45634Y-33429D01*
X45663Y-33443D01*
X45677Y-33457D01*
X45692Y-33486D01*
X45692Y-33557D01*
X45677Y-33586D01*
X45663Y-33600D01*
G54D19*
X39302Y-18063D02*
X39273Y-18049D01*
X39245Y-18020D01*
X39202Y-17978D01*
X39173Y-17963D01*
X39145Y-17963D01*
X39159Y-18035D02*
X39131Y-18020D01*
X39102Y-17992D01*
X39088Y-17935D01*
X39088Y-17835D01*
X39102Y-17778D01*
X39131Y-17749D01*
X39159Y-17735D01*
X39216Y-17735D01*
X39245Y-17749D01*
X39273Y-17778D01*
X39288Y-17835D01*
X39288Y-17935D01*
X39273Y-17992D01*
X39245Y-18020D01*
X39216Y-18035D01*
X39159Y-18035D01*
X39402Y-17763D02*
X39416Y-17749D01*
X39445Y-17735D01*
X39516Y-17735D01*
X39545Y-17749D01*
X39559Y-17763D01*
X39573Y-17792D01*
X39573Y-17820D01*
X39559Y-17863D01*
X39388Y-18035D01*
X39573Y-18035D01*
G54D15*
X39449Y-19402D02*
X39252Y-19402D01*
X39393Y-19337D01*
X39252Y-19271D01*
X39449Y-19271D01*
X39449Y-19177D02*
X39252Y-19177D01*
X39393Y-19112D01*
X39252Y-19046D01*
X39449Y-19046D01*
X39346Y-18886D02*
X39356Y-18858D01*
X39365Y-18849D01*
X39384Y-18839D01*
X39412Y-18839D01*
X39431Y-18849D01*
X39440Y-18858D01*
X39449Y-18877D01*
X39449Y-18952D01*
X39252Y-18952D01*
X39252Y-18886D01*
X39262Y-18868D01*
X39271Y-18858D01*
X39290Y-18849D01*
X39309Y-18849D01*
X39327Y-18858D01*
X39337Y-18868D01*
X39346Y-18886D01*
X39346Y-18952D01*
X39252Y-18783D02*
X39252Y-18671D01*
X39449Y-18727D02*
X39252Y-18727D01*
X39252Y-18521D02*
X39252Y-18558D01*
X39262Y-18577D01*
X39271Y-18586D01*
X39299Y-18605D01*
X39337Y-18614D01*
X39412Y-18614D01*
X39431Y-18605D01*
X39440Y-18596D01*
X39449Y-18577D01*
X39449Y-18539D01*
X39440Y-18521D01*
X39431Y-18511D01*
X39412Y-18502D01*
X39365Y-18502D01*
X39346Y-18511D01*
X39337Y-18521D01*
X39327Y-18539D01*
X39327Y-18577D01*
X39337Y-18596D01*
X39346Y-18605D01*
X39365Y-18614D01*
X39318Y-18333D02*
X39449Y-18333D01*
X39243Y-18380D02*
X39384Y-18427D01*
X39384Y-18305D01*
X39271Y-18239D02*
X39262Y-18230D01*
X39252Y-18211D01*
X39252Y-18164D01*
X39262Y-18145D01*
X39271Y-18136D01*
X39290Y-18127D01*
X39309Y-18127D01*
X39337Y-18136D01*
X39449Y-18248D01*
X39449Y-18127D01*
X39252Y-18061D02*
X39252Y-17930D01*
X39449Y-18014D01*
G54D19*
X41685Y-29737D02*
X41671Y-29766D01*
X41642Y-29795D01*
X41600Y-29837D01*
X41585Y-29866D01*
X41585Y-29895D01*
X41657Y-29880D02*
X41642Y-29909D01*
X41614Y-29937D01*
X41557Y-29952D01*
X41457Y-29952D01*
X41400Y-29937D01*
X41371Y-29909D01*
X41357Y-29880D01*
X41357Y-29823D01*
X41371Y-29795D01*
X41400Y-29766D01*
X41457Y-29752D01*
X41557Y-29752D01*
X41614Y-29766D01*
X41642Y-29795D01*
X41657Y-29823D01*
X41657Y-29880D01*
X41657Y-29466D02*
X41657Y-29637D01*
X41657Y-29552D02*
X41357Y-29552D01*
X41400Y-29580D01*
X41428Y-29609D01*
X41442Y-29637D01*
X41457Y-29209D02*
X41657Y-29209D01*
X41342Y-29280D02*
X41557Y-29352D01*
X41557Y-29166D01*
G54D15*
X41570Y-29607D02*
X41570Y-29410D01*
X41636Y-29551D01*
X41702Y-29410D01*
X41702Y-29607D01*
X41795Y-29607D02*
X41795Y-29410D01*
X41861Y-29551D01*
X41927Y-29410D01*
X41927Y-29607D01*
X42086Y-29504D02*
X42114Y-29513D01*
X42124Y-29522D01*
X42133Y-29541D01*
X42133Y-29569D01*
X42124Y-29588D01*
X42114Y-29597D01*
X42096Y-29607D01*
X42021Y-29607D01*
X42021Y-29410D01*
X42086Y-29410D01*
X42105Y-29419D01*
X42114Y-29429D01*
X42124Y-29447D01*
X42124Y-29466D01*
X42114Y-29485D01*
X42105Y-29494D01*
X42086Y-29504D01*
X42021Y-29504D01*
X42189Y-29410D02*
X42302Y-29410D01*
X42246Y-29607D02*
X42246Y-29410D01*
X42452Y-29410D02*
X42415Y-29410D01*
X42396Y-29419D01*
X42386Y-29429D01*
X42368Y-29457D01*
X42358Y-29494D01*
X42358Y-29569D01*
X42368Y-29588D01*
X42377Y-29597D01*
X42396Y-29607D01*
X42433Y-29607D01*
X42452Y-29597D01*
X42462Y-29588D01*
X42471Y-29569D01*
X42471Y-29522D01*
X42462Y-29504D01*
X42452Y-29494D01*
X42433Y-29485D01*
X42396Y-29485D01*
X42377Y-29494D01*
X42368Y-29504D01*
X42358Y-29522D01*
X42640Y-29475D02*
X42640Y-29607D01*
X42593Y-29400D02*
X42546Y-29541D01*
X42668Y-29541D01*
X42734Y-29429D02*
X42743Y-29419D01*
X42762Y-29410D01*
X42809Y-29410D01*
X42827Y-29419D01*
X42837Y-29429D01*
X42846Y-29447D01*
X42846Y-29466D01*
X42837Y-29494D01*
X42724Y-29607D01*
X42846Y-29607D01*
X42912Y-29410D02*
X43043Y-29410D01*
X42959Y-29607D01*
G54D19*
X43259Y-15880D02*
X43245Y-15909D01*
X43216Y-15937D01*
X43174Y-15980D01*
X43159Y-16009D01*
X43159Y-16037D01*
X43231Y-16023D02*
X43216Y-16051D01*
X43188Y-16080D01*
X43131Y-16094D01*
X43031Y-16094D01*
X42974Y-16080D01*
X42945Y-16051D01*
X42931Y-16023D01*
X42931Y-15966D01*
X42945Y-15937D01*
X42974Y-15909D01*
X43031Y-15894D01*
X43131Y-15894D01*
X43188Y-15909D01*
X43216Y-15937D01*
X43231Y-15966D01*
X43231Y-16023D01*
X43231Y-15609D02*
X43231Y-15780D01*
X43231Y-15694D02*
X42931Y-15694D01*
X42974Y-15723D01*
X43002Y-15751D01*
X43016Y-15780D01*
X42959Y-15494D02*
X42945Y-15480D01*
X42931Y-15451D01*
X42931Y-15380D01*
X42945Y-15351D01*
X42959Y-15337D01*
X42988Y-15323D01*
X43016Y-15323D01*
X43059Y-15337D01*
X43231Y-15509D01*
X43231Y-15323D01*
G54D15*
X41620Y-15827D02*
X41620Y-15630D01*
X41686Y-15771D01*
X41752Y-15630D01*
X41752Y-15827D01*
X41845Y-15827D02*
X41845Y-15630D01*
X41911Y-15771D01*
X41977Y-15630D01*
X41977Y-15827D01*
X42136Y-15724D02*
X42164Y-15733D01*
X42174Y-15743D01*
X42183Y-15762D01*
X42183Y-15790D01*
X42174Y-15809D01*
X42164Y-15818D01*
X42146Y-15827D01*
X42071Y-15827D01*
X42071Y-15630D01*
X42136Y-15630D01*
X42155Y-15640D01*
X42164Y-15649D01*
X42174Y-15668D01*
X42174Y-15687D01*
X42164Y-15705D01*
X42155Y-15715D01*
X42136Y-15724D01*
X42071Y-15724D01*
X42239Y-15630D02*
X42352Y-15630D01*
X42296Y-15827D02*
X42296Y-15630D01*
X42502Y-15630D02*
X42465Y-15630D01*
X42446Y-15640D01*
X42436Y-15649D01*
X42418Y-15677D01*
X42408Y-15715D01*
X42408Y-15790D01*
X42418Y-15809D01*
X42427Y-15818D01*
X42446Y-15827D01*
X42483Y-15827D01*
X42502Y-15818D01*
X42512Y-15809D01*
X42521Y-15790D01*
X42521Y-15743D01*
X42512Y-15724D01*
X42502Y-15715D01*
X42483Y-15705D01*
X42446Y-15705D01*
X42427Y-15715D01*
X42418Y-15724D01*
X42408Y-15743D01*
X42690Y-15696D02*
X42690Y-15827D01*
X42643Y-15621D02*
X42596Y-15762D01*
X42718Y-15762D01*
X42784Y-15649D02*
X42793Y-15640D01*
X42812Y-15630D01*
X42859Y-15630D01*
X42877Y-15640D01*
X42887Y-15649D01*
X42896Y-15668D01*
X42896Y-15687D01*
X42887Y-15715D01*
X42774Y-15827D01*
X42896Y-15827D01*
X42962Y-15630D02*
X43093Y-15630D01*
X43009Y-15827D01*
G54D19*
X51048Y-19637D02*
X51020Y-19623D01*
X50991Y-19594D01*
X50948Y-19552D01*
X50920Y-19537D01*
X50891Y-19537D01*
X50905Y-19609D02*
X50877Y-19594D01*
X50848Y-19566D01*
X50834Y-19509D01*
X50834Y-19409D01*
X50848Y-19352D01*
X50877Y-19323D01*
X50905Y-19309D01*
X50962Y-19309D01*
X50991Y-19323D01*
X51020Y-19352D01*
X51034Y-19409D01*
X51034Y-19509D01*
X51020Y-19566D01*
X50991Y-19594D01*
X50962Y-19609D01*
X50905Y-19609D01*
X51320Y-19609D02*
X51148Y-19609D01*
X51234Y-19609D02*
X51234Y-19309D01*
X51205Y-19352D01*
X51177Y-19380D01*
X51148Y-19394D01*
X51505Y-19309D02*
X51534Y-19309D01*
X51562Y-19323D01*
X51577Y-19337D01*
X51591Y-19366D01*
X51605Y-19423D01*
X51605Y-19494D01*
X51591Y-19552D01*
X51577Y-19580D01*
X51562Y-19594D01*
X51534Y-19609D01*
X51505Y-19609D01*
X51477Y-19594D01*
X51462Y-19580D01*
X51448Y-19552D01*
X51434Y-19494D01*
X51434Y-19423D01*
X51448Y-19366D01*
X51462Y-19337D01*
X51477Y-19323D01*
X51505Y-19309D01*
G54D15*
X51260Y-19452D02*
X51063Y-19452D01*
X51204Y-19387D01*
X51063Y-19321D01*
X51260Y-19321D01*
X51260Y-19227D02*
X51063Y-19227D01*
X51204Y-19162D01*
X51063Y-19096D01*
X51260Y-19096D01*
X51157Y-18936D02*
X51167Y-18908D01*
X51176Y-18899D01*
X51195Y-18889D01*
X51223Y-18889D01*
X51242Y-18899D01*
X51251Y-18908D01*
X51260Y-18927D01*
X51260Y-19002D01*
X51063Y-19002D01*
X51063Y-18936D01*
X51073Y-18918D01*
X51082Y-18908D01*
X51101Y-18899D01*
X51120Y-18899D01*
X51138Y-18908D01*
X51148Y-18918D01*
X51157Y-18936D01*
X51157Y-19002D01*
X51063Y-18833D02*
X51063Y-18721D01*
X51260Y-18777D02*
X51063Y-18777D01*
X51063Y-18571D02*
X51063Y-18608D01*
X51073Y-18627D01*
X51082Y-18636D01*
X51110Y-18655D01*
X51148Y-18664D01*
X51223Y-18664D01*
X51242Y-18655D01*
X51251Y-18646D01*
X51260Y-18627D01*
X51260Y-18589D01*
X51251Y-18571D01*
X51242Y-18561D01*
X51223Y-18552D01*
X51176Y-18552D01*
X51157Y-18561D01*
X51148Y-18571D01*
X51138Y-18589D01*
X51138Y-18627D01*
X51148Y-18646D01*
X51157Y-18655D01*
X51176Y-18664D01*
X51129Y-18383D02*
X51260Y-18383D01*
X51054Y-18430D02*
X51195Y-18477D01*
X51195Y-18355D01*
X51082Y-18289D02*
X51073Y-18280D01*
X51063Y-18261D01*
X51063Y-18214D01*
X51073Y-18195D01*
X51082Y-18186D01*
X51101Y-18177D01*
X51120Y-18177D01*
X51148Y-18186D01*
X51260Y-18298D01*
X51260Y-18177D01*
X51063Y-18111D02*
X51063Y-17980D01*
X51260Y-18064D01*
G54D19*
X51191Y-39322D02*
X51162Y-39308D01*
X51134Y-39279D01*
X51091Y-39237D01*
X51062Y-39222D01*
X51034Y-39222D01*
X51048Y-39294D02*
X51020Y-39279D01*
X50991Y-39251D01*
X50977Y-39194D01*
X50977Y-39094D01*
X50991Y-39037D01*
X51020Y-39008D01*
X51048Y-38994D01*
X51105Y-38994D01*
X51134Y-39008D01*
X51162Y-39037D01*
X51177Y-39094D01*
X51177Y-39194D01*
X51162Y-39251D01*
X51134Y-39279D01*
X51105Y-39294D01*
X51048Y-39294D01*
X51348Y-39122D02*
X51320Y-39108D01*
X51305Y-39094D01*
X51291Y-39065D01*
X51291Y-39051D01*
X51305Y-39022D01*
X51320Y-39008D01*
X51348Y-38994D01*
X51405Y-38994D01*
X51434Y-39008D01*
X51448Y-39022D01*
X51462Y-39051D01*
X51462Y-39065D01*
X51448Y-39094D01*
X51434Y-39108D01*
X51405Y-39122D01*
X51348Y-39122D01*
X51320Y-39137D01*
X51305Y-39151D01*
X51291Y-39179D01*
X51291Y-39237D01*
X51305Y-39265D01*
X51320Y-39279D01*
X51348Y-39294D01*
X51405Y-39294D01*
X51434Y-39279D01*
X51448Y-39265D01*
X51462Y-39237D01*
X51462Y-39179D01*
X51448Y-39151D01*
X51434Y-39137D01*
X51405Y-39122D01*
G54D15*
X51260Y-39137D02*
X51063Y-39137D01*
X51204Y-39072D01*
X51063Y-39006D01*
X51260Y-39006D01*
X51260Y-38912D02*
X51063Y-38912D01*
X51204Y-38847D01*
X51063Y-38781D01*
X51260Y-38781D01*
X51157Y-38621D02*
X51167Y-38593D01*
X51176Y-38584D01*
X51195Y-38574D01*
X51223Y-38574D01*
X51242Y-38584D01*
X51251Y-38593D01*
X51260Y-38612D01*
X51260Y-38687D01*
X51063Y-38687D01*
X51063Y-38621D01*
X51073Y-38603D01*
X51082Y-38593D01*
X51101Y-38584D01*
X51120Y-38584D01*
X51138Y-38593D01*
X51148Y-38603D01*
X51157Y-38621D01*
X51157Y-38687D01*
X51063Y-38518D02*
X51063Y-38406D01*
X51260Y-38462D02*
X51063Y-38462D01*
X51063Y-38256D02*
X51063Y-38293D01*
X51073Y-38312D01*
X51082Y-38321D01*
X51110Y-38340D01*
X51148Y-38349D01*
X51223Y-38349D01*
X51242Y-38340D01*
X51251Y-38331D01*
X51260Y-38312D01*
X51260Y-38274D01*
X51251Y-38256D01*
X51242Y-38246D01*
X51223Y-38237D01*
X51176Y-38237D01*
X51157Y-38246D01*
X51148Y-38256D01*
X51138Y-38274D01*
X51138Y-38312D01*
X51148Y-38331D01*
X51157Y-38340D01*
X51176Y-38349D01*
X51129Y-38068D02*
X51260Y-38068D01*
X51054Y-38115D02*
X51195Y-38162D01*
X51195Y-38040D01*
X51082Y-37974D02*
X51073Y-37965D01*
X51063Y-37946D01*
X51063Y-37899D01*
X51073Y-37880D01*
X51082Y-37871D01*
X51101Y-37862D01*
X51120Y-37862D01*
X51148Y-37871D01*
X51260Y-37983D01*
X51260Y-37862D01*
X51063Y-37796D02*
X51063Y-37665D01*
X51260Y-37749D01*
G54D19*
X41685Y-46327D02*
X41671Y-46355D01*
X41642Y-46384D01*
X41600Y-46427D01*
X41585Y-46455D01*
X41585Y-46484D01*
X41657Y-46470D02*
X41642Y-46498D01*
X41614Y-46527D01*
X41557Y-46541D01*
X41457Y-46541D01*
X41400Y-46527D01*
X41371Y-46498D01*
X41357Y-46470D01*
X41357Y-46413D01*
X41371Y-46384D01*
X41400Y-46355D01*
X41457Y-46341D01*
X41557Y-46341D01*
X41614Y-46355D01*
X41642Y-46384D01*
X41657Y-46413D01*
X41657Y-46470D01*
X41357Y-46084D02*
X41357Y-46141D01*
X41371Y-46170D01*
X41385Y-46184D01*
X41428Y-46213D01*
X41485Y-46227D01*
X41600Y-46227D01*
X41628Y-46213D01*
X41642Y-46198D01*
X41657Y-46170D01*
X41657Y-46113D01*
X41642Y-46084D01*
X41628Y-46070D01*
X41600Y-46055D01*
X41528Y-46055D01*
X41500Y-46070D01*
X41485Y-46084D01*
X41471Y-46113D01*
X41471Y-46170D01*
X41485Y-46198D01*
X41500Y-46213D01*
X41528Y-46227D01*
G54D15*
X41570Y-46339D02*
X41570Y-46142D01*
X41636Y-46283D01*
X41702Y-46142D01*
X41702Y-46339D01*
X41795Y-46339D02*
X41795Y-46142D01*
X41861Y-46283D01*
X41927Y-46142D01*
X41927Y-46339D01*
X42086Y-46236D02*
X42114Y-46245D01*
X42124Y-46255D01*
X42133Y-46273D01*
X42133Y-46302D01*
X42124Y-46320D01*
X42114Y-46330D01*
X42096Y-46339D01*
X42021Y-46339D01*
X42021Y-46142D01*
X42086Y-46142D01*
X42105Y-46151D01*
X42114Y-46161D01*
X42124Y-46180D01*
X42124Y-46198D01*
X42114Y-46217D01*
X42105Y-46227D01*
X42086Y-46236D01*
X42021Y-46236D01*
X42189Y-46142D02*
X42302Y-46142D01*
X42246Y-46339D02*
X42246Y-46142D01*
X42452Y-46142D02*
X42415Y-46142D01*
X42396Y-46151D01*
X42386Y-46161D01*
X42368Y-46189D01*
X42358Y-46227D01*
X42358Y-46302D01*
X42368Y-46320D01*
X42377Y-46330D01*
X42396Y-46339D01*
X42433Y-46339D01*
X42452Y-46330D01*
X42462Y-46320D01*
X42471Y-46302D01*
X42471Y-46255D01*
X42462Y-46236D01*
X42452Y-46227D01*
X42433Y-46217D01*
X42396Y-46217D01*
X42377Y-46227D01*
X42368Y-46236D01*
X42358Y-46255D01*
X42640Y-46208D02*
X42640Y-46339D01*
X42593Y-46133D02*
X42546Y-46273D01*
X42668Y-46273D01*
X42734Y-46161D02*
X42743Y-46151D01*
X42762Y-46142D01*
X42809Y-46142D01*
X42827Y-46151D01*
X42837Y-46161D01*
X42846Y-46180D01*
X42846Y-46198D01*
X42837Y-46227D01*
X42724Y-46339D01*
X42846Y-46339D01*
X42912Y-46142D02*
X43043Y-46142D01*
X42959Y-46339D01*
G54D19*
X39302Y-37748D02*
X39273Y-37734D01*
X39245Y-37705D01*
X39202Y-37663D01*
X39173Y-37648D01*
X39145Y-37648D01*
X39159Y-37720D02*
X39131Y-37705D01*
X39102Y-37677D01*
X39088Y-37620D01*
X39088Y-37520D01*
X39102Y-37463D01*
X39131Y-37434D01*
X39159Y-37420D01*
X39216Y-37420D01*
X39245Y-37434D01*
X39273Y-37463D01*
X39288Y-37520D01*
X39288Y-37620D01*
X39273Y-37677D01*
X39245Y-37705D01*
X39216Y-37720D01*
X39159Y-37720D01*
X39545Y-37520D02*
X39545Y-37720D01*
X39473Y-37405D02*
X39402Y-37620D01*
X39588Y-37620D01*
G54D15*
X39449Y-39087D02*
X39252Y-39087D01*
X39393Y-39022D01*
X39252Y-38956D01*
X39449Y-38956D01*
X39449Y-38862D02*
X39252Y-38862D01*
X39393Y-38797D01*
X39252Y-38731D01*
X39449Y-38731D01*
X39346Y-38571D02*
X39356Y-38543D01*
X39365Y-38534D01*
X39384Y-38524D01*
X39412Y-38524D01*
X39431Y-38534D01*
X39440Y-38543D01*
X39449Y-38562D01*
X39449Y-38637D01*
X39252Y-38637D01*
X39252Y-38571D01*
X39262Y-38553D01*
X39271Y-38543D01*
X39290Y-38534D01*
X39309Y-38534D01*
X39327Y-38543D01*
X39337Y-38553D01*
X39346Y-38571D01*
X39346Y-38637D01*
X39252Y-38468D02*
X39252Y-38356D01*
X39449Y-38412D02*
X39252Y-38412D01*
X39252Y-38206D02*
X39252Y-38243D01*
X39262Y-38262D01*
X39271Y-38271D01*
X39299Y-38290D01*
X39337Y-38299D01*
X39412Y-38299D01*
X39431Y-38290D01*
X39440Y-38281D01*
X39449Y-38262D01*
X39449Y-38224D01*
X39440Y-38206D01*
X39431Y-38196D01*
X39412Y-38187D01*
X39365Y-38187D01*
X39346Y-38196D01*
X39337Y-38206D01*
X39327Y-38224D01*
X39327Y-38262D01*
X39337Y-38281D01*
X39346Y-38290D01*
X39365Y-38299D01*
X39318Y-38018D02*
X39449Y-38018D01*
X39243Y-38065D02*
X39384Y-38112D01*
X39384Y-37990D01*
X39271Y-37924D02*
X39262Y-37915D01*
X39252Y-37896D01*
X39252Y-37849D01*
X39262Y-37830D01*
X39271Y-37821D01*
X39290Y-37812D01*
X39309Y-37812D01*
X39337Y-37821D01*
X39449Y-37933D01*
X39449Y-37812D01*
X39252Y-37746D02*
X39252Y-37615D01*
X39449Y-37699D01*
G54D19*
X22000Y-29737D02*
X21986Y-29766D01*
X21957Y-29795D01*
X21915Y-29837D01*
X21900Y-29866D01*
X21900Y-29895D01*
X21972Y-29880D02*
X21957Y-29909D01*
X21929Y-29937D01*
X21872Y-29952D01*
X21772Y-29952D01*
X21715Y-29937D01*
X21686Y-29909D01*
X21672Y-29880D01*
X21672Y-29823D01*
X21686Y-29795D01*
X21715Y-29766D01*
X21772Y-29752D01*
X21872Y-29752D01*
X21929Y-29766D01*
X21957Y-29795D01*
X21972Y-29823D01*
X21972Y-29880D01*
X21972Y-29466D02*
X21972Y-29637D01*
X21972Y-29552D02*
X21672Y-29552D01*
X21715Y-29580D01*
X21743Y-29609D01*
X21757Y-29637D01*
X21672Y-29366D02*
X21672Y-29180D01*
X21786Y-29280D01*
X21786Y-29237D01*
X21800Y-29209D01*
X21815Y-29195D01*
X21843Y-29180D01*
X21915Y-29180D01*
X21943Y-29195D01*
X21957Y-29209D01*
X21972Y-29237D01*
X21972Y-29323D01*
X21957Y-29352D01*
X21943Y-29366D01*
G54D15*
X21885Y-29607D02*
X21885Y-29410D01*
X21951Y-29551D01*
X22017Y-29410D01*
X22017Y-29607D01*
X22110Y-29607D02*
X22110Y-29410D01*
X22176Y-29551D01*
X22242Y-29410D01*
X22242Y-29607D01*
X22401Y-29504D02*
X22429Y-29513D01*
X22439Y-29522D01*
X22448Y-29541D01*
X22448Y-29569D01*
X22439Y-29588D01*
X22429Y-29597D01*
X22411Y-29607D01*
X22336Y-29607D01*
X22336Y-29410D01*
X22401Y-29410D01*
X22420Y-29419D01*
X22429Y-29429D01*
X22439Y-29447D01*
X22439Y-29466D01*
X22429Y-29485D01*
X22420Y-29494D01*
X22401Y-29504D01*
X22336Y-29504D01*
X22504Y-29410D02*
X22617Y-29410D01*
X22561Y-29607D02*
X22561Y-29410D01*
X22767Y-29410D02*
X22730Y-29410D01*
X22711Y-29419D01*
X22701Y-29429D01*
X22683Y-29457D01*
X22673Y-29494D01*
X22673Y-29569D01*
X22683Y-29588D01*
X22692Y-29597D01*
X22711Y-29607D01*
X22748Y-29607D01*
X22767Y-29597D01*
X22776Y-29588D01*
X22786Y-29569D01*
X22786Y-29522D01*
X22776Y-29504D01*
X22767Y-29494D01*
X22748Y-29485D01*
X22711Y-29485D01*
X22692Y-29494D01*
X22683Y-29504D01*
X22673Y-29522D01*
X22955Y-29475D02*
X22955Y-29607D01*
X22908Y-29400D02*
X22861Y-29541D01*
X22983Y-29541D01*
X23049Y-29429D02*
X23058Y-29419D01*
X23077Y-29410D01*
X23124Y-29410D01*
X23142Y-29419D01*
X23152Y-29429D01*
X23161Y-29447D01*
X23161Y-29466D01*
X23152Y-29494D01*
X23039Y-29607D01*
X23161Y-29607D01*
X23227Y-29410D02*
X23358Y-29410D01*
X23274Y-29607D01*
G54D19*
X23574Y-15880D02*
X23560Y-15909D01*
X23531Y-15937D01*
X23489Y-15980D01*
X23474Y-16009D01*
X23474Y-16037D01*
X23546Y-16023D02*
X23531Y-16051D01*
X23503Y-16080D01*
X23446Y-16094D01*
X23346Y-16094D01*
X23289Y-16080D01*
X23260Y-16051D01*
X23246Y-16023D01*
X23246Y-15966D01*
X23260Y-15937D01*
X23289Y-15909D01*
X23346Y-15894D01*
X23446Y-15894D01*
X23503Y-15909D01*
X23531Y-15937D01*
X23546Y-15966D01*
X23546Y-16023D01*
X23546Y-15609D02*
X23546Y-15780D01*
X23546Y-15694D02*
X23246Y-15694D01*
X23289Y-15723D01*
X23317Y-15751D01*
X23331Y-15780D01*
X23546Y-15323D02*
X23546Y-15494D01*
X23546Y-15409D02*
X23246Y-15409D01*
X23289Y-15437D01*
X23317Y-15466D01*
X23331Y-15494D01*
G54D15*
X21935Y-15827D02*
X21935Y-15630D01*
X22001Y-15771D01*
X22067Y-15630D01*
X22067Y-15827D01*
X22160Y-15827D02*
X22160Y-15630D01*
X22226Y-15771D01*
X22292Y-15630D01*
X22292Y-15827D01*
X22451Y-15724D02*
X22479Y-15733D01*
X22489Y-15743D01*
X22498Y-15762D01*
X22498Y-15790D01*
X22489Y-15809D01*
X22479Y-15818D01*
X22461Y-15827D01*
X22386Y-15827D01*
X22386Y-15630D01*
X22451Y-15630D01*
X22470Y-15640D01*
X22479Y-15649D01*
X22489Y-15668D01*
X22489Y-15687D01*
X22479Y-15705D01*
X22470Y-15715D01*
X22451Y-15724D01*
X22386Y-15724D01*
X22554Y-15630D02*
X22667Y-15630D01*
X22611Y-15827D02*
X22611Y-15630D01*
X22817Y-15630D02*
X22780Y-15630D01*
X22761Y-15640D01*
X22751Y-15649D01*
X22733Y-15677D01*
X22723Y-15715D01*
X22723Y-15790D01*
X22733Y-15809D01*
X22742Y-15818D01*
X22761Y-15827D01*
X22798Y-15827D01*
X22817Y-15818D01*
X22826Y-15809D01*
X22836Y-15790D01*
X22836Y-15743D01*
X22826Y-15724D01*
X22817Y-15715D01*
X22798Y-15705D01*
X22761Y-15705D01*
X22742Y-15715D01*
X22733Y-15724D01*
X22723Y-15743D01*
X23005Y-15696D02*
X23005Y-15827D01*
X22958Y-15621D02*
X22911Y-15762D01*
X23033Y-15762D01*
X23099Y-15649D02*
X23108Y-15640D01*
X23127Y-15630D01*
X23174Y-15630D01*
X23192Y-15640D01*
X23202Y-15649D01*
X23211Y-15668D01*
X23211Y-15687D01*
X23202Y-15715D01*
X23089Y-15827D01*
X23211Y-15827D01*
X23277Y-15630D02*
X23408Y-15630D01*
X23324Y-15827D01*
G54D19*
X19617Y-18063D02*
X19588Y-18049D01*
X19560Y-18020D01*
X19517Y-17978D01*
X19488Y-17963D01*
X19460Y-17963D01*
X19474Y-18035D02*
X19446Y-18020D01*
X19417Y-17992D01*
X19403Y-17935D01*
X19403Y-17835D01*
X19417Y-17778D01*
X19446Y-17749D01*
X19474Y-17735D01*
X19531Y-17735D01*
X19560Y-17749D01*
X19588Y-17778D01*
X19603Y-17835D01*
X19603Y-17935D01*
X19588Y-17992D01*
X19560Y-18020D01*
X19531Y-18035D01*
X19474Y-18035D01*
X19888Y-18035D02*
X19717Y-18035D01*
X19803Y-18035D02*
X19803Y-17735D01*
X19774Y-17778D01*
X19746Y-17806D01*
X19717Y-17820D01*
G54D15*
X19764Y-19402D02*
X19567Y-19402D01*
X19708Y-19337D01*
X19567Y-19271D01*
X19764Y-19271D01*
X19764Y-19177D02*
X19567Y-19177D01*
X19708Y-19112D01*
X19567Y-19046D01*
X19764Y-19046D01*
X19661Y-18886D02*
X19670Y-18858D01*
X19680Y-18849D01*
X19699Y-18839D01*
X19727Y-18839D01*
X19746Y-18849D01*
X19755Y-18858D01*
X19764Y-18877D01*
X19764Y-18952D01*
X19567Y-18952D01*
X19567Y-18886D01*
X19577Y-18868D01*
X19586Y-18858D01*
X19605Y-18849D01*
X19624Y-18849D01*
X19642Y-18858D01*
X19652Y-18868D01*
X19661Y-18886D01*
X19661Y-18952D01*
X19567Y-18783D02*
X19567Y-18671D01*
X19764Y-18727D02*
X19567Y-18727D01*
X19567Y-18521D02*
X19567Y-18558D01*
X19577Y-18577D01*
X19586Y-18586D01*
X19614Y-18605D01*
X19652Y-18614D01*
X19727Y-18614D01*
X19746Y-18605D01*
X19755Y-18596D01*
X19764Y-18577D01*
X19764Y-18539D01*
X19755Y-18521D01*
X19746Y-18511D01*
X19727Y-18502D01*
X19680Y-18502D01*
X19661Y-18511D01*
X19652Y-18521D01*
X19642Y-18539D01*
X19642Y-18577D01*
X19652Y-18596D01*
X19661Y-18605D01*
X19680Y-18614D01*
X19633Y-18333D02*
X19764Y-18333D01*
X19558Y-18380D02*
X19699Y-18427D01*
X19699Y-18305D01*
X19586Y-18239D02*
X19577Y-18230D01*
X19567Y-18211D01*
X19567Y-18164D01*
X19577Y-18145D01*
X19586Y-18136D01*
X19605Y-18127D01*
X19624Y-18127D01*
X19652Y-18136D01*
X19764Y-18248D01*
X19764Y-18127D01*
X19567Y-18061D02*
X19567Y-17930D01*
X19764Y-18014D01*
G54D19*
X31506Y-19637D02*
X31477Y-19623D01*
X31449Y-19594D01*
X31406Y-19552D01*
X31377Y-19537D01*
X31349Y-19537D01*
X31363Y-19609D02*
X31335Y-19594D01*
X31306Y-19566D01*
X31292Y-19509D01*
X31292Y-19409D01*
X31306Y-19352D01*
X31335Y-19323D01*
X31363Y-19309D01*
X31420Y-19309D01*
X31449Y-19323D01*
X31477Y-19352D01*
X31492Y-19409D01*
X31492Y-19509D01*
X31477Y-19566D01*
X31449Y-19594D01*
X31420Y-19609D01*
X31363Y-19609D01*
X31635Y-19609D02*
X31692Y-19609D01*
X31720Y-19594D01*
X31735Y-19580D01*
X31763Y-19537D01*
X31777Y-19480D01*
X31777Y-19366D01*
X31763Y-19337D01*
X31749Y-19323D01*
X31720Y-19309D01*
X31663Y-19309D01*
X31635Y-19323D01*
X31620Y-19337D01*
X31606Y-19366D01*
X31606Y-19437D01*
X31620Y-19466D01*
X31635Y-19480D01*
X31663Y-19494D01*
X31720Y-19494D01*
X31749Y-19480D01*
X31763Y-19466D01*
X31777Y-19437D01*
G54D15*
X31575Y-19452D02*
X31378Y-19452D01*
X31519Y-19387D01*
X31378Y-19321D01*
X31575Y-19321D01*
X31575Y-19227D02*
X31378Y-19227D01*
X31519Y-19162D01*
X31378Y-19096D01*
X31575Y-19096D01*
X31472Y-18936D02*
X31481Y-18908D01*
X31491Y-18899D01*
X31510Y-18889D01*
X31538Y-18889D01*
X31557Y-18899D01*
X31566Y-18908D01*
X31575Y-18927D01*
X31575Y-19002D01*
X31378Y-19002D01*
X31378Y-18936D01*
X31388Y-18918D01*
X31397Y-18908D01*
X31416Y-18899D01*
X31435Y-18899D01*
X31453Y-18908D01*
X31463Y-18918D01*
X31472Y-18936D01*
X31472Y-19002D01*
X31378Y-18833D02*
X31378Y-18721D01*
X31575Y-18777D02*
X31378Y-18777D01*
X31378Y-18571D02*
X31378Y-18608D01*
X31388Y-18627D01*
X31397Y-18636D01*
X31425Y-18655D01*
X31463Y-18664D01*
X31538Y-18664D01*
X31557Y-18655D01*
X31566Y-18646D01*
X31575Y-18627D01*
X31575Y-18589D01*
X31566Y-18571D01*
X31557Y-18561D01*
X31538Y-18552D01*
X31491Y-18552D01*
X31472Y-18561D01*
X31463Y-18571D01*
X31453Y-18589D01*
X31453Y-18627D01*
X31463Y-18646D01*
X31472Y-18655D01*
X31491Y-18664D01*
X31444Y-18383D02*
X31575Y-18383D01*
X31369Y-18430D02*
X31510Y-18477D01*
X31510Y-18355D01*
X31397Y-18289D02*
X31388Y-18280D01*
X31378Y-18261D01*
X31378Y-18214D01*
X31388Y-18195D01*
X31397Y-18186D01*
X31416Y-18177D01*
X31435Y-18177D01*
X31463Y-18186D01*
X31575Y-18298D01*
X31575Y-18177D01*
X31378Y-18111D02*
X31378Y-17980D01*
X31575Y-18064D01*
G54D19*
X22000Y-46327D02*
X21986Y-46355D01*
X21957Y-46384D01*
X21915Y-46427D01*
X21900Y-46455D01*
X21900Y-46484D01*
X21972Y-46470D02*
X21957Y-46498D01*
X21929Y-46527D01*
X21872Y-46541D01*
X21772Y-46541D01*
X21715Y-46527D01*
X21686Y-46498D01*
X21672Y-46470D01*
X21672Y-46413D01*
X21686Y-46384D01*
X21715Y-46355D01*
X21772Y-46341D01*
X21872Y-46341D01*
X21929Y-46355D01*
X21957Y-46384D01*
X21972Y-46413D01*
X21972Y-46470D01*
X21672Y-46070D02*
X21672Y-46213D01*
X21815Y-46227D01*
X21800Y-46213D01*
X21786Y-46184D01*
X21786Y-46113D01*
X21800Y-46084D01*
X21815Y-46070D01*
X21843Y-46055D01*
X21915Y-46055D01*
X21943Y-46070D01*
X21957Y-46084D01*
X21972Y-46113D01*
X21972Y-46184D01*
X21957Y-46213D01*
X21943Y-46227D01*
G54D15*
X21885Y-46339D02*
X21885Y-46142D01*
X21951Y-46283D01*
X22017Y-46142D01*
X22017Y-46339D01*
X22110Y-46339D02*
X22110Y-46142D01*
X22176Y-46283D01*
X22242Y-46142D01*
X22242Y-46339D01*
X22401Y-46236D02*
X22429Y-46245D01*
X22439Y-46255D01*
X22448Y-46273D01*
X22448Y-46302D01*
X22439Y-46320D01*
X22429Y-46330D01*
X22411Y-46339D01*
X22336Y-46339D01*
X22336Y-46142D01*
X22401Y-46142D01*
X22420Y-46151D01*
X22429Y-46161D01*
X22439Y-46180D01*
X22439Y-46198D01*
X22429Y-46217D01*
X22420Y-46227D01*
X22401Y-46236D01*
X22336Y-46236D01*
X22504Y-46142D02*
X22617Y-46142D01*
X22561Y-46339D02*
X22561Y-46142D01*
X22767Y-46142D02*
X22730Y-46142D01*
X22711Y-46151D01*
X22701Y-46161D01*
X22683Y-46189D01*
X22673Y-46227D01*
X22673Y-46302D01*
X22683Y-46320D01*
X22692Y-46330D01*
X22711Y-46339D01*
X22748Y-46339D01*
X22767Y-46330D01*
X22776Y-46320D01*
X22786Y-46302D01*
X22786Y-46255D01*
X22776Y-46236D01*
X22767Y-46227D01*
X22748Y-46217D01*
X22711Y-46217D01*
X22692Y-46227D01*
X22683Y-46236D01*
X22673Y-46255D01*
X22955Y-46208D02*
X22955Y-46339D01*
X22908Y-46133D02*
X22861Y-46273D01*
X22983Y-46273D01*
X23049Y-46161D02*
X23058Y-46151D01*
X23077Y-46142D01*
X23124Y-46142D01*
X23142Y-46151D01*
X23152Y-46161D01*
X23161Y-46180D01*
X23161Y-46198D01*
X23152Y-46227D01*
X23039Y-46339D01*
X23161Y-46339D01*
X23227Y-46142D02*
X23358Y-46142D01*
X23274Y-46339D01*
G54D19*
X19617Y-37748D02*
X19588Y-37734D01*
X19560Y-37705D01*
X19517Y-37663D01*
X19488Y-37648D01*
X19460Y-37648D01*
X19474Y-37720D02*
X19446Y-37705D01*
X19417Y-37677D01*
X19403Y-37620D01*
X19403Y-37520D01*
X19417Y-37463D01*
X19446Y-37434D01*
X19474Y-37420D01*
X19531Y-37420D01*
X19560Y-37434D01*
X19588Y-37463D01*
X19603Y-37520D01*
X19603Y-37620D01*
X19588Y-37677D01*
X19560Y-37705D01*
X19531Y-37720D01*
X19474Y-37720D01*
X19703Y-37420D02*
X19888Y-37420D01*
X19788Y-37534D01*
X19831Y-37534D01*
X19860Y-37548D01*
X19874Y-37563D01*
X19888Y-37591D01*
X19888Y-37663D01*
X19874Y-37691D01*
X19860Y-37705D01*
X19831Y-37720D01*
X19746Y-37720D01*
X19717Y-37705D01*
X19703Y-37691D01*
G54D15*
X19764Y-39087D02*
X19567Y-39087D01*
X19708Y-39022D01*
X19567Y-38956D01*
X19764Y-38956D01*
X19764Y-38862D02*
X19567Y-38862D01*
X19708Y-38797D01*
X19567Y-38731D01*
X19764Y-38731D01*
X19661Y-38571D02*
X19670Y-38543D01*
X19680Y-38534D01*
X19699Y-38524D01*
X19727Y-38524D01*
X19746Y-38534D01*
X19755Y-38543D01*
X19764Y-38562D01*
X19764Y-38637D01*
X19567Y-38637D01*
X19567Y-38571D01*
X19577Y-38553D01*
X19586Y-38543D01*
X19605Y-38534D01*
X19624Y-38534D01*
X19642Y-38543D01*
X19652Y-38553D01*
X19661Y-38571D01*
X19661Y-38637D01*
X19567Y-38468D02*
X19567Y-38356D01*
X19764Y-38412D02*
X19567Y-38412D01*
X19567Y-38206D02*
X19567Y-38243D01*
X19577Y-38262D01*
X19586Y-38271D01*
X19614Y-38290D01*
X19652Y-38299D01*
X19727Y-38299D01*
X19746Y-38290D01*
X19755Y-38281D01*
X19764Y-38262D01*
X19764Y-38224D01*
X19755Y-38206D01*
X19746Y-38196D01*
X19727Y-38187D01*
X19680Y-38187D01*
X19661Y-38196D01*
X19652Y-38206D01*
X19642Y-38224D01*
X19642Y-38262D01*
X19652Y-38281D01*
X19661Y-38290D01*
X19680Y-38299D01*
X19633Y-38018D02*
X19764Y-38018D01*
X19558Y-38065D02*
X19699Y-38112D01*
X19699Y-37990D01*
X19586Y-37924D02*
X19577Y-37915D01*
X19567Y-37896D01*
X19567Y-37849D01*
X19577Y-37830D01*
X19586Y-37821D01*
X19605Y-37812D01*
X19624Y-37812D01*
X19652Y-37821D01*
X19764Y-37933D01*
X19764Y-37812D01*
X19567Y-37746D02*
X19567Y-37615D01*
X19764Y-37699D01*
G54D19*
X31506Y-39322D02*
X31477Y-39308D01*
X31449Y-39279D01*
X31406Y-39237D01*
X31377Y-39222D01*
X31349Y-39222D01*
X31363Y-39294D02*
X31335Y-39279D01*
X31306Y-39251D01*
X31292Y-39194D01*
X31292Y-39094D01*
X31306Y-39037D01*
X31335Y-39008D01*
X31363Y-38994D01*
X31420Y-38994D01*
X31449Y-39008D01*
X31477Y-39037D01*
X31492Y-39094D01*
X31492Y-39194D01*
X31477Y-39251D01*
X31449Y-39279D01*
X31420Y-39294D01*
X31363Y-39294D01*
X31592Y-38994D02*
X31792Y-38994D01*
X31663Y-39294D01*
G54D15*
X31575Y-39137D02*
X31378Y-39137D01*
X31519Y-39072D01*
X31378Y-39006D01*
X31575Y-39006D01*
X31575Y-38912D02*
X31378Y-38912D01*
X31519Y-38847D01*
X31378Y-38781D01*
X31575Y-38781D01*
X31472Y-38621D02*
X31481Y-38593D01*
X31491Y-38584D01*
X31510Y-38574D01*
X31538Y-38574D01*
X31557Y-38584D01*
X31566Y-38593D01*
X31575Y-38612D01*
X31575Y-38687D01*
X31378Y-38687D01*
X31378Y-38621D01*
X31388Y-38603D01*
X31397Y-38593D01*
X31416Y-38584D01*
X31435Y-38584D01*
X31453Y-38593D01*
X31463Y-38603D01*
X31472Y-38621D01*
X31472Y-38687D01*
X31378Y-38518D02*
X31378Y-38406D01*
X31575Y-38462D02*
X31378Y-38462D01*
X31378Y-38256D02*
X31378Y-38293D01*
X31388Y-38312D01*
X31397Y-38321D01*
X31425Y-38340D01*
X31463Y-38349D01*
X31538Y-38349D01*
X31557Y-38340D01*
X31566Y-38331D01*
X31575Y-38312D01*
X31575Y-38274D01*
X31566Y-38256D01*
X31557Y-38246D01*
X31538Y-38237D01*
X31491Y-38237D01*
X31472Y-38246D01*
X31463Y-38256D01*
X31453Y-38274D01*
X31453Y-38312D01*
X31463Y-38331D01*
X31472Y-38340D01*
X31491Y-38349D01*
X31444Y-38068D02*
X31575Y-38068D01*
X31369Y-38115D02*
X31510Y-38162D01*
X31510Y-38040D01*
X31397Y-37974D02*
X31388Y-37965D01*
X31378Y-37946D01*
X31378Y-37899D01*
X31388Y-37880D01*
X31397Y-37871D01*
X31416Y-37862D01*
X31435Y-37862D01*
X31463Y-37871D01*
X31575Y-37983D01*
X31575Y-37862D01*
X31378Y-37796D02*
X31378Y-37665D01*
X31575Y-37749D01*
G54D14*
X25397Y-29648D02*
X25297Y-29506D01*
X25226Y-29648D02*
X25226Y-29348D01*
X25340Y-29348D01*
X25369Y-29363D01*
X25383Y-29377D01*
X25397Y-29406D01*
X25397Y-29448D01*
X25383Y-29477D01*
X25369Y-29491D01*
X25340Y-29506D01*
X25226Y-29506D01*
X25511Y-29377D02*
X25526Y-29363D01*
X25554Y-29348D01*
X25626Y-29348D01*
X25654Y-29363D01*
X25669Y-29377D01*
X25683Y-29406D01*
X25683Y-29434D01*
X25669Y-29477D01*
X25497Y-29648D01*
X25683Y-29648D01*
X25783Y-29348D02*
X25983Y-29348D01*
X25854Y-29648D01*
X51302Y-41531D02*
X51159Y-41631D01*
X51302Y-41702D02*
X51002Y-41702D01*
X51002Y-41588D01*
X51016Y-41560D01*
X51031Y-41545D01*
X51059Y-41531D01*
X51102Y-41531D01*
X51131Y-41545D01*
X51145Y-41560D01*
X51159Y-41588D01*
X51159Y-41702D01*
X51302Y-41245D02*
X51302Y-41417D01*
X51302Y-41331D02*
X51002Y-41331D01*
X51045Y-41360D01*
X51073Y-41388D01*
X51088Y-41417D01*
X51002Y-40988D02*
X51002Y-41045D01*
X51016Y-41074D01*
X51031Y-41088D01*
X51073Y-41117D01*
X51131Y-41131D01*
X51245Y-41131D01*
X51273Y-41117D01*
X51288Y-41102D01*
X51302Y-41074D01*
X51302Y-41017D01*
X51288Y-40988D01*
X51273Y-40974D01*
X51245Y-40960D01*
X51173Y-40960D01*
X51145Y-40974D01*
X51131Y-40988D01*
X51116Y-41017D01*
X51116Y-41074D01*
X51131Y-41102D01*
X51145Y-41117D01*
X51173Y-41131D01*
X51302Y-21846D02*
X51159Y-21946D01*
X51302Y-22017D02*
X51002Y-22017D01*
X51002Y-21903D01*
X51016Y-21874D01*
X51031Y-21860D01*
X51059Y-21846D01*
X51102Y-21846D01*
X51131Y-21860D01*
X51145Y-21874D01*
X51159Y-21903D01*
X51159Y-22017D01*
X51031Y-21732D02*
X51016Y-21717D01*
X51002Y-21689D01*
X51002Y-21617D01*
X51016Y-21589D01*
X51031Y-21574D01*
X51059Y-21560D01*
X51088Y-21560D01*
X51131Y-21574D01*
X51302Y-21746D01*
X51302Y-21560D01*
X51002Y-21374D02*
X51002Y-21346D01*
X51016Y-21317D01*
X51031Y-21303D01*
X51059Y-21289D01*
X51116Y-21274D01*
X51188Y-21274D01*
X51245Y-21289D01*
X51273Y-21303D01*
X51288Y-21317D01*
X51302Y-21346D01*
X51302Y-21374D01*
X51288Y-21403D01*
X51273Y-21417D01*
X51245Y-21432D01*
X51188Y-21446D01*
X51116Y-21446D01*
X51059Y-21432D01*
X51031Y-21417D01*
X51016Y-21403D01*
X51002Y-21374D01*
X45082Y-15869D02*
X44982Y-15726D01*
X44911Y-15869D02*
X44911Y-15569D01*
X45025Y-15569D01*
X45054Y-15583D01*
X45068Y-15598D01*
X45082Y-15626D01*
X45082Y-15669D01*
X45068Y-15698D01*
X45054Y-15712D01*
X45025Y-15726D01*
X44911Y-15726D01*
X45197Y-15598D02*
X45211Y-15583D01*
X45239Y-15569D01*
X45311Y-15569D01*
X45339Y-15583D01*
X45354Y-15598D01*
X45368Y-15626D01*
X45368Y-15655D01*
X45354Y-15698D01*
X45182Y-15869D01*
X45368Y-15869D01*
X45625Y-15669D02*
X45625Y-15869D01*
X45554Y-15555D02*
X45482Y-15769D01*
X45668Y-15769D01*
X45082Y-29648D02*
X44982Y-29506D01*
X44911Y-29648D02*
X44911Y-29348D01*
X45025Y-29348D01*
X45054Y-29363D01*
X45068Y-29377D01*
X45082Y-29406D01*
X45082Y-29448D01*
X45068Y-29477D01*
X45054Y-29491D01*
X45025Y-29506D01*
X44911Y-29506D01*
X45197Y-29377D02*
X45211Y-29363D01*
X45239Y-29348D01*
X45311Y-29348D01*
X45339Y-29363D01*
X45354Y-29377D01*
X45368Y-29406D01*
X45368Y-29434D01*
X45354Y-29477D01*
X45182Y-29648D01*
X45368Y-29648D01*
X45539Y-29477D02*
X45511Y-29463D01*
X45497Y-29448D01*
X45482Y-29420D01*
X45482Y-29406D01*
X45497Y-29377D01*
X45511Y-29363D01*
X45539Y-29348D01*
X45597Y-29348D01*
X45625Y-29363D01*
X45639Y-29377D01*
X45654Y-29406D01*
X45654Y-29420D01*
X45639Y-29448D01*
X45625Y-29463D01*
X45597Y-29477D01*
X45539Y-29477D01*
X45511Y-29491D01*
X45497Y-29506D01*
X45482Y-29534D01*
X45482Y-29591D01*
X45497Y-29620D01*
X45511Y-29634D01*
X45539Y-29648D01*
X45597Y-29648D01*
X45625Y-29634D01*
X45639Y-29620D01*
X45654Y-29591D01*
X45654Y-29534D01*
X45639Y-29506D01*
X45625Y-29491D01*
X45597Y-29477D01*
X45082Y-47365D02*
X44982Y-47222D01*
X44911Y-47365D02*
X44911Y-47065D01*
X45025Y-47065D01*
X45054Y-47079D01*
X45068Y-47094D01*
X45082Y-47122D01*
X45082Y-47165D01*
X45068Y-47194D01*
X45054Y-47208D01*
X45025Y-47222D01*
X44911Y-47222D01*
X45368Y-47365D02*
X45197Y-47365D01*
X45282Y-47365D02*
X45282Y-47065D01*
X45254Y-47108D01*
X45225Y-47136D01*
X45197Y-47151D01*
X45482Y-47094D02*
X45497Y-47079D01*
X45525Y-47065D01*
X45597Y-47065D01*
X45625Y-47079D01*
X45639Y-47094D01*
X45654Y-47122D01*
X45654Y-47151D01*
X45639Y-47194D01*
X45468Y-47365D01*
X45654Y-47365D01*
X39491Y-41388D02*
X39348Y-41488D01*
X39491Y-41560D02*
X39191Y-41560D01*
X39191Y-41445D01*
X39205Y-41417D01*
X39220Y-41402D01*
X39248Y-41388D01*
X39291Y-41388D01*
X39320Y-41402D01*
X39334Y-41417D01*
X39348Y-41445D01*
X39348Y-41560D01*
X39320Y-41217D02*
X39305Y-41245D01*
X39291Y-41260D01*
X39262Y-41274D01*
X39248Y-41274D01*
X39220Y-41260D01*
X39205Y-41245D01*
X39191Y-41217D01*
X39191Y-41160D01*
X39205Y-41131D01*
X39220Y-41117D01*
X39248Y-41102D01*
X39262Y-41102D01*
X39291Y-41117D01*
X39305Y-41131D01*
X39320Y-41160D01*
X39320Y-41217D01*
X39334Y-41245D01*
X39348Y-41260D01*
X39377Y-41274D01*
X39434Y-41274D01*
X39462Y-41260D01*
X39477Y-41245D01*
X39491Y-41217D01*
X39491Y-41160D01*
X39477Y-41131D01*
X39462Y-41117D01*
X39434Y-41102D01*
X39377Y-41102D01*
X39348Y-41117D01*
X39334Y-41131D01*
X39320Y-41160D01*
X39491Y-21703D02*
X39348Y-21803D01*
X39491Y-21874D02*
X39191Y-21874D01*
X39191Y-21760D01*
X39205Y-21732D01*
X39220Y-21717D01*
X39248Y-21703D01*
X39291Y-21703D01*
X39320Y-21717D01*
X39334Y-21732D01*
X39348Y-21760D01*
X39348Y-21874D01*
X39291Y-21446D02*
X39491Y-21446D01*
X39177Y-21517D02*
X39391Y-21589D01*
X39391Y-21403D01*
X25397Y-15869D02*
X25297Y-15726D01*
X25226Y-15869D02*
X25226Y-15569D01*
X25340Y-15569D01*
X25369Y-15583D01*
X25383Y-15598D01*
X25397Y-15626D01*
X25397Y-15669D01*
X25383Y-15698D01*
X25369Y-15712D01*
X25340Y-15726D01*
X25226Y-15726D01*
X25511Y-15598D02*
X25526Y-15583D01*
X25554Y-15569D01*
X25626Y-15569D01*
X25654Y-15583D01*
X25669Y-15598D01*
X25683Y-15626D01*
X25683Y-15655D01*
X25669Y-15698D01*
X25497Y-15869D01*
X25683Y-15869D01*
X25783Y-15569D02*
X25969Y-15569D01*
X25869Y-15683D01*
X25911Y-15683D01*
X25940Y-15698D01*
X25954Y-15712D01*
X25969Y-15740D01*
X25969Y-15812D01*
X25954Y-15840D01*
X25940Y-15855D01*
X25911Y-15869D01*
X25826Y-15869D01*
X25797Y-15855D01*
X25783Y-15840D01*
X31617Y-21846D02*
X31474Y-21946D01*
X31617Y-22017D02*
X31317Y-22017D01*
X31317Y-21903D01*
X31331Y-21874D01*
X31346Y-21860D01*
X31374Y-21846D01*
X31417Y-21846D01*
X31446Y-21860D01*
X31460Y-21874D01*
X31474Y-21903D01*
X31474Y-22017D01*
X31617Y-21560D02*
X31617Y-21732D01*
X31617Y-21646D02*
X31317Y-21646D01*
X31360Y-21674D01*
X31388Y-21703D01*
X31403Y-21732D01*
X31617Y-21417D02*
X31617Y-21360D01*
X31603Y-21332D01*
X31588Y-21317D01*
X31546Y-21289D01*
X31488Y-21274D01*
X31374Y-21274D01*
X31346Y-21289D01*
X31331Y-21303D01*
X31317Y-21332D01*
X31317Y-21389D01*
X31331Y-21417D01*
X31346Y-21432D01*
X31374Y-21446D01*
X31446Y-21446D01*
X31474Y-21432D01*
X31488Y-21417D01*
X31503Y-21389D01*
X31503Y-21332D01*
X31488Y-21303D01*
X31474Y-21289D01*
X31446Y-21274D01*
X31617Y-41531D02*
X31474Y-41631D01*
X31617Y-41702D02*
X31317Y-41702D01*
X31317Y-41588D01*
X31331Y-41560D01*
X31346Y-41545D01*
X31374Y-41531D01*
X31417Y-41531D01*
X31446Y-41545D01*
X31460Y-41560D01*
X31474Y-41588D01*
X31474Y-41702D01*
X31617Y-41245D02*
X31617Y-41417D01*
X31617Y-41331D02*
X31317Y-41331D01*
X31360Y-41360D01*
X31388Y-41388D01*
X31403Y-41417D01*
X31317Y-40974D02*
X31317Y-41117D01*
X31460Y-41131D01*
X31446Y-41117D01*
X31431Y-41088D01*
X31431Y-41017D01*
X31446Y-40988D01*
X31460Y-40974D01*
X31488Y-40960D01*
X31560Y-40960D01*
X31588Y-40974D01*
X31603Y-40988D01*
X31617Y-41017D01*
X31617Y-41088D01*
X31603Y-41117D01*
X31588Y-41131D01*
X25397Y-47365D02*
X25297Y-47222D01*
X25226Y-47365D02*
X25226Y-47065D01*
X25340Y-47065D01*
X25369Y-47079D01*
X25383Y-47094D01*
X25397Y-47122D01*
X25397Y-47165D01*
X25383Y-47194D01*
X25369Y-47208D01*
X25340Y-47222D01*
X25226Y-47222D01*
X25683Y-47365D02*
X25511Y-47365D01*
X25597Y-47365D02*
X25597Y-47065D01*
X25569Y-47108D01*
X25540Y-47136D01*
X25511Y-47151D01*
X25969Y-47365D02*
X25797Y-47365D01*
X25883Y-47365D02*
X25883Y-47065D01*
X25854Y-47108D01*
X25826Y-47136D01*
X25797Y-47151D01*
X19806Y-41388D02*
X19663Y-41488D01*
X19806Y-41560D02*
X19506Y-41560D01*
X19506Y-41445D01*
X19520Y-41417D01*
X19535Y-41402D01*
X19563Y-41388D01*
X19606Y-41388D01*
X19635Y-41402D01*
X19649Y-41417D01*
X19663Y-41445D01*
X19663Y-41560D01*
X19506Y-41288D02*
X19506Y-41088D01*
X19806Y-41217D01*
X19806Y-21703D02*
X19663Y-21803D01*
X19806Y-21874D02*
X19506Y-21874D01*
X19506Y-21760D01*
X19520Y-21732D01*
X19535Y-21717D01*
X19563Y-21703D01*
X19606Y-21703D01*
X19635Y-21717D01*
X19649Y-21732D01*
X19663Y-21760D01*
X19663Y-21874D01*
X19506Y-21603D02*
X19506Y-21417D01*
X19620Y-21517D01*
X19620Y-21474D01*
X19635Y-21446D01*
X19649Y-21432D01*
X19677Y-21417D01*
X19749Y-21417D01*
X19777Y-21432D01*
X19792Y-21446D01*
X19806Y-21474D01*
X19806Y-21560D01*
X19792Y-21589D01*
X19777Y-21603D01*
G54D20*
X52910Y-35637D02*
X52910Y-35440D01*
X52957Y-35440D01*
X52985Y-35450D01*
X53004Y-35468D01*
X53013Y-35487D01*
X53022Y-35525D01*
X53022Y-35553D01*
X53013Y-35590D01*
X53004Y-35609D01*
X52985Y-35628D01*
X52957Y-35637D01*
X52910Y-35637D01*
X53098Y-35459D02*
X53107Y-35450D01*
X53126Y-35440D01*
X53173Y-35440D01*
X53191Y-35450D01*
X53201Y-35459D01*
X53210Y-35478D01*
X53210Y-35497D01*
X53201Y-35525D01*
X53088Y-35637D01*
X53210Y-35637D01*
X53285Y-35459D02*
X53295Y-35450D01*
X53313Y-35440D01*
X53360Y-35440D01*
X53379Y-35450D01*
X53388Y-35459D01*
X53398Y-35478D01*
X53398Y-35497D01*
X53388Y-35525D01*
X53276Y-35637D01*
X53398Y-35637D01*
X53022Y-35362D02*
X52929Y-35362D01*
X52929Y-35165D01*
X53088Y-35259D02*
X53154Y-35259D01*
X53182Y-35362D02*
X53088Y-35362D01*
X53088Y-35165D01*
X53182Y-35165D01*
X53266Y-35362D02*
X53266Y-35165D01*
X53313Y-35165D01*
X53341Y-35175D01*
X53360Y-35193D01*
X53370Y-35212D01*
X53379Y-35250D01*
X53379Y-35278D01*
X53370Y-35315D01*
X53360Y-35334D01*
X53341Y-35353D01*
X53313Y-35362D01*
X53266Y-35362D01*
X52910Y-15952D02*
X52910Y-15755D01*
X52957Y-15755D01*
X52985Y-15765D01*
X53004Y-15783D01*
X53013Y-15802D01*
X53022Y-15840D01*
X53022Y-15868D01*
X53013Y-15905D01*
X53004Y-15924D01*
X52985Y-15943D01*
X52957Y-15952D01*
X52910Y-15952D01*
X53098Y-15774D02*
X53107Y-15765D01*
X53126Y-15755D01*
X53173Y-15755D01*
X53191Y-15765D01*
X53201Y-15774D01*
X53210Y-15793D01*
X53210Y-15812D01*
X53201Y-15840D01*
X53088Y-15952D01*
X53210Y-15952D01*
X53323Y-15840D02*
X53304Y-15830D01*
X53295Y-15821D01*
X53285Y-15802D01*
X53285Y-15793D01*
X53295Y-15774D01*
X53304Y-15765D01*
X53323Y-15755D01*
X53360Y-15755D01*
X53379Y-15765D01*
X53388Y-15774D01*
X53398Y-15793D01*
X53398Y-15802D01*
X53388Y-15821D01*
X53379Y-15830D01*
X53360Y-15840D01*
X53323Y-15840D01*
X53304Y-15849D01*
X53295Y-15858D01*
X53285Y-15877D01*
X53285Y-15915D01*
X53295Y-15934D01*
X53304Y-15943D01*
X53323Y-15952D01*
X53360Y-15952D01*
X53379Y-15943D01*
X53388Y-15934D01*
X53398Y-15915D01*
X53398Y-15877D01*
X53388Y-15858D01*
X53379Y-15849D01*
X53360Y-15840D01*
X53022Y-15677D02*
X52929Y-15677D01*
X52929Y-15480D01*
X53088Y-15574D02*
X53154Y-15574D01*
X53182Y-15677D02*
X53088Y-15677D01*
X53088Y-15480D01*
X53182Y-15480D01*
X53266Y-15677D02*
X53266Y-15480D01*
X53313Y-15480D01*
X53341Y-15490D01*
X53360Y-15508D01*
X53370Y-15527D01*
X53379Y-15565D01*
X53379Y-15593D01*
X53370Y-15630D01*
X53360Y-15649D01*
X53341Y-15668D01*
X53313Y-15677D01*
X53266Y-15677D01*
X52910Y-47448D02*
X52910Y-47251D01*
X52957Y-47251D01*
X52985Y-47261D01*
X53004Y-47279D01*
X53013Y-47298D01*
X53022Y-47336D01*
X53022Y-47364D01*
X53013Y-47401D01*
X53004Y-47420D01*
X52985Y-47439D01*
X52957Y-47448D01*
X52910Y-47448D01*
X53098Y-47270D02*
X53107Y-47261D01*
X53126Y-47251D01*
X53173Y-47251D01*
X53191Y-47261D01*
X53201Y-47270D01*
X53210Y-47289D01*
X53210Y-47308D01*
X53201Y-47336D01*
X53088Y-47448D01*
X53210Y-47448D01*
X53379Y-47317D02*
X53379Y-47448D01*
X53332Y-47242D02*
X53285Y-47383D01*
X53407Y-47383D01*
X53022Y-47173D02*
X52929Y-47173D01*
X52929Y-46976D01*
X53088Y-47070D02*
X53154Y-47070D01*
X53182Y-47173D02*
X53088Y-47173D01*
X53088Y-46976D01*
X53182Y-46976D01*
X53266Y-47173D02*
X53266Y-46976D01*
X53313Y-46976D01*
X53341Y-46986D01*
X53360Y-47004D01*
X53370Y-47023D01*
X53379Y-47061D01*
X53379Y-47089D01*
X53370Y-47126D01*
X53360Y-47145D01*
X53341Y-47164D01*
X53313Y-47173D01*
X53266Y-47173D01*
X52910Y-21858D02*
X52910Y-21661D01*
X52957Y-21661D01*
X52985Y-21670D01*
X53004Y-21689D01*
X53013Y-21708D01*
X53022Y-21745D01*
X53022Y-21773D01*
X53013Y-21811D01*
X53004Y-21830D01*
X52985Y-21848D01*
X52957Y-21858D01*
X52910Y-21858D01*
X53098Y-21680D02*
X53107Y-21670D01*
X53126Y-21661D01*
X53173Y-21661D01*
X53191Y-21670D01*
X53201Y-21680D01*
X53210Y-21698D01*
X53210Y-21717D01*
X53201Y-21745D01*
X53088Y-21858D01*
X53210Y-21858D01*
X53379Y-21661D02*
X53341Y-21661D01*
X53323Y-21670D01*
X53313Y-21680D01*
X53295Y-21708D01*
X53285Y-21745D01*
X53285Y-21820D01*
X53295Y-21839D01*
X53304Y-21848D01*
X53323Y-21858D01*
X53360Y-21858D01*
X53379Y-21848D01*
X53388Y-21839D01*
X53398Y-21820D01*
X53398Y-21773D01*
X53388Y-21755D01*
X53379Y-21745D01*
X53360Y-21736D01*
X53323Y-21736D01*
X53304Y-21745D01*
X53295Y-21755D01*
X53285Y-21773D01*
X53022Y-21583D02*
X52929Y-21583D01*
X52929Y-21386D01*
X53088Y-21480D02*
X53154Y-21480D01*
X53182Y-21583D02*
X53088Y-21583D01*
X53088Y-21386D01*
X53182Y-21386D01*
X53266Y-21583D02*
X53266Y-21386D01*
X53313Y-21386D01*
X53341Y-21395D01*
X53360Y-21414D01*
X53370Y-21433D01*
X53379Y-21470D01*
X53379Y-21498D01*
X53370Y-21536D01*
X53360Y-21555D01*
X53341Y-21573D01*
X53313Y-21583D01*
X53266Y-21583D01*
X45230Y-14018D02*
X45033Y-14018D01*
X45033Y-13971D01*
X45042Y-13943D01*
X45061Y-13924D01*
X45080Y-13915D01*
X45117Y-13906D01*
X45145Y-13906D01*
X45183Y-13915D01*
X45202Y-13924D01*
X45220Y-13943D01*
X45230Y-13971D01*
X45230Y-14018D01*
X45033Y-13840D02*
X45033Y-13718D01*
X45108Y-13784D01*
X45108Y-13756D01*
X45117Y-13737D01*
X45127Y-13727D01*
X45145Y-13718D01*
X45192Y-13718D01*
X45211Y-13727D01*
X45220Y-13737D01*
X45230Y-13756D01*
X45230Y-13812D01*
X45220Y-13831D01*
X45211Y-13840D01*
X45052Y-13643D02*
X45042Y-13634D01*
X45033Y-13615D01*
X45033Y-13568D01*
X45042Y-13549D01*
X45052Y-13540D01*
X45070Y-13530D01*
X45089Y-13530D01*
X45117Y-13540D01*
X45230Y-13652D01*
X45230Y-13530D01*
X45505Y-13906D02*
X45505Y-13999D01*
X45308Y-13999D01*
X45402Y-13840D02*
X45402Y-13774D01*
X45505Y-13746D02*
X45505Y-13840D01*
X45308Y-13840D01*
X45308Y-13746D01*
X45505Y-13662D02*
X45308Y-13662D01*
X45308Y-13615D01*
X45317Y-13587D01*
X45336Y-13568D01*
X45355Y-13559D01*
X45392Y-13549D01*
X45420Y-13549D01*
X45458Y-13559D01*
X45477Y-13568D01*
X45495Y-13587D01*
X45505Y-13615D01*
X45505Y-13662D01*
X52910Y-27763D02*
X52910Y-27566D01*
X52957Y-27566D01*
X52985Y-27576D01*
X53004Y-27594D01*
X53013Y-27613D01*
X53022Y-27651D01*
X53022Y-27679D01*
X53013Y-27716D01*
X53004Y-27735D01*
X52985Y-27754D01*
X52957Y-27763D01*
X52910Y-27763D01*
X53088Y-27566D02*
X53210Y-27566D01*
X53144Y-27641D01*
X53173Y-27641D01*
X53191Y-27651D01*
X53201Y-27660D01*
X53210Y-27679D01*
X53210Y-27726D01*
X53201Y-27745D01*
X53191Y-27754D01*
X53173Y-27763D01*
X53116Y-27763D01*
X53098Y-27754D01*
X53088Y-27745D01*
X53332Y-27566D02*
X53351Y-27566D01*
X53370Y-27576D01*
X53379Y-27585D01*
X53388Y-27604D01*
X53398Y-27641D01*
X53398Y-27688D01*
X53388Y-27726D01*
X53379Y-27745D01*
X53370Y-27754D01*
X53351Y-27763D01*
X53332Y-27763D01*
X53313Y-27754D01*
X53304Y-27745D01*
X53295Y-27726D01*
X53285Y-27688D01*
X53285Y-27641D01*
X53295Y-27604D01*
X53304Y-27585D01*
X53313Y-27576D01*
X53332Y-27566D01*
X53022Y-27488D02*
X52929Y-27488D01*
X52929Y-27291D01*
X53088Y-27385D02*
X53154Y-27385D01*
X53182Y-27488D02*
X53088Y-27488D01*
X53088Y-27291D01*
X53182Y-27291D01*
X53266Y-27488D02*
X53266Y-27291D01*
X53313Y-27291D01*
X53341Y-27301D01*
X53360Y-27319D01*
X53370Y-27338D01*
X53379Y-27376D01*
X53379Y-27404D01*
X53370Y-27441D01*
X53360Y-27460D01*
X53341Y-27479D01*
X53313Y-27488D01*
X53266Y-27488D01*
X21608Y-31735D02*
X21411Y-31735D01*
X21411Y-31688D01*
X21420Y-31660D01*
X21439Y-31641D01*
X21458Y-31632D01*
X21495Y-31622D01*
X21523Y-31622D01*
X21561Y-31632D01*
X21580Y-31641D01*
X21598Y-31660D01*
X21608Y-31688D01*
X21608Y-31735D01*
X21476Y-31453D02*
X21608Y-31453D01*
X21401Y-31500D02*
X21542Y-31547D01*
X21542Y-31425D01*
X21608Y-31247D02*
X21608Y-31360D01*
X21608Y-31303D02*
X21411Y-31303D01*
X21439Y-31322D01*
X21458Y-31341D01*
X21467Y-31360D01*
X21883Y-31622D02*
X21883Y-31716D01*
X21686Y-31716D01*
X21780Y-31557D02*
X21780Y-31491D01*
X21883Y-31463D02*
X21883Y-31557D01*
X21686Y-31557D01*
X21686Y-31463D01*
X21883Y-31378D02*
X21686Y-31378D01*
X21686Y-31331D01*
X21695Y-31303D01*
X21714Y-31284D01*
X21733Y-31275D01*
X21770Y-31266D01*
X21798Y-31266D01*
X21836Y-31275D01*
X21855Y-31284D01*
X21873Y-31303D01*
X21883Y-31331D01*
X21883Y-31378D01*
X52910Y-41543D02*
X52910Y-41346D01*
X52957Y-41346D01*
X52985Y-41355D01*
X53004Y-41374D01*
X53013Y-41393D01*
X53022Y-41430D01*
X53022Y-41458D01*
X53013Y-41496D01*
X53004Y-41515D01*
X52985Y-41533D01*
X52957Y-41543D01*
X52910Y-41543D01*
X53098Y-41365D02*
X53107Y-41355D01*
X53126Y-41346D01*
X53173Y-41346D01*
X53191Y-41355D01*
X53201Y-41365D01*
X53210Y-41383D01*
X53210Y-41402D01*
X53201Y-41430D01*
X53088Y-41543D01*
X53210Y-41543D01*
X53332Y-41346D02*
X53351Y-41346D01*
X53370Y-41355D01*
X53379Y-41365D01*
X53388Y-41383D01*
X53398Y-41421D01*
X53398Y-41468D01*
X53388Y-41505D01*
X53379Y-41524D01*
X53370Y-41533D01*
X53351Y-41543D01*
X53332Y-41543D01*
X53313Y-41533D01*
X53304Y-41524D01*
X53295Y-41505D01*
X53285Y-41468D01*
X53285Y-41421D01*
X53295Y-41383D01*
X53304Y-41365D01*
X53313Y-41355D01*
X53332Y-41346D01*
X53022Y-41268D02*
X52929Y-41268D01*
X52929Y-41071D01*
X53088Y-41165D02*
X53154Y-41165D01*
X53182Y-41268D02*
X53088Y-41268D01*
X53088Y-41071D01*
X53182Y-41071D01*
X53266Y-41268D02*
X53266Y-41071D01*
X53313Y-41071D01*
X53341Y-41080D01*
X53360Y-41099D01*
X53370Y-41118D01*
X53379Y-41155D01*
X53379Y-41183D01*
X53370Y-41221D01*
X53360Y-41240D01*
X53341Y-41258D01*
X53313Y-41268D01*
X53266Y-41268D01*
X49167Y-49451D02*
X48970Y-49451D01*
X48970Y-49404D01*
X48979Y-49376D01*
X48998Y-49358D01*
X49017Y-49348D01*
X49054Y-49339D01*
X49082Y-49339D01*
X49120Y-49348D01*
X49139Y-49358D01*
X49157Y-49376D01*
X49167Y-49404D01*
X49167Y-49451D01*
X49167Y-49151D02*
X49167Y-49264D01*
X49167Y-49207D02*
X48970Y-49207D01*
X48998Y-49226D01*
X49017Y-49245D01*
X49026Y-49264D01*
X49054Y-49039D02*
X49045Y-49057D01*
X49036Y-49067D01*
X49017Y-49076D01*
X49007Y-49076D01*
X48989Y-49067D01*
X48979Y-49057D01*
X48970Y-49039D01*
X48970Y-49001D01*
X48979Y-48982D01*
X48989Y-48973D01*
X49007Y-48964D01*
X49017Y-48964D01*
X49036Y-48973D01*
X49045Y-48982D01*
X49054Y-49001D01*
X49054Y-49039D01*
X49064Y-49057D01*
X49073Y-49067D01*
X49092Y-49076D01*
X49129Y-49076D01*
X49148Y-49067D01*
X49157Y-49057D01*
X49167Y-49039D01*
X49167Y-49001D01*
X49157Y-48982D01*
X49148Y-48973D01*
X49129Y-48964D01*
X49092Y-48964D01*
X49073Y-48973D01*
X49064Y-48982D01*
X49054Y-49001D01*
X49442Y-49339D02*
X49442Y-49433D01*
X49245Y-49433D01*
X49339Y-49273D02*
X49339Y-49207D01*
X49442Y-49179D02*
X49442Y-49273D01*
X49245Y-49273D01*
X49245Y-49179D01*
X49442Y-49095D02*
X49245Y-49095D01*
X49245Y-49048D01*
X49254Y-49020D01*
X49273Y-49001D01*
X49292Y-48992D01*
X49329Y-48982D01*
X49357Y-48982D01*
X49395Y-48992D01*
X49414Y-49001D01*
X49432Y-49020D01*
X49442Y-49048D01*
X49442Y-49095D01*
X37256Y-21858D02*
X37256Y-21661D01*
X37303Y-21661D01*
X37331Y-21670D01*
X37349Y-21689D01*
X37359Y-21708D01*
X37368Y-21745D01*
X37368Y-21773D01*
X37359Y-21811D01*
X37349Y-21830D01*
X37331Y-21848D01*
X37303Y-21858D01*
X37256Y-21858D01*
X37443Y-21680D02*
X37453Y-21670D01*
X37471Y-21661D01*
X37518Y-21661D01*
X37537Y-21670D01*
X37546Y-21680D01*
X37556Y-21698D01*
X37556Y-21717D01*
X37546Y-21745D01*
X37434Y-21858D01*
X37556Y-21858D01*
X37274Y-21583D02*
X37181Y-21583D01*
X37181Y-21386D01*
X37340Y-21480D02*
X37406Y-21480D01*
X37434Y-21583D02*
X37340Y-21583D01*
X37340Y-21386D01*
X37434Y-21386D01*
X37518Y-21583D02*
X37518Y-21386D01*
X37565Y-21386D01*
X37593Y-21395D01*
X37612Y-21414D01*
X37622Y-21433D01*
X37631Y-21470D01*
X37631Y-21498D01*
X37622Y-21536D01*
X37612Y-21555D01*
X37593Y-21573D01*
X37565Y-21583D01*
X37518Y-21583D01*
X37256Y-27763D02*
X37256Y-27566D01*
X37303Y-27566D01*
X37331Y-27576D01*
X37349Y-27594D01*
X37359Y-27613D01*
X37368Y-27651D01*
X37368Y-27679D01*
X37359Y-27716D01*
X37349Y-27735D01*
X37331Y-27754D01*
X37303Y-27763D01*
X37256Y-27763D01*
X37537Y-27632D02*
X37537Y-27763D01*
X37490Y-27557D02*
X37443Y-27698D01*
X37565Y-27698D01*
X37274Y-27488D02*
X37181Y-27488D01*
X37181Y-27291D01*
X37340Y-27385D02*
X37406Y-27385D01*
X37434Y-27488D02*
X37340Y-27488D01*
X37340Y-27291D01*
X37434Y-27291D01*
X37518Y-27488D02*
X37518Y-27291D01*
X37565Y-27291D01*
X37593Y-27301D01*
X37612Y-27319D01*
X37622Y-27338D01*
X37631Y-27376D01*
X37631Y-27404D01*
X37622Y-27441D01*
X37612Y-27460D01*
X37593Y-27479D01*
X37565Y-27488D01*
X37518Y-27488D01*
X37256Y-15952D02*
X37256Y-15755D01*
X37303Y-15755D01*
X37331Y-15765D01*
X37349Y-15783D01*
X37359Y-15802D01*
X37368Y-15840D01*
X37368Y-15868D01*
X37359Y-15905D01*
X37349Y-15924D01*
X37331Y-15943D01*
X37303Y-15952D01*
X37256Y-15952D01*
X37537Y-15755D02*
X37500Y-15755D01*
X37481Y-15765D01*
X37471Y-15774D01*
X37453Y-15802D01*
X37443Y-15840D01*
X37443Y-15915D01*
X37453Y-15934D01*
X37462Y-15943D01*
X37481Y-15952D01*
X37518Y-15952D01*
X37537Y-15943D01*
X37546Y-15934D01*
X37556Y-15915D01*
X37556Y-15868D01*
X37546Y-15849D01*
X37537Y-15840D01*
X37518Y-15830D01*
X37481Y-15830D01*
X37462Y-15840D01*
X37453Y-15849D01*
X37443Y-15868D01*
X37274Y-15677D02*
X37181Y-15677D01*
X37181Y-15480D01*
X37340Y-15574D02*
X37406Y-15574D01*
X37434Y-15677D02*
X37340Y-15677D01*
X37340Y-15480D01*
X37434Y-15480D01*
X37518Y-15677D02*
X37518Y-15480D01*
X37565Y-15480D01*
X37593Y-15490D01*
X37612Y-15508D01*
X37622Y-15527D01*
X37631Y-15565D01*
X37631Y-15593D01*
X37622Y-15630D01*
X37612Y-15649D01*
X37593Y-15668D01*
X37565Y-15677D01*
X37518Y-15677D01*
X37256Y-41543D02*
X37256Y-41346D01*
X37303Y-41346D01*
X37331Y-41355D01*
X37349Y-41374D01*
X37359Y-41393D01*
X37368Y-41430D01*
X37368Y-41458D01*
X37359Y-41496D01*
X37349Y-41515D01*
X37331Y-41533D01*
X37303Y-41543D01*
X37256Y-41543D01*
X37481Y-41430D02*
X37462Y-41421D01*
X37453Y-41411D01*
X37443Y-41393D01*
X37443Y-41383D01*
X37453Y-41365D01*
X37462Y-41355D01*
X37481Y-41346D01*
X37518Y-41346D01*
X37537Y-41355D01*
X37546Y-41365D01*
X37556Y-41383D01*
X37556Y-41393D01*
X37546Y-41411D01*
X37537Y-41421D01*
X37518Y-41430D01*
X37481Y-41430D01*
X37462Y-41440D01*
X37453Y-41449D01*
X37443Y-41468D01*
X37443Y-41505D01*
X37453Y-41524D01*
X37462Y-41533D01*
X37481Y-41543D01*
X37518Y-41543D01*
X37537Y-41533D01*
X37546Y-41524D01*
X37556Y-41505D01*
X37556Y-41468D01*
X37546Y-41449D01*
X37537Y-41440D01*
X37518Y-41430D01*
X37274Y-41268D02*
X37181Y-41268D01*
X37181Y-41071D01*
X37340Y-41165D02*
X37406Y-41165D01*
X37434Y-41268D02*
X37340Y-41268D01*
X37340Y-41071D01*
X37434Y-41071D01*
X37518Y-41268D02*
X37518Y-41071D01*
X37565Y-41071D01*
X37593Y-41080D01*
X37612Y-41099D01*
X37622Y-41118D01*
X37631Y-41155D01*
X37631Y-41183D01*
X37622Y-41221D01*
X37612Y-41240D01*
X37593Y-41258D01*
X37565Y-41268D01*
X37518Y-41268D01*
X37162Y-35637D02*
X37162Y-35440D01*
X37209Y-35440D01*
X37237Y-35450D01*
X37256Y-35468D01*
X37265Y-35487D01*
X37274Y-35525D01*
X37274Y-35553D01*
X37265Y-35590D01*
X37256Y-35609D01*
X37237Y-35628D01*
X37209Y-35637D01*
X37162Y-35637D01*
X37462Y-35637D02*
X37349Y-35637D01*
X37406Y-35637D02*
X37406Y-35440D01*
X37387Y-35468D01*
X37368Y-35487D01*
X37349Y-35497D01*
X37584Y-35440D02*
X37603Y-35440D01*
X37622Y-35450D01*
X37631Y-35459D01*
X37640Y-35478D01*
X37650Y-35515D01*
X37650Y-35562D01*
X37640Y-35600D01*
X37631Y-35619D01*
X37622Y-35628D01*
X37603Y-35637D01*
X37584Y-35637D01*
X37565Y-35628D01*
X37556Y-35619D01*
X37546Y-35600D01*
X37537Y-35562D01*
X37537Y-35515D01*
X37546Y-35478D01*
X37556Y-35459D01*
X37565Y-35450D01*
X37584Y-35440D01*
X37274Y-35362D02*
X37181Y-35362D01*
X37181Y-35165D01*
X37340Y-35259D02*
X37406Y-35259D01*
X37434Y-35362D02*
X37340Y-35362D01*
X37340Y-35165D01*
X37434Y-35165D01*
X37518Y-35362D02*
X37518Y-35165D01*
X37565Y-35165D01*
X37593Y-35175D01*
X37612Y-35193D01*
X37622Y-35212D01*
X37631Y-35250D01*
X37631Y-35278D01*
X37622Y-35315D01*
X37612Y-35334D01*
X37593Y-35353D01*
X37565Y-35362D01*
X37518Y-35362D01*
X37162Y-47448D02*
X37162Y-47251D01*
X37209Y-47251D01*
X37237Y-47261D01*
X37256Y-47279D01*
X37265Y-47298D01*
X37274Y-47336D01*
X37274Y-47364D01*
X37265Y-47401D01*
X37256Y-47420D01*
X37237Y-47439D01*
X37209Y-47448D01*
X37162Y-47448D01*
X37462Y-47448D02*
X37349Y-47448D01*
X37406Y-47448D02*
X37406Y-47251D01*
X37387Y-47279D01*
X37368Y-47298D01*
X37349Y-47308D01*
X37537Y-47270D02*
X37546Y-47261D01*
X37565Y-47251D01*
X37612Y-47251D01*
X37631Y-47261D01*
X37640Y-47270D01*
X37650Y-47289D01*
X37650Y-47308D01*
X37640Y-47336D01*
X37528Y-47448D01*
X37650Y-47448D01*
X37274Y-47173D02*
X37181Y-47173D01*
X37181Y-46976D01*
X37340Y-47070D02*
X37406Y-47070D01*
X37434Y-47173D02*
X37340Y-47173D01*
X37340Y-46976D01*
X37434Y-46976D01*
X37518Y-47173D02*
X37518Y-46976D01*
X37565Y-46976D01*
X37593Y-46986D01*
X37612Y-47004D01*
X37622Y-47023D01*
X37631Y-47061D01*
X37631Y-47089D01*
X37622Y-47126D01*
X37612Y-47145D01*
X37593Y-47164D01*
X37565Y-47173D01*
X37518Y-47173D01*
X45230Y-49451D02*
X45033Y-49451D01*
X45033Y-49404D01*
X45042Y-49376D01*
X45061Y-49358D01*
X45080Y-49348D01*
X45117Y-49339D01*
X45145Y-49339D01*
X45183Y-49348D01*
X45202Y-49358D01*
X45220Y-49376D01*
X45230Y-49404D01*
X45230Y-49451D01*
X45230Y-49151D02*
X45230Y-49264D01*
X45230Y-49207D02*
X45033Y-49207D01*
X45061Y-49226D01*
X45080Y-49245D01*
X45089Y-49264D01*
X45098Y-48982D02*
X45230Y-48982D01*
X45023Y-49029D02*
X45164Y-49076D01*
X45164Y-48954D01*
X45505Y-49339D02*
X45505Y-49433D01*
X45308Y-49433D01*
X45402Y-49273D02*
X45402Y-49207D01*
X45505Y-49179D02*
X45505Y-49273D01*
X45308Y-49273D01*
X45308Y-49179D01*
X45505Y-49095D02*
X45308Y-49095D01*
X45308Y-49048D01*
X45317Y-49020D01*
X45336Y-49001D01*
X45355Y-48992D01*
X45392Y-48982D01*
X45420Y-48982D01*
X45458Y-48992D01*
X45477Y-49001D01*
X45495Y-49020D01*
X45505Y-49048D01*
X45505Y-49095D01*
X41293Y-49451D02*
X41096Y-49451D01*
X41096Y-49404D01*
X41105Y-49376D01*
X41124Y-49358D01*
X41143Y-49348D01*
X41180Y-49339D01*
X41208Y-49339D01*
X41246Y-49348D01*
X41265Y-49358D01*
X41283Y-49376D01*
X41293Y-49404D01*
X41293Y-49451D01*
X41293Y-49151D02*
X41293Y-49264D01*
X41293Y-49207D02*
X41096Y-49207D01*
X41124Y-49226D01*
X41143Y-49245D01*
X41152Y-49264D01*
X41096Y-48982D02*
X41096Y-49020D01*
X41105Y-49039D01*
X41115Y-49048D01*
X41143Y-49067D01*
X41180Y-49076D01*
X41255Y-49076D01*
X41274Y-49067D01*
X41283Y-49057D01*
X41293Y-49039D01*
X41293Y-49001D01*
X41283Y-48982D01*
X41274Y-48973D01*
X41255Y-48964D01*
X41208Y-48964D01*
X41190Y-48973D01*
X41180Y-48982D01*
X41171Y-49001D01*
X41171Y-49039D01*
X41180Y-49057D01*
X41190Y-49067D01*
X41208Y-49076D01*
X41568Y-49339D02*
X41568Y-49433D01*
X41371Y-49433D01*
X41465Y-49273D02*
X41465Y-49207D01*
X41568Y-49179D02*
X41568Y-49273D01*
X41371Y-49273D01*
X41371Y-49179D01*
X41568Y-49095D02*
X41371Y-49095D01*
X41371Y-49048D01*
X41380Y-49020D01*
X41399Y-49001D01*
X41418Y-48992D01*
X41455Y-48982D01*
X41483Y-48982D01*
X41521Y-48992D01*
X41540Y-49001D01*
X41558Y-49020D01*
X41568Y-49048D01*
X41568Y-49095D01*
X33225Y-47448D02*
X33225Y-47251D01*
X33272Y-47251D01*
X33300Y-47261D01*
X33319Y-47279D01*
X33328Y-47298D01*
X33337Y-47336D01*
X33337Y-47364D01*
X33328Y-47401D01*
X33319Y-47420D01*
X33300Y-47439D01*
X33272Y-47448D01*
X33225Y-47448D01*
X33412Y-47270D02*
X33422Y-47261D01*
X33441Y-47251D01*
X33488Y-47251D01*
X33506Y-47261D01*
X33516Y-47270D01*
X33525Y-47289D01*
X33525Y-47308D01*
X33516Y-47336D01*
X33403Y-47448D01*
X33525Y-47448D01*
X33713Y-47448D02*
X33600Y-47448D01*
X33656Y-47448D02*
X33656Y-47251D01*
X33638Y-47279D01*
X33619Y-47298D01*
X33600Y-47308D01*
X33337Y-47173D02*
X33244Y-47173D01*
X33244Y-46976D01*
X33403Y-47070D02*
X33469Y-47070D01*
X33497Y-47173D02*
X33403Y-47173D01*
X33403Y-46976D01*
X33497Y-46976D01*
X33581Y-47173D02*
X33581Y-46976D01*
X33628Y-46976D01*
X33656Y-46986D01*
X33675Y-47004D01*
X33685Y-47023D01*
X33694Y-47061D01*
X33694Y-47089D01*
X33685Y-47126D01*
X33675Y-47145D01*
X33656Y-47164D01*
X33628Y-47173D01*
X33581Y-47173D01*
X41293Y-31735D02*
X41096Y-31735D01*
X41096Y-31688D01*
X41105Y-31660D01*
X41124Y-31641D01*
X41143Y-31632D01*
X41180Y-31622D01*
X41208Y-31622D01*
X41246Y-31632D01*
X41265Y-31641D01*
X41283Y-31660D01*
X41293Y-31688D01*
X41293Y-31735D01*
X41161Y-31453D02*
X41293Y-31453D01*
X41086Y-31500D02*
X41227Y-31547D01*
X41227Y-31425D01*
X41115Y-31360D02*
X41105Y-31350D01*
X41096Y-31331D01*
X41096Y-31284D01*
X41105Y-31266D01*
X41115Y-31256D01*
X41133Y-31247D01*
X41152Y-31247D01*
X41180Y-31256D01*
X41293Y-31369D01*
X41293Y-31247D01*
X41568Y-31622D02*
X41568Y-31716D01*
X41371Y-31716D01*
X41465Y-31557D02*
X41465Y-31491D01*
X41568Y-31463D02*
X41568Y-31557D01*
X41371Y-31557D01*
X41371Y-31463D01*
X41568Y-31378D02*
X41371Y-31378D01*
X41371Y-31331D01*
X41380Y-31303D01*
X41399Y-31284D01*
X41418Y-31275D01*
X41455Y-31266D01*
X41483Y-31266D01*
X41521Y-31275D01*
X41540Y-31284D01*
X41558Y-31303D01*
X41568Y-31331D01*
X41568Y-31378D01*
X49167Y-31735D02*
X48970Y-31735D01*
X48970Y-31688D01*
X48979Y-31660D01*
X48998Y-31641D01*
X49017Y-31632D01*
X49054Y-31622D01*
X49082Y-31622D01*
X49120Y-31632D01*
X49139Y-31641D01*
X49157Y-31660D01*
X49167Y-31688D01*
X49167Y-31735D01*
X49036Y-31453D02*
X49167Y-31453D01*
X48960Y-31500D02*
X49101Y-31547D01*
X49101Y-31425D01*
X48970Y-31313D02*
X48970Y-31294D01*
X48979Y-31275D01*
X48989Y-31266D01*
X49007Y-31256D01*
X49045Y-31247D01*
X49092Y-31247D01*
X49129Y-31256D01*
X49148Y-31266D01*
X49157Y-31275D01*
X49167Y-31294D01*
X49167Y-31313D01*
X49157Y-31331D01*
X49148Y-31341D01*
X49129Y-31350D01*
X49092Y-31360D01*
X49045Y-31360D01*
X49007Y-31350D01*
X48989Y-31341D01*
X48979Y-31331D01*
X48970Y-31313D01*
X49442Y-31622D02*
X49442Y-31716D01*
X49245Y-31716D01*
X49339Y-31557D02*
X49339Y-31491D01*
X49442Y-31463D02*
X49442Y-31557D01*
X49245Y-31557D01*
X49245Y-31463D01*
X49442Y-31378D02*
X49245Y-31378D01*
X49245Y-31331D01*
X49254Y-31303D01*
X49273Y-31284D01*
X49292Y-31275D01*
X49329Y-31266D01*
X49357Y-31266D01*
X49395Y-31275D01*
X49414Y-31284D01*
X49432Y-31303D01*
X49442Y-31331D01*
X49442Y-31378D01*
X17796Y-16018D02*
X17599Y-16018D01*
X17599Y-15971D01*
X17608Y-15943D01*
X17627Y-15924D01*
X17646Y-15915D01*
X17683Y-15905D01*
X17711Y-15905D01*
X17749Y-15915D01*
X17768Y-15924D01*
X17786Y-15943D01*
X17796Y-15971D01*
X17796Y-16018D01*
X17796Y-15718D02*
X17796Y-15830D01*
X17796Y-15774D02*
X17599Y-15774D01*
X17627Y-15793D01*
X17646Y-15812D01*
X17655Y-15830D01*
X17589Y-15677D02*
X17496Y-15677D01*
X17496Y-15480D01*
X17655Y-15574D02*
X17721Y-15574D01*
X17749Y-15677D02*
X17655Y-15677D01*
X17655Y-15480D01*
X17749Y-15480D01*
X17833Y-15677D02*
X17833Y-15480D01*
X17880Y-15480D01*
X17908Y-15490D01*
X17927Y-15508D01*
X17936Y-15527D01*
X17946Y-15565D01*
X17946Y-15593D01*
X17936Y-15630D01*
X17927Y-15649D01*
X17908Y-15668D01*
X17880Y-15677D01*
X17833Y-15677D01*
X17571Y-27763D02*
X17571Y-27566D01*
X17618Y-27566D01*
X17646Y-27576D01*
X17664Y-27594D01*
X17674Y-27613D01*
X17683Y-27651D01*
X17683Y-27679D01*
X17674Y-27716D01*
X17664Y-27735D01*
X17646Y-27754D01*
X17618Y-27763D01*
X17571Y-27763D01*
X17749Y-27566D02*
X17871Y-27566D01*
X17805Y-27641D01*
X17833Y-27641D01*
X17852Y-27651D01*
X17861Y-27660D01*
X17871Y-27679D01*
X17871Y-27726D01*
X17861Y-27745D01*
X17852Y-27754D01*
X17833Y-27763D01*
X17777Y-27763D01*
X17758Y-27754D01*
X17749Y-27745D01*
X17589Y-27488D02*
X17496Y-27488D01*
X17496Y-27291D01*
X17655Y-27385D02*
X17721Y-27385D01*
X17749Y-27488D02*
X17655Y-27488D01*
X17655Y-27291D01*
X17749Y-27291D01*
X17833Y-27488D02*
X17833Y-27291D01*
X17880Y-27291D01*
X17908Y-27301D01*
X17927Y-27319D01*
X17936Y-27338D01*
X17946Y-27376D01*
X17946Y-27404D01*
X17936Y-27441D01*
X17927Y-27460D01*
X17908Y-27479D01*
X17880Y-27488D01*
X17833Y-27488D01*
X17571Y-21858D02*
X17571Y-21661D01*
X17618Y-21661D01*
X17646Y-21670D01*
X17664Y-21689D01*
X17674Y-21708D01*
X17683Y-21745D01*
X17683Y-21773D01*
X17674Y-21811D01*
X17664Y-21830D01*
X17646Y-21848D01*
X17618Y-21858D01*
X17571Y-21858D01*
X17861Y-21661D02*
X17768Y-21661D01*
X17758Y-21755D01*
X17768Y-21745D01*
X17786Y-21736D01*
X17833Y-21736D01*
X17852Y-21745D01*
X17861Y-21755D01*
X17871Y-21773D01*
X17871Y-21820D01*
X17861Y-21839D01*
X17852Y-21848D01*
X17833Y-21858D01*
X17786Y-21858D01*
X17768Y-21848D01*
X17758Y-21839D01*
X17796Y-21630D02*
X17796Y-21723D01*
X17599Y-21723D01*
X17693Y-21564D02*
X17693Y-21498D01*
X17796Y-21470D02*
X17796Y-21564D01*
X17599Y-21564D01*
X17599Y-21470D01*
X17796Y-21386D02*
X17599Y-21386D01*
X17599Y-21339D01*
X17608Y-21311D01*
X17627Y-21292D01*
X17646Y-21283D01*
X17683Y-21273D01*
X17711Y-21273D01*
X17749Y-21283D01*
X17768Y-21292D01*
X17786Y-21311D01*
X17796Y-21339D01*
X17796Y-21386D01*
X17571Y-41543D02*
X17571Y-41346D01*
X17618Y-41346D01*
X17646Y-41355D01*
X17664Y-41374D01*
X17674Y-41393D01*
X17683Y-41430D01*
X17683Y-41458D01*
X17674Y-41496D01*
X17664Y-41515D01*
X17646Y-41533D01*
X17618Y-41543D01*
X17571Y-41543D01*
X17749Y-41346D02*
X17880Y-41346D01*
X17796Y-41543D01*
X17589Y-41268D02*
X17496Y-41268D01*
X17496Y-41071D01*
X17655Y-41165D02*
X17721Y-41165D01*
X17749Y-41268D02*
X17655Y-41268D01*
X17655Y-41071D01*
X17749Y-41071D01*
X17833Y-41268D02*
X17833Y-41071D01*
X17880Y-41071D01*
X17908Y-41080D01*
X17927Y-41099D01*
X17936Y-41118D01*
X17946Y-41155D01*
X17946Y-41183D01*
X17936Y-41221D01*
X17927Y-41240D01*
X17908Y-41258D01*
X17880Y-41268D01*
X17833Y-41268D01*
X17571Y-35637D02*
X17571Y-35440D01*
X17618Y-35440D01*
X17646Y-35450D01*
X17664Y-35468D01*
X17674Y-35487D01*
X17683Y-35525D01*
X17683Y-35553D01*
X17674Y-35590D01*
X17664Y-35609D01*
X17646Y-35628D01*
X17618Y-35637D01*
X17571Y-35637D01*
X17777Y-35637D02*
X17815Y-35637D01*
X17833Y-35628D01*
X17843Y-35619D01*
X17861Y-35590D01*
X17871Y-35553D01*
X17871Y-35478D01*
X17861Y-35459D01*
X17852Y-35450D01*
X17833Y-35440D01*
X17796Y-35440D01*
X17777Y-35450D01*
X17768Y-35459D01*
X17758Y-35478D01*
X17758Y-35525D01*
X17768Y-35543D01*
X17777Y-35553D01*
X17796Y-35562D01*
X17833Y-35562D01*
X17852Y-35553D01*
X17861Y-35543D01*
X17871Y-35525D01*
X17589Y-35362D02*
X17496Y-35362D01*
X17496Y-35165D01*
X17655Y-35259D02*
X17721Y-35259D01*
X17749Y-35362D02*
X17655Y-35362D01*
X17655Y-35165D01*
X17749Y-35165D01*
X17833Y-35362D02*
X17833Y-35165D01*
X17880Y-35165D01*
X17908Y-35175D01*
X17927Y-35193D01*
X17936Y-35212D01*
X17946Y-35250D01*
X17946Y-35278D01*
X17936Y-35315D01*
X17927Y-35334D01*
X17908Y-35353D01*
X17880Y-35362D01*
X17833Y-35362D01*
X17477Y-47448D02*
X17477Y-47251D01*
X17524Y-47251D01*
X17552Y-47261D01*
X17571Y-47279D01*
X17580Y-47298D01*
X17589Y-47336D01*
X17589Y-47364D01*
X17580Y-47401D01*
X17571Y-47420D01*
X17552Y-47439D01*
X17524Y-47448D01*
X17477Y-47448D01*
X17777Y-47448D02*
X17664Y-47448D01*
X17721Y-47448D02*
X17721Y-47251D01*
X17702Y-47279D01*
X17683Y-47298D01*
X17664Y-47308D01*
X17965Y-47448D02*
X17852Y-47448D01*
X17908Y-47448D02*
X17908Y-47251D01*
X17890Y-47279D01*
X17871Y-47298D01*
X17852Y-47308D01*
X17589Y-47173D02*
X17496Y-47173D01*
X17496Y-46976D01*
X17655Y-47070D02*
X17721Y-47070D01*
X17749Y-47173D02*
X17655Y-47173D01*
X17655Y-46976D01*
X17749Y-46976D01*
X17833Y-47173D02*
X17833Y-46976D01*
X17880Y-46976D01*
X17908Y-46986D01*
X17927Y-47004D01*
X17936Y-47023D01*
X17946Y-47061D01*
X17946Y-47089D01*
X17936Y-47126D01*
X17927Y-47145D01*
X17908Y-47164D01*
X17880Y-47173D01*
X17833Y-47173D01*
X25545Y-49451D02*
X25348Y-49451D01*
X25348Y-49404D01*
X25357Y-49376D01*
X25376Y-49358D01*
X25395Y-49348D01*
X25432Y-49339D01*
X25460Y-49339D01*
X25498Y-49348D01*
X25517Y-49358D01*
X25535Y-49376D01*
X25545Y-49404D01*
X25545Y-49451D01*
X25545Y-49151D02*
X25545Y-49264D01*
X25545Y-49207D02*
X25348Y-49207D01*
X25376Y-49226D01*
X25395Y-49245D01*
X25404Y-49264D01*
X25348Y-49085D02*
X25348Y-48964D01*
X25423Y-49029D01*
X25423Y-49001D01*
X25432Y-48982D01*
X25442Y-48973D01*
X25460Y-48964D01*
X25507Y-48964D01*
X25526Y-48973D01*
X25535Y-48982D01*
X25545Y-49001D01*
X25545Y-49057D01*
X25535Y-49076D01*
X25526Y-49085D01*
X25820Y-49339D02*
X25820Y-49433D01*
X25623Y-49433D01*
X25717Y-49273D02*
X25717Y-49207D01*
X25820Y-49179D02*
X25820Y-49273D01*
X25623Y-49273D01*
X25623Y-49179D01*
X25820Y-49095D02*
X25623Y-49095D01*
X25623Y-49048D01*
X25632Y-49020D01*
X25651Y-49001D01*
X25670Y-48992D01*
X25707Y-48982D01*
X25735Y-48982D01*
X25773Y-48992D01*
X25792Y-49001D01*
X25810Y-49020D01*
X25820Y-49048D01*
X25820Y-49095D01*
X21608Y-49451D02*
X21411Y-49451D01*
X21411Y-49404D01*
X21420Y-49376D01*
X21439Y-49358D01*
X21458Y-49348D01*
X21495Y-49339D01*
X21523Y-49339D01*
X21561Y-49348D01*
X21580Y-49358D01*
X21598Y-49376D01*
X21608Y-49404D01*
X21608Y-49451D01*
X21608Y-49151D02*
X21608Y-49264D01*
X21608Y-49207D02*
X21411Y-49207D01*
X21439Y-49226D01*
X21458Y-49245D01*
X21467Y-49264D01*
X21411Y-48973D02*
X21411Y-49067D01*
X21505Y-49076D01*
X21495Y-49067D01*
X21486Y-49048D01*
X21486Y-49001D01*
X21495Y-48982D01*
X21505Y-48973D01*
X21523Y-48964D01*
X21570Y-48964D01*
X21589Y-48973D01*
X21598Y-48982D01*
X21608Y-49001D01*
X21608Y-49048D01*
X21598Y-49067D01*
X21589Y-49076D01*
X21883Y-49339D02*
X21883Y-49433D01*
X21686Y-49433D01*
X21780Y-49273D02*
X21780Y-49207D01*
X21883Y-49179D02*
X21883Y-49273D01*
X21686Y-49273D01*
X21686Y-49179D01*
X21883Y-49095D02*
X21686Y-49095D01*
X21686Y-49048D01*
X21695Y-49020D01*
X21714Y-49001D01*
X21733Y-48992D01*
X21770Y-48982D01*
X21798Y-48982D01*
X21836Y-48992D01*
X21855Y-49001D01*
X21873Y-49020D01*
X21883Y-49048D01*
X21883Y-49095D01*
X29482Y-49451D02*
X29285Y-49451D01*
X29285Y-49404D01*
X29294Y-49376D01*
X29313Y-49358D01*
X29332Y-49348D01*
X29369Y-49339D01*
X29397Y-49339D01*
X29435Y-49348D01*
X29454Y-49358D01*
X29472Y-49376D01*
X29482Y-49404D01*
X29482Y-49451D01*
X29482Y-49151D02*
X29482Y-49264D01*
X29482Y-49207D02*
X29285Y-49207D01*
X29313Y-49226D01*
X29332Y-49245D01*
X29341Y-49264D01*
X29285Y-49085D02*
X29285Y-48954D01*
X29482Y-49039D01*
X29757Y-49339D02*
X29757Y-49433D01*
X29560Y-49433D01*
X29654Y-49273D02*
X29654Y-49207D01*
X29757Y-49179D02*
X29757Y-49273D01*
X29560Y-49273D01*
X29560Y-49179D01*
X29757Y-49095D02*
X29560Y-49095D01*
X29560Y-49048D01*
X29569Y-49020D01*
X29588Y-49001D01*
X29607Y-48992D01*
X29644Y-48982D01*
X29672Y-48982D01*
X29710Y-48992D01*
X29729Y-49001D01*
X29747Y-49020D01*
X29757Y-49048D01*
X29757Y-49095D01*
X33225Y-41543D02*
X33225Y-41346D01*
X33272Y-41346D01*
X33300Y-41355D01*
X33319Y-41374D01*
X33328Y-41393D01*
X33337Y-41430D01*
X33337Y-41458D01*
X33328Y-41496D01*
X33319Y-41515D01*
X33300Y-41533D01*
X33272Y-41543D01*
X33225Y-41543D01*
X33525Y-41543D02*
X33412Y-41543D01*
X33469Y-41543D02*
X33469Y-41346D01*
X33450Y-41374D01*
X33431Y-41393D01*
X33412Y-41402D01*
X33619Y-41543D02*
X33656Y-41543D01*
X33675Y-41533D01*
X33685Y-41524D01*
X33703Y-41496D01*
X33713Y-41458D01*
X33713Y-41383D01*
X33703Y-41365D01*
X33694Y-41355D01*
X33675Y-41346D01*
X33638Y-41346D01*
X33619Y-41355D01*
X33609Y-41365D01*
X33600Y-41383D01*
X33600Y-41430D01*
X33609Y-41449D01*
X33619Y-41458D01*
X33638Y-41468D01*
X33675Y-41468D01*
X33694Y-41458D01*
X33703Y-41449D01*
X33713Y-41430D01*
X33337Y-41268D02*
X33244Y-41268D01*
X33244Y-41071D01*
X33403Y-41165D02*
X33469Y-41165D01*
X33497Y-41268D02*
X33403Y-41268D01*
X33403Y-41071D01*
X33497Y-41071D01*
X33581Y-41268D02*
X33581Y-41071D01*
X33628Y-41071D01*
X33656Y-41080D01*
X33675Y-41099D01*
X33685Y-41118D01*
X33694Y-41155D01*
X33694Y-41183D01*
X33685Y-41221D01*
X33675Y-41240D01*
X33656Y-41258D01*
X33628Y-41268D01*
X33581Y-41268D01*
X49167Y-14018D02*
X48970Y-14018D01*
X48970Y-13971D01*
X48979Y-13943D01*
X48998Y-13924D01*
X49017Y-13915D01*
X49054Y-13906D01*
X49082Y-13906D01*
X49120Y-13915D01*
X49139Y-13924D01*
X49157Y-13943D01*
X49167Y-13971D01*
X49167Y-14018D01*
X48970Y-13840D02*
X48970Y-13718D01*
X49045Y-13784D01*
X49045Y-13756D01*
X49054Y-13737D01*
X49064Y-13727D01*
X49082Y-13718D01*
X49129Y-13718D01*
X49148Y-13727D01*
X49157Y-13737D01*
X49167Y-13756D01*
X49167Y-13812D01*
X49157Y-13831D01*
X49148Y-13840D01*
X49036Y-13549D02*
X49167Y-13549D01*
X48960Y-13596D02*
X49101Y-13643D01*
X49101Y-13521D01*
X49442Y-13906D02*
X49442Y-13999D01*
X49245Y-13999D01*
X49339Y-13840D02*
X49339Y-13774D01*
X49442Y-13746D02*
X49442Y-13840D01*
X49245Y-13840D01*
X49245Y-13746D01*
X49442Y-13662D02*
X49245Y-13662D01*
X49245Y-13615D01*
X49254Y-13587D01*
X49273Y-13568D01*
X49292Y-13559D01*
X49329Y-13549D01*
X49357Y-13549D01*
X49395Y-13559D01*
X49414Y-13568D01*
X49432Y-13587D01*
X49442Y-13615D01*
X49442Y-13662D01*
X33225Y-35637D02*
X33225Y-35440D01*
X33272Y-35440D01*
X33300Y-35450D01*
X33319Y-35468D01*
X33328Y-35487D01*
X33337Y-35525D01*
X33337Y-35553D01*
X33328Y-35590D01*
X33319Y-35609D01*
X33300Y-35628D01*
X33272Y-35637D01*
X33225Y-35637D01*
X33412Y-35459D02*
X33422Y-35450D01*
X33441Y-35440D01*
X33488Y-35440D01*
X33506Y-35450D01*
X33516Y-35459D01*
X33525Y-35478D01*
X33525Y-35497D01*
X33516Y-35525D01*
X33403Y-35637D01*
X33525Y-35637D01*
X33591Y-35440D02*
X33713Y-35440D01*
X33647Y-35515D01*
X33675Y-35515D01*
X33694Y-35525D01*
X33703Y-35534D01*
X33713Y-35553D01*
X33713Y-35600D01*
X33703Y-35619D01*
X33694Y-35628D01*
X33675Y-35637D01*
X33619Y-35637D01*
X33600Y-35628D01*
X33591Y-35619D01*
X33337Y-35362D02*
X33244Y-35362D01*
X33244Y-35165D01*
X33403Y-35259D02*
X33469Y-35259D01*
X33497Y-35362D02*
X33403Y-35362D01*
X33403Y-35165D01*
X33497Y-35165D01*
X33581Y-35362D02*
X33581Y-35165D01*
X33628Y-35165D01*
X33656Y-35175D01*
X33675Y-35193D01*
X33685Y-35212D01*
X33694Y-35250D01*
X33694Y-35278D01*
X33685Y-35315D01*
X33675Y-35334D01*
X33656Y-35353D01*
X33628Y-35362D01*
X33581Y-35362D01*
X33225Y-21858D02*
X33225Y-21661D01*
X33272Y-21661D01*
X33300Y-21670D01*
X33319Y-21689D01*
X33328Y-21708D01*
X33337Y-21745D01*
X33337Y-21773D01*
X33328Y-21811D01*
X33319Y-21830D01*
X33300Y-21848D01*
X33272Y-21858D01*
X33225Y-21858D01*
X33412Y-21680D02*
X33422Y-21670D01*
X33441Y-21661D01*
X33488Y-21661D01*
X33506Y-21670D01*
X33516Y-21680D01*
X33525Y-21698D01*
X33525Y-21717D01*
X33516Y-21745D01*
X33403Y-21858D01*
X33525Y-21858D01*
X33703Y-21661D02*
X33609Y-21661D01*
X33600Y-21755D01*
X33609Y-21745D01*
X33628Y-21736D01*
X33675Y-21736D01*
X33694Y-21745D01*
X33703Y-21755D01*
X33713Y-21773D01*
X33713Y-21820D01*
X33703Y-21839D01*
X33694Y-21848D01*
X33675Y-21858D01*
X33628Y-21858D01*
X33609Y-21848D01*
X33600Y-21839D01*
X33337Y-21583D02*
X33244Y-21583D01*
X33244Y-21386D01*
X33403Y-21480D02*
X33469Y-21480D01*
X33497Y-21583D02*
X33403Y-21583D01*
X33403Y-21386D01*
X33497Y-21386D01*
X33581Y-21583D02*
X33581Y-21386D01*
X33628Y-21386D01*
X33656Y-21395D01*
X33675Y-21414D01*
X33685Y-21433D01*
X33694Y-21470D01*
X33694Y-21498D01*
X33685Y-21536D01*
X33675Y-21555D01*
X33656Y-21573D01*
X33628Y-21583D01*
X33581Y-21583D01*
X33225Y-27763D02*
X33225Y-27566D01*
X33272Y-27566D01*
X33300Y-27576D01*
X33319Y-27594D01*
X33328Y-27613D01*
X33337Y-27651D01*
X33337Y-27679D01*
X33328Y-27716D01*
X33319Y-27735D01*
X33300Y-27754D01*
X33272Y-27763D01*
X33225Y-27763D01*
X33412Y-27585D02*
X33422Y-27576D01*
X33441Y-27566D01*
X33488Y-27566D01*
X33506Y-27576D01*
X33516Y-27585D01*
X33525Y-27604D01*
X33525Y-27623D01*
X33516Y-27651D01*
X33403Y-27763D01*
X33525Y-27763D01*
X33591Y-27566D02*
X33722Y-27566D01*
X33638Y-27763D01*
X33337Y-27488D02*
X33244Y-27488D01*
X33244Y-27291D01*
X33403Y-27385D02*
X33469Y-27385D01*
X33497Y-27488D02*
X33403Y-27488D01*
X33403Y-27291D01*
X33497Y-27291D01*
X33581Y-27488D02*
X33581Y-27291D01*
X33628Y-27291D01*
X33656Y-27301D01*
X33675Y-27319D01*
X33685Y-27338D01*
X33694Y-27376D01*
X33694Y-27404D01*
X33685Y-27441D01*
X33675Y-27460D01*
X33656Y-27479D01*
X33628Y-27488D01*
X33581Y-27488D01*
X33225Y-15952D02*
X33225Y-15755D01*
X33272Y-15755D01*
X33300Y-15765D01*
X33319Y-15783D01*
X33328Y-15802D01*
X33337Y-15840D01*
X33337Y-15868D01*
X33328Y-15905D01*
X33319Y-15924D01*
X33300Y-15943D01*
X33272Y-15952D01*
X33225Y-15952D01*
X33412Y-15774D02*
X33422Y-15765D01*
X33441Y-15755D01*
X33488Y-15755D01*
X33506Y-15765D01*
X33516Y-15774D01*
X33525Y-15793D01*
X33525Y-15812D01*
X33516Y-15840D01*
X33403Y-15952D01*
X33525Y-15952D01*
X33619Y-15952D02*
X33656Y-15952D01*
X33675Y-15943D01*
X33685Y-15934D01*
X33703Y-15905D01*
X33713Y-15868D01*
X33713Y-15793D01*
X33703Y-15774D01*
X33694Y-15765D01*
X33675Y-15755D01*
X33638Y-15755D01*
X33619Y-15765D01*
X33609Y-15774D01*
X33600Y-15793D01*
X33600Y-15840D01*
X33609Y-15858D01*
X33619Y-15868D01*
X33638Y-15877D01*
X33675Y-15877D01*
X33694Y-15868D01*
X33703Y-15858D01*
X33713Y-15840D01*
X33337Y-15677D02*
X33244Y-15677D01*
X33244Y-15480D01*
X33403Y-15574D02*
X33469Y-15574D01*
X33497Y-15677D02*
X33403Y-15677D01*
X33403Y-15480D01*
X33497Y-15480D01*
X33581Y-15677D02*
X33581Y-15480D01*
X33628Y-15480D01*
X33656Y-15490D01*
X33675Y-15508D01*
X33685Y-15527D01*
X33694Y-15565D01*
X33694Y-15593D01*
X33685Y-15630D01*
X33675Y-15649D01*
X33656Y-15668D01*
X33628Y-15677D01*
X33581Y-15677D01*
X25545Y-14018D02*
X25348Y-14018D01*
X25348Y-13971D01*
X25357Y-13943D01*
X25376Y-13924D01*
X25395Y-13915D01*
X25432Y-13906D01*
X25460Y-13906D01*
X25498Y-13915D01*
X25517Y-13924D01*
X25535Y-13943D01*
X25545Y-13971D01*
X25545Y-14018D01*
X25348Y-13840D02*
X25348Y-13718D01*
X25423Y-13784D01*
X25423Y-13756D01*
X25432Y-13737D01*
X25442Y-13727D01*
X25460Y-13718D01*
X25507Y-13718D01*
X25526Y-13727D01*
X25535Y-13737D01*
X25545Y-13756D01*
X25545Y-13812D01*
X25535Y-13831D01*
X25526Y-13840D01*
X25545Y-13530D02*
X25545Y-13643D01*
X25545Y-13587D02*
X25348Y-13587D01*
X25376Y-13605D01*
X25395Y-13624D01*
X25404Y-13643D01*
X25820Y-13906D02*
X25820Y-13999D01*
X25623Y-13999D01*
X25717Y-13840D02*
X25717Y-13774D01*
X25820Y-13746D02*
X25820Y-13840D01*
X25623Y-13840D01*
X25623Y-13746D01*
X25820Y-13662D02*
X25623Y-13662D01*
X25623Y-13615D01*
X25632Y-13587D01*
X25651Y-13568D01*
X25670Y-13559D01*
X25707Y-13549D01*
X25735Y-13549D01*
X25773Y-13559D01*
X25792Y-13568D01*
X25810Y-13587D01*
X25820Y-13615D01*
X25820Y-13662D01*
X21608Y-14018D02*
X21411Y-14018D01*
X21411Y-13971D01*
X21420Y-13943D01*
X21439Y-13924D01*
X21458Y-13915D01*
X21495Y-13906D01*
X21523Y-13906D01*
X21561Y-13915D01*
X21580Y-13924D01*
X21598Y-13943D01*
X21608Y-13971D01*
X21608Y-14018D01*
X21411Y-13840D02*
X21411Y-13718D01*
X21486Y-13784D01*
X21486Y-13756D01*
X21495Y-13737D01*
X21505Y-13727D01*
X21523Y-13718D01*
X21570Y-13718D01*
X21589Y-13727D01*
X21598Y-13737D01*
X21608Y-13756D01*
X21608Y-13812D01*
X21598Y-13831D01*
X21589Y-13840D01*
X21411Y-13652D02*
X21411Y-13530D01*
X21486Y-13596D01*
X21486Y-13568D01*
X21495Y-13549D01*
X21505Y-13540D01*
X21523Y-13530D01*
X21570Y-13530D01*
X21589Y-13540D01*
X21598Y-13549D01*
X21608Y-13568D01*
X21608Y-13624D01*
X21598Y-13643D01*
X21589Y-13652D01*
X21883Y-13906D02*
X21883Y-13999D01*
X21686Y-13999D01*
X21780Y-13840D02*
X21780Y-13774D01*
X21883Y-13746D02*
X21883Y-13840D01*
X21686Y-13840D01*
X21686Y-13746D01*
X21883Y-13662D02*
X21686Y-13662D01*
X21686Y-13615D01*
X21695Y-13587D01*
X21714Y-13568D01*
X21733Y-13559D01*
X21770Y-13549D01*
X21798Y-13549D01*
X21836Y-13559D01*
X21855Y-13568D01*
X21873Y-13587D01*
X21883Y-13615D01*
X21883Y-13662D01*
X29482Y-14018D02*
X29285Y-14018D01*
X29285Y-13971D01*
X29294Y-13943D01*
X29313Y-13924D01*
X29332Y-13915D01*
X29369Y-13906D01*
X29397Y-13906D01*
X29435Y-13915D01*
X29454Y-13924D01*
X29472Y-13943D01*
X29482Y-13971D01*
X29482Y-14018D01*
X29285Y-13840D02*
X29285Y-13718D01*
X29360Y-13784D01*
X29360Y-13756D01*
X29369Y-13737D01*
X29379Y-13727D01*
X29397Y-13718D01*
X29444Y-13718D01*
X29463Y-13727D01*
X29472Y-13737D01*
X29482Y-13756D01*
X29482Y-13812D01*
X29472Y-13831D01*
X29463Y-13840D01*
X29285Y-13540D02*
X29285Y-13634D01*
X29379Y-13643D01*
X29369Y-13634D01*
X29360Y-13615D01*
X29360Y-13568D01*
X29369Y-13549D01*
X29379Y-13540D01*
X29397Y-13530D01*
X29444Y-13530D01*
X29463Y-13540D01*
X29472Y-13549D01*
X29482Y-13568D01*
X29482Y-13615D01*
X29472Y-13634D01*
X29463Y-13643D01*
X29757Y-13906D02*
X29757Y-13999D01*
X29560Y-13999D01*
X29654Y-13840D02*
X29654Y-13774D01*
X29757Y-13746D02*
X29757Y-13840D01*
X29560Y-13840D01*
X29560Y-13746D01*
X29757Y-13662D02*
X29560Y-13662D01*
X29560Y-13615D01*
X29569Y-13587D01*
X29588Y-13568D01*
X29607Y-13559D01*
X29644Y-13549D01*
X29672Y-13549D01*
X29710Y-13559D01*
X29729Y-13568D01*
X29747Y-13587D01*
X29757Y-13615D01*
X29757Y-13662D01*
X25545Y-31735D02*
X25348Y-31735D01*
X25348Y-31688D01*
X25357Y-31660D01*
X25376Y-31641D01*
X25395Y-31632D01*
X25432Y-31622D01*
X25460Y-31622D01*
X25498Y-31632D01*
X25517Y-31641D01*
X25535Y-31660D01*
X25545Y-31688D01*
X25545Y-31735D01*
X25348Y-31557D02*
X25348Y-31435D01*
X25423Y-31500D01*
X25423Y-31472D01*
X25432Y-31453D01*
X25442Y-31444D01*
X25460Y-31435D01*
X25507Y-31435D01*
X25526Y-31444D01*
X25535Y-31453D01*
X25545Y-31472D01*
X25545Y-31528D01*
X25535Y-31547D01*
X25526Y-31557D01*
X25348Y-31369D02*
X25348Y-31238D01*
X25545Y-31322D01*
X25820Y-31622D02*
X25820Y-31716D01*
X25623Y-31716D01*
X25717Y-31557D02*
X25717Y-31491D01*
X25820Y-31463D02*
X25820Y-31557D01*
X25623Y-31557D01*
X25623Y-31463D01*
X25820Y-31378D02*
X25623Y-31378D01*
X25623Y-31331D01*
X25632Y-31303D01*
X25651Y-31284D01*
X25670Y-31275D01*
X25707Y-31266D01*
X25735Y-31266D01*
X25773Y-31275D01*
X25792Y-31284D01*
X25810Y-31303D01*
X25820Y-31331D01*
X25820Y-31378D01*
X29482Y-31735D02*
X29285Y-31735D01*
X29285Y-31688D01*
X29294Y-31660D01*
X29313Y-31641D01*
X29332Y-31632D01*
X29369Y-31622D01*
X29397Y-31622D01*
X29435Y-31632D01*
X29454Y-31641D01*
X29472Y-31660D01*
X29482Y-31688D01*
X29482Y-31735D01*
X29285Y-31557D02*
X29285Y-31435D01*
X29360Y-31500D01*
X29360Y-31472D01*
X29369Y-31453D01*
X29379Y-31444D01*
X29397Y-31435D01*
X29444Y-31435D01*
X29463Y-31444D01*
X29472Y-31453D01*
X29482Y-31472D01*
X29482Y-31528D01*
X29472Y-31547D01*
X29463Y-31557D01*
X29482Y-31341D02*
X29482Y-31303D01*
X29472Y-31284D01*
X29463Y-31275D01*
X29435Y-31256D01*
X29397Y-31247D01*
X29322Y-31247D01*
X29304Y-31256D01*
X29294Y-31266D01*
X29285Y-31284D01*
X29285Y-31322D01*
X29294Y-31341D01*
X29304Y-31350D01*
X29322Y-31360D01*
X29369Y-31360D01*
X29388Y-31350D01*
X29397Y-31341D01*
X29407Y-31322D01*
X29407Y-31284D01*
X29397Y-31266D01*
X29388Y-31256D01*
X29369Y-31247D01*
X29757Y-31622D02*
X29757Y-31716D01*
X29560Y-31716D01*
X29654Y-31557D02*
X29654Y-31491D01*
X29757Y-31463D02*
X29757Y-31557D01*
X29560Y-31557D01*
X29560Y-31463D01*
X29757Y-31378D02*
X29560Y-31378D01*
X29560Y-31331D01*
X29569Y-31303D01*
X29588Y-31284D01*
X29607Y-31275D01*
X29644Y-31266D01*
X29672Y-31266D01*
X29710Y-31275D01*
X29729Y-31284D01*
X29747Y-31303D01*
X29757Y-31331D01*
X29757Y-31378D01*
X45230Y-31735D02*
X45033Y-31735D01*
X45033Y-31688D01*
X45042Y-31660D01*
X45061Y-31641D01*
X45080Y-31632D01*
X45117Y-31622D01*
X45145Y-31622D01*
X45183Y-31632D01*
X45202Y-31641D01*
X45220Y-31660D01*
X45230Y-31688D01*
X45230Y-31735D01*
X45033Y-31557D02*
X45033Y-31435D01*
X45108Y-31500D01*
X45108Y-31472D01*
X45117Y-31453D01*
X45127Y-31444D01*
X45145Y-31435D01*
X45192Y-31435D01*
X45211Y-31444D01*
X45220Y-31453D01*
X45230Y-31472D01*
X45230Y-31528D01*
X45220Y-31547D01*
X45211Y-31557D01*
X45117Y-31322D02*
X45108Y-31341D01*
X45098Y-31350D01*
X45080Y-31360D01*
X45070Y-31360D01*
X45052Y-31350D01*
X45042Y-31341D01*
X45033Y-31322D01*
X45033Y-31284D01*
X45042Y-31266D01*
X45052Y-31256D01*
X45070Y-31247D01*
X45080Y-31247D01*
X45098Y-31256D01*
X45108Y-31266D01*
X45117Y-31284D01*
X45117Y-31322D01*
X45127Y-31341D01*
X45136Y-31350D01*
X45155Y-31360D01*
X45192Y-31360D01*
X45211Y-31350D01*
X45220Y-31341D01*
X45230Y-31322D01*
X45230Y-31284D01*
X45220Y-31266D01*
X45211Y-31256D01*
X45192Y-31247D01*
X45155Y-31247D01*
X45136Y-31256D01*
X45127Y-31266D01*
X45117Y-31284D01*
X45505Y-31622D02*
X45505Y-31716D01*
X45308Y-31716D01*
X45402Y-31557D02*
X45402Y-31491D01*
X45505Y-31463D02*
X45505Y-31557D01*
X45308Y-31557D01*
X45308Y-31463D01*
X45505Y-31378D02*
X45308Y-31378D01*
X45308Y-31331D01*
X45317Y-31303D01*
X45336Y-31284D01*
X45355Y-31275D01*
X45392Y-31266D01*
X45420Y-31266D01*
X45458Y-31275D01*
X45477Y-31284D01*
X45495Y-31303D01*
X45505Y-31331D01*
X45505Y-31378D01*
X41293Y-14018D02*
X41096Y-14018D01*
X41096Y-13971D01*
X41105Y-13943D01*
X41124Y-13924D01*
X41143Y-13915D01*
X41180Y-13906D01*
X41208Y-13906D01*
X41246Y-13915D01*
X41265Y-13924D01*
X41283Y-13943D01*
X41293Y-13971D01*
X41293Y-14018D01*
X41096Y-13840D02*
X41096Y-13718D01*
X41171Y-13784D01*
X41171Y-13756D01*
X41180Y-13737D01*
X41190Y-13727D01*
X41208Y-13718D01*
X41255Y-13718D01*
X41274Y-13727D01*
X41283Y-13737D01*
X41293Y-13756D01*
X41293Y-13812D01*
X41283Y-13831D01*
X41274Y-13840D01*
X41096Y-13549D02*
X41096Y-13587D01*
X41105Y-13605D01*
X41115Y-13615D01*
X41143Y-13634D01*
X41180Y-13643D01*
X41255Y-13643D01*
X41274Y-13634D01*
X41283Y-13624D01*
X41293Y-13605D01*
X41293Y-13568D01*
X41283Y-13549D01*
X41274Y-13540D01*
X41255Y-13530D01*
X41208Y-13530D01*
X41190Y-13540D01*
X41180Y-13549D01*
X41171Y-13568D01*
X41171Y-13605D01*
X41180Y-13624D01*
X41190Y-13634D01*
X41208Y-13643D01*
X41568Y-13906D02*
X41568Y-13999D01*
X41371Y-13999D01*
X41465Y-13840D02*
X41465Y-13774D01*
X41568Y-13746D02*
X41568Y-13840D01*
X41371Y-13840D01*
X41371Y-13746D01*
X41568Y-13662D02*
X41371Y-13662D01*
X41371Y-13615D01*
X41380Y-13587D01*
X41399Y-13568D01*
X41418Y-13559D01*
X41455Y-13549D01*
X41483Y-13549D01*
X41521Y-13559D01*
X41540Y-13568D01*
X41558Y-13587D01*
X41568Y-13615D01*
X41568Y-13662D01*
G54D21*
X28427Y-18781D02*
X28367Y-18686D01*
X28324Y-18781D02*
X28324Y-18581D01*
X28393Y-18581D01*
X28410Y-18591D01*
X28419Y-18600D01*
X28427Y-18619D01*
X28427Y-18648D01*
X28419Y-18667D01*
X28410Y-18676D01*
X28393Y-18686D01*
X28324Y-18686D01*
X28599Y-18781D02*
X28496Y-18781D01*
X28547Y-18781D02*
X28547Y-18581D01*
X28530Y-18610D01*
X28513Y-18629D01*
X28496Y-18638D01*
X28659Y-18581D02*
X28779Y-18581D01*
X28701Y-18781D01*
X43191Y-27640D02*
X43131Y-27544D01*
X43088Y-27640D02*
X43088Y-27440D01*
X43157Y-27440D01*
X43174Y-27449D01*
X43182Y-27459D01*
X43191Y-27478D01*
X43191Y-27506D01*
X43182Y-27525D01*
X43174Y-27535D01*
X43157Y-27544D01*
X43088Y-27544D01*
X43259Y-27459D02*
X43268Y-27449D01*
X43285Y-27440D01*
X43328Y-27440D01*
X43345Y-27449D01*
X43354Y-27459D01*
X43362Y-27478D01*
X43362Y-27497D01*
X43354Y-27525D01*
X43251Y-27640D01*
X43362Y-27640D01*
X43517Y-27440D02*
X43482Y-27440D01*
X43465Y-27449D01*
X43457Y-27459D01*
X43439Y-27487D01*
X43431Y-27525D01*
X43431Y-27601D01*
X43439Y-27620D01*
X43448Y-27630D01*
X43465Y-27640D01*
X43499Y-27640D01*
X43517Y-27630D01*
X43525Y-27620D01*
X43534Y-27601D01*
X43534Y-27554D01*
X43525Y-27535D01*
X43517Y-27525D01*
X43499Y-27516D01*
X43465Y-27516D01*
X43448Y-27525D01*
X43439Y-27535D01*
X43431Y-27554D01*
X44372Y-18816D02*
X44277Y-18876D01*
X44372Y-18919D02*
X44172Y-18919D01*
X44172Y-18850D01*
X44181Y-18833D01*
X44191Y-18825D01*
X44210Y-18816D01*
X44238Y-18816D01*
X44258Y-18825D01*
X44267Y-18833D01*
X44277Y-18850D01*
X44277Y-18919D01*
X44191Y-18747D02*
X44181Y-18739D01*
X44172Y-18722D01*
X44172Y-18679D01*
X44181Y-18662D01*
X44191Y-18653D01*
X44210Y-18645D01*
X44229Y-18645D01*
X44258Y-18653D01*
X44372Y-18756D01*
X44372Y-18645D01*
X44191Y-18576D02*
X44181Y-18567D01*
X44172Y-18550D01*
X44172Y-18507D01*
X44181Y-18490D01*
X44191Y-18482D01*
X44210Y-18473D01*
X44229Y-18473D01*
X44258Y-18482D01*
X44372Y-18585D01*
X44372Y-18473D01*
X22607Y-19765D02*
X22547Y-19670D01*
X22504Y-19765D02*
X22504Y-19565D01*
X22573Y-19565D01*
X22590Y-19575D01*
X22599Y-19585D01*
X22607Y-19604D01*
X22607Y-19632D01*
X22599Y-19651D01*
X22590Y-19661D01*
X22573Y-19670D01*
X22504Y-19670D01*
X22779Y-19765D02*
X22676Y-19765D01*
X22727Y-19765D02*
X22727Y-19565D01*
X22710Y-19594D01*
X22693Y-19613D01*
X22676Y-19623D01*
X48112Y-18781D02*
X48052Y-18686D01*
X48009Y-18781D02*
X48009Y-18581D01*
X48078Y-18581D01*
X48095Y-18591D01*
X48104Y-18600D01*
X48112Y-18619D01*
X48112Y-18648D01*
X48104Y-18667D01*
X48095Y-18676D01*
X48078Y-18686D01*
X48009Y-18686D01*
X48284Y-18781D02*
X48181Y-18781D01*
X48232Y-18781D02*
X48232Y-18581D01*
X48215Y-18610D01*
X48198Y-18629D01*
X48181Y-18638D01*
X48386Y-18667D02*
X48369Y-18657D01*
X48361Y-18648D01*
X48352Y-18629D01*
X48352Y-18619D01*
X48361Y-18600D01*
X48369Y-18591D01*
X48386Y-18581D01*
X48421Y-18581D01*
X48438Y-18591D01*
X48446Y-18600D01*
X48455Y-18619D01*
X48455Y-18629D01*
X48446Y-18648D01*
X48438Y-18657D01*
X48421Y-18667D01*
X48386Y-18667D01*
X48369Y-18676D01*
X48361Y-18686D01*
X48352Y-18705D01*
X48352Y-18743D01*
X48361Y-18762D01*
X48369Y-18772D01*
X48386Y-18781D01*
X48421Y-18781D01*
X48438Y-18772D01*
X48446Y-18762D01*
X48455Y-18743D01*
X48455Y-18705D01*
X48446Y-18686D01*
X48438Y-18676D01*
X48421Y-18667D01*
X48112Y-37482D02*
X48052Y-37387D01*
X48009Y-37482D02*
X48009Y-37282D01*
X48078Y-37282D01*
X48095Y-37292D01*
X48104Y-37301D01*
X48112Y-37320D01*
X48112Y-37349D01*
X48104Y-37368D01*
X48095Y-37377D01*
X48078Y-37387D01*
X48009Y-37387D01*
X48284Y-37482D02*
X48181Y-37482D01*
X48232Y-37482D02*
X48232Y-37282D01*
X48215Y-37311D01*
X48198Y-37330D01*
X48181Y-37339D01*
X48438Y-37349D02*
X48438Y-37482D01*
X48395Y-37273D02*
X48352Y-37415D01*
X48464Y-37415D01*
X22607Y-39451D02*
X22547Y-39355D01*
X22504Y-39451D02*
X22504Y-39251D01*
X22573Y-39251D01*
X22590Y-39260D01*
X22599Y-39270D01*
X22607Y-39289D01*
X22607Y-39317D01*
X22599Y-39336D01*
X22590Y-39346D01*
X22573Y-39355D01*
X22504Y-39355D01*
X22770Y-39251D02*
X22684Y-39251D01*
X22676Y-39346D01*
X22684Y-39336D01*
X22702Y-39327D01*
X22744Y-39327D01*
X22762Y-39336D01*
X22770Y-39346D01*
X22779Y-39365D01*
X22779Y-39412D01*
X22770Y-39431D01*
X22762Y-39441D01*
X22744Y-39451D01*
X22702Y-39451D01*
X22684Y-39441D01*
X22676Y-39431D01*
X43388Y-43422D02*
X43292Y-43482D01*
X43388Y-43525D02*
X43188Y-43525D01*
X43188Y-43457D01*
X43197Y-43439D01*
X43207Y-43431D01*
X43226Y-43422D01*
X43254Y-43422D01*
X43273Y-43431D01*
X43283Y-43439D01*
X43292Y-43457D01*
X43292Y-43525D01*
X43388Y-43251D02*
X43388Y-43354D01*
X43388Y-43302D02*
X43188Y-43302D01*
X43216Y-43319D01*
X43235Y-43337D01*
X43245Y-43354D01*
X43188Y-43139D02*
X43188Y-43122D01*
X43197Y-43105D01*
X43207Y-43097D01*
X43226Y-43088D01*
X43264Y-43079D01*
X43311Y-43079D01*
X43349Y-43088D01*
X43368Y-43097D01*
X43378Y-43105D01*
X43388Y-43122D01*
X43388Y-43139D01*
X43378Y-43157D01*
X43368Y-43165D01*
X43349Y-43174D01*
X43311Y-43182D01*
X43264Y-43182D01*
X43226Y-43174D01*
X43207Y-43165D01*
X43197Y-43157D01*
X43188Y-43139D01*
X42292Y-39451D02*
X42232Y-39355D01*
X42189Y-39451D02*
X42189Y-39251D01*
X42258Y-39251D01*
X42275Y-39260D01*
X42284Y-39270D01*
X42292Y-39289D01*
X42292Y-39317D01*
X42284Y-39336D01*
X42275Y-39346D01*
X42258Y-39355D01*
X42189Y-39355D01*
X42447Y-39251D02*
X42412Y-39251D01*
X42395Y-39260D01*
X42387Y-39270D01*
X42369Y-39298D01*
X42361Y-39336D01*
X42361Y-39412D01*
X42369Y-39431D01*
X42378Y-39441D01*
X42395Y-39451D01*
X42429Y-39451D01*
X42447Y-39441D01*
X42455Y-39431D01*
X42464Y-39412D01*
X42464Y-39365D01*
X42455Y-39346D01*
X42447Y-39336D01*
X42429Y-39327D01*
X42395Y-39327D01*
X42378Y-39336D01*
X42369Y-39346D01*
X42361Y-39365D01*
X23702Y-43337D02*
X23607Y-43397D01*
X23702Y-43439D02*
X23502Y-43439D01*
X23502Y-43371D01*
X23512Y-43354D01*
X23522Y-43345D01*
X23541Y-43337D01*
X23569Y-43337D01*
X23588Y-43345D01*
X23598Y-43354D01*
X23607Y-43371D01*
X23607Y-43439D01*
X23702Y-43251D02*
X23702Y-43217D01*
X23693Y-43199D01*
X23683Y-43191D01*
X23655Y-43174D01*
X23617Y-43165D01*
X23541Y-43165D01*
X23522Y-43174D01*
X23512Y-43182D01*
X23502Y-43199D01*
X23502Y-43234D01*
X23512Y-43251D01*
X23522Y-43259D01*
X23541Y-43268D01*
X23588Y-43268D01*
X23607Y-43259D01*
X23617Y-43251D01*
X23626Y-43234D01*
X23626Y-43199D01*
X23617Y-43182D01*
X23607Y-43174D01*
X23588Y-43165D01*
X42403Y-19715D02*
X42308Y-19775D01*
X42403Y-19817D02*
X42203Y-19817D01*
X42203Y-19749D01*
X42213Y-19732D01*
X42222Y-19723D01*
X42241Y-19715D01*
X42270Y-19715D01*
X42289Y-19723D01*
X42299Y-19732D01*
X42308Y-19749D01*
X42308Y-19817D01*
X42222Y-19646D02*
X42213Y-19637D01*
X42203Y-19620D01*
X42203Y-19577D01*
X42213Y-19560D01*
X42222Y-19552D01*
X42241Y-19543D01*
X42260Y-19543D01*
X42289Y-19552D01*
X42403Y-19655D01*
X42403Y-19543D01*
X28427Y-37482D02*
X28367Y-37387D01*
X28324Y-37482D02*
X28324Y-37282D01*
X28393Y-37282D01*
X28410Y-37292D01*
X28419Y-37301D01*
X28427Y-37320D01*
X28427Y-37349D01*
X28419Y-37368D01*
X28410Y-37377D01*
X28393Y-37387D01*
X28324Y-37387D01*
X28599Y-37482D02*
X28496Y-37482D01*
X28547Y-37482D02*
X28547Y-37282D01*
X28530Y-37311D01*
X28513Y-37330D01*
X28496Y-37339D01*
X28659Y-37282D02*
X28770Y-37282D01*
X28710Y-37358D01*
X28736Y-37358D01*
X28753Y-37368D01*
X28761Y-37377D01*
X28770Y-37396D01*
X28770Y-37444D01*
X28761Y-37463D01*
X28753Y-37473D01*
X28736Y-37482D01*
X28684Y-37482D01*
X28667Y-37473D01*
X28659Y-37463D01*
X23506Y-27640D02*
X23446Y-27544D01*
X23403Y-27640D02*
X23403Y-27440D01*
X23472Y-27440D01*
X23489Y-27449D01*
X23497Y-27459D01*
X23506Y-27478D01*
X23506Y-27506D01*
X23497Y-27525D01*
X23489Y-27535D01*
X23472Y-27544D01*
X23403Y-27544D01*
X23574Y-27459D02*
X23583Y-27449D01*
X23600Y-27440D01*
X23643Y-27440D01*
X23660Y-27449D01*
X23669Y-27459D01*
X23677Y-27478D01*
X23677Y-27497D01*
X23669Y-27525D01*
X23566Y-27640D01*
X23677Y-27640D01*
X23840Y-27440D02*
X23754Y-27440D01*
X23746Y-27535D01*
X23754Y-27525D01*
X23772Y-27516D01*
X23814Y-27516D01*
X23832Y-27525D01*
X23840Y-27535D01*
X23849Y-27554D01*
X23849Y-27601D01*
X23840Y-27620D01*
X23832Y-27630D01*
X23814Y-27640D01*
X23772Y-27640D01*
X23754Y-27630D01*
X23746Y-27620D01*
X24687Y-18816D02*
X24592Y-18876D01*
X24687Y-18919D02*
X24487Y-18919D01*
X24487Y-18850D01*
X24496Y-18833D01*
X24506Y-18825D01*
X24525Y-18816D01*
X24553Y-18816D01*
X24572Y-18825D01*
X24582Y-18833D01*
X24592Y-18850D01*
X24592Y-18919D01*
X24506Y-18747D02*
X24496Y-18739D01*
X24487Y-18722D01*
X24487Y-18679D01*
X24496Y-18662D01*
X24506Y-18653D01*
X24525Y-18645D01*
X24544Y-18645D01*
X24572Y-18653D01*
X24687Y-18756D01*
X24687Y-18645D01*
X24687Y-18473D02*
X24687Y-18576D01*
X24687Y-18525D02*
X24487Y-18525D01*
X24515Y-18542D01*
X24534Y-18559D01*
X24544Y-18576D01*
G54D22*
X53445Y-31791D02*
X53045Y-31791D01*
X53045Y-31638D01*
X53064Y-31600D01*
X53083Y-31581D01*
X53121Y-31562D01*
X53179Y-31562D01*
X53217Y-31581D01*
X53236Y-31600D01*
X53255Y-31638D01*
X53255Y-31791D01*
X53083Y-31410D02*
X53064Y-31391D01*
X53045Y-31353D01*
X53045Y-31257D01*
X53064Y-31219D01*
X53083Y-31200D01*
X53121Y-31181D01*
X53160Y-31181D01*
X53217Y-31200D01*
X53445Y-31429D01*
X53445Y-31181D01*
G54D20*
X44258Y-36353D02*
X44249Y-36362D01*
X44220Y-36372D01*
X44202Y-36372D01*
X44174Y-36362D01*
X44155Y-36343D01*
X44145Y-36325D01*
X44136Y-36287D01*
X44136Y-36259D01*
X44145Y-36221D01*
X44155Y-36203D01*
X44174Y-36184D01*
X44202Y-36175D01*
X44220Y-36175D01*
X44249Y-36184D01*
X44258Y-36193D01*
X44446Y-36372D02*
X44333Y-36372D01*
X44389Y-36372D02*
X44389Y-36175D01*
X44371Y-36203D01*
X44352Y-36221D01*
X44333Y-36231D01*
X44352Y-36628D02*
X44342Y-36637D01*
X44314Y-36647D01*
X44296Y-36647D01*
X44267Y-36637D01*
X44249Y-36618D01*
X44239Y-36600D01*
X44230Y-36562D01*
X44230Y-36534D01*
X44239Y-36496D01*
X44249Y-36478D01*
X44267Y-36459D01*
X44296Y-36450D01*
X44314Y-36450D01*
X44342Y-36459D01*
X44352Y-36468D01*
X24573Y-36353D02*
X24564Y-36362D01*
X24535Y-36372D01*
X24517Y-36372D01*
X24489Y-36362D01*
X24470Y-36343D01*
X24460Y-36325D01*
X24451Y-36287D01*
X24451Y-36259D01*
X24460Y-36221D01*
X24470Y-36203D01*
X24489Y-36184D01*
X24517Y-36175D01*
X24535Y-36175D01*
X24564Y-36184D01*
X24573Y-36193D01*
X24648Y-36193D02*
X24657Y-36184D01*
X24676Y-36175D01*
X24723Y-36175D01*
X24742Y-36184D01*
X24751Y-36193D01*
X24761Y-36212D01*
X24761Y-36231D01*
X24751Y-36259D01*
X24639Y-36372D01*
X24761Y-36372D01*
X24667Y-36628D02*
X24657Y-36637D01*
X24629Y-36647D01*
X24610Y-36647D01*
X24582Y-36637D01*
X24564Y-36618D01*
X24554Y-36600D01*
X24545Y-36562D01*
X24545Y-36534D01*
X24554Y-36496D01*
X24564Y-36478D01*
X24582Y-36459D01*
X24610Y-36450D01*
X24629Y-36450D01*
X24657Y-36459D01*
X24667Y-36468D01*
G54D12*
X16932Y-12347D02*
X16703Y-12347D01*
X16818Y-12347D02*
X16818Y-11947D01*
X16779Y-12004D01*
X16741Y-12042D01*
X16703Y-12062D01*
X17103Y-12347D02*
X17103Y-11947D01*
X17256Y-11947D01*
X17294Y-11966D01*
X17313Y-11985D01*
X17332Y-12023D01*
X17332Y-12081D01*
X17313Y-12119D01*
X17294Y-12138D01*
X17256Y-12157D01*
X17103Y-12157D01*
X17503Y-12347D02*
X17503Y-11947D01*
X17694Y-12347D02*
X17694Y-11947D01*
X17922Y-12347D01*
X17922Y-11947D01*
X53152Y-12347D02*
X52924Y-12347D01*
X53038Y-12347D02*
X53038Y-11947D01*
X53000Y-12004D01*
X52962Y-12042D01*
X52924Y-12062D01*
X53324Y-12347D02*
X53324Y-11947D01*
X53476Y-11947D01*
X53514Y-11966D01*
X53533Y-11985D01*
X53552Y-12023D01*
X53552Y-12081D01*
X53533Y-12119D01*
X53514Y-12138D01*
X53476Y-12157D01*
X53324Y-12157D01*
X53724Y-12347D02*
X53724Y-11947D01*
X53914Y-12347D02*
X53914Y-11947D01*
X54143Y-12347D01*
X54143Y-11947D01*
X53152Y-48568D02*
X52924Y-48568D01*
X53038Y-48568D02*
X53038Y-48168D01*
X53000Y-48225D01*
X52962Y-48263D01*
X52924Y-48282D01*
X53324Y-48568D02*
X53324Y-48168D01*
X53476Y-48168D01*
X53514Y-48187D01*
X53533Y-48206D01*
X53552Y-48244D01*
X53552Y-48301D01*
X53533Y-48339D01*
X53514Y-48358D01*
X53476Y-48377D01*
X53324Y-48377D01*
X53724Y-48568D02*
X53724Y-48168D01*
X53914Y-48568D02*
X53914Y-48168D01*
X54143Y-48568D01*
X54143Y-48168D01*
X16932Y-48568D02*
X16703Y-48568D01*
X16818Y-48568D02*
X16818Y-48168D01*
X16779Y-48225D01*
X16741Y-48263D01*
X16703Y-48282D01*
X17103Y-48568D02*
X17103Y-48168D01*
X17256Y-48168D01*
X17294Y-48187D01*
X17313Y-48206D01*
X17332Y-48244D01*
X17332Y-48301D01*
X17313Y-48339D01*
X17294Y-48358D01*
X17256Y-48377D01*
X17103Y-48377D01*
X17503Y-48568D02*
X17503Y-48168D01*
X17694Y-48568D02*
X17694Y-48168D01*
X17922Y-48568D01*
X17922Y-48168D01*
X35042Y-30457D02*
X34814Y-30457D01*
X34928Y-30457D02*
X34928Y-30057D01*
X34890Y-30115D01*
X34852Y-30153D01*
X34814Y-30172D01*
X35214Y-30457D02*
X35214Y-30057D01*
X35366Y-30057D01*
X35404Y-30077D01*
X35423Y-30096D01*
X35442Y-30134D01*
X35442Y-30191D01*
X35423Y-30229D01*
X35404Y-30248D01*
X35366Y-30267D01*
X35214Y-30267D01*
X35614Y-30457D02*
X35614Y-30057D01*
X35804Y-30457D02*
X35804Y-30057D01*
X36033Y-30457D01*
X36033Y-30057D01*
M02*
