G04 (created by PCBNEW (2013-07-07 BZR 4022)-stable) date 2/23/2015 9:33:28 PM*
%MOIN*%
G04 Gerber Fmt 3.4, Leading zero omitted, Abs format*
%FSLAX34Y34*%
G01*
G70*
G90*
G04 APERTURE LIST*
%ADD10C,0.00590551*%
%ADD11R,0.05X0.015*%
%ADD12R,0.0394X0.0315*%
%ADD13R,0.0315X0.0394*%
%ADD14R,0.06X0.08*%
%ADD15R,0.08X0.06*%
%ADD16R,0.055X0.035*%
%ADD17R,0.035X0.055*%
%ADD18R,0.025X0.045*%
%ADD19R,0.045X0.025*%
%ADD20R,0.06X0.06*%
%ADD21C,0.06*%
%ADD22C,0.16*%
G04 APERTURE END LIST*
G54D10*
G54D11*
X26692Y-35344D03*
X26692Y-35088D03*
X26692Y-34832D03*
X26692Y-34576D03*
X26692Y-34320D03*
X26692Y-34064D03*
X26692Y-33808D03*
X26692Y-33552D03*
X24488Y-33552D03*
X24488Y-33808D03*
X24488Y-34064D03*
X24488Y-34320D03*
X24488Y-34576D03*
X24488Y-34832D03*
X24488Y-35088D03*
X24488Y-35344D03*
X46377Y-35344D03*
X46377Y-35088D03*
X46377Y-34832D03*
X46377Y-34576D03*
X46377Y-34320D03*
X46377Y-34064D03*
X46377Y-33808D03*
X46377Y-33552D03*
X44173Y-33552D03*
X44173Y-33808D03*
X44173Y-34064D03*
X44173Y-34320D03*
X44173Y-34576D03*
X44173Y-34832D03*
X44173Y-35088D03*
X44173Y-35344D03*
G54D12*
X38937Y-18700D03*
X39803Y-18325D03*
X39803Y-19075D03*
G54D13*
X42322Y-29960D03*
X41947Y-29094D03*
X42697Y-29094D03*
X42322Y-15315D03*
X42697Y-16181D03*
X41947Y-16181D03*
G54D12*
X51614Y-18700D03*
X50748Y-19075D03*
X50748Y-18325D03*
X51614Y-38385D03*
X50748Y-38760D03*
X50748Y-38010D03*
G54D13*
X42322Y-46692D03*
X41947Y-45826D03*
X42697Y-45826D03*
G54D12*
X38937Y-38385D03*
X39803Y-38010D03*
X39803Y-38760D03*
G54D13*
X22637Y-29960D03*
X22262Y-29094D03*
X23012Y-29094D03*
X22637Y-15315D03*
X23012Y-16181D03*
X22262Y-16181D03*
G54D12*
X19252Y-18700D03*
X20118Y-18325D03*
X20118Y-19075D03*
X31929Y-18700D03*
X31063Y-19075D03*
X31063Y-18325D03*
G54D13*
X22637Y-46692D03*
X22262Y-45826D03*
X23012Y-45826D03*
G54D12*
X19252Y-38385D03*
X20118Y-38010D03*
X20118Y-38760D03*
X31929Y-38385D03*
X31063Y-38760D03*
X31063Y-38010D03*
G54D14*
X24940Y-29527D03*
X26240Y-29527D03*
G54D15*
X51181Y-41988D03*
X51181Y-40688D03*
X51181Y-22303D03*
X51181Y-21003D03*
G54D14*
X44625Y-15748D03*
X45925Y-15748D03*
X44625Y-29527D03*
X45925Y-29527D03*
X44625Y-47244D03*
X45925Y-47244D03*
G54D15*
X39370Y-41988D03*
X39370Y-40688D03*
X39370Y-22303D03*
X39370Y-21003D03*
G54D14*
X24940Y-15748D03*
X26240Y-15748D03*
G54D15*
X31496Y-22303D03*
X31496Y-21003D03*
X31496Y-41988D03*
X31496Y-40688D03*
G54D14*
X26240Y-47244D03*
X24940Y-47244D03*
G54D15*
X19685Y-41988D03*
X19685Y-40688D03*
X19685Y-22303D03*
X19685Y-21003D03*
G54D16*
X53149Y-41713D03*
X53149Y-40963D03*
X53149Y-22028D03*
X53149Y-21278D03*
X53149Y-47619D03*
X53149Y-46869D03*
X53149Y-16123D03*
X53149Y-15373D03*
G54D17*
X41713Y-13779D03*
X40963Y-13779D03*
G54D16*
X53149Y-27934D03*
X53149Y-27184D03*
G54D17*
X29902Y-31496D03*
X29152Y-31496D03*
G54D16*
X53149Y-35808D03*
X53149Y-35058D03*
G54D17*
X49587Y-49212D03*
X48837Y-49212D03*
G54D16*
X37401Y-16123D03*
X37401Y-15373D03*
X37401Y-22028D03*
X37401Y-21278D03*
X37401Y-27934D03*
X37401Y-27184D03*
X37401Y-35808D03*
X37401Y-35058D03*
X37401Y-41713D03*
X37401Y-40963D03*
X37401Y-47619D03*
X37401Y-46869D03*
G54D17*
X41713Y-49212D03*
X40963Y-49212D03*
X45650Y-49212D03*
X44900Y-49212D03*
G54D16*
X33464Y-41713D03*
X33464Y-40963D03*
G54D17*
X49587Y-31496D03*
X48837Y-31496D03*
X45650Y-31496D03*
X44900Y-31496D03*
G54D16*
X17716Y-16123D03*
X17716Y-15373D03*
X17716Y-22028D03*
X17716Y-21278D03*
X17716Y-27934D03*
X17716Y-27184D03*
X17716Y-35808D03*
X17716Y-35058D03*
X17716Y-41713D03*
X17716Y-40963D03*
X17716Y-47619D03*
X17716Y-46869D03*
G54D17*
X22028Y-49212D03*
X21278Y-49212D03*
X25965Y-49212D03*
X25215Y-49212D03*
X29902Y-49212D03*
X29152Y-49212D03*
G54D16*
X33464Y-35808D03*
X33464Y-35058D03*
G54D17*
X45650Y-13779D03*
X44900Y-13779D03*
G54D16*
X33464Y-47619D03*
X33464Y-46869D03*
X33464Y-16123D03*
X33464Y-15373D03*
X33464Y-22028D03*
X33464Y-21278D03*
X33464Y-27934D03*
X33464Y-27184D03*
G54D17*
X22028Y-13779D03*
X21278Y-13779D03*
X25965Y-13779D03*
X25215Y-13779D03*
X29902Y-13779D03*
X29152Y-13779D03*
X22028Y-31496D03*
X21278Y-31496D03*
X25965Y-31496D03*
X25215Y-31496D03*
X41713Y-31496D03*
X40963Y-31496D03*
X49587Y-13779D03*
X48837Y-13779D03*
G54D18*
X28243Y-18700D03*
X28843Y-18700D03*
X43607Y-27559D03*
X43007Y-27559D03*
G54D19*
X44291Y-19000D03*
X44291Y-18400D03*
G54D18*
X22337Y-19685D03*
X22937Y-19685D03*
X47928Y-18700D03*
X48528Y-18700D03*
X47928Y-37401D03*
X48528Y-37401D03*
X22337Y-39370D03*
X22937Y-39370D03*
G54D19*
X43307Y-43007D03*
X43307Y-43607D03*
G54D18*
X42622Y-39370D03*
X42022Y-39370D03*
G54D19*
X23622Y-43607D03*
X23622Y-43007D03*
X42322Y-19985D03*
X42322Y-19385D03*
G54D18*
X28243Y-37401D03*
X28843Y-37401D03*
X23922Y-27559D03*
X23322Y-27559D03*
G54D19*
X24606Y-19000D03*
X24606Y-18400D03*
G54D20*
X16732Y-33996D03*
G54D21*
X16732Y-32996D03*
X16732Y-31996D03*
X16732Y-30996D03*
X16732Y-29996D03*
X16732Y-28996D03*
G54D20*
X54133Y-33996D03*
G54D21*
X54133Y-32996D03*
X54133Y-31996D03*
X54133Y-30996D03*
X54133Y-29996D03*
X54133Y-28996D03*
G54D17*
X43916Y-36417D03*
X44666Y-36417D03*
X24231Y-36417D03*
X24981Y-36417D03*
G54D22*
X17322Y-13385D03*
X53543Y-13385D03*
X53543Y-49606D03*
X17322Y-49606D03*
X35433Y-31496D03*
M02*
